<?xml version="1.0" encoding="utf-8" standalone="no"?>
<!DOCTYPE svg PUBLIC "-//W3C//DTD SVG 1.1//EN"
  "http://www.w3.org/Graphics/SVG/1.1/DTD/svg11.dtd">
<svg xmlns:xlink="http://www.w3.org/1999/xlink" width="526.724524pt" height="353.99952pt" viewBox="0 0 526.724524 353.99952" xmlns="http://www.w3.org/2000/svg" version="1.1">
 <metadata>
  <rdf:RDF xmlns:dc="http://purl.org/dc/elements/1.1/" xmlns:cc="http://creativecommons.org/ns#" xmlns:rdf="http://www.w3.org/1999/02/22-rdf-syntax-ns#">
   <cc:Work>
    <dc:type rdf:resource="http://purl.org/dc/dcmitype/StillImage"/>
    <dc:date>2023-01-05T10:34:21.317440</dc:date>
    <dc:format>image/svg+xml</dc:format>
    <dc:creator>
     <cc:Agent>
      <dc:title>Matplotlib v3.6.2, https://matplotlib.org/</dc:title>
     </cc:Agent>
    </dc:creator>
   </cc:Work>
  </rdf:RDF>
 </metadata>
 <defs>
  <style type="text/css">*{stroke-linejoin: round; stroke-linecap: butt}</style>
 </defs>
 <g id="figure_1">
  <g id="patch_1">
   <path d="M 0 353.99952 
L 526.724524 353.99952 
L 526.724524 0 
L 0 0 
z
" style="fill: #ffffff"/>
  </g>
  <g id="axes_1">
   <g id="patch_2">
    <path d="M 60.389063 311.232957 
L 500.097194 311.232957 
L 500.097194 25.36 
L 60.389063 25.36 
z
" style="fill: #eeeeee"/>
   </g>
   <g id="matplotlib.axis_1">
    <g id="xtick_1">
     <g id="line2d_1">
      <path d="M 80.375796 311.232957 
L 80.375796 25.36 
" clip-path="url(#p6fa62af31a)" style="fill: none; stroke: #ffffff; stroke-width: 0.8; stroke-linecap: round"/>
     </g>
     <g id="line2d_2"/>
     <g id="text_1">
      <!-- 0 -->
      <g style="fill: #262626" transform="translate(75.922046 325.37077) scale(0.14 -0.14)">
       <defs>
        <path id="DejaVuSans-30" d="M 2034 4250 
Q 1547 4250 1301 3770 
Q 1056 3291 1056 2328 
Q 1056 1369 1301 889 
Q 1547 409 2034 409 
Q 2525 409 2770 889 
Q 3016 1369 3016 2328 
Q 3016 3291 2770 3770 
Q 2525 4250 2034 4250 
z
M 2034 4750 
Q 2819 4750 3233 4129 
Q 3647 3509 3647 2328 
Q 3647 1150 3233 529 
Q 2819 -91 2034 -91 
Q 1250 -91 836 529 
Q 422 1150 422 2328 
Q 422 3509 836 4129 
Q 1250 4750 2034 4750 
z
" transform="scale(0.015625)"/>
       </defs>
       <use xlink:href="#DejaVuSans-30"/>
      </g>
     </g>
    </g>
    <g id="xtick_2">
     <g id="line2d_3">
      <path d="M 443.770946 311.232957 
L 443.770946 25.36 
" clip-path="url(#p6fa62af31a)" style="fill: none; stroke: #ffffff; stroke-width: 0.8; stroke-linecap: round"/>
     </g>
     <g id="line2d_4"/>
     <g id="text_2">
      <!-- 1 -->
      <g style="fill: #262626" transform="translate(439.317196 325.37077) scale(0.14 -0.14)">
       <defs>
        <path id="DejaVuSans-31" d="M 794 531 
L 1825 531 
L 1825 4091 
L 703 3866 
L 703 4441 
L 1819 4666 
L 2450 4666 
L 2450 531 
L 3481 531 
L 3481 0 
L 794 0 
L 794 531 
z
" transform="scale(0.015625)"/>
       </defs>
       <use xlink:href="#DejaVuSans-31"/>
      </g>
     </g>
    </g>
    <g id="text_3">
     <!-- t -->
     <g style="fill: #262626" transform="translate(277.302894 343.679989) scale(0.15 -0.15)">
      <defs>
       <path id="DejaVuSans-74" d="M 1172 4494 
L 1172 3500 
L 2356 3500 
L 2356 3053 
L 1172 3053 
L 1172 1153 
Q 1172 725 1289 603 
Q 1406 481 1766 481 
L 2356 481 
L 2356 0 
L 1766 0 
Q 1100 0 847 248 
Q 594 497 594 1153 
L 594 3053 
L 172 3053 
L 172 3500 
L 594 3500 
L 594 4494 
L 1172 4494 
z
" transform="scale(0.015625)"/>
      </defs>
      <use xlink:href="#DejaVuSans-74"/>
     </g>
    </g>
   </g>
   <g id="matplotlib.axis_2">
    <g id="ytick_1">
     <g id="line2d_5">
      <path d="M 60.389063 284.450834 
L 500.097194 284.450834 
" clip-path="url(#p6fa62af31a)" style="fill: none; stroke: #ffffff; stroke-width: 0.8; stroke-linecap: round"/>
     </g>
     <g id="line2d_6"/>
     <g id="text_4">
      <!-- 1.00 -->
      <g style="fill: #262626" transform="translate(25.717187 289.769741) scale(0.14 -0.14)">
       <defs>
        <path id="DejaVuSans-2e" d="M 684 794 
L 1344 794 
L 1344 0 
L 684 0 
L 684 794 
z
" transform="scale(0.015625)"/>
       </defs>
       <use xlink:href="#DejaVuSans-31"/>
       <use xlink:href="#DejaVuSans-2e" x="63.623047"/>
       <use xlink:href="#DejaVuSans-30" x="95.410156"/>
       <use xlink:href="#DejaVuSans-30" x="159.033203"/>
      </g>
     </g>
    </g>
    <g id="ytick_2">
     <g id="line2d_7">
      <path d="M 60.389063 250.945236 
L 500.097194 250.945236 
" clip-path="url(#p6fa62af31a)" style="fill: none; stroke: #ffffff; stroke-width: 0.8; stroke-linecap: round"/>
     </g>
     <g id="line2d_8"/>
     <g id="text_5">
      <!-- 1.25 -->
      <g style="fill: #262626" transform="translate(25.717187 256.264142) scale(0.14 -0.14)">
       <defs>
        <path id="DejaVuSans-32" d="M 1228 531 
L 3431 531 
L 3431 0 
L 469 0 
L 469 531 
Q 828 903 1448 1529 
Q 2069 2156 2228 2338 
Q 2531 2678 2651 2914 
Q 2772 3150 2772 3378 
Q 2772 3750 2511 3984 
Q 2250 4219 1831 4219 
Q 1534 4219 1204 4116 
Q 875 4013 500 3803 
L 500 4441 
Q 881 4594 1212 4672 
Q 1544 4750 1819 4750 
Q 2544 4750 2975 4387 
Q 3406 4025 3406 3419 
Q 3406 3131 3298 2873 
Q 3191 2616 2906 2266 
Q 2828 2175 2409 1742 
Q 1991 1309 1228 531 
z
" transform="scale(0.015625)"/>
        <path id="DejaVuSans-35" d="M 691 4666 
L 3169 4666 
L 3169 4134 
L 1269 4134 
L 1269 2991 
Q 1406 3038 1543 3061 
Q 1681 3084 1819 3084 
Q 2600 3084 3056 2656 
Q 3513 2228 3513 1497 
Q 3513 744 3044 326 
Q 2575 -91 1722 -91 
Q 1428 -91 1123 -41 
Q 819 9 494 109 
L 494 744 
Q 775 591 1075 516 
Q 1375 441 1709 441 
Q 2250 441 2565 725 
Q 2881 1009 2881 1497 
Q 2881 1984 2565 2268 
Q 2250 2553 1709 2553 
Q 1456 2553 1204 2497 
Q 953 2441 691 2322 
L 691 4666 
z
" transform="scale(0.015625)"/>
       </defs>
       <use xlink:href="#DejaVuSans-31"/>
       <use xlink:href="#DejaVuSans-2e" x="63.623047"/>
       <use xlink:href="#DejaVuSans-32" x="95.410156"/>
       <use xlink:href="#DejaVuSans-35" x="159.033203"/>
      </g>
     </g>
    </g>
    <g id="ytick_3">
     <g id="line2d_9">
      <path d="M 60.389063 217.439637 
L 500.097194 217.439637 
" clip-path="url(#p6fa62af31a)" style="fill: none; stroke: #ffffff; stroke-width: 0.8; stroke-linecap: round"/>
     </g>
     <g id="line2d_10"/>
     <g id="text_6">
      <!-- 1.50 -->
      <g style="fill: #262626" transform="translate(25.717187 222.758543) scale(0.14 -0.14)">
       <use xlink:href="#DejaVuSans-31"/>
       <use xlink:href="#DejaVuSans-2e" x="63.623047"/>
       <use xlink:href="#DejaVuSans-35" x="95.410156"/>
       <use xlink:href="#DejaVuSans-30" x="159.033203"/>
      </g>
     </g>
    </g>
    <g id="ytick_4">
     <g id="line2d_11">
      <path d="M 60.389063 183.934038 
L 500.097194 183.934038 
" clip-path="url(#p6fa62af31a)" style="fill: none; stroke: #ffffff; stroke-width: 0.8; stroke-linecap: round"/>
     </g>
     <g id="line2d_12"/>
     <g id="text_7">
      <!-- 1.75 -->
      <g style="fill: #262626" transform="translate(25.717187 189.252945) scale(0.14 -0.14)">
       <defs>
        <path id="DejaVuSans-37" d="M 525 4666 
L 3525 4666 
L 3525 4397 
L 1831 0 
L 1172 0 
L 2766 4134 
L 525 4134 
L 525 4666 
z
" transform="scale(0.015625)"/>
       </defs>
       <use xlink:href="#DejaVuSans-31"/>
       <use xlink:href="#DejaVuSans-2e" x="63.623047"/>
       <use xlink:href="#DejaVuSans-37" x="95.410156"/>
       <use xlink:href="#DejaVuSans-35" x="159.033203"/>
      </g>
     </g>
    </g>
    <g id="ytick_5">
     <g id="line2d_13">
      <path d="M 60.389063 150.42844 
L 500.097194 150.42844 
" clip-path="url(#p6fa62af31a)" style="fill: none; stroke: #ffffff; stroke-width: 0.8; stroke-linecap: round"/>
     </g>
     <g id="line2d_14"/>
     <g id="text_8">
      <!-- 2.00 -->
      <g style="fill: #262626" transform="translate(25.717187 155.747346) scale(0.14 -0.14)">
       <use xlink:href="#DejaVuSans-32"/>
       <use xlink:href="#DejaVuSans-2e" x="63.623047"/>
       <use xlink:href="#DejaVuSans-30" x="95.410156"/>
       <use xlink:href="#DejaVuSans-30" x="159.033203"/>
      </g>
     </g>
    </g>
    <g id="ytick_6">
     <g id="line2d_15">
      <path d="M 60.389063 116.922841 
L 500.097194 116.922841 
" clip-path="url(#p6fa62af31a)" style="fill: none; stroke: #ffffff; stroke-width: 0.8; stroke-linecap: round"/>
     </g>
     <g id="line2d_16"/>
     <g id="text_9">
      <!-- 2.25 -->
      <g style="fill: #262626" transform="translate(25.717187 122.241747) scale(0.14 -0.14)">
       <use xlink:href="#DejaVuSans-32"/>
       <use xlink:href="#DejaVuSans-2e" x="63.623047"/>
       <use xlink:href="#DejaVuSans-32" x="95.410156"/>
       <use xlink:href="#DejaVuSans-35" x="159.033203"/>
      </g>
     </g>
    </g>
    <g id="ytick_7">
     <g id="line2d_17">
      <path d="M 60.389063 83.417242 
L 500.097194 83.417242 
" clip-path="url(#p6fa62af31a)" style="fill: none; stroke: #ffffff; stroke-width: 0.8; stroke-linecap: round"/>
     </g>
     <g id="line2d_18"/>
     <g id="text_10">
      <!-- 2.50 -->
      <g style="fill: #262626" transform="translate(25.717187 88.736149) scale(0.14 -0.14)">
       <use xlink:href="#DejaVuSans-32"/>
       <use xlink:href="#DejaVuSans-2e" x="63.623047"/>
       <use xlink:href="#DejaVuSans-35" x="95.410156"/>
       <use xlink:href="#DejaVuSans-30" x="159.033203"/>
      </g>
     </g>
    </g>
    <g id="ytick_8">
     <g id="line2d_19">
      <path d="M 60.389063 49.911644 
L 500.097194 49.911644 
" clip-path="url(#p6fa62af31a)" style="fill: none; stroke: #ffffff; stroke-width: 0.8; stroke-linecap: round"/>
     </g>
     <g id="line2d_20"/>
     <g id="text_11">
      <!-- 2.75 -->
      <g style="fill: #262626" transform="translate(25.717187 55.23055) scale(0.14 -0.14)">
       <use xlink:href="#DejaVuSans-32"/>
       <use xlink:href="#DejaVuSans-2e" x="63.623047"/>
       <use xlink:href="#DejaVuSans-37" x="95.410156"/>
       <use xlink:href="#DejaVuSans-35" x="159.033203"/>
      </g>
     </g>
    </g>
    <g id="text_12">
     <!-- y -->
     <g style="fill: #262626" transform="translate(18.597656 172.735541) rotate(-90) scale(0.15 -0.15)">
      <defs>
       <path id="DejaVuSans-79" d="M 2059 -325 
Q 1816 -950 1584 -1140 
Q 1353 -1331 966 -1331 
L 506 -1331 
L 506 -850 
L 844 -850 
Q 1081 -850 1212 -737 
Q 1344 -625 1503 -206 
L 1606 56 
L 191 3500 
L 800 3500 
L 1894 763 
L 2988 3500 
L 3597 3500 
L 2059 -325 
z
" transform="scale(0.015625)"/>
      </defs>
      <use xlink:href="#DejaVuSans-79"/>
     </g>
    </g>
   </g>
   <g id="PathCollection_1">
    <defs>
     <path id="C0_0_2b01ca100c" d="M 0 3 
C 0.795609 3 1.55874 2.683901 2.12132 2.12132 
C 2.683901 1.55874 3 0.795609 3 -0 
C 3 -0.795609 2.683901 -1.55874 2.12132 -2.12132 
C 1.55874 -2.683901 0.795609 -3 0 -3 
C -0.795609 -3 -1.55874 -2.683901 -2.12132 -2.12132 
C -2.683901 -1.55874 -3 -0.795609 -3 0 
C -3 0.795609 -2.683901 1.55874 -2.12132 2.12132 
C -1.55874 2.683901 -0.795609 3 0 3 
z
"/>
    </defs>
    <g clip-path="url(#p6fa62af31a)">
     <use xlink:href="#C0_0_2b01ca100c" x="80.375796" y="298.238732" style="fill: #2a2eec; stroke: #ffffff; stroke-width: 0.48"/>
    </g>
    <g clip-path="url(#p6fa62af31a)">
     <use xlink:href="#C0_0_2b01ca100c" x="443.770946" y="155.626689" style="fill: #2a2eec; stroke: #ffffff; stroke-width: 0.48"/>
    </g>
    <g clip-path="url(#p6fa62af31a)">
     <use xlink:href="#C0_0_2b01ca100c" x="80.375796" y="253.153268" style="fill: #fa7c17; stroke: #ffffff; stroke-width: 0.48"/>
    </g>
    <g clip-path="url(#p6fa62af31a)">
     <use xlink:href="#C0_0_2b01ca100c" x="443.770946" y="49.537167" style="fill: #fa7c17; stroke: #ffffff; stroke-width: 0.48"/>
    </g>
    <g clip-path="url(#p6fa62af31a)">
     <use xlink:href="#C0_0_2b01ca100c" x="80.375796" y="264.453702" style="fill: #2a2eec; stroke: #ffffff; stroke-width: 0.48"/>
    </g>
    <g clip-path="url(#p6fa62af31a)">
     <use xlink:href="#C0_0_2b01ca100c" x="443.770946" y="162.394027" style="fill: #2a2eec; stroke: #ffffff; stroke-width: 0.48"/>
    </g>
    <g clip-path="url(#p6fa62af31a)">
     <use xlink:href="#C0_0_2b01ca100c" x="80.375796" y="256.359359" style="fill: #fa7c17; stroke: #ffffff; stroke-width: 0.48"/>
    </g>
    <g clip-path="url(#p6fa62af31a)">
     <use xlink:href="#C0_0_2b01ca100c" x="443.770946" y="44.945704" style="fill: #fa7c17; stroke: #ffffff; stroke-width: 0.48"/>
    </g>
    <g clip-path="url(#p6fa62af31a)">
     <use xlink:href="#C0_0_2b01ca100c" x="80.375796" y="282.00879" style="fill: #2a2eec; stroke: #ffffff; stroke-width: 0.48"/>
    </g>
    <g clip-path="url(#p6fa62af31a)">
     <use xlink:href="#C0_0_2b01ca100c" x="443.770946" y="132.257915" style="fill: #2a2eec; stroke: #ffffff; stroke-width: 0.48"/>
    </g>
    <g clip-path="url(#p6fa62af31a)">
     <use xlink:href="#C0_0_2b01ca100c" x="80.375796" y="250.060373" style="fill: #fa7c17; stroke: #ffffff; stroke-width: 0.48"/>
    </g>
    <g clip-path="url(#p6fa62af31a)">
     <use xlink:href="#C0_0_2b01ca100c" x="443.770946" y="65.295215" style="fill: #fa7c17; stroke: #ffffff; stroke-width: 0.48"/>
    </g>
    <g clip-path="url(#p6fa62af31a)">
     <use xlink:href="#C0_0_2b01ca100c" x="80.375796" y="268.28354" style="fill: #2a2eec; stroke: #ffffff; stroke-width: 0.48"/>
    </g>
    <g clip-path="url(#p6fa62af31a)">
     <use xlink:href="#C0_0_2b01ca100c" x="443.770946" y="146.491041" style="fill: #2a2eec; stroke: #ffffff; stroke-width: 0.48"/>
    </g>
    <g clip-path="url(#p6fa62af31a)">
     <use xlink:href="#C0_0_2b01ca100c" x="80.375796" y="254.243335" style="fill: #fa7c17; stroke: #ffffff; stroke-width: 0.48"/>
    </g>
    <g clip-path="url(#p6fa62af31a)">
     <use xlink:href="#C0_0_2b01ca100c" x="443.770946" y="38.354225" style="fill: #fa7c17; stroke: #ffffff; stroke-width: 0.48"/>
    </g>
    <g clip-path="url(#p6fa62af31a)">
     <use xlink:href="#C0_0_2b01ca100c" x="80.375796" y="271.880859" style="fill: #2a2eec; stroke: #ffffff; stroke-width: 0.48"/>
    </g>
    <g clip-path="url(#p6fa62af31a)">
     <use xlink:href="#C0_0_2b01ca100c" x="443.770946" y="149.803272" style="fill: #2a2eec; stroke: #ffffff; stroke-width: 0.48"/>
    </g>
    <g clip-path="url(#p6fa62af31a)">
     <use xlink:href="#C0_0_2b01ca100c" x="80.375796" y="266.871435" style="fill: #fa7c17; stroke: #ffffff; stroke-width: 0.48"/>
    </g>
    <g clip-path="url(#p6fa62af31a)">
     <use xlink:href="#C0_0_2b01ca100c" x="443.770946" y="70.361191" style="fill: #fa7c17; stroke: #ffffff; stroke-width: 0.48"/>
    </g>
    <g clip-path="url(#p6fa62af31a)">
     <use xlink:href="#C0_0_2b01ca100c" x="80.375796" y="266.515044" style="fill: #2a2eec; stroke: #ffffff; stroke-width: 0.48"/>
    </g>
    <g clip-path="url(#p6fa62af31a)">
     <use xlink:href="#C0_0_2b01ca100c" x="443.770946" y="145.119137" style="fill: #2a2eec; stroke: #ffffff; stroke-width: 0.48"/>
    </g>
    <g clip-path="url(#p6fa62af31a)">
     <use xlink:href="#C0_0_2b01ca100c" x="80.375796" y="247.33233" style="fill: #fa7c17; stroke: #ffffff; stroke-width: 0.48"/>
    </g>
    <g clip-path="url(#p6fa62af31a)">
     <use xlink:href="#C0_0_2b01ca100c" x="443.770946" y="53.424344" style="fill: #fa7c17; stroke: #ffffff; stroke-width: 0.48"/>
    </g>
    <g clip-path="url(#p6fa62af31a)">
     <use xlink:href="#C0_0_2b01ca100c" x="80.375796" y="277.103461" style="fill: #2a2eec; stroke: #ffffff; stroke-width: 0.48"/>
    </g>
    <g clip-path="url(#p6fa62af31a)">
     <use xlink:href="#C0_0_2b01ca100c" x="443.770946" y="137.473238" style="fill: #2a2eec; stroke: #ffffff; stroke-width: 0.48"/>
    </g>
    <g clip-path="url(#p6fa62af31a)">
     <use xlink:href="#C0_0_2b01ca100c" x="80.375796" y="245.02366" style="fill: #fa7c17; stroke: #ffffff; stroke-width: 0.48"/>
    </g>
    <g clip-path="url(#p6fa62af31a)">
     <use xlink:href="#C0_0_2b01ca100c" x="443.770946" y="39.357854" style="fill: #fa7c17; stroke: #ffffff; stroke-width: 0.48"/>
    </g>
    <g clip-path="url(#p6fa62af31a)">
     <use xlink:href="#C0_0_2b01ca100c" x="80.375796" y="284.298692" style="fill: #2a2eec; stroke: #ffffff; stroke-width: 0.48"/>
    </g>
    <g clip-path="url(#p6fa62af31a)">
     <use xlink:href="#C0_0_2b01ca100c" x="443.770946" y="118.702215" style="fill: #2a2eec; stroke: #ffffff; stroke-width: 0.48"/>
    </g>
    <g clip-path="url(#p6fa62af31a)">
     <use xlink:href="#C0_0_2b01ca100c" x="80.375796" y="249.317431" style="fill: #fa7c17; stroke: #ffffff; stroke-width: 0.48"/>
    </g>
    <g clip-path="url(#p6fa62af31a)">
     <use xlink:href="#C0_0_2b01ca100c" x="443.770946" y="51.552565" style="fill: #fa7c17; stroke: #ffffff; stroke-width: 0.48"/>
    </g>
    <g clip-path="url(#p6fa62af31a)">
     <use xlink:href="#C0_0_2b01ca100c" x="80.375796" y="276.227663" style="fill: #2a2eec; stroke: #ffffff; stroke-width: 0.48"/>
    </g>
    <g clip-path="url(#p6fa62af31a)">
     <use xlink:href="#C0_0_2b01ca100c" x="443.770946" y="136.354386" style="fill: #2a2eec; stroke: #ffffff; stroke-width: 0.48"/>
    </g>
    <g clip-path="url(#p6fa62af31a)">
     <use xlink:href="#C0_0_2b01ca100c" x="80.375796" y="253.876286" style="fill: #fa7c17; stroke: #ffffff; stroke-width: 0.48"/>
    </g>
    <g clip-path="url(#p6fa62af31a)">
     <use xlink:href="#C0_0_2b01ca100c" x="443.770946" y="58.115724" style="fill: #fa7c17; stroke: #ffffff; stroke-width: 0.48"/>
    </g>
    <g clip-path="url(#p6fa62af31a)">
     <use xlink:href="#C0_0_2b01ca100c" x="80.375796" y="254.164141" style="fill: #2a2eec; stroke: #ffffff; stroke-width: 0.48"/>
    </g>
    <g clip-path="url(#p6fa62af31a)">
     <use xlink:href="#C0_0_2b01ca100c" x="443.770946" y="137.357228" style="fill: #2a2eec; stroke: #ffffff; stroke-width: 0.48"/>
    </g>
    <g clip-path="url(#p6fa62af31a)">
     <use xlink:href="#C0_0_2b01ca100c" x="80.375796" y="249.192981" style="fill: #fa7c17; stroke: #ffffff; stroke-width: 0.48"/>
    </g>
    <g clip-path="url(#p6fa62af31a)">
     <use xlink:href="#C0_0_2b01ca100c" x="443.770946" y="56.971007" style="fill: #fa7c17; stroke: #ffffff; stroke-width: 0.48"/>
    </g>
   </g>
   <g id="PolyCollection_1">
    <defs>
     <path id="mf253f53c4a" d="M 80.375796 -86.25105 
L 80.375796 -73.163876 
L 443.770946 -205.643654 
L 443.770946 -219.044829 
L 443.770946 -219.044829 
L 80.375796 -86.25105 
z
" style="stroke: #2a2eec; stroke-opacity: 0.25"/>
    </defs>
    <g clip-path="url(#p6fa62af31a)">
     <use xlink:href="#mf253f53c4a" x="0" y="353.99952" style="fill: #2a2eec; fill-opacity: 0.25; stroke: #2a2eec; stroke-opacity: 0.25"/>
    </g>
   </g>
   <g id="PolyCollection_2">
    <defs>
     <path id="mf944934181" d="M 80.375796 -108.045699 
L 80.375796 -94.643963 
L 443.770946 -294.599048 
L 443.770946 -308.212187 
L 443.770946 -308.212187 
L 80.375796 -108.045699 
z
" style="stroke: #fa7c17; stroke-opacity: 0.25"/>
    </defs>
    <g clip-path="url(#p6fa62af31a)">
     <use xlink:href="#mf944934181" x="0" y="353.99952" style="fill: #fa7c17; fill-opacity: 0.25; stroke: #fa7c17; stroke-opacity: 0.25"/>
    </g>
   </g>
   <g id="PolyCollection_3">
    <path d="M 443.870223 142.458365 
L 443.671669 142.458365 
L 443.666774 142.005092 
L 443.66529 141.551819 
L 443.655675 141.098547 
L 443.625895 140.645274 
L 443.569102 140.192001 
L 443.486556 139.738729 
L 443.387404 139.285456 
L 443.285869 138.832183 
L 443.195611 138.378911 
L 443.121984 137.925638 
L 443.055974 137.472365 
L 442.974637 137.019093 
L 442.84882 136.56582 
L 442.653635 136.112547 
L 442.376216 135.659275 
L 442.018429 135.206002 
L 441.594897 134.752729 
L 441.126563 134.299457 
L 440.630595 133.846184 
L 440.110885 133.392911 
L 439.555076 132.939639 
L 438.938719 132.486366 
L 438.230339 132.033093 
L 437.393928 131.579821 
L 436.395284 131.126548 
L 435.218851 130.673275 
L 433.886777 130.220003 
L 432.460318 129.76673 
L 431.014703 129.313457 
L 429.603745 128.860185 
L 428.240475 128.406912 
L 426.901578 127.953639 
L 425.540397 127.500367 
L 424.097109 127.047094 
L 422.517056 126.593821 
L 420.787095 126.140549 
L 418.966447 125.687276 
L 417.171969 125.234003 
L 415.515835 124.780731 
L 414.046609 124.327458 
L 412.743822 123.874185 
L 411.561726 123.420913 
L 410.476826 122.96764 
L 409.504665 122.514367 
L 408.685511 122.061095 
L 408.057829 121.607822 
L 407.639634 121.154549 
L 407.431431 120.701277 
L 407.440044 120.248004 
L 407.702047 119.794731 
L 408.276913 119.341459 
L 409.202289 118.888186 
L 410.444737 118.434913 
L 411.894181 117.98164 
L 413.412399 117.528368 
L 414.892673 117.075095 
L 416.28382 116.621822 
L 417.578937 116.16855 
L 418.80023 115.715277 
L 419.990577 115.262004 
L 421.196718 114.808732 
L 422.443812 114.355459 
L 423.726272 113.902186 
L 425.026456 113.448914 
L 426.337874 112.995641 
L 427.66581 112.542368 
L 429.009952 112.089096 
L 430.354717 111.635823 
L 431.677505 111.18255 
L 432.959571 110.729278 
L 434.184586 110.276005 
L 435.332078 109.822732 
L 436.382371 109.36946 
L 437.332221 108.916187 
L 438.201535 108.462914 
L 439.018452 108.009642 
L 439.793929 107.556369 
L 440.508791 107.103096 
L 441.125017 106.649824 
L 441.612847 106.196551 
L 441.973693 105.743278 
L 442.242491 105.290006 
L 442.46823 104.836733 
L 442.687085 104.38346 
L 442.907155 103.930188 
L 443.113337 103.476915 
L 443.284694 103.023642 
L 443.409153 102.57037 
L 443.487106 102.117097 
L 443.527106 101.663824 
L 443.54112 101.210552 
L 443.542193 100.757279 
L 443.542437 100.304006 
L 443.550016 99.850734 
L 443.567171 99.397461 
L 443.591404 98.944188 
L 443.618811 98.490916 
L 443.646708 98.037643 
L 443.673974 97.58437 
L 443.867918 97.58437 
L 443.867918 97.58437 
L 443.895184 98.037643 
L 443.923082 98.490916 
L 443.950488 98.944188 
L 443.974721 99.397461 
L 443.991876 99.850734 
L 443.999455 100.304006 
L 443.999699 100.757279 
L 444.000772 101.210552 
L 444.014786 101.663824 
L 444.054786 102.117097 
L 444.132739 102.57037 
L 444.257198 103.023642 
L 444.428555 103.476915 
L 444.634738 103.930188 
L 444.854807 104.38346 
L 445.073662 104.836733 
L 445.299401 105.290006 
L 445.5682 105.743278 
L 445.929045 106.196551 
L 446.416875 106.649824 
L 447.033101 107.103096 
L 447.747964 107.556369 
L 448.52344 108.009642 
L 449.340357 108.462914 
L 450.209672 108.916187 
L 451.159522 109.36946 
L 452.209814 109.822732 
L 453.357307 110.276005 
L 454.582322 110.729278 
L 455.864387 111.18255 
L 457.187175 111.635823 
L 458.531941 112.089096 
L 459.876082 112.542368 
L 461.204019 112.995641 
L 462.515436 113.448914 
L 463.81562 113.902186 
L 465.09808 114.355459 
L 466.345175 114.808732 
L 467.551316 115.262004 
L 468.741662 115.715277 
L 469.962955 116.16855 
L 471.258072 116.621822 
L 472.649219 117.075095 
L 474.129494 117.528368 
L 475.647711 117.98164 
L 477.097156 118.434913 
L 478.339603 118.888186 
L 479.264979 119.341459 
L 479.839845 119.794731 
L 480.101848 120.248004 
L 480.110461 120.701277 
L 479.902258 121.154549 
L 479.484063 121.607822 
L 478.856381 122.061095 
L 478.037228 122.514367 
L 477.065066 122.96764 
L 475.980166 123.420913 
L 474.798071 123.874185 
L 473.495283 124.327458 
L 472.026057 124.780731 
L 470.369923 125.234003 
L 468.575445 125.687276 
L 466.754797 126.140549 
L 465.024836 126.593821 
L 463.444783 127.047094 
L 462.001496 127.500367 
L 460.640314 127.953639 
L 459.301418 128.406912 
L 457.938147 128.860185 
L 456.52719 129.313457 
L 455.081574 129.76673 
L 453.655115 130.220003 
L 452.323041 130.673275 
L 451.146608 131.126548 
L 450.147965 131.579821 
L 449.311553 132.033093 
L 448.603173 132.486366 
L 447.986817 132.939639 
L 447.431007 133.392911 
L 446.911297 133.846184 
L 446.41533 134.299457 
L 445.946995 134.752729 
L 445.523463 135.206002 
L 445.165677 135.659275 
L 444.888257 136.112547 
L 444.693072 136.56582 
L 444.567255 137.019093 
L 444.485919 137.472365 
L 444.419908 137.925638 
L 444.346281 138.378911 
L 444.256024 138.832183 
L 444.154488 139.285456 
L 444.055336 139.738729 
L 443.97279 140.192001 
L 443.915997 140.645274 
L 443.886217 141.098547 
L 443.876602 141.551819 
L 443.875119 142.005092 
L 443.870223 142.458365 
z
" clip-path="url(#p6fa62af31a)" style="fill: #2a2eec; fill-opacity: 0.5"/>
   </g>
   <g id="line2d_21">
    <path d="M 80.375796 274.309203 
L 443.770946 142.151848 
" clip-path="url(#p6fa62af31a)" style="fill: none; stroke: #2a2eec; stroke-width: 1.5; stroke-linecap: round"/>
   </g>
   <g id="line2d_22">
    <path d="M 80.375796 280.835644 
L 443.770946 148.355866 
" clip-path="url(#p6fa62af31a)" style="fill: none; stroke: #2a2eec; stroke-opacity: 0; stroke-width: 1.5; stroke-linecap: round"/>
   </g>
   <g id="line2d_23">
    <path d="M 80.375796 267.74847 
L 443.770946 134.954691 
" clip-path="url(#p6fa62af31a)" style="fill: none; stroke: #2a2eec; stroke-opacity: 0; stroke-width: 1.5; stroke-linecap: round"/>
   </g>
   <g id="line2d_24">
    <path d="M 80.375796 252.580519 
L 443.770946 52.708775 
" clip-path="url(#p6fa62af31a)" style="fill: none; stroke: #fa7c17; stroke-width: 1.5; stroke-linecap: round"/>
   </g>
   <g id="line2d_25">
    <path d="M 80.375796 259.355557 
L 443.770946 59.400472 
" clip-path="url(#p6fa62af31a)" style="fill: none; stroke: #fa7c17; stroke-opacity: 0; stroke-width: 1.5; stroke-linecap: round"/>
   </g>
   <g id="line2d_26">
    <path d="M 80.375796 245.953821 
L 443.770946 45.787333 
" clip-path="url(#p6fa62af31a)" style="fill: none; stroke: #fa7c17; stroke-opacity: 0; stroke-width: 1.5; stroke-linecap: round"/>
   </g>
   <g id="LineCollection_1">
    <path d="M 425.601189 97.58437 
L 461.940704 97.58437 
" clip-path="url(#p6fa62af31a)" style="fill: none; stroke: #2a2eec; stroke-width: 1.5"/>
   </g>
   <g id="LineCollection_2">
    <path d="M 425.601189 142.458365 
L 461.940704 142.458365 
" clip-path="url(#p6fa62af31a)" style="fill: none; stroke: #2a2eec; stroke-width: 1.5"/>
   </g>
   <g id="LineCollection_3">
    <path d="M 443.770946 142.458365 
L 443.770946 97.58437 
" clip-path="url(#p6fa62af31a)" style="fill: none; stroke: #2a2eec; stroke-width: 1.5"/>
   </g>
   <g id="patch_3">
    <path d="M 60.389063 311.232957 
L 60.389063 25.36 
" style="fill: none"/>
   </g>
   <g id="patch_4">
    <path d="M 500.097194 311.232957 
L 500.097194 25.36 
" style="fill: none"/>
   </g>
   <g id="patch_5">
    <path d="M 60.389063 311.232957 
L 500.097194 311.232957 
" style="fill: none"/>
   </g>
   <g id="patch_6">
    <path d="M 60.389063 25.36 
L 500.097194 25.36 
" style="fill: none"/>
   </g>
   <g id="patch_7">
    <path d="M 480.110461 58.059096 
Q 480.110461 86.563305 480.110461 118.421616 
" style="fill: none; stroke: #008000; stroke-width: 3; stroke-linecap: round"/>
    <path d="M 478.110461 62.059096 
L 480.110461 58.059096 
L 482.110461 62.059096 
" style="fill: none; stroke: #008000; stroke-width: 3; stroke-linecap: round"/>
   </g>
   <g id="text_13">
    <!-- causal -->
    <g style="fill: #008000" transform="translate(485.110461 83.726438) scale(0.1 -0.1)">
     <defs>
      <path id="DejaVuSans-63" d="M 3122 3366 
L 3122 2828 
Q 2878 2963 2633 3030 
Q 2388 3097 2138 3097 
Q 1578 3097 1268 2742 
Q 959 2388 959 1747 
Q 959 1106 1268 751 
Q 1578 397 2138 397 
Q 2388 397 2633 464 
Q 2878 531 3122 666 
L 3122 134 
Q 2881 22 2623 -34 
Q 2366 -91 2075 -91 
Q 1284 -91 818 406 
Q 353 903 353 1747 
Q 353 2603 823 3093 
Q 1294 3584 2113 3584 
Q 2378 3584 2631 3529 
Q 2884 3475 3122 3366 
z
" transform="scale(0.015625)"/>
      <path id="DejaVuSans-61" d="M 2194 1759 
Q 1497 1759 1228 1600 
Q 959 1441 959 1056 
Q 959 750 1161 570 
Q 1363 391 1709 391 
Q 2188 391 2477 730 
Q 2766 1069 2766 1631 
L 2766 1759 
L 2194 1759 
z
M 3341 1997 
L 3341 0 
L 2766 0 
L 2766 531 
Q 2569 213 2275 61 
Q 1981 -91 1556 -91 
Q 1019 -91 701 211 
Q 384 513 384 1019 
Q 384 1609 779 1909 
Q 1175 2209 1959 2209 
L 2766 2209 
L 2766 2266 
Q 2766 2663 2505 2880 
Q 2244 3097 1772 3097 
Q 1472 3097 1187 3025 
Q 903 2953 641 2809 
L 641 3341 
Q 956 3463 1253 3523 
Q 1550 3584 1831 3584 
Q 2591 3584 2966 3190 
Q 3341 2797 3341 1997 
z
" transform="scale(0.015625)"/>
      <path id="DejaVuSans-75" d="M 544 1381 
L 544 3500 
L 1119 3500 
L 1119 1403 
Q 1119 906 1312 657 
Q 1506 409 1894 409 
Q 2359 409 2629 706 
Q 2900 1003 2900 1516 
L 2900 3500 
L 3475 3500 
L 3475 0 
L 2900 0 
L 2900 538 
Q 2691 219 2414 64 
Q 2138 -91 1772 -91 
Q 1169 -91 856 284 
Q 544 659 544 1381 
z
M 1991 3584 
L 1991 3584 
z
" transform="scale(0.015625)"/>
      <path id="DejaVuSans-73" d="M 2834 3397 
L 2834 2853 
Q 2591 2978 2328 3040 
Q 2066 3103 1784 3103 
Q 1356 3103 1142 2972 
Q 928 2841 928 2578 
Q 928 2378 1081 2264 
Q 1234 2150 1697 2047 
L 1894 2003 
Q 2506 1872 2764 1633 
Q 3022 1394 3022 966 
Q 3022 478 2636 193 
Q 2250 -91 1575 -91 
Q 1294 -91 989 -36 
Q 684 19 347 128 
L 347 722 
Q 666 556 975 473 
Q 1284 391 1588 391 
Q 1994 391 2212 530 
Q 2431 669 2431 922 
Q 2431 1156 2273 1281 
Q 2116 1406 1581 1522 
L 1381 1569 
Q 847 1681 609 1914 
Q 372 2147 372 2553 
Q 372 3047 722 3315 
Q 1072 3584 1716 3584 
Q 2034 3584 2315 3537 
Q 2597 3491 2834 3397 
z
" transform="scale(0.015625)"/>
      <path id="DejaVuSans-6c" d="M 603 4863 
L 1178 4863 
L 1178 0 
L 603 0 
L 603 4863 
z
" transform="scale(0.015625)"/>
     </defs>
     <use xlink:href="#DejaVuSans-63"/>
     <use xlink:href="#DejaVuSans-61" x="54.980469"/>
     <use xlink:href="#DejaVuSans-75" x="116.259766"/>
     <use xlink:href="#DejaVuSans-73" x="179.638672"/>
     <use xlink:href="#DejaVuSans-61" x="231.738281"/>
     <use xlink:href="#DejaVuSans-6c" x="293.017578"/>
    </g>
    <!-- impact -->
    <g style="fill: #008000" transform="translate(485.110461 94.924251) scale(0.1 -0.1)">
     <defs>
      <path id="DejaVuSans-69" d="M 603 3500 
L 1178 3500 
L 1178 0 
L 603 0 
L 603 3500 
z
M 603 4863 
L 1178 4863 
L 1178 4134 
L 603 4134 
L 603 4863 
z
" transform="scale(0.015625)"/>
      <path id="DejaVuSans-6d" d="M 3328 2828 
Q 3544 3216 3844 3400 
Q 4144 3584 4550 3584 
Q 5097 3584 5394 3201 
Q 5691 2819 5691 2113 
L 5691 0 
L 5113 0 
L 5113 2094 
Q 5113 2597 4934 2840 
Q 4756 3084 4391 3084 
Q 3944 3084 3684 2787 
Q 3425 2491 3425 1978 
L 3425 0 
L 2847 0 
L 2847 2094 
Q 2847 2600 2669 2842 
Q 2491 3084 2119 3084 
Q 1678 3084 1418 2786 
Q 1159 2488 1159 1978 
L 1159 0 
L 581 0 
L 581 3500 
L 1159 3500 
L 1159 2956 
Q 1356 3278 1631 3431 
Q 1906 3584 2284 3584 
Q 2666 3584 2933 3390 
Q 3200 3197 3328 2828 
z
" transform="scale(0.015625)"/>
      <path id="DejaVuSans-70" d="M 1159 525 
L 1159 -1331 
L 581 -1331 
L 581 3500 
L 1159 3500 
L 1159 2969 
Q 1341 3281 1617 3432 
Q 1894 3584 2278 3584 
Q 2916 3584 3314 3078 
Q 3713 2572 3713 1747 
Q 3713 922 3314 415 
Q 2916 -91 2278 -91 
Q 1894 -91 1617 61 
Q 1341 213 1159 525 
z
M 3116 1747 
Q 3116 2381 2855 2742 
Q 2594 3103 2138 3103 
Q 1681 3103 1420 2742 
Q 1159 2381 1159 1747 
Q 1159 1113 1420 752 
Q 1681 391 2138 391 
Q 2594 391 2855 752 
Q 3116 1113 3116 1747 
z
" transform="scale(0.015625)"/>
     </defs>
     <use xlink:href="#DejaVuSans-69"/>
     <use xlink:href="#DejaVuSans-6d" x="27.783203"/>
     <use xlink:href="#DejaVuSans-70" x="125.195312"/>
     <use xlink:href="#DejaVuSans-61" x="188.671875"/>
     <use xlink:href="#DejaVuSans-63" x="249.951172"/>
     <use xlink:href="#DejaVuSans-74" x="304.931641"/>
    </g>
   </g>
   <g id="text_14">
    <!-- Causal impact = 0.51, $CI_{94\%}$[0.41, 0.60] -->
    <g style="fill: #262626" transform="translate(121.043128 19.36) scale(0.16 -0.16)">
     <defs>
      <path id="DejaVuSans-43" d="M 4122 4306 
L 4122 3641 
Q 3803 3938 3442 4084 
Q 3081 4231 2675 4231 
Q 1875 4231 1450 3742 
Q 1025 3253 1025 2328 
Q 1025 1406 1450 917 
Q 1875 428 2675 428 
Q 3081 428 3442 575 
Q 3803 722 4122 1019 
L 4122 359 
Q 3791 134 3420 21 
Q 3050 -91 2638 -91 
Q 1578 -91 968 557 
Q 359 1206 359 2328 
Q 359 3453 968 4101 
Q 1578 4750 2638 4750 
Q 3056 4750 3426 4639 
Q 3797 4528 4122 4306 
z
" transform="scale(0.015625)"/>
      <path id="DejaVuSans-20" transform="scale(0.015625)"/>
      <path id="DejaVuSans-3d" d="M 678 2906 
L 4684 2906 
L 4684 2381 
L 678 2381 
L 678 2906 
z
M 678 1631 
L 4684 1631 
L 4684 1100 
L 678 1100 
L 678 1631 
z
" transform="scale(0.015625)"/>
      <path id="DejaVuSans-2c" d="M 750 794 
L 1409 794 
L 1409 256 
L 897 -744 
L 494 -744 
L 750 256 
L 750 794 
z
" transform="scale(0.015625)"/>
      <path id="DejaVuSans-Oblique-43" d="M 4447 4306 
L 4319 3641 
Q 4019 3944 3683 4091 
Q 3347 4238 2956 4238 
Q 2422 4238 2017 3981 
Q 1613 3725 1319 3200 
Q 1131 2863 1032 2486 
Q 934 2109 934 1728 
Q 934 1091 1264 756 
Q 1594 422 2222 422 
Q 2656 422 3056 561 
Q 3456 700 3834 978 
L 3688 231 
Q 3316 72 2936 -9 
Q 2556 -91 2175 -91 
Q 1278 -91 773 396 
Q 269 884 269 1753 
Q 269 2309 461 2846 
Q 653 3384 1013 3828 
Q 1394 4300 1883 4525 
Q 2372 4750 3022 4750 
Q 3422 4750 3780 4639 
Q 4138 4528 4447 4306 
z
" transform="scale(0.015625)"/>
      <path id="DejaVuSans-Oblique-49" d="M 1081 4666 
L 1716 4666 
L 806 0 
L 172 0 
L 1081 4666 
z
" transform="scale(0.015625)"/>
      <path id="DejaVuSans-39" d="M 703 97 
L 703 672 
Q 941 559 1184 500 
Q 1428 441 1663 441 
Q 2288 441 2617 861 
Q 2947 1281 2994 2138 
Q 2813 1869 2534 1725 
Q 2256 1581 1919 1581 
Q 1219 1581 811 2004 
Q 403 2428 403 3163 
Q 403 3881 828 4315 
Q 1253 4750 1959 4750 
Q 2769 4750 3195 4129 
Q 3622 3509 3622 2328 
Q 3622 1225 3098 567 
Q 2575 -91 1691 -91 
Q 1453 -91 1209 -44 
Q 966 3 703 97 
z
M 1959 2075 
Q 2384 2075 2632 2365 
Q 2881 2656 2881 3163 
Q 2881 3666 2632 3958 
Q 2384 4250 1959 4250 
Q 1534 4250 1286 3958 
Q 1038 3666 1038 3163 
Q 1038 2656 1286 2365 
Q 1534 2075 1959 2075 
z
" transform="scale(0.015625)"/>
      <path id="DejaVuSans-34" d="M 2419 4116 
L 825 1625 
L 2419 1625 
L 2419 4116 
z
M 2253 4666 
L 3047 4666 
L 3047 1625 
L 3713 1625 
L 3713 1100 
L 3047 1100 
L 3047 0 
L 2419 0 
L 2419 1100 
L 313 1100 
L 313 1709 
L 2253 4666 
z
" transform="scale(0.015625)"/>
      <path id="DejaVuSans-25" d="M 4653 2053 
Q 4381 2053 4226 1822 
Q 4072 1591 4072 1178 
Q 4072 772 4226 539 
Q 4381 306 4653 306 
Q 4919 306 5073 539 
Q 5228 772 5228 1178 
Q 5228 1588 5073 1820 
Q 4919 2053 4653 2053 
z
M 4653 2450 
Q 5147 2450 5437 2106 
Q 5728 1763 5728 1178 
Q 5728 594 5436 251 
Q 5144 -91 4653 -91 
Q 4153 -91 3862 251 
Q 3572 594 3572 1178 
Q 3572 1766 3864 2108 
Q 4156 2450 4653 2450 
z
M 1428 4353 
Q 1159 4353 1004 4120 
Q 850 3888 850 3481 
Q 850 3069 1003 2837 
Q 1156 2606 1428 2606 
Q 1700 2606 1854 2837 
Q 2009 3069 2009 3481 
Q 2009 3884 1853 4118 
Q 1697 4353 1428 4353 
z
M 4250 4750 
L 4750 4750 
L 1831 -91 
L 1331 -91 
L 4250 4750 
z
M 1428 4750 
Q 1922 4750 2215 4408 
Q 2509 4066 2509 3481 
Q 2509 2891 2217 2550 
Q 1925 2209 1428 2209 
Q 931 2209 642 2551 
Q 353 2894 353 3481 
Q 353 4063 643 4406 
Q 934 4750 1428 4750 
z
" transform="scale(0.015625)"/>
      <path id="DejaVuSans-5b" d="M 550 4863 
L 1875 4863 
L 1875 4416 
L 1125 4416 
L 1125 -397 
L 1875 -397 
L 1875 -844 
L 550 -844 
L 550 4863 
z
" transform="scale(0.015625)"/>
      <path id="DejaVuSans-36" d="M 2113 2584 
Q 1688 2584 1439 2293 
Q 1191 2003 1191 1497 
Q 1191 994 1439 701 
Q 1688 409 2113 409 
Q 2538 409 2786 701 
Q 3034 994 3034 1497 
Q 3034 2003 2786 2293 
Q 2538 2584 2113 2584 
z
M 3366 4563 
L 3366 3988 
Q 3128 4100 2886 4159 
Q 2644 4219 2406 4219 
Q 1781 4219 1451 3797 
Q 1122 3375 1075 2522 
Q 1259 2794 1537 2939 
Q 1816 3084 2150 3084 
Q 2853 3084 3261 2657 
Q 3669 2231 3669 1497 
Q 3669 778 3244 343 
Q 2819 -91 2113 -91 
Q 1303 -91 875 529 
Q 447 1150 447 2328 
Q 447 3434 972 4092 
Q 1497 4750 2381 4750 
Q 2619 4750 2861 4703 
Q 3103 4656 3366 4563 
z
" transform="scale(0.015625)"/>
      <path id="DejaVuSans-5d" d="M 1947 4863 
L 1947 -844 
L 622 -844 
L 622 -397 
L 1369 -397 
L 1369 4416 
L 622 4416 
L 622 4863 
L 1947 4863 
z
" transform="scale(0.015625)"/>
     </defs>
     <use xlink:href="#DejaVuSans-43" transform="translate(0 0.015625)"/>
     <use xlink:href="#DejaVuSans-61" transform="translate(69.824219 0.015625)"/>
     <use xlink:href="#DejaVuSans-75" transform="translate(131.103516 0.015625)"/>
     <use xlink:href="#DejaVuSans-73" transform="translate(194.482422 0.015625)"/>
     <use xlink:href="#DejaVuSans-61" transform="translate(246.582031 0.015625)"/>
     <use xlink:href="#DejaVuSans-6c" transform="translate(307.861328 0.015625)"/>
     <use xlink:href="#DejaVuSans-20" transform="translate(335.644531 0.015625)"/>
     <use xlink:href="#DejaVuSans-69" transform="translate(367.431641 0.015625)"/>
     <use xlink:href="#DejaVuSans-6d" transform="translate(395.214844 0.015625)"/>
     <use xlink:href="#DejaVuSans-70" transform="translate(492.626953 0.015625)"/>
     <use xlink:href="#DejaVuSans-61" transform="translate(556.103516 0.015625)"/>
     <use xlink:href="#DejaVuSans-63" transform="translate(617.382812 0.015625)"/>
     <use xlink:href="#DejaVuSans-74" transform="translate(672.363281 0.015625)"/>
     <use xlink:href="#DejaVuSans-20" transform="translate(711.572266 0.015625)"/>
     <use xlink:href="#DejaVuSans-3d" transform="translate(743.359375 0.015625)"/>
     <use xlink:href="#DejaVuSans-20" transform="translate(827.148438 0.015625)"/>
     <use xlink:href="#DejaVuSans-30" transform="translate(858.935547 0.015625)"/>
     <use xlink:href="#DejaVuSans-2e" transform="translate(922.558594 0.015625)"/>
     <use xlink:href="#DejaVuSans-35" transform="translate(954.345703 0.015625)"/>
     <use xlink:href="#DejaVuSans-31" transform="translate(1017.96875 0.015625)"/>
     <use xlink:href="#DejaVuSans-2c" transform="translate(1081.591797 0.015625)"/>
     <use xlink:href="#DejaVuSans-20" transform="translate(1113.378906 0.015625)"/>
     <use xlink:href="#DejaVuSans-Oblique-43" transform="translate(1145.166016 0.015625)"/>
     <use xlink:href="#DejaVuSans-Oblique-49" transform="translate(1214.990234 0.015625)"/>
     <use xlink:href="#DejaVuSans-39" transform="translate(1244.482422 -16.390625) scale(0.7)"/>
     <use xlink:href="#DejaVuSans-34" transform="translate(1289.018555 -16.390625) scale(0.7)"/>
     <use xlink:href="#DejaVuSans-25" transform="translate(1333.554688 -16.390625) scale(0.7)"/>
     <use xlink:href="#DejaVuSans-5b" transform="translate(1402.802734 0.015625)"/>
     <use xlink:href="#DejaVuSans-30" transform="translate(1441.816406 0.015625)"/>
     <use xlink:href="#DejaVuSans-2e" transform="translate(1505.439453 0.015625)"/>
     <use xlink:href="#DejaVuSans-34" transform="translate(1537.226562 0.015625)"/>
     <use xlink:href="#DejaVuSans-31" transform="translate(1600.849609 0.015625)"/>
     <use xlink:href="#DejaVuSans-2c" transform="translate(1664.472656 0.015625)"/>
     <use xlink:href="#DejaVuSans-20" transform="translate(1696.259766 0.015625)"/>
     <use xlink:href="#DejaVuSans-30" transform="translate(1728.046875 0.015625)"/>
     <use xlink:href="#DejaVuSans-2e" transform="translate(1791.669922 0.015625)"/>
     <use xlink:href="#DejaVuSans-36" transform="translate(1823.457031 0.015625)"/>
     <use xlink:href="#DejaVuSans-30" transform="translate(1887.080078 0.015625)"/>
     <use xlink:href="#DejaVuSans-5d" transform="translate(1950.703125 0.015625)"/>
    </g>
   </g>
   <g id="legend_1">
    <g id="line2d_27">
     <path d="M 71.189062 41.078125 
L 83.189062 41.078125 
L 95.189062 41.078125 
" style="fill: none; stroke: #2a2eec; stroke-width: 1.5; stroke-linecap: round"/>
    </g>
    <g id="patch_8">
     <path d="M 71.189062 45.278125 
L 95.189062 45.278125 
L 95.189062 36.878125 
L 71.189062 36.878125 
z
" style="fill: #2a2eec; fill-opacity: 0.25; stroke: #2a2eec; stroke-opacity: 0.25; stroke-linejoin: miter"/>
    </g>
    <g id="text_15">
     <!-- Control group -->
     <g style="fill: #262626" transform="translate(104.789062 45.278125) scale(0.12 -0.12)">
      <defs>
       <path id="DejaVuSans-6f" d="M 1959 3097 
Q 1497 3097 1228 2736 
Q 959 2375 959 1747 
Q 959 1119 1226 758 
Q 1494 397 1959 397 
Q 2419 397 2687 759 
Q 2956 1122 2956 1747 
Q 2956 2369 2687 2733 
Q 2419 3097 1959 3097 
z
M 1959 3584 
Q 2709 3584 3137 3096 
Q 3566 2609 3566 1747 
Q 3566 888 3137 398 
Q 2709 -91 1959 -91 
Q 1206 -91 779 398 
Q 353 888 353 1747 
Q 353 2609 779 3096 
Q 1206 3584 1959 3584 
z
" transform="scale(0.015625)"/>
       <path id="DejaVuSans-6e" d="M 3513 2113 
L 3513 0 
L 2938 0 
L 2938 2094 
Q 2938 2591 2744 2837 
Q 2550 3084 2163 3084 
Q 1697 3084 1428 2787 
Q 1159 2491 1159 1978 
L 1159 0 
L 581 0 
L 581 3500 
L 1159 3500 
L 1159 2956 
Q 1366 3272 1645 3428 
Q 1925 3584 2291 3584 
Q 2894 3584 3203 3211 
Q 3513 2838 3513 2113 
z
" transform="scale(0.015625)"/>
       <path id="DejaVuSans-72" d="M 2631 2963 
Q 2534 3019 2420 3045 
Q 2306 3072 2169 3072 
Q 1681 3072 1420 2755 
Q 1159 2438 1159 1844 
L 1159 0 
L 581 0 
L 581 3500 
L 1159 3500 
L 1159 2956 
Q 1341 3275 1631 3429 
Q 1922 3584 2338 3584 
Q 2397 3584 2469 3576 
Q 2541 3569 2628 3553 
L 2631 2963 
z
" transform="scale(0.015625)"/>
       <path id="DejaVuSans-67" d="M 2906 1791 
Q 2906 2416 2648 2759 
Q 2391 3103 1925 3103 
Q 1463 3103 1205 2759 
Q 947 2416 947 1791 
Q 947 1169 1205 825 
Q 1463 481 1925 481 
Q 2391 481 2648 825 
Q 2906 1169 2906 1791 
z
M 3481 434 
Q 3481 -459 3084 -895 
Q 2688 -1331 1869 -1331 
Q 1566 -1331 1297 -1286 
Q 1028 -1241 775 -1147 
L 775 -588 
Q 1028 -725 1275 -790 
Q 1522 -856 1778 -856 
Q 2344 -856 2625 -561 
Q 2906 -266 2906 331 
L 2906 616 
Q 2728 306 2450 153 
Q 2172 0 1784 0 
Q 1141 0 747 490 
Q 353 981 353 1791 
Q 353 2603 747 3093 
Q 1141 3584 1784 3584 
Q 2172 3584 2450 3431 
Q 2728 3278 2906 2969 
L 2906 3500 
L 3481 3500 
L 3481 434 
z
" transform="scale(0.015625)"/>
      </defs>
      <use xlink:href="#DejaVuSans-43"/>
      <use xlink:href="#DejaVuSans-6f" x="69.824219"/>
      <use xlink:href="#DejaVuSans-6e" x="131.005859"/>
      <use xlink:href="#DejaVuSans-74" x="194.384766"/>
      <use xlink:href="#DejaVuSans-72" x="233.59375"/>
      <use xlink:href="#DejaVuSans-6f" x="272.457031"/>
      <use xlink:href="#DejaVuSans-6c" x="333.638672"/>
      <use xlink:href="#DejaVuSans-20" x="361.421875"/>
      <use xlink:href="#DejaVuSans-67" x="393.208984"/>
      <use xlink:href="#DejaVuSans-72" x="456.685547"/>
      <use xlink:href="#DejaVuSans-6f" x="495.548828"/>
      <use xlink:href="#DejaVuSans-75" x="556.730469"/>
      <use xlink:href="#DejaVuSans-70" x="620.109375"/>
     </g>
    </g>
    <g id="line2d_28">
     <path d="M 71.189062 58.691875 
L 83.189062 58.691875 
L 95.189062 58.691875 
" style="fill: none; stroke: #fa7c17; stroke-width: 1.5; stroke-linecap: round"/>
    </g>
    <g id="patch_9">
     <path d="M 71.189062 62.891875 
L 95.189062 62.891875 
L 95.189062 54.491875 
L 71.189062 54.491875 
z
" style="fill: #fa7c17; fill-opacity: 0.25; stroke: #fa7c17; stroke-opacity: 0.25; stroke-linejoin: miter"/>
    </g>
    <g id="text_16">
     <!-- Treatment group -->
     <g style="fill: #262626" transform="translate(104.789062 62.891875) scale(0.12 -0.12)">
      <defs>
       <path id="DejaVuSans-54" d="M -19 4666 
L 3928 4666 
L 3928 4134 
L 2272 4134 
L 2272 0 
L 1638 0 
L 1638 4134 
L -19 4134 
L -19 4666 
z
" transform="scale(0.015625)"/>
       <path id="DejaVuSans-65" d="M 3597 1894 
L 3597 1613 
L 953 1613 
Q 991 1019 1311 708 
Q 1631 397 2203 397 
Q 2534 397 2845 478 
Q 3156 559 3463 722 
L 3463 178 
Q 3153 47 2828 -22 
Q 2503 -91 2169 -91 
Q 1331 -91 842 396 
Q 353 884 353 1716 
Q 353 2575 817 3079 
Q 1281 3584 2069 3584 
Q 2775 3584 3186 3129 
Q 3597 2675 3597 1894 
z
M 3022 2063 
Q 3016 2534 2758 2815 
Q 2500 3097 2075 3097 
Q 1594 3097 1305 2825 
Q 1016 2553 972 2059 
L 3022 2063 
z
" transform="scale(0.015625)"/>
      </defs>
      <use xlink:href="#DejaVuSans-54"/>
      <use xlink:href="#DejaVuSans-72" x="46.333984"/>
      <use xlink:href="#DejaVuSans-65" x="85.197266"/>
      <use xlink:href="#DejaVuSans-61" x="146.720703"/>
      <use xlink:href="#DejaVuSans-74" x="208"/>
      <use xlink:href="#DejaVuSans-6d" x="247.208984"/>
      <use xlink:href="#DejaVuSans-65" x="344.621094"/>
      <use xlink:href="#DejaVuSans-6e" x="406.144531"/>
      <use xlink:href="#DejaVuSans-74" x="469.523438"/>
      <use xlink:href="#DejaVuSans-20" x="508.732422"/>
      <use xlink:href="#DejaVuSans-67" x="540.519531"/>
      <use xlink:href="#DejaVuSans-72" x="603.996094"/>
      <use xlink:href="#DejaVuSans-6f" x="642.859375"/>
      <use xlink:href="#DejaVuSans-75" x="704.041016"/>
      <use xlink:href="#DejaVuSans-70" x="767.419922"/>
     </g>
    </g>
   </g>
  </g>
 </g>
 <defs>
  <clipPath id="p6fa62af31a">
   <rect x="60.389063" y="25.36" width="439.708132" height="285.872957"/>
  </clipPath>
 </defs>
</svg>
