<?xml version="1.0" encoding="utf-8" standalone="no"?>
<!DOCTYPE svg PUBLIC "-//W3C//DTD SVG 1.1//EN"
  "http://www.w3.org/Graphics/SVG/1.1/DTD/svg11.dtd">
<svg xmlns:xlink="http://www.w3.org/1999/xlink" width="526.970134pt" height="353.99952pt" viewBox="0 0 526.970134 353.99952" xmlns="http://www.w3.org/2000/svg" version="1.1">
 <metadata>
  <rdf:RDF xmlns:dc="http://purl.org/dc/elements/1.1/" xmlns:cc="http://creativecommons.org/ns#" xmlns:rdf="http://www.w3.org/1999/02/22-rdf-syntax-ns#">
   <cc:Work>
    <dc:type rdf:resource="http://purl.org/dc/dcmitype/StillImage"/>
    <dc:date>2023-11-06T11:40:01.467891</dc:date>
    <dc:format>image/svg+xml</dc:format>
    <dc:creator>
     <cc:Agent>
      <dc:title>Matplotlib v3.8.0, https://matplotlib.org/</dc:title>
     </cc:Agent>
    </dc:creator>
   </cc:Work>
  </rdf:RDF>
 </metadata>
 <defs>
  <style type="text/css">*{stroke-linejoin: round; stroke-linecap: butt}</style>
 </defs>
 <g id="figure_1">
  <g id="patch_1">
   <path d="M 0 353.99952 
L 526.970134 353.99952 
L 526.970134 0 
L 0 0 
z
" style="fill: #ffffff"/>
  </g>
  <g id="axes_1">
   <g id="patch_2">
    <path d="M 72.120625 311.232957 
L 513.755071 311.232957 
L 513.755071 81.542 
L 72.120625 81.542 
z
" style="fill: #eeeeee"/>
   </g>
   <g id="matplotlib.axis_1">
    <g id="xtick_1">
     <g id="line2d_1">
      <path d="M 73.32151 311.232957 
L 73.32151 81.542 
" clip-path="url(#p2dbe8c9ddc)" style="fill: none; stroke: #ffffff; stroke-width: 0.8; stroke-linecap: round"/>
     </g>
     <g id="line2d_2"/>
     <g id="text_1">
      <!-- −1.00 -->
      <g style="fill: #262626" transform="translate(51.869791 325.37077) scale(0.14 -0.14)">
       <defs>
        <path id="DejaVuSans-2212" d="M 678 2272 
L 4684 2272 
L 4684 1741 
L 678 1741 
L 678 2272 
z
" transform="scale(0.015625)"/>
        <path id="DejaVuSans-31" d="M 794 531 
L 1825 531 
L 1825 4091 
L 703 3866 
L 703 4441 
L 1819 4666 
L 2450 4666 
L 2450 531 
L 3481 531 
L 3481 0 
L 794 0 
L 794 531 
z
" transform="scale(0.015625)"/>
        <path id="DejaVuSans-2e" d="M 684 794 
L 1344 794 
L 1344 0 
L 684 0 
L 684 794 
z
" transform="scale(0.015625)"/>
        <path id="DejaVuSans-30" d="M 2034 4250 
Q 1547 4250 1301 3770 
Q 1056 3291 1056 2328 
Q 1056 1369 1301 889 
Q 1547 409 2034 409 
Q 2525 409 2770 889 
Q 3016 1369 3016 2328 
Q 3016 3291 2770 3770 
Q 2525 4250 2034 4250 
z
M 2034 4750 
Q 2819 4750 3233 4129 
Q 3647 3509 3647 2328 
Q 3647 1150 3233 529 
Q 2819 -91 2034 -91 
Q 1250 -91 836 529 
Q 422 1150 422 2328 
Q 422 3509 836 4129 
Q 1250 4750 2034 4750 
z
" transform="scale(0.015625)"/>
       </defs>
       <use xlink:href="#DejaVuSans-2212"/>
       <use xlink:href="#DejaVuSans-31" x="83.789062"/>
       <use xlink:href="#DejaVuSans-2e" x="147.412109"/>
       <use xlink:href="#DejaVuSans-30" x="179.199219"/>
       <use xlink:href="#DejaVuSans-30" x="242.822266"/>
      </g>
     </g>
    </g>
    <g id="xtick_2">
     <g id="line2d_3">
      <path d="M 127.179346 311.232957 
L 127.179346 81.542 
" clip-path="url(#p2dbe8c9ddc)" style="fill: none; stroke: #ffffff; stroke-width: 0.8; stroke-linecap: round"/>
     </g>
     <g id="line2d_4"/>
     <g id="text_2">
      <!-- −0.75 -->
      <g style="fill: #262626" transform="translate(105.727627 325.37077) scale(0.14 -0.14)">
       <defs>
        <path id="DejaVuSans-37" d="M 525 4666 
L 3525 4666 
L 3525 4397 
L 1831 0 
L 1172 0 
L 2766 4134 
L 525 4134 
L 525 4666 
z
" transform="scale(0.015625)"/>
        <path id="DejaVuSans-35" d="M 691 4666 
L 3169 4666 
L 3169 4134 
L 1269 4134 
L 1269 2991 
Q 1406 3038 1543 3061 
Q 1681 3084 1819 3084 
Q 2600 3084 3056 2656 
Q 3513 2228 3513 1497 
Q 3513 744 3044 326 
Q 2575 -91 1722 -91 
Q 1428 -91 1123 -41 
Q 819 9 494 109 
L 494 744 
Q 775 591 1075 516 
Q 1375 441 1709 441 
Q 2250 441 2565 725 
Q 2881 1009 2881 1497 
Q 2881 1984 2565 2268 
Q 2250 2553 1709 2553 
Q 1456 2553 1204 2497 
Q 953 2441 691 2322 
L 691 4666 
z
" transform="scale(0.015625)"/>
       </defs>
       <use xlink:href="#DejaVuSans-2212"/>
       <use xlink:href="#DejaVuSans-30" x="83.789062"/>
       <use xlink:href="#DejaVuSans-2e" x="147.412109"/>
       <use xlink:href="#DejaVuSans-37" x="179.199219"/>
       <use xlink:href="#DejaVuSans-35" x="242.822266"/>
      </g>
     </g>
    </g>
    <g id="xtick_3">
     <g id="line2d_5">
      <path d="M 181.037181 311.232957 
L 181.037181 81.542 
" clip-path="url(#p2dbe8c9ddc)" style="fill: none; stroke: #ffffff; stroke-width: 0.8; stroke-linecap: round"/>
     </g>
     <g id="line2d_6"/>
     <g id="text_3">
      <!-- −0.50 -->
      <g style="fill: #262626" transform="translate(159.585463 325.37077) scale(0.14 -0.14)">
       <use xlink:href="#DejaVuSans-2212"/>
       <use xlink:href="#DejaVuSans-30" x="83.789062"/>
       <use xlink:href="#DejaVuSans-2e" x="147.412109"/>
       <use xlink:href="#DejaVuSans-35" x="179.199219"/>
       <use xlink:href="#DejaVuSans-30" x="242.822266"/>
      </g>
     </g>
    </g>
    <g id="xtick_4">
     <g id="line2d_7">
      <path d="M 234.895017 311.232957 
L 234.895017 81.542 
" clip-path="url(#p2dbe8c9ddc)" style="fill: none; stroke: #ffffff; stroke-width: 0.8; stroke-linecap: round"/>
     </g>
     <g id="line2d_8"/>
     <g id="text_4">
      <!-- −0.25 -->
      <g style="fill: #262626" transform="translate(213.443299 325.37077) scale(0.14 -0.14)">
       <defs>
        <path id="DejaVuSans-32" d="M 1228 531 
L 3431 531 
L 3431 0 
L 469 0 
L 469 531 
Q 828 903 1448 1529 
Q 2069 2156 2228 2338 
Q 2531 2678 2651 2914 
Q 2772 3150 2772 3378 
Q 2772 3750 2511 3984 
Q 2250 4219 1831 4219 
Q 1534 4219 1204 4116 
Q 875 4013 500 3803 
L 500 4441 
Q 881 4594 1212 4672 
Q 1544 4750 1819 4750 
Q 2544 4750 2975 4387 
Q 3406 4025 3406 3419 
Q 3406 3131 3298 2873 
Q 3191 2616 2906 2266 
Q 2828 2175 2409 1742 
Q 1991 1309 1228 531 
z
" transform="scale(0.015625)"/>
       </defs>
       <use xlink:href="#DejaVuSans-2212"/>
       <use xlink:href="#DejaVuSans-30" x="83.789062"/>
       <use xlink:href="#DejaVuSans-2e" x="147.412109"/>
       <use xlink:href="#DejaVuSans-32" x="179.199219"/>
       <use xlink:href="#DejaVuSans-35" x="242.822266"/>
      </g>
     </g>
    </g>
    <g id="xtick_5">
     <g id="line2d_9">
      <path d="M 288.752853 311.232957 
L 288.752853 81.542 
" clip-path="url(#p2dbe8c9ddc)" style="fill: none; stroke: #ffffff; stroke-width: 0.8; stroke-linecap: round"/>
     </g>
     <g id="line2d_10"/>
     <g id="text_5">
      <!-- 0.00 -->
      <g style="fill: #262626" transform="translate(273.166916 325.37077) scale(0.14 -0.14)">
       <use xlink:href="#DejaVuSans-30"/>
       <use xlink:href="#DejaVuSans-2e" x="63.623047"/>
       <use xlink:href="#DejaVuSans-30" x="95.410156"/>
       <use xlink:href="#DejaVuSans-30" x="159.033203"/>
      </g>
     </g>
    </g>
    <g id="xtick_6">
     <g id="line2d_11">
      <path d="M 342.610689 311.232957 
L 342.610689 81.542 
" clip-path="url(#p2dbe8c9ddc)" style="fill: none; stroke: #ffffff; stroke-width: 0.8; stroke-linecap: round"/>
     </g>
     <g id="line2d_12"/>
     <g id="text_6">
      <!-- 0.25 -->
      <g style="fill: #262626" transform="translate(327.024752 325.37077) scale(0.14 -0.14)">
       <use xlink:href="#DejaVuSans-30"/>
       <use xlink:href="#DejaVuSans-2e" x="63.623047"/>
       <use xlink:href="#DejaVuSans-32" x="95.410156"/>
       <use xlink:href="#DejaVuSans-35" x="159.033203"/>
      </g>
     </g>
    </g>
    <g id="xtick_7">
     <g id="line2d_13">
      <path d="M 396.468525 311.232957 
L 396.468525 81.542 
" clip-path="url(#p2dbe8c9ddc)" style="fill: none; stroke: #ffffff; stroke-width: 0.8; stroke-linecap: round"/>
     </g>
     <g id="line2d_14"/>
     <g id="text_7">
      <!-- 0.50 -->
      <g style="fill: #262626" transform="translate(380.882587 325.37077) scale(0.14 -0.14)">
       <use xlink:href="#DejaVuSans-30"/>
       <use xlink:href="#DejaVuSans-2e" x="63.623047"/>
       <use xlink:href="#DejaVuSans-35" x="95.410156"/>
       <use xlink:href="#DejaVuSans-30" x="159.033203"/>
      </g>
     </g>
    </g>
    <g id="xtick_8">
     <g id="line2d_15">
      <path d="M 450.326361 311.232957 
L 450.326361 81.542 
" clip-path="url(#p2dbe8c9ddc)" style="fill: none; stroke: #ffffff; stroke-width: 0.8; stroke-linecap: round"/>
     </g>
     <g id="line2d_16"/>
     <g id="text_8">
      <!-- 0.75 -->
      <g style="fill: #262626" transform="translate(434.740423 325.37077) scale(0.14 -0.14)">
       <use xlink:href="#DejaVuSans-30"/>
       <use xlink:href="#DejaVuSans-2e" x="63.623047"/>
       <use xlink:href="#DejaVuSans-37" x="95.410156"/>
       <use xlink:href="#DejaVuSans-35" x="159.033203"/>
      </g>
     </g>
    </g>
    <g id="xtick_9">
     <g id="line2d_17">
      <path d="M 504.184197 311.232957 
L 504.184197 81.542 
" clip-path="url(#p2dbe8c9ddc)" style="fill: none; stroke: #ffffff; stroke-width: 0.8; stroke-linecap: round"/>
     </g>
     <g id="line2d_18"/>
     <g id="text_9">
      <!-- 1.00 -->
      <g style="fill: #262626" transform="translate(488.598259 325.37077) scale(0.14 -0.14)">
       <use xlink:href="#DejaVuSans-31"/>
       <use xlink:href="#DejaVuSans-2e" x="63.623047"/>
       <use xlink:href="#DejaVuSans-30" x="95.410156"/>
       <use xlink:href="#DejaVuSans-30" x="159.033203"/>
      </g>
     </g>
    </g>
    <g id="text_10">
     <!-- x -->
     <g style="fill: #262626" transform="translate(288.498785 343.679989) scale(0.15 -0.15)">
      <defs>
       <path id="DejaVuSans-78" d="M 3513 3500 
L 2247 1797 
L 3578 0 
L 2900 0 
L 1881 1375 
L 863 0 
L 184 0 
L 1544 1831 
L 300 3500 
L 978 3500 
L 1906 2253 
L 2834 3500 
L 3513 3500 
z
" transform="scale(0.015625)"/>
      </defs>
      <use xlink:href="#DejaVuSans-78"/>
     </g>
    </g>
   </g>
   <g id="matplotlib.axis_2">
    <g id="ytick_1">
     <g id="line2d_19">
      <path d="M 72.120625 298.429028 
L 513.755071 298.429028 
" clip-path="url(#p2dbe8c9ddc)" style="fill: none; stroke: #ffffff; stroke-width: 0.8; stroke-linecap: round"/>
     </g>
     <g id="line2d_20"/>
     <g id="text_11">
      <!-- −0.50 -->
      <g style="fill: #262626" transform="translate(25.717188 303.747934) scale(0.14 -0.14)">
       <use xlink:href="#DejaVuSans-2212"/>
       <use xlink:href="#DejaVuSans-30" x="83.789062"/>
       <use xlink:href="#DejaVuSans-2e" x="147.412109"/>
       <use xlink:href="#DejaVuSans-35" x="179.199219"/>
       <use xlink:href="#DejaVuSans-30" x="242.822266"/>
      </g>
     </g>
    </g>
    <g id="ytick_2">
     <g id="line2d_21">
      <path d="M 72.120625 262.75895 
L 513.755071 262.75895 
" clip-path="url(#p2dbe8c9ddc)" style="fill: none; stroke: #ffffff; stroke-width: 0.8; stroke-linecap: round"/>
     </g>
     <g id="line2d_22"/>
     <g id="text_12">
      <!-- −0.25 -->
      <g style="fill: #262626" transform="translate(25.717188 268.077856) scale(0.14 -0.14)">
       <use xlink:href="#DejaVuSans-2212"/>
       <use xlink:href="#DejaVuSans-30" x="83.789062"/>
       <use xlink:href="#DejaVuSans-2e" x="147.412109"/>
       <use xlink:href="#DejaVuSans-32" x="179.199219"/>
       <use xlink:href="#DejaVuSans-35" x="242.822266"/>
      </g>
     </g>
    </g>
    <g id="ytick_3">
     <g id="line2d_23">
      <path d="M 72.120625 227.088872 
L 513.755071 227.088872 
" clip-path="url(#p2dbe8c9ddc)" style="fill: none; stroke: #ffffff; stroke-width: 0.8; stroke-linecap: round"/>
     </g>
     <g id="line2d_24"/>
     <g id="text_13">
      <!-- 0.00 -->
      <g style="fill: #262626" transform="translate(37.44875 232.407779) scale(0.14 -0.14)">
       <use xlink:href="#DejaVuSans-30"/>
       <use xlink:href="#DejaVuSans-2e" x="63.623047"/>
       <use xlink:href="#DejaVuSans-30" x="95.410156"/>
       <use xlink:href="#DejaVuSans-30" x="159.033203"/>
      </g>
     </g>
    </g>
    <g id="ytick_4">
     <g id="line2d_25">
      <path d="M 72.120625 191.418795 
L 513.755071 191.418795 
" clip-path="url(#p2dbe8c9ddc)" style="fill: none; stroke: #ffffff; stroke-width: 0.8; stroke-linecap: round"/>
     </g>
     <g id="line2d_26"/>
     <g id="text_14">
      <!-- 0.25 -->
      <g style="fill: #262626" transform="translate(37.44875 196.737701) scale(0.14 -0.14)">
       <use xlink:href="#DejaVuSans-30"/>
       <use xlink:href="#DejaVuSans-2e" x="63.623047"/>
       <use xlink:href="#DejaVuSans-32" x="95.410156"/>
       <use xlink:href="#DejaVuSans-35" x="159.033203"/>
      </g>
     </g>
    </g>
    <g id="ytick_5">
     <g id="line2d_27">
      <path d="M 72.120625 155.748717 
L 513.755071 155.748717 
" clip-path="url(#p2dbe8c9ddc)" style="fill: none; stroke: #ffffff; stroke-width: 0.8; stroke-linecap: round"/>
     </g>
     <g id="line2d_28"/>
     <g id="text_15">
      <!-- 0.50 -->
      <g style="fill: #262626" transform="translate(37.44875 161.067623) scale(0.14 -0.14)">
       <use xlink:href="#DejaVuSans-30"/>
       <use xlink:href="#DejaVuSans-2e" x="63.623047"/>
       <use xlink:href="#DejaVuSans-35" x="95.410156"/>
       <use xlink:href="#DejaVuSans-30" x="159.033203"/>
      </g>
     </g>
    </g>
    <g id="ytick_6">
     <g id="line2d_29">
      <path d="M 72.120625 120.078639 
L 513.755071 120.078639 
" clip-path="url(#p2dbe8c9ddc)" style="fill: none; stroke: #ffffff; stroke-width: 0.8; stroke-linecap: round"/>
     </g>
     <g id="line2d_30"/>
     <g id="text_16">
      <!-- 0.75 -->
      <g style="fill: #262626" transform="translate(37.44875 125.397545) scale(0.14 -0.14)">
       <use xlink:href="#DejaVuSans-30"/>
       <use xlink:href="#DejaVuSans-2e" x="63.623047"/>
       <use xlink:href="#DejaVuSans-37" x="95.410156"/>
       <use xlink:href="#DejaVuSans-35" x="159.033203"/>
      </g>
     </g>
    </g>
    <g id="ytick_7">
     <g id="line2d_31">
      <path d="M 72.120625 84.408561 
L 513.755071 84.408561 
" clip-path="url(#p2dbe8c9ddc)" style="fill: none; stroke: #ffffff; stroke-width: 0.8; stroke-linecap: round"/>
     </g>
     <g id="line2d_32"/>
     <g id="text_17">
      <!-- 1.00 -->
      <g style="fill: #262626" transform="translate(37.44875 89.727468) scale(0.14 -0.14)">
       <use xlink:href="#DejaVuSans-31"/>
       <use xlink:href="#DejaVuSans-2e" x="63.623047"/>
       <use xlink:href="#DejaVuSans-30" x="95.410156"/>
       <use xlink:href="#DejaVuSans-30" x="159.033203"/>
      </g>
     </g>
    </g>
    <g id="text_18">
     <!-- y -->
     <g style="fill: #262626" transform="translate(18.597656 200.826541) rotate(-90) scale(0.15 -0.15)">
      <defs>
       <path id="DejaVuSans-79" d="M 2059 -325 
Q 1816 -950 1584 -1140 
Q 1353 -1331 966 -1331 
L 506 -1331 
L 506 -850 
L 844 -850 
Q 1081 -850 1212 -737 
Q 1344 -625 1503 -206 
L 1606 56 
L 191 3500 
L 800 3500 
L 1894 763 
L 2988 3500 
L 3597 3500 
L 2059 -325 
z
" transform="scale(0.015625)"/>
      </defs>
      <use xlink:href="#DejaVuSans-79"/>
     </g>
    </g>
   </g>
   <g id="PathCollection_1">
    <defs>
     <path id="ma252d7dc89" d="M 0 3 
C 0.795609 3 1.55874 2.683901 2.12132 2.12132 
C 2.683901 1.55874 3 0.795609 3 0 
C 3 -0.795609 2.683901 -1.55874 2.12132 -2.12132 
C 1.55874 -2.683901 0.795609 -3 0 -3 
C -0.795609 -3 -1.55874 -2.683901 -2.12132 -2.12132 
C -2.683901 -1.55874 -3 -0.795609 -3 0 
C -3 0.795609 -2.683901 1.55874 -2.12132 2.12132 
C -1.55874 2.683901 -0.795609 3 0 3 
z
" style="stroke: #ffffff; stroke-width: 0.48"/>
    </defs>
    <g clip-path="url(#p2dbe8c9ddc)">
     <use xlink:href="#ma252d7dc89" x="406.790292" y="286.749535" style="stroke: #ffffff; stroke-width: 0.48"/>
     <use xlink:href="#ma252d7dc89" x="262.417854" y="209.165076" style="stroke: #ffffff; stroke-width: 0.48"/>
     <use xlink:href="#ma252d7dc89" x="443.259316" y="265.376875" style="stroke: #ffffff; stroke-width: 0.48"/>
     <use xlink:href="#ma252d7dc89" x="373.791372" y="278.906316" style="stroke: #ffffff; stroke-width: 0.48"/>
     <use xlink:href="#ma252d7dc89" x="113.899015" y="121.67844" style="stroke: #ffffff; stroke-width: 0.48"/>
     <use xlink:href="#ma252d7dc89" x="493.680778" y="236.325833" style="stroke: #ffffff; stroke-width: 0.48"/>
     <use xlink:href="#ma252d7dc89" x="401.268207" y="298.605841" style="stroke: #ffffff; stroke-width: 0.48"/>
     <use xlink:href="#ma252d7dc89" x="412.007288" y="292.69546" style="stroke: #ffffff; stroke-width: 0.48"/>
     <use xlink:href="#ma252d7dc89" x="128.520894" y="122.930016" style="stroke: #ffffff; stroke-width: 0.48"/>
     <use xlink:href="#ma252d7dc89" x="267.376005" y="202.266038" style="stroke: #ffffff; stroke-width: 0.48"/>
     <use xlink:href="#ma252d7dc89" x="233.084543" y="196.396569" style="stroke: #ffffff; stroke-width: 0.48"/>
     <use xlink:href="#ma252d7dc89" x="472.629963" y="241.079548" style="stroke: #ffffff; stroke-width: 0.48"/>
     <use xlink:href="#ma252d7dc89" x="350.738965" y="280.147931" style="stroke: #ffffff; stroke-width: 0.48"/>
     <use xlink:href="#ma252d7dc89" x="427.818789" y="280.054803" style="stroke: #ffffff; stroke-width: 0.48"/>
     <use xlink:href="#ma252d7dc89" x="264.372143" y="209.78043" style="stroke: #ffffff; stroke-width: 0.48"/>
     <use xlink:href="#ma252d7dc89" x="171.230196" y="145.071425" style="stroke: #ffffff; stroke-width: 0.48"/>
     <use xlink:href="#ma252d7dc89" x="312.271401" y="237.59132" style="stroke: #ffffff; stroke-width: 0.48"/>
     <use xlink:href="#ma252d7dc89" x="100.817984" y="96.959742" style="stroke: #ffffff; stroke-width: 0.48"/>
     <use xlink:href="#ma252d7dc89" x="429.9169" y="278.763958" style="stroke: #ffffff; stroke-width: 0.48"/>
     <use xlink:href="#ma252d7dc89" x="345.48213" y="267.959132" style="stroke: #ffffff; stroke-width: 0.48"/>
     <use xlink:href="#ma252d7dc89" x="399.95323" y="290.000292" style="stroke: #ffffff; stroke-width: 0.48"/>
     <use xlink:href="#ma252d7dc89" x="226.073521" y="186.94108" style="stroke: #ffffff; stroke-width: 0.48"/>
     <use xlink:href="#ma252d7dc89" x="491.559069" y="244.551268" style="stroke: #ffffff; stroke-width: 0.48"/>
     <use xlink:href="#ma252d7dc89" x="458.134076" y="265.672784" style="stroke: #ffffff; stroke-width: 0.48"/>
     <use xlink:href="#ma252d7dc89" x="408.697915" y="296.888882" style="stroke: #ffffff; stroke-width: 0.48"/>
     <use xlink:href="#ma252d7dc89" x="157.184066" y="136.404032" style="stroke: #ffffff; stroke-width: 0.48"/>
     <use xlink:href="#ma252d7dc89" x="274.414175" y="216.57629" style="stroke: #ffffff; stroke-width: 0.48"/>
     <use xlink:href="#ma252d7dc89" x="92.194918" y="91.982498" style="stroke: #ffffff; stroke-width: 0.48"/>
     <use xlink:href="#ma252d7dc89" x="139.799095" y="131.484734" style="stroke: #ffffff; stroke-width: 0.48"/>
     <use xlink:href="#ma252d7dc89" x="367.621817" y="278.192811" style="stroke: #ffffff; stroke-width: 0.48"/>
     <use xlink:href="#ma252d7dc89" x="394.211733" y="292.471382" style="stroke: #ffffff; stroke-width: 0.48"/>
     <use xlink:href="#ma252d7dc89" x="490.185353" y="238.567198" style="stroke: #ffffff; stroke-width: 0.48"/>
     <use xlink:href="#ma252d7dc89" x="213.707499" y="174.127647" style="stroke: #ffffff; stroke-width: 0.48"/>
     <use xlink:href="#ma252d7dc89" x="232.938774" y="194.845363" style="stroke: #ffffff; stroke-width: 0.48"/>
     <use xlink:href="#ma252d7dc89" x="275.635588" y="220.991331" style="stroke: #ffffff; stroke-width: 0.48"/>
     <use xlink:href="#ma252d7dc89" x="154.957649" y="141.19955" style="stroke: #ffffff; stroke-width: 0.48"/>
     <use xlink:href="#ma252d7dc89" x="129.299839" y="130.014182" style="stroke: #ffffff; stroke-width: 0.48"/>
     <use xlink:href="#ma252d7dc89" x="278.285012" y="216.681946" style="stroke: #ffffff; stroke-width: 0.48"/>
     <use xlink:href="#ma252d7dc89" x="171.088282" y="152.508278" style="stroke: #ffffff; stroke-width: 0.48"/>
     <use xlink:href="#ma252d7dc89" x="361.919367" y="275.457966" style="stroke: #ffffff; stroke-width: 0.48"/>
     <use xlink:href="#ma252d7dc89" x="261.67396" y="205.724851" style="stroke: #ffffff; stroke-width: 0.48"/>
     <use xlink:href="#ma252d7dc89" x="432.091475" y="271.650366" style="stroke: #ffffff; stroke-width: 0.48"/>
     <use xlink:href="#ma252d7dc89" x="375.039613" y="279.489779" style="stroke: #ffffff; stroke-width: 0.48"/>
     <use xlink:href="#ma252d7dc89" x="207.90864" y="174.248297" style="stroke: #ffffff; stroke-width: 0.48"/>
     <use xlink:href="#ma252d7dc89" x="431.911204" y="277.975136" style="stroke: #ffffff; stroke-width: 0.48"/>
     <use xlink:href="#ma252d7dc89" x="420.064443" y="283.370148" style="stroke: #ffffff; stroke-width: 0.48"/>
     <use xlink:href="#ma252d7dc89" x="240.271485" y="207.017103" style="stroke: #ffffff; stroke-width: 0.48"/>
     <use xlink:href="#ma252d7dc89" x="197.551331" y="177.009771" style="stroke: #ffffff; stroke-width: 0.48"/>
     <use xlink:href="#ma252d7dc89" x="367.383356" y="288.602062" style="stroke: #ffffff; stroke-width: 0.48"/>
     <use xlink:href="#ma252d7dc89" x="133.53564" y="131.402791" style="stroke: #ffffff; stroke-width: 0.48"/>
    </g>
   </g>
   <g id="PolyCollection_1">
    <defs>
     <path id="m4636e76098" d="M 92.194918 -257.864951 
L 92.194918 -251.21425 
L 94.212435 -249.92424 
L 96.229952 -248.742358 
L 98.247469 -247.46558 
L 100.264986 -246.184426 
L 102.282502 -244.903271 
L 104.300019 -243.622117 
L 106.317536 -242.337899 
L 108.335053 -241.050382 
L 110.35257 -239.772313 
L 112.370087 -238.483624 
L 114.387604 -237.216347 
L 116.405121 -235.935192 
L 118.422637 -234.654038 
L 120.440154 -233.372884 
L 122.457671 -232.040875 
L 124.475188 -230.715534 
L 126.492705 -229.466269 
L 128.510222 -228.176974 
L 130.527739 -226.787355 
L 132.545256 -225.589635 
L 134.562773 -224.197488 
L 136.580289 -222.935629 
L 138.597806 -221.654372 
L 140.615323 -220.384392 
L 142.63284 -219.094242 
L 144.650357 -217.778612 
L 146.667874 -216.477088 
L 148.685391 -215.182599 
L 150.702908 -213.88811 
L 152.720424 -212.590527 
L 154.737941 -211.427034 
L 156.755458 -210.168265 
L 158.772975 -208.84834 
L 160.790492 -207.555531 
L 162.808009 -206.241502 
L 164.825526 -204.955191 
L 166.843043 -203.669976 
L 168.86056 -202.371956 
L 170.878076 -201.082342 
L 172.895593 -199.786087 
L 174.91311 -198.490627 
L 176.930627 -197.187123 
L 178.948144 -195.903048 
L 180.965661 -194.583802 
L 182.983178 -193.296172 
L 185.000695 -192.005164 
L 187.018211 -190.692926 
L 189.035728 -189.396269 
L 191.053245 -188.057881 
L 193.070762 -186.700737 
L 195.088279 -185.488815 
L 197.105796 -184.198788 
L 199.123313 -182.840218 
L 201.14083 -181.521097 
L 203.158347 -180.213647 
L 205.175863 -178.919264 
L 207.19338 -177.588516 
L 209.210897 -176.290211 
L 211.228414 -174.968376 
L 213.245931 -173.657209 
L 215.263448 -172.363011 
L 217.280965 -171.108697 
L 219.298482 -169.813558 
L 221.315998 -168.504125 
L 223.333515 -167.204553 
L 225.351032 -165.8854 
L 227.368549 -164.573621 
L 229.386066 -163.247095 
L 231.403583 -161.964271 
L 233.4211 -160.708763 
L 235.438617 -159.40442 
L 237.456134 -158.100044 
L 239.47365 -156.761003 
L 241.491167 -155.427617 
L 243.508684 -154.11139 
L 245.526201 -152.794434 
L 247.543718 -151.539161 
L 249.561235 -150.150439 
L 251.578752 -148.867989 
L 253.596269 -147.574294 
L 255.613785 -146.244192 
L 257.631302 -144.901479 
L 259.648819 -143.591455 
L 261.666336 -142.275271 
L 263.683853 -140.951698 
L 265.70137 -139.623531 
L 267.718887 -138.411097 
L 269.736404 -137.054244 
L 271.75392 -135.736341 
L 273.771437 -134.449089 
L 275.788954 -133.095302 
L 277.806471 -131.766372 
L 279.823988 -130.441664 
L 281.841505 -129.11114 
L 283.859022 -127.79424 
L 285.876539 -126.45259 
L 287.894056 -125.068493 
L 289.911572 -123.741974 
L 291.929089 -122.43038 
L 293.946606 -121.017798 
L 295.964123 -119.701023 
L 297.98164 -118.366867 
L 299.999157 -117.026314 
L 302.016674 -115.715253 
L 304.034191 -114.410924 
L 306.051707 -113.094903 
L 308.069224 -111.73202 
L 310.086741 -110.40001 
L 312.104258 -109.052332 
L 314.121775 -107.708981 
L 316.139292 -106.384683 
L 318.156809 -105.039162 
L 320.174326 -103.714132 
L 322.191843 -102.404851 
L 324.209359 -101.075355 
L 326.226876 -99.709646 
L 328.244393 -98.376649 
L 330.26191 -97.008916 
L 332.279427 -95.692929 
L 334.296944 -94.371984 
L 336.314461 -92.99929 
L 338.331978 -91.659774 
L 340.349494 -90.332913 
L 342.367011 -89.011994 
L 344.384528 -87.670991 
L 346.402045 -86.31959 
L 348.419562 -84.996324 
L 350.437079 -83.649476 
L 352.454596 -82.291117 
L 354.472113 -80.937464 
L 356.48963 -79.678358 
L 358.507146 -78.352113 
L 360.524663 -76.9096 
L 362.54218 -75.665621 
L 364.559697 -74.310006 
L 366.577214 -72.887636 
L 368.594731 -71.563759 
L 370.612248 -70.215527 
L 372.629765 -68.914042 
L 374.647281 -67.57228 
L 376.664798 -66.223828 
L 378.682315 -64.825535 
L 380.699832 -63.491011 
L 382.717349 -62.153064 
L 384.734866 -60.809301 
L 386.752383 -59.476102 
L 388.7699 -58.11698 
L 390.787417 -56.767218 
L 392.804933 -55.407933 
L 394.82245 -54.033944 
L 396.839967 -53.207061 
L 398.857484 -54.60759 
L 400.875001 -55.965783 
L 402.892518 -57.254695 
L 404.910035 -58.568471 
L 406.927552 -59.891436 
L 408.945068 -61.193881 
L 410.962585 -62.548195 
L 412.980102 -63.91778 
L 414.997619 -65.189242 
L 417.015136 -66.488313 
L 419.032653 -67.765222 
L 421.05017 -69.065823 
L 423.067687 -70.256955 
L 425.085204 -71.570035 
L 427.10272 -72.870455 
L 429.120237 -74.052764 
L 431.137754 -75.318496 
L 433.155271 -76.441088 
L 435.172788 -77.738399 
L 437.190305 -78.977808 
L 439.207822 -80.263108 
L 441.225339 -81.521298 
L 443.242855 -82.75598 
L 445.260372 -83.896025 
L 447.277889 -85.08972 
L 449.295406 -86.219242 
L 451.312923 -87.417268 
L 453.33044 -88.575011 
L 455.347957 -89.654267 
L 457.365474 -90.749968 
L 459.382991 -91.972132 
L 461.400507 -93.076598 
L 463.418024 -94.301759 
L 465.435541 -95.445079 
L 467.453058 -96.559982 
L 469.470575 -97.953438 
L 471.488092 -98.916937 
L 473.505609 -99.966971 
L 475.523126 -101.133257 
L 477.540642 -102.287009 
L 479.558159 -103.629178 
L 481.575676 -104.726387 
L 483.593193 -105.734953 
L 485.61071 -107.15 
L 487.628227 -108.278479 
L 489.645744 -109.462509 
L 491.663261 -110.627944 
L 493.680778 -111.709579 
L 493.680778 -121.650803 
L 493.680778 -121.650803 
L 491.663261 -120.317688 
L 489.645744 -118.932033 
L 487.628227 -117.513715 
L 485.61071 -116.15508 
L 483.593193 -114.530339 
L 481.575676 -113.319344 
L 479.558159 -112.000366 
L 477.540642 -110.446008 
L 475.523126 -109.04762 
L 473.505609 -107.693587 
L 471.488092 -106.447261 
L 469.470575 -105.283662 
L 467.453058 -103.674734 
L 465.435541 -102.308552 
L 463.418024 -100.984962 
L 461.400507 -99.533833 
L 459.382991 -98.233812 
L 457.365474 -96.845592 
L 455.347957 -95.561257 
L 453.33044 -94.298288 
L 451.312923 -92.955836 
L 449.295406 -91.622111 
L 447.277889 -90.326586 
L 445.260372 -88.978522 
L 443.242855 -87.687611 
L 441.225339 -86.327864 
L 439.207822 -84.96089 
L 437.190305 -83.578861 
L 435.172788 -82.214487 
L 433.155271 -80.865615 
L 431.137754 -79.675071 
L 429.120237 -78.34119 
L 427.10272 -77.128193 
L 425.085204 -75.828717 
L 423.067687 -74.52502 
L 421.05017 -73.368631 
L 419.032653 -72.099191 
L 417.015136 -70.881638 
L 414.997619 -69.663656 
L 412.980102 -68.472423 
L 410.962585 -67.206686 
L 408.945068 -65.939135 
L 406.927552 -64.737691 
L 404.910035 -63.538782 
L 402.892518 -62.363891 
L 400.875001 -61.221116 
L 398.857484 -60.011123 
L 396.839967 -58.753761 
L 394.82245 -59.562601 
L 392.804933 -60.88349 
L 390.787417 -62.180147 
L 388.7699 -63.468823 
L 386.752383 -64.773261 
L 384.734866 -66.057302 
L 382.717349 -67.359872 
L 380.699832 -68.649025 
L 378.682315 -69.943775 
L 376.664798 -71.289375 
L 374.647281 -72.572752 
L 372.629765 -73.87219 
L 370.612248 -75.119542 
L 368.594731 -76.4214 
L 366.577214 -77.700984 
L 364.559697 -79.076732 
L 362.54218 -80.387635 
L 360.524663 -81.5736 
L 358.507146 -82.969801 
L 356.48963 -84.252024 
L 354.472113 -85.460234 
L 352.454596 -86.757897 
L 350.437079 -88.055819 
L 348.419562 -89.3697 
L 346.402045 -90.643121 
L 344.384528 -91.947912 
L 342.367011 -93.24047 
L 340.349494 -94.514247 
L 338.331978 -95.808219 
L 336.314461 -97.100792 
L 334.296944 -98.435168 
L 332.279427 -99.723134 
L 330.26191 -101.010899 
L 328.244393 -102.340534 
L 326.226876 -103.634911 
L 324.209359 -104.97422 
L 322.191843 -106.26773 
L 320.174326 -107.548055 
L 318.156809 -108.834996 
L 316.139292 -110.143289 
L 314.121775 -111.437748 
L 312.104258 -112.735448 
L 310.086741 -114.046968 
L 308.069224 -115.348304 
L 306.051707 -116.665461 
L 304.034191 -117.961383 
L 302.016674 -119.247336 
L 299.999157 -120.535185 
L 297.98164 -121.853217 
L 295.964123 -123.170658 
L 293.946606 -124.462972 
L 291.929089 -125.849328 
L 289.911572 -127.132869 
L 287.894056 -128.43118 
L 285.876539 -129.793264 
L 283.859022 -131.097253 
L 281.841505 -132.401241 
L 279.823988 -133.721375 
L 277.806471 -135.036288 
L 275.788954 -136.361452 
L 273.771437 -137.711119 
L 271.75392 -138.98859 
L 269.736404 -140.311778 
L 267.718887 -141.67889 
L 265.70137 -142.890503 
L 263.683853 -144.218059 
L 261.666336 -145.531399 
L 259.648819 -146.835335 
L 257.631302 -148.150214 
L 255.613785 -149.490145 
L 253.596269 -150.813524 
L 251.578752 -152.120702 
L 249.561235 -153.414388 
L 247.543718 -154.805489 
L 245.526201 -156.072619 
L 243.508684 -157.39974 
L 241.491167 -158.726023 
L 239.47365 -160.065735 
L 237.456134 -161.43008 
L 235.438617 -162.755057 
L 233.4211 -164.077025 
L 231.403583 -165.353933 
L 229.386066 -166.648836 
L 227.368549 -167.989077 
L 225.351032 -169.331382 
L 223.333515 -170.68149 
L 221.315998 -172.012271 
L 219.298482 -173.353229 
L 217.280965 -174.683922 
L 215.263448 -175.964599 
L 213.245931 -177.279633 
L 211.228414 -178.623152 
L 209.210897 -179.981647 
L 207.19338 -181.310984 
L 205.175863 -182.663714 
L 203.158347 -184.004468 
L 201.14083 -185.347329 
L 199.123313 -186.697987 
L 197.105796 -188.09911 
L 195.088279 -189.423025 
L 193.070762 -190.670983 
L 191.053245 -192.065253 
L 189.035728 -193.442452 
L 187.018211 -194.781434 
L 185.000695 -196.127666 
L 182.983178 -197.461102 
L 180.965661 -198.786672 
L 178.948144 -200.143088 
L 176.930627 -201.475239 
L 174.91311 -202.825452 
L 172.895593 -204.168691 
L 170.878076 -205.51632 
L 168.86056 -206.848996 
L 166.843043 -208.196888 
L 164.825526 -209.535944 
L 162.808009 -210.877231 
L 160.790492 -212.236378 
L 158.772975 -213.596892 
L 156.755458 -214.977848 
L 154.737941 -216.296163 
L 152.720424 -217.497894 
L 150.702908 -218.839743 
L 148.685391 -220.193018 
L 146.667874 -221.54588 
L 144.650357 -222.900697 
L 142.63284 -224.268015 
L 140.615323 -225.602452 
L 138.597806 -226.938796 
L 136.580289 -228.277286 
L 134.562773 -229.601073 
L 132.545256 -231.056149 
L 130.527739 -232.314885 
L 128.510222 -233.761233 
L 126.492705 -235.111925 
L 124.475188 -236.420406 
L 122.457671 -237.795479 
L 120.440154 -239.180427 
L 118.422637 -240.511333 
L 116.405121 -241.839276 
L 114.387604 -243.163918 
L 112.370087 -244.492541 
L 110.35257 -245.837617 
L 108.335053 -247.180883 
L 106.317536 -248.525167 
L 104.300019 -249.876484 
L 102.282502 -251.22117 
L 100.264986 -252.575973 
L 98.247469 -253.921125 
L 96.229952 -255.271341 
L 94.212435 -256.509101 
L 92.194918 -257.864951 
z
" style="stroke: #fa7c17; stroke-opacity: 0.25"/>
    </defs>
    <g clip-path="url(#p2dbe8c9ddc)">
     <use xlink:href="#m4636e76098" x="0" y="353.99952" style="fill: #fa7c17; fill-opacity: 0.25; stroke: #fa7c17; stroke-opacity: 0.25"/>
    </g>
   </g>
   <g id="line2d_33">
    <path d="M 92.194918 99.36532 
L 394.82245 297.146095 
L 396.839967 297.989129 
L 493.680778 237.307447 
L 493.680778 237.307447 
" clip-path="url(#p2dbe8c9ddc)" style="fill: none; stroke: #fa7c17; stroke-width: 1.5; stroke-linecap: round"/>
   </g>
   <g id="line2d_34">
    <path d="M 92.194918 102.78527 
L 100.264986 107.815094 
L 128.510222 125.822546 
L 130.527739 127.212165 
L 132.545256 128.409885 
L 136.580289 131.063891 
L 178.948144 158.096472 
L 193.070762 167.298783 
L 197.105796 169.800732 
L 203.158347 173.785873 
L 227.368549 189.425899 
L 233.4211 193.290757 
L 255.613785 207.755328 
L 265.70137 214.375989 
L 267.718887 215.588423 
L 275.788954 220.904218 
L 312.104258 244.947188 
L 354.472113 273.062056 
L 358.507146 275.647407 
L 360.524663 277.08992 
L 364.559697 279.689514 
L 368.594731 282.435761 
L 394.82245 299.965576 
L 396.839967 300.792459 
L 400.875001 298.033737 
L 408.945068 292.805639 
L 417.015136 287.511207 
L 431.137754 278.681024 
L 433.155271 277.558432 
L 441.225339 272.478222 
L 445.260372 270.103495 
L 453.33044 265.424509 
L 457.365474 263.249552 
L 463.418024 259.697761 
L 467.453058 257.439538 
L 469.470575 256.046082 
L 473.505609 254.032549 
L 477.540642 251.712511 
L 479.558159 250.370342 
L 483.593193 248.264567 
L 485.61071 246.84952 
L 493.680778 242.289941 
L 493.680778 242.289941 
" clip-path="url(#p2dbe8c9ddc)" style="fill: none; stroke: #fa7c17; stroke-opacity: 0; stroke-width: 1.5; stroke-linecap: round"/>
   </g>
   <g id="line2d_35">
    <path d="M 92.194918 96.134569 
L 98.247469 100.078395 
L 217.280965 179.315598 
L 261.666336 208.468121 
L 320.174326 246.451465 
L 328.244393 251.658986 
L 338.331978 258.191301 
L 394.82245 294.436919 
L 396.839967 295.245759 
L 400.875001 292.778404 
L 406.927552 289.261829 
L 410.962585 286.792834 
L 417.015136 283.117882 
L 425.085204 278.170803 
L 431.137754 274.324449 
L 433.155271 273.133905 
L 453.33044 259.701232 
L 457.365474 257.153928 
L 471.488092 247.552259 
L 475.523126 244.9519 
L 477.540642 243.553512 
L 479.558159 241.999154 
L 483.593193 239.469181 
L 485.61071 237.84444 
L 493.680778 232.348717 
L 493.680778 232.348717 
" clip-path="url(#p2dbe8c9ddc)" style="fill: none; stroke: #fa7c17; stroke-opacity: 0; stroke-width: 1.5; stroke-linecap: round"/>
   </g>
   <g id="line2d_36">
    <path d="M 396.468525 311.232957 
L 396.468525 81.542 
" clip-path="url(#p2dbe8c9ddc)" style="fill: none; stroke: #ff0000; stroke-width: 3; stroke-linecap: round"/>
   </g>
   <g id="patch_3">
    <path d="M 72.120625 311.232957 
L 72.120625 81.542 
" style="fill: none"/>
   </g>
   <g id="patch_4">
    <path d="M 513.755071 311.232957 
L 513.755071 81.542 
" style="fill: none"/>
   </g>
   <g id="patch_5">
    <path d="M 72.120625 311.232957 
L 513.755071 311.232957 
" style="fill: none"/>
   </g>
   <g id="patch_6">
    <path d="M 72.120625 81.542 
L 513.755071 81.542 
" style="fill: none"/>
   </g>
   <g id="text_19">
    <!-- Bayesian $R^2$ on all data = 0.984 (std = 0.003) -->
    <g style="fill: #262626" transform="translate(108.537848 21.76) scale(0.16 -0.16)">
     <defs>
      <path id="DejaVuSans-42" d="M 1259 2228 
L 1259 519 
L 2272 519 
Q 2781 519 3026 730 
Q 3272 941 3272 1375 
Q 3272 1813 3026 2020 
Q 2781 2228 2272 2228 
L 1259 2228 
z
M 1259 4147 
L 1259 2741 
L 2194 2741 
Q 2656 2741 2882 2914 
Q 3109 3088 3109 3444 
Q 3109 3797 2882 3972 
Q 2656 4147 2194 4147 
L 1259 4147 
z
M 628 4666 
L 2241 4666 
Q 2963 4666 3353 4366 
Q 3744 4066 3744 3513 
Q 3744 3084 3544 2831 
Q 3344 2578 2956 2516 
Q 3422 2416 3680 2098 
Q 3938 1781 3938 1306 
Q 3938 681 3513 340 
Q 3088 0 2303 0 
L 628 0 
L 628 4666 
z
" transform="scale(0.015625)"/>
      <path id="DejaVuSans-61" d="M 2194 1759 
Q 1497 1759 1228 1600 
Q 959 1441 959 1056 
Q 959 750 1161 570 
Q 1363 391 1709 391 
Q 2188 391 2477 730 
Q 2766 1069 2766 1631 
L 2766 1759 
L 2194 1759 
z
M 3341 1997 
L 3341 0 
L 2766 0 
L 2766 531 
Q 2569 213 2275 61 
Q 1981 -91 1556 -91 
Q 1019 -91 701 211 
Q 384 513 384 1019 
Q 384 1609 779 1909 
Q 1175 2209 1959 2209 
L 2766 2209 
L 2766 2266 
Q 2766 2663 2505 2880 
Q 2244 3097 1772 3097 
Q 1472 3097 1187 3025 
Q 903 2953 641 2809 
L 641 3341 
Q 956 3463 1253 3523 
Q 1550 3584 1831 3584 
Q 2591 3584 2966 3190 
Q 3341 2797 3341 1997 
z
" transform="scale(0.015625)"/>
      <path id="DejaVuSans-65" d="M 3597 1894 
L 3597 1613 
L 953 1613 
Q 991 1019 1311 708 
Q 1631 397 2203 397 
Q 2534 397 2845 478 
Q 3156 559 3463 722 
L 3463 178 
Q 3153 47 2828 -22 
Q 2503 -91 2169 -91 
Q 1331 -91 842 396 
Q 353 884 353 1716 
Q 353 2575 817 3079 
Q 1281 3584 2069 3584 
Q 2775 3584 3186 3129 
Q 3597 2675 3597 1894 
z
M 3022 2063 
Q 3016 2534 2758 2815 
Q 2500 3097 2075 3097 
Q 1594 3097 1305 2825 
Q 1016 2553 972 2059 
L 3022 2063 
z
" transform="scale(0.015625)"/>
      <path id="DejaVuSans-73" d="M 2834 3397 
L 2834 2853 
Q 2591 2978 2328 3040 
Q 2066 3103 1784 3103 
Q 1356 3103 1142 2972 
Q 928 2841 928 2578 
Q 928 2378 1081 2264 
Q 1234 2150 1697 2047 
L 1894 2003 
Q 2506 1872 2764 1633 
Q 3022 1394 3022 966 
Q 3022 478 2636 193 
Q 2250 -91 1575 -91 
Q 1294 -91 989 -36 
Q 684 19 347 128 
L 347 722 
Q 666 556 975 473 
Q 1284 391 1588 391 
Q 1994 391 2212 530 
Q 2431 669 2431 922 
Q 2431 1156 2273 1281 
Q 2116 1406 1581 1522 
L 1381 1569 
Q 847 1681 609 1914 
Q 372 2147 372 2553 
Q 372 3047 722 3315 
Q 1072 3584 1716 3584 
Q 2034 3584 2315 3537 
Q 2597 3491 2834 3397 
z
" transform="scale(0.015625)"/>
      <path id="DejaVuSans-69" d="M 603 3500 
L 1178 3500 
L 1178 0 
L 603 0 
L 603 3500 
z
M 603 4863 
L 1178 4863 
L 1178 4134 
L 603 4134 
L 603 4863 
z
" transform="scale(0.015625)"/>
      <path id="DejaVuSans-6e" d="M 3513 2113 
L 3513 0 
L 2938 0 
L 2938 2094 
Q 2938 2591 2744 2837 
Q 2550 3084 2163 3084 
Q 1697 3084 1428 2787 
Q 1159 2491 1159 1978 
L 1159 0 
L 581 0 
L 581 3500 
L 1159 3500 
L 1159 2956 
Q 1366 3272 1645 3428 
Q 1925 3584 2291 3584 
Q 2894 3584 3203 3211 
Q 3513 2838 3513 2113 
z
" transform="scale(0.015625)"/>
      <path id="DejaVuSans-20" transform="scale(0.015625)"/>
      <path id="DejaVuSans-Oblique-52" d="M 1613 4147 
L 1294 2491 
L 2106 2491 
Q 2584 2491 2879 2755 
Q 3175 3019 3175 3444 
Q 3175 3784 2976 3965 
Q 2778 4147 2406 4147 
L 1613 4147 
z
M 2772 2241 
Q 2972 2194 3105 2009 
Q 3238 1825 3413 1275 
L 3809 0 
L 3144 0 
L 2778 1197 
Q 2638 1659 2453 1815 
Q 2269 1972 1888 1972 
L 1191 1972 
L 806 0 
L 172 0 
L 1081 4666 
L 2503 4666 
Q 3150 4666 3495 4373 
Q 3841 4081 3841 3531 
Q 3841 3044 3547 2687 
Q 3253 2331 2772 2241 
z
" transform="scale(0.015625)"/>
      <path id="DejaVuSans-6f" d="M 1959 3097 
Q 1497 3097 1228 2736 
Q 959 2375 959 1747 
Q 959 1119 1226 758 
Q 1494 397 1959 397 
Q 2419 397 2687 759 
Q 2956 1122 2956 1747 
Q 2956 2369 2687 2733 
Q 2419 3097 1959 3097 
z
M 1959 3584 
Q 2709 3584 3137 3096 
Q 3566 2609 3566 1747 
Q 3566 888 3137 398 
Q 2709 -91 1959 -91 
Q 1206 -91 779 398 
Q 353 888 353 1747 
Q 353 2609 779 3096 
Q 1206 3584 1959 3584 
z
" transform="scale(0.015625)"/>
      <path id="DejaVuSans-6c" d="M 603 4863 
L 1178 4863 
L 1178 0 
L 603 0 
L 603 4863 
z
" transform="scale(0.015625)"/>
      <path id="DejaVuSans-64" d="M 2906 2969 
L 2906 4863 
L 3481 4863 
L 3481 0 
L 2906 0 
L 2906 525 
Q 2725 213 2448 61 
Q 2172 -91 1784 -91 
Q 1150 -91 751 415 
Q 353 922 353 1747 
Q 353 2572 751 3078 
Q 1150 3584 1784 3584 
Q 2172 3584 2448 3432 
Q 2725 3281 2906 2969 
z
M 947 1747 
Q 947 1113 1208 752 
Q 1469 391 1925 391 
Q 2381 391 2643 752 
Q 2906 1113 2906 1747 
Q 2906 2381 2643 2742 
Q 2381 3103 1925 3103 
Q 1469 3103 1208 2742 
Q 947 2381 947 1747 
z
" transform="scale(0.015625)"/>
      <path id="DejaVuSans-74" d="M 1172 4494 
L 1172 3500 
L 2356 3500 
L 2356 3053 
L 1172 3053 
L 1172 1153 
Q 1172 725 1289 603 
Q 1406 481 1766 481 
L 2356 481 
L 2356 0 
L 1766 0 
Q 1100 0 847 248 
Q 594 497 594 1153 
L 594 3053 
L 172 3053 
L 172 3500 
L 594 3500 
L 594 4494 
L 1172 4494 
z
" transform="scale(0.015625)"/>
      <path id="DejaVuSans-3d" d="M 678 2906 
L 4684 2906 
L 4684 2381 
L 678 2381 
L 678 2906 
z
M 678 1631 
L 4684 1631 
L 4684 1100 
L 678 1100 
L 678 1631 
z
" transform="scale(0.015625)"/>
      <path id="DejaVuSans-39" d="M 703 97 
L 703 672 
Q 941 559 1184 500 
Q 1428 441 1663 441 
Q 2288 441 2617 861 
Q 2947 1281 2994 2138 
Q 2813 1869 2534 1725 
Q 2256 1581 1919 1581 
Q 1219 1581 811 2004 
Q 403 2428 403 3163 
Q 403 3881 828 4315 
Q 1253 4750 1959 4750 
Q 2769 4750 3195 4129 
Q 3622 3509 3622 2328 
Q 3622 1225 3098 567 
Q 2575 -91 1691 -91 
Q 1453 -91 1209 -44 
Q 966 3 703 97 
z
M 1959 2075 
Q 2384 2075 2632 2365 
Q 2881 2656 2881 3163 
Q 2881 3666 2632 3958 
Q 2384 4250 1959 4250 
Q 1534 4250 1286 3958 
Q 1038 3666 1038 3163 
Q 1038 2656 1286 2365 
Q 1534 2075 1959 2075 
z
" transform="scale(0.015625)"/>
      <path id="DejaVuSans-38" d="M 2034 2216 
Q 1584 2216 1326 1975 
Q 1069 1734 1069 1313 
Q 1069 891 1326 650 
Q 1584 409 2034 409 
Q 2484 409 2743 651 
Q 3003 894 3003 1313 
Q 3003 1734 2745 1975 
Q 2488 2216 2034 2216 
z
M 1403 2484 
Q 997 2584 770 2862 
Q 544 3141 544 3541 
Q 544 4100 942 4425 
Q 1341 4750 2034 4750 
Q 2731 4750 3128 4425 
Q 3525 4100 3525 3541 
Q 3525 3141 3298 2862 
Q 3072 2584 2669 2484 
Q 3125 2378 3379 2068 
Q 3634 1759 3634 1313 
Q 3634 634 3220 271 
Q 2806 -91 2034 -91 
Q 1263 -91 848 271 
Q 434 634 434 1313 
Q 434 1759 690 2068 
Q 947 2378 1403 2484 
z
M 1172 3481 
Q 1172 3119 1398 2916 
Q 1625 2713 2034 2713 
Q 2441 2713 2670 2916 
Q 2900 3119 2900 3481 
Q 2900 3844 2670 4047 
Q 2441 4250 2034 4250 
Q 1625 4250 1398 4047 
Q 1172 3844 1172 3481 
z
" transform="scale(0.015625)"/>
      <path id="DejaVuSans-34" d="M 2419 4116 
L 825 1625 
L 2419 1625 
L 2419 4116 
z
M 2253 4666 
L 3047 4666 
L 3047 1625 
L 3713 1625 
L 3713 1100 
L 3047 1100 
L 3047 0 
L 2419 0 
L 2419 1100 
L 313 1100 
L 313 1709 
L 2253 4666 
z
" transform="scale(0.015625)"/>
      <path id="DejaVuSans-28" d="M 1984 4856 
Q 1566 4138 1362 3434 
Q 1159 2731 1159 2009 
Q 1159 1288 1364 580 
Q 1569 -128 1984 -844 
L 1484 -844 
Q 1016 -109 783 600 
Q 550 1309 550 2009 
Q 550 2706 781 3412 
Q 1013 4119 1484 4856 
L 1984 4856 
z
" transform="scale(0.015625)"/>
      <path id="DejaVuSans-33" d="M 2597 2516 
Q 3050 2419 3304 2112 
Q 3559 1806 3559 1356 
Q 3559 666 3084 287 
Q 2609 -91 1734 -91 
Q 1441 -91 1130 -33 
Q 819 25 488 141 
L 488 750 
Q 750 597 1062 519 
Q 1375 441 1716 441 
Q 2309 441 2620 675 
Q 2931 909 2931 1356 
Q 2931 1769 2642 2001 
Q 2353 2234 1838 2234 
L 1294 2234 
L 1294 2753 
L 1863 2753 
Q 2328 2753 2575 2939 
Q 2822 3125 2822 3475 
Q 2822 3834 2567 4026 
Q 2313 4219 1838 4219 
Q 1578 4219 1281 4162 
Q 984 4106 628 3988 
L 628 4550 
Q 988 4650 1302 4700 
Q 1616 4750 1894 4750 
Q 2613 4750 3031 4423 
Q 3450 4097 3450 3541 
Q 3450 3153 3228 2886 
Q 3006 2619 2597 2516 
z
" transform="scale(0.015625)"/>
      <path id="DejaVuSans-29" d="M 513 4856 
L 1013 4856 
Q 1481 4119 1714 3412 
Q 1947 2706 1947 2009 
Q 1947 1309 1714 600 
Q 1481 -109 1013 -844 
L 513 -844 
Q 928 -128 1133 580 
Q 1338 1288 1338 2009 
Q 1338 2731 1133 3434 
Q 928 4138 513 4856 
z
" transform="scale(0.015625)"/>
     </defs>
     <use xlink:href="#DejaVuSans-42" transform="translate(0 0.765625)"/>
     <use xlink:href="#DejaVuSans-61" transform="translate(68.603516 0.765625)"/>
     <use xlink:href="#DejaVuSans-79" transform="translate(129.882812 0.765625)"/>
     <use xlink:href="#DejaVuSans-65" transform="translate(189.0625 0.765625)"/>
     <use xlink:href="#DejaVuSans-73" transform="translate(250.585938 0.765625)"/>
     <use xlink:href="#DejaVuSans-69" transform="translate(302.685547 0.765625)"/>
     <use xlink:href="#DejaVuSans-61" transform="translate(330.46875 0.765625)"/>
     <use xlink:href="#DejaVuSans-6e" transform="translate(391.748047 0.765625)"/>
     <use xlink:href="#DejaVuSans-20" transform="translate(455.126953 0.765625)"/>
     <use xlink:href="#DejaVuSans-Oblique-52" transform="translate(486.914062 0.765625)"/>
     <use xlink:href="#DejaVuSans-32" transform="translate(563.413255 39.046875) scale(0.7)"/>
     <use xlink:href="#DejaVuSans-20" transform="translate(610.683763 0.765625)"/>
     <use xlink:href="#DejaVuSans-6f" transform="translate(642.470872 0.765625)"/>
     <use xlink:href="#DejaVuSans-6e" transform="translate(703.652513 0.765625)"/>
     <use xlink:href="#DejaVuSans-20" transform="translate(767.031419 0.765625)"/>
     <use xlink:href="#DejaVuSans-61" transform="translate(798.818529 0.765625)"/>
     <use xlink:href="#DejaVuSans-6c" transform="translate(860.097826 0.765625)"/>
     <use xlink:href="#DejaVuSans-6c" transform="translate(887.881029 0.765625)"/>
     <use xlink:href="#DejaVuSans-20" transform="translate(915.664232 0.765625)"/>
     <use xlink:href="#DejaVuSans-64" transform="translate(947.451341 0.765625)"/>
     <use xlink:href="#DejaVuSans-61" transform="translate(1010.927904 0.765625)"/>
     <use xlink:href="#DejaVuSans-74" transform="translate(1072.207201 0.765625)"/>
     <use xlink:href="#DejaVuSans-61" transform="translate(1111.416185 0.765625)"/>
     <use xlink:href="#DejaVuSans-20" transform="translate(1172.695482 0.765625)"/>
     <use xlink:href="#DejaVuSans-3d" transform="translate(1204.482591 0.765625)"/>
     <use xlink:href="#DejaVuSans-20" transform="translate(1288.271654 0.765625)"/>
     <use xlink:href="#DejaVuSans-30" transform="translate(1320.058763 0.765625)"/>
     <use xlink:href="#DejaVuSans-2e" transform="translate(1383.68181 0.765625)"/>
     <use xlink:href="#DejaVuSans-39" transform="translate(1415.468919 0.765625)"/>
     <use xlink:href="#DejaVuSans-38" transform="translate(1479.091966 0.765625)"/>
     <use xlink:href="#DejaVuSans-34" transform="translate(1542.715013 0.765625)"/>
     <use xlink:href="#DejaVuSans-20" transform="translate(1606.33806 0.765625)"/>
     <use xlink:href="#DejaVuSans-28" transform="translate(1638.125169 0.765625)"/>
     <use xlink:href="#DejaVuSans-73" transform="translate(1677.138841 0.765625)"/>
     <use xlink:href="#DejaVuSans-74" transform="translate(1729.238451 0.765625)"/>
     <use xlink:href="#DejaVuSans-64" transform="translate(1768.447435 0.765625)"/>
     <use xlink:href="#DejaVuSans-20" transform="translate(1831.923997 0.765625)"/>
     <use xlink:href="#DejaVuSans-3d" transform="translate(1863.711107 0.765625)"/>
     <use xlink:href="#DejaVuSans-20" transform="translate(1947.500169 0.765625)"/>
     <use xlink:href="#DejaVuSans-30" transform="translate(1979.287279 0.765625)"/>
     <use xlink:href="#DejaVuSans-2e" transform="translate(2042.910326 0.765625)"/>
     <use xlink:href="#DejaVuSans-30" transform="translate(2074.697435 0.765625)"/>
     <use xlink:href="#DejaVuSans-30" transform="translate(2138.320482 0.765625)"/>
     <use xlink:href="#DejaVuSans-33" transform="translate(2201.943529 0.765625)"/>
     <use xlink:href="#DejaVuSans-29" transform="translate(2265.566576 0.765625)"/>
    </g>
    <!--  -->
    <g style="fill: #262626" transform="translate(292.937848 39.709) scale(0.16 -0.16)"/>
    <!--             Change in gradient = 1.93, -->
    <g style="fill: #262626" transform="translate(153.576598 57.6255) scale(0.16 -0.16)">
     <defs>
      <path id="DejaVuSans-43" d="M 4122 4306 
L 4122 3641 
Q 3803 3938 3442 4084 
Q 3081 4231 2675 4231 
Q 1875 4231 1450 3742 
Q 1025 3253 1025 2328 
Q 1025 1406 1450 917 
Q 1875 428 2675 428 
Q 3081 428 3442 575 
Q 3803 722 4122 1019 
L 4122 359 
Q 3791 134 3420 21 
Q 3050 -91 2638 -91 
Q 1578 -91 968 557 
Q 359 1206 359 2328 
Q 359 3453 968 4101 
Q 1578 4750 2638 4750 
Q 3056 4750 3426 4639 
Q 3797 4528 4122 4306 
z
" transform="scale(0.015625)"/>
      <path id="DejaVuSans-68" d="M 3513 2113 
L 3513 0 
L 2938 0 
L 2938 2094 
Q 2938 2591 2744 2837 
Q 2550 3084 2163 3084 
Q 1697 3084 1428 2787 
Q 1159 2491 1159 1978 
L 1159 0 
L 581 0 
L 581 4863 
L 1159 4863 
L 1159 2956 
Q 1366 3272 1645 3428 
Q 1925 3584 2291 3584 
Q 2894 3584 3203 3211 
Q 3513 2838 3513 2113 
z
" transform="scale(0.015625)"/>
      <path id="DejaVuSans-67" d="M 2906 1791 
Q 2906 2416 2648 2759 
Q 2391 3103 1925 3103 
Q 1463 3103 1205 2759 
Q 947 2416 947 1791 
Q 947 1169 1205 825 
Q 1463 481 1925 481 
Q 2391 481 2648 825 
Q 2906 1169 2906 1791 
z
M 3481 434 
Q 3481 -459 3084 -895 
Q 2688 -1331 1869 -1331 
Q 1566 -1331 1297 -1286 
Q 1028 -1241 775 -1147 
L 775 -588 
Q 1028 -725 1275 -790 
Q 1522 -856 1778 -856 
Q 2344 -856 2625 -561 
Q 2906 -266 2906 331 
L 2906 616 
Q 2728 306 2450 153 
Q 2172 0 1784 0 
Q 1141 0 747 490 
Q 353 981 353 1791 
Q 353 2603 747 3093 
Q 1141 3584 1784 3584 
Q 2172 3584 2450 3431 
Q 2728 3278 2906 2969 
L 2906 3500 
L 3481 3500 
L 3481 434 
z
" transform="scale(0.015625)"/>
      <path id="DejaVuSans-72" d="M 2631 2963 
Q 2534 3019 2420 3045 
Q 2306 3072 2169 3072 
Q 1681 3072 1420 2755 
Q 1159 2438 1159 1844 
L 1159 0 
L 581 0 
L 581 3500 
L 1159 3500 
L 1159 2956 
Q 1341 3275 1631 3429 
Q 1922 3584 2338 3584 
Q 2397 3584 2469 3576 
Q 2541 3569 2628 3553 
L 2631 2963 
z
" transform="scale(0.015625)"/>
      <path id="DejaVuSans-2c" d="M 750 794 
L 1409 794 
L 1409 256 
L 897 -744 
L 494 -744 
L 750 256 
L 750 794 
z
" transform="scale(0.015625)"/>
     </defs>
     <use xlink:href="#DejaVuSans-20"/>
     <use xlink:href="#DejaVuSans-20" x="31.787109"/>
     <use xlink:href="#DejaVuSans-20" x="63.574219"/>
     <use xlink:href="#DejaVuSans-20" x="95.361328"/>
     <use xlink:href="#DejaVuSans-20" x="127.148438"/>
     <use xlink:href="#DejaVuSans-20" x="158.935547"/>
     <use xlink:href="#DejaVuSans-20" x="190.722656"/>
     <use xlink:href="#DejaVuSans-20" x="222.509766"/>
     <use xlink:href="#DejaVuSans-20" x="254.296875"/>
     <use xlink:href="#DejaVuSans-20" x="286.083984"/>
     <use xlink:href="#DejaVuSans-20" x="317.871094"/>
     <use xlink:href="#DejaVuSans-20" x="349.658203"/>
     <use xlink:href="#DejaVuSans-43" x="381.445312"/>
     <use xlink:href="#DejaVuSans-68" x="451.269531"/>
     <use xlink:href="#DejaVuSans-61" x="514.648438"/>
     <use xlink:href="#DejaVuSans-6e" x="575.927734"/>
     <use xlink:href="#DejaVuSans-67" x="639.306641"/>
     <use xlink:href="#DejaVuSans-65" x="702.783203"/>
     <use xlink:href="#DejaVuSans-20" x="764.306641"/>
     <use xlink:href="#DejaVuSans-69" x="796.09375"/>
     <use xlink:href="#DejaVuSans-6e" x="823.876953"/>
     <use xlink:href="#DejaVuSans-20" x="887.255859"/>
     <use xlink:href="#DejaVuSans-67" x="919.042969"/>
     <use xlink:href="#DejaVuSans-72" x="982.519531"/>
     <use xlink:href="#DejaVuSans-61" x="1023.632812"/>
     <use xlink:href="#DejaVuSans-64" x="1084.912109"/>
     <use xlink:href="#DejaVuSans-69" x="1148.388672"/>
     <use xlink:href="#DejaVuSans-65" x="1176.171875"/>
     <use xlink:href="#DejaVuSans-6e" x="1237.695312"/>
     <use xlink:href="#DejaVuSans-74" x="1301.074219"/>
     <use xlink:href="#DejaVuSans-20" x="1340.283203"/>
     <use xlink:href="#DejaVuSans-3d" x="1372.070312"/>
     <use xlink:href="#DejaVuSans-20" x="1455.859375"/>
     <use xlink:href="#DejaVuSans-31" x="1487.646484"/>
     <use xlink:href="#DejaVuSans-2e" x="1551.269531"/>
     <use xlink:href="#DejaVuSans-39" x="1583.056641"/>
     <use xlink:href="#DejaVuSans-33" x="1646.679688"/>
     <use xlink:href="#DejaVuSans-2c" x="1710.302734"/>
    </g>
    <!--             $CI_{94\%}$[1.82, 2.05] -->
    <g style="fill: #262626" transform="translate(195.017848 75.542) scale(0.16 -0.16)">
     <defs>
      <path id="DejaVuSans-Oblique-43" d="M 4447 4306 
L 4319 3641 
Q 4019 3944 3683 4091 
Q 3347 4238 2956 4238 
Q 2422 4238 2017 3981 
Q 1613 3725 1319 3200 
Q 1131 2863 1032 2486 
Q 934 2109 934 1728 
Q 934 1091 1264 756 
Q 1594 422 2222 422 
Q 2656 422 3056 561 
Q 3456 700 3834 978 
L 3688 231 
Q 3316 72 2936 -9 
Q 2556 -91 2175 -91 
Q 1278 -91 773 396 
Q 269 884 269 1753 
Q 269 2309 461 2846 
Q 653 3384 1013 3828 
Q 1394 4300 1883 4525 
Q 2372 4750 3022 4750 
Q 3422 4750 3780 4639 
Q 4138 4528 4447 4306 
z
" transform="scale(0.015625)"/>
      <path id="DejaVuSans-Oblique-49" d="M 1081 4666 
L 1716 4666 
L 806 0 
L 172 0 
L 1081 4666 
z
" transform="scale(0.015625)"/>
      <path id="DejaVuSans-25" d="M 4653 2053 
Q 4381 2053 4226 1822 
Q 4072 1591 4072 1178 
Q 4072 772 4226 539 
Q 4381 306 4653 306 
Q 4919 306 5073 539 
Q 5228 772 5228 1178 
Q 5228 1588 5073 1820 
Q 4919 2053 4653 2053 
z
M 4653 2450 
Q 5147 2450 5437 2106 
Q 5728 1763 5728 1178 
Q 5728 594 5436 251 
Q 5144 -91 4653 -91 
Q 4153 -91 3862 251 
Q 3572 594 3572 1178 
Q 3572 1766 3864 2108 
Q 4156 2450 4653 2450 
z
M 1428 4353 
Q 1159 4353 1004 4120 
Q 850 3888 850 3481 
Q 850 3069 1003 2837 
Q 1156 2606 1428 2606 
Q 1700 2606 1854 2837 
Q 2009 3069 2009 3481 
Q 2009 3884 1853 4118 
Q 1697 4353 1428 4353 
z
M 4250 4750 
L 4750 4750 
L 1831 -91 
L 1331 -91 
L 4250 4750 
z
M 1428 4750 
Q 1922 4750 2215 4408 
Q 2509 4066 2509 3481 
Q 2509 2891 2217 2550 
Q 1925 2209 1428 2209 
Q 931 2209 642 2551 
Q 353 2894 353 3481 
Q 353 4063 643 4406 
Q 934 4750 1428 4750 
z
" transform="scale(0.015625)"/>
      <path id="DejaVuSans-5b" d="M 550 4863 
L 1875 4863 
L 1875 4416 
L 1125 4416 
L 1125 -397 
L 1875 -397 
L 1875 -844 
L 550 -844 
L 550 4863 
z
" transform="scale(0.015625)"/>
      <path id="DejaVuSans-5d" d="M 1947 4863 
L 1947 -844 
L 622 -844 
L 622 -397 
L 1369 -397 
L 1369 4416 
L 622 4416 
L 622 4863 
L 1947 4863 
z
" transform="scale(0.015625)"/>
     </defs>
     <use xlink:href="#DejaVuSans-20" transform="translate(0 0.015625)"/>
     <use xlink:href="#DejaVuSans-20" transform="translate(31.787109 0.015625)"/>
     <use xlink:href="#DejaVuSans-20" transform="translate(63.574219 0.015625)"/>
     <use xlink:href="#DejaVuSans-20" transform="translate(95.361328 0.015625)"/>
     <use xlink:href="#DejaVuSans-20" transform="translate(127.148438 0.015625)"/>
     <use xlink:href="#DejaVuSans-20" transform="translate(158.935547 0.015625)"/>
     <use xlink:href="#DejaVuSans-20" transform="translate(190.722656 0.015625)"/>
     <use xlink:href="#DejaVuSans-20" transform="translate(222.509766 0.015625)"/>
     <use xlink:href="#DejaVuSans-20" transform="translate(254.296875 0.015625)"/>
     <use xlink:href="#DejaVuSans-20" transform="translate(286.083984 0.015625)"/>
     <use xlink:href="#DejaVuSans-20" transform="translate(317.871094 0.015625)"/>
     <use xlink:href="#DejaVuSans-20" transform="translate(349.658203 0.015625)"/>
     <use xlink:href="#DejaVuSans-Oblique-43" transform="translate(381.445312 0.015625)"/>
     <use xlink:href="#DejaVuSans-Oblique-49" transform="translate(451.269531 0.015625)"/>
     <use xlink:href="#DejaVuSans-39" transform="translate(480.761719 -16.390625) scale(0.7)"/>
     <use xlink:href="#DejaVuSans-34" transform="translate(525.297852 -16.390625) scale(0.7)"/>
     <use xlink:href="#DejaVuSans-25" transform="translate(569.833984 -16.390625) scale(0.7)"/>
     <use xlink:href="#DejaVuSans-5b" transform="translate(639.082031 0.015625)"/>
     <use xlink:href="#DejaVuSans-31" transform="translate(678.095703 0.015625)"/>
     <use xlink:href="#DejaVuSans-2e" transform="translate(741.71875 0.015625)"/>
     <use xlink:href="#DejaVuSans-38" transform="translate(770.880859 0.015625)"/>
     <use xlink:href="#DejaVuSans-32" transform="translate(834.503906 0.015625)"/>
     <use xlink:href="#DejaVuSans-2c" transform="translate(898.126953 0.015625)"/>
     <use xlink:href="#DejaVuSans-20" transform="translate(929.914062 0.015625)"/>
     <use xlink:href="#DejaVuSans-32" transform="translate(961.701172 0.015625)"/>
     <use xlink:href="#DejaVuSans-2e" transform="translate(1025.324219 0.015625)"/>
     <use xlink:href="#DejaVuSans-30" transform="translate(1057.111328 0.015625)"/>
     <use xlink:href="#DejaVuSans-35" transform="translate(1120.734375 0.015625)"/>
     <use xlink:href="#DejaVuSans-5d" transform="translate(1184.357422 0.015625)"/>
    </g>
   </g>
   <g id="legend_1">
    <g id="line2d_37">
     <path d="M 82.920625 293.737332 
L 94.920625 293.737332 
L 106.920625 293.737332 
" style="fill: none; stroke: #fa7c17; stroke-width: 1.5; stroke-linecap: round"/>
    </g>
    <g id="patch_7">
     <path d="M 82.920625 297.937332 
L 106.920625 297.937332 
L 106.920625 289.537332 
L 82.920625 289.537332 
z
" style="fill: #fa7c17; fill-opacity: 0.25; stroke: #fa7c17; stroke-opacity: 0.25; stroke-linejoin: miter"/>
    </g>
    <g id="text_20">
     <!-- Posterior mean -->
     <g style="fill: #262626" transform="translate(116.520625 297.937332) scale(0.12 -0.12)">
      <defs>
       <path id="DejaVuSans-50" d="M 1259 4147 
L 1259 2394 
L 2053 2394 
Q 2494 2394 2734 2622 
Q 2975 2850 2975 3272 
Q 2975 3691 2734 3919 
Q 2494 4147 2053 4147 
L 1259 4147 
z
M 628 4666 
L 2053 4666 
Q 2838 4666 3239 4311 
Q 3641 3956 3641 3272 
Q 3641 2581 3239 2228 
Q 2838 1875 2053 1875 
L 1259 1875 
L 1259 0 
L 628 0 
L 628 4666 
z
" transform="scale(0.015625)"/>
       <path id="DejaVuSans-6d" d="M 3328 2828 
Q 3544 3216 3844 3400 
Q 4144 3584 4550 3584 
Q 5097 3584 5394 3201 
Q 5691 2819 5691 2113 
L 5691 0 
L 5113 0 
L 5113 2094 
Q 5113 2597 4934 2840 
Q 4756 3084 4391 3084 
Q 3944 3084 3684 2787 
Q 3425 2491 3425 1978 
L 3425 0 
L 2847 0 
L 2847 2094 
Q 2847 2600 2669 2842 
Q 2491 3084 2119 3084 
Q 1678 3084 1418 2786 
Q 1159 2488 1159 1978 
L 1159 0 
L 581 0 
L 581 3500 
L 1159 3500 
L 1159 2956 
Q 1356 3278 1631 3431 
Q 1906 3584 2284 3584 
Q 2666 3584 2933 3390 
Q 3200 3197 3328 2828 
z
" transform="scale(0.015625)"/>
      </defs>
      <use xlink:href="#DejaVuSans-50"/>
      <use xlink:href="#DejaVuSans-6f" x="56.677734"/>
      <use xlink:href="#DejaVuSans-73" x="117.859375"/>
      <use xlink:href="#DejaVuSans-74" x="169.958984"/>
      <use xlink:href="#DejaVuSans-65" x="209.167969"/>
      <use xlink:href="#DejaVuSans-72" x="270.691406"/>
      <use xlink:href="#DejaVuSans-69" x="311.804688"/>
      <use xlink:href="#DejaVuSans-6f" x="339.587891"/>
      <use xlink:href="#DejaVuSans-72" x="400.769531"/>
      <use xlink:href="#DejaVuSans-20" x="441.882812"/>
      <use xlink:href="#DejaVuSans-6d" x="473.669922"/>
      <use xlink:href="#DejaVuSans-65" x="571.082031"/>
      <use xlink:href="#DejaVuSans-61" x="632.605469"/>
      <use xlink:href="#DejaVuSans-6e" x="693.884766"/>
     </g>
    </g>
   </g>
  </g>
 </g>
 <defs>
  <clipPath id="p2dbe8c9ddc">
   <rect x="72.120625" y="81.542" width="441.634446" height="229.690958"/>
  </clipPath>
 </defs>
</svg>
