<?xml version="1.0" encoding="utf-8" standalone="no"?>
<!DOCTYPE svg PUBLIC "-//W3C//DTD SVG 1.1//EN"
  "http://www.w3.org/Graphics/SVG/1.1/DTD/svg11.dtd">
<svg xmlns:xlink="http://www.w3.org/1999/xlink" width="526.746263pt" height="353.99952pt" viewBox="0 0 526.746263 353.99952" xmlns="http://www.w3.org/2000/svg" version="1.1">
 <metadata>
  <rdf:RDF xmlns:dc="http://purl.org/dc/elements/1.1/" xmlns:cc="http://creativecommons.org/ns#" xmlns:rdf="http://www.w3.org/1999/02/22-rdf-syntax-ns#">
   <cc:Work>
    <dc:type rdf:resource="http://purl.org/dc/dcmitype/StillImage"/>
    <dc:date>2022-11-03T10:07:24.128009</dc:date>
    <dc:format>image/svg+xml</dc:format>
    <dc:creator>
     <cc:Agent>
      <dc:title>Matplotlib v3.6.2, https://matplotlib.org/</dc:title>
     </cc:Agent>
    </dc:creator>
   </cc:Work>
  </rdf:RDF>
 </metadata>
 <defs>
  <style type="text/css">*{stroke-linejoin: round; stroke-linecap: butt}</style>
 </defs>
 <g id="figure_1">
  <g id="patch_1">
   <path d="M 0 353.99952 
L 526.746263 353.99952 
L 526.746263 0 
L 0 0 
z
" style="fill: #ffffff"/>
  </g>
  <g id="axes_1">
   <g id="patch_2">
    <path d="M 63.213125 311.232957 
L 518.544868 311.232957 
L 518.544868 43.274 
L 63.213125 43.274 
z
" style="fill: #eeeeee"/>
   </g>
   <g id="matplotlib.axis_1">
    <g id="xtick_1">
     <g id="line2d_1">
      <path d="M 69.291804 311.232957 
L 69.291804 43.274 
" clip-path="url(#p90e2c0866d)" style="fill: none; stroke: #ffffff; stroke-width: 0.8; stroke-linecap: round"/>
     </g>
     <g id="line2d_2"/>
     <g id="text_1">
      <!-- −1.00 -->
      <g style="fill: #262626" transform="translate(47.840085 325.37077) scale(0.14 -0.14)">
       <defs>
        <path id="DejaVuSans-2212" d="M 678 2272 
L 4684 2272 
L 4684 1741 
L 678 1741 
L 678 2272 
z
" transform="scale(0.015625)"/>
        <path id="DejaVuSans-31" d="M 794 531 
L 1825 531 
L 1825 4091 
L 703 3866 
L 703 4441 
L 1819 4666 
L 2450 4666 
L 2450 531 
L 3481 531 
L 3481 0 
L 794 0 
L 794 531 
z
" transform="scale(0.015625)"/>
        <path id="DejaVuSans-2e" d="M 684 794 
L 1344 794 
L 1344 0 
L 684 0 
L 684 794 
z
" transform="scale(0.015625)"/>
        <path id="DejaVuSans-30" d="M 2034 4250 
Q 1547 4250 1301 3770 
Q 1056 3291 1056 2328 
Q 1056 1369 1301 889 
Q 1547 409 2034 409 
Q 2525 409 2770 889 
Q 3016 1369 3016 2328 
Q 3016 3291 2770 3770 
Q 2525 4250 2034 4250 
z
M 2034 4750 
Q 2819 4750 3233 4129 
Q 3647 3509 3647 2328 
Q 3647 1150 3233 529 
Q 2819 -91 2034 -91 
Q 1250 -91 836 529 
Q 422 1150 422 2328 
Q 422 3509 836 4129 
Q 1250 4750 2034 4750 
z
" transform="scale(0.015625)"/>
       </defs>
       <use xlink:href="#DejaVuSans-2212"/>
       <use xlink:href="#DejaVuSans-31" x="83.789062"/>
       <use xlink:href="#DejaVuSans-2e" x="147.412109"/>
       <use xlink:href="#DejaVuSans-30" x="179.199219"/>
       <use xlink:href="#DejaVuSans-30" x="242.822266"/>
      </g>
     </g>
    </g>
    <g id="xtick_2">
     <g id="line2d_3">
      <path d="M 123.625369 311.232957 
L 123.625369 43.274 
" clip-path="url(#p90e2c0866d)" style="fill: none; stroke: #ffffff; stroke-width: 0.8; stroke-linecap: round"/>
     </g>
     <g id="line2d_4"/>
     <g id="text_2">
      <!-- −0.75 -->
      <g style="fill: #262626" transform="translate(102.173651 325.37077) scale(0.14 -0.14)">
       <defs>
        <path id="DejaVuSans-37" d="M 525 4666 
L 3525 4666 
L 3525 4397 
L 1831 0 
L 1172 0 
L 2766 4134 
L 525 4134 
L 525 4666 
z
" transform="scale(0.015625)"/>
        <path id="DejaVuSans-35" d="M 691 4666 
L 3169 4666 
L 3169 4134 
L 1269 4134 
L 1269 2991 
Q 1406 3038 1543 3061 
Q 1681 3084 1819 3084 
Q 2600 3084 3056 2656 
Q 3513 2228 3513 1497 
Q 3513 744 3044 326 
Q 2575 -91 1722 -91 
Q 1428 -91 1123 -41 
Q 819 9 494 109 
L 494 744 
Q 775 591 1075 516 
Q 1375 441 1709 441 
Q 2250 441 2565 725 
Q 2881 1009 2881 1497 
Q 2881 1984 2565 2268 
Q 2250 2553 1709 2553 
Q 1456 2553 1204 2497 
Q 953 2441 691 2322 
L 691 4666 
z
" transform="scale(0.015625)"/>
       </defs>
       <use xlink:href="#DejaVuSans-2212"/>
       <use xlink:href="#DejaVuSans-30" x="83.789062"/>
       <use xlink:href="#DejaVuSans-2e" x="147.412109"/>
       <use xlink:href="#DejaVuSans-37" x="179.199219"/>
       <use xlink:href="#DejaVuSans-35" x="242.822266"/>
      </g>
     </g>
    </g>
    <g id="xtick_3">
     <g id="line2d_5">
      <path d="M 177.958935 311.232957 
L 177.958935 43.274 
" clip-path="url(#p90e2c0866d)" style="fill: none; stroke: #ffffff; stroke-width: 0.8; stroke-linecap: round"/>
     </g>
     <g id="line2d_6"/>
     <g id="text_3">
      <!-- −0.50 -->
      <g style="fill: #262626" transform="translate(156.507216 325.37077) scale(0.14 -0.14)">
       <use xlink:href="#DejaVuSans-2212"/>
       <use xlink:href="#DejaVuSans-30" x="83.789062"/>
       <use xlink:href="#DejaVuSans-2e" x="147.412109"/>
       <use xlink:href="#DejaVuSans-35" x="179.199219"/>
       <use xlink:href="#DejaVuSans-30" x="242.822266"/>
      </g>
     </g>
    </g>
    <g id="xtick_4">
     <g id="line2d_7">
      <path d="M 232.2925 311.232957 
L 232.2925 43.274 
" clip-path="url(#p90e2c0866d)" style="fill: none; stroke: #ffffff; stroke-width: 0.8; stroke-linecap: round"/>
     </g>
     <g id="line2d_8"/>
     <g id="text_4">
      <!-- −0.25 -->
      <g style="fill: #262626" transform="translate(210.840781 325.37077) scale(0.14 -0.14)">
       <defs>
        <path id="DejaVuSans-32" d="M 1228 531 
L 3431 531 
L 3431 0 
L 469 0 
L 469 531 
Q 828 903 1448 1529 
Q 2069 2156 2228 2338 
Q 2531 2678 2651 2914 
Q 2772 3150 2772 3378 
Q 2772 3750 2511 3984 
Q 2250 4219 1831 4219 
Q 1534 4219 1204 4116 
Q 875 4013 500 3803 
L 500 4441 
Q 881 4594 1212 4672 
Q 1544 4750 1819 4750 
Q 2544 4750 2975 4387 
Q 3406 4025 3406 3419 
Q 3406 3131 3298 2873 
Q 3191 2616 2906 2266 
Q 2828 2175 2409 1742 
Q 1991 1309 1228 531 
z
" transform="scale(0.015625)"/>
       </defs>
       <use xlink:href="#DejaVuSans-2212"/>
       <use xlink:href="#DejaVuSans-30" x="83.789062"/>
       <use xlink:href="#DejaVuSans-2e" x="147.412109"/>
       <use xlink:href="#DejaVuSans-32" x="179.199219"/>
       <use xlink:href="#DejaVuSans-35" x="242.822266"/>
      </g>
     </g>
    </g>
    <g id="xtick_5">
     <g id="line2d_9">
      <path d="M 286.626065 311.232957 
L 286.626065 43.274 
" clip-path="url(#p90e2c0866d)" style="fill: none; stroke: #ffffff; stroke-width: 0.8; stroke-linecap: round"/>
     </g>
     <g id="line2d_10"/>
     <g id="text_5">
      <!-- 0.00 -->
      <g style="fill: #262626" transform="translate(271.040128 325.37077) scale(0.14 -0.14)">
       <use xlink:href="#DejaVuSans-30"/>
       <use xlink:href="#DejaVuSans-2e" x="63.623047"/>
       <use xlink:href="#DejaVuSans-30" x="95.410156"/>
       <use xlink:href="#DejaVuSans-30" x="159.033203"/>
      </g>
     </g>
    </g>
    <g id="xtick_6">
     <g id="line2d_11">
      <path d="M 340.95963 311.232957 
L 340.95963 43.274 
" clip-path="url(#p90e2c0866d)" style="fill: none; stroke: #ffffff; stroke-width: 0.8; stroke-linecap: round"/>
     </g>
     <g id="line2d_12"/>
     <g id="text_6">
      <!-- 0.25 -->
      <g style="fill: #262626" transform="translate(325.373693 325.37077) scale(0.14 -0.14)">
       <use xlink:href="#DejaVuSans-30"/>
       <use xlink:href="#DejaVuSans-2e" x="63.623047"/>
       <use xlink:href="#DejaVuSans-32" x="95.410156"/>
       <use xlink:href="#DejaVuSans-35" x="159.033203"/>
      </g>
     </g>
    </g>
    <g id="xtick_7">
     <g id="line2d_13">
      <path d="M 395.293195 311.232957 
L 395.293195 43.274 
" clip-path="url(#p90e2c0866d)" style="fill: none; stroke: #ffffff; stroke-width: 0.8; stroke-linecap: round"/>
     </g>
     <g id="line2d_14"/>
     <g id="text_7">
      <!-- 0.50 -->
      <g style="fill: #262626" transform="translate(379.707258 325.37077) scale(0.14 -0.14)">
       <use xlink:href="#DejaVuSans-30"/>
       <use xlink:href="#DejaVuSans-2e" x="63.623047"/>
       <use xlink:href="#DejaVuSans-35" x="95.410156"/>
       <use xlink:href="#DejaVuSans-30" x="159.033203"/>
      </g>
     </g>
    </g>
    <g id="xtick_8">
     <g id="line2d_15">
      <path d="M 449.626761 311.232957 
L 449.626761 43.274 
" clip-path="url(#p90e2c0866d)" style="fill: none; stroke: #ffffff; stroke-width: 0.8; stroke-linecap: round"/>
     </g>
     <g id="line2d_16"/>
     <g id="text_8">
      <!-- 0.75 -->
      <g style="fill: #262626" transform="translate(434.040823 325.37077) scale(0.14 -0.14)">
       <use xlink:href="#DejaVuSans-30"/>
       <use xlink:href="#DejaVuSans-2e" x="63.623047"/>
       <use xlink:href="#DejaVuSans-37" x="95.410156"/>
       <use xlink:href="#DejaVuSans-35" x="159.033203"/>
      </g>
     </g>
    </g>
    <g id="xtick_9">
     <g id="line2d_17">
      <path d="M 503.960326 311.232957 
L 503.960326 43.274 
" clip-path="url(#p90e2c0866d)" style="fill: none; stroke: #ffffff; stroke-width: 0.8; stroke-linecap: round"/>
     </g>
     <g id="line2d_18"/>
     <g id="text_9">
      <!-- 1.00 -->
      <g style="fill: #262626" transform="translate(488.374388 325.37077) scale(0.14 -0.14)">
       <use xlink:href="#DejaVuSans-31"/>
       <use xlink:href="#DejaVuSans-2e" x="63.623047"/>
       <use xlink:href="#DejaVuSans-30" x="95.410156"/>
       <use xlink:href="#DejaVuSans-30" x="159.033203"/>
      </g>
     </g>
    </g>
    <g id="text_10">
     <!-- x -->
     <g style="fill: #262626" transform="translate(286.439934 343.679989) scale(0.15 -0.15)">
      <defs>
       <path id="DejaVuSans-78" d="M 3513 3500 
L 2247 1797 
L 3578 0 
L 2900 0 
L 1881 1375 
L 863 0 
L 184 0 
L 1544 1831 
L 300 3500 
L 978 3500 
L 1906 2253 
L 2834 3500 
L 3513 3500 
z
" transform="scale(0.015625)"/>
      </defs>
      <use xlink:href="#DejaVuSans-78"/>
     </g>
    </g>
   </g>
   <g id="matplotlib.axis_2">
    <g id="ytick_1">
     <g id="line2d_19">
      <path d="M 63.213125 287.532255 
L 518.544868 287.532255 
" clip-path="url(#p90e2c0866d)" style="fill: none; stroke: #ffffff; stroke-width: 0.8; stroke-linecap: round"/>
     </g>
     <g id="line2d_20"/>
     <g id="text_11">
      <!-- −1.0 -->
      <g style="fill: #262626" transform="translate(25.717188 292.851161) scale(0.14 -0.14)">
       <use xlink:href="#DejaVuSans-2212"/>
       <use xlink:href="#DejaVuSans-31" x="83.789062"/>
       <use xlink:href="#DejaVuSans-2e" x="147.412109"/>
       <use xlink:href="#DejaVuSans-30" x="179.199219"/>
      </g>
     </g>
    </g>
    <g id="ytick_2">
     <g id="line2d_21">
      <path d="M 63.213125 240.76188 
L 518.544868 240.76188 
" clip-path="url(#p90e2c0866d)" style="fill: none; stroke: #ffffff; stroke-width: 0.8; stroke-linecap: round"/>
     </g>
     <g id="line2d_22"/>
     <g id="text_12">
      <!-- −0.5 -->
      <g style="fill: #262626" transform="translate(25.717188 246.080786) scale(0.14 -0.14)">
       <use xlink:href="#DejaVuSans-2212"/>
       <use xlink:href="#DejaVuSans-30" x="83.789062"/>
       <use xlink:href="#DejaVuSans-2e" x="147.412109"/>
       <use xlink:href="#DejaVuSans-35" x="179.199219"/>
      </g>
     </g>
    </g>
    <g id="ytick_3">
     <g id="line2d_23">
      <path d="M 63.213125 193.991505 
L 518.544868 193.991505 
" clip-path="url(#p90e2c0866d)" style="fill: none; stroke: #ffffff; stroke-width: 0.8; stroke-linecap: round"/>
     </g>
     <g id="line2d_24"/>
     <g id="text_13">
      <!-- 0.0 -->
      <g style="fill: #262626" transform="translate(37.44875 199.310412) scale(0.14 -0.14)">
       <use xlink:href="#DejaVuSans-30"/>
       <use xlink:href="#DejaVuSans-2e" x="63.623047"/>
       <use xlink:href="#DejaVuSans-30" x="95.410156"/>
      </g>
     </g>
    </g>
    <g id="ytick_4">
     <g id="line2d_25">
      <path d="M 63.213125 147.221131 
L 518.544868 147.221131 
" clip-path="url(#p90e2c0866d)" style="fill: none; stroke: #ffffff; stroke-width: 0.8; stroke-linecap: round"/>
     </g>
     <g id="line2d_26"/>
     <g id="text_14">
      <!-- 0.5 -->
      <g style="fill: #262626" transform="translate(37.44875 152.540037) scale(0.14 -0.14)">
       <use xlink:href="#DejaVuSans-30"/>
       <use xlink:href="#DejaVuSans-2e" x="63.623047"/>
       <use xlink:href="#DejaVuSans-35" x="95.410156"/>
      </g>
     </g>
    </g>
    <g id="ytick_5">
     <g id="line2d_27">
      <path d="M 63.213125 100.450756 
L 518.544868 100.450756 
" clip-path="url(#p90e2c0866d)" style="fill: none; stroke: #ffffff; stroke-width: 0.8; stroke-linecap: round"/>
     </g>
     <g id="line2d_28"/>
     <g id="text_15">
      <!-- 1.0 -->
      <g style="fill: #262626" transform="translate(37.44875 105.769662) scale(0.14 -0.14)">
       <use xlink:href="#DejaVuSans-31"/>
       <use xlink:href="#DejaVuSans-2e" x="63.623047"/>
       <use xlink:href="#DejaVuSans-30" x="95.410156"/>
      </g>
     </g>
    </g>
    <g id="ytick_6">
     <g id="line2d_29">
      <path d="M 63.213125 53.680381 
L 518.544868 53.680381 
" clip-path="url(#p90e2c0866d)" style="fill: none; stroke: #ffffff; stroke-width: 0.8; stroke-linecap: round"/>
     </g>
     <g id="line2d_30"/>
     <g id="text_16">
      <!-- 1.5 -->
      <g style="fill: #262626" transform="translate(37.44875 58.999288) scale(0.14 -0.14)">
       <use xlink:href="#DejaVuSans-31"/>
       <use xlink:href="#DejaVuSans-2e" x="63.623047"/>
       <use xlink:href="#DejaVuSans-35" x="95.410156"/>
      </g>
     </g>
    </g>
    <g id="text_17">
     <!-- y -->
     <g style="fill: #262626" transform="translate(18.597656 181.692541) rotate(-90) scale(0.15 -0.15)">
      <defs>
       <path id="DejaVuSans-79" d="M 2059 -325 
Q 1816 -950 1584 -1140 
Q 1353 -1331 966 -1331 
L 506 -1331 
L 506 -850 
L 844 -850 
Q 1081 -850 1212 -737 
Q 1344 -625 1503 -206 
L 1606 56 
L 191 3500 
L 800 3500 
L 1894 763 
L 2988 3500 
L 3597 3500 
L 2059 -325 
z
" transform="scale(0.015625)"/>
      </defs>
      <use xlink:href="#DejaVuSans-79"/>
     </g>
    </g>
   </g>
   <g id="PathCollection_1">
    <defs>
     <path id="m34dc8e1689" d="M 0 3 
C 0.795609 3 1.55874 2.683901 2.12132 2.12132 
C 2.683901 1.55874 3 0.795609 3 0 
C 3 -0.795609 2.683901 -1.55874 2.12132 -2.12132 
C 1.55874 -2.683901 0.795609 -3 0 -3 
C -0.795609 -3 -1.55874 -2.683901 -2.12132 -2.12132 
C -2.683901 -1.55874 -3 -0.795609 -3 0 
C -3 0.795609 -2.683901 1.55874 -2.12132 2.12132 
C -1.55874 2.683901 -0.795609 3 0 3 
z
" style="stroke: #ffffff; stroke-width: 0.48"/>
    </defs>
    <g clip-path="url(#p90e2c0866d)">
     <use xlink:href="#m34dc8e1689" x="83.910022" y="202.589693" style="stroke: #ffffff; stroke-width: 0.48"/>
     <use xlink:href="#m34dc8e1689" x="84.336022" y="229.786121" style="stroke: #ffffff; stroke-width: 0.48"/>
     <use xlink:href="#m34dc8e1689" x="84.69857" y="210.995909" style="stroke: #ffffff; stroke-width: 0.48"/>
     <use xlink:href="#m34dc8e1689" x="89.412792" y="220.954154" style="stroke: #ffffff; stroke-width: 0.48"/>
     <use xlink:href="#m34dc8e1689" x="94.835298" y="233.354437" style="stroke: #ffffff; stroke-width: 0.48"/>
     <use xlink:href="#m34dc8e1689" x="94.920755" y="245.901161" style="stroke: #ffffff; stroke-width: 0.48"/>
     <use xlink:href="#m34dc8e1689" x="105.526504" y="246.956376" style="stroke: #ffffff; stroke-width: 0.48"/>
     <use xlink:href="#m34dc8e1689" x="107.174569" y="239.248671" style="stroke: #ffffff; stroke-width: 0.48"/>
     <use xlink:href="#m34dc8e1689" x="112.222407" y="239.337827" style="stroke: #ffffff; stroke-width: 0.48"/>
     <use xlink:href="#m34dc8e1689" x="114.768501" y="260.194766" style="stroke: #ffffff; stroke-width: 0.48"/>
     <use xlink:href="#m34dc8e1689" x="117.423734" y="262.975123" style="stroke: #ffffff; stroke-width: 0.48"/>
     <use xlink:href="#m34dc8e1689" x="125.295493" y="254.634308" style="stroke: #ffffff; stroke-width: 0.48"/>
     <use xlink:href="#m34dc8e1689" x="141.833089" y="271.890192" style="stroke: #ffffff; stroke-width: 0.48"/>
     <use xlink:href="#m34dc8e1689" x="141.9756" y="287.438438" style="stroke: #ffffff; stroke-width: 0.48"/>
     <use xlink:href="#m34dc8e1689" x="145.162711" y="296.718098" style="stroke: #ffffff; stroke-width: 0.48"/>
     <use xlink:href="#m34dc8e1689" x="145.509225" y="280.877995" style="stroke: #ffffff; stroke-width: 0.48"/>
     <use xlink:href="#m34dc8e1689" x="147.059173" y="286.968237" style="stroke: #ffffff; stroke-width: 0.48"/>
     <use xlink:href="#m34dc8e1689" x="147.299032" y="277.482985" style="stroke: #ffffff; stroke-width: 0.48"/>
     <use xlink:href="#m34dc8e1689" x="149.509041" y="299.053005" style="stroke: #ffffff; stroke-width: 0.48"/>
     <use xlink:href="#m34dc8e1689" x="159.417963" y="274.292056" style="stroke: #ffffff; stroke-width: 0.48"/>
     <use xlink:href="#m34dc8e1689" x="163.564673" y="278.088676" style="stroke: #ffffff; stroke-width: 0.48"/>
     <use xlink:href="#m34dc8e1689" x="168.797623" y="277.378611" style="stroke: #ffffff; stroke-width: 0.48"/>
     <use xlink:href="#m34dc8e1689" x="170.455346" y="264.867114" style="stroke: #ffffff; stroke-width: 0.48"/>
     <use xlink:href="#m34dc8e1689" x="172.701312" y="270.13173" style="stroke: #ffffff; stroke-width: 0.48"/>
     <use xlink:href="#m34dc8e1689" x="188.833339" y="278.248161" style="stroke: #ffffff; stroke-width: 0.48"/>
     <use xlink:href="#m34dc8e1689" x="194.379694" y="292.673252" style="stroke: #ffffff; stroke-width: 0.48"/>
     <use xlink:href="#m34dc8e1689" x="195.102613" y="285.287976" style="stroke: #ffffff; stroke-width: 0.48"/>
     <use xlink:href="#m34dc8e1689" x="203.349595" y="279.149535" style="stroke: #ffffff; stroke-width: 0.48"/>
     <use xlink:href="#m34dc8e1689" x="205.405779" y="288.015314" style="stroke: #ffffff; stroke-width: 0.48"/>
     <use xlink:href="#m34dc8e1689" x="208.282416" y="281.654805" style="stroke: #ffffff; stroke-width: 0.48"/>
     <use xlink:href="#m34dc8e1689" x="208.871219" y="291.421384" style="stroke: #ffffff; stroke-width: 0.48"/>
     <use xlink:href="#m34dc8e1689" x="210.295392" y="266.570299" style="stroke: #ffffff; stroke-width: 0.48"/>
     <use xlink:href="#m34dc8e1689" x="211.069273" y="267.441983" style="stroke: #ffffff; stroke-width: 0.48"/>
     <use xlink:href="#m34dc8e1689" x="211.748993" y="262.325529" style="stroke: #ffffff; stroke-width: 0.48"/>
     <use xlink:href="#m34dc8e1689" x="216.562155" y="268.238874" style="stroke: #ffffff; stroke-width: 0.48"/>
     <use xlink:href="#m34dc8e1689" x="230.422528" y="259.063614" style="stroke: #ffffff; stroke-width: 0.48"/>
     <use xlink:href="#m34dc8e1689" x="235.037652" y="264.114623" style="stroke: #ffffff; stroke-width: 0.48"/>
     <use xlink:href="#m34dc8e1689" x="239.493093" y="235.802336" style="stroke: #ffffff; stroke-width: 0.48"/>
     <use xlink:href="#m34dc8e1689" x="243.175218" y="241.983449" style="stroke: #ffffff; stroke-width: 0.48"/>
     <use xlink:href="#m34dc8e1689" x="245.068273" y="249.155086" style="stroke: #ffffff; stroke-width: 0.48"/>
     <use xlink:href="#m34dc8e1689" x="249.100659" y="247.744124" style="stroke: #ffffff; stroke-width: 0.48"/>
     <use xlink:href="#m34dc8e1689" x="258.305684" y="229.09192" style="stroke: #ffffff; stroke-width: 0.48"/>
     <use xlink:href="#m34dc8e1689" x="262.182011" y="218.323613" style="stroke: #ffffff; stroke-width: 0.48"/>
     <use xlink:href="#m34dc8e1689" x="266.093358" y="229.532112" style="stroke: #ffffff; stroke-width: 0.48"/>
     <use xlink:href="#m34dc8e1689" x="266.798071" y="237.275023" style="stroke: #ffffff; stroke-width: 0.48"/>
     <use xlink:href="#m34dc8e1689" x="269.087997" y="210.267589" style="stroke: #ffffff; stroke-width: 0.48"/>
     <use xlink:href="#m34dc8e1689" x="281.112906" y="198.582238" style="stroke: #ffffff; stroke-width: 0.48"/>
     <use xlink:href="#m34dc8e1689" x="284.936083" y="204.424138" style="stroke: #ffffff; stroke-width: 0.48"/>
     <use xlink:href="#m34dc8e1689" x="286.235929" y="206.137127" style="stroke: #ffffff; stroke-width: 0.48"/>
     <use xlink:href="#m34dc8e1689" x="289.454876" y="203.06125" style="stroke: #ffffff; stroke-width: 0.48"/>
     <use xlink:href="#m34dc8e1689" x="289.523467" y="206.605671" style="stroke: #ffffff; stroke-width: 0.48"/>
     <use xlink:href="#m34dc8e1689" x="299.076053" y="182.677204" style="stroke: #ffffff; stroke-width: 0.48"/>
     <use xlink:href="#m34dc8e1689" x="301.144193" y="184.815577" style="stroke: #ffffff; stroke-width: 0.48"/>
     <use xlink:href="#m34dc8e1689" x="304.354028" y="164.972981" style="stroke: #ffffff; stroke-width: 0.48"/>
     <use xlink:href="#m34dc8e1689" x="310.233288" y="160.184909" style="stroke: #ffffff; stroke-width: 0.48"/>
     <use xlink:href="#m34dc8e1689" x="310.81556" y="163.949436" style="stroke: #ffffff; stroke-width: 0.48"/>
     <use xlink:href="#m34dc8e1689" x="316.333421" y="147.973008" style="stroke: #ffffff; stroke-width: 0.48"/>
     <use xlink:href="#m34dc8e1689" x="326.15288" y="140.239484" style="stroke: #ffffff; stroke-width: 0.48"/>
     <use xlink:href="#m34dc8e1689" x="329.473717" y="130.872311" style="stroke: #ffffff; stroke-width: 0.48"/>
     <use xlink:href="#m34dc8e1689" x="345.717135" y="108.166246" style="stroke: #ffffff; stroke-width: 0.48"/>
     <use xlink:href="#m34dc8e1689" x="345.912491" y="113.329844" style="stroke: #ffffff; stroke-width: 0.48"/>
     <use xlink:href="#m34dc8e1689" x="348.40895" y="132.723002" style="stroke: #ffffff; stroke-width: 0.48"/>
     <use xlink:href="#m34dc8e1689" x="350.254007" y="133.183598" style="stroke: #ffffff; stroke-width: 0.48"/>
     <use xlink:href="#m34dc8e1689" x="350.642973" y="119.583014" style="stroke: #ffffff; stroke-width: 0.48"/>
     <use xlink:href="#m34dc8e1689" x="361.213638" y="122.593308" style="stroke: #ffffff; stroke-width: 0.48"/>
     <use xlink:href="#m34dc8e1689" x="363.251157" y="121.54572" style="stroke: #ffffff; stroke-width: 0.48"/>
     <use xlink:href="#m34dc8e1689" x="365.881418" y="103.27957" style="stroke: #ffffff; stroke-width: 0.48"/>
     <use xlink:href="#m34dc8e1689" x="366.74208" y="135.362082" style="stroke: #ffffff; stroke-width: 0.48"/>
     <use xlink:href="#m34dc8e1689" x="370.659001" y="106.956797" style="stroke: #ffffff; stroke-width: 0.48"/>
     <use xlink:href="#m34dc8e1689" x="377.968914" y="101.716801" style="stroke: #ffffff; stroke-width: 0.48"/>
     <use xlink:href="#m34dc8e1689" x="382.373811" y="98.631073" style="stroke: #ffffff; stroke-width: 0.48"/>
     <use xlink:href="#m34dc8e1689" x="384.627721" y="97.81205" style="stroke: #ffffff; stroke-width: 0.48"/>
     <use xlink:href="#m34dc8e1689" x="384.895427" y="106.163302" style="stroke: #ffffff; stroke-width: 0.48"/>
     <use xlink:href="#m34dc8e1689" x="385.076865" y="112.066848" style="stroke: #ffffff; stroke-width: 0.48"/>
     <use xlink:href="#m34dc8e1689" x="392.383214" y="93.715461" style="stroke: #ffffff; stroke-width: 0.48"/>
     <use xlink:href="#m34dc8e1689" x="408.505902" y="58.037039" style="stroke: #ffffff; stroke-width: 0.48"/>
     <use xlink:href="#m34dc8e1689" x="414.78928" y="59.37945" style="stroke: #ffffff; stroke-width: 0.48"/>
     <use xlink:href="#m34dc8e1689" x="418.379741" y="72.153924" style="stroke: #ffffff; stroke-width: 0.48"/>
     <use xlink:href="#m34dc8e1689" x="423.312125" y="63.318842" style="stroke: #ffffff; stroke-width: 0.48"/>
     <use xlink:href="#m34dc8e1689" x="424.220592" y="67.617198" style="stroke: #ffffff; stroke-width: 0.48"/>
     <use xlink:href="#m34dc8e1689" x="427.130787" y="59.049354" style="stroke: #ffffff; stroke-width: 0.48"/>
     <use xlink:href="#m34dc8e1689" x="428.394188" y="66.381519" style="stroke: #ffffff; stroke-width: 0.48"/>
     <use xlink:href="#m34dc8e1689" x="431.732798" y="76.961827" style="stroke: #ffffff; stroke-width: 0.48"/>
     <use xlink:href="#m34dc8e1689" x="432.894093" y="55.535689" style="stroke: #ffffff; stroke-width: 0.48"/>
     <use xlink:href="#m34dc8e1689" x="433.879567" y="55.453953" style="stroke: #ffffff; stroke-width: 0.48"/>
     <use xlink:href="#m34dc8e1689" x="438.591916" y="63.486663" style="stroke: #ffffff; stroke-width: 0.48"/>
     <use xlink:href="#m34dc8e1689" x="441.61939" y="67.206977" style="stroke: #ffffff; stroke-width: 0.48"/>
     <use xlink:href="#m34dc8e1689" x="445.959405" y="68.291203" style="stroke: #ffffff; stroke-width: 0.48"/>
     <use xlink:href="#m34dc8e1689" x="454.085761" y="76.483264" style="stroke: #ffffff; stroke-width: 0.48"/>
     <use xlink:href="#m34dc8e1689" x="454.160468" y="72.031955" style="stroke: #ffffff; stroke-width: 0.48"/>
     <use xlink:href="#m34dc8e1689" x="464.439127" y="79.802737" style="stroke: #ffffff; stroke-width: 0.48"/>
     <use xlink:href="#m34dc8e1689" x="464.787074" y="94.844813" style="stroke: #ffffff; stroke-width: 0.48"/>
     <use xlink:href="#m34dc8e1689" x="477.548688" y="108.239994" style="stroke: #ffffff; stroke-width: 0.48"/>
     <use xlink:href="#m34dc8e1689" x="480.628972" y="102.295302" style="stroke: #ffffff; stroke-width: 0.48"/>
     <use xlink:href="#m34dc8e1689" x="480.649141" y="104.468466" style="stroke: #ffffff; stroke-width: 0.48"/>
     <use xlink:href="#m34dc8e1689" x="483.017451" y="112.259017" style="stroke: #ffffff; stroke-width: 0.48"/>
     <use xlink:href="#m34dc8e1689" x="489.376035" y="123.961884" style="stroke: #ffffff; stroke-width: 0.48"/>
     <use xlink:href="#m34dc8e1689" x="493.102116" y="109.117245" style="stroke: #ffffff; stroke-width: 0.48"/>
     <use xlink:href="#m34dc8e1689" x="496.132545" y="119.202039" style="stroke: #ffffff; stroke-width: 0.48"/>
     <use xlink:href="#m34dc8e1689" x="497.847971" y="124.790964" style="stroke: #ffffff; stroke-width: 0.48"/>
    </g>
   </g>
   <g id="line2d_31">
    <path d="M 83.910022 215.696699 
L 88.88225 223.100094 
L 93.854478 230.102891 
L 98.826705 236.702842 
L 103.384581 242.396989 
L 107.942456 247.749013 
L 112.500331 252.757185 
L 117.058207 257.419773 
L 121.20173 261.357146 
L 125.345253 265.00618 
L 129.488776 268.365576 
L 133.632299 271.434034 
L 137.775822 274.210251 
L 141.504992 276.457908 
L 145.234163 278.466848 
L 148.963334 280.236125 
L 152.692504 281.76479 
L 156.421675 283.051895 
L 160.150846 284.096491 
L 163.880017 284.897632 
L 167.609187 285.454368 
L 171.338358 285.765752 
L 175.067529 285.830835 
L 178.796699 285.648669 
L 182.52587 285.218307 
L 186.255041 284.5388 
L 189.984211 283.609199 
L 193.713382 282.42857 
L 197.442553 280.998867 
L 201.171724 279.32862 
L 204.900894 277.427269 
L 209.044417 275.055087 
L 213.18794 272.422193 
L 217.745816 269.240338 
L 222.303691 265.775921 
L 227.275919 261.694546 
L 232.248146 257.319782 
L 237.634726 252.275324 
L 243.435658 246.519752 
L 249.650943 240.0207 
L 256.28058 232.757566 
L 263.738921 224.243077 
L 272.440319 213.947078 
L 283.213479 200.830295 
L 315.118606 161.744623 
L 323.405652 152.077318 
L 330.449641 144.182632 
L 337.079278 137.087614 
L 342.88021 131.191695 
L 348.26679 126.012651 
L 353.65337 121.149572 
L 358.625598 116.96731 
L 363.183473 113.413256 
L 367.741349 110.145703 
L 371.884872 107.439315 
L 376.028395 104.998765 
L 379.757565 103.040997 
L 383.486736 101.319855 
L 387.215907 99.845424 
L 390.945077 98.627794 
L 394.259896 97.769196 
L 395.0886 97.588326 
L 395.502953 59.457543 
L 398.817771 58.899746 
L 402.13259 58.561386 
L 405.447408 58.438249 
L 408.762226 58.52608 
L 412.077045 58.820624 
L 415.391863 59.317625 
L 419.121034 60.113454 
L 422.850205 61.154075 
L 426.579375 62.43343 
L 430.308546 63.945461 
L 434.037717 65.684108 
L 438.18124 67.874356 
L 442.324763 70.328588 
L 446.468286 73.038495 
L 451.026161 76.304777 
L 455.584036 79.859307 
L 460.141912 83.691026 
L 465.114139 88.174216 
L 470.086367 92.959758 
L 475.472947 98.468635 
L 480.859527 104.297245 
L 486.660459 110.910837 
L 492.875743 118.358912 
L 497.847971 124.568663 
L 497.847971 124.568663 
" clip-path="url(#p90e2c0866d)" style="fill: none; stroke: #000000; stroke-width: 1.5; stroke-linecap: round"/>
   </g>
   <g id="line2d_32">
    <path d="M 395.293195 311.232957 
L 395.293195 43.274 
" clip-path="url(#p90e2c0866d)" style="fill: none; stroke: #ff0000; stroke-width: 3; stroke-linecap: round"/>
   </g>
   <g id="patch_3">
    <path d="M 63.213125 311.232957 
L 63.213125 43.274 
" style="fill: none"/>
   </g>
   <g id="patch_4">
    <path d="M 518.544868 311.232957 
L 518.544868 43.274 
" style="fill: none"/>
   </g>
   <g id="patch_5">
    <path d="M 63.213125 311.232957 
L 518.544868 311.232957 
" style="fill: none"/>
   </g>
   <g id="patch_6">
    <path d="M 63.213125 43.274 
L 518.544868 43.274 
" style="fill: none"/>
   </g>
   <g id="text_18">
    <!-- $R^2$ on all data = 0.987 -->
    <g style="fill: #262626" transform="translate(201.278997 19.3575) scale(0.16 -0.16)">
     <defs>
      <path id="DejaVuSans-Oblique-52" d="M 1613 4147 
L 1294 2491 
L 2106 2491 
Q 2584 2491 2879 2755 
Q 3175 3019 3175 3444 
Q 3175 3784 2976 3965 
Q 2778 4147 2406 4147 
L 1613 4147 
z
M 2772 2241 
Q 2972 2194 3105 2009 
Q 3238 1825 3413 1275 
L 3809 0 
L 3144 0 
L 2778 1197 
Q 2638 1659 2453 1815 
Q 2269 1972 1888 1972 
L 1191 1972 
L 806 0 
L 172 0 
L 1081 4666 
L 2503 4666 
Q 3150 4666 3495 4373 
Q 3841 4081 3841 3531 
Q 3841 3044 3547 2687 
Q 3253 2331 2772 2241 
z
" transform="scale(0.015625)"/>
      <path id="DejaVuSans-20" transform="scale(0.015625)"/>
      <path id="DejaVuSans-6f" d="M 1959 3097 
Q 1497 3097 1228 2736 
Q 959 2375 959 1747 
Q 959 1119 1226 758 
Q 1494 397 1959 397 
Q 2419 397 2687 759 
Q 2956 1122 2956 1747 
Q 2956 2369 2687 2733 
Q 2419 3097 1959 3097 
z
M 1959 3584 
Q 2709 3584 3137 3096 
Q 3566 2609 3566 1747 
Q 3566 888 3137 398 
Q 2709 -91 1959 -91 
Q 1206 -91 779 398 
Q 353 888 353 1747 
Q 353 2609 779 3096 
Q 1206 3584 1959 3584 
z
" transform="scale(0.015625)"/>
      <path id="DejaVuSans-6e" d="M 3513 2113 
L 3513 0 
L 2938 0 
L 2938 2094 
Q 2938 2591 2744 2837 
Q 2550 3084 2163 3084 
Q 1697 3084 1428 2787 
Q 1159 2491 1159 1978 
L 1159 0 
L 581 0 
L 581 3500 
L 1159 3500 
L 1159 2956 
Q 1366 3272 1645 3428 
Q 1925 3584 2291 3584 
Q 2894 3584 3203 3211 
Q 3513 2838 3513 2113 
z
" transform="scale(0.015625)"/>
      <path id="DejaVuSans-61" d="M 2194 1759 
Q 1497 1759 1228 1600 
Q 959 1441 959 1056 
Q 959 750 1161 570 
Q 1363 391 1709 391 
Q 2188 391 2477 730 
Q 2766 1069 2766 1631 
L 2766 1759 
L 2194 1759 
z
M 3341 1997 
L 3341 0 
L 2766 0 
L 2766 531 
Q 2569 213 2275 61 
Q 1981 -91 1556 -91 
Q 1019 -91 701 211 
Q 384 513 384 1019 
Q 384 1609 779 1909 
Q 1175 2209 1959 2209 
L 2766 2209 
L 2766 2266 
Q 2766 2663 2505 2880 
Q 2244 3097 1772 3097 
Q 1472 3097 1187 3025 
Q 903 2953 641 2809 
L 641 3341 
Q 956 3463 1253 3523 
Q 1550 3584 1831 3584 
Q 2591 3584 2966 3190 
Q 3341 2797 3341 1997 
z
" transform="scale(0.015625)"/>
      <path id="DejaVuSans-6c" d="M 603 4863 
L 1178 4863 
L 1178 0 
L 603 0 
L 603 4863 
z
" transform="scale(0.015625)"/>
      <path id="DejaVuSans-64" d="M 2906 2969 
L 2906 4863 
L 3481 4863 
L 3481 0 
L 2906 0 
L 2906 525 
Q 2725 213 2448 61 
Q 2172 -91 1784 -91 
Q 1150 -91 751 415 
Q 353 922 353 1747 
Q 353 2572 751 3078 
Q 1150 3584 1784 3584 
Q 2172 3584 2448 3432 
Q 2725 3281 2906 2969 
z
M 947 1747 
Q 947 1113 1208 752 
Q 1469 391 1925 391 
Q 2381 391 2643 752 
Q 2906 1113 2906 1747 
Q 2906 2381 2643 2742 
Q 2381 3103 1925 3103 
Q 1469 3103 1208 2742 
Q 947 2381 947 1747 
z
" transform="scale(0.015625)"/>
      <path id="DejaVuSans-74" d="M 1172 4494 
L 1172 3500 
L 2356 3500 
L 2356 3053 
L 1172 3053 
L 1172 1153 
Q 1172 725 1289 603 
Q 1406 481 1766 481 
L 2356 481 
L 2356 0 
L 1766 0 
Q 1100 0 847 248 
Q 594 497 594 1153 
L 594 3053 
L 172 3053 
L 172 3500 
L 594 3500 
L 594 4494 
L 1172 4494 
z
" transform="scale(0.015625)"/>
      <path id="DejaVuSans-3d" d="M 678 2906 
L 4684 2906 
L 4684 2381 
L 678 2381 
L 678 2906 
z
M 678 1631 
L 4684 1631 
L 4684 1100 
L 678 1100 
L 678 1631 
z
" transform="scale(0.015625)"/>
      <path id="DejaVuSans-39" d="M 703 97 
L 703 672 
Q 941 559 1184 500 
Q 1428 441 1663 441 
Q 2288 441 2617 861 
Q 2947 1281 2994 2138 
Q 2813 1869 2534 1725 
Q 2256 1581 1919 1581 
Q 1219 1581 811 2004 
Q 403 2428 403 3163 
Q 403 3881 828 4315 
Q 1253 4750 1959 4750 
Q 2769 4750 3195 4129 
Q 3622 3509 3622 2328 
Q 3622 1225 3098 567 
Q 2575 -91 1691 -91 
Q 1453 -91 1209 -44 
Q 966 3 703 97 
z
M 1959 2075 
Q 2384 2075 2632 2365 
Q 2881 2656 2881 3163 
Q 2881 3666 2632 3958 
Q 2384 4250 1959 4250 
Q 1534 4250 1286 3958 
Q 1038 3666 1038 3163 
Q 1038 2656 1286 2365 
Q 1534 2075 1959 2075 
z
" transform="scale(0.015625)"/>
      <path id="DejaVuSans-38" d="M 2034 2216 
Q 1584 2216 1326 1975 
Q 1069 1734 1069 1313 
Q 1069 891 1326 650 
Q 1584 409 2034 409 
Q 2484 409 2743 651 
Q 3003 894 3003 1313 
Q 3003 1734 2745 1975 
Q 2488 2216 2034 2216 
z
M 1403 2484 
Q 997 2584 770 2862 
Q 544 3141 544 3541 
Q 544 4100 942 4425 
Q 1341 4750 2034 4750 
Q 2731 4750 3128 4425 
Q 3525 4100 3525 3541 
Q 3525 3141 3298 2862 
Q 3072 2584 2669 2484 
Q 3125 2378 3379 2068 
Q 3634 1759 3634 1313 
Q 3634 634 3220 271 
Q 2806 -91 2034 -91 
Q 1263 -91 848 271 
Q 434 634 434 1313 
Q 434 1759 690 2068 
Q 947 2378 1403 2484 
z
M 1172 3481 
Q 1172 3119 1398 2916 
Q 1625 2713 2034 2713 
Q 2441 2713 2670 2916 
Q 2900 3119 2900 3481 
Q 2900 3844 2670 4047 
Q 2441 4250 2034 4250 
Q 1625 4250 1398 4047 
Q 1172 3844 1172 3481 
z
" transform="scale(0.015625)"/>
     </defs>
     <use xlink:href="#DejaVuSans-Oblique-52" transform="translate(0 0.765625)"/>
     <use xlink:href="#DejaVuSans-32" transform="translate(76.499193 39.046875) scale(0.7)"/>
     <use xlink:href="#DejaVuSans-20" transform="translate(123.769701 0.765625)"/>
     <use xlink:href="#DejaVuSans-6f" transform="translate(155.55681 0.765625)"/>
     <use xlink:href="#DejaVuSans-6e" transform="translate(216.738451 0.765625)"/>
     <use xlink:href="#DejaVuSans-20" transform="translate(280.117357 0.765625)"/>
     <use xlink:href="#DejaVuSans-61" transform="translate(311.904466 0.765625)"/>
     <use xlink:href="#DejaVuSans-6c" transform="translate(373.183763 0.765625)"/>
     <use xlink:href="#DejaVuSans-6c" transform="translate(400.966966 0.765625)"/>
     <use xlink:href="#DejaVuSans-20" transform="translate(428.750169 0.765625)"/>
     <use xlink:href="#DejaVuSans-64" transform="translate(460.537279 0.765625)"/>
     <use xlink:href="#DejaVuSans-61" transform="translate(524.013841 0.765625)"/>
     <use xlink:href="#DejaVuSans-74" transform="translate(585.293138 0.765625)"/>
     <use xlink:href="#DejaVuSans-61" transform="translate(624.502122 0.765625)"/>
     <use xlink:href="#DejaVuSans-20" transform="translate(685.781419 0.765625)"/>
     <use xlink:href="#DejaVuSans-3d" transform="translate(717.568529 0.765625)"/>
     <use xlink:href="#DejaVuSans-20" transform="translate(801.357591 0.765625)"/>
     <use xlink:href="#DejaVuSans-30" transform="translate(833.144701 0.765625)"/>
     <use xlink:href="#DejaVuSans-2e" transform="translate(896.767747 0.765625)"/>
     <use xlink:href="#DejaVuSans-39" transform="translate(928.554857 0.765625)"/>
     <use xlink:href="#DejaVuSans-38" transform="translate(992.177904 0.765625)"/>
     <use xlink:href="#DejaVuSans-37" transform="translate(1055.800951 0.765625)"/>
    </g>
    <!-- Discontinuity at threshold = 0.41 -->
    <g style="fill: #262626" transform="translate(157.976497 37.274) scale(0.16 -0.16)">
     <defs>
      <path id="DejaVuSans-44" d="M 1259 4147 
L 1259 519 
L 2022 519 
Q 2988 519 3436 956 
Q 3884 1394 3884 2338 
Q 3884 3275 3436 3711 
Q 2988 4147 2022 4147 
L 1259 4147 
z
M 628 4666 
L 1925 4666 
Q 3281 4666 3915 4102 
Q 4550 3538 4550 2338 
Q 4550 1131 3912 565 
Q 3275 0 1925 0 
L 628 0 
L 628 4666 
z
" transform="scale(0.015625)"/>
      <path id="DejaVuSans-69" d="M 603 3500 
L 1178 3500 
L 1178 0 
L 603 0 
L 603 3500 
z
M 603 4863 
L 1178 4863 
L 1178 4134 
L 603 4134 
L 603 4863 
z
" transform="scale(0.015625)"/>
      <path id="DejaVuSans-73" d="M 2834 3397 
L 2834 2853 
Q 2591 2978 2328 3040 
Q 2066 3103 1784 3103 
Q 1356 3103 1142 2972 
Q 928 2841 928 2578 
Q 928 2378 1081 2264 
Q 1234 2150 1697 2047 
L 1894 2003 
Q 2506 1872 2764 1633 
Q 3022 1394 3022 966 
Q 3022 478 2636 193 
Q 2250 -91 1575 -91 
Q 1294 -91 989 -36 
Q 684 19 347 128 
L 347 722 
Q 666 556 975 473 
Q 1284 391 1588 391 
Q 1994 391 2212 530 
Q 2431 669 2431 922 
Q 2431 1156 2273 1281 
Q 2116 1406 1581 1522 
L 1381 1569 
Q 847 1681 609 1914 
Q 372 2147 372 2553 
Q 372 3047 722 3315 
Q 1072 3584 1716 3584 
Q 2034 3584 2315 3537 
Q 2597 3491 2834 3397 
z
" transform="scale(0.015625)"/>
      <path id="DejaVuSans-63" d="M 3122 3366 
L 3122 2828 
Q 2878 2963 2633 3030 
Q 2388 3097 2138 3097 
Q 1578 3097 1268 2742 
Q 959 2388 959 1747 
Q 959 1106 1268 751 
Q 1578 397 2138 397 
Q 2388 397 2633 464 
Q 2878 531 3122 666 
L 3122 134 
Q 2881 22 2623 -34 
Q 2366 -91 2075 -91 
Q 1284 -91 818 406 
Q 353 903 353 1747 
Q 353 2603 823 3093 
Q 1294 3584 2113 3584 
Q 2378 3584 2631 3529 
Q 2884 3475 3122 3366 
z
" transform="scale(0.015625)"/>
      <path id="DejaVuSans-75" d="M 544 1381 
L 544 3500 
L 1119 3500 
L 1119 1403 
Q 1119 906 1312 657 
Q 1506 409 1894 409 
Q 2359 409 2629 706 
Q 2900 1003 2900 1516 
L 2900 3500 
L 3475 3500 
L 3475 0 
L 2900 0 
L 2900 538 
Q 2691 219 2414 64 
Q 2138 -91 1772 -91 
Q 1169 -91 856 284 
Q 544 659 544 1381 
z
M 1991 3584 
L 1991 3584 
z
" transform="scale(0.015625)"/>
      <path id="DejaVuSans-68" d="M 3513 2113 
L 3513 0 
L 2938 0 
L 2938 2094 
Q 2938 2591 2744 2837 
Q 2550 3084 2163 3084 
Q 1697 3084 1428 2787 
Q 1159 2491 1159 1978 
L 1159 0 
L 581 0 
L 581 4863 
L 1159 4863 
L 1159 2956 
Q 1366 3272 1645 3428 
Q 1925 3584 2291 3584 
Q 2894 3584 3203 3211 
Q 3513 2838 3513 2113 
z
" transform="scale(0.015625)"/>
      <path id="DejaVuSans-72" d="M 2631 2963 
Q 2534 3019 2420 3045 
Q 2306 3072 2169 3072 
Q 1681 3072 1420 2755 
Q 1159 2438 1159 1844 
L 1159 0 
L 581 0 
L 581 3500 
L 1159 3500 
L 1159 2956 
Q 1341 3275 1631 3429 
Q 1922 3584 2338 3584 
Q 2397 3584 2469 3576 
Q 2541 3569 2628 3553 
L 2631 2963 
z
" transform="scale(0.015625)"/>
      <path id="DejaVuSans-65" d="M 3597 1894 
L 3597 1613 
L 953 1613 
Q 991 1019 1311 708 
Q 1631 397 2203 397 
Q 2534 397 2845 478 
Q 3156 559 3463 722 
L 3463 178 
Q 3153 47 2828 -22 
Q 2503 -91 2169 -91 
Q 1331 -91 842 396 
Q 353 884 353 1716 
Q 353 2575 817 3079 
Q 1281 3584 2069 3584 
Q 2775 3584 3186 3129 
Q 3597 2675 3597 1894 
z
M 3022 2063 
Q 3016 2534 2758 2815 
Q 2500 3097 2075 3097 
Q 1594 3097 1305 2825 
Q 1016 2553 972 2059 
L 3022 2063 
z
" transform="scale(0.015625)"/>
      <path id="DejaVuSans-34" d="M 2419 4116 
L 825 1625 
L 2419 1625 
L 2419 4116 
z
M 2253 4666 
L 3047 4666 
L 3047 1625 
L 3713 1625 
L 3713 1100 
L 3047 1100 
L 3047 0 
L 2419 0 
L 2419 1100 
L 313 1100 
L 313 1709 
L 2253 4666 
z
" transform="scale(0.015625)"/>
     </defs>
     <use xlink:href="#DejaVuSans-44"/>
     <use xlink:href="#DejaVuSans-69" x="77.001953"/>
     <use xlink:href="#DejaVuSans-73" x="104.785156"/>
     <use xlink:href="#DejaVuSans-63" x="156.884766"/>
     <use xlink:href="#DejaVuSans-6f" x="211.865234"/>
     <use xlink:href="#DejaVuSans-6e" x="273.046875"/>
     <use xlink:href="#DejaVuSans-74" x="336.425781"/>
     <use xlink:href="#DejaVuSans-69" x="375.634766"/>
     <use xlink:href="#DejaVuSans-6e" x="403.417969"/>
     <use xlink:href="#DejaVuSans-75" x="466.796875"/>
     <use xlink:href="#DejaVuSans-69" x="530.175781"/>
     <use xlink:href="#DejaVuSans-74" x="557.958984"/>
     <use xlink:href="#DejaVuSans-79" x="597.167969"/>
     <use xlink:href="#DejaVuSans-20" x="656.347656"/>
     <use xlink:href="#DejaVuSans-61" x="688.134766"/>
     <use xlink:href="#DejaVuSans-74" x="749.414062"/>
     <use xlink:href="#DejaVuSans-20" x="788.623047"/>
     <use xlink:href="#DejaVuSans-74" x="820.410156"/>
     <use xlink:href="#DejaVuSans-68" x="859.619141"/>
     <use xlink:href="#DejaVuSans-72" x="922.998047"/>
     <use xlink:href="#DejaVuSans-65" x="961.861328"/>
     <use xlink:href="#DejaVuSans-73" x="1023.384766"/>
     <use xlink:href="#DejaVuSans-68" x="1075.484375"/>
     <use xlink:href="#DejaVuSans-6f" x="1138.863281"/>
     <use xlink:href="#DejaVuSans-6c" x="1200.044922"/>
     <use xlink:href="#DejaVuSans-64" x="1227.828125"/>
     <use xlink:href="#DejaVuSans-20" x="1291.304688"/>
     <use xlink:href="#DejaVuSans-3d" x="1323.091797"/>
     <use xlink:href="#DejaVuSans-20" x="1406.880859"/>
     <use xlink:href="#DejaVuSans-30" x="1438.667969"/>
     <use xlink:href="#DejaVuSans-2e" x="1502.291016"/>
     <use xlink:href="#DejaVuSans-34" x="1534.078125"/>
     <use xlink:href="#DejaVuSans-31" x="1597.701172"/>
    </g>
   </g>
   <g id="legend_1">
    <g id="line2d_33">
     <path d="M 74.013125 58.992125 
L 86.013125 58.992125 
L 98.013125 58.992125 
" style="fill: none; stroke: #000000; stroke-width: 1.5; stroke-linecap: round"/>
    </g>
    <g id="text_19">
     <!-- model fit -->
     <g style="fill: #262626" transform="translate(107.613125 63.192125) scale(0.12 -0.12)">
      <defs>
       <path id="DejaVuSans-6d" d="M 3328 2828 
Q 3544 3216 3844 3400 
Q 4144 3584 4550 3584 
Q 5097 3584 5394 3201 
Q 5691 2819 5691 2113 
L 5691 0 
L 5113 0 
L 5113 2094 
Q 5113 2597 4934 2840 
Q 4756 3084 4391 3084 
Q 3944 3084 3684 2787 
Q 3425 2491 3425 1978 
L 3425 0 
L 2847 0 
L 2847 2094 
Q 2847 2600 2669 2842 
Q 2491 3084 2119 3084 
Q 1678 3084 1418 2786 
Q 1159 2488 1159 1978 
L 1159 0 
L 581 0 
L 581 3500 
L 1159 3500 
L 1159 2956 
Q 1356 3278 1631 3431 
Q 1906 3584 2284 3584 
Q 2666 3584 2933 3390 
Q 3200 3197 3328 2828 
z
" transform="scale(0.015625)"/>
       <path id="DejaVuSans-66" d="M 2375 4863 
L 2375 4384 
L 1825 4384 
Q 1516 4384 1395 4259 
Q 1275 4134 1275 3809 
L 1275 3500 
L 2222 3500 
L 2222 3053 
L 1275 3053 
L 1275 0 
L 697 0 
L 697 3053 
L 147 3053 
L 147 3500 
L 697 3500 
L 697 3744 
Q 697 4328 969 4595 
Q 1241 4863 1831 4863 
L 2375 4863 
z
" transform="scale(0.015625)"/>
      </defs>
      <use xlink:href="#DejaVuSans-6d"/>
      <use xlink:href="#DejaVuSans-6f" x="97.412109"/>
      <use xlink:href="#DejaVuSans-64" x="158.59375"/>
      <use xlink:href="#DejaVuSans-65" x="222.070312"/>
      <use xlink:href="#DejaVuSans-6c" x="283.59375"/>
      <use xlink:href="#DejaVuSans-20" x="311.376953"/>
      <use xlink:href="#DejaVuSans-66" x="343.164062"/>
      <use xlink:href="#DejaVuSans-69" x="378.369141"/>
      <use xlink:href="#DejaVuSans-74" x="406.152344"/>
     </g>
    </g>
    <g id="line2d_34">
     <path d="M 74.013125 76.605875 
L 86.013125 76.605875 
L 98.013125 76.605875 
" style="fill: none; stroke: #ff0000; stroke-width: 3; stroke-linecap: round"/>
    </g>
    <g id="text_20">
     <!-- treatment threshold -->
     <g style="fill: #262626" transform="translate(107.613125 80.805875) scale(0.12 -0.12)">
      <use xlink:href="#DejaVuSans-74"/>
      <use xlink:href="#DejaVuSans-72" x="39.208984"/>
      <use xlink:href="#DejaVuSans-65" x="78.072266"/>
      <use xlink:href="#DejaVuSans-61" x="139.595703"/>
      <use xlink:href="#DejaVuSans-74" x="200.875"/>
      <use xlink:href="#DejaVuSans-6d" x="240.083984"/>
      <use xlink:href="#DejaVuSans-65" x="337.496094"/>
      <use xlink:href="#DejaVuSans-6e" x="399.019531"/>
      <use xlink:href="#DejaVuSans-74" x="462.398438"/>
      <use xlink:href="#DejaVuSans-20" x="501.607422"/>
      <use xlink:href="#DejaVuSans-74" x="533.394531"/>
      <use xlink:href="#DejaVuSans-68" x="572.603516"/>
      <use xlink:href="#DejaVuSans-72" x="635.982422"/>
      <use xlink:href="#DejaVuSans-65" x="674.845703"/>
      <use xlink:href="#DejaVuSans-73" x="736.369141"/>
      <use xlink:href="#DejaVuSans-68" x="788.46875"/>
      <use xlink:href="#DejaVuSans-6f" x="851.847656"/>
      <use xlink:href="#DejaVuSans-6c" x="913.029297"/>
      <use xlink:href="#DejaVuSans-64" x="940.8125"/>
     </g>
    </g>
   </g>
  </g>
 </g>
 <defs>
  <clipPath id="p90e2c0866d">
   <rect x="63.213125" y="43.274" width="455.331743" height="267.958957"/>
  </clipPath>
 </defs>
</svg>
