<?xml version="1.0" encoding="utf-8" standalone="no"?>
<!DOCTYPE svg PUBLIC "-//W3C//DTD SVG 1.1//EN"
  "http://www.w3.org/Graphics/SVG/1.1/DTD/svg11.dtd">
<svg xmlns:xlink="http://www.w3.org/1999/xlink" width="526.79952pt" height="353.99952pt" viewBox="0 0 526.79952 353.99952" xmlns="http://www.w3.org/2000/svg" version="1.1">
 <metadata>
  <rdf:RDF xmlns:dc="http://purl.org/dc/elements/1.1/" xmlns:cc="http://creativecommons.org/ns#" xmlns:rdf="http://www.w3.org/1999/02/22-rdf-syntax-ns#">
   <cc:Work>
    <dc:type rdf:resource="http://purl.org/dc/dcmitype/StillImage"/>
    <dc:date>2022-10-29T15:27:50.188815</dc:date>
    <dc:format>image/svg+xml</dc:format>
    <dc:creator>
     <cc:Agent>
      <dc:title>Matplotlib v3.6.1, https://matplotlib.org/</dc:title>
     </cc:Agent>
    </dc:creator>
   </cc:Work>
  </rdf:RDF>
 </metadata>
 <defs>
  <style type="text/css">*{stroke-linejoin: round; stroke-linecap: butt}</style>
 </defs>
 <g id="figure_1">
  <g id="patch_1">
   <path d="M 0 353.99952 
L 526.79952 353.99952 
L 526.79952 0 
L 0 0 
z
" style="fill: #ffffff"/>
  </g>
  <g id="axes_1">
   <g id="patch_2">
    <path d="M 51.433725 311.304146 
L 519.647357 311.304146 
L 519.647357 7.128812 
L 51.433725 7.128812 
z
" style="fill: #eeeeee"/>
   </g>
   <g id="matplotlib.axis_1">
    <g id="xtick_1">
     <g id="line2d_1">
      <path d="M 108.186893 311.304146 
L 108.186893 7.128812 
" clip-path="url(#pd3b69cb4cd)" style="fill: none; stroke: #ffffff; stroke-width: 0.8; stroke-linecap: round"/>
     </g>
     <g id="line2d_2"/>
     <g id="text_1">
      <!-- 0.0 -->
      <g style="fill: #262626" transform="translate(97.054705 325.441958) scale(0.14 -0.14)">
       <defs>
        <path id="DejaVuSans-30" d="M 2034 4250 
Q 1547 4250 1301 3770 
Q 1056 3291 1056 2328 
Q 1056 1369 1301 889 
Q 1547 409 2034 409 
Q 2525 409 2770 889 
Q 3016 1369 3016 2328 
Q 3016 3291 2770 3770 
Q 2525 4250 2034 4250 
z
M 2034 4750 
Q 2819 4750 3233 4129 
Q 3647 3509 3647 2328 
Q 3647 1150 3233 529 
Q 2819 -91 2034 -91 
Q 1250 -91 836 529 
Q 422 1150 422 2328 
Q 422 3509 836 4129 
Q 1250 4750 2034 4750 
z
" transform="scale(0.015625)"/>
        <path id="DejaVuSans-2e" d="M 684 794 
L 1344 794 
L 1344 0 
L 684 0 
L 684 794 
z
" transform="scale(0.015625)"/>
       </defs>
       <use xlink:href="#DejaVuSans-30"/>
       <use xlink:href="#DejaVuSans-2e" x="63.623047"/>
       <use xlink:href="#DejaVuSans-30" x="95.410156"/>
      </g>
     </g>
    </g>
    <g id="xtick_2">
     <g id="line2d_3">
      <path d="M 179.128352 311.304146 
L 179.128352 7.128812 
" clip-path="url(#pd3b69cb4cd)" style="fill: none; stroke: #ffffff; stroke-width: 0.8; stroke-linecap: round"/>
     </g>
     <g id="line2d_4"/>
     <g id="text_2">
      <!-- 0.2 -->
      <g style="fill: #262626" transform="translate(167.996165 325.441958) scale(0.14 -0.14)">
       <defs>
        <path id="DejaVuSans-32" d="M 1228 531 
L 3431 531 
L 3431 0 
L 469 0 
L 469 531 
Q 828 903 1448 1529 
Q 2069 2156 2228 2338 
Q 2531 2678 2651 2914 
Q 2772 3150 2772 3378 
Q 2772 3750 2511 3984 
Q 2250 4219 1831 4219 
Q 1534 4219 1204 4116 
Q 875 4013 500 3803 
L 500 4441 
Q 881 4594 1212 4672 
Q 1544 4750 1819 4750 
Q 2544 4750 2975 4387 
Q 3406 4025 3406 3419 
Q 3406 3131 3298 2873 
Q 3191 2616 2906 2266 
Q 2828 2175 2409 1742 
Q 1991 1309 1228 531 
z
" transform="scale(0.015625)"/>
       </defs>
       <use xlink:href="#DejaVuSans-30"/>
       <use xlink:href="#DejaVuSans-2e" x="63.623047"/>
       <use xlink:href="#DejaVuSans-32" x="95.410156"/>
      </g>
     </g>
    </g>
    <g id="xtick_3">
     <g id="line2d_5">
      <path d="M 250.069812 311.304146 
L 250.069812 7.128812 
" clip-path="url(#pd3b69cb4cd)" style="fill: none; stroke: #ffffff; stroke-width: 0.8; stroke-linecap: round"/>
     </g>
     <g id="line2d_6"/>
     <g id="text_3">
      <!-- 0.4 -->
      <g style="fill: #262626" transform="translate(238.937624 325.441958) scale(0.14 -0.14)">
       <defs>
        <path id="DejaVuSans-34" d="M 2419 4116 
L 825 1625 
L 2419 1625 
L 2419 4116 
z
M 2253 4666 
L 3047 4666 
L 3047 1625 
L 3713 1625 
L 3713 1100 
L 3047 1100 
L 3047 0 
L 2419 0 
L 2419 1100 
L 313 1100 
L 313 1709 
L 2253 4666 
z
" transform="scale(0.015625)"/>
       </defs>
       <use xlink:href="#DejaVuSans-30"/>
       <use xlink:href="#DejaVuSans-2e" x="63.623047"/>
       <use xlink:href="#DejaVuSans-34" x="95.410156"/>
      </g>
     </g>
    </g>
    <g id="xtick_4">
     <g id="line2d_7">
      <path d="M 321.011271 311.304146 
L 321.011271 7.128812 
" clip-path="url(#pd3b69cb4cd)" style="fill: none; stroke: #ffffff; stroke-width: 0.8; stroke-linecap: round"/>
     </g>
     <g id="line2d_8"/>
     <g id="text_4">
      <!-- 0.6 -->
      <g style="fill: #262626" transform="translate(309.879083 325.441958) scale(0.14 -0.14)">
       <defs>
        <path id="DejaVuSans-36" d="M 2113 2584 
Q 1688 2584 1439 2293 
Q 1191 2003 1191 1497 
Q 1191 994 1439 701 
Q 1688 409 2113 409 
Q 2538 409 2786 701 
Q 3034 994 3034 1497 
Q 3034 2003 2786 2293 
Q 2538 2584 2113 2584 
z
M 3366 4563 
L 3366 3988 
Q 3128 4100 2886 4159 
Q 2644 4219 2406 4219 
Q 1781 4219 1451 3797 
Q 1122 3375 1075 2522 
Q 1259 2794 1537 2939 
Q 1816 3084 2150 3084 
Q 2853 3084 3261 2657 
Q 3669 2231 3669 1497 
Q 3669 778 3244 343 
Q 2819 -91 2113 -91 
Q 1303 -91 875 529 
Q 447 1150 447 2328 
Q 447 3434 972 4092 
Q 1497 4750 2381 4750 
Q 2619 4750 2861 4703 
Q 3103 4656 3366 4563 
z
" transform="scale(0.015625)"/>
       </defs>
       <use xlink:href="#DejaVuSans-30"/>
       <use xlink:href="#DejaVuSans-2e" x="63.623047"/>
       <use xlink:href="#DejaVuSans-36" x="95.410156"/>
      </g>
     </g>
    </g>
    <g id="xtick_5">
     <g id="line2d_9">
      <path d="M 391.95273 311.304146 
L 391.95273 7.128812 
" clip-path="url(#pd3b69cb4cd)" style="fill: none; stroke: #ffffff; stroke-width: 0.8; stroke-linecap: round"/>
     </g>
     <g id="line2d_10"/>
     <g id="text_5">
      <!-- 0.8 -->
      <g style="fill: #262626" transform="translate(380.820543 325.441958) scale(0.14 -0.14)">
       <defs>
        <path id="DejaVuSans-38" d="M 2034 2216 
Q 1584 2216 1326 1975 
Q 1069 1734 1069 1313 
Q 1069 891 1326 650 
Q 1584 409 2034 409 
Q 2484 409 2743 651 
Q 3003 894 3003 1313 
Q 3003 1734 2745 1975 
Q 2488 2216 2034 2216 
z
M 1403 2484 
Q 997 2584 770 2862 
Q 544 3141 544 3541 
Q 544 4100 942 4425 
Q 1341 4750 2034 4750 
Q 2731 4750 3128 4425 
Q 3525 4100 3525 3541 
Q 3525 3141 3298 2862 
Q 3072 2584 2669 2484 
Q 3125 2378 3379 2068 
Q 3634 1759 3634 1313 
Q 3634 634 3220 271 
Q 2806 -91 2034 -91 
Q 1263 -91 848 271 
Q 434 634 434 1313 
Q 434 1759 690 2068 
Q 947 2378 1403 2484 
z
M 1172 3481 
Q 1172 3119 1398 2916 
Q 1625 2713 2034 2713 
Q 2441 2713 2670 2916 
Q 2900 3119 2900 3481 
Q 2900 3844 2670 4047 
Q 2441 4250 2034 4250 
Q 1625 4250 1398 4047 
Q 1172 3844 1172 3481 
z
" transform="scale(0.015625)"/>
       </defs>
       <use xlink:href="#DejaVuSans-30"/>
       <use xlink:href="#DejaVuSans-2e" x="63.623047"/>
       <use xlink:href="#DejaVuSans-38" x="95.410156"/>
      </g>
     </g>
    </g>
    <g id="xtick_6">
     <g id="line2d_11">
      <path d="M 462.89419 311.304146 
L 462.89419 7.128812 
" clip-path="url(#pd3b69cb4cd)" style="fill: none; stroke: #ffffff; stroke-width: 0.8; stroke-linecap: round"/>
     </g>
     <g id="line2d_12"/>
     <g id="text_6">
      <!-- 1.0 -->
      <g style="fill: #262626" transform="translate(451.762002 325.441958) scale(0.14 -0.14)">
       <defs>
        <path id="DejaVuSans-31" d="M 794 531 
L 1825 531 
L 1825 4091 
L 703 3866 
L 703 4441 
L 1819 4666 
L 2450 4666 
L 2450 531 
L 3481 531 
L 3481 0 
L 794 0 
L 794 531 
z
" transform="scale(0.015625)"/>
       </defs>
       <use xlink:href="#DejaVuSans-31"/>
       <use xlink:href="#DejaVuSans-2e" x="63.623047"/>
       <use xlink:href="#DejaVuSans-30" x="95.410156"/>
      </g>
     </g>
    </g>
    <g id="text_7">
     <!-- t -->
     <g style="fill: #262626" transform="translate(282.600307 343.751177) scale(0.15 -0.15)">
      <defs>
       <path id="DejaVuSans-74" d="M 1172 4494 
L 1172 3500 
L 2356 3500 
L 2356 3053 
L 1172 3053 
L 1172 1153 
Q 1172 725 1289 603 
Q 1406 481 1766 481 
L 2356 481 
L 2356 0 
L 1766 0 
Q 1100 0 847 248 
Q 594 497 594 1153 
L 594 3053 
L 172 3053 
L 172 3500 
L 594 3500 
L 594 4494 
L 1172 4494 
z
" transform="scale(0.015625)"/>
      </defs>
      <use xlink:href="#DejaVuSans-74"/>
     </g>
    </g>
   </g>
   <g id="matplotlib.axis_2">
    <g id="ytick_1">
     <g id="line2d_13">
      <path d="M 51.433725 310.749694 
L 519.647357 310.749694 
" clip-path="url(#pd3b69cb4cd)" style="fill: none; stroke: #ffffff; stroke-width: 0.8; stroke-linecap: round"/>
     </g>
     <g id="line2d_14"/>
     <g id="text_8">
      <!-- 0.5 -->
      <g style="fill: #262626" transform="translate(25.66935 316.068601) scale(0.14 -0.14)">
       <defs>
        <path id="DejaVuSans-35" d="M 691 4666 
L 3169 4666 
L 3169 4134 
L 1269 4134 
L 1269 2991 
Q 1406 3038 1543 3061 
Q 1681 3084 1819 3084 
Q 2600 3084 3056 2656 
Q 3513 2228 3513 1497 
Q 3513 744 3044 326 
Q 2575 -91 1722 -91 
Q 1428 -91 1123 -41 
Q 819 9 494 109 
L 494 744 
Q 775 591 1075 516 
Q 1375 441 1709 441 
Q 2250 441 2565 725 
Q 2881 1009 2881 1497 
Q 2881 1984 2565 2268 
Q 2250 2553 1709 2553 
Q 1456 2553 1204 2497 
Q 953 2441 691 2322 
L 691 4666 
z
" transform="scale(0.015625)"/>
       </defs>
       <use xlink:href="#DejaVuSans-30"/>
       <use xlink:href="#DejaVuSans-2e" x="63.623047"/>
       <use xlink:href="#DejaVuSans-35" x="95.410156"/>
      </g>
     </g>
    </g>
    <g id="ytick_2">
     <g id="line2d_15">
      <path d="M 51.433725 255.441067 
L 519.647357 255.441067 
" clip-path="url(#pd3b69cb4cd)" style="fill: none; stroke: #ffffff; stroke-width: 0.8; stroke-linecap: round"/>
     </g>
     <g id="line2d_16"/>
     <g id="text_9">
      <!-- 1.0 -->
      <g style="fill: #262626" transform="translate(25.66935 260.759973) scale(0.14 -0.14)">
       <use xlink:href="#DejaVuSans-31"/>
       <use xlink:href="#DejaVuSans-2e" x="63.623047"/>
       <use xlink:href="#DejaVuSans-30" x="95.410156"/>
      </g>
     </g>
    </g>
    <g id="ytick_3">
     <g id="line2d_17">
      <path d="M 51.433725 200.132439 
L 519.647357 200.132439 
" clip-path="url(#pd3b69cb4cd)" style="fill: none; stroke: #ffffff; stroke-width: 0.8; stroke-linecap: round"/>
     </g>
     <g id="line2d_18"/>
     <g id="text_10">
      <!-- 1.5 -->
      <g style="fill: #262626" transform="translate(25.66935 205.451345) scale(0.14 -0.14)">
       <use xlink:href="#DejaVuSans-31"/>
       <use xlink:href="#DejaVuSans-2e" x="63.623047"/>
       <use xlink:href="#DejaVuSans-35" x="95.410156"/>
      </g>
     </g>
    </g>
    <g id="ytick_4">
     <g id="line2d_19">
      <path d="M 51.433725 144.823811 
L 519.647357 144.823811 
" clip-path="url(#pd3b69cb4cd)" style="fill: none; stroke: #ffffff; stroke-width: 0.8; stroke-linecap: round"/>
     </g>
     <g id="line2d_20"/>
     <g id="text_11">
      <!-- 2.0 -->
      <g style="fill: #262626" transform="translate(25.66935 150.142718) scale(0.14 -0.14)">
       <use xlink:href="#DejaVuSans-32"/>
       <use xlink:href="#DejaVuSans-2e" x="63.623047"/>
       <use xlink:href="#DejaVuSans-30" x="95.410156"/>
      </g>
     </g>
    </g>
    <g id="ytick_5">
     <g id="line2d_21">
      <path d="M 51.433725 89.515184 
L 519.647357 89.515184 
" clip-path="url(#pd3b69cb4cd)" style="fill: none; stroke: #ffffff; stroke-width: 0.8; stroke-linecap: round"/>
     </g>
     <g id="line2d_22"/>
     <g id="text_12">
      <!-- 2.5 -->
      <g style="fill: #262626" transform="translate(25.66935 94.83409) scale(0.14 -0.14)">
       <use xlink:href="#DejaVuSans-32"/>
       <use xlink:href="#DejaVuSans-2e" x="63.623047"/>
       <use xlink:href="#DejaVuSans-35" x="95.410156"/>
      </g>
     </g>
    </g>
    <g id="ytick_6">
     <g id="line2d_23">
      <path d="M 51.433725 34.206556 
L 519.647357 34.206556 
" clip-path="url(#pd3b69cb4cd)" style="fill: none; stroke: #ffffff; stroke-width: 0.8; stroke-linecap: round"/>
     </g>
     <g id="line2d_24"/>
     <g id="text_13">
      <!-- 3.0 -->
      <g style="fill: #262626" transform="translate(25.66935 39.525462) scale(0.14 -0.14)">
       <defs>
        <path id="DejaVuSans-33" d="M 2597 2516 
Q 3050 2419 3304 2112 
Q 3559 1806 3559 1356 
Q 3559 666 3084 287 
Q 2609 -91 1734 -91 
Q 1441 -91 1130 -33 
Q 819 25 488 141 
L 488 750 
Q 750 597 1062 519 
Q 1375 441 1716 441 
Q 2309 441 2620 675 
Q 2931 909 2931 1356 
Q 2931 1769 2642 2001 
Q 2353 2234 1838 2234 
L 1294 2234 
L 1294 2753 
L 1863 2753 
Q 2328 2753 2575 2939 
Q 2822 3125 2822 3475 
Q 2822 3834 2567 4026 
Q 2313 4219 1838 4219 
Q 1578 4219 1281 4162 
Q 984 4106 628 3988 
L 628 4550 
Q 988 4650 1302 4700 
Q 1616 4750 1894 4750 
Q 2613 4750 3031 4423 
Q 3450 4097 3450 3541 
Q 3450 3153 3228 2886 
Q 3006 2619 2597 2516 
z
" transform="scale(0.015625)"/>
       </defs>
       <use xlink:href="#DejaVuSans-33"/>
       <use xlink:href="#DejaVuSans-2e" x="63.623047"/>
       <use xlink:href="#DejaVuSans-30" x="95.410156"/>
      </g>
     </g>
    </g>
    <g id="text_14">
     <!-- y -->
     <g style="fill: #262626" transform="translate(18.549819 163.655541) rotate(-90) scale(0.15 -0.15)">
      <defs>
       <path id="DejaVuSans-79" d="M 2059 -325 
Q 1816 -950 1584 -1140 
Q 1353 -1331 966 -1331 
L 506 -1331 
L 506 -850 
L 844 -850 
Q 1081 -850 1212 -737 
Q 1344 -625 1503 -206 
L 1606 56 
L 191 3500 
L 800 3500 
L 1894 763 
L 2988 3500 
L 3597 3500 
L 2059 -325 
z
" transform="scale(0.015625)"/>
      </defs>
      <use xlink:href="#DejaVuSans-79"/>
     </g>
    </g>
   </g>
   <g id="PolyCollection_1">
    <path d="M 108.332892 297.477994 
L 108.040894 297.477994 
L 108.021785 296.379139 
L 108.015482 295.280283 
L 108.005032 294.181428 
L 107.973332 293.082572 
L 107.915948 291.983717 
L 107.846092 290.884861 
L 107.79033 289.786006 
L 107.774018 288.68715 
L 107.801817 287.588295 
L 107.848145 286.489439 
L 107.867177 285.390584 
L 107.814143 284.291728 
L 107.661505 283.192873 
L 107.403318 282.094017 
L 107.052127 280.995162 
L 106.631881 279.896306 
L 106.168383 278.797451 
L 105.683882 277.698595 
L 105.195978 276.59974 
L 104.705837 275.500884 
L 104.176743 274.402029 
L 103.535109 273.303173 
L 102.707705 272.204318 
L 101.663772 271.105462 
L 100.430554 270.006607 
L 99.073853 268.907752 
L 97.648148 267.808896 
L 96.155646 266.710041 
L 94.565726 265.611185 
L 92.866123 264.51233 
L 91.061405 263.413474 
L 89.128029 262.314619 
L 87.030065 261.215763 
L 84.803032 260.116908 
L 82.572906 259.018052 
L 80.464236 257.919197 
L 78.534362 256.820341 
L 76.814675 255.721486 
L 75.352543 254.62263 
L 74.183544 253.523775 
L 73.325495 252.424919 
L 72.823436 251.326064 
L 72.716163 250.227208 
L 72.91723 249.128353 
L 73.22368 248.029497 
L 73.528105 246.930642 
L 73.984479 245.831786 
L 74.896003 244.732931 
L 76.436019 243.634075 
L 78.495741 242.53522 
L 80.779896 241.436364 
L 83.014032 240.337509 
L 85.075259 239.238653 
L 86.991446 238.139798 
L 88.864478 237.040942 
L 90.778566 235.942087 
L 92.738812 234.843232 
L 94.67622 233.744376 
L 96.504842 232.645521 
L 98.162418 231.546665 
L 99.596699 230.44781 
L 100.74858 229.348954 
L 101.593024 228.250099 
L 102.199388 227.151243 
L 102.721956 226.052388 
L 103.312183 224.953532 
L 104.030533 223.854677 
L 104.826596 222.755821 
L 105.593084 221.656966 
L 106.242036 220.55811 
L 106.739024 219.459255 
L 107.086141 218.360399 
L 107.302478 217.261544 
L 107.427684 216.162688 
L 107.519099 215.063833 
L 107.6232 213.964977 
L 107.74982 212.866122 
L 107.878319 211.767266 
L 107.984797 210.668411 
L 108.060716 209.569555 
L 108.11129 208.4707 
L 108.144628 207.371844 
L 108.165486 206.272989 
L 108.175897 205.174133 
L 108.177147 204.075278 
L 108.170504 202.976422 
L 108.158452 201.877567 
L 108.146309 200.778711 
L 108.140882 199.679856 
L 108.145624 198.581001 
L 108.157604 197.482145 
L 108.170339 196.38329 
L 108.178949 195.284434 
L 108.181903 194.185579 
L 108.179161 193.086723 
L 108.170751 191.987868 
L 108.158103 190.889012 
L 108.145975 189.790157 
L 108.140879 188.691301 
L 108.232906 188.691301 
L 108.232906 188.691301 
L 108.22781 189.790157 
L 108.215682 190.889012 
L 108.203034 191.987868 
L 108.194625 193.086723 
L 108.191883 194.185579 
L 108.194837 195.284434 
L 108.203446 196.38329 
L 108.216182 197.482145 
L 108.228162 198.581001 
L 108.232903 199.679856 
L 108.227477 200.778711 
L 108.215334 201.877567 
L 108.203282 202.976422 
L 108.196639 204.075278 
L 108.197888 205.174133 
L 108.2083 206.272989 
L 108.229158 207.371844 
L 108.262496 208.4707 
L 108.31307 209.569555 
L 108.388988 210.668411 
L 108.495467 211.767266 
L 108.623966 212.866122 
L 108.750585 213.964977 
L 108.854687 215.063833 
L 108.946101 216.162688 
L 109.071308 217.261544 
L 109.287645 218.360399 
L 109.634762 219.459255 
L 110.13175 220.55811 
L 110.780701 221.656966 
L 111.54719 222.755821 
L 112.343253 223.854677 
L 113.061603 224.953532 
L 113.651829 226.052388 
L 114.174398 227.151243 
L 114.780762 228.250099 
L 115.625206 229.348954 
L 116.777087 230.44781 
L 118.211368 231.546665 
L 119.868944 232.645521 
L 121.697566 233.744376 
L 123.634974 234.843232 
L 125.595219 235.942087 
L 127.509307 237.040942 
L 129.382339 238.139798 
L 131.298527 239.238653 
L 133.359754 240.337509 
L 135.593889 241.436364 
L 137.878045 242.53522 
L 139.937767 243.634075 
L 141.477782 244.732931 
L 142.389307 245.831786 
L 142.845681 246.930642 
L 143.150106 248.029497 
L 143.456555 249.128353 
L 143.657623 250.227208 
L 143.55035 251.326064 
L 143.048291 252.424919 
L 142.190242 253.523775 
L 141.021243 254.62263 
L 139.559111 255.721486 
L 137.839424 256.820341 
L 135.90955 257.919197 
L 133.80088 259.018052 
L 131.570754 260.116908 
L 129.343721 261.215763 
L 127.245757 262.314619 
L 125.312381 263.413474 
L 123.507662 264.51233 
L 121.80806 265.611185 
L 120.21814 266.710041 
L 118.725638 267.808896 
L 117.299933 268.907752 
L 115.943232 270.006607 
L 114.710014 271.105462 
L 113.666081 272.204318 
L 112.838677 273.303173 
L 112.197042 274.402029 
L 111.667949 275.500884 
L 111.177808 276.59974 
L 110.689904 277.698595 
L 110.205403 278.797451 
L 109.741905 279.896306 
L 109.321658 280.995162 
L 108.970467 282.094017 
L 108.712281 283.192873 
L 108.559643 284.291728 
L 108.506609 285.390584 
L 108.525641 286.489439 
L 108.571968 287.588295 
L 108.599768 288.68715 
L 108.583456 289.786006 
L 108.527694 290.884861 
L 108.457837 291.983717 
L 108.400453 293.082572 
L 108.368754 294.181428 
L 108.358303 295.280283 
L 108.352001 296.379139 
L 108.332892 297.477994 
z
" clip-path="url(#pd3b69cb4cd)" style="fill: #2a2eec; fill-opacity: 0.5"/>
   </g>
   <g id="PolyCollection_2">
    <path d="M 462.981712 180.393579 
L 462.806667 180.393579 
L 462.768894 179.483114 
L 462.71415 178.57265 
L 462.639691 177.662186 
L 462.549066 176.751722 
L 462.450814 175.841258 
L 462.352633 174.930794 
L 462.255641 174.020329 
L 462.153941 173.109865 
L 462.039958 172.199401 
L 461.909978 171.288937 
L 461.763393 170.378473 
L 461.595565 169.468008 
L 461.391904 168.557544 
L 461.1308 167.64708 
L 460.794607 166.736616 
L 460.379792 165.826152 
L 459.897905 164.915688 
L 459.366984 164.005223 
L 458.800444 163.094759 
L 458.20106 162.184295 
L 457.561965 161.273831 
L 456.87108 160.363367 
L 456.114861 159.452902 
L 455.280123 158.542438 
L 454.355564 157.631974 
L 453.33559 156.72151 
L 452.226226 155.811046 
L 451.047461 154.900582 
L 449.826147 153.990117 
L 448.581418 153.079653 
L 447.311495 152.169189 
L 445.990077 151.258725 
L 444.576877 150.348261 
L 443.042249 149.437797 
L 441.395737 148.527332 
L 439.699596 147.616868 
L 438.054505 146.706404 
L 436.562382 145.79594 
L 435.283566 144.885476 
L 434.208525 143.975011 
L 433.261582 143.064547 
L 432.340438 142.154083 
L 431.370906 141.243619 
L 430.344458 140.333155 
L 429.322521 139.422691 
L 428.415506 138.512226 
L 427.749227 137.601762 
L 427.42346 136.691298 
L 427.471084 135.780834 
L 427.840568 134.87037 
L 428.424076 133.959905 
L 429.124628 133.049441 
L 429.918987 132.138977 
L 430.865777 131.228513 
L 432.047966 130.318049 
L 433.495028 129.407585 
L 435.147898 128.49712 
L 436.890879 127.586656 
L 438.619322 126.676192 
L 440.290374 125.765728 
L 441.925264 124.855264 
L 443.570068 123.9448 
L 445.248444 123.034335 
L 446.938621 122.123871 
L 448.58377 121.213407 
L 450.121694 120.302943 
L 451.511673 119.392479 
L 452.742641 118.482014 
L 453.821879 117.57155 
L 454.759219 116.661086 
L 455.564255 115.750622 
L 456.257113 114.840158 
L 456.875464 113.929694 
L 457.464746 113.019229 
L 458.059053 112.108765 
L 458.669504 111.198301 
L 459.285791 110.287837 
L 459.884169 109.377373 
L 460.436179 108.466908 
L 460.917957 107.556444 
L 461.318363 106.64598 
L 461.640708 105.735516 
L 461.896964 104.825052 
L 462.100462 103.914588 
L 462.262782 103.004123 
L 462.394039 102.093659 
L 462.502675 101.183195 
L 462.593988 100.272731 
L 462.669799 99.362267 
L 462.730388 98.451802 
L 462.776861 97.541338 
L 462.811615 96.630874 
L 462.83693 95.72041 
L 462.853683 94.809946 
L 462.861756 93.899482 
L 462.861741 92.989017 
L 462.856346 92.078553 
L 462.850183 91.168089 
L 462.847857 90.257625 
L 462.940522 90.257625 
L 462.940522 90.257625 
L 462.938196 91.168089 
L 462.932033 92.078553 
L 462.926638 92.989017 
L 462.926623 93.899482 
L 462.934696 94.809946 
L 462.951449 95.72041 
L 462.976764 96.630874 
L 463.011518 97.541338 
L 463.057991 98.451802 
L 463.118581 99.362267 
L 463.194391 100.272731 
L 463.285704 101.183195 
L 463.39434 102.093659 
L 463.525598 103.004123 
L 463.687917 103.914588 
L 463.891415 104.825052 
L 464.147671 105.735516 
L 464.470016 106.64598 
L 464.870422 107.556444 
L 465.3522 108.466908 
L 465.90421 109.377373 
L 466.502588 110.287837 
L 467.118875 111.198301 
L 467.729327 112.108765 
L 468.323633 113.019229 
L 468.912915 113.929694 
L 469.531267 114.840158 
L 470.224124 115.750622 
L 471.02916 116.661086 
L 471.966501 117.57155 
L 473.045738 118.482014 
L 474.276706 119.392479 
L 475.666685 120.302943 
L 477.20461 121.213407 
L 478.849758 122.123871 
L 480.539935 123.034335 
L 482.218311 123.9448 
L 483.863115 124.855264 
L 485.498005 125.765728 
L 487.169058 126.676192 
L 488.8975 127.586656 
L 490.640481 128.49712 
L 492.293352 129.407585 
L 493.740413 130.318049 
L 494.922602 131.228513 
L 495.869392 132.138977 
L 496.663751 133.049441 
L 497.364303 133.959905 
L 497.947811 134.87037 
L 498.317296 135.780834 
L 498.364919 136.691298 
L 498.039153 137.601762 
L 497.372873 138.512226 
L 496.465858 139.422691 
L 495.443922 140.333155 
L 494.417473 141.243619 
L 493.447941 142.154083 
L 492.526797 143.064547 
L 491.579854 143.975011 
L 490.504813 144.885476 
L 489.225997 145.79594 
L 487.733874 146.706404 
L 486.088783 147.616868 
L 484.392642 148.527332 
L 482.74613 149.437797 
L 481.211502 150.348261 
L 479.798303 151.258725 
L 478.476884 152.169189 
L 477.206961 153.079653 
L 475.962232 153.990117 
L 474.740919 154.900582 
L 473.562153 155.811046 
L 472.452789 156.72151 
L 471.432816 157.631974 
L 470.508256 158.542438 
L 469.673519 159.452902 
L 468.9173 160.363367 
L 468.226415 161.273831 
L 467.587319 162.184295 
L 466.987935 163.094759 
L 466.421395 164.005223 
L 465.890474 164.915688 
L 465.408588 165.826152 
L 464.993773 166.736616 
L 464.65758 167.64708 
L 464.396475 168.557544 
L 464.192814 169.468008 
L 464.024986 170.378473 
L 463.878401 171.288937 
L 463.748421 172.199401 
L 463.634438 173.109865 
L 463.532738 174.020329 
L 463.435747 174.930794 
L 463.337566 175.841258 
L 463.239313 176.751722 
L 463.148689 177.662186 
L 463.07423 178.57265 
L 463.019485 179.483114 
L 462.981712 180.393579 
z
" clip-path="url(#pd3b69cb4cd)" style="fill: #2a2eec; fill-opacity: 0.5"/>
   </g>
   <g id="PolyCollection_3">
    <path d="M 108.281899 269.538342 
L 108.091886 269.538342 
L 108.080443 268.630684 
L 108.070123 267.723025 
L 108.05015 266.815367 
L 108.008751 265.907709 
L 107.939782 265.00005 
L 107.845897 264.092392 
L 107.735214 263.184734 
L 107.61325 262.277075 
L 107.475736 261.369417 
L 107.307403 260.461759 
L 107.08736 259.5541 
L 106.797347 258.646442 
L 106.427974 257.738784 
L 105.980056 256.831125 
L 105.461991 255.923467 
L 104.887437 255.015809 
L 104.276264 254.10815 
L 103.655329 253.200492 
L 103.051706 252.292834 
L 102.477681 251.385175 
L 101.918635 250.477517 
L 101.336444 249.569859 
L 100.687051 248.662201 
L 99.936136 247.754542 
L 99.058683 246.846884 
L 98.026142 245.939226 
L 96.800873 245.031567 
L 95.354166 244.123909 
L 93.699886 243.216251 
L 91.911796 242.308592 
L 90.098518 241.400934 
L 88.349836 240.493276 
L 86.701402 239.585617 
L 85.148201 238.677959 
L 83.684357 237.770301 
L 82.320355 236.862642 
L 81.059721 235.954984 
L 79.86647 235.047326 
L 78.666575 234.139667 
L 77.394283 233.232009 
L 76.053714 232.324351 
L 74.750652 231.416692 
L 73.664476 230.509034 
L 72.964737 229.601376 
L 72.716163 228.693717 
L 72.836628 227.786059 
L 73.147028 226.878401 
L 73.483535 225.970742 
L 73.789348 225.063084 
L 74.123888 224.155426 
L 74.601655 223.247767 
L 75.319979 222.340109 
L 76.317949 221.432451 
L 77.570786 220.524792 
L 79.009993 219.617134 
L 80.560013 218.709476 
L 82.171893 217.801817 
L 83.826549 216.894159 
L 85.502834 215.986501 
L 87.145729 215.078842 
L 88.677182 214.171184 
L 90.047476 213.263526 
L 91.277349 212.355867 
L 92.447602 211.448209 
L 93.644905 210.540551 
L 94.910399 209.632892 
L 96.226776 208.725234 
L 97.541468 207.817576 
L 98.799368 206.909917 
L 99.962676 206.002259 
L 101.013721 205.094601 
L 101.949143 204.186942 
L 102.773931 203.279284 
L 103.497681 202.371626 
L 104.131567 201.463967 
L 104.685691 200.556309 
L 105.168731 199.648651 
L 105.590414 198.740992 
L 105.963499 197.833334 
L 106.301382 196.925676 
L 106.612168 196.018017 
L 106.894646 195.110359 
L 107.140629 194.202701 
L 107.342696 193.295042 
L 107.501688 192.387384 
L 107.628213 191.479726 
L 107.736981 190.572068 
L 107.83845 189.664409 
L 107.934172 188.756751 
L 108.018709 187.849093 
L 108.085446 186.941434 
L 108.131332 186.033776 
L 108.157823 185.126118 
L 108.168937 184.218459 
L 108.169036 183.310801 
L 108.16206 182.403143 
L 108.152038 181.495484 
L 108.143397 180.587826 
L 108.140008 179.680168 
L 108.233778 179.680168 
L 108.233778 179.680168 
L 108.230388 180.587826 
L 108.221747 181.495484 
L 108.211726 182.403143 
L 108.20475 183.310801 
L 108.204848 184.218459 
L 108.215963 185.126118 
L 108.242454 186.033776 
L 108.28834 186.941434 
L 108.355076 187.849093 
L 108.439613 188.756751 
L 108.535335 189.664409 
L 108.636805 190.572068 
L 108.745573 191.479726 
L 108.872098 192.387384 
L 109.03109 193.295042 
L 109.233157 194.202701 
L 109.479139 195.110359 
L 109.761618 196.018017 
L 110.072404 196.925676 
L 110.410286 197.833334 
L 110.783371 198.740992 
L 111.205055 199.648651 
L 111.688094 200.556309 
L 112.242219 201.463967 
L 112.876105 202.371626 
L 113.599855 203.279284 
L 114.424642 204.186942 
L 115.360064 205.094601 
L 116.41111 206.002259 
L 117.574417 206.909917 
L 118.832318 207.817576 
L 120.14701 208.725234 
L 121.463386 209.632892 
L 122.728881 210.540551 
L 123.926184 211.448209 
L 125.096437 212.355867 
L 126.326309 213.263526 
L 127.696603 214.171184 
L 129.228057 215.078842 
L 130.870952 215.986501 
L 132.547236 216.894159 
L 134.201893 217.801817 
L 135.813772 218.709476 
L 137.363793 219.617134 
L 138.803 220.524792 
L 140.055837 221.432451 
L 141.053807 222.340109 
L 141.77213 223.247767 
L 142.249898 224.155426 
L 142.584438 225.063084 
L 142.890251 225.970742 
L 143.226758 226.878401 
L 143.537158 227.786059 
L 143.657623 228.693717 
L 143.409049 229.601376 
L 142.709309 230.509034 
L 141.623133 231.416692 
L 140.320072 232.324351 
L 138.979503 233.232009 
L 137.707211 234.139667 
L 136.507315 235.047326 
L 135.314065 235.954984 
L 134.053431 236.862642 
L 132.689428 237.770301 
L 131.225585 238.677959 
L 129.672384 239.585617 
L 128.02395 240.493276 
L 126.275268 241.400934 
L 124.46199 242.308592 
L 122.6739 243.216251 
L 121.01962 244.123909 
L 119.572913 245.031567 
L 118.347643 245.939226 
L 117.315102 246.846884 
L 116.43765 247.754542 
L 115.686734 248.662201 
L 115.037341 249.569859 
L 114.455151 250.477517 
L 113.896105 251.385175 
L 113.322079 252.292834 
L 112.718456 253.200492 
L 112.097522 254.10815 
L 111.486349 255.015809 
L 110.911795 255.923467 
L 110.39373 256.831125 
L 109.945812 257.738784 
L 109.576439 258.646442 
L 109.286426 259.5541 
L 109.066383 260.461759 
L 108.89805 261.369417 
L 108.760536 262.277075 
L 108.638572 263.184734 
L 108.527889 264.092392 
L 108.434003 265.00005 
L 108.365034 265.907709 
L 108.323635 266.815367 
L 108.303662 267.723025 
L 108.293342 268.630684 
L 108.281899 269.538342 
z
" clip-path="url(#pd3b69cb4cd)" style="fill: #fa7c17; fill-opacity: 0.3"/>
   </g>
   <g id="PolyCollection_4">
    <path d="M 462.952077 117.805586 
L 462.836302 117.805586 
L 462.828271 116.827297 
L 462.820096 115.849008 
L 462.807692 114.870719 
L 462.787742 113.89243 
L 462.758882 112.91414 
L 462.721884 111.935851 
L 462.678907 110.957562 
L 462.631258 109.979273 
L 462.576451 109.000984 
L 462.507101 108.022695 
L 462.412848 107.044406 
L 462.283254 106.066117 
L 462.109473 105.087828 
L 461.885822 104.109538 
L 461.61319 103.131249 
L 461.301537 102.15296 
L 460.965408 101.174671 
L 460.612573 100.196382 
L 460.236177 99.218093 
L 459.821057 98.239804 
L 459.360954 97.261515 
L 458.868893 96.283225 
L 458.365297 95.304936 
L 457.849 94.326647 
L 457.276597 93.348358 
L 456.573419 92.370069 
L 455.674346 91.39178 
L 454.567069 90.413491 
L 453.304945 89.435202 
L 451.974865 88.456913 
L 450.639028 87.478623 
L 449.296366 86.500334 
L 447.898367 85.522045 
L 446.402179 84.543756 
L 444.804982 83.565467 
L 443.131034 82.587178 
L 441.404505 81.608889 
L 439.651916 80.6306 
L 437.925168 79.65231 
L 436.299651 78.674021 
L 434.833683 77.695732 
L 433.531161 76.717443 
L 432.355326 75.739154 
L 431.283362 74.760865 
L 430.334374 73.782576 
L 429.530212 72.804287 
L 428.844716 71.825998 
L 428.230659 70.847708 
L 427.712324 69.869419 
L 427.42346 68.89113 
L 427.521885 67.912841 
L 428.066134 66.934552 
L 428.983286 65.956263 
L 430.140166 64.977974 
L 431.426513 63.999685 
L 432.78497 63.021395 
L 434.196446 62.043106 
L 435.652498 61.064817 
L 437.138845 60.086528 
L 438.645715 59.108239 
L 440.191113 58.12995 
L 441.815846 57.151661 
L 443.540587 56.173372 
L 445.330652 55.195083 
L 447.108463 54.216793 
L 448.798818 53.238504 
L 450.365355 52.260215 
L 451.814197 51.281926 
L 453.167381 50.303637 
L 454.429049 49.325348 
L 455.575232 48.347059 
L 456.577979 47.36877 
L 457.438371 46.39048 
L 458.19286 45.412191 
L 458.88668 44.433902 
L 459.540038 43.455613 
L 460.135278 42.477324 
L 460.633513 41.499035 
L 461.007725 40.520746 
L 461.267181 39.542457 
L 461.454221 38.564167 
L 461.618248 37.585878 
L 461.790295 36.607589 
L 461.975545 35.6293 
L 462.161781 34.651011 
L 462.331786 33.672722 
L 462.471607 32.694433 
L 462.573966 31.716144 
L 462.639301 30.737855 
L 462.675839 29.759565 
L 462.697424 28.781276 
L 462.717631 27.802987 
L 462.742681 26.824698 
L 462.769137 25.846409 
L 462.789164 24.86812 
L 462.798701 23.889831 
L 462.801139 22.911542 
L 462.80415 21.933252 
L 462.813651 20.954963 
L 462.974728 20.954963 
L 462.974728 20.954963 
L 462.98423 21.933252 
L 462.98724 22.911542 
L 462.989678 23.889831 
L 462.999215 24.86812 
L 463.019242 25.846409 
L 463.045698 26.824698 
L 463.070748 27.802987 
L 463.090955 28.781276 
L 463.11254 29.759565 
L 463.149078 30.737855 
L 463.214413 31.716144 
L 463.316772 32.694433 
L 463.456593 33.672722 
L 463.626598 34.651011 
L 463.812834 35.6293 
L 463.998085 36.607589 
L 464.170132 37.585878 
L 464.334158 38.564167 
L 464.521198 39.542457 
L 464.780655 40.520746 
L 465.154867 41.499035 
L 465.653101 42.477324 
L 466.248341 43.455613 
L 466.9017 44.433902 
L 467.59552 45.412191 
L 468.350009 46.39048 
L 469.210401 47.36877 
L 470.213148 48.347059 
L 471.35933 49.325348 
L 472.620998 50.303637 
L 473.974182 51.281926 
L 475.423024 52.260215 
L 476.989561 53.238504 
L 478.679916 54.216793 
L 480.457727 55.195083 
L 482.247792 56.173372 
L 483.972533 57.151661 
L 485.597266 58.12995 
L 487.142665 59.108239 
L 488.649534 60.086528 
L 490.135881 61.064817 
L 491.591933 62.043106 
L 493.003409 63.021395 
L 494.361866 63.999685 
L 495.648213 64.977974 
L 496.805094 65.956263 
L 497.722245 66.934552 
L 498.266495 67.912841 
L 498.364919 68.89113 
L 498.076056 69.869419 
L 497.55772 70.847708 
L 496.943664 71.825998 
L 496.258167 72.804287 
L 495.454005 73.782576 
L 494.505017 74.760865 
L 493.433053 75.739154 
L 492.257219 76.717443 
L 490.954696 77.695732 
L 489.488728 78.674021 
L 487.863212 79.65231 
L 486.136463 80.6306 
L 484.383874 81.608889 
L 482.657345 82.587178 
L 480.983398 83.565467 
L 479.3862 84.543756 
L 477.890012 85.522045 
L 476.492013 86.500334 
L 475.149351 87.478623 
L 473.813514 88.456913 
L 472.483434 89.435202 
L 471.22131 90.413491 
L 470.114034 91.39178 
L 469.21496 92.370069 
L 468.511782 93.348358 
L 467.939379 94.326647 
L 467.423083 95.304936 
L 466.919486 96.283225 
L 466.427425 97.261515 
L 465.967323 98.239804 
L 465.552203 99.218093 
L 465.175806 100.196382 
L 464.822971 101.174671 
L 464.486842 102.15296 
L 464.175189 103.131249 
L 463.902558 104.109538 
L 463.678906 105.087828 
L 463.505125 106.066117 
L 463.375531 107.044406 
L 463.281278 108.022695 
L 463.211929 109.000984 
L 463.157122 109.979273 
L 463.109473 110.957562 
L 463.066495 111.935851 
L 463.029498 112.91414 
L 463.000638 113.89243 
L 462.980688 114.870719 
L 462.968283 115.849008 
L 462.960109 116.827297 
L 462.952077 117.805586 
z
" clip-path="url(#pd3b69cb4cd)" style="fill: #fa7c17; fill-opacity: 0.3"/>
   </g>
   <g id="PolyCollection_5">
    <path d="M 463.009179 166.004972 
L 462.7792 166.004972 
L 462.76626 164.946775 
L 462.766136 163.888578 
L 462.773256 162.830381 
L 462.778501 161.772185 
L 462.773634 160.713988 
L 462.753673 159.655791 
L 462.716153 158.597594 
L 462.658536 157.539397 
L 462.576753 156.481201 
L 462.468094 155.423004 
L 462.336886 154.364807 
L 462.193773 153.30661 
L 462.042187 152.248413 
L 461.863943 151.190216 
L 461.62662 150.13202 
L 461.314739 149.073823 
L 460.954131 148.015626 
L 460.59816 146.957429 
L 460.282588 145.899232 
L 459.99045 144.841035 
L 459.660918 143.782839 
L 459.234178 142.724642 
L 458.68938 141.666445 
L 458.040569 140.608248 
L 457.298814 139.550051 
L 456.4405 138.491855 
L 455.410396 137.433658 
L 454.157112 136.375461 
L 452.680956 135.317264 
L 451.065843 134.259067 
L 449.462404 133.20087 
L 448.014683 132.142674 
L 446.77751 131.084477 
L 445.691505 130.02628 
L 444.628314 128.968083 
L 443.453414 127.909886 
L 442.05967 126.85169 
L 440.379757 125.793493 
L 438.405838 124.735296 
L 436.215529 123.677099 
L 433.979622 122.618902 
L 431.932737 121.560705 
L 430.301908 120.502509 
L 429.211052 119.444312 
L 428.615684 118.386115 
L 428.326732 117.327918 
L 428.121775 116.269721 
L 427.870352 115.211524 
L 427.592287 114.153328 
L 427.42346 113.095131 
L 427.5264 112.036934 
L 428.010857 110.978737 
L 428.909653 109.92054 
L 430.201043 108.862344 
L 431.828415 107.804147 
L 433.691615 106.74595 
L 435.645029 105.687753 
L 437.544554 104.629556 
L 439.319521 103.571359 
L 441.001292 102.513163 
L 442.679125 101.454966 
L 444.420866 100.396769 
L 446.219257 99.338572 
L 447.99847 98.280375 
L 449.668605 97.222179 
L 451.18044 96.163982 
L 452.537594 95.105785 
L 453.765572 94.047588 
L 454.875524 92.989391 
L 455.859198 91.931194 
L 456.714734 90.872998 
L 457.468315 89.814801 
L 458.162737 88.756604 
L 458.825334 87.698407 
L 459.452403 86.64021 
L 460.024229 85.582013 
L 460.527911 84.523817 
L 460.963112 83.46562 
L 461.334009 82.407423 
L 461.645117 81.349226 
L 461.904151 80.291029 
L 462.121338 79.232833 
L 462.302775 78.174636 
L 462.447511 77.116439 
L 462.553513 76.058242 
L 462.62554 75.000045 
L 462.67582 73.941848 
L 462.716933 72.883652 
L 462.754444 71.825455 
L 462.786537 70.767258 
L 462.810095 69.709061 
L 462.825961 68.650864 
L 462.838071 67.592668 
L 462.848823 66.534471 
L 462.856745 65.476274 
L 462.858919 64.418077 
L 462.855106 63.35988 
L 462.849279 62.301683 
L 462.847123 61.243487 
L 462.941256 61.243487 
L 462.941256 61.243487 
L 462.9391 62.301683 
L 462.933273 63.35988 
L 462.92946 64.418077 
L 462.931634 65.476274 
L 462.939557 66.534471 
L 462.950308 67.592668 
L 462.962419 68.650864 
L 462.978284 69.709061 
L 463.001842 70.767258 
L 463.033935 71.825455 
L 463.071446 72.883652 
L 463.112559 73.941848 
L 463.162839 75.000045 
L 463.234866 76.058242 
L 463.340869 77.116439 
L 463.485605 78.174636 
L 463.667041 79.232833 
L 463.884228 80.291029 
L 464.143262 81.349226 
L 464.45437 82.407423 
L 464.825267 83.46562 
L 465.260468 84.523817 
L 465.76415 85.582013 
L 466.335977 86.64021 
L 466.963046 87.698407 
L 467.625642 88.756604 
L 468.320065 89.814801 
L 469.073645 90.872998 
L 469.929181 91.931194 
L 470.912855 92.989391 
L 472.022807 94.047588 
L 473.250785 95.105785 
L 474.607939 96.163982 
L 476.119774 97.222179 
L 477.789909 98.280375 
L 479.569122 99.338572 
L 481.367513 100.396769 
L 483.109254 101.454966 
L 484.787087 102.513163 
L 486.468858 103.571359 
L 488.243826 104.629556 
L 490.14335 105.687753 
L 492.096764 106.74595 
L 493.959965 107.804147 
L 495.587337 108.862344 
L 496.878726 109.92054 
L 497.777523 110.978737 
L 498.261979 112.036934 
L 498.364919 113.095131 
L 498.196093 114.153328 
L 497.918027 115.211524 
L 497.666604 116.269721 
L 497.461647 117.327918 
L 497.172695 118.386115 
L 496.577327 119.444312 
L 495.486472 120.502509 
L 493.855642 121.560705 
L 491.808757 122.618902 
L 489.57285 123.677099 
L 487.382541 124.735296 
L 485.408622 125.793493 
L 483.728709 126.85169 
L 482.334966 127.909886 
L 481.160065 128.968083 
L 480.096874 130.02628 
L 479.01087 131.084477 
L 477.773696 132.142674 
L 476.325976 133.20087 
L 474.722536 134.259067 
L 473.107423 135.317264 
L 471.631267 136.375461 
L 470.377984 137.433658 
L 469.347879 138.491855 
L 468.489565 139.550051 
L 467.74781 140.608248 
L 467.098999 141.666445 
L 466.554201 142.724642 
L 466.127461 143.782839 
L 465.79793 144.841035 
L 465.505791 145.899232 
L 465.190219 146.957429 
L 464.834248 148.015626 
L 464.473641 149.073823 
L 464.161759 150.13202 
L 463.924436 151.190216 
L 463.746193 152.248413 
L 463.594606 153.30661 
L 463.451493 154.364807 
L 463.320285 155.423004 
L 463.211626 156.481201 
L 463.129844 157.539397 
L 463.072226 158.597594 
L 463.034707 159.655791 
L 463.014746 160.713988 
L 463.009878 161.772185 
L 463.015123 162.830381 
L 463.022243 163.888578 
L 463.022119 164.946775 
L 463.009179 166.004972 
z
" clip-path="url(#pd3b69cb4cd)" style="fill: #328c06; fill-opacity: 0.3"/>
   </g>
   <g id="line2d_25">
    <path d="M 108.186893 251.322184 
L 462.89419 124.875914 
" clip-path="url(#pd3b69cb4cd)" style="fill: none; stroke: #2a2eec; stroke-opacity: 0.25; stroke-width: 1.5; stroke-linecap: round"/>
   </g>
   <g id="line2d_26">
    <path d="M 108.186893 229.138339 
L 462.89419 137.679742 
" clip-path="url(#pd3b69cb4cd)" style="fill: none; stroke: #2a2eec; stroke-opacity: 0.25; stroke-width: 1.5; stroke-linecap: round"/>
   </g>
   <g id="line2d_27">
    <path d="M 108.186893 248.256256 
L 462.89419 149.11551 
" clip-path="url(#pd3b69cb4cd)" style="fill: none; stroke: #2a2eec; stroke-opacity: 0.25; stroke-width: 1.5; stroke-linecap: round"/>
   </g>
   <g id="line2d_28">
    <path d="M 108.186893 267.082862 
L 462.89419 119.633593 
" clip-path="url(#pd3b69cb4cd)" style="fill: none; stroke: #2a2eec; stroke-opacity: 0.25; stroke-width: 1.5; stroke-linecap: round"/>
   </g>
   <g id="line2d_29">
    <path d="M 108.186893 235.031711 
L 462.89419 129.654226 
" clip-path="url(#pd3b69cb4cd)" style="fill: none; stroke: #2a2eec; stroke-opacity: 0.25; stroke-width: 1.5; stroke-linecap: round"/>
   </g>
   <g id="line2d_30">
    <path d="M 108.186893 261.188018 
L 462.89419 145.801821 
" clip-path="url(#pd3b69cb4cd)" style="fill: none; stroke: #2a2eec; stroke-opacity: 0.25; stroke-width: 1.5; stroke-linecap: round"/>
   </g>
   <g id="line2d_31">
    <path d="M 108.186893 246.141475 
L 462.89419 145.386172 
" clip-path="url(#pd3b69cb4cd)" style="fill: none; stroke: #2a2eec; stroke-opacity: 0.25; stroke-width: 1.5; stroke-linecap: round"/>
   </g>
   <g id="line2d_32">
    <path d="M 108.186893 255.584738 
L 462.89419 156.832793 
" clip-path="url(#pd3b69cb4cd)" style="fill: none; stroke: #2a2eec; stroke-opacity: 0.25; stroke-width: 1.5; stroke-linecap: round"/>
   </g>
   <g id="line2d_33">
    <path d="M 108.186893 256.132188 
L 462.89419 114.659351 
" clip-path="url(#pd3b69cb4cd)" style="fill: none; stroke: #2a2eec; stroke-opacity: 0.25; stroke-width: 1.5; stroke-linecap: round"/>
   </g>
   <g id="line2d_34">
    <path d="M 108.186893 244.590804 
L 462.89419 148.308086 
" clip-path="url(#pd3b69cb4cd)" style="fill: none; stroke: #2a2eec; stroke-opacity: 0.25; stroke-width: 1.5; stroke-linecap: round"/>
   </g>
   <g id="line2d_35">
    <path d="M 108.186893 235.361694 
L 462.89419 81.418575 
" clip-path="url(#pd3b69cb4cd)" style="fill: none; stroke: #fa7c17; stroke-opacity: 0.25; stroke-width: 1.5; stroke-linecap: round"/>
   </g>
   <g id="line2d_36">
    <path d="M 108.186893 234.767086 
L 462.89419 65.00757 
" clip-path="url(#pd3b69cb4cd)" style="fill: none; stroke: #fa7c17; stroke-opacity: 0.25; stroke-width: 1.5; stroke-linecap: round"/>
   </g>
   <g id="line2d_37">
    <path d="M 108.186893 226.046754 
L 462.89419 83.893564 
" clip-path="url(#pd3b69cb4cd)" style="fill: none; stroke: #fa7c17; stroke-opacity: 0.25; stroke-width: 1.5; stroke-linecap: round"/>
   </g>
   <g id="line2d_38">
    <path d="M 108.186893 221.430838 
L 462.89419 78.219194 
" clip-path="url(#pd3b69cb4cd)" style="fill: none; stroke: #fa7c17; stroke-opacity: 0.25; stroke-width: 1.5; stroke-linecap: round"/>
   </g>
   <g id="line2d_39">
    <path d="M 108.186893 224.727134 
L 462.89419 56.646774 
" clip-path="url(#pd3b69cb4cd)" style="fill: none; stroke: #fa7c17; stroke-opacity: 0.25; stroke-width: 1.5; stroke-linecap: round"/>
   </g>
   <g id="line2d_40">
    <path d="M 108.186893 222.73383 
L 462.89419 65.819576 
" clip-path="url(#pd3b69cb4cd)" style="fill: none; stroke: #fa7c17; stroke-opacity: 0.25; stroke-width: 1.5; stroke-linecap: round"/>
   </g>
   <g id="line2d_41">
    <path d="M 108.186893 224.555215 
L 462.89419 58.369457 
" clip-path="url(#pd3b69cb4cd)" style="fill: none; stroke: #fa7c17; stroke-opacity: 0.25; stroke-width: 1.5; stroke-linecap: round"/>
   </g>
   <g id="line2d_42">
    <path d="M 108.186893 232.072298 
L 462.89419 62.741784 
" clip-path="url(#pd3b69cb4cd)" style="fill: none; stroke: #fa7c17; stroke-opacity: 0.25; stroke-width: 1.5; stroke-linecap: round"/>
   </g>
   <g id="line2d_43">
    <path d="M 108.186893 235.679145 
L 462.89419 67.430026 
" clip-path="url(#pd3b69cb4cd)" style="fill: none; stroke: #fa7c17; stroke-opacity: 0.25; stroke-width: 1.5; stroke-linecap: round"/>
   </g>
   <g id="line2d_44">
    <path d="M 108.186893 215.435387 
L 462.89419 79.431689 
" clip-path="url(#pd3b69cb4cd)" style="fill: none; stroke: #fa7c17; stroke-opacity: 0.25; stroke-width: 1.5; stroke-linecap: round"/>
   </g>
   <g id="line2d_45"/>
   <g id="line2d_46"/>
   <g id="LineCollection_1">
    <path d="M 90.451528 188.691301 
L 125.922258 188.691301 
" clip-path="url(#pd3b69cb4cd)" style="fill: none; stroke: #2a2eec; stroke-width: 1.5"/>
    <path d="M 445.158825 90.257625 
L 480.629554 90.257625 
" clip-path="url(#pd3b69cb4cd)" style="fill: none; stroke: #2a2eec; stroke-width: 1.5"/>
   </g>
   <g id="LineCollection_2">
    <path d="M 90.451528 297.477994 
L 125.922258 297.477994 
" clip-path="url(#pd3b69cb4cd)" style="fill: none; stroke: #2a2eec; stroke-width: 1.5"/>
    <path d="M 445.158825 180.393579 
L 480.629554 180.393579 
" clip-path="url(#pd3b69cb4cd)" style="fill: none; stroke: #2a2eec; stroke-width: 1.5"/>
   </g>
   <g id="LineCollection_3">
    <path d="M 108.186893 297.477994 
L 108.186893 188.691301 
" clip-path="url(#pd3b69cb4cd)" style="fill: none; stroke: #2a2eec; stroke-width: 1.5"/>
    <path d="M 462.89419 180.393579 
L 462.89419 90.257625 
" clip-path="url(#pd3b69cb4cd)" style="fill: none; stroke: #2a2eec; stroke-width: 1.5"/>
   </g>
   <g id="LineCollection_4">
    <path d="M 90.451528 179.680168 
L 125.922258 179.680168 
" clip-path="url(#pd3b69cb4cd)" style="fill: none; stroke: #fa7c17; stroke-width: 1.5"/>
    <path d="M 445.158825 20.954963 
L 480.629554 20.954963 
" clip-path="url(#pd3b69cb4cd)" style="fill: none; stroke: #fa7c17; stroke-width: 1.5"/>
   </g>
   <g id="LineCollection_5">
    <path d="M 90.451528 269.538342 
L 125.922258 269.538342 
" clip-path="url(#pd3b69cb4cd)" style="fill: none; stroke: #fa7c17; stroke-width: 1.5"/>
    <path d="M 445.158825 117.805586 
L 480.629554 117.805586 
" clip-path="url(#pd3b69cb4cd)" style="fill: none; stroke: #fa7c17; stroke-width: 1.5"/>
   </g>
   <g id="LineCollection_6">
    <path d="M 108.186893 269.538342 
L 108.186893 179.680168 
" clip-path="url(#pd3b69cb4cd)" style="fill: none; stroke: #fa7c17; stroke-width: 1.5"/>
    <path d="M 462.89419 117.805586 
L 462.89419 20.954963 
" clip-path="url(#pd3b69cb4cd)" style="fill: none; stroke: #fa7c17; stroke-width: 1.5"/>
   </g>
   <g id="LineCollection_7">
    <path d="M 445.158825 61.243487 
L 480.629554 61.243487 
" clip-path="url(#pd3b69cb4cd)" style="fill: none; stroke: #328c06; stroke-width: 1.5"/>
   </g>
   <g id="LineCollection_8">
    <path d="M 445.158825 166.004972 
L 480.629554 166.004972 
" clip-path="url(#pd3b69cb4cd)" style="fill: none; stroke: #328c06; stroke-width: 1.5"/>
   </g>
   <g id="LineCollection_9">
    <path d="M 462.89419 166.004972 
L 462.89419 61.243487 
" clip-path="url(#pd3b69cb4cd)" style="fill: none; stroke: #328c06; stroke-width: 1.5"/>
   </g>
   <g id="patch_3">
    <path d="M 51.433725 311.304146 
L 51.433725 7.128812 
" style="fill: none"/>
   </g>
   <g id="patch_4">
    <path d="M 519.647357 311.304146 
L 519.647357 7.128812 
" style="fill: none"/>
   </g>
   <g id="patch_5">
    <path d="M 51.433725 311.304146 
L 519.647357 311.304146 
" style="fill: none"/>
   </g>
   <g id="patch_6">
    <path d="M 51.433725 7.128812 
L 519.647357 7.128812 
" style="fill: none"/>
   </g>
   <g id="legend_1">
    <g id="line2d_47">
     <path d="M 467.612357 22.846937 
L 479.612357 22.846937 
L 491.612357 22.846937 
" style="fill: none; stroke: #2a2eec; stroke-width: 1.5; stroke-linecap: round"/>
    </g>
    <g id="text_15">
     <!-- 0 -->
     <g style="fill: #262626" transform="translate(501.212357 27.046937) scale(0.12 -0.12)">
      <use xlink:href="#DejaVuSans-30"/>
     </g>
    </g>
    <g id="line2d_48">
     <path d="M 467.612357 40.460687 
L 479.612357 40.460687 
L 491.612357 40.460687 
" style="fill: none; stroke: #fa7c17; stroke-width: 1.5; stroke-linecap: round"/>
    </g>
    <g id="text_16">
     <!-- 1 -->
     <g style="fill: #262626" transform="translate(501.212357 44.660687) scale(0.12 -0.12)">
      <use xlink:href="#DejaVuSans-31"/>
     </g>
    </g>
   </g>
  </g>
 </g>
 <defs>
  <clipPath id="pd3b69cb4cd">
   <rect x="51.433725" y="7.128812" width="468.213632" height="304.175334"/>
  </clipPath>
 </defs>
</svg>
