<?xml version="1.0" encoding="utf-8" standalone="no"?>
<!DOCTYPE svg PUBLIC "-//W3C//DTD SVG 1.1//EN"
  "http://www.w3.org/Graphics/SVG/1.1/DTD/svg11.dtd">
<svg xmlns:xlink="http://www.w3.org/1999/xlink" width="526.79952pt" height="353.99952pt" viewBox="0 0 526.79952 353.99952" xmlns="http://www.w3.org/2000/svg" version="1.1">
 <metadata>
  <rdf:RDF xmlns:dc="http://purl.org/dc/elements/1.1/" xmlns:cc="http://creativecommons.org/ns#" xmlns:rdf="http://www.w3.org/1999/02/22-rdf-syntax-ns#">
   <cc:Work>
    <dc:type rdf:resource="http://purl.org/dc/dcmitype/StillImage"/>
    <dc:date>2022-10-28T16:09:42.049724</dc:date>
    <dc:format>image/svg+xml</dc:format>
    <dc:creator>
     <cc:Agent>
      <dc:title>Matplotlib v3.6.1, https://matplotlib.org/</dc:title>
     </cc:Agent>
    </dc:creator>
   </cc:Work>
  </rdf:RDF>
 </metadata>
 <defs>
  <style type="text/css">*{stroke-linejoin: round; stroke-linecap: butt}</style>
 </defs>
 <g id="figure_1">
  <g id="patch_1">
   <path d="M 0 353.99952 
L 526.79952 353.99952 
L 526.79952 0 
L 0 0 
z
" style="fill: #ffffff"/>
  </g>
  <g id="axes_1">
   <g id="patch_2">
    <path d="M 51.433725 311.304146 
L 519.647357 311.304146 
L 519.647357 7.128812 
L 51.433725 7.128812 
z
" style="fill: #eeeeee"/>
   </g>
   <g id="matplotlib.axis_1">
    <g id="xtick_1">
     <g id="line2d_1">
      <path d="M 108.186893 311.304146 
L 108.186893 7.128812 
" clip-path="url(#p4c5c38eb24)" style="fill: none; stroke: #ffffff; stroke-width: 0.8; stroke-linecap: round"/>
     </g>
     <g id="line2d_2"/>
     <g id="text_1">
      <!-- 0.0 -->
      <g style="fill: #262626" transform="translate(97.054705 325.441958) scale(0.14 -0.14)">
       <defs>
        <path id="DejaVuSans-30" d="M 2034 4250 
Q 1547 4250 1301 3770 
Q 1056 3291 1056 2328 
Q 1056 1369 1301 889 
Q 1547 409 2034 409 
Q 2525 409 2770 889 
Q 3016 1369 3016 2328 
Q 3016 3291 2770 3770 
Q 2525 4250 2034 4250 
z
M 2034 4750 
Q 2819 4750 3233 4129 
Q 3647 3509 3647 2328 
Q 3647 1150 3233 529 
Q 2819 -91 2034 -91 
Q 1250 -91 836 529 
Q 422 1150 422 2328 
Q 422 3509 836 4129 
Q 1250 4750 2034 4750 
z
" transform="scale(0.015625)"/>
        <path id="DejaVuSans-2e" d="M 684 794 
L 1344 794 
L 1344 0 
L 684 0 
L 684 794 
z
" transform="scale(0.015625)"/>
       </defs>
       <use xlink:href="#DejaVuSans-30"/>
       <use xlink:href="#DejaVuSans-2e" x="63.623047"/>
       <use xlink:href="#DejaVuSans-30" x="95.410156"/>
      </g>
     </g>
    </g>
    <g id="xtick_2">
     <g id="line2d_3">
      <path d="M 179.128352 311.304146 
L 179.128352 7.128812 
" clip-path="url(#p4c5c38eb24)" style="fill: none; stroke: #ffffff; stroke-width: 0.8; stroke-linecap: round"/>
     </g>
     <g id="line2d_4"/>
     <g id="text_2">
      <!-- 0.2 -->
      <g style="fill: #262626" transform="translate(167.996165 325.441958) scale(0.14 -0.14)">
       <defs>
        <path id="DejaVuSans-32" d="M 1228 531 
L 3431 531 
L 3431 0 
L 469 0 
L 469 531 
Q 828 903 1448 1529 
Q 2069 2156 2228 2338 
Q 2531 2678 2651 2914 
Q 2772 3150 2772 3378 
Q 2772 3750 2511 3984 
Q 2250 4219 1831 4219 
Q 1534 4219 1204 4116 
Q 875 4013 500 3803 
L 500 4441 
Q 881 4594 1212 4672 
Q 1544 4750 1819 4750 
Q 2544 4750 2975 4387 
Q 3406 4025 3406 3419 
Q 3406 3131 3298 2873 
Q 3191 2616 2906 2266 
Q 2828 2175 2409 1742 
Q 1991 1309 1228 531 
z
" transform="scale(0.015625)"/>
       </defs>
       <use xlink:href="#DejaVuSans-30"/>
       <use xlink:href="#DejaVuSans-2e" x="63.623047"/>
       <use xlink:href="#DejaVuSans-32" x="95.410156"/>
      </g>
     </g>
    </g>
    <g id="xtick_3">
     <g id="line2d_5">
      <path d="M 250.069812 311.304146 
L 250.069812 7.128812 
" clip-path="url(#p4c5c38eb24)" style="fill: none; stroke: #ffffff; stroke-width: 0.8; stroke-linecap: round"/>
     </g>
     <g id="line2d_6"/>
     <g id="text_3">
      <!-- 0.4 -->
      <g style="fill: #262626" transform="translate(238.937624 325.441958) scale(0.14 -0.14)">
       <defs>
        <path id="DejaVuSans-34" d="M 2419 4116 
L 825 1625 
L 2419 1625 
L 2419 4116 
z
M 2253 4666 
L 3047 4666 
L 3047 1625 
L 3713 1625 
L 3713 1100 
L 3047 1100 
L 3047 0 
L 2419 0 
L 2419 1100 
L 313 1100 
L 313 1709 
L 2253 4666 
z
" transform="scale(0.015625)"/>
       </defs>
       <use xlink:href="#DejaVuSans-30"/>
       <use xlink:href="#DejaVuSans-2e" x="63.623047"/>
       <use xlink:href="#DejaVuSans-34" x="95.410156"/>
      </g>
     </g>
    </g>
    <g id="xtick_4">
     <g id="line2d_7">
      <path d="M 321.011271 311.304146 
L 321.011271 7.128812 
" clip-path="url(#p4c5c38eb24)" style="fill: none; stroke: #ffffff; stroke-width: 0.8; stroke-linecap: round"/>
     </g>
     <g id="line2d_8"/>
     <g id="text_4">
      <!-- 0.6 -->
      <g style="fill: #262626" transform="translate(309.879083 325.441958) scale(0.14 -0.14)">
       <defs>
        <path id="DejaVuSans-36" d="M 2113 2584 
Q 1688 2584 1439 2293 
Q 1191 2003 1191 1497 
Q 1191 994 1439 701 
Q 1688 409 2113 409 
Q 2538 409 2786 701 
Q 3034 994 3034 1497 
Q 3034 2003 2786 2293 
Q 2538 2584 2113 2584 
z
M 3366 4563 
L 3366 3988 
Q 3128 4100 2886 4159 
Q 2644 4219 2406 4219 
Q 1781 4219 1451 3797 
Q 1122 3375 1075 2522 
Q 1259 2794 1537 2939 
Q 1816 3084 2150 3084 
Q 2853 3084 3261 2657 
Q 3669 2231 3669 1497 
Q 3669 778 3244 343 
Q 2819 -91 2113 -91 
Q 1303 -91 875 529 
Q 447 1150 447 2328 
Q 447 3434 972 4092 
Q 1497 4750 2381 4750 
Q 2619 4750 2861 4703 
Q 3103 4656 3366 4563 
z
" transform="scale(0.015625)"/>
       </defs>
       <use xlink:href="#DejaVuSans-30"/>
       <use xlink:href="#DejaVuSans-2e" x="63.623047"/>
       <use xlink:href="#DejaVuSans-36" x="95.410156"/>
      </g>
     </g>
    </g>
    <g id="xtick_5">
     <g id="line2d_9">
      <path d="M 391.95273 311.304146 
L 391.95273 7.128812 
" clip-path="url(#p4c5c38eb24)" style="fill: none; stroke: #ffffff; stroke-width: 0.8; stroke-linecap: round"/>
     </g>
     <g id="line2d_10"/>
     <g id="text_5">
      <!-- 0.8 -->
      <g style="fill: #262626" transform="translate(380.820543 325.441958) scale(0.14 -0.14)">
       <defs>
        <path id="DejaVuSans-38" d="M 2034 2216 
Q 1584 2216 1326 1975 
Q 1069 1734 1069 1313 
Q 1069 891 1326 650 
Q 1584 409 2034 409 
Q 2484 409 2743 651 
Q 3003 894 3003 1313 
Q 3003 1734 2745 1975 
Q 2488 2216 2034 2216 
z
M 1403 2484 
Q 997 2584 770 2862 
Q 544 3141 544 3541 
Q 544 4100 942 4425 
Q 1341 4750 2034 4750 
Q 2731 4750 3128 4425 
Q 3525 4100 3525 3541 
Q 3525 3141 3298 2862 
Q 3072 2584 2669 2484 
Q 3125 2378 3379 2068 
Q 3634 1759 3634 1313 
Q 3634 634 3220 271 
Q 2806 -91 2034 -91 
Q 1263 -91 848 271 
Q 434 634 434 1313 
Q 434 1759 690 2068 
Q 947 2378 1403 2484 
z
M 1172 3481 
Q 1172 3119 1398 2916 
Q 1625 2713 2034 2713 
Q 2441 2713 2670 2916 
Q 2900 3119 2900 3481 
Q 2900 3844 2670 4047 
Q 2441 4250 2034 4250 
Q 1625 4250 1398 4047 
Q 1172 3844 1172 3481 
z
" transform="scale(0.015625)"/>
       </defs>
       <use xlink:href="#DejaVuSans-30"/>
       <use xlink:href="#DejaVuSans-2e" x="63.623047"/>
       <use xlink:href="#DejaVuSans-38" x="95.410156"/>
      </g>
     </g>
    </g>
    <g id="xtick_6">
     <g id="line2d_11">
      <path d="M 462.89419 311.304146 
L 462.89419 7.128812 
" clip-path="url(#p4c5c38eb24)" style="fill: none; stroke: #ffffff; stroke-width: 0.8; stroke-linecap: round"/>
     </g>
     <g id="line2d_12"/>
     <g id="text_6">
      <!-- 1.0 -->
      <g style="fill: #262626" transform="translate(451.762002 325.441958) scale(0.14 -0.14)">
       <defs>
        <path id="DejaVuSans-31" d="M 794 531 
L 1825 531 
L 1825 4091 
L 703 3866 
L 703 4441 
L 1819 4666 
L 2450 4666 
L 2450 531 
L 3481 531 
L 3481 0 
L 794 0 
L 794 531 
z
" transform="scale(0.015625)"/>
       </defs>
       <use xlink:href="#DejaVuSans-31"/>
       <use xlink:href="#DejaVuSans-2e" x="63.623047"/>
       <use xlink:href="#DejaVuSans-30" x="95.410156"/>
      </g>
     </g>
    </g>
    <g id="text_7">
     <!-- t -->
     <g style="fill: #262626" transform="translate(282.600307 343.751177) scale(0.15 -0.15)">
      <defs>
       <path id="DejaVuSans-74" d="M 1172 4494 
L 1172 3500 
L 2356 3500 
L 2356 3053 
L 1172 3053 
L 1172 1153 
Q 1172 725 1289 603 
Q 1406 481 1766 481 
L 2356 481 
L 2356 0 
L 1766 0 
Q 1100 0 847 248 
Q 594 497 594 1153 
L 594 3053 
L 172 3053 
L 172 3500 
L 594 3500 
L 594 4494 
L 1172 4494 
z
" transform="scale(0.015625)"/>
      </defs>
      <use xlink:href="#DejaVuSans-74"/>
     </g>
    </g>
   </g>
   <g id="matplotlib.axis_2">
    <g id="ytick_1">
     <g id="line2d_13">
      <path d="M 51.433725 259.719062 
L 519.647357 259.719062 
" clip-path="url(#p4c5c38eb24)" style="fill: none; stroke: #ffffff; stroke-width: 0.8; stroke-linecap: round"/>
     </g>
     <g id="line2d_14"/>
     <g id="text_8">
      <!-- 1.0 -->
      <g style="fill: #262626" transform="translate(25.66935 265.037968) scale(0.14 -0.14)">
       <use xlink:href="#DejaVuSans-31"/>
       <use xlink:href="#DejaVuSans-2e" x="63.623047"/>
       <use xlink:href="#DejaVuSans-30" x="95.410156"/>
      </g>
     </g>
    </g>
    <g id="ytick_2">
     <g id="line2d_15">
      <path d="M 51.433725 201.485191 
L 519.647357 201.485191 
" clip-path="url(#p4c5c38eb24)" style="fill: none; stroke: #ffffff; stroke-width: 0.8; stroke-linecap: round"/>
     </g>
     <g id="line2d_16"/>
     <g id="text_9">
      <!-- 1.5 -->
      <g style="fill: #262626" transform="translate(25.66935 206.804097) scale(0.14 -0.14)">
       <defs>
        <path id="DejaVuSans-35" d="M 691 4666 
L 3169 4666 
L 3169 4134 
L 1269 4134 
L 1269 2991 
Q 1406 3038 1543 3061 
Q 1681 3084 1819 3084 
Q 2600 3084 3056 2656 
Q 3513 2228 3513 1497 
Q 3513 744 3044 326 
Q 2575 -91 1722 -91 
Q 1428 -91 1123 -41 
Q 819 9 494 109 
L 494 744 
Q 775 591 1075 516 
Q 1375 441 1709 441 
Q 2250 441 2565 725 
Q 2881 1009 2881 1497 
Q 2881 1984 2565 2268 
Q 2250 2553 1709 2553 
Q 1456 2553 1204 2497 
Q 953 2441 691 2322 
L 691 4666 
z
" transform="scale(0.015625)"/>
       </defs>
       <use xlink:href="#DejaVuSans-31"/>
       <use xlink:href="#DejaVuSans-2e" x="63.623047"/>
       <use xlink:href="#DejaVuSans-35" x="95.410156"/>
      </g>
     </g>
    </g>
    <g id="ytick_3">
     <g id="line2d_17">
      <path d="M 51.433725 143.25132 
L 519.647357 143.25132 
" clip-path="url(#p4c5c38eb24)" style="fill: none; stroke: #ffffff; stroke-width: 0.8; stroke-linecap: round"/>
     </g>
     <g id="line2d_18"/>
     <g id="text_10">
      <!-- 2.0 -->
      <g style="fill: #262626" transform="translate(25.66935 148.570226) scale(0.14 -0.14)">
       <use xlink:href="#DejaVuSans-32"/>
       <use xlink:href="#DejaVuSans-2e" x="63.623047"/>
       <use xlink:href="#DejaVuSans-30" x="95.410156"/>
      </g>
     </g>
    </g>
    <g id="ytick_4">
     <g id="line2d_19">
      <path d="M 51.433725 85.017449 
L 519.647357 85.017449 
" clip-path="url(#p4c5c38eb24)" style="fill: none; stroke: #ffffff; stroke-width: 0.8; stroke-linecap: round"/>
     </g>
     <g id="line2d_20"/>
     <g id="text_11">
      <!-- 2.5 -->
      <g style="fill: #262626" transform="translate(25.66935 90.336355) scale(0.14 -0.14)">
       <use xlink:href="#DejaVuSans-32"/>
       <use xlink:href="#DejaVuSans-2e" x="63.623047"/>
       <use xlink:href="#DejaVuSans-35" x="95.410156"/>
      </g>
     </g>
    </g>
    <g id="ytick_5">
     <g id="line2d_21">
      <path d="M 51.433725 26.783578 
L 519.647357 26.783578 
" clip-path="url(#p4c5c38eb24)" style="fill: none; stroke: #ffffff; stroke-width: 0.8; stroke-linecap: round"/>
     </g>
     <g id="line2d_22"/>
     <g id="text_12">
      <!-- 3.0 -->
      <g style="fill: #262626" transform="translate(25.66935 32.102484) scale(0.14 -0.14)">
       <defs>
        <path id="DejaVuSans-33" d="M 2597 2516 
Q 3050 2419 3304 2112 
Q 3559 1806 3559 1356 
Q 3559 666 3084 287 
Q 2609 -91 1734 -91 
Q 1441 -91 1130 -33 
Q 819 25 488 141 
L 488 750 
Q 750 597 1062 519 
Q 1375 441 1716 441 
Q 2309 441 2620 675 
Q 2931 909 2931 1356 
Q 2931 1769 2642 2001 
Q 2353 2234 1838 2234 
L 1294 2234 
L 1294 2753 
L 1863 2753 
Q 2328 2753 2575 2939 
Q 2822 3125 2822 3475 
Q 2822 3834 2567 4026 
Q 2313 4219 1838 4219 
Q 1578 4219 1281 4162 
Q 984 4106 628 3988 
L 628 4550 
Q 988 4650 1302 4700 
Q 1616 4750 1894 4750 
Q 2613 4750 3031 4423 
Q 3450 4097 3450 3541 
Q 3450 3153 3228 2886 
Q 3006 2619 2597 2516 
z
" transform="scale(0.015625)"/>
       </defs>
       <use xlink:href="#DejaVuSans-33"/>
       <use xlink:href="#DejaVuSans-2e" x="63.623047"/>
       <use xlink:href="#DejaVuSans-30" x="95.410156"/>
      </g>
     </g>
    </g>
    <g id="text_13">
     <!-- y -->
     <g style="fill: #262626" transform="translate(18.549819 163.655541) rotate(-90) scale(0.15 -0.15)">
      <defs>
       <path id="DejaVuSans-79" d="M 2059 -325 
Q 1816 -950 1584 -1140 
Q 1353 -1331 966 -1331 
L 506 -1331 
L 506 -850 
L 844 -850 
Q 1081 -850 1212 -737 
Q 1344 -625 1503 -206 
L 1606 56 
L 191 3500 
L 800 3500 
L 1894 763 
L 2988 3500 
L 3597 3500 
L 2059 -325 
z
" transform="scale(0.015625)"/>
      </defs>
      <use xlink:href="#DejaVuSans-79"/>
     </g>
    </g>
   </g>
   <g id="PolyCollection_1">
    <path d="M 108.339469 297.477994 
L 108.034317 297.477994 
L 107.983609 296.587687 
L 107.932047 295.69738 
L 107.881902 294.807073 
L 107.831666 293.916766 
L 107.775471 293.026459 
L 107.704731 292.136152 
L 107.611298 291.245845 
L 107.490611 290.355538 
L 107.343508 289.465231 
L 107.175515 288.574924 
L 106.992956 287.684617 
L 106.797255 286.79431 
L 106.5814 285.904003 
L 106.332361 285.013696 
L 106.038854 284.123389 
L 105.698751 283.233082 
L 105.320093 282.342775 
L 104.914841 281.452468 
L 104.490006 280.562161 
L 104.041769 279.671854 
L 103.55521 278.781547 
L 103.009598 277.89124 
L 102.387474 277.000933 
L 101.682688 276.110627 
L 100.899958 275.22032 
L 100.042403 274.330013 
L 99.094981 273.439706 
L 98.01992 272.549399 
L 96.773445 271.659092 
L 95.334631 270.768785 
L 93.725057 269.878478 
L 92.004599 268.988171 
L 90.247603 268.097864 
L 88.516779 267.207557 
L 86.849414 266.31725 
L 85.257498 265.426943 
L 83.734704 264.536636 
L 82.266073 263.646329 
L 80.841752 262.756022 
L 79.471594 261.865715 
L 78.187958 260.975408 
L 77.028559 260.085101 
L 76.011542 259.194794 
L 75.126834 258.304487 
L 74.353441 257.41418 
L 73.687554 256.523873 
L 73.158073 255.633566 
L 72.817975 254.743259 
L 72.716163 253.852952 
L 72.866112 252.962645 
L 73.233031 252.072338 
L 73.752559 251.182031 
L 74.369119 250.291724 
L 75.063186 249.401417 
L 75.848361 248.51111 
L 76.749902 247.620803 
L 77.788886 246.730496 
L 78.978696 245.840189 
L 80.321617 244.949882 
L 81.799329 244.059575 
L 83.369354 243.169268 
L 84.98007 242.278961 
L 86.595865 241.388654 
L 88.207944 240.498347 
L 89.817247 239.60804 
L 91.404016 238.717733 
L 92.914169 237.827426 
L 94.279426 236.937119 
L 95.45913 236.046812 
L 96.472691 235.156505 
L 97.396732 234.266198 
L 98.325027 233.375891 
L 99.315992 232.485584 
L 100.36284 231.595277 
L 101.40545 230.70497 
L 102.371556 229.814663 
L 103.215087 228.924356 
L 103.927642 228.034049 
L 104.524295 227.143742 
L 105.022922 226.253435 
L 105.434476 225.363128 
L 105.767002 224.472821 
L 106.033747 223.582514 
L 106.255245 222.692207 
L 106.453976 221.8019 
L 106.64741 220.911593 
L 106.844192 220.021287 
L 107.043154 219.13098 
L 107.233706 218.240673 
L 107.399018 217.350366 
L 107.523662 216.460059 
L 107.602955 215.569752 
L 107.647533 214.679445 
L 107.67896 213.789138 
L 107.718774 212.898831 
L 107.778161 212.008524 
L 107.854669 211.118217 
L 107.936841 210.22791 
L 108.012219 209.337603 
L 108.361567 209.337603 
L 108.361567 209.337603 
L 108.436945 210.22791 
L 108.519117 211.118217 
L 108.595625 212.008524 
L 108.655012 212.898831 
L 108.694825 213.789138 
L 108.726253 214.679445 
L 108.77083 215.569752 
L 108.850124 216.460059 
L 108.974768 217.350366 
L 109.14008 218.240673 
L 109.330632 219.13098 
L 109.529593 220.021287 
L 109.726375 220.911593 
L 109.919809 221.8019 
L 110.11854 222.692207 
L 110.340039 223.582514 
L 110.606783 224.472821 
L 110.939309 225.363128 
L 111.350864 226.253435 
L 111.849491 227.143742 
L 112.446144 228.034049 
L 113.158698 228.924356 
L 114.00223 229.814663 
L 114.968336 230.70497 
L 116.010945 231.595277 
L 117.057794 232.485584 
L 118.048759 233.375891 
L 118.977054 234.266198 
L 119.901095 235.156505 
L 120.914656 236.046812 
L 122.09436 236.937119 
L 123.459617 237.827426 
L 124.96977 238.717733 
L 126.556539 239.60804 
L 128.165841 240.498347 
L 129.77792 241.388654 
L 131.393716 242.278961 
L 133.004431 243.169268 
L 134.574456 244.059575 
L 136.052169 244.949882 
L 137.39509 245.840189 
L 138.584899 246.730496 
L 139.623884 247.620803 
L 140.525424 248.51111 
L 141.3106 249.401417 
L 142.004666 250.291724 
L 142.621227 251.182031 
L 143.140755 252.072338 
L 143.507674 252.962645 
L 143.657623 253.852952 
L 143.555811 254.743259 
L 143.215713 255.633566 
L 142.686232 256.523873 
L 142.020345 257.41418 
L 141.246952 258.304487 
L 140.362244 259.194794 
L 139.345227 260.085101 
L 138.185828 260.975408 
L 136.902192 261.865715 
L 135.532033 262.756022 
L 134.107713 263.646329 
L 132.639082 264.536636 
L 131.116288 265.426943 
L 129.524372 266.31725 
L 127.857007 267.207557 
L 126.126183 268.097864 
L 124.369187 268.988171 
L 122.648729 269.878478 
L 121.039154 270.768785 
L 119.600341 271.659092 
L 118.353865 272.549399 
L 117.278804 273.439706 
L 116.331382 274.330013 
L 115.473828 275.22032 
L 114.691097 276.110627 
L 113.986312 277.000933 
L 113.364187 277.89124 
L 112.818576 278.781547 
L 112.332016 279.671854 
L 111.88378 280.562161 
L 111.458945 281.452468 
L 111.053693 282.342775 
L 110.675035 283.233082 
L 110.334931 284.123389 
L 110.041425 285.013696 
L 109.792386 285.904003 
L 109.576531 286.79431 
L 109.38083 287.684617 
L 109.198271 288.574924 
L 109.030278 289.465231 
L 108.883175 290.355538 
L 108.762487 291.245845 
L 108.669054 292.136152 
L 108.598315 293.026459 
L 108.542119 293.916766 
L 108.491884 294.807073 
L 108.441739 295.69738 
L 108.390177 296.587687 
L 108.339469 297.477994 
z
" clip-path="url(#p4c5c38eb24)" style="fill: #2a2eec; fill-opacity: 0.5"/>
   </g>
   <g id="PolyCollection_2">
    <path d="M 462.942823 190.95011 
L 462.845557 190.95011 
L 462.846189 189.966545 
L 462.849694 188.982979 
L 462.851724 187.999413 
L 462.849663 187.015848 
L 462.844433 186.032282 
L 462.839077 185.048716 
L 462.835557 184.06515 
L 462.832871 183.081585 
L 462.828077 182.098019 
L 462.818687 181.114453 
L 462.803827 180.130888 
L 462.783762 179.147322 
L 462.759293 178.163756 
L 462.73149 177.18019 
L 462.700165 176.196625 
L 462.660494 175.213059 
L 462.600508 174.229493 
L 462.503166 173.245928 
L 462.353371 172.262362 
L 462.145975 171.278796 
L 461.889762 170.29523 
L 461.604747 169.311665 
L 461.313563 168.328099 
L 461.030442 167.344533 
L 460.752884 166.360967 
L 460.460442 165.377402 
L 460.121372 164.393836 
L 459.70359 163.41027 
L 459.184757 162.426705 
L 458.558238 161.443139 
L 457.834405 160.459573 
L 457.036786 159.476007 
L 456.190688 158.492442 
L 455.304122 157.508876 
L 454.349698 156.52531 
L 453.263943 155.541745 
L 451.975414 154.558179 
L 450.452529 153.574613 
L 448.739741 152.591047 
L 446.950472 151.607482 
L 445.216162 150.623916 
L 443.626125 149.64035 
L 442.195241 148.656785 
L 440.867614 147.673219 
L 439.542856 146.689653 
L 438.116611 145.706087 
L 436.533369 144.722522 
L 434.833271 143.738956 
L 433.153739 142.75539 
L 431.663169 141.771825 
L 430.462541 140.788259 
L 429.534722 139.804693 
L 428.788913 138.821127 
L 428.160269 137.837562 
L 427.674322 136.853996 
L 427.42346 135.87043 
L 427.480704 134.886864 
L 427.82181 133.903299 
L 428.318347 132.919733 
L 428.816453 131.936167 
L 429.252744 130.952602 
L 429.721309 129.969036 
L 430.432519 128.98547 
L 431.583718 128.001904 
L 433.231508 127.018339 
L 435.256231 126.034773 
L 437.436247 125.051207 
L 439.563739 124.067642 
L 441.514293 123.084076 
L 443.244046 122.10051 
L 444.757933 121.116944 
L 446.095493 120.133379 
L 447.329959 119.149813 
L 448.547777 118.166247 
L 449.804798 117.182682 
L 451.09558 116.199116 
L 452.36656 115.21555 
L 453.561173 114.231984 
L 454.658469 113.248419 
L 455.67862 112.264853 
L 456.657044 111.281287 
L 457.609206 110.297721 
L 458.512273 109.314156 
L 459.316335 108.33059 
L 459.97518 107.347024 
L 460.473198 106.363459 
L 460.831145 105.379893 
L 461.09071 104.396327 
L 461.29187 103.412761 
L 461.4589 102.429196 
L 461.600898 101.44563 
L 461.720328 100.462064 
L 461.819837 99.478499 
L 461.90456 98.494933 
L 461.983063 97.511367 
L 462.067735 96.527801 
L 462.171305 95.544236 
L 462.299106 94.56067 
L 462.44328 93.577104 
L 463.345099 93.577104 
L 463.345099 93.577104 
L 463.489273 94.56067 
L 463.617074 95.544236 
L 463.720644 96.527801 
L 463.805317 97.511367 
L 463.883819 98.494933 
L 463.968542 99.478499 
L 464.068051 100.462064 
L 464.187481 101.44563 
L 464.329479 102.429196 
L 464.496509 103.412761 
L 464.69767 104.396327 
L 464.957234 105.379893 
L 465.315181 106.363459 
L 465.8132 107.347024 
L 466.472044 108.33059 
L 467.276107 109.314156 
L 468.179173 110.297721 
L 469.131335 111.281287 
L 470.10976 112.264853 
L 471.12991 113.248419 
L 472.227206 114.231984 
L 473.42182 115.21555 
L 474.692799 116.199116 
L 475.983581 117.182682 
L 477.240602 118.166247 
L 478.458421 119.149813 
L 479.692886 120.133379 
L 481.030446 121.116944 
L 482.544333 122.10051 
L 484.274086 123.084076 
L 486.22464 124.067642 
L 488.352133 125.051207 
L 490.532149 126.034773 
L 492.556871 127.018339 
L 494.204661 128.001904 
L 495.35586 128.98547 
L 496.067071 129.969036 
L 496.535635 130.952602 
L 496.971926 131.936167 
L 497.470032 132.919733 
L 497.966569 133.903299 
L 498.307675 134.886864 
L 498.364919 135.87043 
L 498.114058 136.853996 
L 497.62811 137.837562 
L 496.999466 138.821127 
L 496.253658 139.804693 
L 495.325838 140.788259 
L 494.12521 141.771825 
L 492.63464 142.75539 
L 490.955109 143.738956 
L 489.25501 144.722522 
L 487.671769 145.706087 
L 486.245524 146.689653 
L 484.920766 147.673219 
L 483.593138 148.656785 
L 482.162255 149.64035 
L 480.572217 150.623916 
L 478.837907 151.607482 
L 477.048638 152.591047 
L 475.33585 153.574613 
L 473.812966 154.558179 
L 472.524437 155.541745 
L 471.438681 156.52531 
L 470.484258 157.508876 
L 469.597692 158.492442 
L 468.751593 159.476007 
L 467.953974 160.459573 
L 467.230141 161.443139 
L 466.603622 162.426705 
L 466.084789 163.41027 
L 465.667007 164.393836 
L 465.327937 165.377402 
L 465.035495 166.360967 
L 464.757937 167.344533 
L 464.474816 168.328099 
L 464.183633 169.311665 
L 463.898617 170.29523 
L 463.642404 171.278796 
L 463.435009 172.262362 
L 463.285213 173.245928 
L 463.187871 174.229493 
L 463.127885 175.213059 
L 463.088214 176.196625 
L 463.056889 177.18019 
L 463.029086 178.163756 
L 463.004617 179.147322 
L 462.984552 180.130888 
L 462.969693 181.114453 
L 462.960302 182.098019 
L 462.955509 183.081585 
L 462.952822 184.06515 
L 462.949302 185.048716 
L 462.943946 186.032282 
L 462.938716 187.015848 
L 462.936656 187.999413 
L 462.938685 188.982979 
L 462.94219 189.966545 
L 462.942823 190.95011 
z
" clip-path="url(#p4c5c38eb24)" style="fill: #2a2eec; fill-opacity: 0.5"/>
   </g>
   <g id="PolyCollection_3">
    <path d="M 108.236686 281.892969 
L 108.137099 281.892969 
L 108.134065 280.844777 
L 108.13016 279.796585 
L 108.117964 278.748394 
L 108.090714 277.700202 
L 108.044412 276.652011 
L 107.978943 275.603819 
L 107.900198 274.555627 
L 107.82187 273.507436 
L 107.7618 272.459244 
L 107.731174 271.411053 
L 107.723864 270.362861 
L 107.716116 269.31467 
L 107.678105 268.266478 
L 107.587472 267.218286 
L 107.434001 266.170095 
L 107.215397 265.121903 
L 106.93356 264.073712 
L 106.596264 263.02552 
L 106.217508 261.977328 
L 105.80967 260.929137 
L 105.373471 259.880945 
L 104.89756 258.832754 
L 104.368655 257.784562 
L 103.78119 256.736371 
L 103.137932 255.688179 
L 102.442514 254.639987 
L 101.688453 253.591796 
L 100.850352 252.543604 
L 99.887972 251.495413 
L 98.768857 250.447221 
L 97.491953 249.399029 
L 96.084861 248.350838 
L 94.578389 247.302646 
L 92.994392 246.254455 
L 91.362223 245.206263 
L 89.731574 244.158072 
L 88.147377 243.10988 
L 86.602174 242.061688 
L 85.016449 241.013497 
L 83.275993 239.965305 
L 81.309266 238.917114 
L 79.16181 237.868922 
L 77.020915 236.82073 
L 75.157192 235.772539 
L 73.798934 234.724347 
L 73.019118 233.676156 
L 72.71893 232.627964 
L 72.716163 231.579772 
L 72.868112 230.531581 
L 73.142881 229.483389 
L 73.596719 228.435198 
L 74.288534 227.387006 
L 75.218135 226.338815 
L 76.347811 225.290623 
L 77.664725 224.242431 
L 79.1839 223.19424 
L 80.869045 222.146048 
L 82.574519 221.097857 
L 84.111831 220.049665 
L 85.397329 219.001473 
L 86.527994 217.953282 
L 87.703802 216.90509 
L 89.075097 215.856899 
L 90.652021 214.808707 
L 92.331905 213.760516 
L 93.994154 212.712324 
L 95.575928 211.664132 
L 97.079459 210.615941 
L 98.526049 209.567749 
L 99.908788 208.519558 
L 101.181849 207.471366 
L 102.284311 206.423174 
L 103.172761 205.374983 
L 103.84176 204.326791 
L 104.326831 203.2786 
L 104.693601 202.230408 
L 105.017454 201.182217 
L 105.358015 200.134025 
L 105.737252 199.085833 
L 106.1346 198.037642 
L 106.505831 196.98945 
L 106.814248 195.941259 
L 107.051541 194.893067 
L 107.235532 193.844875 
L 107.392079 192.796684 
L 107.537799 191.748492 
L 107.67428 190.700301 
L 107.793851 189.652109 
L 107.889947 188.603918 
L 107.963329 187.555726 
L 108.019854 186.507534 
L 108.063905 185.459343 
L 108.095315 184.411151 
L 108.112429 183.36296 
L 108.116714 182.314768 
L 108.113746 181.266576 
L 108.11044 180.218385 
L 108.111903 179.170193 
L 108.120086 178.122002 
L 108.253699 178.122002 
L 108.253699 178.122002 
L 108.261883 179.170193 
L 108.263346 180.218385 
L 108.26004 181.266576 
L 108.257072 182.314768 
L 108.261357 183.36296 
L 108.278471 184.411151 
L 108.309881 185.459343 
L 108.353931 186.507534 
L 108.410457 187.555726 
L 108.483839 188.603918 
L 108.579935 189.652109 
L 108.699505 190.700301 
L 108.835987 191.748492 
L 108.981706 192.796684 
L 109.138253 193.844875 
L 109.322244 194.893067 
L 109.559537 195.941259 
L 109.867955 196.98945 
L 110.239186 198.037642 
L 110.636533 199.085833 
L 111.015771 200.134025 
L 111.356332 201.182217 
L 111.680185 202.230408 
L 112.046955 203.2786 
L 112.532026 204.326791 
L 113.201025 205.374983 
L 114.089475 206.423174 
L 115.191936 207.471366 
L 116.464997 208.519558 
L 117.847737 209.567749 
L 119.294327 210.615941 
L 120.797858 211.664132 
L 122.379632 212.712324 
L 124.041881 213.760516 
L 125.721764 214.808707 
L 127.298689 215.856899 
L 128.669984 216.90509 
L 129.845792 217.953282 
L 130.976457 219.001473 
L 132.261954 220.049665 
L 133.799267 221.097857 
L 135.504741 222.146048 
L 137.189885 223.19424 
L 138.70906 224.242431 
L 140.025974 225.290623 
L 141.155651 226.338815 
L 142.085251 227.387006 
L 142.777067 228.435198 
L 143.230905 229.483389 
L 143.505673 230.531581 
L 143.657623 231.579772 
L 143.654856 232.627964 
L 143.354668 233.676156 
L 142.574851 234.724347 
L 141.216594 235.772539 
L 139.352871 236.82073 
L 137.211975 237.868922 
L 135.06452 238.917114 
L 133.097793 239.965305 
L 131.357336 241.013497 
L 129.771611 242.061688 
L 128.226409 243.10988 
L 126.642212 244.158072 
L 125.011563 245.206263 
L 123.379394 246.254455 
L 121.795397 247.302646 
L 120.288924 248.350838 
L 118.881832 249.399029 
L 117.604929 250.447221 
L 116.485814 251.495413 
L 115.523434 252.543604 
L 114.685333 253.591796 
L 113.931271 254.639987 
L 113.235853 255.688179 
L 112.592596 256.736371 
L 112.005131 257.784562 
L 111.476225 258.832754 
L 111.000315 259.880945 
L 110.564115 260.929137 
L 110.156278 261.977328 
L 109.777521 263.02552 
L 109.440226 264.073712 
L 109.158389 265.121903 
L 108.939784 266.170095 
L 108.786314 267.218286 
L 108.695681 268.266478 
L 108.65767 269.31467 
L 108.649922 270.362861 
L 108.642611 271.411053 
L 108.611986 272.459244 
L 108.551916 273.507436 
L 108.473588 274.555627 
L 108.394843 275.603819 
L 108.329374 276.652011 
L 108.283072 277.700202 
L 108.255822 278.748394 
L 108.243626 279.796585 
L 108.239721 280.844777 
L 108.236686 281.892969 
z
" clip-path="url(#p4c5c38eb24)" style="fill: #fa7c17; fill-opacity: 0.3"/>
   </g>
   <g id="PolyCollection_4">
    <path d="M 462.968684 109.789775 
L 462.819695 109.789775 
L 462.791474 108.892453 
L 462.746976 107.995132 
L 462.679627 107.097811 
L 462.588493 106.200489 
L 462.480681 105.303168 
L 462.369016 104.405847 
L 462.26546 103.508525 
L 462.173792 102.611204 
L 462.086115 101.713883 
L 461.985831 100.816561 
L 461.855653 99.91924 
L 461.685872 99.021919 
L 461.478268 98.124597 
L 461.244361 97.227276 
L 460.99957 96.329955 
L 460.755225 95.432633 
L 460.510427 94.535312 
L 460.247373 93.637991 
L 459.934677 92.740669 
L 459.539496 91.843348 
L 459.042467 90.946027 
L 458.445814 90.048705 
L 457.768376 89.151384 
L 457.029915 88.254063 
L 456.235161 87.356741 
L 455.369164 86.45942 
L 454.407514 85.562099 
L 453.33392 84.664778 
L 452.153185 83.767456 
L 450.892036 82.870135 
L 449.58678 81.972814 
L 448.261285 81.075492 
L 446.905066 80.178171 
L 445.468297 79.28085 
L 443.886661 78.383528 
L 442.128204 77.486207 
L 440.233172 76.588886 
L 438.318837 75.691564 
L 436.5444 74.794243 
L 435.053745 73.896922 
L 433.921695 72.9996 
L 433.126999 72.102279 
L 432.566371 71.204958 
L 432.103803 70.307636 
L 431.625874 69.410315 
L 431.071123 68.512994 
L 430.427447 67.615672 
L 429.717687 66.718351 
L 428.99162 65.82103 
L 428.321628 64.923708 
L 427.790706 64.026387 
L 427.473721 63.129066 
L 427.42346 62.231744 
L 427.666374 61.334423 
L 428.203111 60.437102 
L 429.013127 59.53978 
L 430.069476 58.642459 
L 431.359177 57.745138 
L 432.887643 56.847816 
L 434.652663 55.950495 
L 436.604364 55.053174 
L 438.626953 54.155852 
L 440.56343 53.258531 
L 442.272634 52.36121 
L 443.687143 51.463888 
L 444.840699 50.566567 
L 445.84976 49.669246 
L 446.85793 48.771924 
L 447.973069 47.874603 
L 449.230647 46.977282 
L 450.598226 46.079961 
L 452.007979 45.182639 
L 453.389394 44.285318 
L 454.683396 43.387997 
L 455.840891 42.490675 
L 456.821617 41.593354 
L 457.603529 40.696033 
L 458.197682 39.798711 
L 458.653923 38.90139 
L 459.046701 38.004069 
L 459.444679 37.106747 
L 459.881274 36.209426 
L 460.344333 35.312105 
L 460.790201 34.414783 
L 461.171545 33.517462 
L 461.461672 32.620141 
L 461.663541 31.722819 
L 461.802446 30.825498 
L 461.910131 29.928177 
L 462.01056 29.030855 
L 462.113764 28.133534 
L 462.217804 27.236213 
L 462.314927 26.338891 
L 462.397847 25.44157 
L 462.463835 24.544249 
L 462.515773 23.646927 
L 462.560463 22.749606 
L 462.605312 21.852285 
L 462.654909 20.954963 
L 463.13347 20.954963 
L 463.13347 20.954963 
L 463.183067 21.852285 
L 463.227917 22.749606 
L 463.272607 23.646927 
L 463.324544 24.544249 
L 463.390532 25.44157 
L 463.473453 26.338891 
L 463.570575 27.236213 
L 463.674616 28.133534 
L 463.777819 29.030855 
L 463.878249 29.928177 
L 463.985933 30.825498 
L 464.124838 31.722819 
L 464.326707 32.620141 
L 464.616834 33.517462 
L 464.998178 34.414783 
L 465.444046 35.312105 
L 465.907105 36.209426 
L 466.3437 37.106747 
L 466.741678 38.004069 
L 467.134456 38.90139 
L 467.590697 39.798711 
L 468.18485 40.696033 
L 468.966762 41.593354 
L 469.947488 42.490675 
L 471.104984 43.387997 
L 472.398986 44.285318 
L 473.7804 45.182639 
L 475.190154 46.079961 
L 476.557732 46.977282 
L 477.815311 47.874603 
L 478.930449 48.771924 
L 479.938619 49.669246 
L 480.94768 50.566567 
L 482.101236 51.463888 
L 483.515745 52.36121 
L 485.224949 53.258531 
L 487.161427 54.155852 
L 489.184015 55.053174 
L 491.135716 55.950495 
L 492.900736 56.847816 
L 494.429202 57.745138 
L 495.718903 58.642459 
L 496.775252 59.53978 
L 497.585268 60.437102 
L 498.122005 61.334423 
L 498.364919 62.231744 
L 498.314658 63.129066 
L 497.997673 64.026387 
L 497.466752 64.923708 
L 496.796759 65.82103 
L 496.070692 66.718351 
L 495.360932 67.615672 
L 494.717256 68.512994 
L 494.162505 69.410315 
L 493.684576 70.307636 
L 493.222009 71.204958 
L 492.66138 72.102279 
L 491.866684 72.9996 
L 490.734634 73.896922 
L 489.243979 74.794243 
L 487.469543 75.691564 
L 485.555207 76.588886 
L 483.660175 77.486207 
L 481.901719 78.383528 
L 480.320082 79.28085 
L 478.883313 80.178171 
L 477.527094 81.075492 
L 476.201599 81.972814 
L 474.896343 82.870135 
L 473.635194 83.767456 
L 472.454459 84.664778 
L 471.380866 85.562099 
L 470.419216 86.45942 
L 469.553218 87.356741 
L 468.758464 88.254063 
L 468.020003 89.151384 
L 467.342565 90.048705 
L 466.745913 90.946027 
L 466.248884 91.843348 
L 465.853702 92.740669 
L 465.541006 93.637991 
L 465.277952 94.535312 
L 465.033155 95.432633 
L 464.78881 96.329955 
L 464.544018 97.227276 
L 464.310112 98.124597 
L 464.102507 99.021919 
L 463.932726 99.91924 
L 463.802548 100.816561 
L 463.702264 101.713883 
L 463.614587 102.611204 
L 463.52292 103.508525 
L 463.419364 104.405847 
L 463.307699 105.303168 
L 463.199887 106.200489 
L 463.108752 107.097811 
L 463.041403 107.995132 
L 462.996905 108.892453 
L 462.968684 109.789775 
z
" clip-path="url(#p4c5c38eb24)" style="fill: #fa7c17; fill-opacity: 0.3"/>
   </g>
   <g id="PolyCollection_5">
    <path d="M 463.011364 159.638356 
L 462.777016 159.638356 
L 462.74424 158.655035 
L 462.703378 157.671713 
L 462.64839 156.688392 
L 462.575166 155.70507 
L 462.483539 154.721748 
L 462.376238 153.738427 
L 462.256312 152.755105 
L 462.125544 151.771783 
L 461.984526 150.788462 
L 461.833232 149.80514 
L 461.67105 148.821819 
L 461.496066 147.838497 
L 461.303545 146.855175 
L 461.084153 145.871854 
L 460.823813 144.888532 
L 460.507408 143.90521 
L 460.125886 142.921889 
L 459.682193 141.938567 
L 459.189989 140.955246 
L 458.663472 139.971924 
L 458.104638 138.988602 
L 457.498327 138.005281 
L 456.819331 137.021959 
L 456.044269 136.038637 
L 455.156732 135.055316 
L 454.143527 134.071994 
L 452.991633 133.088673 
L 451.693949 132.105351 
L 450.258494 131.122029 
L 448.709255 130.138708 
L 447.077356 129.155386 
L 445.392997 128.172064 
L 443.683266 127.188743 
L 441.967443 126.205421 
L 440.245112 125.2221 
L 438.492229 124.238778 
L 436.683392 123.255456 
L 434.830606 122.272135 
L 433.003711 121.288813 
L 431.312078 120.305491 
L 429.864568 119.32217 
L 428.738563 118.338848 
L 427.969084 117.355527 
L 427.547872 116.372205 
L 427.42346 115.388883 
L 427.506093 114.405562 
L 427.686177 113.42224 
L 427.866318 112.438918 
L 427.993726 111.455597 
L 428.074691 110.472275 
L 428.162654 109.488954 
L 428.329328 108.505632 
L 428.639445 107.52231 
L 429.143425 106.538989 
L 429.881964 105.555667 
L 430.881255 104.572345 
L 432.128265 103.589024 
L 433.547557 102.605702 
L 435.017726 101.622381 
L 436.436159 100.639059 
L 437.787121 99.655737 
L 439.150008 98.672416 
L 440.631238 97.689094 
L 442.272802 96.705772 
L 444.012598 95.722451 
L 445.725286 94.739129 
L 447.304767 93.755808 
L 448.722015 92.772486 
L 450.021278 91.789164 
L 451.269263 90.805843 
L 452.501423 89.822521 
L 453.701019 88.839199 
L 454.817037 87.855878 
L 455.801523 86.872556 
L 456.638837 85.889235 
L 457.348994 84.905913 
L 457.96721 83.922591 
L 458.518924 82.93927 
L 459.010735 81.955948 
L 459.441553 80.972626 
L 459.819392 79.989305 
L 460.165536 79.005983 
L 460.502412 78.022662 
L 460.838364 77.03934 
L 461.164091 76.056018 
L 461.462251 75.072697 
L 461.719976 74.089375 
L 461.934709 73.106054 
L 462.112162 72.122732 
L 462.260749 71.13941 
L 462.38685 70.156089 
L 462.493017 69.172767 
L 462.579271 68.189445 
L 462.64595 67.206124 
L 462.69563 66.222802 
L 462.732756 65.239481 
L 462.761927 64.256159 
L 462.786622 63.272837 
L 462.808951 62.289516 
L 462.979428 62.289516 
L 462.979428 62.289516 
L 463.001757 63.272837 
L 463.026452 64.256159 
L 463.055624 65.239481 
L 463.092749 66.222802 
L 463.142429 67.206124 
L 463.209109 68.189445 
L 463.295363 69.172767 
L 463.401529 70.156089 
L 463.527631 71.13941 
L 463.676217 72.122732 
L 463.85367 73.106054 
L 464.068403 74.089375 
L 464.326128 75.072697 
L 464.624288 76.056018 
L 464.950015 77.03934 
L 465.285967 78.022662 
L 465.622843 79.005983 
L 465.968988 79.989305 
L 466.346827 80.972626 
L 466.777644 81.955948 
L 467.269455 82.93927 
L 467.82117 83.922591 
L 468.439385 84.905913 
L 469.149542 85.889235 
L 469.986856 86.872556 
L 470.971342 87.855878 
L 472.08736 88.839199 
L 473.286956 89.822521 
L 474.519116 90.805843 
L 475.767101 91.789164 
L 477.066364 92.772486 
L 478.483613 93.755808 
L 480.063094 94.739129 
L 481.775782 95.722451 
L 483.515577 96.705772 
L 485.157141 97.689094 
L 486.638371 98.672416 
L 488.001258 99.655737 
L 489.35222 100.639059 
L 490.770653 101.622381 
L 492.240823 102.605702 
L 493.660115 103.589024 
L 494.907124 104.572345 
L 495.906415 105.555667 
L 496.644954 106.538989 
L 497.148934 107.52231 
L 497.459051 108.505632 
L 497.625726 109.488954 
L 497.713689 110.472275 
L 497.794653 111.455597 
L 497.922061 112.438918 
L 498.102202 113.42224 
L 498.282286 114.405562 
L 498.364919 115.388883 
L 498.240507 116.372205 
L 497.819295 117.355527 
L 497.049816 118.338848 
L 495.923812 119.32217 
L 494.476301 120.305491 
L 492.784668 121.288813 
L 490.957773 122.272135 
L 489.104987 123.255456 
L 487.29615 124.238778 
L 485.543267 125.2221 
L 483.820936 126.205421 
L 482.105113 127.188743 
L 480.395382 128.172064 
L 478.711023 129.155386 
L 477.079125 130.138708 
L 475.529885 131.122029 
L 474.09443 132.105351 
L 472.796746 133.088673 
L 471.644852 134.071994 
L 470.631647 135.055316 
L 469.74411 136.038637 
L 468.969048 137.021959 
L 468.290052 138.005281 
L 467.683741 138.988602 
L 467.124907 139.971924 
L 466.59839 140.955246 
L 466.106186 141.938567 
L 465.662493 142.921889 
L 465.280971 143.90521 
L 464.964566 144.888532 
L 464.704226 145.871854 
L 464.484834 146.855175 
L 464.292314 147.838497 
L 464.117329 148.821819 
L 463.955148 149.80514 
L 463.803853 150.788462 
L 463.662836 151.771783 
L 463.532068 152.755105 
L 463.412141 153.738427 
L 463.304841 154.721748 
L 463.213214 155.70507 
L 463.13999 156.688392 
L 463.085001 157.671713 
L 463.044139 158.655035 
L 463.011364 159.638356 
z
" clip-path="url(#p4c5c38eb24)" style="fill: #328c06; fill-opacity: 0.3"/>
   </g>
   <g id="line2d_23">
    <path d="M 108.186893 255.382334 
L 462.89419 122.248388 
" clip-path="url(#p4c5c38eb24)" style="fill: none; stroke: #2a2eec; stroke-opacity: 0.25; stroke-width: 1.5; stroke-linecap: round"/>
   </g>
   <g id="line2d_24">
    <path d="M 108.186893 232.025198 
L 462.89419 135.729404 
" clip-path="url(#p4c5c38eb24)" style="fill: none; stroke: #2a2eec; stroke-opacity: 0.25; stroke-width: 1.5; stroke-linecap: round"/>
   </g>
   <g id="line2d_25">
    <path d="M 108.186893 252.154251 
L 462.89419 147.770004 
" clip-path="url(#p4c5c38eb24)" style="fill: none; stroke: #2a2eec; stroke-opacity: 0.25; stroke-width: 1.5; stroke-linecap: round"/>
   </g>
   <g id="line2d_26">
    <path d="M 108.186893 271.976585 
L 462.89419 116.728804 
" clip-path="url(#p4c5c38eb24)" style="fill: none; stroke: #2a2eec; stroke-opacity: 0.25; stroke-width: 1.5; stroke-linecap: round"/>
   </g>
   <g id="line2d_27">
    <path d="M 108.186893 238.230266 
L 462.89419 127.279423 
" clip-path="url(#p4c5c38eb24)" style="fill: none; stroke: #2a2eec; stroke-opacity: 0.25; stroke-width: 1.5; stroke-linecap: round"/>
   </g>
   <g id="line2d_28">
    <path d="M 108.186893 265.769966 
L 462.89419 144.281056 
" clip-path="url(#p4c5c38eb24)" style="fill: none; stroke: #2a2eec; stroke-opacity: 0.25; stroke-width: 1.5; stroke-linecap: round"/>
   </g>
   <g id="line2d_29">
    <path d="M 108.186893 249.92762 
L 462.89419 143.843423 
" clip-path="url(#p4c5c38eb24)" style="fill: none; stroke: #2a2eec; stroke-opacity: 0.25; stroke-width: 1.5; stroke-linecap: round"/>
   </g>
   <g id="line2d_30">
    <path d="M 108.186893 259.870332 
L 462.89419 155.89545 
" clip-path="url(#p4c5c38eb24)" style="fill: none; stroke: #2a2eec; stroke-opacity: 0.25; stroke-width: 1.5; stroke-linecap: round"/>
   </g>
   <g id="line2d_31">
    <path d="M 108.186893 260.446737 
L 462.89419 111.491477 
" clip-path="url(#p4c5c38eb24)" style="fill: none; stroke: #2a2eec; stroke-opacity: 0.25; stroke-width: 1.5; stroke-linecap: round"/>
   </g>
   <g id="line2d_32">
    <path d="M 108.186893 248.294934 
L 462.89419 146.919876 
" clip-path="url(#p4c5c38eb24)" style="fill: none; stroke: #2a2eec; stroke-opacity: 0.25; stroke-width: 1.5; stroke-linecap: round"/>
   </g>
   <g id="line2d_33">
    <path d="M 108.186893 238.577702 
L 462.89419 76.492615 
" clip-path="url(#p4c5c38eb24)" style="fill: none; stroke: #fa7c17; stroke-opacity: 0.25; stroke-width: 1.5; stroke-linecap: round"/>
   </g>
   <g id="line2d_34">
    <path d="M 108.186893 237.951645 
L 462.89419 59.213641 
" clip-path="url(#p4c5c38eb24)" style="fill: none; stroke: #fa7c17; stroke-opacity: 0.25; stroke-width: 1.5; stroke-linecap: round"/>
   </g>
   <g id="line2d_35">
    <path d="M 108.186893 228.7701 
L 462.89419 79.098504 
" clip-path="url(#p4c5c38eb24)" style="fill: none; stroke: #fa7c17; stroke-opacity: 0.25; stroke-width: 1.5; stroke-linecap: round"/>
   </g>
   <g id="line2d_36">
    <path d="M 108.186893 223.910051 
L 462.89419 73.12402 
" clip-path="url(#p4c5c38eb24)" style="fill: none; stroke: #fa7c17; stroke-opacity: 0.25; stroke-width: 1.5; stroke-linecap: round"/>
   </g>
   <g id="line2d_37">
    <path d="M 108.186893 227.380686 
L 462.89419 50.410646 
" clip-path="url(#p4c5c38eb24)" style="fill: none; stroke: #fa7c17; stroke-opacity: 0.25; stroke-width: 1.5; stroke-linecap: round"/>
   </g>
   <g id="line2d_38">
    <path d="M 108.186893 225.281958 
L 462.89419 60.068593 
" clip-path="url(#p4c5c38eb24)" style="fill: none; stroke: #fa7c17; stroke-opacity: 0.25; stroke-width: 1.5; stroke-linecap: round"/>
   </g>
   <g id="line2d_39">
    <path d="M 108.186893 227.199674 
L 462.89419 52.224441 
" clip-path="url(#p4c5c38eb24)" style="fill: none; stroke: #fa7c17; stroke-opacity: 0.25; stroke-width: 1.5; stroke-linecap: round"/>
   </g>
   <g id="line2d_40">
    <path d="M 108.186893 235.114332 
L 462.89419 56.828018 
" clip-path="url(#p4c5c38eb24)" style="fill: none; stroke: #fa7c17; stroke-opacity: 0.25; stroke-width: 1.5; stroke-linecap: round"/>
   </g>
   <g id="line2d_41">
    <path d="M 108.186893 238.911943 
L 462.89419 61.764219 
" clip-path="url(#p4c5c38eb24)" style="fill: none; stroke: #fa7c17; stroke-opacity: 0.25; stroke-width: 1.5; stroke-linecap: round"/>
   </g>
   <g id="line2d_42">
    <path d="M 108.186893 217.597504 
L 462.89419 74.400643 
" clip-path="url(#p4c5c38eb24)" style="fill: none; stroke: #fa7c17; stroke-opacity: 0.25; stroke-width: 1.5; stroke-linecap: round"/>
   </g>
   <g id="line2d_43"/>
   <g id="line2d_44"/>
   <g id="LineCollection_1">
    <path d="M 90.451528 209.337603 
L 125.922258 209.337603 
" clip-path="url(#p4c5c38eb24)" style="fill: none; stroke: #2a2eec; stroke-width: 1.5"/>
    <path d="M 445.158825 93.577104 
L 480.629554 93.577104 
" clip-path="url(#p4c5c38eb24)" style="fill: none; stroke: #2a2eec; stroke-width: 1.5"/>
   </g>
   <g id="LineCollection_2">
    <path d="M 90.451528 297.477994 
L 125.922258 297.477994 
" clip-path="url(#p4c5c38eb24)" style="fill: none; stroke: #2a2eec; stroke-width: 1.5"/>
    <path d="M 445.158825 190.95011 
L 480.629554 190.95011 
" clip-path="url(#p4c5c38eb24)" style="fill: none; stroke: #2a2eec; stroke-width: 1.5"/>
   </g>
   <g id="LineCollection_3">
    <path d="M 108.186893 297.477994 
L 108.186893 209.337603 
" clip-path="url(#p4c5c38eb24)" style="fill: none; stroke: #2a2eec; stroke-width: 1.5"/>
    <path d="M 462.89419 190.95011 
L 462.89419 93.577104 
" clip-path="url(#p4c5c38eb24)" style="fill: none; stroke: #2a2eec; stroke-width: 1.5"/>
   </g>
   <g id="LineCollection_4">
    <path d="M 90.451528 178.122002 
L 125.922258 178.122002 
" clip-path="url(#p4c5c38eb24)" style="fill: none; stroke: #fa7c17; stroke-width: 1.5"/>
    <path d="M 445.158825 20.954963 
L 480.629554 20.954963 
" clip-path="url(#p4c5c38eb24)" style="fill: none; stroke: #fa7c17; stroke-width: 1.5"/>
   </g>
   <g id="LineCollection_5">
    <path d="M 90.451528 281.892969 
L 125.922258 281.892969 
" clip-path="url(#p4c5c38eb24)" style="fill: none; stroke: #fa7c17; stroke-width: 1.5"/>
    <path d="M 445.158825 109.789775 
L 480.629554 109.789775 
" clip-path="url(#p4c5c38eb24)" style="fill: none; stroke: #fa7c17; stroke-width: 1.5"/>
   </g>
   <g id="LineCollection_6">
    <path d="M 108.186893 281.892969 
L 108.186893 178.122002 
" clip-path="url(#p4c5c38eb24)" style="fill: none; stroke: #fa7c17; stroke-width: 1.5"/>
    <path d="M 462.89419 109.789775 
L 462.89419 20.954963 
" clip-path="url(#p4c5c38eb24)" style="fill: none; stroke: #fa7c17; stroke-width: 1.5"/>
   </g>
   <g id="LineCollection_7">
    <path d="M 445.158825 62.289516 
L 480.629554 62.289516 
" clip-path="url(#p4c5c38eb24)" style="fill: none; stroke: #328c06; stroke-width: 1.5"/>
   </g>
   <g id="LineCollection_8">
    <path d="M 445.158825 159.638356 
L 480.629554 159.638356 
" clip-path="url(#p4c5c38eb24)" style="fill: none; stroke: #328c06; stroke-width: 1.5"/>
   </g>
   <g id="LineCollection_9">
    <path d="M 462.89419 159.638356 
L 462.89419 62.289516 
" clip-path="url(#p4c5c38eb24)" style="fill: none; stroke: #328c06; stroke-width: 1.5"/>
   </g>
   <g id="patch_3">
    <path d="M 51.433725 311.304146 
L 51.433725 7.128812 
" style="fill: none"/>
   </g>
   <g id="patch_4">
    <path d="M 519.647357 311.304146 
L 519.647357 7.128812 
" style="fill: none"/>
   </g>
   <g id="patch_5">
    <path d="M 51.433725 311.304146 
L 519.647357 311.304146 
" style="fill: none"/>
   </g>
   <g id="patch_6">
    <path d="M 51.433725 7.128812 
L 519.647357 7.128812 
" style="fill: none"/>
   </g>
   <g id="legend_1">
    <g id="line2d_45">
     <path d="M 62.233725 22.846937 
L 74.233725 22.846937 
L 86.233725 22.846937 
" style="fill: none; stroke: #2a2eec; stroke-width: 1.5; stroke-linecap: round"/>
    </g>
    <g id="text_14">
     <!-- 0 -->
     <g style="fill: #262626" transform="translate(95.833725 27.046937) scale(0.12 -0.12)">
      <use xlink:href="#DejaVuSans-30"/>
     </g>
    </g>
    <g id="line2d_46">
     <path d="M 62.233725 40.460687 
L 74.233725 40.460687 
L 86.233725 40.460687 
" style="fill: none; stroke: #fa7c17; stroke-width: 1.5; stroke-linecap: round"/>
    </g>
    <g id="text_15">
     <!-- 1 -->
     <g style="fill: #262626" transform="translate(95.833725 44.660687) scale(0.12 -0.12)">
      <use xlink:href="#DejaVuSans-31"/>
     </g>
    </g>
   </g>
  </g>
 </g>
 <defs>
  <clipPath id="p4c5c38eb24">
   <rect x="51.433725" y="7.128812" width="468.213632" height="304.175334"/>
  </clipPath>
 </defs>
</svg>
