<?xml version="1.0" encoding="utf-8" standalone="no"?>
<!DOCTYPE svg PUBLIC "-//W3C//DTD SVG 1.1//EN"
  "http://www.w3.org/Graphics/SVG/1.1/DTD/svg11.dtd">
<svg xmlns:xlink="http://www.w3.org/1999/xlink" width="526.79952pt" height="353.99952pt" viewBox="0 0 526.79952 353.99952" xmlns="http://www.w3.org/2000/svg" version="1.1">
 <metadata>
  <rdf:RDF xmlns:dc="http://purl.org/dc/elements/1.1/" xmlns:cc="http://creativecommons.org/ns#" xmlns:rdf="http://www.w3.org/1999/02/22-rdf-syntax-ns#">
   <cc:Work>
    <dc:type rdf:resource="http://purl.org/dc/dcmitype/StillImage"/>
    <dc:date>2022-10-28T18:58:12.853028</dc:date>
    <dc:format>image/svg+xml</dc:format>
    <dc:creator>
     <cc:Agent>
      <dc:title>Matplotlib v3.6.1, https://matplotlib.org/</dc:title>
     </cc:Agent>
    </dc:creator>
   </cc:Work>
  </rdf:RDF>
 </metadata>
 <defs>
  <style type="text/css">*{stroke-linejoin: round; stroke-linecap: butt}</style>
 </defs>
 <g id="figure_1">
  <g id="patch_1">
   <path d="M 0 353.99952
L 526.79952 353.99952
L 526.79952 0
L 0 0
z
" style="fill: #ffffff"/>
  </g>
  <g id="axes_1">
   <g id="patch_2">
    <path d="M 51.433725 311.304146
L 519.647357 311.304146
L 519.647357 7.128812
L 51.433725 7.128812
z
" style="fill: #eeeeee"/>
   </g>
   <g id="matplotlib.axis_1">
    <g id="xtick_1">
     <g id="line2d_1">
      <path d="M 108.186893 311.304146
L 108.186893 7.128812
" clip-path="url(#p199836f8da)" style="fill: none; stroke: #ffffff; stroke-width: 0.8; stroke-linecap: round"/>
     </g>
     <g id="line2d_2"/>
     <g id="text_1">
      <!-- 0.0 -->
      <g style="fill: #262626" transform="translate(97.054705 325.441958) scale(0.14 -0.14)">
       <defs>
        <path id="DejaVuSans-30" d="M 2034 4250
Q 1547 4250 1301 3770
Q 1056 3291 1056 2328
Q 1056 1369 1301 889
Q 1547 409 2034 409
Q 2525 409 2770 889
Q 3016 1369 3016 2328
Q 3016 3291 2770 3770
Q 2525 4250 2034 4250
z
M 2034 4750
Q 2819 4750 3233 4129
Q 3647 3509 3647 2328
Q 3647 1150 3233 529
Q 2819 -91 2034 -91
Q 1250 -91 836 529
Q 422 1150 422 2328
Q 422 3509 836 4129
Q 1250 4750 2034 4750
z
" transform="scale(0.015625)"/>
        <path id="DejaVuSans-2e" d="M 684 794
L 1344 794
L 1344 0
L 684 0
L 684 794
z
" transform="scale(0.015625)"/>
       </defs>
       <use xlink:href="#DejaVuSans-30"/>
       <use xlink:href="#DejaVuSans-2e" x="63.623047"/>
       <use xlink:href="#DejaVuSans-30" x="95.410156"/>
      </g>
     </g>
    </g>
    <g id="xtick_2">
     <g id="line2d_3">
      <path d="M 179.128352 311.304146
L 179.128352 7.128812
" clip-path="url(#p199836f8da)" style="fill: none; stroke: #ffffff; stroke-width: 0.8; stroke-linecap: round"/>
     </g>
     <g id="line2d_4"/>
     <g id="text_2">
      <!-- 0.2 -->
      <g style="fill: #262626" transform="translate(167.996165 325.441958) scale(0.14 -0.14)">
       <defs>
        <path id="DejaVuSans-32" d="M 1228 531
L 3431 531
L 3431 0
L 469 0
L 469 531
Q 828 903 1448 1529
Q 2069 2156 2228 2338
Q 2531 2678 2651 2914
Q 2772 3150 2772 3378
Q 2772 3750 2511 3984
Q 2250 4219 1831 4219
Q 1534 4219 1204 4116
Q 875 4013 500 3803
L 500 4441
Q 881 4594 1212 4672
Q 1544 4750 1819 4750
Q 2544 4750 2975 4387
Q 3406 4025 3406 3419
Q 3406 3131 3298 2873
Q 3191 2616 2906 2266
Q 2828 2175 2409 1742
Q 1991 1309 1228 531
z
" transform="scale(0.015625)"/>
       </defs>
       <use xlink:href="#DejaVuSans-30"/>
       <use xlink:href="#DejaVuSans-2e" x="63.623047"/>
       <use xlink:href="#DejaVuSans-32" x="95.410156"/>
      </g>
     </g>
    </g>
    <g id="xtick_3">
     <g id="line2d_5">
      <path d="M 250.069812 311.304146
L 250.069812 7.128812
" clip-path="url(#p199836f8da)" style="fill: none; stroke: #ffffff; stroke-width: 0.8; stroke-linecap: round"/>
     </g>
     <g id="line2d_6"/>
     <g id="text_3">
      <!-- 0.4 -->
      <g style="fill: #262626" transform="translate(238.937624 325.441958) scale(0.14 -0.14)">
       <defs>
        <path id="DejaVuSans-34" d="M 2419 4116
L 825 1625
L 2419 1625
L 2419 4116
z
M 2253 4666
L 3047 4666
L 3047 1625
L 3713 1625
L 3713 1100
L 3047 1100
L 3047 0
L 2419 0
L 2419 1100
L 313 1100
L 313 1709
L 2253 4666
z
" transform="scale(0.015625)"/>
       </defs>
       <use xlink:href="#DejaVuSans-30"/>
       <use xlink:href="#DejaVuSans-2e" x="63.623047"/>
       <use xlink:href="#DejaVuSans-34" x="95.410156"/>
      </g>
     </g>
    </g>
    <g id="xtick_4">
     <g id="line2d_7">
      <path d="M 321.011271 311.304146
L 321.011271 7.128812
" clip-path="url(#p199836f8da)" style="fill: none; stroke: #ffffff; stroke-width: 0.8; stroke-linecap: round"/>
     </g>
     <g id="line2d_8"/>
     <g id="text_4">
      <!-- 0.6 -->
      <g style="fill: #262626" transform="translate(309.879083 325.441958) scale(0.14 -0.14)">
       <defs>
        <path id="DejaVuSans-36" d="M 2113 2584
Q 1688 2584 1439 2293
Q 1191 2003 1191 1497
Q 1191 994 1439 701
Q 1688 409 2113 409
Q 2538 409 2786 701
Q 3034 994 3034 1497
Q 3034 2003 2786 2293
Q 2538 2584 2113 2584
z
M 3366 4563
L 3366 3988
Q 3128 4100 2886 4159
Q 2644 4219 2406 4219
Q 1781 4219 1451 3797
Q 1122 3375 1075 2522
Q 1259 2794 1537 2939
Q 1816 3084 2150 3084
Q 2853 3084 3261 2657
Q 3669 2231 3669 1497
Q 3669 778 3244 343
Q 2819 -91 2113 -91
Q 1303 -91 875 529
Q 447 1150 447 2328
Q 447 3434 972 4092
Q 1497 4750 2381 4750
Q 2619 4750 2861 4703
Q 3103 4656 3366 4563
z
" transform="scale(0.015625)"/>
       </defs>
       <use xlink:href="#DejaVuSans-30"/>
       <use xlink:href="#DejaVuSans-2e" x="63.623047"/>
       <use xlink:href="#DejaVuSans-36" x="95.410156"/>
      </g>
     </g>
    </g>
    <g id="xtick_5">
     <g id="line2d_9">
      <path d="M 391.95273 311.304146
L 391.95273 7.128812
" clip-path="url(#p199836f8da)" style="fill: none; stroke: #ffffff; stroke-width: 0.8; stroke-linecap: round"/>
     </g>
     <g id="line2d_10"/>
     <g id="text_5">
      <!-- 0.8 -->
      <g style="fill: #262626" transform="translate(380.820543 325.441958) scale(0.14 -0.14)">
       <defs>
        <path id="DejaVuSans-38" d="M 2034 2216
Q 1584 2216 1326 1975
Q 1069 1734 1069 1313
Q 1069 891 1326 650
Q 1584 409 2034 409
Q 2484 409 2743 651
Q 3003 894 3003 1313
Q 3003 1734 2745 1975
Q 2488 2216 2034 2216
z
M 1403 2484
Q 997 2584 770 2862
Q 544 3141 544 3541
Q 544 4100 942 4425
Q 1341 4750 2034 4750
Q 2731 4750 3128 4425
Q 3525 4100 3525 3541
Q 3525 3141 3298 2862
Q 3072 2584 2669 2484
Q 3125 2378 3379 2068
Q 3634 1759 3634 1313
Q 3634 634 3220 271
Q 2806 -91 2034 -91
Q 1263 -91 848 271
Q 434 634 434 1313
Q 434 1759 690 2068
Q 947 2378 1403 2484
z
M 1172 3481
Q 1172 3119 1398 2916
Q 1625 2713 2034 2713
Q 2441 2713 2670 2916
Q 2900 3119 2900 3481
Q 2900 3844 2670 4047
Q 2441 4250 2034 4250
Q 1625 4250 1398 4047
Q 1172 3844 1172 3481
z
" transform="scale(0.015625)"/>
       </defs>
       <use xlink:href="#DejaVuSans-30"/>
       <use xlink:href="#DejaVuSans-2e" x="63.623047"/>
       <use xlink:href="#DejaVuSans-38" x="95.410156"/>
      </g>
     </g>
    </g>
    <g id="xtick_6">
     <g id="line2d_11">
      <path d="M 462.89419 311.304146
L 462.89419 7.128812
" clip-path="url(#p199836f8da)" style="fill: none; stroke: #ffffff; stroke-width: 0.8; stroke-linecap: round"/>
     </g>
     <g id="line2d_12"/>
     <g id="text_6">
      <!-- 1.0 -->
      <g style="fill: #262626" transform="translate(451.762002 325.441958) scale(0.14 -0.14)">
       <defs>
        <path id="DejaVuSans-31" d="M 794 531
L 1825 531
L 1825 4091
L 703 3866
L 703 4441
L 1819 4666
L 2450 4666
L 2450 531
L 3481 531
L 3481 0
L 794 0
L 794 531
z
" transform="scale(0.015625)"/>
       </defs>
       <use xlink:href="#DejaVuSans-31"/>
       <use xlink:href="#DejaVuSans-2e" x="63.623047"/>
       <use xlink:href="#DejaVuSans-30" x="95.410156"/>
      </g>
     </g>
    </g>
    <g id="text_7">
     <!-- t -->
     <g style="fill: #262626" transform="translate(282.600307 343.751177) scale(0.15 -0.15)">
      <defs>
       <path id="DejaVuSans-74" d="M 1172 4494
L 1172 3500
L 2356 3500
L 2356 3053
L 1172 3053
L 1172 1153
Q 1172 725 1289 603
Q 1406 481 1766 481
L 2356 481
L 2356 0
L 1766 0
Q 1100 0 847 248
Q 594 497 594 1153
L 594 3053
L 172 3053
L 172 3500
L 594 3500
L 594 4494
L 1172 4494
z
" transform="scale(0.015625)"/>
      </defs>
      <use xlink:href="#DejaVuSans-74"/>
     </g>
    </g>
   </g>
   <g id="matplotlib.axis_2">
    <g id="ytick_1">
     <g id="line2d_13">
      <path d="M 51.433725 302.853324
L 519.647357 302.853324
" clip-path="url(#p199836f8da)" style="fill: none; stroke: #ffffff; stroke-width: 0.8; stroke-linecap: round"/>
     </g>
     <g id="line2d_14"/>
     <g id="text_8">
      <!-- 0.5 -->
      <g style="fill: #262626" transform="translate(25.66935 308.17223) scale(0.14 -0.14)">
       <defs>
        <path id="DejaVuSans-35" d="M 691 4666
L 3169 4666
L 3169 4134
L 1269 4134
L 1269 2991
Q 1406 3038 1543 3061
Q 1681 3084 1819 3084
Q 2600 3084 3056 2656
Q 3513 2228 3513 1497
Q 3513 744 3044 326
Q 2575 -91 1722 -91
Q 1428 -91 1123 -41
Q 819 9 494 109
L 494 744
Q 775 591 1075 516
Q 1375 441 1709 441
Q 2250 441 2565 725
Q 2881 1009 2881 1497
Q 2881 1984 2565 2268
Q 2250 2553 1709 2553
Q 1456 2553 1204 2497
Q 953 2441 691 2322
L 691 4666
z
" transform="scale(0.015625)"/>
       </defs>
       <use xlink:href="#DejaVuSans-30"/>
       <use xlink:href="#DejaVuSans-2e" x="63.623047"/>
       <use xlink:href="#DejaVuSans-35" x="95.410156"/>
      </g>
     </g>
    </g>
    <g id="ytick_2">
     <g id="line2d_15">
      <path d="M 51.433725 248.926746
L 519.647357 248.926746
" clip-path="url(#p199836f8da)" style="fill: none; stroke: #ffffff; stroke-width: 0.8; stroke-linecap: round"/>
     </g>
     <g id="line2d_16"/>
     <g id="text_9">
      <!-- 1.0 -->
      <g style="fill: #262626" transform="translate(25.66935 254.245652) scale(0.14 -0.14)">
       <use xlink:href="#DejaVuSans-31"/>
       <use xlink:href="#DejaVuSans-2e" x="63.623047"/>
       <use xlink:href="#DejaVuSans-30" x="95.410156"/>
      </g>
     </g>
    </g>
    <g id="ytick_3">
     <g id="line2d_17">
      <path d="M 51.433725 195.000168
L 519.647357 195.000168
" clip-path="url(#p199836f8da)" style="fill: none; stroke: #ffffff; stroke-width: 0.8; stroke-linecap: round"/>
     </g>
     <g id="line2d_18"/>
     <g id="text_10">
      <!-- 1.5 -->
      <g style="fill: #262626" transform="translate(25.66935 200.319074) scale(0.14 -0.14)">
       <use xlink:href="#DejaVuSans-31"/>
       <use xlink:href="#DejaVuSans-2e" x="63.623047"/>
       <use xlink:href="#DejaVuSans-35" x="95.410156"/>
      </g>
     </g>
    </g>
    <g id="ytick_4">
     <g id="line2d_19">
      <path d="M 51.433725 141.07359
L 519.647357 141.07359
" clip-path="url(#p199836f8da)" style="fill: none; stroke: #ffffff; stroke-width: 0.8; stroke-linecap: round"/>
     </g>
     <g id="line2d_20"/>
     <g id="text_11">
      <!-- 2.0 -->
      <g style="fill: #262626" transform="translate(25.66935 146.392496) scale(0.14 -0.14)">
       <use xlink:href="#DejaVuSans-32"/>
       <use xlink:href="#DejaVuSans-2e" x="63.623047"/>
       <use xlink:href="#DejaVuSans-30" x="95.410156"/>
      </g>
     </g>
    </g>
    <g id="ytick_5">
     <g id="line2d_21">
      <path d="M 51.433725 87.147012
L 519.647357 87.147012
" clip-path="url(#p199836f8da)" style="fill: none; stroke: #ffffff; stroke-width: 0.8; stroke-linecap: round"/>
     </g>
     <g id="line2d_22"/>
     <g id="text_12">
      <!-- 2.5 -->
      <g style="fill: #262626" transform="translate(25.66935 92.465918) scale(0.14 -0.14)">
       <use xlink:href="#DejaVuSans-32"/>
       <use xlink:href="#DejaVuSans-2e" x="63.623047"/>
       <use xlink:href="#DejaVuSans-35" x="95.410156"/>
      </g>
     </g>
    </g>
    <g id="ytick_6">
     <g id="line2d_23">
      <path d="M 51.433725 33.220434
L 519.647357 33.220434
" clip-path="url(#p199836f8da)" style="fill: none; stroke: #ffffff; stroke-width: 0.8; stroke-linecap: round"/>
     </g>
     <g id="line2d_24"/>
     <g id="text_13">
      <!-- 3.0 -->
      <g style="fill: #262626" transform="translate(25.66935 38.53934) scale(0.14 -0.14)">
       <defs>
        <path id="DejaVuSans-33" d="M 2597 2516
Q 3050 2419 3304 2112
Q 3559 1806 3559 1356
Q 3559 666 3084 287
Q 2609 -91 1734 -91
Q 1441 -91 1130 -33
Q 819 25 488 141
L 488 750
Q 750 597 1062 519
Q 1375 441 1716 441
Q 2309 441 2620 675
Q 2931 909 2931 1356
Q 2931 1769 2642 2001
Q 2353 2234 1838 2234
L 1294 2234
L 1294 2753
L 1863 2753
Q 2328 2753 2575 2939
Q 2822 3125 2822 3475
Q 2822 3834 2567 4026
Q 2313 4219 1838 4219
Q 1578 4219 1281 4162
Q 984 4106 628 3988
L 628 4550
Q 988 4650 1302 4700
Q 1616 4750 1894 4750
Q 2613 4750 3031 4423
Q 3450 4097 3450 3541
Q 3450 3153 3228 2886
Q 3006 2619 2597 2516
z
" transform="scale(0.015625)"/>
       </defs>
       <use xlink:href="#DejaVuSans-33"/>
       <use xlink:href="#DejaVuSans-2e" x="63.623047"/>
       <use xlink:href="#DejaVuSans-30" x="95.410156"/>
      </g>
     </g>
    </g>
    <g id="text_14">
     <!-- y -->
     <g style="fill: #262626" transform="translate(18.549819 163.655541) rotate(-90) scale(0.15 -0.15)">
      <defs>
       <path id="DejaVuSans-79" d="M 2059 -325
Q 1816 -950 1584 -1140
Q 1353 -1331 966 -1331
L 506 -1331
L 506 -850
L 844 -850
Q 1081 -850 1212 -737
Q 1344 -625 1503 -206
L 1606 56
L 191 3500
L 800 3500
L 1894 763
L 2988 3500
L 3597 3500
L 2059 -325
z
" transform="scale(0.015625)"/>
      </defs>
      <use xlink:href="#DejaVuSans-79"/>
     </g>
    </g>
   </g>
   <g id="PolyCollection_1">
    <path d="M 108.233192 297.477994
L 108.140594 297.477994
L 108.144941 296.470913
L 108.155459 295.463832
L 108.166314 294.456751
L 108.172187 293.44967
L 108.170526 292.442589
L 108.162028 291.435507
L 108.150555 290.428426
L 108.142033 289.421345
L 108.141276 288.414264
L 108.148399 287.407183
L 108.158102 286.400102
L 108.162021 285.393021
L 108.151163 284.38594
L 108.117232 283.378858
L 108.055074 282.371777
L 107.967001 281.364696
L 107.864886 280.357615
L 107.765461 279.350534
L 107.680354 278.343453
L 107.60747 277.336372
L 107.527728 276.329291
L 107.406441 275.32221
L 107.200106 274.315128
L 106.872047 273.308047
L 106.412874 272.300966
L 105.85015 271.293885
L 105.235048 270.286804
L 104.612871 269.279723
L 103.998297 268.272642
L 103.371963 267.265561
L 102.69794 266.258479
L 101.9463 265.251398
L 101.106911 264.244317
L 100.194898 263.237236
L 99.24641 262.230155
L 98.28804 261.223074
L 97.283516 260.215993
L 96.111231 259.208912
L 94.618087 258.20183
L 92.713476 257.194749
L 90.42466 256.187668
L 87.885961 255.180587
L 85.292118 254.173506
L 82.843874 253.166425
L 80.692764 252.159344
L 78.89691 251.152263
L 77.410989 250.145182
L 76.124755 249.1381
L 74.944611 248.131019
L 73.884631 247.123938
L 73.088798 246.116857
L 72.716163 245.109776
L 72.766753 244.102695
L 73.055633 243.095614
L 73.403824 242.088533
L 73.831325 241.081451
L 74.51873 240.07437
L 75.596223 239.067289
L 77.012126 238.060208
L 78.593347 237.053127
L 80.17978 236.046046
L 81.689488 235.038965
L 83.108461 234.031884
L 84.474055 233.024802
L 85.869017 232.017721
L 87.388175 231.01064
L 89.07474 230.003559
L 90.882759 228.996478
L 92.706983 227.989397
L 94.44969 226.982316
L 96.061254 225.975235
L 97.532212 224.968154
L 98.869528 223.961072
L 100.089548 222.953991
L 101.217983 221.94691
L 102.274097 220.939829
L 103.247377 219.932748
L 104.095886 218.925667
L 104.775549 217.918586
L 105.276107 216.911505
L 105.631985 215.904423
L 105.902149 214.897342
L 106.141737 213.890261
L 106.387183 212.88318
L 106.653703 211.876099
L 106.934499 210.869018
L 107.203885 209.861937
L 107.432872 208.854856
L 107.609827 207.847775
L 107.746157 206.840693
L 107.861104 205.833612
L 107.962939 204.826531
L 108.045275 203.81945
L 108.098024 202.812369
L 108.11905 201.805288
L 108.117016 200.798207
L 108.106556 199.791126
L 108.10113 198.784044
L 108.107564 197.776963
L 108.266222 197.776963
L 108.266222 197.776963
L 108.272656 198.784044
L 108.267229 199.791126
L 108.25677 200.798207
L 108.254735 201.805288
L 108.275762 202.812369
L 108.32851 203.81945
L 108.410846 204.826531
L 108.512682 205.833612
L 108.627629 206.840693
L 108.763959 207.847775
L 108.940914 208.854856
L 109.169901 209.861937
L 109.439287 210.869018
L 109.720083 211.876099
L 109.986603 212.88318
L 110.232049 213.890261
L 110.471637 214.897342
L 110.741801 215.904423
L 111.097678 216.911505
L 111.598237 217.918586
L 112.2779 218.925667
L 113.126409 219.932748
L 114.099688 220.939829
L 115.155803 221.94691
L 116.284237 222.953991
L 117.504258 223.961072
L 118.841574 224.968154
L 120.312531 225.975235
L 121.924096 226.982316
L 123.666803 227.989397
L 125.491027 228.996478
L 127.299046 230.003559
L 128.985611 231.01064
L 130.504768 232.017721
L 131.89973 233.024802
L 133.265325 234.031884
L 134.684298 235.038965
L 136.194006 236.046046
L 137.780438 237.053127
L 139.361659 238.060208
L 140.777562 239.067289
L 141.855056 240.07437
L 142.54246 241.081451
L 142.969962 242.088533
L 143.318153 243.095614
L 143.607033 244.102695
L 143.657623 245.109776
L 143.284988 246.116857
L 142.489155 247.123938
L 141.429175 248.131019
L 140.24903 249.1381
L 138.962797 250.145182
L 137.476876 251.152263
L 135.681022 252.159344
L 133.529911 253.166425
L 131.081668 254.173506
L 128.487825 255.180587
L 125.949125 256.187668
L 123.660309 257.194749
L 121.755699 258.20183
L 120.262554 259.208912
L 119.09027 260.215993
L 118.085745 261.223074
L 117.127376 262.230155
L 116.178888 263.237236
L 115.266875 264.244317
L 114.427485 265.251398
L 113.675845 266.258479
L 113.001822 267.265561
L 112.375489 268.272642
L 111.760915 269.279723
L 111.138738 270.286804
L 110.523635 271.293885
L 109.960912 272.300966
L 109.501739 273.308047
L 109.173679 274.315128
L 108.967345 275.32221
L 108.846058 276.329291
L 108.766316 277.336372
L 108.693432 278.343453
L 108.608325 279.350534
L 108.508899 280.357615
L 108.406785 281.364696
L 108.318711 282.371777
L 108.256554 283.378858
L 108.222623 284.38594
L 108.211764 285.393021
L 108.215684 286.400102
L 108.225387 287.407183
L 108.23251 288.414264
L 108.231753 289.421345
L 108.223231 290.428426
L 108.211757 291.435507
L 108.203259 292.442589
L 108.201599 293.44967
L 108.207471 294.456751
L 108.218327 295.463832
L 108.228845 296.470913
L 108.233192 297.477994
z
" clip-path="url(#p199836f8da)" style="fill: #2a2eec; fill-opacity: 0.5"/>
   </g>
   <g id="PolyCollection_2">
    <path d="M 462.965369 179.862356
L 462.823011 179.862356
L 462.812835 178.97995
L 462.806203 178.097543
L 462.800017 177.215136
L 462.788868 176.332729
L 462.76692 175.450322
L 462.730796 174.567915
L 462.681828 173.685508
L 462.625508 172.803102
L 462.567548 171.920695
L 462.508735 171.038288
L 462.442422 170.155881
L 462.356971 169.273474
L 462.241683 168.391067
L 462.091872 167.50866
L 461.909852 166.626254
L 461.702177 165.743847
L 461.475417 164.86144
L 461.231914 163.979033
L 460.966277 163.096626
L 460.664702 162.214219
L 460.309046 161.331813
L 459.883828 160.449406
L 459.380634 159.566999
L 458.796526 158.684592
L 458.129517 157.802185
L 457.377435 156.919778
L 456.542313 156.037371
L 455.634856 155.154965
L 454.671088 154.272558
L 453.66037 153.390151
L 452.595387 152.507744
L 451.45765 151.625337
L 450.239006 150.74293
L 448.961115 149.860523
L 447.671619 148.978117
L 446.413862 148.09571
L 445.189739 147.213303
L 443.943115 146.330896
L 442.579643 145.448489
L 441.014904 144.566082
L 439.221254 143.683676
L 437.243883 142.801269
L 435.182043 141.918862
L 433.157761 141.036455
L 431.294902 140.154048
L 429.710642 139.271641
L 428.505538 138.389234
L 427.742797 137.506828
L 427.42346 136.624421
L 427.474117 135.742014
L 427.759916 134.859607
L 428.124509 133.9772
L 428.445234 133.094793
L 428.677585 132.212387
L 428.862287 131.32998
L 429.095263 130.447573
L 429.489928 129.565166
L 430.151882 128.682759
L 431.153001 127.800352
L 432.492916 126.917945
L 434.075748 126.035539
L 435.743444 125.153132
L 437.35921 124.270725
L 438.878145 123.388318
L 440.347816 122.505911
L 441.844789 121.623504
L 443.404455 120.741097
L 444.993222 119.858691
L 446.528864 118.976284
L 447.927243 118.093877
L 449.151382 117.21147
L 450.239218 116.329063
L 451.288409 115.446656
L 452.399836 114.56425
L 453.616166 113.681843
L 454.89891 112.799436
L 456.154915 111.917029
L 457.285968 111.034622
L 458.228444 110.152215
L 458.968524 109.269808
L 459.53572 108.387402
L 459.982328 107.504995
L 460.357888 106.622588
L 460.690568 105.740181
L 460.984959 104.857774
L 461.234642 103.975367
L 461.437334 103.09296
L 461.600972 102.210554
L 461.739475 101.328147
L 461.865818 100.44574
L 461.989091 99.563333
L 462.11484 98.680926
L 462.244293 97.798519
L 462.372234 96.916113
L 462.487935 96.033706
L 462.581198 95.151299
L 462.649225 94.268892
L 462.698101 93.386485
L 462.737748 92.504078
L 463.050632 92.504078
L 463.050632 92.504078
L 463.090279 93.386485
L 463.139155 94.268892
L 463.207181 95.151299
L 463.300444 96.033706
L 463.416145 96.916113
L 463.544086 97.798519
L 463.673539 98.680926
L 463.799288 99.563333
L 463.922561 100.44574
L 464.048904 101.328147
L 464.187408 102.210554
L 464.351045 103.09296
L 464.553737 103.975367
L 464.803421 104.857774
L 465.097811 105.740181
L 465.430491 106.622588
L 465.806051 107.504995
L 466.252659 108.387402
L 466.819855 109.269808
L 467.559935 110.152215
L 468.502411 111.034622
L 469.633464 111.917029
L 470.889469 112.799436
L 472.172214 113.681843
L 473.388544 114.56425
L 474.499971 115.446656
L 475.549161 116.329063
L 476.636997 117.21147
L 477.861136 118.093877
L 479.259516 118.976284
L 480.795158 119.858691
L 482.383924 120.741097
L 483.94359 121.623504
L 485.440564 122.505911
L 486.910235 123.388318
L 488.42917 124.270725
L 490.044935 125.153132
L 491.712632 126.035539
L 493.295464 126.917945
L 494.635379 127.800352
L 495.636497 128.682759
L 496.298452 129.565166
L 496.693116 130.447573
L 496.926093 131.32998
L 497.110795 132.212387
L 497.343145 133.094793
L 497.663871 133.9772
L 498.028463 134.859607
L 498.314262 135.742014
L 498.364919 136.624421
L 498.045583 137.506828
L 497.282842 138.389234
L 496.077737 139.271641
L 494.493477 140.154048
L 492.630618 141.036455
L 490.606336 141.918862
L 488.544496 142.801269
L 486.567125 143.683676
L 484.773475 144.566082
L 483.208736 145.448489
L 481.845265 146.330896
L 480.59864 147.213303
L 479.374518 148.09571
L 478.116761 148.978117
L 476.827264 149.860523
L 475.549373 150.74293
L 474.330729 151.625337
L 473.192992 152.507744
L 472.128009 153.390151
L 471.117291 154.272558
L 470.153524 155.154965
L 469.246066 156.037371
L 468.410944 156.919778
L 467.658863 157.802185
L 466.991853 158.684592
L 466.407746 159.566999
L 465.904551 160.449406
L 465.479333 161.331813
L 465.123678 162.214219
L 464.822102 163.096626
L 464.556466 163.979033
L 464.312962 164.86144
L 464.086203 165.743847
L 463.878527 166.626254
L 463.696508 167.50866
L 463.546696 168.391067
L 463.431408 169.273474
L 463.345958 170.155881
L 463.279644 171.038288
L 463.220831 171.920695
L 463.162871 172.803102
L 463.106552 173.685508
L 463.057583 174.567915
L 463.021459 175.450322
L 462.999512 176.332729
L 462.988362 177.215136
L 462.982177 178.097543
L 462.975545 178.97995
L 462.965369 179.862356
z
" clip-path="url(#p199836f8da)" style="fill: #2a2eec; fill-opacity: 0.5"/>
   </g>
   <g id="PolyCollection_3">
    <path d="M 108.262169 270.63859
L 108.111617 270.63859
L 108.103202 269.680305
L 108.103717 268.722021
L 108.110722 267.763737
L 108.1192 266.805452
L 108.124916 265.847168
L 108.126997 264.888884
L 108.126814 263.930599
L 108.123514 262.972315
L 108.110437 262.014031
L 108.076528 261.055746
L 108.012228 260.097462
L 107.915264 259.139178
L 107.792125 258.180893
L 107.654658 257.222609
L 107.513716 256.264325
L 107.371527 255.30604
L 107.215604 254.347756
L 107.020582 253.389472
L 106.761551 252.431187
L 106.429846 251.472903
L 106.035154 250.514619
L 105.590166 249.556334
L 105.092812 248.59805
L 104.522888 247.639766
L 103.854497 246.681481
L 103.072336 245.723197
L 102.179447 244.764913
L 101.193288 243.806628
L 100.136897 242.848344
L 99.031688 241.89006
L 97.892108 240.931775
L 96.723848 239.973491
L 95.529079 239.015207
L 94.308753 238.056923
L 93.04716 237.098638
L 91.693681 236.140354
L 90.182166 235.18207
L 88.493882 234.223785
L 86.701591 233.265501
L 84.924083 232.307217
L 83.214995 231.348932
L 81.510653 230.390648
L 79.720492 229.432364
L 77.87493 228.474079
L 76.160828 227.515795
L 74.798379 226.557511
L 73.887103 225.599226
L 73.360513 224.640942
L 73.062654 223.682658
L 72.863558 222.724373
L 72.729701 221.766089
L 72.716163 220.807805
L 72.908673 219.84952
L 73.373449 218.891236
L 74.137683 217.932952
L 75.180759 216.974667
L 76.436306 216.016383
L 77.82953 215.058099
L 79.32678 214.099814
L 80.93564 213.14153
L 82.656509 212.183246
L 84.45621 211.224961
L 86.292208 210.266677
L 88.137493 209.308393
L 89.968679 208.350108
L 91.746729 207.391824
L 93.428144 206.43354
L 94.993104 205.475255
L 96.451939 204.516971
L 97.823811 203.558687
L 99.117207 202.600402
L 100.331967 201.642118
L 101.468181 200.683834
L 102.521038 199.725549
L 103.468576 198.767265
L 104.275997 197.808981
L 104.919923 196.850696
L 105.408455 195.892412
L 105.775699 194.934128
L 106.057933 193.975843
L 106.277468 193.017559
L 106.448466 192.059275
L 106.592303 191.10099
L 106.740754 190.142706
L 106.921876 189.184422
L 107.142447 188.226137
L 107.382355 187.267853
L 107.605392 186.309569
L 107.779531 185.351284
L 107.893119 184.393
L 107.956002 183.434716
L 107.987339 182.476431
L 108.002758 181.518147
L 108.01065 180.559863
L 108.015625 179.601578
L 108.021765 178.643294
L 108.032758 177.68501
L 108.050816 176.726725
L 108.075841 175.768441
L 108.297945 175.768441
L 108.297945 175.768441
L 108.32297 176.726725
L 108.341028 177.68501
L 108.352021 178.643294
L 108.35816 179.601578
L 108.363136 180.559863
L 108.371028 181.518147
L 108.386447 182.476431
L 108.417784 183.434716
L 108.480667 184.393
L 108.594254 185.351284
L 108.768394 186.309569
L 108.991431 187.267853
L 109.231339 188.226137
L 109.451909 189.184422
L 109.633031 190.142706
L 109.781483 191.10099
L 109.92532 192.059275
L 110.096317 193.017559
L 110.315852 193.975843
L 110.598087 194.934128
L 110.965331 195.892412
L 111.453863 196.850696
L 112.097789 197.808981
L 112.905209 198.767265
L 113.852748 199.725549
L 114.905605 200.683834
L 116.041818 201.642118
L 117.256578 202.600402
L 118.549974 203.558687
L 119.921846 204.516971
L 121.380682 205.475255
L 122.945642 206.43354
L 124.627057 207.391824
L 126.405107 208.350108
L 128.236293 209.308393
L 130.081578 210.266677
L 131.917576 211.224961
L 133.717277 212.183246
L 135.438145 213.14153
L 137.047006 214.099814
L 138.544256 215.058099
L 139.93748 216.016383
L 141.193026 216.974667
L 142.236102 217.932952
L 143.000337 218.891236
L 143.465113 219.84952
L 143.657623 220.807805
L 143.644084 221.766089
L 143.510228 222.724373
L 143.311131 223.682658
L 143.013272 224.640942
L 142.486683 225.599226
L 141.575406 226.557511
L 140.212957 227.515795
L 138.498856 228.474079
L 136.653293 229.432364
L 134.863133 230.390648
L 133.158791 231.348932
L 131.449703 232.307217
L 129.672194 233.265501
L 127.879903 234.223785
L 126.19162 235.18207
L 124.680104 236.140354
L 123.326626 237.098638
L 122.065033 238.056923
L 120.844706 239.015207
L 119.649938 239.973491
L 118.481678 240.931775
L 117.342098 241.89006
L 116.236889 242.848344
L 115.180498 243.806628
L 114.194339 244.764913
L 113.301449 245.723197
L 112.519289 246.681481
L 111.850897 247.639766
L 111.280974 248.59805
L 110.783619 249.556334
L 110.338631 250.514619
L 109.94394 251.472903
L 109.612235 252.431187
L 109.353204 253.389472
L 109.158182 254.347756
L 109.002259 255.30604
L 108.86007 256.264325
L 108.719128 257.222609
L 108.58166 258.180893
L 108.458522 259.139178
L 108.361558 260.097462
L 108.297257 261.055746
L 108.263349 262.014031
L 108.250272 262.972315
L 108.246971 263.930599
L 108.246789 264.888884
L 108.24887 265.847168
L 108.254586 266.805452
L 108.263064 267.763737
L 108.270069 268.722021
L 108.270584 269.680305
L 108.262169 270.63859
z
" clip-path="url(#p199836f8da)" style="fill: #fa7c17; fill-opacity: 0.3"/>
   </g>
   <g id="PolyCollection_4">
    <path d="M 462.941693 113.875175
L 462.846687 113.875175
L 462.850448 112.936587
L 462.859707 111.997999
L 462.869164 111.059411
L 462.87261 110.120823
L 462.864051 109.182235
L 462.837733 108.243647
L 462.788941 107.305059
L 462.716381 106.366471
L 462.623998 105.427883
L 462.518981 104.489295
L 462.406153 103.550707
L 462.283701 102.612119
L 462.14468 101.673531
L 461.98257 100.734943
L 461.795299 99.796355
L 461.585234 98.857767
L 461.356341 97.919179
L 461.1088 96.980591
L 460.830992 96.042003
L 460.493724 95.103415
L 460.054447 94.164827
L 459.472242 93.226239
L 458.72459 92.287651
L 457.816737 91.349063
L 456.781394 90.410475
L 455.670329 89.471887
L 454.539838 88.533299
L 453.43286 87.594711
L 452.360376 86.656123
L 451.288212 85.717535
L 450.144612 84.778947
L 448.859966 83.840359
L 447.418367 82.901771
L 445.872474 81.963183
L 444.295534 81.024595
L 442.707848 80.086007
L 441.050144 79.147419
L 439.236601 78.208831
L 437.245788 77.270243
L 435.175218 76.331655
L 433.215562 75.393067
L 431.557359 74.454479
L 430.290774 73.515891
L 429.371648 72.577303
L 428.680999 71.638715
L 428.126434 70.700127
L 427.699932 69.761539
L 427.45269 68.822951
L 427.42346 67.884363
L 427.592748 66.945775
L 427.907966 66.007187
L 428.355956 65.068599
L 429.003831 64.130011
L 429.948588 63.191423
L 431.211456 62.252835
L 432.68491 61.314247
L 434.192793 60.375659
L 435.605634 59.437071
L 436.905263 58.498483
L 438.159375 57.559895
L 439.453303 56.621307
L 440.842742 55.682719
L 442.347199 54.744131
L 443.96153 53.805543
L 445.659338 52.866955
L 447.388145 51.928367
L 449.076601 50.989779
L 450.663163 50.051191
L 452.125315 49.112603
L 453.477627 48.174015
L 454.736456 47.235427
L 455.888026 46.296839
L 456.895159 45.358251
L 457.734664 44.419663
L 458.425469 43.481075
L 459.021389 42.542487
L 459.578022 41.603899
L 460.121262 40.665311
L 460.637573 39.726723
L 461.089054 38.788135
L 461.441578 37.849547
L 461.687353 36.910959
L 461.84847 35.972371
L 461.962792 35.033783
L 462.065008 34.095195
L 462.17482 33.156607
L 462.295673 32.218019
L 462.420445 31.279431
L 462.538516 30.340843
L 462.640414 29.402255
L 462.719671 28.463667
L 462.773756 27.525079
L 462.804941 26.586491
L 462.81969 25.647903
L 462.825626 24.709315
L 462.828141 23.770727
L 462.829749 22.832139
L 462.832078 21.893551
L 462.837221 20.954963
L 462.951158 20.954963
L 462.951158 20.954963
L 462.956302 21.893551
L 462.95863 22.832139
L 462.960238 23.770727
L 462.962753 24.709315
L 462.968689 25.647903
L 462.983438 26.586491
L 463.014623 27.525079
L 463.068708 28.463667
L 463.147965 29.402255
L 463.249863 30.340843
L 463.367934 31.279431
L 463.492706 32.218019
L 463.613559 33.156607
L 463.723371 34.095195
L 463.825587 35.033783
L 463.939909 35.972371
L 464.101027 36.910959
L 464.346802 37.849547
L 464.699326 38.788135
L 465.150807 39.726723
L 465.667118 40.665311
L 466.210357 41.603899
L 466.76699 42.542487
L 467.36291 43.481075
L 468.053716 44.419663
L 468.893221 45.358251
L 469.900353 46.296839
L 471.051923 47.235427
L 472.310752 48.174015
L 473.663065 49.112603
L 475.125216 50.051191
L 476.711779 50.989779
L 478.400234 51.928367
L 480.129041 52.866955
L 481.826849 53.805543
L 483.44118 54.744131
L 484.945637 55.682719
L 486.335076 56.621307
L 487.629004 57.559895
L 488.883116 58.498483
L 490.182745 59.437071
L 491.595586 60.375659
L 493.103469 61.314247
L 494.576923 62.252835
L 495.839791 63.191423
L 496.784548 64.130011
L 497.432423 65.068599
L 497.880413 66.007187
L 498.195631 66.945775
L 498.364919 67.884363
L 498.335689 68.822951
L 498.088448 69.761539
L 497.661945 70.700127
L 497.107381 71.638715
L 496.416731 72.577303
L 495.497605 73.515891
L 494.23102 74.454479
L 492.572817 75.393067
L 490.613161 76.331655
L 488.542591 77.270243
L 486.551778 78.208831
L 484.738235 79.147419
L 483.080531 80.086007
L 481.492845 81.024595
L 479.915906 81.963183
L 478.370013 82.901771
L 476.928413 83.840359
L 475.643768 84.778947
L 474.500167 85.717535
L 473.428003 86.656123
L 472.35552 87.594711
L 471.248541 88.533299
L 470.11805 89.471887
L 469.006985 90.410475
L 467.971642 91.349063
L 467.063789 92.287651
L 466.316138 93.226239
L 465.733932 94.164827
L 465.294655 95.103415
L 464.957387 96.042003
L 464.679579 96.980591
L 464.432038 97.919179
L 464.203145 98.857767
L 463.99308 99.796355
L 463.80581 100.734943
L 463.6437 101.673531
L 463.504678 102.612119
L 463.382226 103.550707
L 463.269399 104.489295
L 463.164381 105.427883
L 463.071998 106.366471
L 462.999438 107.305059
L 462.950646 108.243647
L 462.924329 109.182235
L 462.915769 110.120823
L 462.919215 111.059411
L 462.928672 111.997999
L 462.937932 112.936587
L 462.941693 113.875175
z
" clip-path="url(#p199836f8da)" style="fill: #fa7c17; fill-opacity: 0.3"/>
   </g>
   <g id="PolyCollection_5">
    <path d="M 462.942116 164.51758
L 462.846263 164.51758
L 462.847699 163.439074
L 462.852348 162.360569
L 462.854532 161.282064
L 462.851628 160.203558
L 462.846198 159.125053
L 462.842726 158.046547
L 462.842014 156.968042
L 462.838882 155.889536
L 462.825656 154.811031
L 462.797832 153.732526
L 462.755973 152.65402
L 462.702183 151.575515
L 462.63571 150.497009
L 462.552409 149.418504
L 462.446377 148.339999
L 462.308458 147.261493
L 462.121319 146.182988
L 461.857557 145.104482
L 461.487009 144.025977
L 460.99238 142.947472
L 460.384146 141.868966
L 459.702778 140.790461
L 459.001659 139.711955
L 458.31523 138.63345
L 457.630093 137.554944
L 456.88321 136.476439
L 455.994702 135.397934
L 454.909924 134.319428
L 453.618419 133.240923
L 452.149268 132.162417
L 450.56555 131.083912
L 448.961899 130.005407
L 447.444002 128.926901
L 446.078232 127.848396
L 444.834907 126.76989
L 443.577123 125.691385
L 442.133047 124.61288
L 440.416162 123.534374
L 438.491241 122.455869
L 436.524556 121.377363
L 434.673898 120.298858
L 433.018657 119.220352
L 431.563775 118.141847
L 430.28552 117.063342
L 429.180589 115.984836
L 428.289868 114.906331
L 427.683519 113.827825
L 427.42346 112.74932
L 427.527037 111.670815
L 427.94497 110.592309
L 428.575693 109.513804
L 429.327338 108.435298
L 430.177997 107.356793
L 431.17006 106.278287
L 432.354505 105.199782
L 433.754062 104.121277
L 435.361048 103.042771
L 437.134531 101.964266
L 438.998491 100.88576
L 440.875559 99.807255
L 442.73609 98.72875
L 444.59472 97.650244
L 446.447614 96.571739
L 448.228122 95.493233
L 449.838334 94.414728
L 451.222315 93.336223
L 452.405373 92.257717
L 453.46628 91.179212
L 454.474422 90.100706
L 455.45013 89.022201
L 456.377817 87.943695
L 457.245367 86.86519
L 458.058316 85.786685
L 458.81745 84.708179
L 459.500812 83.629674
L 460.080823 82.551168
L 460.553694 81.472663
L 460.943273 80.394158
L 461.279079 79.315652
L 461.577007 78.237147
L 461.838101 77.158641
L 462.057288 76.080136
L 462.230994 75.001631
L 462.361136 73.923125
L 462.45596 72.84462
L 462.52754 71.766114
L 462.587259 70.687609
L 462.642075 69.609103
L 462.693538 68.530598
L 462.739399 67.452093
L 462.776241 66.373587
L 462.801984 65.295082
L 462.81766 64.216576
L 462.82705 63.138071
L 462.833704 62.059566
L 462.838355 60.98106
L 462.840194 59.902555
L 462.840388 58.824049
L 462.84275 57.745544
L 462.945629 57.745544
L 462.945629 57.745544
L 462.947991 58.824049
L 462.948185 59.902555
L 462.950024 60.98106
L 462.954675 62.059566
L 462.961329 63.138071
L 462.97072 64.216576
L 462.986395 65.295082
L 463.012138 66.373587
L 463.04898 67.452093
L 463.094842 68.530598
L 463.146304 69.609103
L 463.20112 70.687609
L 463.260839 71.766114
L 463.332419 72.84462
L 463.427243 73.923125
L 463.557386 75.001631
L 463.731091 76.080136
L 463.950278 77.158641
L 464.211372 78.237147
L 464.5093 79.315652
L 464.845106 80.394158
L 465.234685 81.472663
L 465.707556 82.551168
L 466.287567 83.629674
L 466.970929 84.708179
L 467.730063 85.786685
L 468.543012 86.86519
L 469.410563 87.943695
L 470.33825 89.022201
L 471.313957 90.100706
L 472.3221 91.179212
L 473.383006 92.257717
L 474.566064 93.336223
L 475.950045 94.414728
L 477.560257 95.493233
L 479.340766 96.571739
L 481.193659 97.650244
L 483.05229 98.72875
L 484.91282 99.807255
L 486.789889 100.88576
L 488.653848 101.964266
L 490.427331 103.042771
L 492.034318 104.121277
L 493.433875 105.199782
L 494.618319 106.278287
L 495.610382 107.356793
L 496.461041 108.435298
L 497.212686 109.513804
L 497.84341 110.592309
L 498.261342 111.670815
L 498.364919 112.74932
L 498.10486 113.827825
L 497.498511 114.906331
L 496.60779 115.984836
L 495.502859 117.063342
L 494.224604 118.141847
L 492.769722 119.220352
L 491.114481 120.298858
L 489.263823 121.377363
L 487.297138 122.455869
L 485.372217 123.534374
L 483.655333 124.61288
L 482.211256 125.691385
L 480.953473 126.76989
L 479.710147 127.848396
L 478.344378 128.926901
L 476.82648 130.005407
L 475.22283 131.083912
L 473.639112 132.162417
L 472.16996 133.240923
L 470.878455 134.319428
L 469.793678 135.397934
L 468.905169 136.476439
L 468.158287 137.554944
L 467.47315 138.63345
L 466.786721 139.711955
L 466.085601 140.790461
L 465.404233 141.868966
L 464.795999 142.947472
L 464.30137 144.025977
L 463.930822 145.104482
L 463.66706 146.182988
L 463.479922 147.261493
L 463.342003 148.339999
L 463.23597 149.418504
L 463.152669 150.497009
L 463.086196 151.575515
L 463.032406 152.65402
L 462.990547 153.732526
L 462.962724 154.811031
L 462.949497 155.889536
L 462.946365 156.968042
L 462.945653 158.046547
L 462.942181 159.125053
L 462.936751 160.203558
L 462.933847 161.282064
L 462.936031 162.360569
L 462.94068 163.439074
L 462.942116 164.51758
z
" clip-path="url(#p199836f8da)" style="fill: #328c06; fill-opacity: 0.3"/>
   </g>
   <g id="line2d_25">
    <path d="M 108.186893 244.910786
L 462.89419 121.624149
" clip-path="url(#p199836f8da)" style="fill: none; stroke: #2a2eec; stroke-opacity: 0.25; stroke-width: 1.5; stroke-linecap: round"/>
   </g>
   <g id="line2d_26">
    <path d="M 108.186893 223.28127
L 462.89419 134.108036
" clip-path="url(#p199836f8da)" style="fill: none; stroke: #2a2eec; stroke-opacity: 0.25; stroke-width: 1.5; stroke-linecap: round"/>
   </g>
   <g id="line2d_27">
    <path d="M 108.186893 241.921469
L 462.89419 145.258048
" clip-path="url(#p199836f8da)" style="fill: none; stroke: #2a2eec; stroke-opacity: 0.25; stroke-width: 1.5; stroke-linecap: round"/>
   </g>
   <g id="line2d_28">
    <path d="M 108.186893 260.277636
L 462.89419 116.512823
" clip-path="url(#p199836f8da)" style="fill: none; stroke: #2a2eec; stroke-opacity: 0.25; stroke-width: 1.5; stroke-linecap: round"/>
   </g>
   <g id="line2d_29">
    <path d="M 108.186893 229.027378
L 462.89419 126.283062
" clip-path="url(#p199836f8da)" style="fill: none; stroke: #2a2eec; stroke-opacity: 0.25; stroke-width: 1.5; stroke-linecap: round"/>
   </g>
   <g id="line2d_30">
    <path d="M 108.186893 254.530092
L 462.89419 142.027161
" clip-path="url(#p199836f8da)" style="fill: none; stroke: #2a2eec; stroke-opacity: 0.25; stroke-width: 1.5; stroke-linecap: round"/>
   </g>
   <g id="line2d_31">
    <path d="M 108.186893 239.859531
L 462.89419 141.621898
" clip-path="url(#p199836f8da)" style="fill: none; stroke: #2a2eec; stroke-opacity: 0.25; stroke-width: 1.5; stroke-linecap: round"/>
   </g>
   <g id="line2d_32">
    <path d="M 108.186893 249.066827
L 462.89419 152.782491
" clip-path="url(#p199836f8da)" style="fill: none; stroke: #2a2eec; stroke-opacity: 0.25; stroke-width: 1.5; stroke-linecap: round"/>
   </g>
   <g id="line2d_33">
    <path d="M 108.186893 249.600597
L 462.89419 111.662878
" clip-path="url(#p199836f8da)" style="fill: none; stroke: #2a2eec; stroke-opacity: 0.25; stroke-width: 1.5; stroke-linecap: round"/>
   </g>
   <g id="line2d_34">
    <path d="M 108.186893 238.347608
L 462.89419 144.470799
" clip-path="url(#p199836f8da)" style="fill: none; stroke: #2a2eec; stroke-opacity: 0.25; stroke-width: 1.5; stroke-linecap: round"/>
   </g>
   <g id="line2d_35">
    <path d="M 108.186893 229.349116
L 462.89419 79.252721
" clip-path="url(#p199836f8da)" style="fill: none; stroke: #fa7c17; stroke-opacity: 0.25; stroke-width: 1.5; stroke-linecap: round"/>
   </g>
   <g id="line2d_36">
    <path d="M 108.186893 228.769365
L 462.89419 63.251794
" clip-path="url(#p199836f8da)" style="fill: none; stroke: #fa7c17; stroke-opacity: 0.25; stroke-width: 1.5; stroke-linecap: round"/>
   </g>
   <g id="line2d_37">
    <path d="M 108.186893 220.266937
L 462.89419 81.665865
" clip-path="url(#p199836f8da)" style="fill: none; stroke: #fa7c17; stroke-opacity: 0.25; stroke-width: 1.5; stroke-linecap: round"/>
   </g>
   <g id="line2d_38">
    <path d="M 108.186893 215.766363
L 462.89419 76.133286
" clip-path="url(#p199836f8da)" style="fill: none; stroke: #fa7c17; stroke-opacity: 0.25; stroke-width: 1.5; stroke-linecap: round"/>
   </g>
   <g id="line2d_39">
    <path d="M 108.186893 218.980291
L 462.89419 55.099917
" clip-path="url(#p199836f8da)" style="fill: none; stroke: #fa7c17; stroke-opacity: 0.25; stroke-width: 1.5; stroke-linecap: round"/>
   </g>
   <g id="line2d_40">
    <path d="M 108.186893 217.036796
L 462.89419 64.043509
" clip-path="url(#p199836f8da)" style="fill: none; stroke: #fa7c17; stroke-opacity: 0.25; stroke-width: 1.5; stroke-linecap: round"/>
   </g>
   <g id="line2d_41">
    <path d="M 108.186893 218.812668
L 462.89419 56.779553
" clip-path="url(#p199836f8da)" style="fill: none; stroke: #fa7c17; stroke-opacity: 0.25; stroke-width: 1.5; stroke-linecap: round"/>
   </g>
   <g id="line2d_42">
    <path d="M 108.186893 226.141915
L 462.89419 61.042625
" clip-path="url(#p199836f8da)" style="fill: none; stroke: #fa7c17; stroke-opacity: 0.25; stroke-width: 1.5; stroke-linecap: round"/>
   </g>
   <g id="line2d_43">
    <path d="M 108.186893 229.658634
L 462.89419 65.613718
" clip-path="url(#p199836f8da)" style="fill: none; stroke: #fa7c17; stroke-opacity: 0.25; stroke-width: 1.5; stroke-linecap: round"/>
   </g>
   <g id="line2d_44">
    <path d="M 108.186893 209.920727
L 462.89419 77.315483
" clip-path="url(#p199836f8da)" style="fill: none; stroke: #fa7c17; stroke-opacity: 0.25; stroke-width: 1.5; stroke-linecap: round"/>
   </g>
   <g id="line2d_45"/>
   <g id="line2d_46"/>
   <g id="LineCollection_1">
    <path d="M 90.451528 197.776963
L 125.922258 197.776963
" clip-path="url(#p199836f8da)" style="fill: none; stroke: #2a2eec; stroke-width: 1.5"/>
    <path d="M 445.158825 92.504078
L 480.629554 92.504078
" clip-path="url(#p199836f8da)" style="fill: none; stroke: #2a2eec; stroke-width: 1.5"/>
   </g>
   <g id="LineCollection_2">
    <path d="M 90.451528 297.477994
L 125.922258 297.477994
" clip-path="url(#p199836f8da)" style="fill: none; stroke: #2a2eec; stroke-width: 1.5"/>
    <path d="M 445.158825 179.862356
L 480.629554 179.862356
" clip-path="url(#p199836f8da)" style="fill: none; stroke: #2a2eec; stroke-width: 1.5"/>
   </g>
   <g id="LineCollection_3">
    <path d="M 108.186893 297.477994
L 108.186893 197.776963
" clip-path="url(#p199836f8da)" style="fill: none; stroke: #2a2eec; stroke-width: 1.5"/>
    <path d="M 462.89419 179.862356
L 462.89419 92.504078
" clip-path="url(#p199836f8da)" style="fill: none; stroke: #2a2eec; stroke-width: 1.5"/>
   </g>
   <g id="LineCollection_4">
    <path d="M 90.451528 175.768441
L 125.922258 175.768441
" clip-path="url(#p199836f8da)" style="fill: none; stroke: #fa7c17; stroke-width: 1.5"/>
    <path d="M 445.158825 20.954963
L 480.629554 20.954963
" clip-path="url(#p199836f8da)" style="fill: none; stroke: #fa7c17; stroke-width: 1.5"/>
   </g>
   <g id="LineCollection_5">
    <path d="M 90.451528 270.63859
L 125.922258 270.63859
" clip-path="url(#p199836f8da)" style="fill: none; stroke: #fa7c17; stroke-width: 1.5"/>
    <path d="M 445.158825 113.875175
L 480.629554 113.875175
" clip-path="url(#p199836f8da)" style="fill: none; stroke: #fa7c17; stroke-width: 1.5"/>
   </g>
   <g id="LineCollection_6">
    <path d="M 108.186893 270.63859
L 108.186893 175.768441
" clip-path="url(#p199836f8da)" style="fill: none; stroke: #fa7c17; stroke-width: 1.5"/>
    <path d="M 462.89419 113.875175
L 462.89419 20.954963
" clip-path="url(#p199836f8da)" style="fill: none; stroke: #fa7c17; stroke-width: 1.5"/>
   </g>
   <g id="LineCollection_7">
    <path d="M 445.158825 57.745544
L 480.629554 57.745544
" clip-path="url(#p199836f8da)" style="fill: none; stroke: #328c06; stroke-width: 1.5"/>
   </g>
   <g id="LineCollection_8">
    <path d="M 445.158825 164.51758
L 480.629554 164.51758
" clip-path="url(#p199836f8da)" style="fill: none; stroke: #328c06; stroke-width: 1.5"/>
   </g>
   <g id="LineCollection_9">
    <path d="M 462.89419 164.51758
L 462.89419 57.745544
" clip-path="url(#p199836f8da)" style="fill: none; stroke: #328c06; stroke-width: 1.5"/>
   </g>
   <g id="patch_3">
    <path d="M 51.433725 311.304146
L 51.433725 7.128812
" style="fill: none"/>
   </g>
   <g id="patch_4">
    <path d="M 519.647357 311.304146
L 519.647357 7.128812
" style="fill: none"/>
   </g>
   <g id="patch_5">
    <path d="M 51.433725 311.304146
L 519.647357 311.304146
" style="fill: none"/>
   </g>
   <g id="patch_6">
    <path d="M 51.433725 7.128812
L 519.647357 7.128812
" style="fill: none"/>
   </g>
   <g id="legend_1">
    <g id="line2d_47">
     <path d="M 467.612357 22.846937
L 479.612357 22.846937
L 491.612357 22.846937
" style="fill: none; stroke: #2a2eec; stroke-width: 1.5; stroke-linecap: round"/>
    </g>
    <g id="text_15">
     <!-- 0 -->
     <g style="fill: #262626" transform="translate(501.212357 27.046937) scale(0.12 -0.12)">
      <use xlink:href="#DejaVuSans-30"/>
     </g>
    </g>
    <g id="line2d_48">
     <path d="M 467.612357 40.460687
L 479.612357 40.460687
L 491.612357 40.460687
" style="fill: none; stroke: #fa7c17; stroke-width: 1.5; stroke-linecap: round"/>
    </g>
    <g id="text_16">
     <!-- 1 -->
     <g style="fill: #262626" transform="translate(501.212357 44.660687) scale(0.12 -0.12)">
      <use xlink:href="#DejaVuSans-31"/>
     </g>
    </g>
   </g>
  </g>
 </g>
 <defs>
  <clipPath id="p199836f8da">
   <rect x="51.433725" y="7.128812" width="468.213632" height="304.175334"/>
  </clipPath>
 </defs>
</svg>
