<?xml version="1.0" encoding="utf-8" standalone="no"?>
<!DOCTYPE svg PUBLIC "-//W3C//DTD SVG 1.1//EN"
  "http://www.w3.org/Graphics/SVG/1.1/DTD/svg11.dtd">
<svg xmlns:xlink="http://www.w3.org/1999/xlink" width="526.79952pt" height="353.99952pt" viewBox="0 0 526.79952 353.99952" xmlns="http://www.w3.org/2000/svg" version="1.1">
 <metadata>
  <rdf:RDF xmlns:dc="http://purl.org/dc/elements/1.1/" xmlns:cc="http://creativecommons.org/ns#" xmlns:rdf="http://www.w3.org/1999/02/22-rdf-syntax-ns#">
   <cc:Work>
    <dc:type rdf:resource="http://purl.org/dc/dcmitype/StillImage"/>
    <dc:date>2022-10-28T15:01:25.703505</dc:date>
    <dc:format>image/svg+xml</dc:format>
    <dc:creator>
     <cc:Agent>
      <dc:title>Matplotlib v3.6.1, https://matplotlib.org/</dc:title>
     </cc:Agent>
    </dc:creator>
   </cc:Work>
  </rdf:RDF>
 </metadata>
 <defs>
  <style type="text/css">*{stroke-linejoin: round; stroke-linecap: butt}</style>
 </defs>
 <g id="figure_1">
  <g id="patch_1">
   <path d="M 0 353.99952 
L 526.79952 353.99952 
L 526.79952 0 
L 0 0 
z
" style="fill: #ffffff"/>
  </g>
  <g id="axes_1">
   <g id="patch_2">
    <path d="M 51.433725 311.304146 
L 519.647357 311.304146 
L 519.647357 7.128812 
L 51.433725 7.128812 
z
" style="fill: #eeeeee"/>
   </g>
   <g id="matplotlib.axis_1">
    <g id="xtick_1">
     <g id="line2d_1">
      <path d="M 108.186893 311.304146 
L 108.186893 7.128812 
" clip-path="url(#pe36fb52665)" style="fill: none; stroke: #ffffff; stroke-width: 0.8; stroke-linecap: round"/>
     </g>
     <g id="line2d_2"/>
     <g id="text_1">
      <!-- 0.0 -->
      <g style="fill: #262626" transform="translate(97.054705 325.441958) scale(0.14 -0.14)">
       <defs>
        <path id="DejaVuSans-30" d="M 2034 4250 
Q 1547 4250 1301 3770 
Q 1056 3291 1056 2328 
Q 1056 1369 1301 889 
Q 1547 409 2034 409 
Q 2525 409 2770 889 
Q 3016 1369 3016 2328 
Q 3016 3291 2770 3770 
Q 2525 4250 2034 4250 
z
M 2034 4750 
Q 2819 4750 3233 4129 
Q 3647 3509 3647 2328 
Q 3647 1150 3233 529 
Q 2819 -91 2034 -91 
Q 1250 -91 836 529 
Q 422 1150 422 2328 
Q 422 3509 836 4129 
Q 1250 4750 2034 4750 
z
" transform="scale(0.015625)"/>
        <path id="DejaVuSans-2e" d="M 684 794 
L 1344 794 
L 1344 0 
L 684 0 
L 684 794 
z
" transform="scale(0.015625)"/>
       </defs>
       <use xlink:href="#DejaVuSans-30"/>
       <use xlink:href="#DejaVuSans-2e" x="63.623047"/>
       <use xlink:href="#DejaVuSans-30" x="95.410156"/>
      </g>
     </g>
    </g>
    <g id="xtick_2">
     <g id="line2d_3">
      <path d="M 179.128352 311.304146 
L 179.128352 7.128812 
" clip-path="url(#pe36fb52665)" style="fill: none; stroke: #ffffff; stroke-width: 0.8; stroke-linecap: round"/>
     </g>
     <g id="line2d_4"/>
     <g id="text_2">
      <!-- 0.2 -->
      <g style="fill: #262626" transform="translate(167.996165 325.441958) scale(0.14 -0.14)">
       <defs>
        <path id="DejaVuSans-32" d="M 1228 531 
L 3431 531 
L 3431 0 
L 469 0 
L 469 531 
Q 828 903 1448 1529 
Q 2069 2156 2228 2338 
Q 2531 2678 2651 2914 
Q 2772 3150 2772 3378 
Q 2772 3750 2511 3984 
Q 2250 4219 1831 4219 
Q 1534 4219 1204 4116 
Q 875 4013 500 3803 
L 500 4441 
Q 881 4594 1212 4672 
Q 1544 4750 1819 4750 
Q 2544 4750 2975 4387 
Q 3406 4025 3406 3419 
Q 3406 3131 3298 2873 
Q 3191 2616 2906 2266 
Q 2828 2175 2409 1742 
Q 1991 1309 1228 531 
z
" transform="scale(0.015625)"/>
       </defs>
       <use xlink:href="#DejaVuSans-30"/>
       <use xlink:href="#DejaVuSans-2e" x="63.623047"/>
       <use xlink:href="#DejaVuSans-32" x="95.410156"/>
      </g>
     </g>
    </g>
    <g id="xtick_3">
     <g id="line2d_5">
      <path d="M 250.069812 311.304146 
L 250.069812 7.128812 
" clip-path="url(#pe36fb52665)" style="fill: none; stroke: #ffffff; stroke-width: 0.8; stroke-linecap: round"/>
     </g>
     <g id="line2d_6"/>
     <g id="text_3">
      <!-- 0.4 -->
      <g style="fill: #262626" transform="translate(238.937624 325.441958) scale(0.14 -0.14)">
       <defs>
        <path id="DejaVuSans-34" d="M 2419 4116 
L 825 1625 
L 2419 1625 
L 2419 4116 
z
M 2253 4666 
L 3047 4666 
L 3047 1625 
L 3713 1625 
L 3713 1100 
L 3047 1100 
L 3047 0 
L 2419 0 
L 2419 1100 
L 313 1100 
L 313 1709 
L 2253 4666 
z
" transform="scale(0.015625)"/>
       </defs>
       <use xlink:href="#DejaVuSans-30"/>
       <use xlink:href="#DejaVuSans-2e" x="63.623047"/>
       <use xlink:href="#DejaVuSans-34" x="95.410156"/>
      </g>
     </g>
    </g>
    <g id="xtick_4">
     <g id="line2d_7">
      <path d="M 321.011271 311.304146 
L 321.011271 7.128812 
" clip-path="url(#pe36fb52665)" style="fill: none; stroke: #ffffff; stroke-width: 0.8; stroke-linecap: round"/>
     </g>
     <g id="line2d_8"/>
     <g id="text_4">
      <!-- 0.6 -->
      <g style="fill: #262626" transform="translate(309.879083 325.441958) scale(0.14 -0.14)">
       <defs>
        <path id="DejaVuSans-36" d="M 2113 2584 
Q 1688 2584 1439 2293 
Q 1191 2003 1191 1497 
Q 1191 994 1439 701 
Q 1688 409 2113 409 
Q 2538 409 2786 701 
Q 3034 994 3034 1497 
Q 3034 2003 2786 2293 
Q 2538 2584 2113 2584 
z
M 3366 4563 
L 3366 3988 
Q 3128 4100 2886 4159 
Q 2644 4219 2406 4219 
Q 1781 4219 1451 3797 
Q 1122 3375 1075 2522 
Q 1259 2794 1537 2939 
Q 1816 3084 2150 3084 
Q 2853 3084 3261 2657 
Q 3669 2231 3669 1497 
Q 3669 778 3244 343 
Q 2819 -91 2113 -91 
Q 1303 -91 875 529 
Q 447 1150 447 2328 
Q 447 3434 972 4092 
Q 1497 4750 2381 4750 
Q 2619 4750 2861 4703 
Q 3103 4656 3366 4563 
z
" transform="scale(0.015625)"/>
       </defs>
       <use xlink:href="#DejaVuSans-30"/>
       <use xlink:href="#DejaVuSans-2e" x="63.623047"/>
       <use xlink:href="#DejaVuSans-36" x="95.410156"/>
      </g>
     </g>
    </g>
    <g id="xtick_5">
     <g id="line2d_9">
      <path d="M 391.95273 311.304146 
L 391.95273 7.128812 
" clip-path="url(#pe36fb52665)" style="fill: none; stroke: #ffffff; stroke-width: 0.8; stroke-linecap: round"/>
     </g>
     <g id="line2d_10"/>
     <g id="text_5">
      <!-- 0.8 -->
      <g style="fill: #262626" transform="translate(380.820543 325.441958) scale(0.14 -0.14)">
       <defs>
        <path id="DejaVuSans-38" d="M 2034 2216 
Q 1584 2216 1326 1975 
Q 1069 1734 1069 1313 
Q 1069 891 1326 650 
Q 1584 409 2034 409 
Q 2484 409 2743 651 
Q 3003 894 3003 1313 
Q 3003 1734 2745 1975 
Q 2488 2216 2034 2216 
z
M 1403 2484 
Q 997 2584 770 2862 
Q 544 3141 544 3541 
Q 544 4100 942 4425 
Q 1341 4750 2034 4750 
Q 2731 4750 3128 4425 
Q 3525 4100 3525 3541 
Q 3525 3141 3298 2862 
Q 3072 2584 2669 2484 
Q 3125 2378 3379 2068 
Q 3634 1759 3634 1313 
Q 3634 634 3220 271 
Q 2806 -91 2034 -91 
Q 1263 -91 848 271 
Q 434 634 434 1313 
Q 434 1759 690 2068 
Q 947 2378 1403 2484 
z
M 1172 3481 
Q 1172 3119 1398 2916 
Q 1625 2713 2034 2713 
Q 2441 2713 2670 2916 
Q 2900 3119 2900 3481 
Q 2900 3844 2670 4047 
Q 2441 4250 2034 4250 
Q 1625 4250 1398 4047 
Q 1172 3844 1172 3481 
z
" transform="scale(0.015625)"/>
       </defs>
       <use xlink:href="#DejaVuSans-30"/>
       <use xlink:href="#DejaVuSans-2e" x="63.623047"/>
       <use xlink:href="#DejaVuSans-38" x="95.410156"/>
      </g>
     </g>
    </g>
    <g id="xtick_6">
     <g id="line2d_11">
      <path d="M 462.89419 311.304146 
L 462.89419 7.128812 
" clip-path="url(#pe36fb52665)" style="fill: none; stroke: #ffffff; stroke-width: 0.8; stroke-linecap: round"/>
     </g>
     <g id="line2d_12"/>
     <g id="text_6">
      <!-- 1.0 -->
      <g style="fill: #262626" transform="translate(451.762002 325.441958) scale(0.14 -0.14)">
       <defs>
        <path id="DejaVuSans-31" d="M 794 531 
L 1825 531 
L 1825 4091 
L 703 3866 
L 703 4441 
L 1819 4666 
L 2450 4666 
L 2450 531 
L 3481 531 
L 3481 0 
L 794 0 
L 794 531 
z
" transform="scale(0.015625)"/>
       </defs>
       <use xlink:href="#DejaVuSans-31"/>
       <use xlink:href="#DejaVuSans-2e" x="63.623047"/>
       <use xlink:href="#DejaVuSans-30" x="95.410156"/>
      </g>
     </g>
    </g>
    <g id="text_7">
     <!-- t -->
     <g style="fill: #262626" transform="translate(282.600307 343.751177) scale(0.15 -0.15)">
      <defs>
       <path id="DejaVuSans-74" d="M 1172 4494 
L 1172 3500 
L 2356 3500 
L 2356 3053 
L 1172 3053 
L 1172 1153 
Q 1172 725 1289 603 
Q 1406 481 1766 481 
L 2356 481 
L 2356 0 
L 1766 0 
Q 1100 0 847 248 
Q 594 497 594 1153 
L 594 3053 
L 172 3053 
L 172 3500 
L 594 3500 
L 594 4494 
L 1172 4494 
z
" transform="scale(0.015625)"/>
      </defs>
      <use xlink:href="#DejaVuSans-74"/>
     </g>
    </g>
   </g>
   <g id="matplotlib.axis_2">
    <g id="ytick_1">
     <g id="line2d_13">
      <path d="M 51.433725 257.110048 
L 519.647357 257.110048 
" clip-path="url(#pe36fb52665)" style="fill: none; stroke: #ffffff; stroke-width: 0.8; stroke-linecap: round"/>
     </g>
     <g id="line2d_14"/>
     <g id="text_8">
      <!-- 1.0 -->
      <g style="fill: #262626" transform="translate(25.66935 262.428954) scale(0.14 -0.14)">
       <use xlink:href="#DejaVuSans-31"/>
       <use xlink:href="#DejaVuSans-2e" x="63.623047"/>
       <use xlink:href="#DejaVuSans-30" x="95.410156"/>
      </g>
     </g>
    </g>
    <g id="ytick_2">
     <g id="line2d_15">
      <path d="M 51.433725 201.141981 
L 519.647357 201.141981 
" clip-path="url(#pe36fb52665)" style="fill: none; stroke: #ffffff; stroke-width: 0.8; stroke-linecap: round"/>
     </g>
     <g id="line2d_16"/>
     <g id="text_9">
      <!-- 1.5 -->
      <g style="fill: #262626" transform="translate(25.66935 206.460887) scale(0.14 -0.14)">
       <defs>
        <path id="DejaVuSans-35" d="M 691 4666 
L 3169 4666 
L 3169 4134 
L 1269 4134 
L 1269 2991 
Q 1406 3038 1543 3061 
Q 1681 3084 1819 3084 
Q 2600 3084 3056 2656 
Q 3513 2228 3513 1497 
Q 3513 744 3044 326 
Q 2575 -91 1722 -91 
Q 1428 -91 1123 -41 
Q 819 9 494 109 
L 494 744 
Q 775 591 1075 516 
Q 1375 441 1709 441 
Q 2250 441 2565 725 
Q 2881 1009 2881 1497 
Q 2881 1984 2565 2268 
Q 2250 2553 1709 2553 
Q 1456 2553 1204 2497 
Q 953 2441 691 2322 
L 691 4666 
z
" transform="scale(0.015625)"/>
       </defs>
       <use xlink:href="#DejaVuSans-31"/>
       <use xlink:href="#DejaVuSans-2e" x="63.623047"/>
       <use xlink:href="#DejaVuSans-35" x="95.410156"/>
      </g>
     </g>
    </g>
    <g id="ytick_3">
     <g id="line2d_17">
      <path d="M 51.433725 145.173914 
L 519.647357 145.173914 
" clip-path="url(#pe36fb52665)" style="fill: none; stroke: #ffffff; stroke-width: 0.8; stroke-linecap: round"/>
     </g>
     <g id="line2d_18"/>
     <g id="text_10">
      <!-- 2.0 -->
      <g style="fill: #262626" transform="translate(25.66935 150.49282) scale(0.14 -0.14)">
       <use xlink:href="#DejaVuSans-32"/>
       <use xlink:href="#DejaVuSans-2e" x="63.623047"/>
       <use xlink:href="#DejaVuSans-30" x="95.410156"/>
      </g>
     </g>
    </g>
    <g id="ytick_4">
     <g id="line2d_19">
      <path d="M 51.433725 89.205847 
L 519.647357 89.205847 
" clip-path="url(#pe36fb52665)" style="fill: none; stroke: #ffffff; stroke-width: 0.8; stroke-linecap: round"/>
     </g>
     <g id="line2d_20"/>
     <g id="text_11">
      <!-- 2.5 -->
      <g style="fill: #262626" transform="translate(25.66935 94.524754) scale(0.14 -0.14)">
       <use xlink:href="#DejaVuSans-32"/>
       <use xlink:href="#DejaVuSans-2e" x="63.623047"/>
       <use xlink:href="#DejaVuSans-35" x="95.410156"/>
      </g>
     </g>
    </g>
    <g id="ytick_5">
     <g id="line2d_21">
      <path d="M 51.433725 33.23778 
L 519.647357 33.23778 
" clip-path="url(#pe36fb52665)" style="fill: none; stroke: #ffffff; stroke-width: 0.8; stroke-linecap: round"/>
     </g>
     <g id="line2d_22"/>
     <g id="text_12">
      <!-- 3.0 -->
      <g style="fill: #262626" transform="translate(25.66935 38.556687) scale(0.14 -0.14)">
       <defs>
        <path id="DejaVuSans-33" d="M 2597 2516 
Q 3050 2419 3304 2112 
Q 3559 1806 3559 1356 
Q 3559 666 3084 287 
Q 2609 -91 1734 -91 
Q 1441 -91 1130 -33 
Q 819 25 488 141 
L 488 750 
Q 750 597 1062 519 
Q 1375 441 1716 441 
Q 2309 441 2620 675 
Q 2931 909 2931 1356 
Q 2931 1769 2642 2001 
Q 2353 2234 1838 2234 
L 1294 2234 
L 1294 2753 
L 1863 2753 
Q 2328 2753 2575 2939 
Q 2822 3125 2822 3475 
Q 2822 3834 2567 4026 
Q 2313 4219 1838 4219 
Q 1578 4219 1281 4162 
Q 984 4106 628 3988 
L 628 4550 
Q 988 4650 1302 4700 
Q 1616 4750 1894 4750 
Q 2613 4750 3031 4423 
Q 3450 4097 3450 3541 
Q 3450 3153 3228 2886 
Q 3006 2619 2597 2516 
z
" transform="scale(0.015625)"/>
       </defs>
       <use xlink:href="#DejaVuSans-33"/>
       <use xlink:href="#DejaVuSans-2e" x="63.623047"/>
       <use xlink:href="#DejaVuSans-30" x="95.410156"/>
      </g>
     </g>
    </g>
    <g id="text_13">
     <!-- y -->
     <g style="fill: #262626" transform="translate(18.549819 163.655541) rotate(-90) scale(0.15 -0.15)">
      <defs>
       <path id="DejaVuSans-79" d="M 2059 -325 
Q 1816 -950 1584 -1140 
Q 1353 -1331 966 -1331 
L 506 -1331 
L 506 -850 
L 844 -850 
Q 1081 -850 1212 -737 
Q 1344 -625 1503 -206 
L 1606 56 
L 191 3500 
L 800 3500 
L 1894 763 
L 2988 3500 
L 3597 3500 
L 2059 -325 
z
" transform="scale(0.015625)"/>
      </defs>
      <use xlink:href="#DejaVuSans-79"/>
     </g>
    </g>
   </g>
   <g id="PolyCollection_1">
    <path d="M 108.23423 297.477994 
L 108.139555 297.477994 
L 108.141436 296.566569 
L 108.146535 295.655143 
L 108.149243 294.743718 
L 108.144516 293.832292 
L 108.130668 292.920867 
L 108.109846 292.009441 
L 108.085651 291.098016 
L 108.059044 290.18659 
L 108.025273 289.275165 
L 107.974736 288.363739 
L 107.898297 287.452314 
L 107.793493 286.540888 
L 107.665945 285.629463 
L 107.523427 284.718037 
L 107.36682 283.806612 
L 107.185615 282.895186 
L 106.961204 281.983761 
L 106.674613 281.072335 
L 106.314313 280.16091 
L 105.882734 279.249485 
L 105.398829 278.338059 
L 104.890395 277.426634 
L 104.375259 276.515208 
L 103.844982 275.603783 
L 103.268905 274.692357 
L 102.617532 273.780932 
L 101.88219 272.869506 
L 101.071529 271.958081 
L 100.191616 271.046655 
L 99.232185 270.13523 
L 98.169115 269.223804 
L 96.972631 268.312379 
L 95.611137 267.400953 
L 94.058357 266.489528 
L 92.315075 265.578102 
L 90.434646 264.666677 
L 88.523203 263.755251 
L 86.70135 262.843826 
L 85.050741 261.9324 
L 83.584118 261.020975 
L 82.254529 260.109549 
L 80.988043 259.198124 
L 79.71825 258.286698 
L 78.414259 257.375273 
L 77.099411 256.463848 
L 75.850303 255.552422 
L 74.765391 254.640997 
L 73.913918 253.729571 
L 73.304343 252.818146 
L 72.90727 251.90672 
L 72.716163 250.995295 
L 72.781427 250.083869 
L 73.174272 249.172444 
L 73.908927 248.261018 
L 74.895081 247.349593 
L 75.967114 246.438167 
L 76.975172 245.526742 
L 77.876413 244.615316 
L 78.762649 243.703891 
L 79.80461 242.792465 
L 81.150016 241.88104 
L 82.837996 240.969614 
L 84.775552 240.058189 
L 86.786545 239.146763 
L 88.705288 238.235338 
L 90.455173 237.323912 
L 92.058595 236.412487 
L 93.580228 235.501061 
L 95.059979 234.589636 
L 96.486109 233.678211 
L 97.809982 232.766785 
L 98.975539 231.85536 
L 99.947455 230.943934 
L 100.734647 230.032509 
L 101.397875 229.121083 
L 102.026131 228.209658 
L 102.69024 227.298232 
L 103.409076 226.386807 
L 104.154015 225.475381 
L 104.878816 224.563956 
L 105.543199 223.65253 
L 106.117613 222.741105 
L 106.581663 221.829679 
L 106.928262 220.918254 
L 107.169312 220.006828 
L 107.332632 219.095403 
L 107.449597 218.183977 
L 107.542964 217.272552 
L 107.623023 216.361126 
L 107.691925 215.449701 
L 107.750484 214.538275 
L 107.801973 213.62685 
L 107.850801 212.715424 
L 107.898563 211.803999 
L 107.942503 210.892574 
L 107.978778 209.981148 
L 108.007221 209.069723 
L 108.032348 208.158297 
L 108.059506 207.246872 
L 108.31428 207.246872 
L 108.31428 207.246872 
L 108.341438 208.158297 
L 108.366565 209.069723 
L 108.395008 209.981148 
L 108.431282 210.892574 
L 108.475223 211.803999 
L 108.522985 212.715424 
L 108.571813 213.62685 
L 108.623302 214.538275 
L 108.681861 215.449701 
L 108.750762 216.361126 
L 108.830822 217.272552 
L 108.924189 218.183977 
L 109.041154 219.095403 
L 109.204474 220.006828 
L 109.445523 220.918254 
L 109.792123 221.829679 
L 110.256173 222.741105 
L 110.830587 223.65253 
L 111.49497 224.563956 
L 112.219771 225.475381 
L 112.96471 226.386807 
L 113.683546 227.298232 
L 114.347655 228.209658 
L 114.975911 229.121083 
L 115.639139 230.032509 
L 116.426331 230.943934 
L 117.398246 231.85536 
L 118.563804 232.766785 
L 119.887676 233.678211 
L 121.313806 234.589636 
L 122.793558 235.501061 
L 124.315191 236.412487 
L 125.918613 237.323912 
L 127.668498 238.235338 
L 129.58724 239.146763 
L 131.598233 240.058189 
L 133.535789 240.969614 
L 135.22377 241.88104 
L 136.569176 242.792465 
L 137.611137 243.703891 
L 138.497373 244.615316 
L 139.398613 245.526742 
L 140.406672 246.438167 
L 141.478705 247.349593 
L 142.464859 248.261018 
L 143.199514 249.172444 
L 143.592359 250.083869 
L 143.657623 250.995295 
L 143.466515 251.90672 
L 143.069443 252.818146 
L 142.459868 253.729571 
L 141.608395 254.640997 
L 140.523482 255.552422 
L 139.274375 256.463848 
L 137.959527 257.375273 
L 136.655536 258.286698 
L 135.385742 259.198124 
L 134.119256 260.109549 
L 132.789667 261.020975 
L 131.323045 261.9324 
L 129.672435 262.843826 
L 127.850583 263.755251 
L 125.93914 264.666677 
L 124.05871 265.578102 
L 122.315428 266.489528 
L 120.762649 267.400953 
L 119.401155 268.312379 
L 118.204671 269.223804 
L 117.141601 270.13523 
L 116.18217 271.046655 
L 115.302257 271.958081 
L 114.491595 272.869506 
L 113.756254 273.780932 
L 113.104881 274.692357 
L 112.528803 275.603783 
L 111.998527 276.515208 
L 111.48339 277.426634 
L 110.974957 278.338059 
L 110.491052 279.249485 
L 110.059472 280.16091 
L 109.699172 281.072335 
L 109.412581 281.983761 
L 109.188171 282.895186 
L 109.006965 283.806612 
L 108.850359 284.718037 
L 108.70784 285.629463 
L 108.580293 286.540888 
L 108.475489 287.452314 
L 108.399049 288.363739 
L 108.348512 289.275165 
L 108.314741 290.18659 
L 108.288135 291.098016 
L 108.26394 292.009441 
L 108.243118 292.920867 
L 108.22927 293.832292 
L 108.224543 294.743718 
L 108.227251 295.655143 
L 108.23235 296.566569 
L 108.23423 297.477994 
z
" clip-path="url(#pe36fb52665)" style="fill: #2a2eec; fill-opacity: 0.5"/>
   </g>
   <g id="PolyCollection_2">
    <path d="M 462.961413 180.192675 
L 462.826966 180.192675 
L 462.807988 179.319763 
L 462.779937 178.44685 
L 462.736016 177.573938 
L 462.670407 176.701025 
L 462.580608 175.828113 
L 462.468913 174.955201 
L 462.341912 174.082288 
L 462.207207 173.209376 
L 462.068624 172.336463 
L 461.923384 171.463551 
L 461.763285 170.590639 
L 461.578297 169.717726 
L 461.359785 168.844814 
L 461.102513 167.971901 
L 460.805153 167.098989 
L 460.467895 166.226077 
L 460.087834 165.353164 
L 459.65754 164.480252 
L 459.171424 163.607339 
L 458.635581 162.734427 
L 458.069996 161.861515 
L 457.497111 160.988602 
L 456.923285 160.11569 
L 456.326479 159.242777 
L 455.659098 158.369865 
L 454.865017 157.496953 
L 453.902195 156.62404 
L 452.760057 155.751128 
L 451.463767 154.878216 
L 450.063889 154.005303 
L 448.616791 153.132391 
L 447.16565 152.259478 
L 445.732026 151.386566 
L 444.321941 150.513654 
L 442.939486 149.640741 
L 441.592865 148.767829 
L 440.282872 147.894916 
L 438.982228 147.022004 
L 437.62941 146.149092 
L 436.153905 145.276179 
L 434.524096 144.403267 
L 432.787726 143.530354 
L 431.076611 142.657442 
L 429.56802 141.78453 
L 428.4197 140.911617 
L 427.711284 140.038705 
L 427.42346 139.165792 
L 427.46568 138.29288 
L 427.733873 137.419968 
L 428.160918 136.547055 
L 428.729586 135.674143 
L 429.447414 134.80123 
L 430.311704 133.928318 
L 431.294864 133.055406 
L 432.356231 132.182493 
L 433.462836 131.309581 
L 434.598992 130.436668 
L 435.760014 129.563756 
L 436.941469 128.690844 
L 438.137694 127.817931 
L 439.350069 126.945019 
L 440.591818 126.072106 
L 441.879253 125.199194 
L 443.216336 124.326282 
L 444.588631 123.453369 
L 445.972496 122.580457 
L 447.34922 121.707544 
L 448.710943 120.834632 
L 450.056201 119.96172 
L 451.382481 119.088807 
L 452.68119 118.215895 
L 453.933812 117.342982 
L 455.108463 116.47007 
L 456.162481 115.597158 
L 457.056743 114.724245 
L 457.776693 113.851333 
L 458.345208 112.97842 
L 458.815666 112.105508 
L 459.247826 111.232596 
L 459.681793 110.359683 
L 460.126054 109.486771 
L 460.564292 108.613859 
L 460.972133 107.740946 
L 461.33076 106.868034 
L 461.631505 105.995121 
L 461.874428 105.122209 
L 462.065689 104.249297 
L 462.21505 103.376384 
L 462.332968 102.503472 
L 462.427936 101.630559 
L 462.505399 100.757647 
L 462.568161 99.884735 
L 462.617272 99.011822 
L 462.652958 98.13891 
L 462.675991 97.265997 
L 462.689364 96.393085 
L 462.699055 95.520173 
L 462.712493 94.64726 
L 462.735018 93.774348 
L 463.053361 93.774348 
L 463.053361 93.774348 
L 463.075886 94.64726 
L 463.089324 95.520173 
L 463.099015 96.393085 
L 463.112388 97.265997 
L 463.135421 98.13891 
L 463.171107 99.011822 
L 463.220218 99.884735 
L 463.28298 100.757647 
L 463.360443 101.630559 
L 463.455412 102.503472 
L 463.573329 103.376384 
L 463.722691 104.249297 
L 463.913951 105.122209 
L 464.156874 105.995121 
L 464.457619 106.868034 
L 464.816246 107.740946 
L 465.224087 108.613859 
L 465.662326 109.486771 
L 466.106586 110.359683 
L 466.540553 111.232596 
L 466.972713 112.105508 
L 467.443172 112.97842 
L 468.011687 113.851333 
L 468.731636 114.724245 
L 469.625899 115.597158 
L 470.679917 116.47007 
L 471.854567 117.342982 
L 473.10719 118.215895 
L 474.405898 119.088807 
L 475.732178 119.96172 
L 477.077436 120.834632 
L 478.43916 121.707544 
L 479.815883 122.580457 
L 481.199748 123.453369 
L 482.572044 124.326282 
L 483.909126 125.199194 
L 485.196561 126.072106 
L 486.438311 126.945019 
L 487.650685 127.817931 
L 488.846911 128.690844 
L 490.028366 129.563756 
L 491.189387 130.436668 
L 492.325544 131.309581 
L 493.432149 132.182493 
L 494.493516 133.055406 
L 495.476675 133.928318 
L 496.340965 134.80123 
L 497.058793 135.674143 
L 497.627461 136.547055 
L 498.054506 137.419968 
L 498.322699 138.29288 
L 498.364919 139.165792 
L 498.077095 140.038705 
L 497.368679 140.911617 
L 496.220359 141.78453 
L 494.711769 142.657442 
L 493.000653 143.530354 
L 491.264283 144.403267 
L 489.634474 145.276179 
L 488.158969 146.149092 
L 486.806151 147.022004 
L 485.505507 147.894916 
L 484.195514 148.767829 
L 482.848894 149.640741 
L 481.466439 150.513654 
L 480.056353 151.386566 
L 478.62273 152.259478 
L 477.171589 153.132391 
L 475.72449 154.005303 
L 474.324613 154.878216 
L 473.028322 155.751128 
L 471.886184 156.62404 
L 470.923362 157.496953 
L 470.129281 158.369865 
L 469.4619 159.242777 
L 468.865094 160.11569 
L 468.291268 160.988602 
L 467.718383 161.861515 
L 467.152798 162.734427 
L 466.616955 163.607339 
L 466.130839 164.480252 
L 465.700546 165.353164 
L 465.320484 166.226077 
L 464.983226 167.098989 
L 464.685867 167.971901 
L 464.428595 168.844814 
L 464.210082 169.717726 
L 464.025094 170.590639 
L 463.864995 171.463551 
L 463.719755 172.336463 
L 463.581173 173.209376 
L 463.446467 174.082288 
L 463.319466 174.955201 
L 463.207771 175.828113 
L 463.117973 176.701025 
L 463.052363 177.573938 
L 463.008443 178.44685 
L 462.980392 179.319763 
L 462.961413 180.192675 
z
" clip-path="url(#pe36fb52665)" style="fill: #2a2eec; fill-opacity: 0.5"/>
   </g>
   <g id="PolyCollection_3">
    <path d="M 108.235461 275.105214 
L 108.138325 275.105214 
L 108.138303 274.209511 
L 108.139395 273.313808 
L 108.135361 272.418105 
L 108.120284 271.522402 
L 108.091246 270.626699 
L 108.048676 269.730996 
L 107.993703 268.835293 
L 107.924135 267.939589 
L 107.832375 267.043886 
L 107.708114 266.148183 
L 107.545434 265.25248 
L 107.34987 264.356777 
L 107.139478 263.461074 
L 106.937279 262.565371 
L 106.75916 261.669668 
L 106.605512 260.773964 
L 106.461822 259.878261 
L 106.305644 258.982558 
L 106.112908 258.086855 
L 105.859624 257.191152 
L 105.521483 256.295449 
L 105.076514 255.399746 
L 104.512507 254.504043 
L 103.835754 253.608339 
L 103.075405 252.712636 
L 102.278214 251.816933 
L 101.490581 250.92123 
L 100.732185 250.025527 
L 99.977967 249.129824 
L 99.168424 248.234121 
L 98.248122 247.338418 
L 97.202705 246.442714 
L 96.059233 245.547011 
L 94.846226 244.651308 
L 93.550038 243.755605 
L 92.112689 242.859902 
L 90.480231 241.964199 
L 88.660175 241.068496 
L 86.732615 240.172793 
L 84.803408 239.277089 
L 82.946255 238.381386 
L 81.187731 237.485683 
L 79.537431 236.58998 
L 78.018107 235.694277 
L 76.66265 234.798574 
L 75.493263 233.902871 
L 74.517661 233.007168 
L 73.745811 232.111464 
L 73.196205 231.215761 
L 72.872856 230.320058 
L 72.737429 229.424355 
L 72.716163 228.528652 
L 72.746278 227.632949 
L 72.822199 226.737246 
L 72.998491 225.841543 
L 73.347077 224.945839 
L 73.90968 224.050136 
L 74.689004 223.154433 
L 75.680399 222.25873 
L 76.902864 221.363027 
L 78.390967 220.467324 
L 80.154017 219.571621 
L 82.144674 218.675918 
L 84.26711 217.780214 
L 86.413532 216.884511 
L 88.496003 215.988808 
L 90.456237 215.093105 
L 92.261161 214.197402 
L 93.896575 213.301699 
L 95.360923 212.405996 
L 96.658142 211.510293 
L 97.794429 210.614589 
L 98.783242 209.718886 
L 99.653221 208.823183 
L 100.448395 207.92748 
L 101.216221 207.031777 
L 101.989214 206.136074 
L 102.770796 205.240371 
L 103.533884 204.344668 
L 104.234107 203.448964 
L 104.831607 202.553261 
L 105.309824 201.657558 
L 105.68095 200.761855 
L 105.97615 199.866152 
L 106.228413 198.970449 
L 106.459188 198.074746 
L 106.67521 197.179043 
L 106.874161 196.28334 
L 107.05274 195.387636 
L 107.210981 194.491933 
L 107.35127 193.59623 
L 107.475514 192.700527 
L 107.584438 191.804824 
L 107.679135 190.909121 
L 107.762075 190.013418 
L 107.836271 189.117715 
L 107.904008 188.222011 
L 107.966375 187.326308 
L 108.023251 186.430605 
L 108.350534 186.430605 
L 108.350534 186.430605 
L 108.407411 187.326308 
L 108.469778 188.222011 
L 108.537514 189.117715 
L 108.611711 190.013418 
L 108.69465 190.909121 
L 108.789348 191.804824 
L 108.898272 192.700527 
L 109.022515 193.59623 
L 109.162805 194.491933 
L 109.321046 195.387636 
L 109.499625 196.28334 
L 109.698575 197.179043 
L 109.914598 198.074746 
L 110.145373 198.970449 
L 110.397636 199.866152 
L 110.692835 200.761855 
L 111.063961 201.657558 
L 111.542179 202.553261 
L 112.139678 203.448964 
L 112.839902 204.344668 
L 113.60299 205.240371 
L 114.384572 206.136074 
L 115.157564 207.031777 
L 115.925391 207.92748 
L 116.720565 208.823183 
L 117.590544 209.718886 
L 118.579356 210.614589 
L 119.715644 211.510293 
L 121.012863 212.405996 
L 122.477211 213.301699 
L 124.112625 214.197402 
L 125.917549 215.093105 
L 127.877783 215.988808 
L 129.960254 216.884511 
L 132.106676 217.780214 
L 134.229112 218.675918 
L 136.219769 219.571621 
L 137.982819 220.467324 
L 139.470921 221.363027 
L 140.693387 222.25873 
L 141.684781 223.154433 
L 142.464106 224.050136 
L 143.026709 224.945839 
L 143.375295 225.841543 
L 143.551587 226.737246 
L 143.627507 227.632949 
L 143.657623 228.528652 
L 143.636357 229.424355 
L 143.50093 230.320058 
L 143.177581 231.215761 
L 142.627975 232.111464 
L 141.856125 233.007168 
L 140.880523 233.902871 
L 139.711136 234.798574 
L 138.355679 235.694277 
L 136.836355 236.58998 
L 135.186055 237.485683 
L 133.427531 238.381386 
L 131.570378 239.277089 
L 129.641171 240.172793 
L 127.713611 241.068496 
L 125.893554 241.964199 
L 124.261097 242.859902 
L 122.823748 243.755605 
L 121.527559 244.651308 
L 120.314553 245.547011 
L 119.171081 246.442714 
L 118.125664 247.338418 
L 117.205362 248.234121 
L 116.395818 249.129824 
L 115.6416 250.025527 
L 114.883205 250.92123 
L 114.095572 251.816933 
L 113.298381 252.712636 
L 112.538032 253.608339 
L 111.861279 254.504043 
L 111.297272 255.399746 
L 110.852303 256.295449 
L 110.514162 257.191152 
L 110.260878 258.086855 
L 110.068142 258.982558 
L 109.911964 259.878261 
L 109.768274 260.773964 
L 109.614625 261.669668 
L 109.436506 262.565371 
L 109.234308 263.461074 
L 109.023916 264.356777 
L 108.828351 265.25248 
L 108.665671 266.148183 
L 108.541411 267.043886 
L 108.44965 267.939589 
L 108.380082 268.835293 
L 108.32511 269.730996 
L 108.28254 270.626699 
L 108.253502 271.522402 
L 108.238424 272.418105 
L 108.234391 273.313808 
L 108.235482 274.209511 
L 108.235461 275.105214 
z
" clip-path="url(#pe36fb52665)" style="fill: #fa7c17; fill-opacity: 0.3"/>
   </g>
   <g id="PolyCollection_4">
    <path d="M 462.941571 117.705695 
L 462.846808 117.705695 
L 462.850963 116.728415 
L 462.861348 115.751135 
L 462.873307 114.773855 
L 462.882654 113.796575 
L 462.88724 112.819295 
L 462.886169 111.842015 
L 462.878257 110.864735 
L 462.861501 109.887455 
L 462.833739 108.910174 
L 462.792975 107.932894 
L 462.735838 106.955614 
L 462.655009 105.978334 
L 462.539067 105.001054 
L 462.377322 104.023774 
L 462.167221 103.046494 
L 461.917388 102.069214 
L 461.640783 101.091933 
L 461.340827 100.114653 
L 461.002227 99.137373 
L 460.597997 98.160093 
L 460.111308 97.182813 
L 459.55493 96.205533 
L 458.968578 95.228253 
L 458.39215 94.250973 
L 457.83422 93.273692 
L 457.257894 92.296412 
L 456.591908 91.319132 
L 455.761166 90.341852 
L 454.719489 89.364572 
L 453.459925 88.387292 
L 451.997609 87.410012 
L 450.357951 86.432732 
L 448.593883 85.455451 
L 446.79582 84.478171 
L 445.048131 83.500891 
L 443.362299 82.523611 
L 441.666047 81.546331 
L 439.873259 80.569051 
L 437.975896 79.591771 
L 436.077456 78.614491 
L 434.335447 77.63721 
L 432.859424 76.65993 
L 431.65411 75.68265 
L 430.649669 74.70537 
L 429.773872 73.72809 
L 428.998746 72.75081 
L 428.341401 71.77353 
L 427.838725 70.79625 
L 427.52382 69.818969 
L 427.42346 68.841689 
L 427.565187 67.864409 
L 427.959256 66.887129 
L 428.561018 65.909849 
L 429.278791 64.932569 
L 430.058997 63.955289 
L 430.971156 62.978009 
L 432.180967 62.000729 
L 433.809569 61.023448 
L 435.809301 60.046168 
L 437.976496 59.068888 
L 440.079086 58.091608 
L 441.975302 57.114328 
L 443.643368 56.137048 
L 445.142506 55.159768 
L 446.558849 54.182488 
L 447.961406 53.205207 
L 449.376405 52.227927 
L 450.791173 51.250647 
L 452.181675 50.273367 
L 453.53165 49.296087 
L 454.82321 48.318807 
L 456.020359 47.341527 
L 457.076662 46.364247 
L 457.962334 45.386966 
L 458.680713 44.409686 
L 459.262549 43.432406 
L 459.751126 42.455126 
L 460.188317 41.477846 
L 460.601569 40.500566 
L 460.99657 39.523286 
L 461.362616 38.546006 
L 461.684674 37.568725 
L 461.949684 36.591445 
L 462.147822 35.614165 
L 462.278069 34.636885 
L 462.355451 33.659605 
L 462.407611 32.682325 
L 462.459879 31.705045 
L 462.522835 30.727765 
L 462.592704 29.750484 
L 462.66021 28.773204 
L 462.717538 27.795924 
L 462.759448 26.818644 
L 462.782413 25.841364 
L 462.786052 24.864084 
L 462.775929 23.886804 
L 462.763412 22.909524 
L 462.760674 21.932243 
L 462.773988 20.954963 
L 463.014391 20.954963 
L 463.014391 20.954963 
L 463.027705 21.932243 
L 463.024967 22.909524 
L 463.012451 23.886804 
L 463.002327 24.864084 
L 463.005966 25.841364 
L 463.028932 26.818644 
L 463.070841 27.795924 
L 463.128169 28.773204 
L 463.195675 29.750484 
L 463.265544 30.727765 
L 463.328501 31.705045 
L 463.380768 32.682325 
L 463.432929 33.659605 
L 463.51031 34.636885 
L 463.640557 35.614165 
L 463.838695 36.591445 
L 464.103705 37.568725 
L 464.425763 38.546006 
L 464.791809 39.523286 
L 465.18681 40.500566 
L 465.600062 41.477846 
L 466.037253 42.455126 
L 466.52583 43.432406 
L 467.107666 44.409686 
L 467.826045 45.386966 
L 468.711717 46.364247 
L 469.76802 47.341527 
L 470.965169 48.318807 
L 472.256729 49.296087 
L 473.606704 50.273367 
L 474.997207 51.250647 
L 476.411974 52.227927 
L 477.826973 53.205207 
L 479.22953 54.182488 
L 480.645873 55.159768 
L 482.145011 56.137048 
L 483.813077 57.114328 
L 485.709293 58.091608 
L 487.811883 59.068888 
L 489.979078 60.046168 
L 491.97881 61.023448 
L 493.607412 62.000729 
L 494.817223 62.978009 
L 495.729382 63.955289 
L 496.509589 64.932569 
L 497.227361 65.909849 
L 497.829123 66.887129 
L 498.223192 67.864409 
L 498.364919 68.841689 
L 498.264559 69.818969 
L 497.949655 70.79625 
L 497.446978 71.77353 
L 496.789633 72.75081 
L 496.014508 73.72809 
L 495.13871 74.70537 
L 494.134269 75.68265 
L 492.928956 76.65993 
L 491.452932 77.63721 
L 489.710923 78.614491 
L 487.812483 79.591771 
L 485.915121 80.569051 
L 484.122332 81.546331 
L 482.42608 82.523611 
L 480.740248 83.500891 
L 478.99256 84.478171 
L 477.194496 85.455451 
L 475.430429 86.432732 
L 473.79077 87.410012 
L 472.328454 88.387292 
L 471.06889 89.364572 
L 470.027213 90.341852 
L 469.196471 91.319132 
L 468.530486 92.296412 
L 467.954159 93.273692 
L 467.396229 94.250973 
L 466.819801 95.228253 
L 466.233449 96.205533 
L 465.677071 97.182813 
L 465.190383 98.160093 
L 464.786152 99.137373 
L 464.447552 100.114653 
L 464.147596 101.091933 
L 463.870991 102.069214 
L 463.621158 103.046494 
L 463.411057 104.023774 
L 463.249312 105.001054 
L 463.133371 105.978334 
L 463.052541 106.955614 
L 462.995404 107.932894 
L 462.954641 108.910174 
L 462.926879 109.887455 
L 462.910123 110.864735 
L 462.90221 111.842015 
L 462.901139 112.819295 
L 462.905725 113.796575 
L 462.915072 114.773855 
L 462.927031 115.751135 
L 462.937417 116.728415 
L 462.941571 117.705695 
z
" clip-path="url(#pe36fb52665)" style="fill: #fa7c17; fill-opacity: 0.3"/>
   </g>
   <g id="PolyCollection_5">
    <path d="M 463.111482 158.423199 
L 462.676898 158.423199 
L 462.592938 157.42296 
L 462.49526 156.422721 
L 462.384576 155.422482 
L 462.261553 154.422243 
L 462.124462 153.422004 
L 461.966812 152.421765 
L 461.778601 151.421526 
L 461.551366 150.421287 
L 461.281935 149.421049 
L 460.969775 148.42081 
L 460.609917 147.420571 
L 460.190587 146.420332 
L 459.702094 145.420093 
L 459.15072 144.419854 
L 458.561568 143.419615 
L 457.961404 142.419376 
L 457.352204 141.419138 
L 456.697785 140.418899 
L 455.936354 139.41866 
L 455.010545 138.418421 
L 453.894235 137.418182 
L 452.602087 136.417943 
L 451.182731 135.417704 
L 449.702953 134.417465 
L 448.227981 133.417226 
L 446.803576 132.416988 
L 445.448385 131.416749 
L 444.159186 130.41651 
L 442.920527 129.416271 
L 441.708794 128.416032 
L 440.491128 127.415793 
L 439.228822 126.415554 
L 437.893004 125.415315 
L 436.487995 124.415076 
L 435.063436 123.414838 
L 433.695996 122.414599 
L 432.444897 121.41436 
L 431.315653 120.414121 
L 430.268783 119.413882 
L 429.274869 118.413643 
L 428.375897 117.413404 
L 427.702481 116.413165 
L 427.42346 115.412926 
L 427.64979 114.412688 
L 428.353719 113.412449 
L 429.367209 112.41221 
L 430.472558 111.411971 
L 431.523942 110.411732 
L 432.510192 109.411493 
L 433.519625 108.411254 
L 434.649045 107.411015 
L 435.934078 106.410777 
L 437.343286 105.410538 
L 438.81921 104.410299 
L 440.320738 103.41006 
L 441.835361 102.409821 
L 443.361973 101.409582 
L 444.887291 100.409343 
L 446.379489 99.409104 
L 447.804521 98.408865 
L 449.149868 97.408627 
L 450.434617 96.408388 
L 451.696725 95.408149 
L 452.965906 94.40791 
L 454.239962 93.407671 
L 455.478835 92.407432 
L 456.618998 91.407193 
L 457.599632 90.406954 
L 458.387191 89.406715 
L 458.987102 88.406477 
L 459.43807 87.406238 
L 459.793575 86.405999 
L 460.102289 85.40576 
L 460.398178 84.405521 
L 460.700797 83.405282 
L 461.017136 82.405043 
L 461.339427 81.404804 
L 461.644268 80.404565 
L 461.901609 79.404327 
L 462.091866 78.404088 
L 462.218277 77.403849 
L 462.303665 76.40361 
L 462.374451 75.403371 
L 462.445438 74.403132 
L 462.516458 73.402893 
L 462.580222 72.402654 
L 462.631896 71.402416 
L 462.672253 70.402177 
L 462.70448 69.401938 
L 462.730565 68.401699 
L 462.75138 67.40146 
L 462.768742 66.401221 
L 462.785477 65.400982 
L 462.803004 64.400743 
L 462.819633 63.400504 
L 462.832051 62.400266 
L 462.838656 61.400027 
L 462.841389 60.399788 
L 462.844351 59.399549 
L 462.944028 59.399549 
L 462.944028 59.399549 
L 462.946991 60.399788 
L 462.949724 61.400027 
L 462.956329 62.400266 
L 462.968746 63.400504 
L 462.985375 64.400743 
L 463.002902 65.400982 
L 463.019638 66.401221 
L 463.036999 67.40146 
L 463.057815 68.401699 
L 463.083899 69.401938 
L 463.116127 70.402177 
L 463.156484 71.402416 
L 463.208157 72.402654 
L 463.271921 73.402893 
L 463.342942 74.403132 
L 463.413928 75.403371 
L 463.484714 76.40361 
L 463.570102 77.403849 
L 463.696513 78.404088 
L 463.88677 79.404327 
L 464.144111 80.404565 
L 464.448952 81.404804 
L 464.771243 82.405043 
L 465.087582 83.405282 
L 465.390201 84.405521 
L 465.68609 85.40576 
L 465.994804 86.405999 
L 466.350309 87.406238 
L 466.801278 88.406477 
L 467.401188 89.406715 
L 468.188748 90.406954 
L 469.169381 91.407193 
L 470.309545 92.407432 
L 471.548417 93.407671 
L 472.822474 94.40791 
L 474.091655 95.408149 
L 475.353762 96.408388 
L 476.638511 97.408627 
L 477.983858 98.408865 
L 479.40889 99.409104 
L 480.901089 100.409343 
L 482.426406 101.409582 
L 483.953019 102.409821 
L 485.467642 103.41006 
L 486.969169 104.410299 
L 488.445093 105.410538 
L 489.854301 106.410777 
L 491.139334 107.411015 
L 492.268754 108.411254 
L 493.278187 109.411493 
L 494.264438 110.411732 
L 495.315821 111.411971 
L 496.42117 112.41221 
L 497.434661 113.412449 
L 498.13859 114.412688 
L 498.364919 115.412926 
L 498.085898 116.413165 
L 497.412482 117.413404 
L 496.51351 118.413643 
L 495.519597 119.413882 
L 494.472726 120.414121 
L 493.343482 121.41436 
L 492.092384 122.414599 
L 490.724944 123.414838 
L 489.300384 124.415076 
L 487.895375 125.415315 
L 486.559558 126.415554 
L 485.297251 127.415793 
L 484.079585 128.416032 
L 482.867852 129.416271 
L 481.629193 130.41651 
L 480.339994 131.416749 
L 478.984803 132.416988 
L 477.560398 133.417226 
L 476.085427 134.417465 
L 474.605648 135.417704 
L 473.186292 136.417943 
L 471.894144 137.418182 
L 470.777834 138.418421 
L 469.852025 139.41866 
L 469.090594 140.418899 
L 468.436175 141.419138 
L 467.826976 142.419376 
L 467.226811 143.419615 
L 466.63766 144.419854 
L 466.086286 145.420093 
L 465.597792 146.420332 
L 465.178462 147.420571 
L 464.818604 148.42081 
L 464.506444 149.421049 
L 464.237014 150.421287 
L 464.009778 151.421526 
L 463.821567 152.421765 
L 463.663918 153.422004 
L 463.526827 154.422243 
L 463.403803 155.422482 
L 463.293119 156.422721 
L 463.195441 157.42296 
L 463.111482 158.423199 
z
" clip-path="url(#pe36fb52665)" style="fill: #328c06; fill-opacity: 0.3"/>
   </g>
   <g id="line2d_23">
    <path d="M 108.186893 252.942056 
L 462.89419 124.98818 
" clip-path="url(#pe36fb52665)" style="fill: none; stroke: #2a2eec; stroke-opacity: 0.25; stroke-width: 1.5; stroke-linecap: round"/>
   </g>
   <g id="line2d_24">
    <path d="M 108.186893 230.493716 
L 462.89419 137.944666 
" clip-path="url(#pe36fb52665)" style="fill: none; stroke: #2a2eec; stroke-opacity: 0.25; stroke-width: 1.5; stroke-linecap: round"/>
   </g>
   <g id="line2d_25">
    <path d="M 108.186893 249.839574 
L 462.89419 149.516782 
" clip-path="url(#pe36fb52665)" style="fill: none; stroke: #2a2eec; stroke-opacity: 0.25; stroke-width: 1.5; stroke-linecap: round"/>
   </g>
   <g id="line2d_26">
    <path d="M 108.186893 268.890647 
L 462.89419 119.683355 
" clip-path="url(#pe36fb52665)" style="fill: none; stroke: #2a2eec; stroke-opacity: 0.25; stroke-width: 1.5; stroke-linecap: round"/>
   </g>
   <g id="line2d_27">
    <path d="M 108.186893 236.457353 
L 462.89419 129.823464 
" clip-path="url(#pe36fb52665)" style="fill: none; stroke: #2a2eec; stroke-opacity: 0.25; stroke-width: 1.5; stroke-linecap: round"/>
   </g>
   <g id="line2d_28">
    <path d="M 108.186893 262.92552 
L 462.89419 146.163584 
" clip-path="url(#pe36fb52665)" style="fill: none; stroke: #2a2eec; stroke-opacity: 0.25; stroke-width: 1.5; stroke-linecap: round"/>
   </g>
   <g id="line2d_29">
    <path d="M 108.186893 247.699578 
L 462.89419 145.74298 
" clip-path="url(#pe36fb52665)" style="fill: none; stroke: #2a2eec; stroke-opacity: 0.25; stroke-width: 1.5; stroke-linecap: round"/>
   </g>
   <g id="line2d_30">
    <path d="M 108.186893 257.255432 
L 462.89419 157.326078 
" clip-path="url(#pe36fb52665)" style="fill: none; stroke: #2a2eec; stroke-opacity: 0.25; stroke-width: 1.5; stroke-linecap: round"/>
   </g>
   <g id="line2d_31">
    <path d="M 108.186893 257.80941 
L 462.89419 114.649806 
" clip-path="url(#pe36fb52665)" style="fill: none; stroke: #2a2eec; stroke-opacity: 0.25; stroke-width: 1.5; stroke-linecap: round"/>
   </g>
   <g id="line2d_32">
    <path d="M 108.186893 246.130418 
L 462.89419 148.699731 
" clip-path="url(#pe36fb52665)" style="fill: none; stroke: #2a2eec; stroke-opacity: 0.25; stroke-width: 1.5; stroke-linecap: round"/>
   </g>
   <g id="line2d_33">
    <path d="M 108.186893 236.791271 
L 462.89419 81.012704 
" clip-path="url(#pe36fb52665)" style="fill: none; stroke: #fa7c17; stroke-opacity: 0.25; stroke-width: 1.5; stroke-linecap: round"/>
   </g>
   <g id="line2d_34">
    <path d="M 108.186893 236.189573 
L 462.89419 64.406032 
" clip-path="url(#pe36fb52665)" style="fill: none; stroke: #fa7c17; stroke-opacity: 0.25; stroke-width: 1.5; stroke-linecap: round"/>
   </g>
   <g id="line2d_35">
    <path d="M 108.186893 227.36527 
L 462.89419 83.517201 
" clip-path="url(#pe36fb52665)" style="fill: none; stroke: #fa7c17; stroke-opacity: 0.25; stroke-width: 1.5; stroke-linecap: round"/>
   </g>
   <g id="line2d_36">
    <path d="M 108.186893 222.694319 
L 462.89419 77.775176 
" clip-path="url(#pe36fb52665)" style="fill: none; stroke: #fa7c17; stroke-opacity: 0.25; stroke-width: 1.5; stroke-linecap: round"/>
   </g>
   <g id="line2d_37">
    <path d="M 108.186893 226.029916 
L 462.89419 55.94555 
" clip-path="url(#pe36fb52665)" style="fill: none; stroke: #fa7c17; stroke-opacity: 0.25; stroke-width: 1.5; stroke-linecap: round"/>
   </g>
   <g id="line2d_38">
    <path d="M 108.186893 224.012847 
L 462.89419 65.227719 
" clip-path="url(#pe36fb52665)" style="fill: none; stroke: #fa7c17; stroke-opacity: 0.25; stroke-width: 1.5; stroke-linecap: round"/>
   </g>
   <g id="line2d_39">
    <path d="M 108.186893 225.855947 
L 462.89419 57.688773 
" clip-path="url(#pe36fb52665)" style="fill: none; stroke: #fa7c17; stroke-opacity: 0.25; stroke-width: 1.5; stroke-linecap: round"/>
   </g>
   <g id="line2d_40">
    <path d="M 108.186893 233.462656 
L 462.89419 62.113231 
" clip-path="url(#pe36fb52665)" style="fill: none; stroke: #fa7c17; stroke-opacity: 0.25; stroke-width: 1.5; stroke-linecap: round"/>
   </g>
   <g id="line2d_41">
    <path d="M 108.186893 237.112507 
L 462.89419 66.857371 
" clip-path="url(#pe36fb52665)" style="fill: none; stroke: #fa7c17; stroke-opacity: 0.25; stroke-width: 1.5; stroke-linecap: round"/>
   </g>
   <g id="line2d_42">
    <path d="M 108.186893 216.627385 
L 462.89419 79.002128 
" clip-path="url(#pe36fb52665)" style="fill: none; stroke: #fa7c17; stroke-opacity: 0.25; stroke-width: 1.5; stroke-linecap: round"/>
   </g>
   <g id="line2d_43"/>
   <g id="line2d_44"/>
   <g id="LineCollection_1">
    <path d="M 90.451528 207.246872 
L 125.922258 207.246872 
" clip-path="url(#pe36fb52665)" style="fill: none; stroke: #2a2eec; stroke-width: 1.5"/>
    <path d="M 445.158825 93.774348 
L 480.629554 93.774348 
" clip-path="url(#pe36fb52665)" style="fill: none; stroke: #2a2eec; stroke-width: 1.5"/>
   </g>
   <g id="LineCollection_2">
    <path d="M 90.451528 297.477994 
L 125.922258 297.477994 
" clip-path="url(#pe36fb52665)" style="fill: none; stroke: #2a2eec; stroke-width: 1.5"/>
    <path d="M 445.158825 180.192675 
L 480.629554 180.192675 
" clip-path="url(#pe36fb52665)" style="fill: none; stroke: #2a2eec; stroke-width: 1.5"/>
   </g>
   <g id="LineCollection_3">
    <path d="M 108.186893 297.477994 
L 108.186893 207.246872 
" clip-path="url(#pe36fb52665)" style="fill: none; stroke: #2a2eec; stroke-width: 1.5"/>
    <path d="M 462.89419 180.192675 
L 462.89419 93.774348 
" clip-path="url(#pe36fb52665)" style="fill: none; stroke: #2a2eec; stroke-width: 1.5"/>
   </g>
   <g id="LineCollection_4">
    <path d="M 90.451528 186.430605 
L 125.922258 186.430605 
" clip-path="url(#pe36fb52665)" style="fill: none; stroke: #fa7c17; stroke-width: 1.5"/>
    <path d="M 445.158825 20.954963 
L 480.629554 20.954963 
" clip-path="url(#pe36fb52665)" style="fill: none; stroke: #fa7c17; stroke-width: 1.5"/>
   </g>
   <g id="LineCollection_5">
    <path d="M 90.451528 275.105214 
L 125.922258 275.105214 
" clip-path="url(#pe36fb52665)" style="fill: none; stroke: #fa7c17; stroke-width: 1.5"/>
    <path d="M 445.158825 117.705695 
L 480.629554 117.705695 
" clip-path="url(#pe36fb52665)" style="fill: none; stroke: #fa7c17; stroke-width: 1.5"/>
   </g>
   <g id="LineCollection_6">
    <path d="M 108.186893 275.105214 
L 108.186893 186.430605 
" clip-path="url(#pe36fb52665)" style="fill: none; stroke: #fa7c17; stroke-width: 1.5"/>
    <path d="M 462.89419 117.705695 
L 462.89419 20.954963 
" clip-path="url(#pe36fb52665)" style="fill: none; stroke: #fa7c17; stroke-width: 1.5"/>
   </g>
   <g id="LineCollection_7">
    <path d="M 445.158825 59.399549 
L 480.629554 59.399549 
" clip-path="url(#pe36fb52665)" style="fill: none; stroke: #328c06; stroke-width: 1.5"/>
   </g>
   <g id="LineCollection_8">
    <path d="M 445.158825 158.423199 
L 480.629554 158.423199 
" clip-path="url(#pe36fb52665)" style="fill: none; stroke: #328c06; stroke-width: 1.5"/>
   </g>
   <g id="LineCollection_9">
    <path d="M 462.89419 158.423199 
L 462.89419 59.399549 
" clip-path="url(#pe36fb52665)" style="fill: none; stroke: #328c06; stroke-width: 1.5"/>
   </g>
   <g id="patch_3">
    <path d="M 51.433725 311.304146 
L 51.433725 7.128812 
" style="fill: none"/>
   </g>
   <g id="patch_4">
    <path d="M 519.647357 311.304146 
L 519.647357 7.128812 
" style="fill: none"/>
   </g>
   <g id="patch_5">
    <path d="M 51.433725 311.304146 
L 519.647357 311.304146 
" style="fill: none"/>
   </g>
   <g id="patch_6">
    <path d="M 51.433725 7.128812 
L 519.647357 7.128812 
" style="fill: none"/>
   </g>
   <g id="legend_1">
    <g id="line2d_45">
     <path d="M 467.612357 22.846937 
L 479.612357 22.846937 
L 491.612357 22.846937 
" style="fill: none; stroke: #2a2eec; stroke-width: 1.5; stroke-linecap: round"/>
    </g>
    <g id="text_14">
     <!-- 0 -->
     <g style="fill: #262626" transform="translate(501.212357 27.046937) scale(0.12 -0.12)">
      <use xlink:href="#DejaVuSans-30"/>
     </g>
    </g>
    <g id="line2d_46">
     <path d="M 467.612357 40.460687 
L 479.612357 40.460687 
L 491.612357 40.460687 
" style="fill: none; stroke: #fa7c17; stroke-width: 1.5; stroke-linecap: round"/>
    </g>
    <g id="text_15">
     <!-- 1 -->
     <g style="fill: #262626" transform="translate(501.212357 44.660687) scale(0.12 -0.12)">
      <use xlink:href="#DejaVuSans-31"/>
     </g>
    </g>
   </g>
  </g>
 </g>
 <defs>
  <clipPath id="pe36fb52665">
   <rect x="51.433725" y="7.128812" width="468.213632" height="304.175334"/>
  </clipPath>
 </defs>
</svg>
