<?xml version="1.0" encoding="utf-8" standalone="no"?>
<!DOCTYPE svg PUBLIC "-//W3C//DTD SVG 1.1//EN"
  "http://www.w3.org/Graphics/SVG/1.1/DTD/svg11.dtd">
<svg xmlns:xlink="http://www.w3.org/1999/xlink" width="526.515637pt" height="353.99952pt" viewBox="0 0 526.515637 353.99952" xmlns="http://www.w3.org/2000/svg" version="1.1">
 <metadata>
  <rdf:RDF xmlns:dc="http://purl.org/dc/elements/1.1/" xmlns:cc="http://creativecommons.org/ns#" xmlns:rdf="http://www.w3.org/1999/02/22-rdf-syntax-ns#">
   <cc:Work>
    <dc:type rdf:resource="http://purl.org/dc/dcmitype/StillImage"/>
    <dc:date>2022-10-30T14:10:43.932154</dc:date>
    <dc:format>image/svg+xml</dc:format>
    <dc:creator>
     <cc:Agent>
      <dc:title>Matplotlib v3.6.1, https://matplotlib.org/</dc:title>
     </cc:Agent>
    </dc:creator>
   </cc:Work>
  </rdf:RDF>
 </metadata>
 <defs>
  <style type="text/css">*{stroke-linejoin: round; stroke-linecap: butt}</style>
 </defs>
 <g id="figure_1">
  <g id="patch_1">
   <path d="M 0 353.99952 
L 526.515637 353.99952 
L 526.515637 0 
L 0 0 
z
" style="fill: #ffffff"/>
  </g>
  <g id="axes_1">
   <g id="patch_2">
    <path d="M 51.435317 311.304146 
L 513.213972 311.304146 
L 513.213972 25.286312 
L 51.435317 25.286312 
z
" style="fill: #eeeeee"/>
   </g>
   <g id="matplotlib.axis_1">
    <g id="xtick_1">
     <g id="line2d_1">
      <path d="M 100.911602 311.304146 
L 100.911602 25.286312 
" clip-path="url(#pa75a1adbce)" style="fill: none; stroke: #ffffff; stroke-width: 0.8; stroke-linecap: round"/>
     </g>
     <g id="line2d_2"/>
     <g id="text_1">
      <!-- pre -->
      <g style="fill: #262626" transform="translate(89.440352 325.441958) scale(0.14 -0.14)">
       <defs>
        <path id="DejaVuSans-70" d="M 1159 525 
L 1159 -1331 
L 581 -1331 
L 581 3500 
L 1159 3500 
L 1159 2969 
Q 1341 3281 1617 3432 
Q 1894 3584 2278 3584 
Q 2916 3584 3314 3078 
Q 3713 2572 3713 1747 
Q 3713 922 3314 415 
Q 2916 -91 2278 -91 
Q 1894 -91 1617 61 
Q 1341 213 1159 525 
z
M 3116 1747 
Q 3116 2381 2855 2742 
Q 2594 3103 2138 3103 
Q 1681 3103 1420 2742 
Q 1159 2381 1159 1747 
Q 1159 1113 1420 752 
Q 1681 391 2138 391 
Q 2594 391 2855 752 
Q 3116 1113 3116 1747 
z
" transform="scale(0.015625)"/>
        <path id="DejaVuSans-72" d="M 2631 2963 
Q 2534 3019 2420 3045 
Q 2306 3072 2169 3072 
Q 1681 3072 1420 2755 
Q 1159 2438 1159 1844 
L 1159 0 
L 581 0 
L 581 3500 
L 1159 3500 
L 1159 2956 
Q 1341 3275 1631 3429 
Q 1922 3584 2338 3584 
Q 2397 3584 2469 3576 
Q 2541 3569 2628 3553 
L 2631 2963 
z
" transform="scale(0.015625)"/>
        <path id="DejaVuSans-65" d="M 3597 1894 
L 3597 1613 
L 953 1613 
Q 991 1019 1311 708 
Q 1631 397 2203 397 
Q 2534 397 2845 478 
Q 3156 559 3463 722 
L 3463 178 
Q 3153 47 2828 -22 
Q 2503 -91 2169 -91 
Q 1331 -91 842 396 
Q 353 884 353 1716 
Q 353 2575 817 3079 
Q 1281 3584 2069 3584 
Q 2775 3584 3186 3129 
Q 3597 2675 3597 1894 
z
M 3022 2063 
Q 3016 2534 2758 2815 
Q 2500 3097 2075 3097 
Q 1594 3097 1305 2825 
Q 1016 2553 972 2059 
L 3022 2063 
z
" transform="scale(0.015625)"/>
       </defs>
       <use xlink:href="#DejaVuSans-70"/>
       <use xlink:href="#DejaVuSans-72" x="63.476562"/>
       <use xlink:href="#DejaVuSans-65" x="102.339844"/>
      </g>
     </g>
    </g>
    <g id="xtick_2">
     <g id="line2d_3">
      <path d="M 430.753498 311.304146 
L 430.753498 25.286312 
" clip-path="url(#pa75a1adbce)" style="fill: none; stroke: #ffffff; stroke-width: 0.8; stroke-linecap: round"/>
     </g>
     <g id="line2d_4"/>
     <g id="text_2">
      <!-- post -->
      <g style="fill: #262626" transform="translate(415.635686 325.441958) scale(0.14 -0.14)">
       <defs>
        <path id="DejaVuSans-6f" d="M 1959 3097 
Q 1497 3097 1228 2736 
Q 959 2375 959 1747 
Q 959 1119 1226 758 
Q 1494 397 1959 397 
Q 2419 397 2687 759 
Q 2956 1122 2956 1747 
Q 2956 2369 2687 2733 
Q 2419 3097 1959 3097 
z
M 1959 3584 
Q 2709 3584 3137 3096 
Q 3566 2609 3566 1747 
Q 3566 888 3137 398 
Q 2709 -91 1959 -91 
Q 1206 -91 779 398 
Q 353 888 353 1747 
Q 353 2609 779 3096 
Q 1206 3584 1959 3584 
z
" transform="scale(0.015625)"/>
        <path id="DejaVuSans-73" d="M 2834 3397 
L 2834 2853 
Q 2591 2978 2328 3040 
Q 2066 3103 1784 3103 
Q 1356 3103 1142 2972 
Q 928 2841 928 2578 
Q 928 2378 1081 2264 
Q 1234 2150 1697 2047 
L 1894 2003 
Q 2506 1872 2764 1633 
Q 3022 1394 3022 966 
Q 3022 478 2636 193 
Q 2250 -91 1575 -91 
Q 1294 -91 989 -36 
Q 684 19 347 128 
L 347 722 
Q 666 556 975 473 
Q 1284 391 1588 391 
Q 1994 391 2212 530 
Q 2431 669 2431 922 
Q 2431 1156 2273 1281 
Q 2116 1406 1581 1522 
L 1381 1569 
Q 847 1681 609 1914 
Q 372 2147 372 2553 
Q 372 3047 722 3315 
Q 1072 3584 1716 3584 
Q 2034 3584 2315 3537 
Q 2597 3491 2834 3397 
z
" transform="scale(0.015625)"/>
        <path id="DejaVuSans-74" d="M 1172 4494 
L 1172 3500 
L 2356 3500 
L 2356 3053 
L 1172 3053 
L 1172 1153 
Q 1172 725 1289 603 
Q 1406 481 1766 481 
L 2356 481 
L 2356 0 
L 1766 0 
Q 1100 0 847 248 
Q 594 497 594 1153 
L 594 3053 
L 172 3053 
L 172 3500 
L 594 3500 
L 594 4494 
L 1172 4494 
z
" transform="scale(0.015625)"/>
       </defs>
       <use xlink:href="#DejaVuSans-70"/>
       <use xlink:href="#DejaVuSans-6f" x="63.476562"/>
       <use xlink:href="#DejaVuSans-73" x="124.658203"/>
       <use xlink:href="#DejaVuSans-74" x="176.757812"/>
      </g>
     </g>
    </g>
    <g id="text_3">
     <!-- t -->
     <g style="fill: #262626" transform="translate(279.38441 343.751177) scale(0.15 -0.15)">
      <use xlink:href="#DejaVuSans-74"/>
     </g>
    </g>
   </g>
   <g id="matplotlib.axis_2">
    <g id="ytick_1">
     <g id="line2d_5">
      <path d="M 51.435317 262.48614 
L 513.213972 262.48614 
" clip-path="url(#pa75a1adbce)" style="fill: none; stroke: #ffffff; stroke-width: 0.8; stroke-linecap: round"/>
     </g>
     <g id="line2d_6"/>
     <g id="text_4">
      <!-- 1.0 -->
      <g style="fill: #262626" transform="translate(25.670942 267.805047) scale(0.14 -0.14)">
       <defs>
        <path id="DejaVuSans-31" d="M 794 531 
L 1825 531 
L 1825 4091 
L 703 3866 
L 703 4441 
L 1819 4666 
L 2450 4666 
L 2450 531 
L 3481 531 
L 3481 0 
L 794 0 
L 794 531 
z
" transform="scale(0.015625)"/>
        <path id="DejaVuSans-2e" d="M 684 794 
L 1344 794 
L 1344 0 
L 684 0 
L 684 794 
z
" transform="scale(0.015625)"/>
        <path id="DejaVuSans-30" d="M 2034 4250 
Q 1547 4250 1301 3770 
Q 1056 3291 1056 2328 
Q 1056 1369 1301 889 
Q 1547 409 2034 409 
Q 2525 409 2770 889 
Q 3016 1369 3016 2328 
Q 3016 3291 2770 3770 
Q 2525 4250 2034 4250 
z
M 2034 4750 
Q 2819 4750 3233 4129 
Q 3647 3509 3647 2328 
Q 3647 1150 3233 529 
Q 2819 -91 2034 -91 
Q 1250 -91 836 529 
Q 422 1150 422 2328 
Q 422 3509 836 4129 
Q 1250 4750 2034 4750 
z
" transform="scale(0.015625)"/>
       </defs>
       <use xlink:href="#DejaVuSans-31"/>
       <use xlink:href="#DejaVuSans-2e" x="63.623047"/>
       <use xlink:href="#DejaVuSans-30" x="95.410156"/>
      </g>
     </g>
    </g>
    <g id="ytick_2">
     <g id="line2d_7">
      <path d="M 51.435317 209.641856 
L 513.213972 209.641856 
" clip-path="url(#pa75a1adbce)" style="fill: none; stroke: #ffffff; stroke-width: 0.8; stroke-linecap: round"/>
     </g>
     <g id="line2d_8"/>
     <g id="text_5">
      <!-- 1.5 -->
      <g style="fill: #262626" transform="translate(25.670942 214.960762) scale(0.14 -0.14)">
       <defs>
        <path id="DejaVuSans-35" d="M 691 4666 
L 3169 4666 
L 3169 4134 
L 1269 4134 
L 1269 2991 
Q 1406 3038 1543 3061 
Q 1681 3084 1819 3084 
Q 2600 3084 3056 2656 
Q 3513 2228 3513 1497 
Q 3513 744 3044 326 
Q 2575 -91 1722 -91 
Q 1428 -91 1123 -41 
Q 819 9 494 109 
L 494 744 
Q 775 591 1075 516 
Q 1375 441 1709 441 
Q 2250 441 2565 725 
Q 2881 1009 2881 1497 
Q 2881 1984 2565 2268 
Q 2250 2553 1709 2553 
Q 1456 2553 1204 2497 
Q 953 2441 691 2322 
L 691 4666 
z
" transform="scale(0.015625)"/>
       </defs>
       <use xlink:href="#DejaVuSans-31"/>
       <use xlink:href="#DejaVuSans-2e" x="63.623047"/>
       <use xlink:href="#DejaVuSans-35" x="95.410156"/>
      </g>
     </g>
    </g>
    <g id="ytick_3">
     <g id="line2d_9">
      <path d="M 51.435317 156.797571 
L 513.213972 156.797571 
" clip-path="url(#pa75a1adbce)" style="fill: none; stroke: #ffffff; stroke-width: 0.8; stroke-linecap: round"/>
     </g>
     <g id="line2d_10"/>
     <g id="text_6">
      <!-- 2.0 -->
      <g style="fill: #262626" transform="translate(25.670942 162.116477) scale(0.14 -0.14)">
       <defs>
        <path id="DejaVuSans-32" d="M 1228 531 
L 3431 531 
L 3431 0 
L 469 0 
L 469 531 
Q 828 903 1448 1529 
Q 2069 2156 2228 2338 
Q 2531 2678 2651 2914 
Q 2772 3150 2772 3378 
Q 2772 3750 2511 3984 
Q 2250 4219 1831 4219 
Q 1534 4219 1204 4116 
Q 875 4013 500 3803 
L 500 4441 
Q 881 4594 1212 4672 
Q 1544 4750 1819 4750 
Q 2544 4750 2975 4387 
Q 3406 4025 3406 3419 
Q 3406 3131 3298 2873 
Q 3191 2616 2906 2266 
Q 2828 2175 2409 1742 
Q 1991 1309 1228 531 
z
" transform="scale(0.015625)"/>
       </defs>
       <use xlink:href="#DejaVuSans-32"/>
       <use xlink:href="#DejaVuSans-2e" x="63.623047"/>
       <use xlink:href="#DejaVuSans-30" x="95.410156"/>
      </g>
     </g>
    </g>
    <g id="ytick_4">
     <g id="line2d_11">
      <path d="M 51.435317 103.953286 
L 513.213972 103.953286 
" clip-path="url(#pa75a1adbce)" style="fill: none; stroke: #ffffff; stroke-width: 0.8; stroke-linecap: round"/>
     </g>
     <g id="line2d_12"/>
     <g id="text_7">
      <!-- 2.5 -->
      <g style="fill: #262626" transform="translate(25.670942 109.272192) scale(0.14 -0.14)">
       <use xlink:href="#DejaVuSans-32"/>
       <use xlink:href="#DejaVuSans-2e" x="63.623047"/>
       <use xlink:href="#DejaVuSans-35" x="95.410156"/>
      </g>
     </g>
    </g>
    <g id="ytick_5">
     <g id="line2d_13">
      <path d="M 51.435317 51.109002 
L 513.213972 51.109002 
" clip-path="url(#pa75a1adbce)" style="fill: none; stroke: #ffffff; stroke-width: 0.8; stroke-linecap: round"/>
     </g>
     <g id="line2d_14"/>
     <g id="text_8">
      <!-- 3.0 -->
      <g style="fill: #262626" transform="translate(25.670942 56.427908) scale(0.14 -0.14)">
       <defs>
        <path id="DejaVuSans-33" d="M 2597 2516 
Q 3050 2419 3304 2112 
Q 3559 1806 3559 1356 
Q 3559 666 3084 287 
Q 2609 -91 1734 -91 
Q 1441 -91 1130 -33 
Q 819 25 488 141 
L 488 750 
Q 750 597 1062 519 
Q 1375 441 1716 441 
Q 2309 441 2620 675 
Q 2931 909 2931 1356 
Q 2931 1769 2642 2001 
Q 2353 2234 1838 2234 
L 1294 2234 
L 1294 2753 
L 1863 2753 
Q 2328 2753 2575 2939 
Q 2822 3125 2822 3475 
Q 2822 3834 2567 4026 
Q 2313 4219 1838 4219 
Q 1578 4219 1281 4162 
Q 984 4106 628 3988 
L 628 4550 
Q 988 4650 1302 4700 
Q 1616 4750 1894 4750 
Q 2613 4750 3031 4423 
Q 3450 4097 3450 3541 
Q 3450 3153 3228 2886 
Q 3006 2619 2597 2516 
z
" transform="scale(0.015625)"/>
       </defs>
       <use xlink:href="#DejaVuSans-33"/>
       <use xlink:href="#DejaVuSans-2e" x="63.623047"/>
       <use xlink:href="#DejaVuSans-30" x="95.410156"/>
      </g>
     </g>
    </g>
    <g id="text_9">
     <!-- y -->
     <g style="fill: #262626" transform="translate(18.551411 172.734291) rotate(-90) scale(0.15 -0.15)">
      <defs>
       <path id="DejaVuSans-79" d="M 2059 -325 
Q 1816 -950 1584 -1140 
Q 1353 -1331 966 -1331 
L 506 -1331 
L 506 -850 
L 844 -850 
Q 1081 -850 1212 -737 
Q 1344 -625 1503 -206 
L 1606 56 
L 191 3500 
L 800 3500 
L 1894 763 
L 2988 3500 
L 3597 3500 
L 2059 -325 
z
" transform="scale(0.015625)"/>
      </defs>
      <use xlink:href="#DejaVuSans-79"/>
     </g>
    </g>
   </g>
   <g id="PolyCollection_1">
    <path d="M 101.048301 298.303335 
L 100.774902 298.303335 
L 100.72873 297.490012 
L 100.679747 296.676688 
L 100.631772 295.863365 
L 100.588035 295.050042 
L 100.547985 294.236719 
L 100.504441 293.423395 
L 100.444113 292.610072 
L 100.352945 291.796749 
L 100.22425 290.983426 
L 100.064332 290.170102 
L 99.890526 289.356779 
L 99.721545 288.543456 
L 99.566396 287.730132 
L 99.419615 286.916809 
L 99.265102 286.103486 
L 99.084059 285.290163 
L 98.86105 284.476839 
L 98.586061 283.663516 
L 98.254164 282.850193 
L 97.86429 282.03687 
L 97.415974 281.223546 
L 96.902628 280.410223 
L 96.304626 279.5969 
L 95.590638 278.783576 
L 94.732243 277.970253 
L 93.72428 277.15693 
L 92.594537 276.343607 
L 91.393128 275.530283 
L 90.168187 274.71696 
L 88.943861 273.903637 
L 87.712489 273.090313 
L 86.443475 272.27699 
L 85.10529 271.463667 
L 83.693071 270.650344 
L 82.247386 269.83702 
L 80.844724 269.023697 
L 79.551375 268.210374 
L 78.364131 267.397051 
L 77.188296 266.583727 
L 75.888497 265.770404 
L 74.389233 264.957081 
L 72.751325 264.143757 
L 71.161562 263.330434 
L 69.839704 262.517111 
L 68.927694 261.703788 
L 68.430121 260.890464 
L 68.23123 260.077141 
L 68.166748 259.263818 
L 68.107089 258.450494 
L 68.011112 257.637171 
L 67.927412 256.823848 
L 67.947457 256.010525 
L 68.140592 255.197201 
L 68.509407 254.383878 
L 68.990152 253.570555 
L 69.496952 252.757232 
L 69.984188 251.943908 
L 70.488154 251.130585 
L 71.116185 250.317262 
L 71.983941 249.503938 
L 73.142796 248.690615 
L 74.551702 247.877292 
L 76.111934 247.063969 
L 77.730084 246.250645 
L 79.356975 245.437322 
L 80.981076 244.623999 
L 82.596796 243.810675 
L 84.181627 242.997352 
L 85.699183 242.184029 
L 87.120938 241.370706 
L 88.446316 240.557382 
L 89.703422 239.744059 
L 90.927462 238.930736 
L 92.131837 238.117413 
L 93.294559 237.304089 
L 94.371367 236.490766 
L 95.324133 235.677443 
L 96.140307 234.864119 
L 96.830017 234.050796 
L 97.410335 233.237473 
L 97.895566 232.42415 
L 98.299875 231.610826 
L 98.642297 230.797503 
L 98.944118 229.98418 
L 99.220849 229.170857 
L 99.47772 228.357533 
L 99.712286 227.54421 
L 99.920154 226.730887 
L 100.098899 225.917563 
L 100.248962 225.10424 
L 100.372825 224.290917 
L 100.473715 223.477594 
L 100.554408 222.66427 
L 100.61666 221.850947 
L 100.661818 221.037624 
L 100.692559 220.2243 
L 100.714329 219.410977 
L 100.734573 218.597654 
L 100.759501 217.784331 
L 101.063703 217.784331 
L 101.063703 217.784331 
L 101.08863 218.597654 
L 101.108875 219.410977 
L 101.130645 220.2243 
L 101.161385 221.037624 
L 101.206543 221.850947 
L 101.268795 222.66427 
L 101.349489 223.477594 
L 101.450378 224.290917 
L 101.574241 225.10424 
L 101.724304 225.917563 
L 101.903049 226.730887 
L 102.110917 227.54421 
L 102.345483 228.357533 
L 102.602354 229.170857 
L 102.879085 229.98418 
L 103.180907 230.797503 
L 103.523328 231.610826 
L 103.927637 232.42415 
L 104.412869 233.237473 
L 104.993186 234.050796 
L 105.682896 234.864119 
L 106.49907 235.677443 
L 107.451836 236.490766 
L 108.528644 237.304089 
L 109.691367 238.117413 
L 110.895741 238.930736 
L 112.119781 239.744059 
L 113.376887 240.557382 
L 114.702266 241.370706 
L 116.12402 242.184029 
L 117.641576 242.997352 
L 119.226408 243.810675 
L 120.842128 244.623999 
L 122.466228 245.437322 
L 124.09312 246.250645 
L 125.711269 247.063969 
L 127.271501 247.877292 
L 128.680407 248.690615 
L 129.839263 249.503938 
L 130.707018 250.317262 
L 131.33505 251.130585 
L 131.839016 251.943908 
L 132.326251 252.757232 
L 132.833051 253.570555 
L 133.313796 254.383878 
L 133.682611 255.197201 
L 133.875746 256.010525 
L 133.895791 256.823848 
L 133.812092 257.637171 
L 133.716115 258.450494 
L 133.656455 259.263818 
L 133.591974 260.077141 
L 133.393083 260.890464 
L 132.895509 261.703788 
L 131.9835 262.517111 
L 130.661642 263.330434 
L 129.071878 264.143757 
L 127.43397 264.957081 
L 125.934706 265.770404 
L 124.634908 266.583727 
L 123.459072 267.397051 
L 122.271829 268.210374 
L 120.97848 269.023697 
L 119.575817 269.83702 
L 118.130132 270.650344 
L 116.717913 271.463667 
L 115.379729 272.27699 
L 114.110714 273.090313 
L 112.879343 273.903637 
L 111.655017 274.71696 
L 110.430076 275.530283 
L 109.228666 276.343607 
L 108.098923 277.15693 
L 107.09096 277.970253 
L 106.232566 278.783576 
L 105.518577 279.5969 
L 104.920575 280.410223 
L 104.407229 281.223546 
L 103.958913 282.03687 
L 103.569039 282.850193 
L 103.237143 283.663516 
L 102.962154 284.476839 
L 102.739145 285.290163 
L 102.558101 286.103486 
L 102.403589 286.916809 
L 102.256807 287.730132 
L 102.101658 288.543456 
L 101.932678 289.356779 
L 101.758872 290.170102 
L 101.598953 290.983426 
L 101.470259 291.796749 
L 101.379091 292.610072 
L 101.318762 293.423395 
L 101.275219 294.236719 
L 101.235168 295.050042 
L 101.191431 295.863365 
L 101.143456 296.676688 
L 101.094474 297.490012 
L 101.048301 298.303335 
z
" clip-path="url(#pa75a1adbce)" style="fill: #2a2eec; fill-opacity: 0.5"/>
   </g>
   <g id="PolyCollection_2">
    <path d="M 430.821099 193.711678 
L 430.685897 193.711678 
L 430.675034 192.828423 
L 430.668531 191.945169 
L 430.665532 191.061914 
L 430.664281 190.178659 
L 430.662174 189.295405 
L 430.655281 188.41215 
L 430.638295 187.528896 
L 430.605388 186.645641 
L 430.551066 185.762386 
L 430.470194 184.879132 
L 430.358935 183.995877 
L 430.218404 183.112623 
L 430.057305 182.229368 
L 429.886807 181.346114 
L 429.709239 180.462859 
L 429.513167 179.579604 
L 429.283007 178.69635 
L 429.013898 177.813095 
L 428.715028 176.929841 
L 428.398693 176.046586 
L 428.069733 175.163331 
L 427.72645 174.280077 
L 427.364555 173.396822 
L 426.969543 172.513568 
L 426.501523 171.630313 
L 425.894695 170.747058 
L 425.085282 169.863804 
L 424.054975 168.980549 
L 422.859181 168.097295 
L 421.614474 167.21404 
L 420.44246 166.330785 
L 419.395826 165.447531 
L 418.411794 164.564276 
L 417.330912 163.681022 
L 415.978487 162.797767 
L 414.257341 161.914512 
L 412.191775 161.031258 
L 409.90812 160.148003 
L 407.586113 159.264749 
L 405.413161 158.381494 
L 403.540935 157.498239 
L 402.041576 156.614985 
L 400.888861 155.73173 
L 399.989261 154.848476 
L 399.246537 153.965221 
L 398.616339 153.081966 
L 398.121713 152.198712 
L 397.825004 151.315457 
L 397.769308 150.432203 
L 397.927916 149.548948 
L 398.213386 148.665693 
L 398.553021 147.782439 
L 398.960034 146.899184 
L 399.518801 146.01593 
L 400.292598 145.132675 
L 401.25068 144.24942 
L 402.287433 143.366166 
L 403.303884 142.482911 
L 404.270711 141.599657 
L 405.236427 140.716402 
L 406.301179 139.833148 
L 407.577251 138.949893 
L 409.138048 138.066638 
L 410.970347 137.183384 
L 412.965399 136.300129 
L 414.964496 135.416875 
L 416.828238 134.53362 
L 418.481869 133.650365 
L 419.917564 132.767111 
L 421.169559 131.883856 
L 422.285952 131.000602 
L 423.309394 130.117347 
L 424.268328 129.234092 
L 425.175046 128.350838 
L 426.025975 127.467583 
L 426.804838 126.584329 
L 427.492267 125.701074 
L 428.078416 124.817819 
L 428.568576 123.934565 
L 428.97711 123.05131 
L 429.315485 122.168056 
L 429.584659 121.284801 
L 429.778383 120.401546 
L 429.895411 119.518292 
L 429.950369 118.635037 
L 429.972996 117.751783 
L 429.995505 116.868528 
L 430.038377 115.985273 
L 430.105395 115.102019 
L 430.189174 114.218764 
L 430.279458 113.33551 
L 430.366849 112.452255 
L 430.442354 111.569 
L 430.498046 110.685746 
L 430.530849 109.802491 
L 430.545775 108.919237 
L 430.554377 108.035982 
L 430.568757 107.152727 
L 430.595273 106.269473 
L 430.911723 106.269473 
L 430.911723 106.269473 
L 430.938239 107.152727 
L 430.952619 108.035982 
L 430.961221 108.919237 
L 430.976147 109.802491 
L 431.00895 110.685746 
L 431.064642 111.569 
L 431.140147 112.452255 
L 431.227538 113.33551 
L 431.317822 114.218764 
L 431.401601 115.102019 
L 431.468619 115.985273 
L 431.511491 116.868528 
L 431.534 117.751783 
L 431.556627 118.635037 
L 431.611585 119.518292 
L 431.728613 120.401546 
L 431.922337 121.284801 
L 432.191511 122.168056 
L 432.529886 123.05131 
L 432.93842 123.934565 
L 433.42858 124.817819 
L 434.014729 125.701074 
L 434.702159 126.584329 
L 435.481021 127.467583 
L 436.33195 128.350838 
L 437.238668 129.234092 
L 438.197602 130.117347 
L 439.221044 131.000602 
L 440.337438 131.883856 
L 441.589432 132.767111 
L 443.025127 133.650365 
L 444.678758 134.53362 
L 446.5425 135.416875 
L 448.541597 136.300129 
L 450.536649 137.183384 
L 452.368948 138.066638 
L 453.929746 138.949893 
L 455.205817 139.833148 
L 456.270569 140.716402 
L 457.236285 141.599657 
L 458.203113 142.482911 
L 459.219564 143.366166 
L 460.256316 144.24942 
L 461.214398 145.132675 
L 461.988195 146.01593 
L 462.546963 146.899184 
L 462.953976 147.782439 
L 463.29361 148.665693 
L 463.57908 149.548948 
L 463.737688 150.432203 
L 463.681992 151.315457 
L 463.385283 152.198712 
L 462.890657 153.081966 
L 462.260459 153.965221 
L 461.517735 154.848476 
L 460.618135 155.73173 
L 459.46542 156.614985 
L 457.966061 157.498239 
L 456.093835 158.381494 
L 453.920883 159.264749 
L 451.598876 160.148003 
L 449.315221 161.031258 
L 447.249655 161.914512 
L 445.528509 162.797767 
L 444.176084 163.681022 
L 443.095202 164.564276 
L 442.11117 165.447531 
L 441.064536 166.330785 
L 439.892522 167.21404 
L 438.647816 168.097295 
L 437.452021 168.980549 
L 436.421714 169.863804 
L 435.612301 170.747058 
L 435.005473 171.630313 
L 434.537453 172.513568 
L 434.142441 173.396822 
L 433.780546 174.280077 
L 433.437263 175.163331 
L 433.108303 176.046586 
L 432.791968 176.929841 
L 432.493098 177.813095 
L 432.223989 178.69635 
L 431.993829 179.579604 
L 431.797757 180.462859 
L 431.620189 181.346114 
L 431.449691 182.229368 
L 431.288592 183.112623 
L 431.148061 183.995877 
L 431.036802 184.879132 
L 430.95593 185.762386 
L 430.901608 186.645641 
L 430.868701 187.528896 
L 430.851715 188.41215 
L 430.844822 189.295405 
L 430.842715 190.178659 
L 430.841464 191.061914 
L 430.838465 191.945169 
L 430.831962 192.828423 
L 430.821099 193.711678 
z
" clip-path="url(#pa75a1adbce)" style="fill: #2a2eec; fill-opacity: 0.5"/>
   </g>
   <g id="PolyCollection_3">
    <path d="M 100.99831 278.988505 
L 100.824893 278.988505 
L 100.812071 278.036878 
L 100.805822 277.085251 
L 100.800786 276.133624 
L 100.790505 275.181997 
L 100.770678 274.23037 
L 100.738835 273.278743 
L 100.691647 272.327116 
L 100.623511 271.375489 
L 100.528677 270.423862 
L 100.406013 269.472235 
L 100.263089 268.520608 
L 100.114871 267.568981 
L 99.973907 266.617354 
L 99.83679 265.665727 
L 99.678974 264.7141 
L 99.464413 263.762473 
L 99.16265 262.810846 
L 98.76136 261.859219 
L 98.268114 260.907592 
L 97.699609 259.955965 
L 97.060323 259.004338 
L 96.323699 258.052711 
L 95.437127 257.101084 
L 94.35745 256.149457 
L 93.093528 255.19783 
L 91.720291 254.246203 
L 90.349576 253.294576 
L 89.07203 252.342949 
L 87.89877 251.391322 
L 86.740319 250.439695 
L 85.459306 249.488068 
L 83.986023 248.536441 
L 82.405583 247.584814 
L 80.912652 246.633187 
L 79.641686 245.68156 
L 78.516683 244.729933 
L 77.271623 243.778306 
L 75.650528 242.826679 
L 73.634488 241.875052 
L 71.506437 240.923425 
L 69.691052 239.971798 
L 68.496681 239.020171 
L 67.965945 238.068544 
L 67.927412 237.116917 
L 68.154723 236.16529 
L 68.484897 235.213663 
L 68.849481 234.262036 
L 69.265555 233.310409 
L 69.817903 232.358782 
L 70.618627 231.407155 
L 71.745971 230.455528 
L 73.199236 229.503901 
L 74.89423 228.552274 
L 76.692066 227.600647 
L 78.449374 226.64902 
L 80.077574 225.697393 
L 81.582 224.745766 
L 83.04697 223.794139 
L 84.563352 222.842512 
L 86.145722 221.890885 
L 87.71076 220.939258 
L 89.142933 219.987631 
L 90.386789 219.036004 
L 91.477345 218.084377 
L 92.490612 217.13275 
L 93.476943 216.181123 
L 94.436886 215.229496 
L 95.339827 214.277869 
L 96.152983 213.326242 
L 96.859681 212.374615 
L 97.464015 211.422988 
L 97.985179 210.471361 
L 98.445899 209.519734 
L 98.860791 208.568107 
L 99.231279 207.61648 
L 99.550127 206.664853 
L 99.810922 205.713226 
L 100.015027 204.761599 
L 100.172713 203.809972 
L 100.298264 202.858345 
L 100.401306 201.906718 
L 100.48223 200.955091 
L 100.538387 200.003464 
L 100.574735 199.051837 
L 100.605392 198.10021 
L 100.644066 197.148583 
L 100.694911 196.196956 
L 100.752354 195.245329 
L 100.806962 194.293702 
L 100.850982 193.342075 
L 100.881034 192.390448 
L 100.898104 191.438821 
L 100.905515 190.487194 
L 100.906369 189.535567 
L 100.902223 188.58394 
L 100.893786 187.632313 
L 100.882804 186.680686 
L 100.873111 185.729059 
L 100.869199 184.777432 
L 100.954004 184.777432 
L 100.954004 184.777432 
L 100.950092 185.729059 
L 100.9404 186.680686 
L 100.929417 187.632313 
L 100.92098 188.58394 
L 100.916834 189.535567 
L 100.917688 190.487194 
L 100.9251 191.438821 
L 100.942169 192.390448 
L 100.972221 193.342075 
L 101.016241 194.293702 
L 101.070849 195.245329 
L 101.128292 196.196956 
L 101.179137 197.148583 
L 101.217811 198.10021 
L 101.248468 199.051837 
L 101.284816 200.003464 
L 101.340973 200.955091 
L 101.421897 201.906718 
L 101.52494 202.858345 
L 101.650491 203.809972 
L 101.808177 204.761599 
L 102.012281 205.713226 
L 102.273076 206.664853 
L 102.591924 207.61648 
L 102.962412 208.568107 
L 103.377304 209.519734 
L 103.838024 210.471361 
L 104.359188 211.422988 
L 104.963523 212.374615 
L 105.67022 213.326242 
L 106.483376 214.277869 
L 107.386318 215.229496 
L 108.34626 216.181123 
L 109.332592 217.13275 
L 110.345859 218.084377 
L 111.436415 219.036004 
L 112.680271 219.987631 
L 114.112443 220.939258 
L 115.677481 221.890885 
L 117.259851 222.842512 
L 118.776234 223.794139 
L 120.241203 224.745766 
L 121.745629 225.697393 
L 123.37383 226.64902 
L 125.131137 227.600647 
L 126.928973 228.552274 
L 128.623968 229.503901 
L 130.077233 230.455528 
L 131.204576 231.407155 
L 132.005301 232.358782 
L 132.557649 233.310409 
L 132.973722 234.262036 
L 133.338306 235.213663 
L 133.668481 236.16529 
L 133.895791 237.116917 
L 133.857258 238.068544 
L 133.326522 239.020171 
L 132.132151 239.971798 
L 130.316767 240.923425 
L 128.188715 241.875052 
L 126.172676 242.826679 
L 124.551581 243.778306 
L 123.306521 244.729933 
L 122.181518 245.68156 
L 120.910551 246.633187 
L 119.41762 247.584814 
L 117.83718 248.536441 
L 116.363897 249.488068 
L 115.082884 250.439695 
L 113.924434 251.391322 
L 112.751173 252.342949 
L 111.473627 253.294576 
L 110.102913 254.246203 
L 108.729675 255.19783 
L 107.465754 256.149457 
L 106.386077 257.101084 
L 105.499504 258.052711 
L 104.762881 259.004338 
L 104.123595 259.955965 
L 103.555089 260.907592 
L 103.061843 261.859219 
L 102.660553 262.810846 
L 102.358791 263.762473 
L 102.144229 264.7141 
L 101.986414 265.665727 
L 101.849296 266.617354 
L 101.708332 267.568981 
L 101.560115 268.520608 
L 101.417191 269.472235 
L 101.294526 270.423862 
L 101.199692 271.375489 
L 101.131556 272.327116 
L 101.084368 273.278743 
L 101.052526 274.23037 
L 101.032698 275.181997 
L 101.022417 276.133624 
L 101.017381 277.085251 
L 101.011132 278.036878 
L 100.99831 278.988505 
z
" clip-path="url(#pa75a1adbce)" style="fill: #fa7c17; fill-opacity: 0.3"/>
   </g>
   <g id="PolyCollection_4">
    <path d="M 430.814823 135.259013 
L 430.692173 135.259013 
L 430.684643 134.279499 
L 430.684662 133.299985 
L 430.691197 132.320471 
L 430.700371 131.340957 
L 430.706079 130.361443 
L 430.702555 129.381929 
L 430.687095 128.402415 
L 430.659801 127.422901 
L 430.621006 126.443387 
L 430.570777 125.463873 
L 430.512301 124.484359 
L 430.454815 123.504845 
L 430.410663 122.525331 
L 430.387088 121.545817 
L 430.379327 120.566303 
L 430.37045 119.586788 
L 430.337626 118.607274 
L 430.260254 117.62776 
L 430.12504 116.648246 
L 429.92571 115.668732 
L 429.660506 114.689218 
L 429.334086 113.709704 
L 428.963248 112.73019 
L 428.57401 111.750676 
L 428.18174 110.771162 
L 427.766806 109.791648 
L 427.268426 108.812134 
L 426.60876 107.83262 
L 425.741648 106.853106 
L 424.696912 105.873592 
L 423.571458 104.894078 
L 422.451516 103.914564 
L 421.334157 102.93505 
L 420.137837 101.955536 
L 418.79119 100.976022 
L 417.291265 99.996508 
L 415.667856 99.016993 
L 413.921636 98.037479 
L 412.035426 97.057965 
L 410.041248 96.078451 
L 408.036745 95.098937 
L 406.12458 94.119423 
L 404.365753 93.139909 
L 402.804162 92.160395 
L 401.504181 91.180881 
L 400.527362 90.201367 
L 399.861775 89.221853 
L 399.387482 88.242339 
L 398.941999 87.262825 
L 398.448922 86.283311 
L 397.992314 85.303797 
L 397.769308 84.324283 
L 397.97451 83.344769 
L 398.706773 82.365255 
L 399.934672 81.385741 
L 401.518166 80.406227 
L 403.275097 79.426712 
L 405.053639 78.447198 
L 406.760671 77.467684 
L 408.348832 76.48817 
L 409.808996 75.508656 
L 411.175661 74.529142 
L 412.508093 73.549628 
L 413.847799 72.570114 
L 415.198089 71.5906 
L 416.538997 70.611086 
L 417.848359 69.631572 
L 419.115677 68.652058 
L 420.353679 67.672544 
L 421.594501 66.69303 
L 422.856564 65.713516 
L 424.106021 64.734002 
L 425.25768 63.754488 
L 426.226562 62.774974 
L 426.986811 61.79546 
L 427.583554 60.815946 
L 428.090614 59.836432 
L 428.557311 58.856917 
L 428.987425 57.877403 
L 429.355851 56.897889 
L 429.639729 55.918375 
L 429.839953 54.938861 
L 429.982438 53.959347 
L 430.101825 52.979833 
L 430.220578 52.000319 
L 430.339345 51.020805 
L 430.444201 50.041291 
L 430.521927 49.061777 
L 430.570528 48.082263 
L 430.599157 47.102749 
L 430.620417 46.123235 
L 430.642588 45.143721 
L 430.667173 44.164207 
L 430.690921 43.184693 
L 430.708875 42.205179 
L 430.717321 41.225665 
L 430.716555 40.246151 
L 430.711691 39.266637 
L 430.709734 38.287122 
L 430.797262 38.287122 
L 430.797262 38.287122 
L 430.795305 39.266637 
L 430.790441 40.246151 
L 430.789676 41.225665 
L 430.798121 42.205179 
L 430.816075 43.184693 
L 430.839823 44.164207 
L 430.864408 45.143721 
L 430.886579 46.123235 
L 430.907839 47.102749 
L 430.936469 48.082263 
L 430.985069 49.061777 
L 431.062795 50.041291 
L 431.167651 51.020805 
L 431.286419 52.000319 
L 431.405171 52.979833 
L 431.524558 53.959347 
L 431.667043 54.938861 
L 431.867267 55.918375 
L 432.151146 56.897889 
L 432.519572 57.877403 
L 432.949685 58.856917 
L 433.416382 59.836432 
L 433.923442 60.815946 
L 434.520185 61.79546 
L 435.280435 62.774974 
L 436.249316 63.754488 
L 437.400975 64.734002 
L 438.650432 65.713516 
L 439.912495 66.69303 
L 441.153318 67.672544 
L 442.391319 68.652058 
L 443.658637 69.631572 
L 444.968 70.611086 
L 446.308907 71.5906 
L 447.659197 72.570114 
L 448.998903 73.549628 
L 450.331335 74.529142 
L 451.698001 75.508656 
L 453.158165 76.48817 
L 454.746325 77.467684 
L 456.453357 78.447198 
L 458.231899 79.426712 
L 459.98883 80.406227 
L 461.572324 81.385741 
L 462.800223 82.365255 
L 463.532486 83.344769 
L 463.737688 84.324283 
L 463.514682 85.303797 
L 463.058074 86.283311 
L 462.564997 87.262825 
L 462.119514 88.242339 
L 461.645221 89.221853 
L 460.979634 90.201367 
L 460.002816 91.180881 
L 458.702834 92.160395 
L 457.141243 93.139909 
L 455.382416 94.119423 
L 453.470251 95.098937 
L 451.465748 96.078451 
L 449.47157 97.057965 
L 447.585361 98.037479 
L 445.83914 99.016993 
L 444.215731 99.996508 
L 442.715806 100.976022 
L 441.36916 101.955536 
L 440.172839 102.93505 
L 439.05548 103.914564 
L 437.935538 104.894078 
L 436.810084 105.873592 
L 435.765348 106.853106 
L 434.898236 107.83262 
L 434.23857 108.812134 
L 433.74019 109.791648 
L 433.325256 110.771162 
L 432.932986 111.750676 
L 432.543748 112.73019 
L 432.17291 113.709704 
L 431.84649 114.689218 
L 431.581286 115.668732 
L 431.381956 116.648246 
L 431.246742 117.62776 
L 431.16937 118.607274 
L 431.136546 119.586788 
L 431.127669 120.566303 
L 431.119908 121.545817 
L 431.096334 122.525331 
L 431.052181 123.504845 
L 430.994695 124.484359 
L 430.936219 125.463873 
L 430.88599 126.443387 
L 430.847195 127.422901 
L 430.819901 128.402415 
L 430.804441 129.381929 
L 430.800917 130.361443 
L 430.806625 131.340957 
L 430.815799 132.320471 
L 430.822334 133.299985 
L 430.822353 134.279499 
L 430.814823 135.259013 
z
" clip-path="url(#pa75a1adbce)" style="fill: #fa7c17; fill-opacity: 0.3"/>
   </g>
   <g id="PolyCollection_5">
    <path d="M 430.841301 173.579521 
L 430.665695 173.579521 
L 430.662212 172.563442 
L 430.664143 171.547364 
L 430.657636 170.531285 
L 430.628155 169.515206 
L 430.569519 168.499128 
L 430.486818 167.483049 
L 430.390262 166.46697 
L 430.285269 165.450892 
L 430.168677 164.434813 
L 430.034832 163.418734 
L 429.88277 162.402656 
L 429.712409 161.386577 
L 429.511725 160.370498 
L 429.252519 159.35442 
L 428.905619 158.338341 
L 428.461525 157.322262 
L 427.933566 156.306184 
L 427.341517 155.290105 
L 426.695397 154.274026 
L 425.995469 153.257947 
L 425.244032 152.241869 
L 424.449394 151.22579 
L 423.608321 150.209711 
L 422.681336 149.193633 
L 421.594981 148.177554 
L 420.281285 147.161475 
L 418.720706 146.145397 
L 416.952676 145.129318 
L 415.06036 144.113239 
L 413.158002 143.097161 
L 411.380772 142.081082 
L 409.849583 141.065003 
L 408.606827 140.048925 
L 407.568323 139.032846 
L 406.547259 138.016767 
L 405.354431 137.000689 
L 403.912589 135.98461 
L 402.306599 134.968531 
L 400.739016 133.952453 
L 399.42626 132.936374 
L 398.502152 131.920295 
L 397.97877 130.904217 
L 397.772472 129.888138 
L 397.769308 128.872059 
L 397.893135 127.855981 
L 398.14221 126.839902 
L 398.573871 125.823823 
L 399.249669 124.807744 
L 400.183974 123.791666 
L 401.329625 122.775587 
L 402.596937 121.759508 
L 403.888509 120.74343 
L 405.141943 119.727351 
L 406.363689 118.711272 
L 407.62192 117.695194 
L 408.992824 116.679115 
L 410.504648 115.663036 
L 412.129239 114.646958 
L 413.818018 113.630879 
L 415.532472 112.6148 
L 417.237239 111.598722 
L 418.878817 110.582643 
L 420.387262 109.566564 
L 421.703272 108.550486 
L 422.80812 107.534407 
L 423.737609 106.518328 
L 424.568709 105.50225 
L 425.379734 104.486171 
L 426.205828 103.470092 
L 427.019344 102.454014 
L 427.750039 101.437935 
L 428.334169 100.421856 
L 428.757932 99.405777 
L 429.061302 98.389699 
L 429.302924 97.37362 
L 429.520934 96.357541 
L 429.720648 95.341463 
L 429.889646 94.325384 
L 430.019836 93.309305 
L 430.117991 92.293227 
L 430.200936 91.277148 
L 430.283852 90.261069 
L 430.372122 89.244991 
L 430.461112 88.228912 
L 430.541792 87.212833 
L 430.607278 86.196755 
L 430.655755 85.180676 
L 430.688779 84.164597 
L 430.708223 83.148519 
L 430.715676 82.13244 
L 430.714223 81.116361 
L 430.709374 80.100283 
L 430.706897 79.084204 
L 430.70915 78.068125 
L 430.71366 77.052047 
L 430.715838 76.035968 
L 430.713543 75.019889 
L 430.709277 74.003811 
L 430.708032 72.987732 
L 430.798964 72.987732 
L 430.798964 72.987732 
L 430.797719 74.003811 
L 430.793453 75.019889 
L 430.791158 76.035968 
L 430.793336 77.052047 
L 430.797846 78.068125 
L 430.800099 79.084204 
L 430.797622 80.100283 
L 430.792773 81.116361 
L 430.79132 82.13244 
L 430.798773 83.148519 
L 430.818217 84.164597 
L 430.851241 85.180676 
L 430.899718 86.196755 
L 430.965204 87.212833 
L 431.045884 88.228912 
L 431.134874 89.244991 
L 431.223145 90.261069 
L 431.30606 91.277148 
L 431.389005 92.293227 
L 431.48716 93.309305 
L 431.61735 94.325384 
L 431.786349 95.341463 
L 431.986062 96.357541 
L 432.204072 97.37362 
L 432.445694 98.389699 
L 432.749064 99.405777 
L 433.172827 100.421856 
L 433.756957 101.437935 
L 434.487652 102.454014 
L 435.301168 103.470092 
L 436.127262 104.486171 
L 436.938287 105.50225 
L 437.769387 106.518328 
L 438.698876 107.534407 
L 439.803724 108.550486 
L 441.119734 109.566564 
L 442.628179 110.582643 
L 444.269757 111.598722 
L 445.974524 112.6148 
L 447.688978 113.630879 
L 449.377757 114.646958 
L 451.002348 115.663036 
L 452.514172 116.679115 
L 453.885076 117.695194 
L 455.143307 118.711272 
L 456.365053 119.727351 
L 457.618488 120.74343 
L 458.910059 121.759508 
L 460.177371 122.775587 
L 461.323023 123.791666 
L 462.257327 124.807744 
L 462.933125 125.823823 
L 463.364786 126.839902 
L 463.613861 127.855981 
L 463.737688 128.872059 
L 463.734525 129.888138 
L 463.528226 130.904217 
L 463.004844 131.920295 
L 462.080736 132.936374 
L 460.76798 133.952453 
L 459.200397 134.968531 
L 457.594407 135.98461 
L 456.152565 137.000689 
L 454.959737 138.016767 
L 453.938673 139.032846 
L 452.90017 140.048925 
L 451.657413 141.065003 
L 450.126224 142.081082 
L 448.348994 143.097161 
L 446.446636 144.113239 
L 444.55432 145.129318 
L 442.78629 146.145397 
L 441.225711 147.161475 
L 439.912015 148.177554 
L 438.82566 149.193633 
L 437.898676 150.209711 
L 437.057602 151.22579 
L 436.262964 152.241869 
L 435.511527 153.257947 
L 434.811599 154.274026 
L 434.165479 155.290105 
L 433.57343 156.306184 
L 433.045471 157.322262 
L 432.601377 158.338341 
L 432.254477 159.35442 
L 431.995271 160.370498 
L 431.794587 161.386577 
L 431.624226 162.402656 
L 431.472164 163.418734 
L 431.338319 164.434813 
L 431.221727 165.450892 
L 431.116734 166.46697 
L 431.020178 167.483049 
L 430.937477 168.499128 
L 430.878841 169.515206 
L 430.84936 170.531285 
L 430.842853 171.547364 
L 430.844784 172.563442 
L 430.841301 173.579521 
z
" clip-path="url(#pa75a1adbce)" style="fill: #328c06; fill-opacity: 0.3"/>
   </g>
   <g id="line2d_15">
    <path d="M 100.911602 258.550779 
L 430.753498 137.738476 
" clip-path="url(#pa75a1adbce)" style="fill: none; stroke: #2a2eec; stroke-opacity: 0.25; stroke-width: 1.5; stroke-linecap: round"/>
   </g>
   <g id="line2d_16">
    <path d="M 100.911602 237.355363 
L 430.753498 149.971814 
" clip-path="url(#pa75a1adbce)" style="fill: none; stroke: #2a2eec; stroke-opacity: 0.25; stroke-width: 1.5; stroke-linecap: round"/>
   </g>
   <g id="line2d_17">
    <path d="M 100.911602 255.621458 
L 430.753498 160.898048 
" clip-path="url(#pa75a1adbce)" style="fill: none; stroke: #2a2eec; stroke-opacity: 0.25; stroke-width: 1.5; stroke-linecap: round"/>
   </g>
   <g id="line2d_18">
    <path d="M 100.911602 273.609221 
L 430.753498 132.729733 
" clip-path="url(#pa75a1adbce)" style="fill: none; stroke: #2a2eec; stroke-opacity: 0.25; stroke-width: 1.5; stroke-linecap: round"/>
   </g>
   <g id="line2d_19">
    <path d="M 100.911602 242.986148 
L 430.753498 142.303885 
" clip-path="url(#pa75a1adbce)" style="fill: none; stroke: #2a2eec; stroke-opacity: 0.25; stroke-width: 1.5; stroke-linecap: round"/>
   </g>
   <g id="line2d_20">
    <path d="M 100.911602 267.977029 
L 430.753498 157.732004 
" clip-path="url(#pa75a1adbce)" style="fill: none; stroke: #2a2eec; stroke-opacity: 0.25; stroke-width: 1.5; stroke-linecap: round"/>
   </g>
   <g id="line2d_21">
    <path d="M 100.911602 253.600903 
L 430.753498 157.334875 
" clip-path="url(#pa75a1adbce)" style="fill: none; stroke: #2a2eec; stroke-opacity: 0.25; stroke-width: 1.5; stroke-linecap: round"/>
   </g>
   <g id="line2d_22">
    <path d="M 100.911602 262.62341 
L 430.753498 168.271478 
" clip-path="url(#pa75a1adbce)" style="fill: none; stroke: #2a2eec; stroke-opacity: 0.25; stroke-width: 1.5; stroke-linecap: round"/>
   </g>
   <g id="line2d_23">
    <path d="M 100.911602 263.146468 
L 430.753498 127.977124 
" clip-path="url(#pa75a1adbce)" style="fill: none; stroke: #2a2eec; stroke-opacity: 0.25; stroke-width: 1.5; stroke-linecap: round"/>
   </g>
   <g id="line2d_24">
    <path d="M 100.911602 252.119324 
L 430.753498 160.126599 
" clip-path="url(#pa75a1adbce)" style="fill: none; stroke: #2a2eec; stroke-opacity: 0.25; stroke-width: 1.5; stroke-linecap: round"/>
   </g>
   <g id="line2d_25">
    <path d="M 100.911602 243.301429 
L 430.753498 96.217432 
" clip-path="url(#pa75a1adbce)" style="fill: none; stroke: #fa7c17; stroke-opacity: 0.25; stroke-width: 1.5; stroke-linecap: round"/>
   </g>
   <g id="line2d_26">
    <path d="M 100.911602 242.733314 
L 430.753498 80.537639 
" clip-path="url(#pa75a1adbce)" style="fill: none; stroke: #fa7c17; stroke-opacity: 0.25; stroke-width: 1.5; stroke-linecap: round"/>
   </g>
   <g id="line2d_27">
    <path d="M 100.911602 234.401527 
L 430.753498 98.582144 
" clip-path="url(#pa75a1adbce)" style="fill: none; stroke: #fa7c17; stroke-opacity: 0.25; stroke-width: 1.5; stroke-linecap: round"/>
   </g>
   <g id="line2d_28">
    <path d="M 100.911602 229.991279 
L 430.753498 93.160603 
" clip-path="url(#pa75a1adbce)" style="fill: none; stroke: #fa7c17; stroke-opacity: 0.25; stroke-width: 1.5; stroke-linecap: round"/>
   </g>
   <g id="line2d_29">
    <path d="M 100.911602 233.140704 
L 430.753498 72.549368 
" clip-path="url(#pa75a1adbce)" style="fill: none; stroke: #fa7c17; stroke-opacity: 0.25; stroke-width: 1.5; stroke-linecap: round"/>
   </g>
   <g id="line2d_30">
    <path d="M 100.911602 231.236214 
L 430.753498 81.313465 
" clip-path="url(#pa75a1adbce)" style="fill: none; stroke: #fa7c17; stroke-opacity: 0.25; stroke-width: 1.5; stroke-linecap: round"/>
   </g>
   <g id="line2d_31">
    <path d="M 100.911602 232.976445 
L 430.753498 74.195295 
" clip-path="url(#pa75a1adbce)" style="fill: none; stroke: #fa7c17; stroke-opacity: 0.25; stroke-width: 1.5; stroke-linecap: round"/>
   </g>
   <g id="line2d_32">
    <path d="M 100.911602 240.158596 
L 430.753498 78.372807 
" clip-path="url(#pa75a1adbce)" style="fill: none; stroke: #fa7c17; stroke-opacity: 0.25; stroke-width: 1.5; stroke-linecap: round"/>
   </g>
   <g id="line2d_33">
    <path d="M 100.911602 243.604735 
L 430.753498 82.85216 
" clip-path="url(#pa75a1adbce)" style="fill: none; stroke: #fa7c17; stroke-opacity: 0.25; stroke-width: 1.5; stroke-linecap: round"/>
   </g>
   <g id="line2d_34">
    <path d="M 100.911602 224.262962 
L 430.753498 94.319074 
" clip-path="url(#pa75a1adbce)" style="fill: none; stroke: #fa7c17; stroke-opacity: 0.25; stroke-width: 1.5; stroke-linecap: round"/>
   </g>
   <g id="line2d_35"/>
   <g id="line2d_36"/>
   <g id="LineCollection_1">
    <path d="M 84.419507 217.784331 
L 117.403697 217.784331 
" clip-path="url(#pa75a1adbce)" style="fill: none; stroke: #2a2eec; stroke-width: 1.5"/>
    <path d="M 414.261403 106.269473 
L 447.245593 106.269473 
" clip-path="url(#pa75a1adbce)" style="fill: none; stroke: #2a2eec; stroke-width: 1.5"/>
   </g>
   <g id="LineCollection_2">
    <path d="M 84.419507 298.303335 
L 117.403697 298.303335 
" clip-path="url(#pa75a1adbce)" style="fill: none; stroke: #2a2eec; stroke-width: 1.5"/>
    <path d="M 414.261403 193.711678 
L 447.245593 193.711678 
" clip-path="url(#pa75a1adbce)" style="fill: none; stroke: #2a2eec; stroke-width: 1.5"/>
   </g>
   <g id="LineCollection_3">
    <path d="M 100.911602 298.303335 
L 100.911602 217.784331 
" clip-path="url(#pa75a1adbce)" style="fill: none; stroke: #2a2eec; stroke-width: 1.5"/>
    <path d="M 430.753498 193.711678 
L 430.753498 106.269473 
" clip-path="url(#pa75a1adbce)" style="fill: none; stroke: #2a2eec; stroke-width: 1.5"/>
   </g>
   <g id="LineCollection_4">
    <path d="M 84.419507 184.777432 
L 117.403697 184.777432 
" clip-path="url(#pa75a1adbce)" style="fill: none; stroke: #fa7c17; stroke-width: 1.5"/>
    <path d="M 414.261403 38.287122 
L 447.245593 38.287122 
" clip-path="url(#pa75a1adbce)" style="fill: none; stroke: #fa7c17; stroke-width: 1.5"/>
   </g>
   <g id="LineCollection_5">
    <path d="M 84.419507 278.988505 
L 117.403697 278.988505 
" clip-path="url(#pa75a1adbce)" style="fill: none; stroke: #fa7c17; stroke-width: 1.5"/>
    <path d="M 414.261403 135.259013 
L 447.245593 135.259013 
" clip-path="url(#pa75a1adbce)" style="fill: none; stroke: #fa7c17; stroke-width: 1.5"/>
   </g>
   <g id="LineCollection_6">
    <path d="M 100.911602 278.988505 
L 100.911602 184.777432 
" clip-path="url(#pa75a1adbce)" style="fill: none; stroke: #fa7c17; stroke-width: 1.5"/>
    <path d="M 430.753498 135.259013 
L 430.753498 38.287122 
" clip-path="url(#pa75a1adbce)" style="fill: none; stroke: #fa7c17; stroke-width: 1.5"/>
   </g>
   <g id="LineCollection_7">
    <path d="M 414.261403 72.987732 
L 447.245593 72.987732 
" clip-path="url(#pa75a1adbce)" style="fill: none; stroke: #328c06; stroke-width: 1.5"/>
   </g>
   <g id="LineCollection_8">
    <path d="M 414.261403 173.579521 
L 447.245593 173.579521 
" clip-path="url(#pa75a1adbce)" style="fill: none; stroke: #328c06; stroke-width: 1.5"/>
   </g>
   <g id="LineCollection_9">
    <path d="M 430.753498 173.579521 
L 430.753498 72.987732 
" clip-path="url(#pa75a1adbce)" style="fill: none; stroke: #328c06; stroke-width: 1.5"/>
   </g>
   <g id="patch_3">
    <path d="M 51.435317 311.304146 
L 51.435317 25.286312 
" style="fill: none"/>
   </g>
   <g id="patch_4">
    <path d="M 513.213972 311.304146 
L 513.213972 25.286312 
" style="fill: none"/>
   </g>
   <g id="patch_5">
    <path d="M 51.435317 311.304146 
L 513.213972 311.304146 
" style="fill: none"/>
   </g>
   <g id="patch_6">
    <path d="M 51.435317 25.286312 
L 513.213972 25.286312 
" style="fill: none"/>
   </g>
   <g id="patch_7">
    <path d="M 480.229783 90.640407 
Q 480.229783 106.865508 480.229783 123.090609 
" style="fill: none; stroke: #008000; stroke-width: 3; stroke-linecap: round"/>
    <path d="M 478.229783 94.640407 
L 480.229783 90.640407 
L 482.229783 94.640407 
" style="fill: none; stroke: #008000; stroke-width: 3; stroke-linecap: round"/>
    <path d="M 482.229783 119.090609 
L 480.229783 123.090609 
L 478.229783 119.090609 
" style="fill: none; stroke: #008000; stroke-width: 3; stroke-linecap: round"/>
   </g>
   <g id="text_10">
    <!-- causal -->
    <g style="fill: #008000" transform="translate(485.229783 104.027397) scale(0.1 -0.1)">
     <defs>
      <path id="DejaVuSans-63" d="M 3122 3366 
L 3122 2828 
Q 2878 2963 2633 3030 
Q 2388 3097 2138 3097 
Q 1578 3097 1268 2742 
Q 959 2388 959 1747 
Q 959 1106 1268 751 
Q 1578 397 2138 397 
Q 2388 397 2633 464 
Q 2878 531 3122 666 
L 3122 134 
Q 2881 22 2623 -34 
Q 2366 -91 2075 -91 
Q 1284 -91 818 406 
Q 353 903 353 1747 
Q 353 2603 823 3093 
Q 1294 3584 2113 3584 
Q 2378 3584 2631 3529 
Q 2884 3475 3122 3366 
z
" transform="scale(0.015625)"/>
      <path id="DejaVuSans-61" d="M 2194 1759 
Q 1497 1759 1228 1600 
Q 959 1441 959 1056 
Q 959 750 1161 570 
Q 1363 391 1709 391 
Q 2188 391 2477 730 
Q 2766 1069 2766 1631 
L 2766 1759 
L 2194 1759 
z
M 3341 1997 
L 3341 0 
L 2766 0 
L 2766 531 
Q 2569 213 2275 61 
Q 1981 -91 1556 -91 
Q 1019 -91 701 211 
Q 384 513 384 1019 
Q 384 1609 779 1909 
Q 1175 2209 1959 2209 
L 2766 2209 
L 2766 2266 
Q 2766 2663 2505 2880 
Q 2244 3097 1772 3097 
Q 1472 3097 1187 3025 
Q 903 2953 641 2809 
L 641 3341 
Q 956 3463 1253 3523 
Q 1550 3584 1831 3584 
Q 2591 3584 2966 3190 
Q 3341 2797 3341 1997 
z
" transform="scale(0.015625)"/>
      <path id="DejaVuSans-75" d="M 544 1381 
L 544 3500 
L 1119 3500 
L 1119 1403 
Q 1119 906 1312 657 
Q 1506 409 1894 409 
Q 2359 409 2629 706 
Q 2900 1003 2900 1516 
L 2900 3500 
L 3475 3500 
L 3475 0 
L 2900 0 
L 2900 538 
Q 2691 219 2414 64 
Q 2138 -91 1772 -91 
Q 1169 -91 856 284 
Q 544 659 544 1381 
z
M 1991 3584 
L 1991 3584 
z
" transform="scale(0.015625)"/>
      <path id="DejaVuSans-6c" d="M 603 4863 
L 1178 4863 
L 1178 0 
L 603 0 
L 603 4863 
z
" transform="scale(0.015625)"/>
     </defs>
     <use xlink:href="#DejaVuSans-63"/>
     <use xlink:href="#DejaVuSans-61" x="54.980469"/>
     <use xlink:href="#DejaVuSans-75" x="116.259766"/>
     <use xlink:href="#DejaVuSans-73" x="179.638672"/>
     <use xlink:href="#DejaVuSans-61" x="231.738281"/>
     <use xlink:href="#DejaVuSans-6c" x="293.017578"/>
    </g>
    <!-- impact -->
    <g style="fill: #008000" transform="translate(485.229783 115.22521) scale(0.1 -0.1)">
     <defs>
      <path id="DejaVuSans-69" d="M 603 3500 
L 1178 3500 
L 1178 0 
L 603 0 
L 603 3500 
z
M 603 4863 
L 1178 4863 
L 1178 4134 
L 603 4134 
L 603 4863 
z
" transform="scale(0.015625)"/>
      <path id="DejaVuSans-6d" d="M 3328 2828 
Q 3544 3216 3844 3400 
Q 4144 3584 4550 3584 
Q 5097 3584 5394 3201 
Q 5691 2819 5691 2113 
L 5691 0 
L 5113 0 
L 5113 2094 
Q 5113 2597 4934 2840 
Q 4756 3084 4391 3084 
Q 3944 3084 3684 2787 
Q 3425 2491 3425 1978 
L 3425 0 
L 2847 0 
L 2847 2094 
Q 2847 2600 2669 2842 
Q 2491 3084 2119 3084 
Q 1678 3084 1418 2786 
Q 1159 2488 1159 1978 
L 1159 0 
L 581 0 
L 581 3500 
L 1159 3500 
L 1159 2956 
Q 1356 3278 1631 3431 
Q 1906 3584 2284 3584 
Q 2666 3584 2933 3390 
Q 3200 3197 3328 2828 
z
" transform="scale(0.015625)"/>
     </defs>
     <use xlink:href="#DejaVuSans-69"/>
     <use xlink:href="#DejaVuSans-6d" x="27.783203"/>
     <use xlink:href="#DejaVuSans-70" x="125.195312"/>
     <use xlink:href="#DejaVuSans-61" x="188.671875"/>
     <use xlink:href="#DejaVuSans-63" x="249.951172"/>
     <use xlink:href="#DejaVuSans-74" x="304.931641"/>
    </g>
   </g>
   <g id="text_11">
    <!-- Causal impact = 0.41 -->
    <g style="fill: #262626" transform="translate(195.798395 19.286312) scale(0.16 -0.16)">
     <defs>
      <path id="DejaVuSans-43" d="M 4122 4306 
L 4122 3641 
Q 3803 3938 3442 4084 
Q 3081 4231 2675 4231 
Q 1875 4231 1450 3742 
Q 1025 3253 1025 2328 
Q 1025 1406 1450 917 
Q 1875 428 2675 428 
Q 3081 428 3442 575 
Q 3803 722 4122 1019 
L 4122 359 
Q 3791 134 3420 21 
Q 3050 -91 2638 -91 
Q 1578 -91 968 557 
Q 359 1206 359 2328 
Q 359 3453 968 4101 
Q 1578 4750 2638 4750 
Q 3056 4750 3426 4639 
Q 3797 4528 4122 4306 
z
" transform="scale(0.015625)"/>
      <path id="DejaVuSans-20" transform="scale(0.015625)"/>
      <path id="DejaVuSans-3d" d="M 678 2906 
L 4684 2906 
L 4684 2381 
L 678 2381 
L 678 2906 
z
M 678 1631 
L 4684 1631 
L 4684 1100 
L 678 1100 
L 678 1631 
z
" transform="scale(0.015625)"/>
      <path id="DejaVuSans-34" d="M 2419 4116 
L 825 1625 
L 2419 1625 
L 2419 4116 
z
M 2253 4666 
L 3047 4666 
L 3047 1625 
L 3713 1625 
L 3713 1100 
L 3047 1100 
L 3047 0 
L 2419 0 
L 2419 1100 
L 313 1100 
L 313 1709 
L 2253 4666 
z
" transform="scale(0.015625)"/>
     </defs>
     <use xlink:href="#DejaVuSans-43"/>
     <use xlink:href="#DejaVuSans-61" x="69.824219"/>
     <use xlink:href="#DejaVuSans-75" x="131.103516"/>
     <use xlink:href="#DejaVuSans-73" x="194.482422"/>
     <use xlink:href="#DejaVuSans-61" x="246.582031"/>
     <use xlink:href="#DejaVuSans-6c" x="307.861328"/>
     <use xlink:href="#DejaVuSans-20" x="335.644531"/>
     <use xlink:href="#DejaVuSans-69" x="367.431641"/>
     <use xlink:href="#DejaVuSans-6d" x="395.214844"/>
     <use xlink:href="#DejaVuSans-70" x="492.626953"/>
     <use xlink:href="#DejaVuSans-61" x="556.103516"/>
     <use xlink:href="#DejaVuSans-63" x="617.382812"/>
     <use xlink:href="#DejaVuSans-74" x="672.363281"/>
     <use xlink:href="#DejaVuSans-20" x="711.572266"/>
     <use xlink:href="#DejaVuSans-3d" x="743.359375"/>
     <use xlink:href="#DejaVuSans-20" x="827.148438"/>
     <use xlink:href="#DejaVuSans-30" x="858.935547"/>
     <use xlink:href="#DejaVuSans-2e" x="922.558594"/>
     <use xlink:href="#DejaVuSans-34" x="954.345703"/>
     <use xlink:href="#DejaVuSans-31" x="1017.96875"/>
    </g>
   </g>
   <g id="legend_1">
    <g id="line2d_37">
     <path d="M 461.178972 41.004437 
L 473.178972 41.004437 
L 485.178972 41.004437 
" style="fill: none; stroke: #2a2eec; stroke-width: 1.5; stroke-linecap: round"/>
    </g>
    <g id="text_12">
     <!-- 0 -->
     <g style="fill: #262626" transform="translate(494.778972 45.204437) scale(0.12 -0.12)">
      <use xlink:href="#DejaVuSans-30"/>
     </g>
    </g>
    <g id="line2d_38">
     <path d="M 461.178972 58.618187 
L 473.178972 58.618187 
L 485.178972 58.618187 
" style="fill: none; stroke: #fa7c17; stroke-width: 1.5; stroke-linecap: round"/>
    </g>
    <g id="text_13">
     <!-- 1 -->
     <g style="fill: #262626" transform="translate(494.778972 62.818187) scale(0.12 -0.12)">
      <use xlink:href="#DejaVuSans-31"/>
     </g>
    </g>
   </g>
  </g>
 </g>
 <defs>
  <clipPath id="pa75a1adbce">
   <rect x="51.435317" y="25.286312" width="461.778655" height="286.017834"/>
  </clipPath>
 </defs>
</svg>
