<?xml version="1.0" encoding="utf-8" standalone="no"?>
<!DOCTYPE svg PUBLIC "-//W3C//DTD SVG 1.1//EN"
  "http://www.w3.org/Graphics/SVG/1.1/DTD/svg11.dtd">
<svg xmlns:xlink="http://www.w3.org/1999/xlink" width="526.79952pt" height="353.99952pt" viewBox="0 0 526.79952 353.99952" xmlns="http://www.w3.org/2000/svg" version="1.1">
 <metadata>
  <rdf:RDF xmlns:dc="http://purl.org/dc/elements/1.1/" xmlns:cc="http://creativecommons.org/ns#" xmlns:rdf="http://www.w3.org/1999/02/22-rdf-syntax-ns#">
   <cc:Work>
    <dc:type rdf:resource="http://purl.org/dc/dcmitype/StillImage"/>
    <dc:date>2022-10-29T12:35:16.772312</dc:date>
    <dc:format>image/svg+xml</dc:format>
    <dc:creator>
     <cc:Agent>
      <dc:title>Matplotlib v3.6.1, https://matplotlib.org/</dc:title>
     </cc:Agent>
    </dc:creator>
   </cc:Work>
  </rdf:RDF>
 </metadata>
 <defs>
  <style type="text/css">*{stroke-linejoin: round; stroke-linecap: butt}</style>
 </defs>
 <g id="figure_1">
  <g id="patch_1">
   <path d="M 0 353.99952 
L 526.79952 353.99952 
L 526.79952 0 
L 0 0 
z
" style="fill: #ffffff"/>
  </g>
  <g id="axes_1">
   <g id="patch_2">
    <path d="M 51.433725 311.304146 
L 519.647357 311.304146 
L 519.647357 7.128812 
L 51.433725 7.128812 
z
" style="fill: #eeeeee"/>
   </g>
   <g id="matplotlib.axis_1">
    <g id="xtick_1">
     <g id="line2d_1">
      <path d="M 108.186893 311.304146 
L 108.186893 7.128812 
" clip-path="url(#p0be05e2226)" style="fill: none; stroke: #ffffff; stroke-width: 0.8; stroke-linecap: round"/>
     </g>
     <g id="line2d_2"/>
     <g id="text_1">
      <!-- 0.0 -->
      <g style="fill: #262626" transform="translate(97.054705 325.441958) scale(0.14 -0.14)">
       <defs>
        <path id="DejaVuSans-30" d="M 2034 4250 
Q 1547 4250 1301 3770 
Q 1056 3291 1056 2328 
Q 1056 1369 1301 889 
Q 1547 409 2034 409 
Q 2525 409 2770 889 
Q 3016 1369 3016 2328 
Q 3016 3291 2770 3770 
Q 2525 4250 2034 4250 
z
M 2034 4750 
Q 2819 4750 3233 4129 
Q 3647 3509 3647 2328 
Q 3647 1150 3233 529 
Q 2819 -91 2034 -91 
Q 1250 -91 836 529 
Q 422 1150 422 2328 
Q 422 3509 836 4129 
Q 1250 4750 2034 4750 
z
" transform="scale(0.015625)"/>
        <path id="DejaVuSans-2e" d="M 684 794 
L 1344 794 
L 1344 0 
L 684 0 
L 684 794 
z
" transform="scale(0.015625)"/>
       </defs>
       <use xlink:href="#DejaVuSans-30"/>
       <use xlink:href="#DejaVuSans-2e" x="63.623047"/>
       <use xlink:href="#DejaVuSans-30" x="95.410156"/>
      </g>
     </g>
    </g>
    <g id="xtick_2">
     <g id="line2d_3">
      <path d="M 179.128352 311.304146 
L 179.128352 7.128812 
" clip-path="url(#p0be05e2226)" style="fill: none; stroke: #ffffff; stroke-width: 0.8; stroke-linecap: round"/>
     </g>
     <g id="line2d_4"/>
     <g id="text_2">
      <!-- 0.2 -->
      <g style="fill: #262626" transform="translate(167.996165 325.441958) scale(0.14 -0.14)">
       <defs>
        <path id="DejaVuSans-32" d="M 1228 531 
L 3431 531 
L 3431 0 
L 469 0 
L 469 531 
Q 828 903 1448 1529 
Q 2069 2156 2228 2338 
Q 2531 2678 2651 2914 
Q 2772 3150 2772 3378 
Q 2772 3750 2511 3984 
Q 2250 4219 1831 4219 
Q 1534 4219 1204 4116 
Q 875 4013 500 3803 
L 500 4441 
Q 881 4594 1212 4672 
Q 1544 4750 1819 4750 
Q 2544 4750 2975 4387 
Q 3406 4025 3406 3419 
Q 3406 3131 3298 2873 
Q 3191 2616 2906 2266 
Q 2828 2175 2409 1742 
Q 1991 1309 1228 531 
z
" transform="scale(0.015625)"/>
       </defs>
       <use xlink:href="#DejaVuSans-30"/>
       <use xlink:href="#DejaVuSans-2e" x="63.623047"/>
       <use xlink:href="#DejaVuSans-32" x="95.410156"/>
      </g>
     </g>
    </g>
    <g id="xtick_3">
     <g id="line2d_5">
      <path d="M 250.069812 311.304146 
L 250.069812 7.128812 
" clip-path="url(#p0be05e2226)" style="fill: none; stroke: #ffffff; stroke-width: 0.8; stroke-linecap: round"/>
     </g>
     <g id="line2d_6"/>
     <g id="text_3">
      <!-- 0.4 -->
      <g style="fill: #262626" transform="translate(238.937624 325.441958) scale(0.14 -0.14)">
       <defs>
        <path id="DejaVuSans-34" d="M 2419 4116 
L 825 1625 
L 2419 1625 
L 2419 4116 
z
M 2253 4666 
L 3047 4666 
L 3047 1625 
L 3713 1625 
L 3713 1100 
L 3047 1100 
L 3047 0 
L 2419 0 
L 2419 1100 
L 313 1100 
L 313 1709 
L 2253 4666 
z
" transform="scale(0.015625)"/>
       </defs>
       <use xlink:href="#DejaVuSans-30"/>
       <use xlink:href="#DejaVuSans-2e" x="63.623047"/>
       <use xlink:href="#DejaVuSans-34" x="95.410156"/>
      </g>
     </g>
    </g>
    <g id="xtick_4">
     <g id="line2d_7">
      <path d="M 321.011271 311.304146 
L 321.011271 7.128812 
" clip-path="url(#p0be05e2226)" style="fill: none; stroke: #ffffff; stroke-width: 0.8; stroke-linecap: round"/>
     </g>
     <g id="line2d_8"/>
     <g id="text_4">
      <!-- 0.6 -->
      <g style="fill: #262626" transform="translate(309.879083 325.441958) scale(0.14 -0.14)">
       <defs>
        <path id="DejaVuSans-36" d="M 2113 2584 
Q 1688 2584 1439 2293 
Q 1191 2003 1191 1497 
Q 1191 994 1439 701 
Q 1688 409 2113 409 
Q 2538 409 2786 701 
Q 3034 994 3034 1497 
Q 3034 2003 2786 2293 
Q 2538 2584 2113 2584 
z
M 3366 4563 
L 3366 3988 
Q 3128 4100 2886 4159 
Q 2644 4219 2406 4219 
Q 1781 4219 1451 3797 
Q 1122 3375 1075 2522 
Q 1259 2794 1537 2939 
Q 1816 3084 2150 3084 
Q 2853 3084 3261 2657 
Q 3669 2231 3669 1497 
Q 3669 778 3244 343 
Q 2819 -91 2113 -91 
Q 1303 -91 875 529 
Q 447 1150 447 2328 
Q 447 3434 972 4092 
Q 1497 4750 2381 4750 
Q 2619 4750 2861 4703 
Q 3103 4656 3366 4563 
z
" transform="scale(0.015625)"/>
       </defs>
       <use xlink:href="#DejaVuSans-30"/>
       <use xlink:href="#DejaVuSans-2e" x="63.623047"/>
       <use xlink:href="#DejaVuSans-36" x="95.410156"/>
      </g>
     </g>
    </g>
    <g id="xtick_5">
     <g id="line2d_9">
      <path d="M 391.95273 311.304146 
L 391.95273 7.128812 
" clip-path="url(#p0be05e2226)" style="fill: none; stroke: #ffffff; stroke-width: 0.8; stroke-linecap: round"/>
     </g>
     <g id="line2d_10"/>
     <g id="text_5">
      <!-- 0.8 -->
      <g style="fill: #262626" transform="translate(380.820543 325.441958) scale(0.14 -0.14)">
       <defs>
        <path id="DejaVuSans-38" d="M 2034 2216 
Q 1584 2216 1326 1975 
Q 1069 1734 1069 1313 
Q 1069 891 1326 650 
Q 1584 409 2034 409 
Q 2484 409 2743 651 
Q 3003 894 3003 1313 
Q 3003 1734 2745 1975 
Q 2488 2216 2034 2216 
z
M 1403 2484 
Q 997 2584 770 2862 
Q 544 3141 544 3541 
Q 544 4100 942 4425 
Q 1341 4750 2034 4750 
Q 2731 4750 3128 4425 
Q 3525 4100 3525 3541 
Q 3525 3141 3298 2862 
Q 3072 2584 2669 2484 
Q 3125 2378 3379 2068 
Q 3634 1759 3634 1313 
Q 3634 634 3220 271 
Q 2806 -91 2034 -91 
Q 1263 -91 848 271 
Q 434 634 434 1313 
Q 434 1759 690 2068 
Q 947 2378 1403 2484 
z
M 1172 3481 
Q 1172 3119 1398 2916 
Q 1625 2713 2034 2713 
Q 2441 2713 2670 2916 
Q 2900 3119 2900 3481 
Q 2900 3844 2670 4047 
Q 2441 4250 2034 4250 
Q 1625 4250 1398 4047 
Q 1172 3844 1172 3481 
z
" transform="scale(0.015625)"/>
       </defs>
       <use xlink:href="#DejaVuSans-30"/>
       <use xlink:href="#DejaVuSans-2e" x="63.623047"/>
       <use xlink:href="#DejaVuSans-38" x="95.410156"/>
      </g>
     </g>
    </g>
    <g id="xtick_6">
     <g id="line2d_11">
      <path d="M 462.89419 311.304146 
L 462.89419 7.128812 
" clip-path="url(#p0be05e2226)" style="fill: none; stroke: #ffffff; stroke-width: 0.8; stroke-linecap: round"/>
     </g>
     <g id="line2d_12"/>
     <g id="text_6">
      <!-- 1.0 -->
      <g style="fill: #262626" transform="translate(451.762002 325.441958) scale(0.14 -0.14)">
       <defs>
        <path id="DejaVuSans-31" d="M 794 531 
L 1825 531 
L 1825 4091 
L 703 3866 
L 703 4441 
L 1819 4666 
L 2450 4666 
L 2450 531 
L 3481 531 
L 3481 0 
L 794 0 
L 794 531 
z
" transform="scale(0.015625)"/>
       </defs>
       <use xlink:href="#DejaVuSans-31"/>
       <use xlink:href="#DejaVuSans-2e" x="63.623047"/>
       <use xlink:href="#DejaVuSans-30" x="95.410156"/>
      </g>
     </g>
    </g>
    <g id="text_7">
     <!-- t -->
     <g style="fill: #262626" transform="translate(282.600307 343.751177) scale(0.15 -0.15)">
      <defs>
       <path id="DejaVuSans-74" d="M 1172 4494 
L 1172 3500 
L 2356 3500 
L 2356 3053 
L 1172 3053 
L 1172 1153 
Q 1172 725 1289 603 
Q 1406 481 1766 481 
L 2356 481 
L 2356 0 
L 1766 0 
Q 1100 0 847 248 
Q 594 497 594 1153 
L 594 3053 
L 172 3053 
L 172 3500 
L 594 3500 
L 594 4494 
L 1172 4494 
z
" transform="scale(0.015625)"/>
      </defs>
      <use xlink:href="#DejaVuSans-74"/>
     </g>
    </g>
   </g>
   <g id="matplotlib.axis_2">
    <g id="ytick_1">
     <g id="line2d_13">
      <path d="M 51.433725 255.827671 
L 519.647357 255.827671 
" clip-path="url(#p0be05e2226)" style="fill: none; stroke: #ffffff; stroke-width: 0.8; stroke-linecap: round"/>
     </g>
     <g id="line2d_14"/>
     <g id="text_8">
      <!-- 1.0 -->
      <g style="fill: #262626" transform="translate(25.66935 261.146578) scale(0.14 -0.14)">
       <use xlink:href="#DejaVuSans-31"/>
       <use xlink:href="#DejaVuSans-2e" x="63.623047"/>
       <use xlink:href="#DejaVuSans-30" x="95.410156"/>
      </g>
     </g>
    </g>
    <g id="ytick_2">
     <g id="line2d_15">
      <path d="M 51.433725 199.433811 
L 519.647357 199.433811 
" clip-path="url(#p0be05e2226)" style="fill: none; stroke: #ffffff; stroke-width: 0.8; stroke-linecap: round"/>
     </g>
     <g id="line2d_16"/>
     <g id="text_9">
      <!-- 1.5 -->
      <g style="fill: #262626" transform="translate(25.66935 204.752717) scale(0.14 -0.14)">
       <defs>
        <path id="DejaVuSans-35" d="M 691 4666 
L 3169 4666 
L 3169 4134 
L 1269 4134 
L 1269 2991 
Q 1406 3038 1543 3061 
Q 1681 3084 1819 3084 
Q 2600 3084 3056 2656 
Q 3513 2228 3513 1497 
Q 3513 744 3044 326 
Q 2575 -91 1722 -91 
Q 1428 -91 1123 -41 
Q 819 9 494 109 
L 494 744 
Q 775 591 1075 516 
Q 1375 441 1709 441 
Q 2250 441 2565 725 
Q 2881 1009 2881 1497 
Q 2881 1984 2565 2268 
Q 2250 2553 1709 2553 
Q 1456 2553 1204 2497 
Q 953 2441 691 2322 
L 691 4666 
z
" transform="scale(0.015625)"/>
       </defs>
       <use xlink:href="#DejaVuSans-31"/>
       <use xlink:href="#DejaVuSans-2e" x="63.623047"/>
       <use xlink:href="#DejaVuSans-35" x="95.410156"/>
      </g>
     </g>
    </g>
    <g id="ytick_3">
     <g id="line2d_17">
      <path d="M 51.433725 143.03995 
L 519.647357 143.03995 
" clip-path="url(#p0be05e2226)" style="fill: none; stroke: #ffffff; stroke-width: 0.8; stroke-linecap: round"/>
     </g>
     <g id="line2d_18"/>
     <g id="text_10">
      <!-- 2.0 -->
      <g style="fill: #262626" transform="translate(25.66935 148.358856) scale(0.14 -0.14)">
       <use xlink:href="#DejaVuSans-32"/>
       <use xlink:href="#DejaVuSans-2e" x="63.623047"/>
       <use xlink:href="#DejaVuSans-30" x="95.410156"/>
      </g>
     </g>
    </g>
    <g id="ytick_4">
     <g id="line2d_19">
      <path d="M 51.433725 86.646089 
L 519.647357 86.646089 
" clip-path="url(#p0be05e2226)" style="fill: none; stroke: #ffffff; stroke-width: 0.8; stroke-linecap: round"/>
     </g>
     <g id="line2d_20"/>
     <g id="text_11">
      <!-- 2.5 -->
      <g style="fill: #262626" transform="translate(25.66935 91.964995) scale(0.14 -0.14)">
       <use xlink:href="#DejaVuSans-32"/>
       <use xlink:href="#DejaVuSans-2e" x="63.623047"/>
       <use xlink:href="#DejaVuSans-35" x="95.410156"/>
      </g>
     </g>
    </g>
    <g id="ytick_5">
     <g id="line2d_21">
      <path d="M 51.433725 30.252228 
L 519.647357 30.252228 
" clip-path="url(#p0be05e2226)" style="fill: none; stroke: #ffffff; stroke-width: 0.8; stroke-linecap: round"/>
     </g>
     <g id="line2d_22"/>
     <g id="text_12">
      <!-- 3.0 -->
      <g style="fill: #262626" transform="translate(25.66935 35.571134) scale(0.14 -0.14)">
       <defs>
        <path id="DejaVuSans-33" d="M 2597 2516 
Q 3050 2419 3304 2112 
Q 3559 1806 3559 1356 
Q 3559 666 3084 287 
Q 2609 -91 1734 -91 
Q 1441 -91 1130 -33 
Q 819 25 488 141 
L 488 750 
Q 750 597 1062 519 
Q 1375 441 1716 441 
Q 2309 441 2620 675 
Q 2931 909 2931 1356 
Q 2931 1769 2642 2001 
Q 2353 2234 1838 2234 
L 1294 2234 
L 1294 2753 
L 1863 2753 
Q 2328 2753 2575 2939 
Q 2822 3125 2822 3475 
Q 2822 3834 2567 4026 
Q 2313 4219 1838 4219 
Q 1578 4219 1281 4162 
Q 984 4106 628 3988 
L 628 4550 
Q 988 4650 1302 4700 
Q 1616 4750 1894 4750 
Q 2613 4750 3031 4423 
Q 3450 4097 3450 3541 
Q 3450 3153 3228 2886 
Q 3006 2619 2597 2516 
z
" transform="scale(0.015625)"/>
       </defs>
       <use xlink:href="#DejaVuSans-33"/>
       <use xlink:href="#DejaVuSans-2e" x="63.623047"/>
       <use xlink:href="#DejaVuSans-30" x="95.410156"/>
      </g>
     </g>
    </g>
    <g id="text_13">
     <!-- y -->
     <g style="fill: #262626" transform="translate(18.549819 163.655541) rotate(-90) scale(0.15 -0.15)">
      <defs>
       <path id="DejaVuSans-79" d="M 2059 -325 
Q 1816 -950 1584 -1140 
Q 1353 -1331 966 -1331 
L 506 -1331 
L 506 -850 
L 844 -850 
Q 1081 -850 1212 -737 
Q 1344 -625 1503 -206 
L 1606 56 
L 191 3500 
L 800 3500 
L 1894 763 
L 2988 3500 
L 3597 3500 
L 2059 -325 
z
" transform="scale(0.015625)"/>
      </defs>
      <use xlink:href="#DejaVuSans-79"/>
     </g>
    </g>
   </g>
   <g id="PolyCollection_1">
    <path d="M 108.278795 297.477994 
L 108.094991 297.477994 
L 108.102041 296.446766 
L 108.122313 295.415538 
L 108.145344 294.384309 
L 108.160895 293.353081 
L 108.162383 292.321853 
L 108.145381 291.290624 
L 108.105244 290.259396 
L 108.037524 289.228168 
L 107.94116 288.19694 
L 107.822189 287.165711 
L 107.69483 286.134483 
L 107.576057 285.103255 
L 107.472696 284.072027 
L 107.368859 283.040798 
L 107.226491 282.00957 
L 107.001675 280.978342 
L 106.664021 279.947114 
L 106.207241 278.915885 
L 105.650876 277.884657 
L 105.032445 276.853429 
L 104.383121 275.8222 
L 103.696765 274.790972 
L 102.925506 273.759744 
L 102.017578 272.728516 
L 100.963765 271.697287 
L 99.804874 270.666059 
L 98.597501 269.634831 
L 97.37688 268.603603 
L 96.140101 267.572374 
L 94.840057 266.541146 
L 93.390518 265.509918 
L 91.705675 264.478689 
L 89.769555 263.447461 
L 87.677523 262.416233 
L 85.59666 261.385005 
L 83.667522 260.353776 
L 81.934494 259.322548 
L 80.365844 258.29132 
L 78.931175 257.260092 
L 77.650241 256.228863 
L 76.5704 255.197635 
L 75.706779 254.166407 
L 75.006168 253.135178 
L 74.370503 252.10395 
L 73.733318 251.072722 
L 73.136935 250.041494 
L 72.737476 249.010265 
L 72.716163 247.979037 
L 73.171539 246.947809 
L 74.088758 245.916581 
L 75.385709 244.885352 
L 76.953688 243.854124 
L 78.659244 242.822896 
L 80.362479 241.791667 
L 81.986307 240.760439 
L 83.576119 239.729211 
L 85.270207 238.697983 
L 87.186142 237.666754 
L 89.311036 236.635526 
L 91.48564 235.604298 
L 93.498176 234.57307 
L 95.211439 233.541841 
L 96.621536 232.510613 
L 97.817813 231.479385 
L 98.899738 230.448156 
L 99.920841 229.416928 
L 100.885047 228.3857 
L 101.777374 227.354472 
L 102.594999 226.323243 
L 103.353675 225.292015 
L 104.07037 224.260787 
L 104.744727 223.229559 
L 105.357927 222.19833 
L 105.886034 221.167102 
L 106.31344 220.135874 
L 106.638911 219.104646 
L 106.87602 218.073417 
L 107.049661 217.042189 
L 107.18794 216.010961 
L 107.312397 214.979732 
L 107.432565 213.948504 
L 107.546954 212.917276 
L 107.648753 211.886048 
L 107.733658 210.854819 
L 107.80452 209.823591 
L 107.867924 208.792363 
L 107.926867 207.761135 
L 107.979185 206.729906 
L 108.022945 205.698678 
L 108.060216 204.66745 
L 108.094328 203.636221 
L 108.125446 202.604993 
L 108.150362 201.573765 
L 108.165694 200.542537 
L 108.170293 199.511308 
L 108.165557 198.48008 
L 108.155228 197.448852 
L 108.145048 196.417624 
L 108.140839 195.386395 
L 108.232946 195.386395 
L 108.232946 195.386395 
L 108.228738 196.417624 
L 108.218557 197.448852 
L 108.208228 198.48008 
L 108.203493 199.511308 
L 108.208092 200.542537 
L 108.223424 201.573765 
L 108.248339 202.604993 
L 108.279457 203.636221 
L 108.313569 204.66745 
L 108.350841 205.698678 
L 108.394601 206.729906 
L 108.446919 207.761135 
L 108.505862 208.792363 
L 108.569266 209.823591 
L 108.640128 210.854819 
L 108.725033 211.886048 
L 108.826832 212.917276 
L 108.94122 213.948504 
L 109.061389 214.979732 
L 109.185846 216.010961 
L 109.324124 217.042189 
L 109.497766 218.073417 
L 109.734874 219.104646 
L 110.060345 220.135874 
L 110.487752 221.167102 
L 111.015859 222.19833 
L 111.629058 223.229559 
L 112.303415 224.260787 
L 113.020111 225.292015 
L 113.778787 226.323243 
L 114.596411 227.354472 
L 115.488739 228.3857 
L 116.452944 229.416928 
L 117.474047 230.448156 
L 118.555973 231.479385 
L 119.752249 232.510613 
L 121.162347 233.541841 
L 122.87561 234.57307 
L 124.888146 235.604298 
L 127.06275 236.635526 
L 129.187644 237.666754 
L 131.103579 238.697983 
L 132.797667 239.729211 
L 134.387479 240.760439 
L 136.011307 241.791667 
L 137.714541 242.822896 
L 139.420098 243.854124 
L 140.988077 244.885352 
L 142.285027 245.916581 
L 143.202247 246.947809 
L 143.657623 247.979037 
L 143.63631 249.010265 
L 143.23685 250.041494 
L 142.640468 251.072722 
L 142.003282 252.10395 
L 141.367617 253.135178 
L 140.667007 254.166407 
L 139.803386 255.197635 
L 138.723545 256.228863 
L 137.442611 257.260092 
L 136.007942 258.29132 
L 134.439292 259.322548 
L 132.706263 260.353776 
L 130.777126 261.385005 
L 128.696262 262.416233 
L 126.60423 263.447461 
L 124.668111 264.478689 
L 122.983268 265.509918 
L 121.533728 266.541146 
L 120.233685 267.572374 
L 118.996906 268.603603 
L 117.776285 269.634831 
L 116.568912 270.666059 
L 115.410021 271.697287 
L 114.356208 272.728516 
L 113.448279 273.759744 
L 112.67702 274.790972 
L 111.990665 275.8222 
L 111.34134 276.853429 
L 110.722909 277.884657 
L 110.166545 278.915885 
L 109.709765 279.947114 
L 109.372111 280.978342 
L 109.147295 282.00957 
L 109.004927 283.040798 
L 108.90109 284.072027 
L 108.797729 285.103255 
L 108.678956 286.134483 
L 108.551596 287.165711 
L 108.432625 288.19694 
L 108.336261 289.228168 
L 108.268542 290.259396 
L 108.228405 291.290624 
L 108.211403 292.321853 
L 108.212891 293.353081 
L 108.228442 294.384309 
L 108.251473 295.415538 
L 108.271745 296.446766 
L 108.278795 297.477994 
z
" clip-path="url(#p0be05e2226)" style="fill: #2a2eec; fill-opacity: 0.5"/>
   </g>
   <g id="PolyCollection_2">
    <path d="M 462.945506 181.989445 
L 462.842873 181.989445 
L 462.837987 181.069857 
L 462.830906 180.150269 
L 462.815571 179.230682 
L 462.78799 178.311094 
L 462.747861 177.391506 
L 462.696633 176.471919 
L 462.634285 175.552331 
L 462.558647 174.632743 
L 462.46801 173.713156 
L 462.363023 172.793568 
L 462.244147 171.87398 
L 462.107275 170.954393 
L 461.94493 170.034805 
L 461.755302 169.115217 
L 461.549915 168.19563 
L 461.34796 167.276042 
L 461.15818 166.356454 
L 460.964928 165.436867 
L 460.734125 164.517279 
L 460.436157 163.597691 
L 460.065295 162.678104 
L 459.636842 161.758516 
L 459.163338 160.838928 
L 458.631627 159.919341 
L 458.003403 158.999753 
L 457.240036 158.080165 
L 456.329617 157.160578 
L 455.294915 156.24099 
L 454.182139 155.321402 
L 453.044355 154.401815 
L 451.927202 153.482227 
L 450.855234 152.562639 
L 449.820292 151.643052 
L 448.77948 150.723464 
L 447.666128 149.803876 
L 446.408634 148.884289 
L 444.952112 147.964701 
L 443.282173 147.045113 
L 441.445514 146.125526 
L 439.551051 145.205938 
L 437.738312 144.28635 
L 436.124434 143.366763 
L 434.764768 142.447175 
L 433.653231 141.527587 
L 432.75025 140.608 
L 432.002715 139.688412 
L 431.342657 138.768824 
L 430.688884 137.849237 
L 429.975705 136.929649 
L 429.195773 136.010061 
L 428.420723 135.090474 
L 427.781461 134.170886 
L 427.42346 133.251298 
L 427.463988 132.331711 
L 427.964218 131.412123 
L 428.914881 130.492535 
L 430.236521 129.572948 
L 431.800977 128.65336 
L 433.470522 127.733772 
L 435.135376 126.814185 
L 436.732846 125.894597 
L 438.247135 124.975009 
L 439.696555 124.055422 
L 441.115077 123.135834 
L 442.538064 122.216246 
L 443.998311 121.296659 
L 445.523491 120.377071 
L 447.122551 119.457483 
L 448.767895 118.537896 
L 450.394919 117.618308 
L 451.927059 116.69872 
L 453.309786 115.779133 
L 454.529373 114.859545 
L 455.605828 113.939957 
L 456.568868 113.02037 
L 457.436024 112.100782 
L 458.206716 111.181194 
L 458.87154 110.261607 
L 459.426315 109.342019 
L 459.881476 108.422431 
L 460.263049 107.502844 
L 460.605098 106.583256 
L 460.93654 105.663668 
L 461.269149 104.744081 
L 461.594737 103.824493 
L 461.893695 102.904905 
L 462.148449 101.985318 
L 462.35235 101.06573 
L 462.50959 100.146142 
L 462.628854 99.226555 
L 462.716758 98.306967 
L 462.775618 97.387379 
L 462.80601 96.467792 
L 462.81107 95.548204 
L 462.798916 94.628616 
L 462.78145 93.709029 
L 462.770333 92.789441 
L 462.772621 91.869853 
L 462.788673 90.950266 
L 462.999707 90.950266 
L 462.999707 90.950266 
L 463.015758 91.869853 
L 463.018046 92.789441 
L 463.006929 93.709029 
L 462.989463 94.628616 
L 462.97731 95.548204 
L 462.98237 96.467792 
L 463.012761 97.387379 
L 463.071621 98.306967 
L 463.159526 99.226555 
L 463.27879 100.146142 
L 463.436029 101.06573 
L 463.63993 101.985318 
L 463.894684 102.904905 
L 464.193642 103.824493 
L 464.51923 104.744081 
L 464.85184 105.663668 
L 465.183281 106.583256 
L 465.525331 107.502844 
L 465.906904 108.422431 
L 466.362065 109.342019 
L 466.916839 110.261607 
L 467.581664 111.181194 
L 468.352355 112.100782 
L 469.219512 113.02037 
L 470.182551 113.939957 
L 471.259007 114.859545 
L 472.478593 115.779133 
L 473.861321 116.69872 
L 475.393461 117.618308 
L 477.020484 118.537896 
L 478.665829 119.457483 
L 480.264889 120.377071 
L 481.790068 121.296659 
L 483.250315 122.216246 
L 484.673302 123.135834 
L 486.091824 124.055422 
L 487.541244 124.975009 
L 489.055533 125.894597 
L 490.653003 126.814185 
L 492.317858 127.733772 
L 493.987402 128.65336 
L 495.551858 129.572948 
L 496.873498 130.492535 
L 497.824161 131.412123 
L 498.324391 132.331711 
L 498.364919 133.251298 
L 498.006918 134.170886 
L 497.367656 135.090474 
L 496.592606 136.010061 
L 495.812674 136.929649 
L 495.099495 137.849237 
L 494.445723 138.768824 
L 493.785665 139.688412 
L 493.038129 140.608 
L 492.135148 141.527587 
L 491.023612 142.447175 
L 489.663946 143.366763 
L 488.050067 144.28635 
L 486.237328 145.205938 
L 484.342865 146.125526 
L 482.506206 147.045113 
L 480.836268 147.964701 
L 479.379745 148.884289 
L 478.122251 149.803876 
L 477.008899 150.723464 
L 475.968087 151.643052 
L 474.933145 152.562639 
L 473.861178 153.482227 
L 472.744025 154.401815 
L 471.606241 155.321402 
L 470.493464 156.24099 
L 469.458762 157.160578 
L 468.548344 158.080165 
L 467.784977 158.999753 
L 467.156752 159.919341 
L 466.625041 160.838928 
L 466.151538 161.758516 
L 465.723084 162.678104 
L 465.352222 163.597691 
L 465.054255 164.517279 
L 464.823451 165.436867 
L 464.630199 166.356454 
L 464.440419 167.276042 
L 464.238465 168.19563 
L 464.033078 169.115217 
L 463.843449 170.034805 
L 463.681105 170.954393 
L 463.544232 171.87398 
L 463.425357 172.793568 
L 463.32037 173.713156 
L 463.229732 174.632743 
L 463.154094 175.552331 
L 463.091746 176.471919 
L 463.040519 177.391506 
L 463.000389 178.311094 
L 462.972809 179.230682 
L 462.957473 180.150269 
L 462.950392 181.069857 
L 462.945506 181.989445 
z
" clip-path="url(#p0be05e2226)" style="fill: #2a2eec; fill-opacity: 0.5"/>
   </g>
   <g id="PolyCollection_3">
    <path d="M 108.265242 280.099092 
L 108.108544 280.099092 
L 108.090651 279.092483 
L 108.07633 278.085873 
L 108.066765 277.079263 
L 108.063212 276.072653 
L 108.065744 275.066043 
L 108.071034 274.059434 
L 108.071443 273.052824 
L 108.057522 272.046214 
L 108.023527 271.039604 
L 107.97181 270.032994 
L 107.911364 269.026384 
L 107.851343 268.019775 
L 107.796395 267.013165 
L 107.748504 266.006555 
L 107.710874 264.999945 
L 107.685942 263.993335 
L 107.668526 262.986726 
L 107.643788 261.980116 
L 107.593641 260.973506 
L 107.50227 259.966896 
L 107.351496 258.960286 
L 107.111151 257.953677 
L 106.739859 256.947067 
L 106.203816 255.940457 
L 105.501235 254.933847 
L 104.669764 253.927237 
L 103.769193 252.920628 
L 102.855747 251.914018 
L 101.965275 250.907408 
L 101.103852 249.900798 
L 100.239733 248.894188 
L 99.306766 247.887579 
L 98.234885 246.880969 
L 96.998648 245.874359 
L 95.643359 244.867749 
L 94.256145 243.861139 
L 92.903721 242.85453 
L 91.595854 241.84792 
L 90.298561 240.84131 
L 88.962314 239.8347 
L 87.534732 238.82809 
L 85.976396 237.821481 
L 84.297954 236.814871 
L 82.582401 235.808261 
L 80.946956 234.801651 
L 79.466295 233.795041 
L 78.131759 232.788432 
L 76.887463 231.781822 
L 75.705394 230.775212 
L 74.626047 229.768602 
L 73.73444 228.761992 
L 73.107596 227.755382 
L 72.777215 226.748773 
L 72.716163 225.742163 
L 72.857016 224.735553 
L 73.158819 223.728943 
L 73.680483 222.722333 
L 74.569141 221.715724 
L 75.942555 220.709114 
L 77.764054 219.702504 
L 79.826135 218.695894 
L 81.8652 217.689284 
L 83.723321 216.682675 
L 85.434239 215.676065 
L 87.16762 214.669455 
L 89.076524 213.662845 
L 91.166223 212.656235 
L 93.28042 211.649626 
L 95.206296 210.643016 
L 96.807106 209.636406 
L 98.078791 208.629796 
L 99.109416 207.623186 
L 100.006805 206.616577 
L 100.855808 205.609967 
L 101.705188 204.603357 
L 102.563219 203.596747 
L 103.404016 202.590137 
L 104.188491 201.583528 
L 104.884607 200.576918 
L 105.474533 199.570308 
L 105.954169 198.563698 
L 106.33244 197.557088 
L 106.629249 196.550479 
L 106.869565 195.543869 
L 107.075031 194.537259 
L 107.257486 193.530649 
L 107.41872 192.524039 
L 107.556531 191.517429 
L 107.671617 190.51082 
L 107.769331 189.50421 
L 107.855562 188.4976 
L 107.931333 187.49099 
L 107.991761 186.48438 
L 108.031084 185.477771 
L 108.0495 184.471161 
L 108.05524 183.464551 
L 108.059895 182.457941 
L 108.071654 181.451331 
L 108.092063 180.444722 
L 108.281722 180.444722 
L 108.281722 180.444722 
L 108.302132 181.451331 
L 108.31389 182.457941 
L 108.318546 183.464551 
L 108.324286 184.471161 
L 108.342702 185.477771 
L 108.382025 186.48438 
L 108.442453 187.49099 
L 108.518224 188.4976 
L 108.604455 189.50421 
L 108.702169 190.51082 
L 108.817255 191.517429 
L 108.955066 192.524039 
L 109.1163 193.530649 
L 109.298755 194.537259 
L 109.504221 195.543869 
L 109.744536 196.550479 
L 110.041346 197.557088 
L 110.419616 198.563698 
L 110.899253 199.570308 
L 111.489179 200.576918 
L 112.185294 201.583528 
L 112.96977 202.590137 
L 113.810567 203.596747 
L 114.668598 204.603357 
L 115.517977 205.609967 
L 116.36698 206.616577 
L 117.26437 207.623186 
L 118.294995 208.629796 
L 119.56668 209.636406 
L 121.16749 210.643016 
L 123.093366 211.649626 
L 125.207563 212.656235 
L 127.297262 213.662845 
L 129.206166 214.669455 
L 130.939547 215.676065 
L 132.650464 216.682675 
L 134.508586 217.689284 
L 136.547651 218.695894 
L 138.609731 219.702504 
L 140.431231 220.709114 
L 141.804645 221.715724 
L 142.693303 222.722333 
L 143.214967 223.728943 
L 143.51677 224.735553 
L 143.657623 225.742163 
L 143.596571 226.748773 
L 143.26619 227.755382 
L 142.639345 228.761992 
L 141.747739 229.768602 
L 140.668392 230.775212 
L 139.486323 231.781822 
L 138.242027 232.788432 
L 136.907491 233.795041 
L 135.42683 234.801651 
L 133.791385 235.808261 
L 132.075832 236.814871 
L 130.39739 237.821481 
L 128.839054 238.82809 
L 127.411472 239.8347 
L 126.075224 240.84131 
L 124.777932 241.84792 
L 123.470065 242.85453 
L 122.117641 243.861139 
L 120.730427 244.867749 
L 119.375138 245.874359 
L 118.138901 246.880969 
L 117.06702 247.887579 
L 116.134053 248.894188 
L 115.269934 249.900798 
L 114.408511 250.907408 
L 113.518039 251.914018 
L 112.604593 252.920628 
L 111.704022 253.927237 
L 110.87255 254.933847 
L 110.16997 255.940457 
L 109.633927 256.947067 
L 109.262634 257.953677 
L 109.02229 258.960286 
L 108.871516 259.966896 
L 108.780144 260.973506 
L 108.729998 261.980116 
L 108.70526 262.986726 
L 108.687844 263.993335 
L 108.662912 264.999945 
L 108.625282 266.006555 
L 108.577391 267.013165 
L 108.522443 268.019775 
L 108.462422 269.026384 
L 108.401975 270.032994 
L 108.350258 271.039604 
L 108.316264 272.046214 
L 108.302342 273.052824 
L 108.302752 274.059434 
L 108.308042 275.066043 
L 108.310574 276.072653 
L 108.307021 277.079263 
L 108.297455 278.085873 
L 108.283134 279.092483 
L 108.265242 280.099092 
z
" clip-path="url(#p0be05e2226)" style="fill: #fa7c17; fill-opacity: 0.3"/>
   </g>
   <g id="PolyCollection_4">
    <path d="M 463.016479 112.330749 
L 462.7719 112.330749 
L 462.759005 111.407762 
L 462.757905 110.484774 
L 462.762024 109.561786 
L 462.760851 108.638798 
L 462.745193 107.715811 
L 462.710323 106.792823 
L 462.65537 105.869835 
L 462.58131 104.946847 
L 462.490723 104.02386 
L 462.388999 103.100872 
L 462.283389 102.177884 
L 462.178176 101.254896 
L 462.069231 100.331909 
L 461.94202 99.408921 
L 461.772738 98.485933 
L 461.530487 97.562946 
L 461.182416 96.639958 
L 460.70513 95.71697 
L 460.098929 94.793982 
L 459.394704 93.870995 
L 458.646812 92.948007 
L 457.915591 92.025019 
L 457.248794 91.102031 
L 456.667871 90.179044 
L 456.159532 89.256056 
L 455.673418 88.333068 
L 455.130714 87.41008 
L 454.44699 86.487093 
L 453.562768 85.564105 
L 452.466141 84.641117 
L 451.192321 83.718129 
L 449.79735 82.795142 
L 448.322564 81.872154 
L 446.778399 80.949166 
L 445.162859 80.026179 
L 443.495645 79.103191 
L 441.830175 78.180203 
L 440.228769 77.257215 
L 438.726146 76.334228 
L 437.315964 75.41124 
L 435.967643 74.488252 
L 434.65338 73.565264 
L 433.365215 72.642277 
L 432.117906 71.719289 
L 430.943357 70.796301 
L 429.882587 69.873313 
L 428.977956 68.950326 
L 428.26463 68.027338 
L 427.762049 67.10435 
L 427.476243 66.181362 
L 427.42346 65.258375 
L 427.658659 64.335387 
L 428.268072 63.412399 
L 429.309644 62.489412 
L 430.744791 61.566424 
L 432.427328 60.643436 
L 434.166382 59.720448 
L 435.814979 58.797461 
L 437.324183 57.874473 
L 438.740505 56.951485 
L 440.159977 56.028497 
L 441.664348 55.10551 
L 443.268479 54.182522 
L 444.907448 53.259534 
L 446.473773 52.336546 
L 447.881771 51.413559 
L 449.114908 50.490571 
L 450.224995 49.567583 
L 451.289595 48.644595 
L 452.362795 47.721608 
L 453.45202 46.79862 
L 454.528084 45.875632 
L 455.552847 44.952645 
L 456.503279 44.029657 
L 457.378011 43.106669 
L 458.184612 42.183681 
L 458.919341 41.260694 
L 459.558347 40.337706 
L 460.07074 39.414718 
L 460.444187 38.49173 
L 460.701363 37.568743 
L 460.892891 36.645755 
L 461.072042 35.722767 
L 461.270496 34.799779 
L 461.491298 33.876792 
L 461.719313 32.953804 
L 461.936547 32.030816 
L 462.130646 31.107828 
L 462.295332 30.184841 
L 462.428584 29.261853 
L 462.532314 28.338865 
L 462.612246 27.415878 
L 462.675693 26.49289 
L 462.727935 25.569902 
L 462.77024 24.646914 
L 462.801361 23.723927 
L 462.821058 22.800939 
L 462.832316 21.877951 
L 462.840303 20.954963 
L 462.948076 20.954963 
L 462.948076 20.954963 
L 462.956063 21.877951 
L 462.967322 22.800939 
L 462.987019 23.723927 
L 463.01814 24.646914 
L 463.060444 25.569902 
L 463.112686 26.49289 
L 463.176133 27.415878 
L 463.256065 28.338865 
L 463.359795 29.261853 
L 463.493047 30.184841 
L 463.657733 31.107828 
L 463.851832 32.030816 
L 464.069067 32.953804 
L 464.297081 33.876792 
L 464.517883 34.799779 
L 464.716338 35.722767 
L 464.895488 36.645755 
L 465.087016 37.568743 
L 465.344192 38.49173 
L 465.717639 39.414718 
L 466.230032 40.337706 
L 466.869039 41.260694 
L 467.603768 42.183681 
L 468.410369 43.106669 
L 469.2851 44.029657 
L 470.235532 44.952645 
L 471.260295 45.875632 
L 472.33636 46.79862 
L 473.425584 47.721608 
L 474.498785 48.644595 
L 475.563385 49.567583 
L 476.673471 50.490571 
L 477.906608 51.413559 
L 479.314606 52.336546 
L 480.880931 53.259534 
L 482.519901 54.182522 
L 484.124031 55.10551 
L 485.628403 56.028497 
L 487.047874 56.951485 
L 488.464196 57.874473 
L 489.9734 58.797461 
L 491.621997 59.720448 
L 493.361051 60.643436 
L 495.043588 61.566424 
L 496.478735 62.489412 
L 497.520307 63.412399 
L 498.129721 64.335387 
L 498.364919 65.258375 
L 498.312136 66.181362 
L 498.02633 67.10435 
L 497.523749 68.027338 
L 496.810423 68.950326 
L 495.905792 69.873313 
L 494.845022 70.796301 
L 493.670474 71.719289 
L 492.423164 72.642277 
L 491.134999 73.565264 
L 489.820737 74.488252 
L 488.472415 75.41124 
L 487.062233 76.334228 
L 485.55961 77.257215 
L 483.958204 78.180203 
L 482.292735 79.103191 
L 480.625521 80.026179 
L 479.009981 80.949166 
L 477.465816 81.872154 
L 475.991029 82.795142 
L 474.596059 83.718129 
L 473.322239 84.641117 
L 472.225612 85.564105 
L 471.341389 86.487093 
L 470.657665 87.41008 
L 470.114962 88.333068 
L 469.628847 89.256056 
L 469.120509 90.179044 
L 468.539585 91.102031 
L 467.872788 92.025019 
L 467.141567 92.948007 
L 466.393676 93.870995 
L 465.68945 94.793982 
L 465.083249 95.71697 
L 464.605964 96.639958 
L 464.257892 97.562946 
L 464.015642 98.485933 
L 463.846359 99.408921 
L 463.719148 100.331909 
L 463.610203 101.254896 
L 463.50499 102.177884 
L 463.399381 103.100872 
L 463.297657 104.02386 
L 463.207069 104.946847 
L 463.133009 105.869835 
L 463.078056 106.792823 
L 463.043186 107.715811 
L 463.027528 108.638798 
L 463.026356 109.561786 
L 463.030475 110.484774 
L 463.029374 111.407762 
L 463.016479 112.330749 
z
" clip-path="url(#p0be05e2226)" style="fill: #fa7c17; fill-opacity: 0.3"/>
   </g>
   <g id="PolyCollection_5">
    <path d="M 462.941646 168.308841 
L 462.846733 168.308841 
L 462.850558 167.265831 
L 462.860121 166.22282 
L 462.870736 165.17981 
L 462.877343 164.136799 
L 462.87573 163.093789 
L 462.862271 162.050778 
L 462.833818 161.007768 
L 462.789011 159.964758 
L 462.730089 158.921747 
L 462.662802 157.878737 
L 462.59349 156.835726 
L 462.525304 155.792716 
L 462.456194 154.749705 
L 462.378918 153.706695 
L 462.281957 152.663684 
L 462.151888 151.620674 
L 461.978141 150.577663 
L 461.75776 149.534653 
L 461.495986 148.491643 
L 461.201991 147.448632 
L 460.883345 146.405622 
L 460.542326 145.362611 
L 460.173755 144.319601 
L 459.763395 143.27659 
L 459.290157 142.23358 
L 458.738053 141.190569 
L 458.114669 140.147559 
L 457.456635 139.104548 
L 456.803811 138.061538 
L 456.154608 137.018528 
L 455.444423 135.975517 
L 454.575947 134.932507 
L 453.481358 133.889496 
L 452.166342 132.846486 
L 450.70605 131.803475 
L 449.204006 130.760465 
L 447.742835 129.717454 
L 446.347151 128.674444 
L 444.968104 127.631433 
L 443.4976 126.588423 
L 441.817884 125.545413 
L 439.8737 124.502402 
L 437.72454 123.459392 
L 435.531888 122.416381 
L 433.487026 121.373371 
L 431.740668 120.33036 
L 430.381053 119.28735 
L 429.440016 118.244339 
L 428.885134 117.201329 
L 428.607687 116.158318 
L 428.452325 115.115308 
L 428.290926 114.072298 
L 428.078978 113.029287 
L 427.842838 111.986277 
L 427.625405 110.943266 
L 427.463946 109.900256 
L 427.42346 108.857245 
L 427.628083 107.814235 
L 428.229027 106.771224 
L 429.321631 105.728214 
L 430.881437 104.685204 
L 432.773771 103.642193 
L 434.830197 102.599183 
L 436.930417 101.556172 
L 439.024832 100.513162 
L 441.093687 99.470151 
L 443.10292 98.427141 
L 445.005305 97.38413 
L 446.769181 96.34112 
L 448.39203 95.298109 
L 449.892962 94.255099 
L 451.303273 93.212089 
L 452.655417 92.169078 
L 453.95985 91.126068 
L 455.184929 90.083057 
L 456.271199 89.040047 
L 457.1789 87.997036 
L 457.92352 86.954026 
L 458.561346 85.911015 
L 459.142224 84.868005 
L 459.680635 83.824994 
L 460.167901 82.781984 
L 460.599319 81.738974 
L 460.981682 80.695963 
L 461.319959 79.652953 
L 461.607641 78.609942 
L 461.834551 77.566932 
L 462.000926 76.523921 
L 462.121481 75.480911 
L 462.217942 74.4379 
L 462.309157 73.39489 
L 462.404944 72.351879 
L 462.504402 71.308869 
L 462.598314 70.265859 
L 462.674979 69.222848 
L 462.727015 68.179838 
L 462.755772 67.136827 
L 462.770802 66.093817 
L 462.784228 65.050806 
L 463.004151 65.050806 
L 463.004151 65.050806 
L 463.017577 66.093817 
L 463.032607 67.136827 
L 463.061365 68.179838 
L 463.1134 69.222848 
L 463.190065 70.265859 
L 463.283977 71.308869 
L 463.383435 72.351879 
L 463.479222 73.39489 
L 463.570437 74.4379 
L 463.666898 75.480911 
L 463.787453 76.523921 
L 463.953828 77.566932 
L 464.180738 78.609942 
L 464.46842 79.652953 
L 464.806697 80.695963 
L 465.18906 81.738974 
L 465.620478 82.781984 
L 466.107745 83.824994 
L 466.646155 84.868005 
L 467.227033 85.911015 
L 467.864859 86.954026 
L 468.60948 87.997036 
L 469.517181 89.040047 
L 470.60345 90.083057 
L 471.82853 91.126068 
L 473.132962 92.169078 
L 474.485106 93.212089 
L 475.895417 94.255099 
L 477.396349 95.298109 
L 479.019198 96.34112 
L 480.783074 97.38413 
L 482.685459 98.427141 
L 484.694693 99.470151 
L 486.763547 100.513162 
L 488.857963 101.556172 
L 490.958183 102.599183 
L 493.014608 103.642193 
L 494.906942 104.685204 
L 496.466748 105.728214 
L 497.559352 106.771224 
L 498.160296 107.814235 
L 498.364919 108.857245 
L 498.324434 109.900256 
L 498.162975 110.943266 
L 497.945541 111.986277 
L 497.709401 113.029287 
L 497.497454 114.072298 
L 497.336054 115.115308 
L 497.180692 116.158318 
L 496.903246 117.201329 
L 496.348364 118.244339 
L 495.407327 119.28735 
L 494.047712 120.33036 
L 492.301353 121.373371 
L 490.256492 122.416381 
L 488.063839 123.459392 
L 485.914679 124.502402 
L 483.970495 125.545413 
L 482.290779 126.588423 
L 480.820275 127.631433 
L 479.441228 128.674444 
L 478.045544 129.717454 
L 476.584374 130.760465 
L 475.082329 131.803475 
L 473.622038 132.846486 
L 472.307021 133.889496 
L 471.212432 134.932507 
L 470.343956 135.975517 
L 469.633771 137.018528 
L 468.984568 138.061538 
L 468.331744 139.104548 
L 467.673711 140.147559 
L 467.050326 141.190569 
L 466.498222 142.23358 
L 466.024984 143.27659 
L 465.614624 144.319601 
L 465.246053 145.362611 
L 464.905034 146.405622 
L 464.586389 147.448632 
L 464.292393 148.491643 
L 464.030619 149.534653 
L 463.810239 150.577663 
L 463.636491 151.620674 
L 463.506422 152.663684 
L 463.409461 153.706695 
L 463.332185 154.749705 
L 463.263075 155.792716 
L 463.194889 156.835726 
L 463.125578 157.878737 
L 463.058291 158.921747 
L 462.999368 159.964758 
L 462.954562 161.007768 
L 462.926108 162.050778 
L 462.912649 163.093789 
L 462.911036 164.136799 
L 462.917644 165.17981 
L 462.928259 166.22282 
L 462.937821 167.265831 
L 462.941646 168.308841 
z
" clip-path="url(#p0be05e2226)" style="fill: #328c06; fill-opacity: 0.3"/>
   </g>
   <g id="line2d_23">
    <path d="M 108.186893 251.627971 
L 462.89419 122.700646 
" clip-path="url(#p0be05e2226)" style="fill: none; stroke: #2a2eec; stroke-opacity: 0.25; stroke-width: 1.5; stroke-linecap: round"/>
   </g>
   <g id="line2d_24">
    <path d="M 108.186893 229.008848 
L 462.89419 135.755703 
" clip-path="url(#p0be05e2226)" style="fill: none; stroke: #2a2eec; stroke-opacity: 0.25; stroke-width: 1.5; stroke-linecap: round"/>
   </g>
   <g id="line2d_25">
    <path d="M 108.186893 248.501885 
L 462.89419 147.415857 
" clip-path="url(#p0be05e2226)" style="fill: none; stroke: #2a2eec; stroke-opacity: 0.25; stroke-width: 1.5; stroke-linecap: round"/>
   </g>
   <g id="line2d_26">
    <path d="M 108.186893 267.697895 
L 462.89419 117.355463 
" clip-path="url(#p0be05e2226)" style="fill: none; stroke: #2a2eec; stroke-opacity: 0.25; stroke-width: 1.5; stroke-linecap: round"/>
   </g>
   <g id="line2d_27">
    <path d="M 108.186893 235.017855 
L 462.89419 127.572716 
" clip-path="url(#p0be05e2226)" style="fill: none; stroke: #2a2eec; stroke-opacity: 0.25; stroke-width: 1.5; stroke-linecap: round"/>
   </g>
   <g id="line2d_28">
    <path d="M 108.186893 261.687386 
L 462.89419 144.037149 
" clip-path="url(#p0be05e2226)" style="fill: none; stroke: #2a2eec; stroke-opacity: 0.25; stroke-width: 1.5; stroke-linecap: round"/>
   </g>
   <g id="line2d_29">
    <path d="M 108.186893 246.345608 
L 462.89419 143.613344 
" clip-path="url(#p0be05e2226)" style="fill: none; stroke: #2a2eec; stroke-opacity: 0.25; stroke-width: 1.5; stroke-linecap: round"/>
   </g>
   <g id="line2d_30">
    <path d="M 108.186893 255.974161 
L 462.89419 155.284564 
" clip-path="url(#p0be05e2226)" style="fill: none; stroke: #2a2eec; stroke-opacity: 0.25; stroke-width: 1.5; stroke-linecap: round"/>
   </g>
   <g id="line2d_31">
    <path d="M 108.186893 256.532354 
L 462.89419 112.28362 
" clip-path="url(#p0be05e2226)" style="fill: none; stroke: #2a2eec; stroke-opacity: 0.25; stroke-width: 1.5; stroke-linecap: round"/>
   </g>
   <g id="line2d_32">
    <path d="M 108.186893 244.764511 
L 462.89419 146.59259 
" clip-path="url(#p0be05e2226)" style="fill: none; stroke: #2a2eec; stroke-opacity: 0.25; stroke-width: 1.5; stroke-linecap: round"/>
   </g>
   <g id="line2d_33">
    <path d="M 108.186893 235.354313 
L 462.89419 78.390613 
" clip-path="url(#p0be05e2226)" style="fill: none; stroke: #fa7c17; stroke-opacity: 0.25; stroke-width: 1.5; stroke-linecap: round"/>
   </g>
   <g id="line2d_34">
    <path d="M 108.186893 234.748038 
L 462.89419 61.657601 
" clip-path="url(#p0be05e2226)" style="fill: none; stroke: #fa7c17; stroke-opacity: 0.25; stroke-width: 1.5; stroke-linecap: round"/>
   </g>
   <g id="line2d_35">
    <path d="M 108.186893 225.856601 
L 462.89419 80.914165 
" clip-path="url(#p0be05e2226)" style="fill: none; stroke: #fa7c17; stroke-opacity: 0.25; stroke-width: 1.5; stroke-linecap: round"/>
   </g>
   <g id="line2d_36">
    <path d="M 108.186893 221.150114 
L 462.89419 75.128455 
" clip-path="url(#p0be05e2226)" style="fill: none; stroke: #fa7c17; stroke-opacity: 0.25; stroke-width: 1.5; stroke-linecap: round"/>
   </g>
   <g id="line2d_37">
    <path d="M 108.186893 224.511088 
L 462.89419 53.132754 
" clip-path="url(#p0be05e2226)" style="fill: none; stroke: #fa7c17; stroke-opacity: 0.25; stroke-width: 1.5; stroke-linecap: round"/>
   </g>
   <g id="line2d_38">
    <path d="M 108.186893 222.478673 
L 462.89419 62.48554 
" clip-path="url(#p0be05e2226)" style="fill: none; stroke: #fa7c17; stroke-opacity: 0.25; stroke-width: 1.5; stroke-linecap: round"/>
   </g>
   <g id="line2d_39">
    <path d="M 108.186893 224.335796 
L 462.89419 54.889239 
" clip-path="url(#p0be05e2226)" style="fill: none; stroke: #fa7c17; stroke-opacity: 0.25; stroke-width: 1.5; stroke-linecap: round"/>
   </g>
   <g id="line2d_40">
    <path d="M 108.186893 232.000375 
L 462.89419 59.347357 
" clip-path="url(#p0be05e2226)" style="fill: none; stroke: #fa7c17; stroke-opacity: 0.25; stroke-width: 1.5; stroke-linecap: round"/>
   </g>
   <g id="line2d_41">
    <path d="M 108.186893 235.677993 
L 462.89419 64.127589 
" clip-path="url(#p0be05e2226)" style="fill: none; stroke: #fa7c17; stroke-opacity: 0.25; stroke-width: 1.5; stroke-linecap: round"/>
   </g>
   <g id="line2d_42">
    <path d="M 108.186893 215.037024 
L 462.89419 76.364742 
" clip-path="url(#p0be05e2226)" style="fill: none; stroke: #fa7c17; stroke-opacity: 0.25; stroke-width: 1.5; stroke-linecap: round"/>
   </g>
   <g id="line2d_43"/>
   <g id="line2d_44"/>
   <g id="LineCollection_1">
    <path d="M 90.451528 195.386395 
L 125.922258 195.386395 
" clip-path="url(#p0be05e2226)" style="fill: none; stroke: #2a2eec; stroke-width: 1.5"/>
    <path d="M 445.158825 90.950266 
L 480.629554 90.950266 
" clip-path="url(#p0be05e2226)" style="fill: none; stroke: #2a2eec; stroke-width: 1.5"/>
   </g>
   <g id="LineCollection_2">
    <path d="M 90.451528 297.477994 
L 125.922258 297.477994 
" clip-path="url(#p0be05e2226)" style="fill: none; stroke: #2a2eec; stroke-width: 1.5"/>
    <path d="M 445.158825 181.989445 
L 480.629554 181.989445 
" clip-path="url(#p0be05e2226)" style="fill: none; stroke: #2a2eec; stroke-width: 1.5"/>
   </g>
   <g id="LineCollection_3">
    <path d="M 108.186893 297.477994 
L 108.186893 195.386395 
" clip-path="url(#p0be05e2226)" style="fill: none; stroke: #2a2eec; stroke-width: 1.5"/>
    <path d="M 462.89419 181.989445 
L 462.89419 90.950266 
" clip-path="url(#p0be05e2226)" style="fill: none; stroke: #2a2eec; stroke-width: 1.5"/>
   </g>
   <g id="LineCollection_4">
    <path d="M 90.451528 180.444722 
L 125.922258 180.444722 
" clip-path="url(#p0be05e2226)" style="fill: none; stroke: #fa7c17; stroke-width: 1.5"/>
    <path d="M 445.158825 20.954963 
L 480.629554 20.954963 
" clip-path="url(#p0be05e2226)" style="fill: none; stroke: #fa7c17; stroke-width: 1.5"/>
   </g>
   <g id="LineCollection_5">
    <path d="M 90.451528 280.099092 
L 125.922258 280.099092 
" clip-path="url(#p0be05e2226)" style="fill: none; stroke: #fa7c17; stroke-width: 1.5"/>
    <path d="M 445.158825 112.330749 
L 480.629554 112.330749 
" clip-path="url(#p0be05e2226)" style="fill: none; stroke: #fa7c17; stroke-width: 1.5"/>
   </g>
   <g id="LineCollection_6">
    <path d="M 108.186893 280.099092 
L 108.186893 180.444722 
" clip-path="url(#p0be05e2226)" style="fill: none; stroke: #fa7c17; stroke-width: 1.5"/>
    <path d="M 462.89419 112.330749 
L 462.89419 20.954963 
" clip-path="url(#p0be05e2226)" style="fill: none; stroke: #fa7c17; stroke-width: 1.5"/>
   </g>
   <g id="LineCollection_7">
    <path d="M 445.158825 65.050806 
L 480.629554 65.050806 
" clip-path="url(#p0be05e2226)" style="fill: none; stroke: #328c06; stroke-width: 1.5"/>
   </g>
   <g id="LineCollection_8">
    <path d="M 445.158825 168.308841 
L 480.629554 168.308841 
" clip-path="url(#p0be05e2226)" style="fill: none; stroke: #328c06; stroke-width: 1.5"/>
   </g>
   <g id="LineCollection_9">
    <path d="M 462.89419 168.308841 
L 462.89419 65.050806 
" clip-path="url(#p0be05e2226)" style="fill: none; stroke: #328c06; stroke-width: 1.5"/>
   </g>
   <g id="patch_3">
    <path d="M 51.433725 311.304146 
L 51.433725 7.128812 
" style="fill: none"/>
   </g>
   <g id="patch_4">
    <path d="M 519.647357 311.304146 
L 519.647357 7.128812 
" style="fill: none"/>
   </g>
   <g id="patch_5">
    <path d="M 51.433725 311.304146 
L 519.647357 311.304146 
" style="fill: none"/>
   </g>
   <g id="patch_6">
    <path d="M 51.433725 7.128812 
L 519.647357 7.128812 
" style="fill: none"/>
   </g>
   <g id="legend_1">
    <g id="line2d_45">
     <path d="M 467.612357 22.846937 
L 479.612357 22.846937 
L 491.612357 22.846937 
" style="fill: none; stroke: #2a2eec; stroke-width: 1.5; stroke-linecap: round"/>
    </g>
    <g id="text_14">
     <!-- 0 -->
     <g style="fill: #262626" transform="translate(501.212357 27.046937) scale(0.12 -0.12)">
      <use xlink:href="#DejaVuSans-30"/>
     </g>
    </g>
    <g id="line2d_46">
     <path d="M 467.612357 40.460687 
L 479.612357 40.460687 
L 491.612357 40.460687 
" style="fill: none; stroke: #fa7c17; stroke-width: 1.5; stroke-linecap: round"/>
    </g>
    <g id="text_15">
     <!-- 1 -->
     <g style="fill: #262626" transform="translate(501.212357 44.660687) scale(0.12 -0.12)">
      <use xlink:href="#DejaVuSans-31"/>
     </g>
    </g>
   </g>
  </g>
 </g>
 <defs>
  <clipPath id="p0be05e2226">
   <rect x="51.433725" y="7.128812" width="468.213632" height="304.175334"/>
  </clipPath>
 </defs>
</svg>
