<?xml version="1.0" encoding="utf-8" standalone="no"?>
<!DOCTYPE svg PUBLIC "-//W3C//DTD SVG 1.1//EN"
  "http://www.w3.org/Graphics/SVG/1.1/DTD/svg11.dtd">
<svg xmlns:xlink="http://www.w3.org/1999/xlink" width="526.515637pt" height="353.99952pt" viewBox="0 0 526.515637 353.99952" xmlns="http://www.w3.org/2000/svg" version="1.1">
 <metadata>
  <rdf:RDF xmlns:dc="http://purl.org/dc/elements/1.1/" xmlns:cc="http://creativecommons.org/ns#" xmlns:rdf="http://www.w3.org/1999/02/22-rdf-syntax-ns#">
   <cc:Work>
    <dc:type rdf:resource="http://purl.org/dc/dcmitype/StillImage"/>
    <dc:date>2022-11-15T17:34:26.604315</dc:date>
    <dc:format>image/svg+xml</dc:format>
    <dc:creator>
     <cc:Agent>
      <dc:title>Matplotlib v3.6.2, https://matplotlib.org/</dc:title>
     </cc:Agent>
    </dc:creator>
   </cc:Work>
  </rdf:RDF>
 </metadata>
 <defs>
  <style type="text/css">*{stroke-linejoin: round; stroke-linecap: butt}</style>
 </defs>
 <g id="figure_1">
  <g id="patch_1">
   <path d="M 0 353.99952 
L 526.515637 353.99952 
L 526.515637 0 
L 0 0 
z
" style="fill: #ffffff"/>
  </g>
  <g id="axes_1">
   <g id="patch_2">
    <path d="M 51.481563 311.232957 
L 512.85696 311.232957 
L 512.85696 25.3575 
L 51.481563 25.3575 
z
" style="fill: #eeeeee"/>
   </g>
   <g id="matplotlib.axis_1">
    <g id="xtick_1">
     <g id="line2d_1">
      <path d="M 100.914641 311.232957 
L 100.914641 25.3575 
" clip-path="url(#paf4adf3d9f)" style="fill: none; stroke: #ffffff; stroke-width: 0.8; stroke-linecap: round"/>
     </g>
     <g id="line2d_2"/>
     <g id="text_1">
      <!-- pre -->
      <g style="fill: #262626" transform="translate(89.443391 325.37077) scale(0.14 -0.14)">
       <defs>
        <path id="DejaVuSans-70" d="M 1159 525 
L 1159 -1331 
L 581 -1331 
L 581 3500 
L 1159 3500 
L 1159 2969 
Q 1341 3281 1617 3432 
Q 1894 3584 2278 3584 
Q 2916 3584 3314 3078 
Q 3713 2572 3713 1747 
Q 3713 922 3314 415 
Q 2916 -91 2278 -91 
Q 1894 -91 1617 61 
Q 1341 213 1159 525 
z
M 3116 1747 
Q 3116 2381 2855 2742 
Q 2594 3103 2138 3103 
Q 1681 3103 1420 2742 
Q 1159 2381 1159 1747 
Q 1159 1113 1420 752 
Q 1681 391 2138 391 
Q 2594 391 2855 752 
Q 3116 1113 3116 1747 
z
" transform="scale(0.015625)"/>
        <path id="DejaVuSans-72" d="M 2631 2963 
Q 2534 3019 2420 3045 
Q 2306 3072 2169 3072 
Q 1681 3072 1420 2755 
Q 1159 2438 1159 1844 
L 1159 0 
L 581 0 
L 581 3500 
L 1159 3500 
L 1159 2956 
Q 1341 3275 1631 3429 
Q 1922 3584 2338 3584 
Q 2397 3584 2469 3576 
Q 2541 3569 2628 3553 
L 2631 2963 
z
" transform="scale(0.015625)"/>
        <path id="DejaVuSans-65" d="M 3597 1894 
L 3597 1613 
L 953 1613 
Q 991 1019 1311 708 
Q 1631 397 2203 397 
Q 2534 397 2845 478 
Q 3156 559 3463 722 
L 3463 178 
Q 3153 47 2828 -22 
Q 2503 -91 2169 -91 
Q 1331 -91 842 396 
Q 353 884 353 1716 
Q 353 2575 817 3079 
Q 1281 3584 2069 3584 
Q 2775 3584 3186 3129 
Q 3597 2675 3597 1894 
z
M 3022 2063 
Q 3016 2534 2758 2815 
Q 2500 3097 2075 3097 
Q 1594 3097 1305 2825 
Q 1016 2553 972 2059 
L 3022 2063 
z
" transform="scale(0.015625)"/>
       </defs>
       <use xlink:href="#DejaVuSans-70"/>
       <use xlink:href="#DejaVuSans-72" x="63.476562"/>
       <use xlink:href="#DejaVuSans-65" x="102.339844"/>
      </g>
     </g>
    </g>
    <g id="xtick_2">
     <g id="line2d_3">
      <path d="M 430.468496 311.232957 
L 430.468496 25.3575 
" clip-path="url(#paf4adf3d9f)" style="fill: none; stroke: #ffffff; stroke-width: 0.8; stroke-linecap: round"/>
     </g>
     <g id="line2d_4"/>
     <g id="text_2">
      <!-- post -->
      <g style="fill: #262626" transform="translate(415.350684 325.37077) scale(0.14 -0.14)">
       <defs>
        <path id="DejaVuSans-6f" d="M 1959 3097 
Q 1497 3097 1228 2736 
Q 959 2375 959 1747 
Q 959 1119 1226 758 
Q 1494 397 1959 397 
Q 2419 397 2687 759 
Q 2956 1122 2956 1747 
Q 2956 2369 2687 2733 
Q 2419 3097 1959 3097 
z
M 1959 3584 
Q 2709 3584 3137 3096 
Q 3566 2609 3566 1747 
Q 3566 888 3137 398 
Q 2709 -91 1959 -91 
Q 1206 -91 779 398 
Q 353 888 353 1747 
Q 353 2609 779 3096 
Q 1206 3584 1959 3584 
z
" transform="scale(0.015625)"/>
        <path id="DejaVuSans-73" d="M 2834 3397 
L 2834 2853 
Q 2591 2978 2328 3040 
Q 2066 3103 1784 3103 
Q 1356 3103 1142 2972 
Q 928 2841 928 2578 
Q 928 2378 1081 2264 
Q 1234 2150 1697 2047 
L 1894 2003 
Q 2506 1872 2764 1633 
Q 3022 1394 3022 966 
Q 3022 478 2636 193 
Q 2250 -91 1575 -91 
Q 1294 -91 989 -36 
Q 684 19 347 128 
L 347 722 
Q 666 556 975 473 
Q 1284 391 1588 391 
Q 1994 391 2212 530 
Q 2431 669 2431 922 
Q 2431 1156 2273 1281 
Q 2116 1406 1581 1522 
L 1381 1569 
Q 847 1681 609 1914 
Q 372 2147 372 2553 
Q 372 3047 722 3315 
Q 1072 3584 1716 3584 
Q 2034 3584 2315 3537 
Q 2597 3491 2834 3397 
z
" transform="scale(0.015625)"/>
        <path id="DejaVuSans-74" d="M 1172 4494 
L 1172 3500 
L 2356 3500 
L 2356 3053 
L 1172 3053 
L 1172 1153 
Q 1172 725 1289 603 
Q 1406 481 1766 481 
L 2356 481 
L 2356 0 
L 1766 0 
Q 1100 0 847 248 
Q 594 497 594 1153 
L 594 3053 
L 172 3053 
L 172 3500 
L 594 3500 
L 594 4494 
L 1172 4494 
z
" transform="scale(0.015625)"/>
       </defs>
       <use xlink:href="#DejaVuSans-70"/>
       <use xlink:href="#DejaVuSans-6f" x="63.476562"/>
       <use xlink:href="#DejaVuSans-73" x="124.658203"/>
       <use xlink:href="#DejaVuSans-74" x="176.757812"/>
      </g>
     </g>
    </g>
    <g id="text_3">
     <!-- t -->
     <g style="fill: #262626" transform="translate(279.229027 343.679989) scale(0.15 -0.15)">
      <use xlink:href="#DejaVuSans-74"/>
     </g>
    </g>
   </g>
   <g id="matplotlib.axis_2">
    <g id="ytick_1">
     <g id="line2d_5">
      <path d="M 51.481563 265.810142 
L 512.85696 265.810142 
" clip-path="url(#paf4adf3d9f)" style="fill: none; stroke: #ffffff; stroke-width: 0.8; stroke-linecap: round"/>
     </g>
     <g id="line2d_6"/>
     <g id="text_4">
      <!-- 1.0 -->
      <g style="fill: #262626" transform="translate(25.717188 271.129048) scale(0.14 -0.14)">
       <defs>
        <path id="DejaVuSans-31" d="M 794 531 
L 1825 531 
L 1825 4091 
L 703 3866 
L 703 4441 
L 1819 4666 
L 2450 4666 
L 2450 531 
L 3481 531 
L 3481 0 
L 794 0 
L 794 531 
z
" transform="scale(0.015625)"/>
        <path id="DejaVuSans-2e" d="M 684 794 
L 1344 794 
L 1344 0 
L 684 0 
L 684 794 
z
" transform="scale(0.015625)"/>
        <path id="DejaVuSans-30" d="M 2034 4250 
Q 1547 4250 1301 3770 
Q 1056 3291 1056 2328 
Q 1056 1369 1301 889 
Q 1547 409 2034 409 
Q 2525 409 2770 889 
Q 3016 1369 3016 2328 
Q 3016 3291 2770 3770 
Q 2525 4250 2034 4250 
z
M 2034 4750 
Q 2819 4750 3233 4129 
Q 3647 3509 3647 2328 
Q 3647 1150 3233 529 
Q 2819 -91 2034 -91 
Q 1250 -91 836 529 
Q 422 1150 422 2328 
Q 422 3509 836 4129 
Q 1250 4750 2034 4750 
z
" transform="scale(0.015625)"/>
       </defs>
       <use xlink:href="#DejaVuSans-31"/>
       <use xlink:href="#DejaVuSans-2e" x="63.623047"/>
       <use xlink:href="#DejaVuSans-30" x="95.410156"/>
      </g>
     </g>
    </g>
    <g id="ytick_2">
     <g id="line2d_7">
      <path d="M 51.481563 211.361882 
L 512.85696 211.361882 
" clip-path="url(#paf4adf3d9f)" style="fill: none; stroke: #ffffff; stroke-width: 0.8; stroke-linecap: round"/>
     </g>
     <g id="line2d_8"/>
     <g id="text_5">
      <!-- 1.5 -->
      <g style="fill: #262626" transform="translate(25.717188 216.680788) scale(0.14 -0.14)">
       <defs>
        <path id="DejaVuSans-35" d="M 691 4666 
L 3169 4666 
L 3169 4134 
L 1269 4134 
L 1269 2991 
Q 1406 3038 1543 3061 
Q 1681 3084 1819 3084 
Q 2600 3084 3056 2656 
Q 3513 2228 3513 1497 
Q 3513 744 3044 326 
Q 2575 -91 1722 -91 
Q 1428 -91 1123 -41 
Q 819 9 494 109 
L 494 744 
Q 775 591 1075 516 
Q 1375 441 1709 441 
Q 2250 441 2565 725 
Q 2881 1009 2881 1497 
Q 2881 1984 2565 2268 
Q 2250 2553 1709 2553 
Q 1456 2553 1204 2497 
Q 953 2441 691 2322 
L 691 4666 
z
" transform="scale(0.015625)"/>
       </defs>
       <use xlink:href="#DejaVuSans-31"/>
       <use xlink:href="#DejaVuSans-2e" x="63.623047"/>
       <use xlink:href="#DejaVuSans-35" x="95.410156"/>
      </g>
     </g>
    </g>
    <g id="ytick_3">
     <g id="line2d_9">
      <path d="M 51.481563 156.913622 
L 512.85696 156.913622 
" clip-path="url(#paf4adf3d9f)" style="fill: none; stroke: #ffffff; stroke-width: 0.8; stroke-linecap: round"/>
     </g>
     <g id="line2d_10"/>
     <g id="text_6">
      <!-- 2.0 -->
      <g style="fill: #262626" transform="translate(25.717188 162.232528) scale(0.14 -0.14)">
       <defs>
        <path id="DejaVuSans-32" d="M 1228 531 
L 3431 531 
L 3431 0 
L 469 0 
L 469 531 
Q 828 903 1448 1529 
Q 2069 2156 2228 2338 
Q 2531 2678 2651 2914 
Q 2772 3150 2772 3378 
Q 2772 3750 2511 3984 
Q 2250 4219 1831 4219 
Q 1534 4219 1204 4116 
Q 875 4013 500 3803 
L 500 4441 
Q 881 4594 1212 4672 
Q 1544 4750 1819 4750 
Q 2544 4750 2975 4387 
Q 3406 4025 3406 3419 
Q 3406 3131 3298 2873 
Q 3191 2616 2906 2266 
Q 2828 2175 2409 1742 
Q 1991 1309 1228 531 
z
" transform="scale(0.015625)"/>
       </defs>
       <use xlink:href="#DejaVuSans-32"/>
       <use xlink:href="#DejaVuSans-2e" x="63.623047"/>
       <use xlink:href="#DejaVuSans-30" x="95.410156"/>
      </g>
     </g>
    </g>
    <g id="ytick_4">
     <g id="line2d_11">
      <path d="M 51.481563 102.465362 
L 512.85696 102.465362 
" clip-path="url(#paf4adf3d9f)" style="fill: none; stroke: #ffffff; stroke-width: 0.8; stroke-linecap: round"/>
     </g>
     <g id="line2d_12"/>
     <g id="text_7">
      <!-- 2.5 -->
      <g style="fill: #262626" transform="translate(25.717188 107.784268) scale(0.14 -0.14)">
       <use xlink:href="#DejaVuSans-32"/>
       <use xlink:href="#DejaVuSans-2e" x="63.623047"/>
       <use xlink:href="#DejaVuSans-35" x="95.410156"/>
      </g>
     </g>
    </g>
    <g id="ytick_5">
     <g id="line2d_13">
      <path d="M 51.481563 48.017102 
L 512.85696 48.017102 
" clip-path="url(#paf4adf3d9f)" style="fill: none; stroke: #ffffff; stroke-width: 0.8; stroke-linecap: round"/>
     </g>
     <g id="line2d_14"/>
     <g id="text_8">
      <!-- 3.0 -->
      <g style="fill: #262626" transform="translate(25.717188 53.336009) scale(0.14 -0.14)">
       <defs>
        <path id="DejaVuSans-33" d="M 2597 2516 
Q 3050 2419 3304 2112 
Q 3559 1806 3559 1356 
Q 3559 666 3084 287 
Q 2609 -91 1734 -91 
Q 1441 -91 1130 -33 
Q 819 25 488 141 
L 488 750 
Q 750 597 1062 519 
Q 1375 441 1716 441 
Q 2309 441 2620 675 
Q 2931 909 2931 1356 
Q 2931 1769 2642 2001 
Q 2353 2234 1838 2234 
L 1294 2234 
L 1294 2753 
L 1863 2753 
Q 2328 2753 2575 2939 
Q 2822 3125 2822 3475 
Q 2822 3834 2567 4026 
Q 2313 4219 1838 4219 
Q 1578 4219 1281 4162 
Q 984 4106 628 3988 
L 628 4550 
Q 988 4650 1302 4700 
Q 1616 4750 1894 4750 
Q 2613 4750 3031 4423 
Q 3450 4097 3450 3541 
Q 3450 3153 3228 2886 
Q 3006 2619 2597 2516 
z
" transform="scale(0.015625)"/>
       </defs>
       <use xlink:href="#DejaVuSans-33"/>
       <use xlink:href="#DejaVuSans-2e" x="63.623047"/>
       <use xlink:href="#DejaVuSans-30" x="95.410156"/>
      </g>
     </g>
    </g>
    <g id="text_9">
     <!-- y -->
     <g style="fill: #262626" transform="translate(18.597656 172.734291) rotate(-90) scale(0.15 -0.15)">
      <defs>
       <path id="DejaVuSans-79" d="M 2059 -325 
Q 1816 -950 1584 -1140 
Q 1353 -1331 966 -1331 
L 506 -1331 
L 506 -850 
L 844 -850 
Q 1081 -850 1212 -737 
Q 1344 -625 1503 -206 
L 1606 56 
L 191 3500 
L 800 3500 
L 1894 763 
L 2988 3500 
L 3597 3500 
L 2059 -325 
z
" transform="scale(0.015625)"/>
      </defs>
      <use xlink:href="#DejaVuSans-79"/>
     </g>
    </g>
   </g>
   <g id="PolyCollection_1">
    <path d="M 101.071962 298.238619 
L 100.75732 298.238619 
L 100.723202 297.421265 
L 100.690406 296.603912 
L 100.652064 295.786558 
L 100.598563 294.969205 
L 100.520811 294.151852 
L 100.411901 293.334498 
L 100.267581 292.517145 
L 100.08774 291.699792 
L 99.878775 290.882438 
L 99.652722 290.065085 
L 99.419858 289.247731 
L 99.178148 288.430378 
L 98.908335 287.613025 
L 98.580635 286.795671 
L 98.17003 285.978318 
L 97.669928 285.160964 
L 97.09441 284.343611 
L 96.467606 283.526258 
L 95.80861 282.708904 
L 95.12254 281.891551 
L 94.400657 281.074198 
L 93.625047 280.256844 
L 92.775198 279.439491 
L 91.838675 278.622137 
L 90.824207 277.804784 
L 89.765733 276.987431 
L 88.705841 276.170077 
L 87.662621 275.352724 
L 86.602074 274.535371 
L 85.440533 273.718017 
L 84.0833 272.900664 
L 82.479791 272.08331 
L 80.662403 271.265957 
L 78.746308 270.448604 
L 76.891241 269.63125 
L 75.245615 268.813897 
L 73.897448 267.996544 
L 72.849634 267.17919 
L 72.027306 266.361837 
L 71.31552 265.544483 
L 70.614188 264.72713 
L 69.885616 263.909777 
L 69.168785 263.092423 
L 68.552802 262.27507 
L 68.12984 261.457717 
L 67.959255 260.640363 
L 68.057408 259.82301 
L 68.402202 259.005656 
L 68.937236 258.188303 
L 69.579028 257.37095 
L 70.242389 256.553596 
L 70.882125 255.736243 
L 71.522275 254.91889 
L 72.243457 254.101536 
L 73.130993 253.284183 
L 74.219536 252.466829 
L 75.473724 251.649476 
L 76.817907 250.832123 
L 78.19132 250.014769 
L 79.583693 249.197416 
L 81.020279 248.380063 
L 82.509547 247.562709 
L 84.003473 246.745356 
L 85.411329 245.928002 
L 86.658496 245.110649 
L 87.73993 244.293296 
L 88.723446 243.475942 
L 89.702731 242.658589 
L 90.739811 241.841235 
L 91.83825 241.023882 
L 92.957089 240.206529 
L 94.043924 239.389175 
L 95.058888 238.571822 
L 95.978515 237.754469 
L 96.788597 236.937115 
L 97.480136 236.119762 
L 98.052374 235.302408 
L 98.51609 234.485055 
L 98.890315 233.667702 
L 99.193841 232.850348 
L 99.438779 232.032995 
L 99.631296 231.215642 
L 99.77802 230.398288 
L 99.892199 229.580935 
L 99.994148 228.763581 
L 100.104572 227.946228 
L 100.234521 227.128875 
L 100.379046 226.311521 
L 100.519923 225.494168 
L 100.63626 224.676815 
L 100.715645 223.859461 
L 100.758763 223.042108 
L 100.776259 222.224754 
L 100.781839 221.407401 
L 100.786305 220.590048 
L 100.794927 219.772694 
L 100.80817 218.955341 
L 100.824252 218.137988 
L 100.84141 217.320634 
L 100.987872 217.320634 
L 100.987872 217.320634 
L 101.005029 218.137988 
L 101.021111 218.955341 
L 101.034355 219.772694 
L 101.042977 220.590048 
L 101.047442 221.407401 
L 101.053023 222.224754 
L 101.070519 223.042108 
L 101.113636 223.859461 
L 101.193021 224.676815 
L 101.309359 225.494168 
L 101.450236 226.311521 
L 101.59476 227.128875 
L 101.72471 227.946228 
L 101.835134 228.763581 
L 101.937083 229.580935 
L 102.051262 230.398288 
L 102.197985 231.215642 
L 102.390502 232.032995 
L 102.635441 232.850348 
L 102.938967 233.667702 
L 103.313192 234.485055 
L 103.776908 235.302408 
L 104.349146 236.119762 
L 105.040685 236.937115 
L 105.850766 237.754469 
L 106.770393 238.571822 
L 107.785358 239.389175 
L 108.872193 240.206529 
L 109.991032 241.023882 
L 111.08947 241.841235 
L 112.12655 242.658589 
L 113.105835 243.475942 
L 114.089352 244.293296 
L 115.170785 245.110649 
L 116.417953 245.928002 
L 117.825809 246.745356 
L 119.319735 247.562709 
L 120.809003 248.380063 
L 122.245589 249.197416 
L 123.637961 250.014769 
L 125.011375 250.832123 
L 126.355558 251.649476 
L 127.609746 252.466829 
L 128.698289 253.284183 
L 129.585825 254.101536 
L 130.307007 254.91889 
L 130.947157 255.736243 
L 131.586893 256.553596 
L 132.250254 257.37095 
L 132.892046 258.188303 
L 133.42708 259.005656 
L 133.771874 259.82301 
L 133.870026 260.640363 
L 133.699442 261.457717 
L 133.27648 262.27507 
L 132.660497 263.092423 
L 131.943666 263.909777 
L 131.215094 264.72713 
L 130.513761 265.544483 
L 129.801976 266.361837 
L 128.979648 267.17919 
L 127.931833 267.996544 
L 126.583666 268.813897 
L 124.938041 269.63125 
L 123.082974 270.448604 
L 121.166878 271.265957 
L 119.349491 272.08331 
L 117.745981 272.900664 
L 116.388749 273.718017 
L 115.227208 274.535371 
L 114.166661 275.352724 
L 113.123441 276.170077 
L 112.063548 276.987431 
L 111.005074 277.804784 
L 109.990606 278.622137 
L 109.054084 279.439491 
L 108.204235 280.256844 
L 107.428625 281.074198 
L 106.706742 281.891551 
L 106.020672 282.708904 
L 105.361676 283.526258 
L 104.734872 284.343611 
L 104.159354 285.160964 
L 103.659252 285.978318 
L 103.248647 286.795671 
L 102.920947 287.613025 
L 102.651133 288.430378 
L 102.409423 289.247731 
L 102.176559 290.065085 
L 101.950507 290.882438 
L 101.741542 291.699792 
L 101.561701 292.517145 
L 101.41738 293.334498 
L 101.308471 294.151852 
L 101.230719 294.969205 
L 101.177218 295.786558 
L 101.138876 296.603912 
L 101.10608 297.421265 
L 101.071962 298.238619 
z
" clip-path="url(#paf4adf3d9f)" style="fill: #2a2eec; fill-opacity: 0.5"/>
   </g>
   <g id="PolyCollection_2">
    <path d="M 430.521362 197.909696 
L 430.415631 197.909696 
L 430.407763 197.018317 
L 430.39931 196.126938 
L 430.389068 195.235559 
L 430.378875 194.34418 
L 430.37248 193.452801 
L 430.371414 192.561422 
L 430.371713 191.670043 
L 430.364836 190.778664 
L 430.342101 189.887285 
L 430.299151 188.995906 
L 430.23759 188.104526 
L 430.163326 187.213147 
L 430.082851 186.321768 
L 429.99962 185.430389 
L 429.912693 184.53901 
L 429.818383 183.647631 
L 429.713046 182.756252 
L 429.593636 181.864873 
L 429.454354 180.973494 
L 429.282555 180.082115 
L 429.060469 179.190736 
L 428.775213 178.299356 
L 428.429956 177.407977 
L 428.04458 176.516598 
L 427.641429 175.625219 
L 427.224304 174.73384 
L 426.765924 173.842461 
L 426.215927 172.951082 
L 425.529526 172.059703 
L 424.700733 171.168324 
L 423.774389 170.276945 
L 422.821533 169.385566 
L 421.891351 168.494186 
L 420.975832 167.602807 
L 420.015109 166.711428 
L 418.936185 165.820049 
L 417.690338 164.92867 
L 416.263795 164.037291 
L 414.668538 163.145912 
L 412.935008 162.254533 
L 411.112594 161.363154 
L 409.267133 160.471775 
L 407.472301 159.580396 
L 405.805012 158.689017 
L 404.343396 157.797637 
L 403.145684 156.906258 
L 402.205128 156.014879 
L 401.423815 155.1235 
L 400.656293 154.232121 
L 399.809362 153.340742 
L 398.917786 152.449363 
L 398.131319 151.557984 
L 397.626936 150.666605 
L 397.513111 149.775226 
L 397.78175 148.883847 
L 398.322547 147.992467 
L 398.982767 147.101088 
L 399.640551 146.209709 
L 400.258464 145.31833 
L 400.894918 144.426951 
L 401.67139 143.535572 
L 402.714544 142.644193 
L 404.100485 141.752814 
L 405.81859 140.861435 
L 407.761631 139.970056 
L 409.750988 139.078677 
L 411.60234 138.187297 
L 413.20716 137.295918 
L 414.574353 136.404539 
L 415.79409 135.51316 
L 416.951452 134.621781 
L 418.0657 133.730402 
L 419.105266 132.839023 
L 420.051594 131.947644 
L 420.937954 131.056265 
L 421.822718 130.164886 
L 422.731253 129.273507 
L 423.632156 128.382128 
L 424.469996 127.490748 
L 425.214491 126.599369 
L 425.87669 125.70799 
L 426.486772 124.816611 
L 427.065109 123.925232 
L 427.611654 123.033853 
L 428.112087 122.142474 
L 428.548188 121.251095 
L 428.906262 120.359716 
L 429.183408 119.468337 
L 429.390339 118.576958 
L 429.547951 117.685578 
L 429.67812 116.794199 
L 429.794599 115.90282 
L 429.900748 115.011441 
L 429.994613 114.120062 
L 430.075167 113.228683 
L 430.144171 112.337304 
L 430.204401 111.445925 
L 430.258097 110.554546 
L 430.306786 109.663167 
L 430.630207 109.663167 
L 430.630207 109.663167 
L 430.678895 110.554546 
L 430.732592 111.445925 
L 430.792822 112.337304 
L 430.861826 113.228683 
L 430.942379 114.120062 
L 431.036245 115.011441 
L 431.142394 115.90282 
L 431.258873 116.794199 
L 431.389042 117.685578 
L 431.546654 118.576958 
L 431.753584 119.468337 
L 432.030731 120.359716 
L 432.388805 121.251095 
L 432.824905 122.142474 
L 433.325339 123.033853 
L 433.871884 123.925232 
L 434.450221 124.816611 
L 435.060302 125.70799 
L 435.722502 126.599369 
L 436.466997 127.490748 
L 437.304837 128.382128 
L 438.205739 129.273507 
L 439.114275 130.164886 
L 439.999038 131.056265 
L 440.885399 131.947644 
L 441.831726 132.839023 
L 442.871293 133.730402 
L 443.985541 134.621781 
L 445.142902 135.51316 
L 446.362639 136.404539 
L 447.729833 137.295918 
L 449.334653 138.187297 
L 451.186005 139.078677 
L 453.175362 139.970056 
L 455.118402 140.861435 
L 456.836507 141.752814 
L 458.222448 142.644193 
L 459.265603 143.535572 
L 460.042074 144.426951 
L 460.678529 145.31833 
L 461.296442 146.209709 
L 461.954225 147.101088 
L 462.614445 147.992467 
L 463.155242 148.883847 
L 463.423882 149.775226 
L 463.310057 150.666605 
L 462.805673 151.557984 
L 462.019207 152.449363 
L 461.127631 153.340742 
L 460.280699 154.232121 
L 459.513178 155.1235 
L 458.731865 156.014879 
L 457.791309 156.906258 
L 456.593596 157.797637 
L 455.13198 158.689017 
L 453.464692 159.580396 
L 451.669859 160.471775 
L 449.824398 161.363154 
L 448.001985 162.254533 
L 446.268454 163.145912 
L 444.673198 164.037291 
L 443.246655 164.92867 
L 442.000808 165.820049 
L 440.921884 166.711428 
L 439.961161 167.602807 
L 439.045642 168.494186 
L 438.11546 169.385566 
L 437.162604 170.276945 
L 436.23626 171.168324 
L 435.407467 172.059703 
L 434.721065 172.951082 
L 434.171068 173.842461 
L 433.712689 174.73384 
L 433.295564 175.625219 
L 432.892413 176.516598 
L 432.507037 177.407977 
L 432.16178 178.299356 
L 431.876524 179.190736 
L 431.654438 180.082115 
L 431.482639 180.973494 
L 431.343357 181.864873 
L 431.223947 182.756252 
L 431.118609 183.647631 
L 431.0243 184.53901 
L 430.937373 185.430389 
L 430.854141 186.321768 
L 430.773667 187.213147 
L 430.699402 188.104526 
L 430.637841 188.995906 
L 430.594891 189.887285 
L 430.572157 190.778664 
L 430.56528 191.670043 
L 430.565579 192.561422 
L 430.564513 193.452801 
L 430.558118 194.34418 
L 430.547925 195.235559 
L 430.537682 196.126938 
L 430.52923 197.018317 
L 430.521362 197.909696 
z
" clip-path="url(#paf4adf3d9f)" style="fill: #2a2eec; fill-opacity: 0.5"/>
   </g>
   <g id="PolyCollection_3">
    <path d="M 100.956872 287.781466 
L 100.872409 287.781466 
L 100.875849 286.837495 
L 100.884388 285.893525 
L 100.893618 284.949554 
L 100.899013 284.005584 
L 100.897459 283.061614 
L 100.887411 282.117643 
L 100.868474 281.173673 
L 100.840908 280.229702 
L 100.804915 279.285732 
L 100.760167 278.341762 
L 100.706636 277.397791 
L 100.646766 276.453821 
L 100.586828 275.50985 
L 100.534681 274.56588 
L 100.493457 273.62191 
L 100.455001 272.677939 
L 100.399273 271.733969 
L 100.302683 270.789998 
L 100.150337 269.846028 
L 99.941603 268.902057 
L 99.683006 267.958087 
L 99.375418 267.014117 
L 99.009692 266.070146 
L 98.575639 265.126176 
L 98.073691 264.182205 
L 97.516453 263.238235 
L 96.919774 262.294265 
L 96.291891 261.350294 
L 95.626372 260.406324 
L 94.90041 259.462353 
L 94.082107 258.518383 
L 93.149193 257.574413 
L 92.107395 256.630442 
L 90.984259 255.686472 
L 89.792625 254.742501 
L 88.499551 253.798531 
L 87.044557 252.854561 
L 85.39769 251.91059 
L 83.596449 250.96662 
L 81.724326 250.022649 
L 79.861604 249.078679 
L 78.060088 248.134708 
L 76.3511 247.190738 
L 74.756781 246.246768 
L 73.284576 245.302797 
L 71.921147 244.358827 
L 70.654629 243.414856 
L 69.52052 242.470886 
L 68.621793 241.526916 
L 68.08201 240.582945 
L 67.959255 239.638975 
L 68.200609 238.695004 
L 68.682949 237.751034 
L 69.300559 236.807064 
L 70.016696 235.863093 
L 70.839064 234.919123 
L 71.762421 233.975152 
L 72.753701 233.031182 
L 73.796361 232.087212 
L 74.932158 231.143241 
L 76.238797 230.199271 
L 77.755772 229.2553 
L 79.428408 228.31133 
L 81.12492 227.367359 
L 82.7139 226.423389 
L 84.134465 225.479419 
L 85.402846 224.535448 
L 86.565449 223.591478 
L 87.654241 222.647507 
L 88.679784 221.703537 
L 89.649694 220.759567 
L 90.584759 219.815596 
L 91.520791 218.871626 
L 92.495639 217.927655 
L 93.523236 216.983685 
L 94.569138 216.039715 
L 95.554349 215.095744 
L 96.396498 214.151774 
L 97.058974 213.207803 
L 97.566776 212.263833 
L 97.98007 211.319863 
L 98.353822 210.375892 
L 98.715026 209.431922 
L 99.064533 208.487951 
L 99.390579 207.543981 
L 99.680901 206.60001 
L 99.929427 205.65604 
L 100.137939 204.71207 
L 100.31315 203.768099 
L 100.461249 202.824129 
L 100.584131 201.880158 
L 100.679944 200.936188 
L 100.746539 199.992218 
L 100.784427 199.048247 
L 100.79759 198.104277 
L 100.793306 197.160306 
L 100.782068 196.216336 
L 100.776044 195.272366 
L 100.784386 194.328395 
L 101.044895 194.328395 
L 101.044895 194.328395 
L 101.053238 195.272366 
L 101.047213 196.216336 
L 101.035976 197.160306 
L 101.031691 198.104277 
L 101.044855 199.048247 
L 101.082742 199.992218 
L 101.149338 200.936188 
L 101.245151 201.880158 
L 101.368032 202.824129 
L 101.516131 203.768099 
L 101.691343 204.71207 
L 101.899855 205.65604 
L 102.148381 206.60001 
L 102.438703 207.543981 
L 102.764749 208.487951 
L 103.114256 209.431922 
L 103.475459 210.375892 
L 103.849212 211.319863 
L 104.262506 212.263833 
L 104.770308 213.207803 
L 105.432784 214.151774 
L 106.274933 215.095744 
L 107.260144 216.039715 
L 108.306046 216.983685 
L 109.333643 217.927655 
L 110.308491 218.871626 
L 111.244523 219.815596 
L 112.179588 220.759567 
L 113.149498 221.703537 
L 114.175041 222.647507 
L 115.263832 223.591478 
L 116.426436 224.535448 
L 117.694817 225.479419 
L 119.115382 226.423389 
L 120.704361 227.367359 
L 122.400873 228.31133 
L 124.07351 229.2553 
L 125.590485 230.199271 
L 126.897123 231.143241 
L 128.03292 232.087212 
L 129.075581 233.031182 
L 130.066861 233.975152 
L 130.990218 234.919123 
L 131.812586 235.863093 
L 132.528722 236.807064 
L 133.146333 237.751034 
L 133.628672 238.695004 
L 133.870026 239.638975 
L 133.747272 240.582945 
L 133.207489 241.526916 
L 132.308762 242.470886 
L 131.174653 243.414856 
L 129.908135 244.358827 
L 128.544706 245.302797 
L 127.072501 246.246768 
L 125.478181 247.190738 
L 123.769194 248.134708 
L 121.967678 249.078679 
L 120.104955 250.022649 
L 118.232832 250.96662 
L 116.431592 251.91059 
L 114.784725 252.854561 
L 113.32973 253.798531 
L 112.036657 254.742501 
L 110.845023 255.686472 
L 109.721887 256.630442 
L 108.680088 257.574413 
L 107.747175 258.518383 
L 106.928871 259.462353 
L 106.202909 260.406324 
L 105.537391 261.350294 
L 104.909508 262.294265 
L 104.312828 263.238235 
L 103.755591 264.182205 
L 103.253643 265.126176 
L 102.81959 266.070146 
L 102.453863 267.014117 
L 102.146276 267.958087 
L 101.887679 268.902057 
L 101.678945 269.846028 
L 101.526599 270.789998 
L 101.430008 271.733969 
L 101.374281 272.677939 
L 101.335825 273.62191 
L 101.2946 274.56588 
L 101.242453 275.50985 
L 101.182516 276.453821 
L 101.122645 277.397791 
L 101.069115 278.341762 
L 101.024367 279.285732 
L 100.988374 280.229702 
L 100.960808 281.173673 
L 100.941871 282.117643 
L 100.931823 283.061614 
L 100.930269 284.005584 
L 100.935664 284.949554 
L 100.944894 285.893525 
L 100.953432 286.837495 
L 100.956872 287.781466 
z
" clip-path="url(#paf4adf3d9f)" style="fill: #fa7c17; fill-opacity: 0.3"/>
   </g>
   <g id="PolyCollection_4">
    <path d="M 430.511266 134.708991 
L 430.425727 134.708991 
L 430.42962 133.735687 
L 430.439233 132.762382 
L 430.449873 131.789077 
L 430.457081 130.815773 
L 430.457848 129.842468 
L 430.449921 128.869164 
L 430.431595 127.895859 
L 430.40378 126.922555 
L 430.372611 125.94925 
L 430.348261 124.975945 
L 430.338111 124.002641 
L 430.338752 123.029336 
L 430.334424 122.056032 
L 430.304591 121.082727 
L 430.235238 120.109423 
L 430.12551 119.136118 
L 429.985619 118.162813 
L 429.828712 117.189509 
L 429.662968 116.216204 
L 429.488421 115.2429 
L 429.299079 114.269595 
L 429.088488 113.296291 
L 428.855225 112.322986 
L 428.601717 111.349682 
L 428.321848 110.376377 
L 427.987435 109.403072 
L 427.554661 108.429768 
L 426.993745 107.456463 
L 426.313397 106.483159 
L 425.552016 105.509854 
L 424.744122 104.53655 
L 423.896046 103.563245 
L 422.988527 102.58994 
L 421.988788 101.616636 
L 420.849033 100.643331 
L 419.503722 99.670027 
L 417.900184 98.696722 
L 416.05816 97.723418 
L 414.09934 96.750113 
L 412.199847 95.776808 
L 410.491831 94.803504 
L 408.990233 93.830199 
L 407.599231 92.856895 
L 406.192776 91.88359 
L 404.713214 90.910286 
L 403.215984 89.936981 
L 401.827095 88.963676 
L 400.653912 87.990372 
L 399.721303 87.017067 
L 398.97169 86.043763 
L 398.330094 85.070458 
L 397.801441 84.097154 
L 397.513111 83.123849 
L 397.627047 82.150545 
L 398.184353 81.17724 
L 399.049788 80.203935 
L 400.024235 79.230631 
L 401.00706 78.257326 
L 402.05005 77.284022 
L 403.26868 76.310717 
L 404.705895 75.337413 
L 406.271814 74.364108 
L 407.810409 73.390803 
L 409.230229 72.417499 
L 410.575719 71.444194 
L 411.974148 70.47089 
L 413.516037 69.497585 
L 415.181525 68.524281 
L 416.863148 67.550976 
L 418.443301 66.577671 
L 419.855176 65.604367 
L 421.091291 64.631062 
L 422.175483 63.657758 
L 423.138568 62.684453 
L 424.016251 61.711149 
L 424.849506 60.737844 
L 425.666029 59.764539 
L 426.457837 58.791235 
L 427.18608 57.81793 
L 427.811863 56.844626 
L 428.320054 55.871321 
L 428.717282 54.898017 
L 429.018979 53.924712 
L 429.244749 52.951407 
L 429.420397 51.978103 
L 429.574321 51.004798 
L 429.726019 50.031494 
L 429.87678 49.058189 
L 430.012105 48.084885 
L 430.1144 47.11158 
L 430.17606 46.138276 
L 430.204558 45.164971 
L 430.217873 44.191666 
L 430.233799 43.218362 
L 430.259955 42.245057 
L 430.292109 41.271753 
L 430.322177 40.298448 
L 430.347316 39.325144 
L 430.370763 38.351839 
L 430.566229 38.351839 
L 430.566229 38.351839 
L 430.589677 39.325144 
L 430.614816 40.298448 
L 430.644884 41.271753 
L 430.677038 42.245057 
L 430.703194 43.218362 
L 430.71912 44.191666 
L 430.732435 45.164971 
L 430.760933 46.138276 
L 430.822593 47.11158 
L 430.924887 48.084885 
L 431.060212 49.058189 
L 431.210974 50.031494 
L 431.362672 51.004798 
L 431.516596 51.978103 
L 431.692243 52.951407 
L 431.918014 53.924712 
L 432.219711 54.898017 
L 432.616938 55.871321 
L 433.125129 56.844626 
L 433.750913 57.81793 
L 434.479156 58.791235 
L 435.270964 59.764539 
L 436.087486 60.737844 
L 436.920742 61.711149 
L 437.798425 62.684453 
L 438.761509 63.657758 
L 439.845701 64.631062 
L 441.081816 65.604367 
L 442.493692 66.577671 
L 444.073845 67.550976 
L 445.755467 68.524281 
L 447.420956 69.497585 
L 448.962845 70.47089 
L 450.361274 71.444194 
L 451.706763 72.417499 
L 453.126584 73.390803 
L 454.665178 74.364108 
L 456.231098 75.337413 
L 457.668313 76.310717 
L 458.886943 77.284022 
L 459.929933 78.257326 
L 460.912757 79.230631 
L 461.887205 80.203935 
L 462.752639 81.17724 
L 463.309946 82.150545 
L 463.423882 83.123849 
L 463.135551 84.097154 
L 462.606898 85.070458 
L 461.965302 86.043763 
L 461.21569 87.017067 
L 460.283081 87.990372 
L 459.109897 88.963676 
L 457.721008 89.936981 
L 456.223779 90.910286 
L 454.744216 91.88359 
L 453.337761 92.856895 
L 451.94676 93.830199 
L 450.445162 94.803504 
L 448.737146 95.776808 
L 446.837653 96.750113 
L 444.878833 97.723418 
L 443.036809 98.696722 
L 441.433271 99.670027 
L 440.08796 100.643331 
L 438.948204 101.616636 
L 437.948465 102.58994 
L 437.040947 103.563245 
L 436.192871 104.53655 
L 435.384977 105.509854 
L 434.623596 106.483159 
L 433.943248 107.456463 
L 433.382332 108.429768 
L 432.949558 109.403072 
L 432.615144 110.376377 
L 432.335276 111.349682 
L 432.081767 112.322986 
L 431.848505 113.296291 
L 431.637914 114.269595 
L 431.448572 115.2429 
L 431.274025 116.216204 
L 431.108281 117.189509 
L 430.951374 118.162813 
L 430.811483 119.136118 
L 430.701755 120.109423 
L 430.632401 121.082727 
L 430.602569 122.056032 
L 430.598241 123.029336 
L 430.598881 124.002641 
L 430.588732 124.975945 
L 430.564382 125.94925 
L 430.533212 126.922555 
L 430.505398 127.895859 
L 430.487071 128.869164 
L 430.479145 129.842468 
L 430.479912 130.815773 
L 430.487119 131.789077 
L 430.497759 132.762382 
L 430.507372 133.735687 
L 430.511266 134.708991 
z
" clip-path="url(#paf4adf3d9f)" style="fill: #fa7c17; fill-opacity: 0.3"/>
   </g>
   <g id="PolyCollection_5">
    <path d="M 430.569393 177.619629 
L 430.3676 177.619629 
L 430.361931 176.626827 
L 430.367477 175.634026 
L 430.380365 174.641224 
L 430.393968 173.648422 
L 430.399911 172.65562 
L 430.388957 171.662818 
L 430.353369 170.670016 
L 430.290885 169.677215 
L 430.20771 168.684413 
L 430.116814 167.691611 
L 430.030553 166.698809 
L 429.95189 165.706007 
L 429.871063 164.713205 
L 429.770489 163.720403 
L 429.633655 162.727602 
L 429.451327 161.7348 
L 429.221728 160.741998 
L 428.94591 159.749196 
L 428.622484 158.756394 
L 428.246489 157.763592 
L 427.813538 156.77079 
L 427.32451 155.777989 
L 426.785219 154.785187 
L 426.201113 153.792385 
L 425.572089 152.799583 
L 424.892331 151.806781 
L 424.155408 150.813979 
L 423.358454 149.821178 
L 422.498423 148.828376 
L 421.563895 147.835574 
L 420.535962 146.842772 
L 419.403044 145.84997 
L 418.174031 144.857168 
L 416.871377 143.864366 
L 415.509567 142.871565 
L 414.085142 141.878763 
L 412.592039 140.885961 
L 411.043727 139.893159 
L 409.474555 138.900357 
L 407.919967 137.907555 
L 406.402551 136.914753 
L 404.941806 135.921952 
L 403.571247 134.92915 
L 402.332055 133.936348 
L 401.241746 132.943546 
L 400.275533 131.950744 
L 399.392539 130.957942 
L 398.589916 129.965141 
L 397.934837 128.972339 
L 397.542598 127.979537 
L 397.513111 126.986735 
L 397.869691 125.993933 
L 398.54445 125.001131 
L 399.420856 124.008329 
L 400.399126 123.015528 
L 401.436677 122.022726 
L 402.545295 121.029924 
L 403.761352 120.037122 
L 405.111319 119.04432 
L 406.58425 118.051518 
L 408.122713 117.058716 
L 409.645104 116.065915 
L 411.089782 115.073113 
L 412.44257 114.080311 
L 413.722223 113.087509 
L 414.947551 112.094707 
L 416.127837 111.101905 
L 417.27939 110.109104 
L 418.433828 109.116302 
L 419.618685 108.1235 
L 420.830433 107.130698 
L 422.029687 106.137896 
L 423.162485 105.145094 
L 424.187088 104.152292 
L 425.087049 103.159491 
L 425.867568 102.166689 
L 426.543154 101.173887 
L 427.125959 100.181085 
L 427.621744 99.188283 
L 428.035247 98.195481 
L 428.378362 97.202679 
L 428.670997 96.209878 
L 428.932486 95.217076 
L 429.172589 94.224274 
L 429.390841 93.231472 
L 429.582781 92.23867 
L 429.745743 91.245868 
L 429.880668 90.253067 
L 429.991274 89.260265 
L 430.082357 88.267463 
L 430.158045 87.274661 
L 430.220859 86.281859 
L 430.271876 85.289057 
L 430.311233 84.296255 
L 430.338633 83.303454 
L 430.354622 82.310652 
L 430.362443 81.31785 
L 430.368279 80.325048 
L 430.378395 79.332246 
L 430.558598 79.332246 
L 430.558598 79.332246 
L 430.568713 80.325048 
L 430.574549 81.31785 
L 430.582371 82.310652 
L 430.59836 83.303454 
L 430.62576 84.296255 
L 430.665116 85.289057 
L 430.716133 86.281859 
L 430.778947 87.274661 
L 430.854635 88.267463 
L 430.945718 89.260265 
L 431.056325 90.253067 
L 431.19125 91.245868 
L 431.354211 92.23867 
L 431.546152 93.231472 
L 431.764404 94.224274 
L 432.004507 95.217076 
L 432.265996 96.209878 
L 432.55863 97.202679 
L 432.901745 98.195481 
L 433.315248 99.188283 
L 433.811034 100.181085 
L 434.393839 101.173887 
L 435.069425 102.166689 
L 435.849943 103.159491 
L 436.749905 104.152292 
L 437.774508 105.145094 
L 438.907305 106.137896 
L 440.10656 107.130698 
L 441.318308 108.1235 
L 442.503164 109.116302 
L 443.657602 110.109104 
L 444.809155 111.101905 
L 445.989442 112.094707 
L 447.214769 113.087509 
L 448.494422 114.080311 
L 449.847211 115.073113 
L 451.291889 116.065915 
L 452.81428 117.058716 
L 454.352743 118.051518 
L 455.825674 119.04432 
L 457.175641 120.037122 
L 458.391698 121.029924 
L 459.500316 122.022726 
L 460.537867 123.015528 
L 461.516137 124.008329 
L 462.392542 125.001131 
L 463.067302 125.993933 
L 463.423882 126.986735 
L 463.394395 127.979537 
L 463.002156 128.972339 
L 462.347077 129.965141 
L 461.544454 130.957942 
L 460.66146 131.950744 
L 459.695247 132.943546 
L 458.604938 133.936348 
L 457.365745 134.92915 
L 455.995187 135.921952 
L 454.534442 136.914753 
L 453.017025 137.907555 
L 451.462438 138.900357 
L 449.893265 139.893159 
L 448.344953 140.885961 
L 446.851851 141.878763 
L 445.427426 142.871565 
L 444.065615 143.864366 
L 442.762962 144.857168 
L 441.533949 145.84997 
L 440.40103 146.842772 
L 439.373098 147.835574 
L 438.43857 148.828376 
L 437.578539 149.821178 
L 436.781585 150.813979 
L 436.044662 151.806781 
L 435.364904 152.799583 
L 434.73588 153.792385 
L 434.151773 154.785187 
L 433.612482 155.777989 
L 433.123454 156.77079 
L 432.690503 157.763592 
L 432.314508 158.756394 
L 431.991082 159.749196 
L 431.715265 160.741998 
L 431.485666 161.7348 
L 431.303337 162.727602 
L 431.166504 163.720403 
L 431.06593 164.713205 
L 430.985103 165.706007 
L 430.906439 166.698809 
L 430.820178 167.691611 
L 430.729283 168.684413 
L 430.646108 169.677215 
L 430.583624 170.670016 
L 430.548035 171.662818 
L 430.537082 172.65562 
L 430.543025 173.648422 
L 430.556628 174.641224 
L 430.569516 175.634026 
L 430.575061 176.626827 
L 430.569393 177.619629 
z
" clip-path="url(#paf4adf3d9f)" style="fill: #328c06; fill-opacity: 0.3"/>
   </g>
   <g id="line2d_15">
    <path d="M 100.914641 261.755331 
L 430.468496 137.276029 
" clip-path="url(#paf4adf3d9f)" style="fill: none; stroke: #2a2eec; stroke-opacity: 0.25; stroke-width: 1.5; stroke-linecap: round"/>
   </g>
   <g id="line2d_16">
    <path d="M 100.914641 239.916573 
L 430.468496 149.880684 
" clip-path="url(#paf4adf3d9f)" style="fill: none; stroke: #2a2eec; stroke-opacity: 0.25; stroke-width: 1.5; stroke-linecap: round"/>
   </g>
   <g id="line2d_17">
    <path d="M 100.914641 258.737096 
L 430.468496 161.13856 
" clip-path="url(#paf4adf3d9f)" style="fill: none; stroke: #2a2eec; stroke-opacity: 0.25; stroke-width: 1.5; stroke-linecap: round"/>
   </g>
   <g id="line2d_18">
    <path d="M 100.914641 277.27084 
L 430.468496 132.115256 
" clip-path="url(#paf4adf3d9f)" style="fill: none; stroke: #2a2eec; stroke-opacity: 0.25; stroke-width: 1.5; stroke-linecap: round"/>
   </g>
   <g id="line2d_19">
    <path d="M 100.914641 245.718269 
L 430.468496 141.980011 
" clip-path="url(#paf4adf3d9f)" style="fill: none; stroke: #2a2eec; stroke-opacity: 0.25; stroke-width: 1.5; stroke-linecap: round"/>
   </g>
   <g id="line2d_20">
    <path d="M 100.914641 271.467695 
L 430.468496 157.876418 
" clip-path="url(#paf4adf3d9f)" style="fill: none; stroke: #2a2eec; stroke-opacity: 0.25; stroke-width: 1.5; stroke-linecap: round"/>
   </g>
   <g id="line2d_21">
    <path d="M 100.914641 256.655212 
L 430.468496 157.467235 
" clip-path="url(#paf4adf3d9f)" style="fill: none; stroke: #2a2eec; stroke-opacity: 0.25; stroke-width: 1.5; stroke-linecap: round"/>
   </g>
   <g id="line2d_22">
    <path d="M 100.914641 265.951578 
L 430.468496 168.735795 
" clip-path="url(#paf4adf3d9f)" style="fill: none; stroke: #2a2eec; stroke-opacity: 0.25; stroke-width: 1.5; stroke-linecap: round"/>
   </g>
   <g id="line2d_23">
    <path d="M 100.914641 266.490512 
L 430.468496 127.218393 
" clip-path="url(#paf4adf3d9f)" style="fill: none; stroke: #2a2eec; stroke-opacity: 0.25; stroke-width: 1.5; stroke-linecap: round"/>
   </g>
   <g id="line2d_24">
    <path d="M 100.914641 255.128663 
L 430.468496 160.343696 
" clip-path="url(#paf4adf3d9f)" style="fill: none; stroke: #2a2eec; stroke-opacity: 0.25; stroke-width: 1.5; stroke-linecap: round"/>
   </g>
   <g id="line2d_25">
    <path d="M 100.914641 246.043119 
L 430.468496 94.494703 
" clip-path="url(#paf4adf3d9f)" style="fill: none; stroke: #fa7c17; stroke-opacity: 0.25; stroke-width: 1.5; stroke-linecap: round"/>
   </g>
   <g id="line2d_26">
    <path d="M 100.914641 245.45776 
L 430.468496 78.338983 
" clip-path="url(#paf4adf3d9f)" style="fill: none; stroke: #fa7c17; stroke-opacity: 0.25; stroke-width: 1.5; stroke-linecap: round"/>
   </g>
   <g id="line2d_27">
    <path d="M 100.914641 236.87308 
L 430.468496 96.931191 
" clip-path="url(#paf4adf3d9f)" style="fill: none; stroke: #fa7c17; stroke-opacity: 0.25; stroke-width: 1.5; stroke-linecap: round"/>
   </g>
   <g id="line2d_28">
    <path d="M 100.914641 232.328968 
L 430.468496 91.34509 
" clip-path="url(#paf4adf3d9f)" style="fill: none; stroke: #fa7c17; stroke-opacity: 0.25; stroke-width: 1.5; stroke-linecap: round"/>
   </g>
   <g id="line2d_29">
    <path d="M 100.914641 235.573987 
L 430.468496 70.108245 
" clip-path="url(#paf4adf3d9f)" style="fill: none; stroke: #fa7c17; stroke-opacity: 0.25; stroke-width: 1.5; stroke-linecap: round"/>
   </g>
   <g id="line2d_30">
    <path d="M 100.914641 233.611691 
L 430.468496 79.138358 
" clip-path="url(#paf4adf3d9f)" style="fill: none; stroke: #fa7c17; stroke-opacity: 0.25; stroke-width: 1.5; stroke-linecap: round"/>
   </g>
   <g id="line2d_31">
    <path d="M 100.914641 235.404743 
L 430.468496 71.804131 
" clip-path="url(#paf4adf3d9f)" style="fill: none; stroke: #fa7c17; stroke-opacity: 0.25; stroke-width: 1.5; stroke-linecap: round"/>
   </g>
   <g id="line2d_32">
    <path d="M 100.914641 242.804892 
L 430.468496 76.108443 
" clip-path="url(#paf4adf3d9f)" style="fill: none; stroke: #fa7c17; stroke-opacity: 0.25; stroke-width: 1.5; stroke-linecap: round"/>
   </g>
   <g id="line2d_33">
    <path d="M 100.914641 246.355632 
L 430.468496 80.723756 
" clip-path="url(#paf4adf3d9f)" style="fill: none; stroke: #fa7c17; stroke-opacity: 0.25; stroke-width: 1.5; stroke-linecap: round"/>
   </g>
   <g id="line2d_34">
    <path d="M 100.914641 226.426781 
L 430.468496 92.538724 
" clip-path="url(#paf4adf3d9f)" style="fill: none; stroke: #fa7c17; stroke-opacity: 0.25; stroke-width: 1.5; stroke-linecap: round"/>
   </g>
   <g id="line2d_35"/>
   <g id="line2d_36"/>
   <g id="LineCollection_1">
    <path d="M 84.436948 217.320634 
L 117.392334 217.320634 
" clip-path="url(#paf4adf3d9f)" style="fill: none; stroke: #2a2eec; stroke-width: 1.5"/>
    <path d="M 413.990804 109.663167 
L 446.946189 109.663167 
" clip-path="url(#paf4adf3d9f)" style="fill: none; stroke: #2a2eec; stroke-width: 1.5"/>
   </g>
   <g id="LineCollection_2">
    <path d="M 84.436948 298.238619 
L 117.392334 298.238619 
" clip-path="url(#paf4adf3d9f)" style="fill: none; stroke: #2a2eec; stroke-width: 1.5"/>
    <path d="M 413.990804 197.909696 
L 446.946189 197.909696 
" clip-path="url(#paf4adf3d9f)" style="fill: none; stroke: #2a2eec; stroke-width: 1.5"/>
   </g>
   <g id="LineCollection_3">
    <path d="M 100.914641 298.238619 
L 100.914641 217.320634 
" clip-path="url(#paf4adf3d9f)" style="fill: none; stroke: #2a2eec; stroke-width: 1.5"/>
    <path d="M 430.468496 197.909696 
L 430.468496 109.663167 
" clip-path="url(#paf4adf3d9f)" style="fill: none; stroke: #2a2eec; stroke-width: 1.5"/>
   </g>
   <g id="LineCollection_4">
    <path d="M 84.436948 194.328395 
L 117.392334 194.328395 
" clip-path="url(#paf4adf3d9f)" style="fill: none; stroke: #fa7c17; stroke-width: 1.5"/>
    <path d="M 413.990804 38.351839 
L 446.946189 38.351839 
" clip-path="url(#paf4adf3d9f)" style="fill: none; stroke: #fa7c17; stroke-width: 1.5"/>
   </g>
   <g id="LineCollection_5">
    <path d="M 84.436948 287.781466 
L 117.392334 287.781466 
" clip-path="url(#paf4adf3d9f)" style="fill: none; stroke: #fa7c17; stroke-width: 1.5"/>
    <path d="M 413.990804 134.708991 
L 446.946189 134.708991 
" clip-path="url(#paf4adf3d9f)" style="fill: none; stroke: #fa7c17; stroke-width: 1.5"/>
   </g>
   <g id="LineCollection_6">
    <path d="M 100.914641 287.781466 
L 100.914641 194.328395 
" clip-path="url(#paf4adf3d9f)" style="fill: none; stroke: #fa7c17; stroke-width: 1.5"/>
    <path d="M 430.468496 134.708991 
L 430.468496 38.351839 
" clip-path="url(#paf4adf3d9f)" style="fill: none; stroke: #fa7c17; stroke-width: 1.5"/>
   </g>
   <g id="LineCollection_7">
    <path d="M 413.990804 79.332246 
L 446.946189 79.332246 
" clip-path="url(#paf4adf3d9f)" style="fill: none; stroke: #328c06; stroke-width: 1.5"/>
   </g>
   <g id="LineCollection_8">
    <path d="M 413.990804 177.619629 
L 446.946189 177.619629 
" clip-path="url(#paf4adf3d9f)" style="fill: none; stroke: #328c06; stroke-width: 1.5"/>
   </g>
   <g id="LineCollection_9">
    <path d="M 430.468496 177.619629 
L 430.468496 79.332246 
" clip-path="url(#paf4adf3d9f)" style="fill: none; stroke: #328c06; stroke-width: 1.5"/>
   </g>
   <g id="patch_3">
    <path d="M 51.481563 311.232957 
L 51.481563 25.3575 
" style="fill: none"/>
   </g>
   <g id="patch_4">
    <path d="M 512.85696 311.232957 
L 512.85696 25.3575 
" style="fill: none"/>
   </g>
   <g id="patch_5">
    <path d="M 51.481562 311.232957 
L 512.85696 311.232957 
" style="fill: none"/>
   </g>
   <g id="patch_6">
    <path d="M 51.481562 25.3575 
L 512.85696 25.3575 
" style="fill: none"/>
   </g>
   <g id="patch_7">
    <path d="M 479.901575 88.2924 
Q 479.901575 105.190691 479.901575 122.088981 
" style="fill: none; stroke: #008000; stroke-width: 3; stroke-linecap: round"/>
    <path d="M 477.901575 92.2924 
L 479.901575 88.2924 
L 481.901575 92.2924 
" style="fill: none; stroke: #008000; stroke-width: 3; stroke-linecap: round"/>
    <path d="M 481.901575 118.088981 
L 479.901575 122.088981 
L 477.901575 118.088981 
" style="fill: none; stroke: #008000; stroke-width: 3; stroke-linecap: round"/>
   </g>
   <g id="text_10">
    <!-- causal -->
    <g style="fill: #008000" transform="translate(484.901575 102.350233) scale(0.1 -0.1)">
     <defs>
      <path id="DejaVuSans-63" d="M 3122 3366 
L 3122 2828 
Q 2878 2963 2633 3030 
Q 2388 3097 2138 3097 
Q 1578 3097 1268 2742 
Q 959 2388 959 1747 
Q 959 1106 1268 751 
Q 1578 397 2138 397 
Q 2388 397 2633 464 
Q 2878 531 3122 666 
L 3122 134 
Q 2881 22 2623 -34 
Q 2366 -91 2075 -91 
Q 1284 -91 818 406 
Q 353 903 353 1747 
Q 353 2603 823 3093 
Q 1294 3584 2113 3584 
Q 2378 3584 2631 3529 
Q 2884 3475 3122 3366 
z
" transform="scale(0.015625)"/>
      <path id="DejaVuSans-61" d="M 2194 1759 
Q 1497 1759 1228 1600 
Q 959 1441 959 1056 
Q 959 750 1161 570 
Q 1363 391 1709 391 
Q 2188 391 2477 730 
Q 2766 1069 2766 1631 
L 2766 1759 
L 2194 1759 
z
M 3341 1997 
L 3341 0 
L 2766 0 
L 2766 531 
Q 2569 213 2275 61 
Q 1981 -91 1556 -91 
Q 1019 -91 701 211 
Q 384 513 384 1019 
Q 384 1609 779 1909 
Q 1175 2209 1959 2209 
L 2766 2209 
L 2766 2266 
Q 2766 2663 2505 2880 
Q 2244 3097 1772 3097 
Q 1472 3097 1187 3025 
Q 903 2953 641 2809 
L 641 3341 
Q 956 3463 1253 3523 
Q 1550 3584 1831 3584 
Q 2591 3584 2966 3190 
Q 3341 2797 3341 1997 
z
" transform="scale(0.015625)"/>
      <path id="DejaVuSans-75" d="M 544 1381 
L 544 3500 
L 1119 3500 
L 1119 1403 
Q 1119 906 1312 657 
Q 1506 409 1894 409 
Q 2359 409 2629 706 
Q 2900 1003 2900 1516 
L 2900 3500 
L 3475 3500 
L 3475 0 
L 2900 0 
L 2900 538 
Q 2691 219 2414 64 
Q 2138 -91 1772 -91 
Q 1169 -91 856 284 
Q 544 659 544 1381 
z
M 1991 3584 
L 1991 3584 
z
" transform="scale(0.015625)"/>
      <path id="DejaVuSans-6c" d="M 603 4863 
L 1178 4863 
L 1178 0 
L 603 0 
L 603 4863 
z
" transform="scale(0.015625)"/>
     </defs>
     <use xlink:href="#DejaVuSans-63"/>
     <use xlink:href="#DejaVuSans-61" x="54.980469"/>
     <use xlink:href="#DejaVuSans-75" x="116.259766"/>
     <use xlink:href="#DejaVuSans-73" x="179.638672"/>
     <use xlink:href="#DejaVuSans-61" x="231.738281"/>
     <use xlink:href="#DejaVuSans-6c" x="293.017578"/>
    </g>
    <!-- impact -->
    <g style="fill: #008000" transform="translate(484.901575 113.548046) scale(0.1 -0.1)">
     <defs>
      <path id="DejaVuSans-69" d="M 603 3500 
L 1178 3500 
L 1178 0 
L 603 0 
L 603 3500 
z
M 603 4863 
L 1178 4863 
L 1178 4134 
L 603 4134 
L 603 4863 
z
" transform="scale(0.015625)"/>
      <path id="DejaVuSans-6d" d="M 3328 2828 
Q 3544 3216 3844 3400 
Q 4144 3584 4550 3584 
Q 5097 3584 5394 3201 
Q 5691 2819 5691 2113 
L 5691 0 
L 5113 0 
L 5113 2094 
Q 5113 2597 4934 2840 
Q 4756 3084 4391 3084 
Q 3944 3084 3684 2787 
Q 3425 2491 3425 1978 
L 3425 0 
L 2847 0 
L 2847 2094 
Q 2847 2600 2669 2842 
Q 2491 3084 2119 3084 
Q 1678 3084 1418 2786 
Q 1159 2488 1159 1978 
L 1159 0 
L 581 0 
L 581 3500 
L 1159 3500 
L 1159 2956 
Q 1356 3278 1631 3431 
Q 1906 3584 2284 3584 
Q 2666 3584 2933 3390 
Q 3200 3197 3328 2828 
z
" transform="scale(0.015625)"/>
     </defs>
     <use xlink:href="#DejaVuSans-69"/>
     <use xlink:href="#DejaVuSans-6d" x="27.783203"/>
     <use xlink:href="#DejaVuSans-70" x="125.195312"/>
     <use xlink:href="#DejaVuSans-61" x="188.671875"/>
     <use xlink:href="#DejaVuSans-63" x="249.951172"/>
     <use xlink:href="#DejaVuSans-74" x="304.931641"/>
    </g>
   </g>
   <g id="text_11">
    <!-- Causal impact = 0.41 -->
    <g style="fill: #262626" transform="translate(195.643011 19.3575) scale(0.16 -0.16)">
     <defs>
      <path id="DejaVuSans-43" d="M 4122 4306 
L 4122 3641 
Q 3803 3938 3442 4084 
Q 3081 4231 2675 4231 
Q 1875 4231 1450 3742 
Q 1025 3253 1025 2328 
Q 1025 1406 1450 917 
Q 1875 428 2675 428 
Q 3081 428 3442 575 
Q 3803 722 4122 1019 
L 4122 359 
Q 3791 134 3420 21 
Q 3050 -91 2638 -91 
Q 1578 -91 968 557 
Q 359 1206 359 2328 
Q 359 3453 968 4101 
Q 1578 4750 2638 4750 
Q 3056 4750 3426 4639 
Q 3797 4528 4122 4306 
z
" transform="scale(0.015625)"/>
      <path id="DejaVuSans-20" transform="scale(0.015625)"/>
      <path id="DejaVuSans-3d" d="M 678 2906 
L 4684 2906 
L 4684 2381 
L 678 2381 
L 678 2906 
z
M 678 1631 
L 4684 1631 
L 4684 1100 
L 678 1100 
L 678 1631 
z
" transform="scale(0.015625)"/>
      <path id="DejaVuSans-34" d="M 2419 4116 
L 825 1625 
L 2419 1625 
L 2419 4116 
z
M 2253 4666 
L 3047 4666 
L 3047 1625 
L 3713 1625 
L 3713 1100 
L 3047 1100 
L 3047 0 
L 2419 0 
L 2419 1100 
L 313 1100 
L 313 1709 
L 2253 4666 
z
" transform="scale(0.015625)"/>
     </defs>
     <use xlink:href="#DejaVuSans-43"/>
     <use xlink:href="#DejaVuSans-61" x="69.824219"/>
     <use xlink:href="#DejaVuSans-75" x="131.103516"/>
     <use xlink:href="#DejaVuSans-73" x="194.482422"/>
     <use xlink:href="#DejaVuSans-61" x="246.582031"/>
     <use xlink:href="#DejaVuSans-6c" x="307.861328"/>
     <use xlink:href="#DejaVuSans-20" x="335.644531"/>
     <use xlink:href="#DejaVuSans-69" x="367.431641"/>
     <use xlink:href="#DejaVuSans-6d" x="395.214844"/>
     <use xlink:href="#DejaVuSans-70" x="492.626953"/>
     <use xlink:href="#DejaVuSans-61" x="556.103516"/>
     <use xlink:href="#DejaVuSans-63" x="617.382812"/>
     <use xlink:href="#DejaVuSans-74" x="672.363281"/>
     <use xlink:href="#DejaVuSans-20" x="711.572266"/>
     <use xlink:href="#DejaVuSans-3d" x="743.359375"/>
     <use xlink:href="#DejaVuSans-20" x="827.148438"/>
     <use xlink:href="#DejaVuSans-30" x="858.935547"/>
     <use xlink:href="#DejaVuSans-2e" x="922.558594"/>
     <use xlink:href="#DejaVuSans-34" x="954.345703"/>
     <use xlink:href="#DejaVuSans-31" x="1017.96875"/>
    </g>
   </g>
   <g id="legend_1">
    <g id="line2d_37">
     <path d="M 460.82196 41.075625 
L 472.82196 41.075625 
L 484.82196 41.075625 
" style="fill: none; stroke: #2a2eec; stroke-width: 1.5; stroke-linecap: round"/>
    </g>
    <g id="text_12">
     <!-- 0 -->
     <g style="fill: #262626" transform="translate(494.42196 45.275625) scale(0.12 -0.12)">
      <use xlink:href="#DejaVuSans-30"/>
     </g>
    </g>
    <g id="line2d_38">
     <path d="M 460.82196 58.689375 
L 472.82196 58.689375 
L 484.82196 58.689375 
" style="fill: none; stroke: #fa7c17; stroke-width: 1.5; stroke-linecap: round"/>
    </g>
    <g id="text_13">
     <!-- 1 -->
     <g style="fill: #262626" transform="translate(494.42196 62.889375) scale(0.12 -0.12)">
      <use xlink:href="#DejaVuSans-31"/>
     </g>
    </g>
   </g>
  </g>
 </g>
 <defs>
  <clipPath id="paf4adf3d9f">
   <rect x="51.481563" y="25.3575" width="461.375398" height="285.875457"/>
  </clipPath>
 </defs>
</svg>
