<?xml version="1.0" encoding="utf-8" standalone="no"?>
<!DOCTYPE svg PUBLIC "-//W3C//DTD SVG 1.1//EN"
  "http://www.w3.org/Graphics/SVG/1.1/DTD/svg11.dtd">
<svg xmlns:xlink="http://www.w3.org/1999/xlink" width="512.39952pt" height="584.39952pt" viewBox="0 0 512.39952 584.39952" xmlns="http://www.w3.org/2000/svg" version="1.1">
 <metadata>
  <rdf:RDF xmlns:dc="http://purl.org/dc/elements/1.1/" xmlns:cc="http://creativecommons.org/ns#" xmlns:rdf="http://www.w3.org/1999/02/22-rdf-syntax-ns#">
   <cc:Work>
    <dc:type rdf:resource="http://purl.org/dc/dcmitype/StillImage"/>
    <dc:date>2022-11-15T17:34:21.906971</dc:date>
    <dc:format>image/svg+xml</dc:format>
    <dc:creator>
     <cc:Agent>
      <dc:title>Matplotlib v3.6.2, https://matplotlib.org/</dc:title>
     </cc:Agent>
    </dc:creator>
   </cc:Work>
  </rdf:RDF>
 </metadata>
 <defs>
  <style type="text/css">*{stroke-linejoin: round; stroke-linecap: butt}</style>
 </defs>
 <g id="figure_1">
  <g id="patch_1">
   <path d="M 0 584.39952 
L 512.39952 584.39952 
L 512.39952 0 
L 0 0 
z
" style="fill: #ffffff"/>
  </g>
  <g id="axes_1">
   <g id="patch_2">
    <path d="M 37.4225 189.118062 
L 505.19952 189.118062 
L 505.19952 27.76 
L 37.4225 27.76 
z
" style="fill: #eeeeee"/>
   </g>
   <g id="matplotlib.axis_1">
    <g id="xtick_1">
     <g id="line2d_1">
      <path d="M 55.161879 189.118062 
L 55.161879 27.76 
" clip-path="url(#p21898398da)" style="fill: none; stroke: #ffffff; stroke-width: 0.8; stroke-linecap: round"/>
     </g>
     <g id="line2d_2"/>
    </g>
    <g id="xtick_2">
     <g id="line2d_3">
      <path d="M 98.02764 189.118062 
L 98.02764 27.76 
" clip-path="url(#p21898398da)" style="fill: none; stroke: #ffffff; stroke-width: 0.8; stroke-linecap: round"/>
     </g>
     <g id="line2d_4"/>
    </g>
    <g id="xtick_3">
     <g id="line2d_5">
      <path d="M 140.8934 189.118062 
L 140.8934 27.76 
" clip-path="url(#p21898398da)" style="fill: none; stroke: #ffffff; stroke-width: 0.8; stroke-linecap: round"/>
     </g>
     <g id="line2d_6"/>
    </g>
    <g id="xtick_4">
     <g id="line2d_7">
      <path d="M 183.876602 189.118062 
L 183.876602 27.76 
" clip-path="url(#p21898398da)" style="fill: none; stroke: #ffffff; stroke-width: 0.8; stroke-linecap: round"/>
     </g>
     <g id="line2d_8"/>
    </g>
    <g id="xtick_5">
     <g id="line2d_9">
      <path d="M 226.742363 189.118062 
L 226.742363 27.76 
" clip-path="url(#p21898398da)" style="fill: none; stroke: #ffffff; stroke-width: 0.8; stroke-linecap: round"/>
     </g>
     <g id="line2d_10"/>
    </g>
    <g id="xtick_6">
     <g id="line2d_11">
      <path d="M 269.608124 189.118062 
L 269.608124 27.76 
" clip-path="url(#p21898398da)" style="fill: none; stroke: #ffffff; stroke-width: 0.8; stroke-linecap: round"/>
     </g>
     <g id="line2d_12"/>
    </g>
    <g id="xtick_7">
     <g id="line2d_13">
      <path d="M 312.473885 189.118062 
L 312.473885 27.76 
" clip-path="url(#p21898398da)" style="fill: none; stroke: #ffffff; stroke-width: 0.8; stroke-linecap: round"/>
     </g>
     <g id="line2d_14"/>
    </g>
    <g id="xtick_8">
     <g id="line2d_15">
      <path d="M 355.457086 189.118062 
L 355.457086 27.76 
" clip-path="url(#p21898398da)" style="fill: none; stroke: #ffffff; stroke-width: 0.8; stroke-linecap: round"/>
     </g>
     <g id="line2d_16"/>
    </g>
    <g id="xtick_9">
     <g id="line2d_17">
      <path d="M 398.322847 189.118062 
L 398.322847 27.76 
" clip-path="url(#p21898398da)" style="fill: none; stroke: #ffffff; stroke-width: 0.8; stroke-linecap: round"/>
     </g>
     <g id="line2d_18"/>
    </g>
    <g id="xtick_10">
     <g id="line2d_19">
      <path d="M 441.188608 189.118062 
L 441.188608 27.76 
" clip-path="url(#p21898398da)" style="fill: none; stroke: #ffffff; stroke-width: 0.8; stroke-linecap: round"/>
     </g>
     <g id="line2d_20"/>
    </g>
    <g id="xtick_11">
     <g id="line2d_21">
      <path d="M 484.054369 189.118062 
L 484.054369 27.76 
" clip-path="url(#p21898398da)" style="fill: none; stroke: #ffffff; stroke-width: 0.8; stroke-linecap: round"/>
     </g>
     <g id="line2d_22"/>
    </g>
   </g>
   <g id="matplotlib.axis_2">
    <g id="ytick_1">
     <g id="line2d_23">
      <path d="M 37.4225 179.457228 
L 505.19952 179.457228 
" clip-path="url(#p21898398da)" style="fill: none; stroke: #ffffff; stroke-width: 0.8; stroke-linecap: round"/>
     </g>
     <g id="line2d_24"/>
     <g id="text_1">
      <!-- 20 -->
      <g style="fill: #262626" transform="translate(16.1075 184.776134) scale(0.14 -0.14)">
       <defs>
        <path id="DejaVuSans-32" d="M 1228 531 
L 3431 531 
L 3431 0 
L 469 0 
L 469 531 
Q 828 903 1448 1529 
Q 2069 2156 2228 2338 
Q 2531 2678 2651 2914 
Q 2772 3150 2772 3378 
Q 2772 3750 2511 3984 
Q 2250 4219 1831 4219 
Q 1534 4219 1204 4116 
Q 875 4013 500 3803 
L 500 4441 
Q 881 4594 1212 4672 
Q 1544 4750 1819 4750 
Q 2544 4750 2975 4387 
Q 3406 4025 3406 3419 
Q 3406 3131 3298 2873 
Q 3191 2616 2906 2266 
Q 2828 2175 2409 1742 
Q 1991 1309 1228 531 
z
" transform="scale(0.015625)"/>
        <path id="DejaVuSans-30" d="M 2034 4250 
Q 1547 4250 1301 3770 
Q 1056 3291 1056 2328 
Q 1056 1369 1301 889 
Q 1547 409 2034 409 
Q 2525 409 2770 889 
Q 3016 1369 3016 2328 
Q 3016 3291 2770 3770 
Q 2525 4250 2034 4250 
z
M 2034 4750 
Q 2819 4750 3233 4129 
Q 3647 3509 3647 2328 
Q 3647 1150 3233 529 
Q 2819 -91 2034 -91 
Q 1250 -91 836 529 
Q 422 1150 422 2328 
Q 422 3509 836 4129 
Q 1250 4750 2034 4750 
z
" transform="scale(0.015625)"/>
       </defs>
       <use xlink:href="#DejaVuSans-32"/>
       <use xlink:href="#DejaVuSans-30" x="63.623047"/>
      </g>
     </g>
    </g>
    <g id="ytick_2">
     <g id="line2d_25">
      <path d="M 37.4225 135.375848 
L 505.19952 135.375848 
" clip-path="url(#p21898398da)" style="fill: none; stroke: #ffffff; stroke-width: 0.8; stroke-linecap: round"/>
     </g>
     <g id="line2d_26"/>
     <g id="text_2">
      <!-- 40 -->
      <g style="fill: #262626" transform="translate(16.1075 140.694754) scale(0.14 -0.14)">
       <defs>
        <path id="DejaVuSans-34" d="M 2419 4116 
L 825 1625 
L 2419 1625 
L 2419 4116 
z
M 2253 4666 
L 3047 4666 
L 3047 1625 
L 3713 1625 
L 3713 1100 
L 3047 1100 
L 3047 0 
L 2419 0 
L 2419 1100 
L 313 1100 
L 313 1709 
L 2253 4666 
z
" transform="scale(0.015625)"/>
       </defs>
       <use xlink:href="#DejaVuSans-34"/>
       <use xlink:href="#DejaVuSans-30" x="63.623047"/>
      </g>
     </g>
    </g>
    <g id="ytick_3">
     <g id="line2d_27">
      <path d="M 37.4225 91.294467 
L 505.19952 91.294467 
" clip-path="url(#p21898398da)" style="fill: none; stroke: #ffffff; stroke-width: 0.8; stroke-linecap: round"/>
     </g>
     <g id="line2d_28"/>
     <g id="text_3">
      <!-- 60 -->
      <g style="fill: #262626" transform="translate(16.1075 96.613374) scale(0.14 -0.14)">
       <defs>
        <path id="DejaVuSans-36" d="M 2113 2584 
Q 1688 2584 1439 2293 
Q 1191 2003 1191 1497 
Q 1191 994 1439 701 
Q 1688 409 2113 409 
Q 2538 409 2786 701 
Q 3034 994 3034 1497 
Q 3034 2003 2786 2293 
Q 2538 2584 2113 2584 
z
M 3366 4563 
L 3366 3988 
Q 3128 4100 2886 4159 
Q 2644 4219 2406 4219 
Q 1781 4219 1451 3797 
Q 1122 3375 1075 2522 
Q 1259 2794 1537 2939 
Q 1816 3084 2150 3084 
Q 2853 3084 3261 2657 
Q 3669 2231 3669 1497 
Q 3669 778 3244 343 
Q 2819 -91 2113 -91 
Q 1303 -91 875 529 
Q 447 1150 447 2328 
Q 447 3434 972 4092 
Q 1497 4750 2381 4750 
Q 2619 4750 2861 4703 
Q 3103 4656 3366 4563 
z
" transform="scale(0.015625)"/>
       </defs>
       <use xlink:href="#DejaVuSans-36"/>
       <use xlink:href="#DejaVuSans-30" x="63.623047"/>
      </g>
     </g>
    </g>
    <g id="ytick_4">
     <g id="line2d_29">
      <path d="M 37.4225 47.213087 
L 505.19952 47.213087 
" clip-path="url(#p21898398da)" style="fill: none; stroke: #ffffff; stroke-width: 0.8; stroke-linecap: round"/>
     </g>
     <g id="line2d_30"/>
     <g id="text_4">
      <!-- 80 -->
      <g style="fill: #262626" transform="translate(16.1075 52.531993) scale(0.14 -0.14)">
       <defs>
        <path id="DejaVuSans-38" d="M 2034 2216 
Q 1584 2216 1326 1975 
Q 1069 1734 1069 1313 
Q 1069 891 1326 650 
Q 1584 409 2034 409 
Q 2484 409 2743 651 
Q 3003 894 3003 1313 
Q 3003 1734 2745 1975 
Q 2488 2216 2034 2216 
z
M 1403 2484 
Q 997 2584 770 2862 
Q 544 3141 544 3541 
Q 544 4100 942 4425 
Q 1341 4750 2034 4750 
Q 2731 4750 3128 4425 
Q 3525 4100 3525 3541 
Q 3525 3141 3298 2862 
Q 3072 2584 2669 2484 
Q 3125 2378 3379 2068 
Q 3634 1759 3634 1313 
Q 3634 634 3220 271 
Q 2806 -91 2034 -91 
Q 1263 -91 848 271 
Q 434 634 434 1313 
Q 434 1759 690 2068 
Q 947 2378 1403 2484 
z
M 1172 3481 
Q 1172 3119 1398 2916 
Q 1625 2713 2034 2713 
Q 2441 2713 2670 2916 
Q 2900 3119 2900 3481 
Q 2900 3844 2670 4047 
Q 2441 4250 2034 4250 
Q 1625 4250 1398 4047 
Q 1172 3844 1172 3481 
z
" transform="scale(0.015625)"/>
       </defs>
       <use xlink:href="#DejaVuSans-38"/>
       <use xlink:href="#DejaVuSans-30" x="63.623047"/>
      </g>
     </g>
    </g>
   </g>
   <g id="PolyCollection_1">
    <defs>
     <path id="m0b61cfbeda" d="M 58.685092 -420.152658 
L 58.685092 -402.615916 
L 61.973424 -408.52286 
L 65.614078 -405.764031 
L 69.137291 -419.540901 
L 72.777945 -437.074502 
L 76.301158 -458.965267 
L 79.941812 -444.952961 
L 83.582465 -478.446921 
L 87.105679 -441.285609 
L 90.746332 -426.350064 
L 94.269545 -420.424303 
L 97.910199 -408.552489 
L 101.550853 -407.690982 
L 104.839185 -414.308168 
L 108.479839 -411.305476 
L 112.003052 -424.910644 
L 115.643706 -443.311874 
L 119.166919 -464.29119 
L 122.807573 -450.682796 
L 126.448226 -484.968652 
L 129.971439 -447.418193 
L 133.612093 -432.414297 
L 137.135306 -426.043629 
L 140.77596 -414.578807 
L 144.416614 -413.247586 
L 147.822386 -420.445094 
L 151.46304 -416.516485 
L 154.986253 -430.828232 
L 158.626907 -448.489308 
L 162.15012 -470.492164 
L 165.790774 -455.758626 
L 169.431428 -490.465295 
L 172.954641 -452.861365 
L 176.595294 -437.65994 
L 180.118508 -431.413332 
L 183.759161 -419.699968 
L 187.399815 -419.446108 
L 190.688147 -425.128973 
L 194.328801 -422.150608 
L 197.852014 -435.936415 
L 201.492668 -453.653406 
L 205.015881 -475.940153 
L 208.656535 -461.827922 
L 212.297188 -495.130423 
L 215.820402 -458.402938 
L 219.461055 -443.26877 
L 222.984269 -436.891725 
L 226.624922 -425.082594 
L 230.265576 -424.313254 
L 233.553908 -431.567625 
L 237.194562 -428.208565 
L 240.717775 -441.817432 
L 244.358429 -459.276089 
L 247.881642 -481.099991 
L 251.522296 -467.667213 
L 255.162949 -501.4287 
L 258.686163 -464.002854 
L 262.326816 -448.736789 
L 265.850029 -442.434537 
L 269.490683 -430.892211 
L 273.131337 -430.219798 
L 276.419669 -436.739767 
L 280.060323 -433.379626 
L 283.583536 -446.697052 
L 287.22419 -465.233131 
L 290.747403 -487.133663 
L 294.388057 -472.400715 
L 298.02871 -506.358638 
L 301.551924 -469.147346 
L 305.192577 -454.861239 
L 308.71579 -448.310026 
L 312.356444 -436.782207 
L 315.997098 -435.533632 
L 319.402871 -442.037533 
L 323.043524 -438.301129 
L 326.566737 -452.669316 
L 330.207391 -469.939488 
L 333.730604 -491.873689 
L 337.371258 -478.133738 
L 341.011912 -512.249697 
L 344.535125 -475.022748 
L 348.175779 -459.80891 
L 351.698992 -453.806777 
L 355.339645 -441.416814 
L 355.339645 -459.372572 
L 355.339645 -459.372572 
L 351.698992 -471.069052 
L 348.175779 -477.79163 
L 344.535125 -493.113272 
L 341.011912 -529.958376 
L 337.371258 -495.836487 
L 333.730604 -509.49115 
L 330.207391 -487.436788 
L 326.566737 -470.549243 
L 323.043524 -455.861172 
L 319.402871 -459.768233 
L 315.997098 -453.186979 
L 312.356444 -454.208391 
L 308.71579 -466.372206 
L 305.192577 -472.641414 
L 301.551924 -486.789908 
L 298.02871 -523.946605 
L 294.388057 -490.295751 
L 290.747403 -504.892704 
L 287.22419 -483.211434 
L 283.583536 -464.582564 
L 280.060323 -451.054617 
L 276.419669 -453.848703 
L 273.131337 -447.358973 
L 269.490683 -448.713489 
L 265.850029 -460.17425 
L 262.326816 -466.368492 
L 258.686163 -481.157006 
L 255.162949 -518.831238 
L 251.522296 -485.119328 
L 247.881642 -498.678902 
L 244.358429 -476.995231 
L 240.717775 -459.505441 
L 237.194562 -445.642607 
L 233.553908 -449.122607 
L 230.265576 -441.455183 
L 226.624922 -442.907874 
L 222.984269 -454.990203 
L 219.461055 -460.50875 
L 215.820402 -476.011679 
L 212.297188 -512.658718 
L 208.656535 -479.062375 
L 205.015881 -493.704992 
L 201.492668 -471.275592 
L 197.852014 -453.190562 
L 194.328801 -439.568077 
L 190.688147 -442.495393 
L 187.399815 -436.894048 
L 183.759161 -437.42031 
L 180.118508 -449.158365 
L 176.595294 -455.286164 
L 172.954641 -470.346436 
L 169.431428 -507.712217 
L 165.790774 -473.416248 
L 162.15012 -487.826377 
L 158.626907 -465.879453 
L 154.986253 -448.154665 
L 151.46304 -434.205315 
L 147.822386 -437.906904 
L 144.416614 -430.408798 
L 140.77596 -431.889674 
L 137.135306 -444.28017 
L 133.612093 -449.699882 
L 129.971439 -464.937227 
L 126.448226 -502.685183 
L 122.807573 -468.440518 
L 119.166919 -481.568561 
L 115.643706 -461.15573 
L 112.003052 -442.543771 
L 108.479839 -428.909907 
L 104.839185 -431.99219 
L 101.550853 -424.958201 
L 97.910199 -426.100287 
L 94.269545 -438.340441 
L 90.746332 -443.867747 
L 87.105679 -458.949866 
L 83.582465 -496.346182 
L 79.941812 -462.673498 
L 76.301158 -476.540166 
L 72.777945 -455.03472 
L 69.137291 -437.061289 
L 65.614078 -423.411909 
L 61.973424 -426.426079 
L 58.685092 -420.152658 
z
" style="stroke: #fa7c17; stroke-opacity: 0.25"/>
    </defs>
    <g clip-path="url(#p21898398da)">
     <use xlink:href="#m0b61cfbeda" x="0" y="584.39952" style="fill: #fa7c17; fill-opacity: 0.25; stroke: #fa7c17; stroke-opacity: 0.25"/>
    </g>
   </g>
   <g id="PolyCollection_2">
    <defs>
     <path id="mfed48bde7f" d="M 358.980299 -459.056724 
L 358.980299 -441.341055 
L 362.268631 -447.794026 
L 365.909285 -444.355928 
L 369.432498 -457.408518 
L 373.073152 -475.64539 
L 376.596365 -497.778724 
L 380.237019 -484.040073 
L 383.877673 -518.040392 
L 387.400886 -480.471555 
L 391.041539 -465.086142 
L 394.564753 -459.275046 
L 398.205406 -447.488324 
L 401.84606 -446.350099 
L 405.134392 -453.609637 
L 408.775046 -450.101225 
L 412.298259 -463.18596 
L 415.938913 -481.223767 
L 419.462126 -503.106213 
L 423.10278 -489.600101 
L 426.743433 -523.210602 
L 430.266647 -485.382971 
L 433.9073 -470.545646 
L 437.430514 -465.040359 
L 441.071167 -452.720631 
L 444.711821 -451.819603 
L 448.000153 -458.717662 
L 451.640807 -454.606428 
L 455.16402 -468.983583 
L 458.804674 -486.691863 
L 462.327887 -508.630135 
L 465.968541 -494.021206 
L 469.609194 -529.083048 
L 473.132408 -490.525731 
L 476.773061 -476.318417 
L 480.296275 -470.041293 
L 483.936928 -459.024348 
L 483.936928 -477.233827 
L 483.936928 -477.233827 
L 480.296275 -488.566811 
L 476.773061 -494.233782 
L 473.132408 -509.069925 
L 469.609194 -547.405345 
L 465.968541 -512.640351 
L 462.327887 -527.024116 
L 458.804674 -505.07925 
L 455.16402 -487.676083 
L 451.640807 -472.945196 
L 448.000153 -476.684387 
L 444.711821 -469.772105 
L 441.071167 -470.697388 
L 437.430514 -482.948575 
L 433.9073 -488.729803 
L 430.266647 -502.952316 
L 426.743433 -541.333987 
L 423.10278 -507.265093 
L 419.462126 -521.312647 
L 415.938913 -499.946669 
L 412.298259 -481.630969 
L 408.775046 -468.437021 
L 405.134392 -471.476375 
L 401.84606 -464.345168 
L 398.205406 -465.989946 
L 394.564753 -477.809793 
L 391.041539 -482.766905 
L 387.400886 -498.097268 
L 383.877673 -535.774323 
L 380.237019 -501.801042 
L 376.596365 -515.71196 
L 373.073152 -493.367326 
L 369.432498 -475.606235 
L 365.909285 -462.508735 
L 362.268631 -465.755448 
L 358.980299 -459.056724 
z
" style="stroke: #fa7c17; stroke-opacity: 0.25"/>
    </defs>
    <g clip-path="url(#p21898398da)">
     <use xlink:href="#mfed48bde7f" x="0" y="584.39952" style="fill: #fa7c17; fill-opacity: 0.25; stroke: #fa7c17; stroke-opacity: 0.25"/>
    </g>
   </g>
   <g id="line2d_31">
    <path d="M 58.685092 181.783604 
L 61.973424 175.87666 
L 65.614078 178.635489 
L 69.137291 164.858619 
L 72.777945 147.325018 
L 76.301158 125.434253 
L 79.941812 139.446559 
L 83.582465 105.952599 
L 87.105679 143.113911 
L 90.746332 158.049456 
L 94.269545 163.975217 
L 97.910199 175.847031 
L 101.550853 176.708538 
L 104.839185 170.091352 
L 108.479839 173.094044 
L 112.003052 159.488876 
L 115.643706 141.087646 
L 119.166919 120.10833 
L 122.807573 133.716724 
L 126.448226 99.430868 
L 129.971439 136.981327 
L 133.612093 151.985223 
L 137.135306 158.355891 
L 140.77596 169.820713 
L 144.416614 171.151934 
L 147.822386 163.954426 
L 151.46304 167.883035 
L 154.986253 153.571288 
L 158.626907 135.910212 
L 162.15012 113.907356 
L 165.790774 128.640894 
L 169.431428 93.934225 
L 172.954641 131.538155 
L 176.595294 146.73958 
L 180.118508 152.986188 
L 183.759161 164.699552 
L 187.399815 164.953412 
L 190.688147 159.270547 
L 194.328801 162.248912 
L 197.852014 148.463105 
L 201.492668 130.746114 
L 205.015881 108.459367 
L 208.656535 122.571598 
L 212.297188 89.269097 
L 215.820402 125.996582 
L 219.461055 141.13075 
L 222.984269 147.507795 
L 226.624922 159.316926 
L 230.265576 160.086266 
L 233.553908 152.831895 
L 237.194562 156.190955 
L 240.717775 142.582088 
L 244.358429 125.123431 
L 247.881642 103.299529 
L 251.522296 116.732307 
L 255.162949 82.97082 
L 258.686163 120.396666 
L 262.326816 135.662731 
L 265.850029 141.964983 
L 269.490683 153.507309 
L 273.131337 154.179722 
L 276.419669 147.659753 
L 280.060323 151.019894 
L 283.583536 137.702468 
L 287.22419 119.166389 
L 290.747403 97.265857 
L 294.388057 111.998805 
L 298.02871 78.040882 
L 301.551924 115.252174 
L 305.192577 129.538281 
L 308.71579 136.089494 
L 312.356444 147.617313 
L 315.997098 148.865888 
L 319.402871 142.361987 
L 323.043524 146.098391 
L 326.566737 131.730204 
L 330.207391 114.460032 
L 333.730604 92.525831 
L 337.371258 106.265782 
L 341.011912 72.149823 
L 344.535125 109.376772 
L 348.175779 124.59061 
L 351.698992 130.592743 
L 355.339645 142.982706 
" clip-path="url(#p21898398da)" style="fill: none; stroke: #fa7c17; stroke-opacity: 0; stroke-width: 1.5; stroke-linecap: round"/>
   </g>
   <g id="line2d_32">
    <path d="M 58.685092 164.246862 
L 61.973424 157.973441 
L 65.614078 160.987611 
L 69.137291 147.338231 
L 72.777945 129.3648 
L 76.301158 107.859354 
L 79.941812 121.726022 
L 83.582465 88.053338 
L 87.105679 125.449654 
L 90.746332 140.531773 
L 94.269545 146.059079 
L 97.910199 158.299233 
L 101.550853 159.441319 
L 104.839185 152.40733 
L 108.479839 155.489613 
L 112.003052 141.855749 
L 115.643706 123.24379 
L 119.166919 102.830959 
L 122.807573 115.959002 
L 126.448226 81.714337 
L 129.971439 119.462293 
L 133.612093 134.699638 
L 137.135306 140.11935 
L 140.77596 152.509846 
L 144.416614 153.990722 
L 147.822386 146.492616 
L 151.46304 150.194205 
L 154.986253 136.244855 
L 158.626907 118.520067 
L 162.15012 96.573143 
L 165.790774 110.983272 
L 169.431428 76.687303 
L 172.954641 114.053084 
L 176.595294 129.113356 
L 180.118508 135.241155 
L 183.759161 146.97921 
L 187.399815 147.505472 
L 190.688147 141.904127 
L 194.328801 144.831443 
L 197.852014 131.208958 
L 201.492668 113.123928 
L 205.015881 90.694528 
L 208.656535 105.337145 
L 212.297188 71.740802 
L 215.820402 108.387841 
L 219.461055 123.89077 
L 222.984269 129.409317 
L 226.624922 141.491646 
L 230.265576 142.944337 
L 233.553908 135.276913 
L 237.194562 138.756913 
L 240.717775 124.894079 
L 244.358429 107.404289 
L 247.881642 85.720618 
L 251.522296 99.280192 
L 255.162949 65.568282 
L 258.686163 103.242514 
L 262.326816 118.031028 
L 265.850029 124.22527 
L 269.490683 135.686031 
L 273.131337 137.040547 
L 276.419669 130.550817 
L 280.060323 133.344903 
L 283.583536 119.816956 
L 287.22419 101.188086 
L 290.747403 79.506816 
L 294.388057 94.103769 
L 298.02871 60.452915 
L 301.551924 97.609612 
L 305.192577 111.758106 
L 308.71579 118.027314 
L 312.356444 130.191129 
L 315.997098 131.212541 
L 319.402871 124.631287 
L 323.043524 128.538348 
L 326.566737 113.850277 
L 330.207391 96.962732 
L 333.730604 74.90837 
L 337.371258 88.563033 
L 341.011912 54.441144 
L 344.535125 91.286248 
L 348.175779 106.60789 
L 351.698992 113.330468 
L 355.339645 125.026948 
" clip-path="url(#p21898398da)" style="fill: none; stroke: #fa7c17; stroke-opacity: 0; stroke-width: 1.5; stroke-linecap: round"/>
   </g>
   <g id="line2d_33">
    <path d="M 58.685092 173.458094 
L 61.973424 166.693919 
L 65.614078 169.890004 
L 69.137291 156.364252 
L 72.777945 138.366547 
L 76.301158 116.581287 
L 79.941812 130.613978 
L 83.582465 96.426747 
L 87.105679 133.967465 
L 90.746332 149.03953 
L 94.269545 154.997884 
L 97.910199 167.042924 
L 101.550853 167.842473 
L 104.839185 161.034692 
L 108.479839 164.378722 
L 112.003052 150.817003 
L 115.643706 132.828222 
L 119.166919 111.003318 
L 122.807573 124.880186 
L 126.448226 90.904499 
L 129.971439 128.460317 
L 133.612093 143.39395 
L 137.135306 149.441179 
L 140.77596 161.465129 
L 144.416614 162.270138 
L 147.822386 155.672843 
L 151.46304 158.815152 
L 154.986253 145.120887 
L 158.626907 127.35705 
L 162.15012 105.455932 
L 165.790774 119.497155 
L 169.431428 85.354692 
L 172.954641 122.862101 
L 176.595294 137.934947 
L 180.118508 143.979038 
L 183.759161 155.900144 
L 187.399815 156.769786 
L 190.688147 149.96939 
L 194.328801 153.167946 
L 197.852014 139.564254 
L 201.492668 122.003017 
L 205.015881 99.855299 
L 208.656535 113.890303 
L 212.297188 79.827155 
L 215.820402 117.379554 
L 219.461055 132.33633 
L 222.984269 138.34679 
L 226.624922 150.423115 
L 230.265576 151.091564 
L 233.553908 144.391314 
L 237.194562 147.657976 
L 240.717775 134.023424 
L 244.358429 116.227148 
L 247.881642 94.334931 
L 251.522296 108.272599 
L 255.162949 74.169058 
L 258.686163 111.821767 
L 262.326816 126.755599 
L 265.850029 132.801944 
L 269.490683 144.887369 
L 273.131337 145.661399 
L 276.419669 138.917391 
L 280.060323 142.103283 
L 283.583536 128.413977 
L 287.22419 110.818229 
L 290.747403 88.825873 
L 294.388057 102.760222 
L 298.02871 68.565011 
L 301.551924 106.31255 
L 305.192577 121.240211 
L 308.71579 127.247641 
L 312.356444 139.388725 
L 315.997098 140.172387 
L 319.402871 133.298432 
L 323.043524 136.55518 
L 326.566737 122.979529 
L 330.207391 105.276274 
L 333.730604 83.265602 
L 337.371258 97.211735 
L 341.011912 63.167935 
L 344.535125 100.594874 
L 348.175779 115.848246 
L 351.698992 121.666592 
L 355.339645 133.828306 
" clip-path="url(#p21898398da)" style="fill: none; stroke: #000000; stroke-width: 1.5; stroke-linecap: round"/>
   </g>
   <g id="line2d_34">
    <defs>
     <path id="m3d92c2af52" d="M 0 1.5 
C 0.397805 1.5 0.77937 1.341951 1.06066 1.06066 
C 1.341951 0.77937 1.5 0.397805 1.5 0 
C 1.5 -0.397805 1.341951 -0.77937 1.06066 -1.06066 
C 0.77937 -1.341951 0.397805 -1.5 0 -1.5 
C -0.397805 -1.5 -0.77937 -1.341951 -1.06066 -1.06066 
C -1.341951 -0.77937 -1.5 -0.397805 -1.5 0 
C -1.5 0.397805 -1.341951 0.77937 -1.06066 1.06066 
C -0.77937 1.341951 -0.397805 1.5 0 1.5 
z
" style="stroke: #000000"/>
    </defs>
    <g clip-path="url(#p21898398da)">
     <use xlink:href="#m3d92c2af52" x="58.685092" y="168.308637" style="stroke: #000000"/>
     <use xlink:href="#m3d92c2af52" x="61.973424" y="163.610386" style="stroke: #000000"/>
     <use xlink:href="#m3d92c2af52" x="65.614078" y="165.158217" style="stroke: #000000"/>
     <use xlink:href="#m3d92c2af52" x="69.137291" y="154.679709" style="stroke: #000000"/>
     <use xlink:href="#m3d92c2af52" x="72.777945" y="133.71404" style="stroke: #000000"/>
     <use xlink:href="#m3d92c2af52" x="76.301158" y="116.862188" style="stroke: #000000"/>
     <use xlink:href="#m3d92c2af52" x="79.941812" y="129.979463" style="stroke: #000000"/>
     <use xlink:href="#m3d92c2af52" x="83.582465" y="103.003384" style="stroke: #000000"/>
     <use xlink:href="#m3d92c2af52" x="87.105679" y="137.122816" style="stroke: #000000"/>
     <use xlink:href="#m3d92c2af52" x="90.746332" y="152.246485" style="stroke: #000000"/>
     <use xlink:href="#m3d92c2af52" x="94.269545" y="155.003643" style="stroke: #000000"/>
     <use xlink:href="#m3d92c2af52" x="97.910199" y="164.365199" style="stroke: #000000"/>
     <use xlink:href="#m3d92c2af52" x="101.550853" y="174.617968" style="stroke: #000000"/>
     <use xlink:href="#m3d92c2af52" x="104.839185" y="154.85949" style="stroke: #000000"/>
     <use xlink:href="#m3d92c2af52" x="108.479839" y="160.807538" style="stroke: #000000"/>
     <use xlink:href="#m3d92c2af52" x="112.003052" y="147.759505" style="stroke: #000000"/>
     <use xlink:href="#m3d92c2af52" x="115.643706" y="137.499269" style="stroke: #000000"/>
     <use xlink:href="#m3d92c2af52" x="119.166919" y="116.368161" style="stroke: #000000"/>
     <use xlink:href="#m3d92c2af52" x="122.807573" y="122.321754" style="stroke: #000000"/>
     <use xlink:href="#m3d92c2af52" x="126.448226" y="95.541477" style="stroke: #000000"/>
     <use xlink:href="#m3d92c2af52" x="129.971439" y="131.484063" style="stroke: #000000"/>
     <use xlink:href="#m3d92c2af52" x="133.612093" y="144.550407" style="stroke: #000000"/>
     <use xlink:href="#m3d92c2af52" x="137.135306" y="153.758064" style="stroke: #000000"/>
     <use xlink:href="#m3d92c2af52" x="140.77596" y="165.859092" style="stroke: #000000"/>
     <use xlink:href="#m3d92c2af52" x="144.416614" y="162.361513" style="stroke: #000000"/>
     <use xlink:href="#m3d92c2af52" x="147.822386" y="147.353868" style="stroke: #000000"/>
     <use xlink:href="#m3d92c2af52" x="151.46304" y="162.867213" style="stroke: #000000"/>
     <use xlink:href="#m3d92c2af52" x="154.986253" y="147.785422" style="stroke: #000000"/>
     <use xlink:href="#m3d92c2af52" x="158.626907" y="124.733115" style="stroke: #000000"/>
     <use xlink:href="#m3d92c2af52" x="162.15012" y="105.944929" style="stroke: #000000"/>
     <use xlink:href="#m3d92c2af52" x="165.790774" y="116.631823" style="stroke: #000000"/>
     <use xlink:href="#m3d92c2af52" x="169.431428" y="82.821885" style="stroke: #000000"/>
     <use xlink:href="#m3d92c2af52" x="172.954641" y="121.917048" style="stroke: #000000"/>
     <use xlink:href="#m3d92c2af52" x="176.595294" y="134.452434" style="stroke: #000000"/>
     <use xlink:href="#m3d92c2af52" x="180.118508" y="144.636493" style="stroke: #000000"/>
     <use xlink:href="#m3d92c2af52" x="183.759161" y="157.601979" style="stroke: #000000"/>
     <use xlink:href="#m3d92c2af52" x="187.399815" y="156.651159" style="stroke: #000000"/>
     <use xlink:href="#m3d92c2af52" x="190.688147" y="161.000876" style="stroke: #000000"/>
     <use xlink:href="#m3d92c2af52" x="194.328801" y="152.599909" style="stroke: #000000"/>
     <use xlink:href="#m3d92c2af52" x="197.852014" y="143.405856" style="stroke: #000000"/>
     <use xlink:href="#m3d92c2af52" x="201.492668" y="122.632585" style="stroke: #000000"/>
     <use xlink:href="#m3d92c2af52" x="205.015881" y="99.134941" style="stroke: #000000"/>
     <use xlink:href="#m3d92c2af52" x="208.656535" y="111.521617" style="stroke: #000000"/>
     <use xlink:href="#m3d92c2af52" x="212.297188" y="76.92495" style="stroke: #000000"/>
     <use xlink:href="#m3d92c2af52" x="215.820402" y="123.55046" style="stroke: #000000"/>
     <use xlink:href="#m3d92c2af52" x="219.461055" y="127.769574" style="stroke: #000000"/>
     <use xlink:href="#m3d92c2af52" x="222.984269" y="143.068122" style="stroke: #000000"/>
     <use xlink:href="#m3d92c2af52" x="226.624922" y="152.630379" style="stroke: #000000"/>
     <use xlink:href="#m3d92c2af52" x="230.265576" y="145.293225" style="stroke: #000000"/>
     <use xlink:href="#m3d92c2af52" x="233.553908" y="146.400801" style="stroke: #000000"/>
     <use xlink:href="#m3d92c2af52" x="237.194562" y="142.72322" style="stroke: #000000"/>
     <use xlink:href="#m3d92c2af52" x="240.717775" y="130.078227" style="stroke: #000000"/>
     <use xlink:href="#m3d92c2af52" x="244.358429" y="122.920019" style="stroke: #000000"/>
     <use xlink:href="#m3d92c2af52" x="247.881642" y="93.990262" style="stroke: #000000"/>
     <use xlink:href="#m3d92c2af52" x="251.522296" y="108.811217" style="stroke: #000000"/>
     <use xlink:href="#m3d92c2af52" x="255.162949" y="69.335374" style="stroke: #000000"/>
     <use xlink:href="#m3d92c2af52" x="258.686163" y="108.457188" style="stroke: #000000"/>
     <use xlink:href="#m3d92c2af52" x="262.326816" y="126.064605" style="stroke: #000000"/>
     <use xlink:href="#m3d92c2af52" x="265.850029" y="132.491935" style="stroke: #000000"/>
     <use xlink:href="#m3d92c2af52" x="269.490683" y="145.496983" style="stroke: #000000"/>
     <use xlink:href="#m3d92c2af52" x="273.131337" y="150.07822" style="stroke: #000000"/>
     <use xlink:href="#m3d92c2af52" x="276.419669" y="141.897093" style="stroke: #000000"/>
     <use xlink:href="#m3d92c2af52" x="280.060323" y="143.495898" style="stroke: #000000"/>
     <use xlink:href="#m3d92c2af52" x="283.583536" y="127.140046" style="stroke: #000000"/>
     <use xlink:href="#m3d92c2af52" x="287.22419" y="107.192614" style="stroke: #000000"/>
     <use xlink:href="#m3d92c2af52" x="290.747403" y="82.799438" style="stroke: #000000"/>
     <use xlink:href="#m3d92c2af52" x="294.388057" y="100.310536" style="stroke: #000000"/>
     <use xlink:href="#m3d92c2af52" x="298.02871" y="67.435235" style="stroke: #000000"/>
     <use xlink:href="#m3d92c2af52" x="301.551924" y="104.276939" style="stroke: #000000"/>
     <use xlink:href="#m3d92c2af52" x="305.192577" y="125.775395" style="stroke: #000000"/>
     <use xlink:href="#m3d92c2af52" x="308.71579" y="118.443614" style="stroke: #000000"/>
     <use xlink:href="#m3d92c2af52" x="312.356444" y="135.849396" style="stroke: #000000"/>
     <use xlink:href="#m3d92c2af52" x="315.997098" y="140.2141" style="stroke: #000000"/>
     <use xlink:href="#m3d92c2af52" x="319.402871" y="135.15103" style="stroke: #000000"/>
     <use xlink:href="#m3d92c2af52" x="323.043524" y="145.452499" style="stroke: #000000"/>
     <use xlink:href="#m3d92c2af52" x="326.566737" y="126.669138" style="stroke: #000000"/>
     <use xlink:href="#m3d92c2af52" x="330.207391" y="103.876505" style="stroke: #000000"/>
     <use xlink:href="#m3d92c2af52" x="333.730604" y="83.727054" style="stroke: #000000"/>
     <use xlink:href="#m3d92c2af52" x="337.371258" y="107.464005" style="stroke: #000000"/>
     <use xlink:href="#m3d92c2af52" x="341.011912" y="63.167428" style="stroke: #000000"/>
     <use xlink:href="#m3d92c2af52" x="344.535125" y="94.105755" style="stroke: #000000"/>
     <use xlink:href="#m3d92c2af52" x="348.175779" y="115.625251" style="stroke: #000000"/>
     <use xlink:href="#m3d92c2af52" x="351.698992" y="120.815559" style="stroke: #000000"/>
     <use xlink:href="#m3d92c2af52" x="355.339645" y="131.120324" style="stroke: #000000"/>
    </g>
   </g>
   <g id="line2d_35">
    <path d="M 358.980299 143.058465 
L 362.268631 136.605494 
L 365.909285 140.043592 
L 369.432498 126.991002 
L 373.073152 108.75413 
L 376.596365 86.620796 
L 380.237019 100.359447 
L 383.877673 66.359128 
L 387.400886 103.927965 
L 391.041539 119.313378 
L 394.564753 125.124474 
L 398.205406 136.911196 
L 401.84606 138.049421 
L 405.134392 130.789883 
L 408.775046 134.298295 
L 412.298259 121.21356 
L 415.938913 103.175753 
L 419.462126 81.293307 
L 423.10278 94.799419 
L 426.743433 61.188918 
L 430.266647 99.016549 
L 433.9073 113.853874 
L 437.430514 119.359161 
L 441.071167 131.678889 
L 444.711821 132.579917 
L 448.000153 125.681858 
L 451.640807 129.793092 
L 455.16402 115.415937 
L 458.804674 97.707657 
L 462.327887 75.769385 
L 465.968541 90.378314 
L 469.609194 55.316472 
L 473.132408 93.873789 
L 476.773061 108.081103 
L 480.296275 114.358227 
L 483.936928 125.375172 
" clip-path="url(#p21898398da)" style="fill: none; stroke: #fa7c17; stroke-opacity: 0; stroke-width: 1.5; stroke-linecap: round"/>
   </g>
   <g id="line2d_36">
    <path d="M 358.980299 125.342796 
L 362.268631 118.644072 
L 365.909285 121.890785 
L 369.432498 108.793285 
L 373.073152 91.032194 
L 376.596365 68.68756 
L 380.237019 82.598478 
L 383.877673 48.625197 
L 387.400886 86.302252 
L 391.041539 101.632615 
L 394.564753 106.589727 
L 398.205406 118.409574 
L 401.84606 120.054352 
L 405.134392 112.923145 
L 408.775046 115.962499 
L 412.298259 102.768551 
L 415.938913 84.452851 
L 419.462126 63.086873 
L 423.10278 77.134427 
L 426.743433 43.065533 
L 430.266647 81.447204 
L 433.9073 95.669717 
L 437.430514 101.450945 
L 441.071167 113.702132 
L 444.711821 114.627415 
L 448.000153 107.715133 
L 451.640807 111.454324 
L 455.16402 96.723437 
L 458.804674 79.32027 
L 462.327887 57.375404 
L 465.968541 71.759169 
L 469.609194 36.994175 
L 473.132408 75.329595 
L 476.773061 90.165738 
L 480.296275 95.832709 
L 483.936928 107.165693 
" clip-path="url(#p21898398da)" style="fill: none; stroke: #fa7c17; stroke-opacity: 0; stroke-width: 1.5; stroke-linecap: round"/>
   </g>
   <g id="line2d_37">
    <path d="M 358.980299 134.60733 
L 362.268631 127.779322 
L 365.909285 131.179202 
L 369.432498 117.432745 
L 373.073152 99.524685 
L 376.596365 77.551283 
L 380.237019 91.724231 
L 383.877673 57.520012 
L 387.400886 95.201663 
L 391.041539 110.071327 
L 394.564753 116.098318 
L 398.205406 128.184433 
L 401.84606 128.922139 
L 405.134392 122.346242 
L 408.775046 125.297165 
L 412.298259 111.78619 
L 415.938913 93.955745 
L 419.462126 72.047088 
L 423.10278 86.143862 
L 426.743433 52.021642 
L 430.266647 89.806096 
L 433.9073 104.538728 
L 437.430514 110.558002 
L 441.071167 122.508899 
L 444.711821 123.416528 
L 448.000153 116.614332 
L 451.640807 120.023733 
L 455.16402 106.315902 
L 458.804674 88.39269 
L 462.327887 66.548728 
L 465.968541 80.572266 
L 469.609194 46.412046 
L 473.132408 84.032602 
L 476.773061 98.949069 
L 480.296275 104.920777 
L 483.936928 117.029726 
" clip-path="url(#p21898398da)" style="fill: none; stroke: #000000; stroke-width: 1.5; stroke-linecap: round"/>
   </g>
   <g id="line2d_38">
    <g clip-path="url(#p21898398da)">
     <use xlink:href="#m3d92c2af52" x="358.980299" y="143.309433" style="stroke: #000000"/>
     <use xlink:href="#m3d92c2af52" x="362.268631" y="126.86287" style="stroke: #000000"/>
     <use xlink:href="#m3d92c2af52" x="365.909285" y="136.033326" style="stroke: #000000"/>
     <use xlink:href="#m3d92c2af52" x="369.432498" y="127.004634" style="stroke: #000000"/>
     <use xlink:href="#m3d92c2af52" x="373.073152" y="99.42255" style="stroke: #000000"/>
     <use xlink:href="#m3d92c2af52" x="376.596365" y="76.06242" style="stroke: #000000"/>
     <use xlink:href="#m3d92c2af52" x="380.237019" y="73.373016" style="stroke: #000000"/>
     <use xlink:href="#m3d92c2af52" x="383.877673" y="35.094457" style="stroke: #000000"/>
     <use xlink:href="#m3d92c2af52" x="387.400886" y="66.602887" style="stroke: #000000"/>
     <use xlink:href="#m3d92c2af52" x="391.041539" y="79.694033" style="stroke: #000000"/>
     <use xlink:href="#m3d92c2af52" x="394.564753" y="93.897809" style="stroke: #000000"/>
     <use xlink:href="#m3d92c2af52" x="398.205406" y="105.229483" style="stroke: #000000"/>
     <use xlink:href="#m3d92c2af52" x="401.84606" y="115.785808" style="stroke: #000000"/>
     <use xlink:href="#m3d92c2af52" x="405.134392" y="112.785157" style="stroke: #000000"/>
     <use xlink:href="#m3d92c2af52" x="408.775046" y="121.292545" style="stroke: #000000"/>
     <use xlink:href="#m3d92c2af52" x="412.298259" y="109.188741" style="stroke: #000000"/>
     <use xlink:href="#m3d92c2af52" x="415.938913" y="89.405171" style="stroke: #000000"/>
     <use xlink:href="#m3d92c2af52" x="419.462126" y="72.018973" style="stroke: #000000"/>
     <use xlink:href="#m3d92c2af52" x="423.10278" y="73.258727" style="stroke: #000000"/>
     <use xlink:href="#m3d92c2af52" x="426.743433" y="53.800965" style="stroke: #000000"/>
     <use xlink:href="#m3d92c2af52" x="430.266647" y="87.1981" style="stroke: #000000"/>
     <use xlink:href="#m3d92c2af52" x="433.9073" y="97.708299" style="stroke: #000000"/>
     <use xlink:href="#m3d92c2af52" x="437.430514" y="111.870812" style="stroke: #000000"/>
     <use xlink:href="#m3d92c2af52" x="441.071167" y="127.891333" style="stroke: #000000"/>
     <use xlink:href="#m3d92c2af52" x="444.711821" y="129.890605" style="stroke: #000000"/>
     <use xlink:href="#m3d92c2af52" x="448.000153" y="115.952841" style="stroke: #000000"/>
     <use xlink:href="#m3d92c2af52" x="451.640807" y="124.278306" style="stroke: #000000"/>
     <use xlink:href="#m3d92c2af52" x="455.16402" y="110.767844" style="stroke: #000000"/>
     <use xlink:href="#m3d92c2af52" x="458.804674" y="90.640508" style="stroke: #000000"/>
     <use xlink:href="#m3d92c2af52" x="462.327887" y="75.551801" style="stroke: #000000"/>
     <use xlink:href="#m3d92c2af52" x="465.968541" y="77.991374" style="stroke: #000000"/>
     <use xlink:href="#m3d92c2af52" x="469.609194" y="50.208616" style="stroke: #000000"/>
     <use xlink:href="#m3d92c2af52" x="473.132408" y="84.468498" style="stroke: #000000"/>
     <use xlink:href="#m3d92c2af52" x="476.773061" y="85.375764" style="stroke: #000000"/>
     <use xlink:href="#m3d92c2af52" x="480.296275" y="114.404295" style="stroke: #000000"/>
     <use xlink:href="#m3d92c2af52" x="483.936928" y="118.378962" style="stroke: #000000"/>
    </g>
   </g>
   <g id="line2d_39">
    <path d="M 355.457086 189.118062 
L 355.457086 27.76 
" clip-path="url(#p21898398da)" style="fill: none; stroke: #ff0000; stroke-width: 3; stroke-linecap: round"/>
   </g>
   <g id="patch_3">
    <path d="M 37.4225 189.118062 
L 37.4225 27.76 
" style="fill: none"/>
   </g>
   <g id="patch_4">
    <path d="M 505.19952 189.118062 
L 505.19952 27.76 
" style="fill: none"/>
   </g>
   <g id="patch_5">
    <path d="M 37.4225 189.118062 
L 505.19952 189.118062 
" style="fill: none"/>
   </g>
   <g id="patch_6">
    <path d="M 37.4225 27.76 
L 505.19952 27.76 
" style="fill: none"/>
   </g>
   <g id="text_5">
    <!-- $R^2$ on pre-intervention data = 0.975 -->
    <g style="fill: #262626" transform="translate(126.19101 21.76) scale(0.16 -0.16)">
     <defs>
      <path id="DejaVuSans-Oblique-52" d="M 1613 4147 
L 1294 2491 
L 2106 2491 
Q 2584 2491 2879 2755 
Q 3175 3019 3175 3444 
Q 3175 3784 2976 3965 
Q 2778 4147 2406 4147 
L 1613 4147 
z
M 2772 2241 
Q 2972 2194 3105 2009 
Q 3238 1825 3413 1275 
L 3809 0 
L 3144 0 
L 2778 1197 
Q 2638 1659 2453 1815 
Q 2269 1972 1888 1972 
L 1191 1972 
L 806 0 
L 172 0 
L 1081 4666 
L 2503 4666 
Q 3150 4666 3495 4373 
Q 3841 4081 3841 3531 
Q 3841 3044 3547 2687 
Q 3253 2331 2772 2241 
z
" transform="scale(0.015625)"/>
      <path id="DejaVuSans-20" transform="scale(0.015625)"/>
      <path id="DejaVuSans-6f" d="M 1959 3097 
Q 1497 3097 1228 2736 
Q 959 2375 959 1747 
Q 959 1119 1226 758 
Q 1494 397 1959 397 
Q 2419 397 2687 759 
Q 2956 1122 2956 1747 
Q 2956 2369 2687 2733 
Q 2419 3097 1959 3097 
z
M 1959 3584 
Q 2709 3584 3137 3096 
Q 3566 2609 3566 1747 
Q 3566 888 3137 398 
Q 2709 -91 1959 -91 
Q 1206 -91 779 398 
Q 353 888 353 1747 
Q 353 2609 779 3096 
Q 1206 3584 1959 3584 
z
" transform="scale(0.015625)"/>
      <path id="DejaVuSans-6e" d="M 3513 2113 
L 3513 0 
L 2938 0 
L 2938 2094 
Q 2938 2591 2744 2837 
Q 2550 3084 2163 3084 
Q 1697 3084 1428 2787 
Q 1159 2491 1159 1978 
L 1159 0 
L 581 0 
L 581 3500 
L 1159 3500 
L 1159 2956 
Q 1366 3272 1645 3428 
Q 1925 3584 2291 3584 
Q 2894 3584 3203 3211 
Q 3513 2838 3513 2113 
z
" transform="scale(0.015625)"/>
      <path id="DejaVuSans-70" d="M 1159 525 
L 1159 -1331 
L 581 -1331 
L 581 3500 
L 1159 3500 
L 1159 2969 
Q 1341 3281 1617 3432 
Q 1894 3584 2278 3584 
Q 2916 3584 3314 3078 
Q 3713 2572 3713 1747 
Q 3713 922 3314 415 
Q 2916 -91 2278 -91 
Q 1894 -91 1617 61 
Q 1341 213 1159 525 
z
M 3116 1747 
Q 3116 2381 2855 2742 
Q 2594 3103 2138 3103 
Q 1681 3103 1420 2742 
Q 1159 2381 1159 1747 
Q 1159 1113 1420 752 
Q 1681 391 2138 391 
Q 2594 391 2855 752 
Q 3116 1113 3116 1747 
z
" transform="scale(0.015625)"/>
      <path id="DejaVuSans-72" d="M 2631 2963 
Q 2534 3019 2420 3045 
Q 2306 3072 2169 3072 
Q 1681 3072 1420 2755 
Q 1159 2438 1159 1844 
L 1159 0 
L 581 0 
L 581 3500 
L 1159 3500 
L 1159 2956 
Q 1341 3275 1631 3429 
Q 1922 3584 2338 3584 
Q 2397 3584 2469 3576 
Q 2541 3569 2628 3553 
L 2631 2963 
z
" transform="scale(0.015625)"/>
      <path id="DejaVuSans-65" d="M 3597 1894 
L 3597 1613 
L 953 1613 
Q 991 1019 1311 708 
Q 1631 397 2203 397 
Q 2534 397 2845 478 
Q 3156 559 3463 722 
L 3463 178 
Q 3153 47 2828 -22 
Q 2503 -91 2169 -91 
Q 1331 -91 842 396 
Q 353 884 353 1716 
Q 353 2575 817 3079 
Q 1281 3584 2069 3584 
Q 2775 3584 3186 3129 
Q 3597 2675 3597 1894 
z
M 3022 2063 
Q 3016 2534 2758 2815 
Q 2500 3097 2075 3097 
Q 1594 3097 1305 2825 
Q 1016 2553 972 2059 
L 3022 2063 
z
" transform="scale(0.015625)"/>
      <path id="DejaVuSans-2d" d="M 313 2009 
L 1997 2009 
L 1997 1497 
L 313 1497 
L 313 2009 
z
" transform="scale(0.015625)"/>
      <path id="DejaVuSans-69" d="M 603 3500 
L 1178 3500 
L 1178 0 
L 603 0 
L 603 3500 
z
M 603 4863 
L 1178 4863 
L 1178 4134 
L 603 4134 
L 603 4863 
z
" transform="scale(0.015625)"/>
      <path id="DejaVuSans-74" d="M 1172 4494 
L 1172 3500 
L 2356 3500 
L 2356 3053 
L 1172 3053 
L 1172 1153 
Q 1172 725 1289 603 
Q 1406 481 1766 481 
L 2356 481 
L 2356 0 
L 1766 0 
Q 1100 0 847 248 
Q 594 497 594 1153 
L 594 3053 
L 172 3053 
L 172 3500 
L 594 3500 
L 594 4494 
L 1172 4494 
z
" transform="scale(0.015625)"/>
      <path id="DejaVuSans-76" d="M 191 3500 
L 800 3500 
L 1894 563 
L 2988 3500 
L 3597 3500 
L 2284 0 
L 1503 0 
L 191 3500 
z
" transform="scale(0.015625)"/>
      <path id="DejaVuSans-64" d="M 2906 2969 
L 2906 4863 
L 3481 4863 
L 3481 0 
L 2906 0 
L 2906 525 
Q 2725 213 2448 61 
Q 2172 -91 1784 -91 
Q 1150 -91 751 415 
Q 353 922 353 1747 
Q 353 2572 751 3078 
Q 1150 3584 1784 3584 
Q 2172 3584 2448 3432 
Q 2725 3281 2906 2969 
z
M 947 1747 
Q 947 1113 1208 752 
Q 1469 391 1925 391 
Q 2381 391 2643 752 
Q 2906 1113 2906 1747 
Q 2906 2381 2643 2742 
Q 2381 3103 1925 3103 
Q 1469 3103 1208 2742 
Q 947 2381 947 1747 
z
" transform="scale(0.015625)"/>
      <path id="DejaVuSans-61" d="M 2194 1759 
Q 1497 1759 1228 1600 
Q 959 1441 959 1056 
Q 959 750 1161 570 
Q 1363 391 1709 391 
Q 2188 391 2477 730 
Q 2766 1069 2766 1631 
L 2766 1759 
L 2194 1759 
z
M 3341 1997 
L 3341 0 
L 2766 0 
L 2766 531 
Q 2569 213 2275 61 
Q 1981 -91 1556 -91 
Q 1019 -91 701 211 
Q 384 513 384 1019 
Q 384 1609 779 1909 
Q 1175 2209 1959 2209 
L 2766 2209 
L 2766 2266 
Q 2766 2663 2505 2880 
Q 2244 3097 1772 3097 
Q 1472 3097 1187 3025 
Q 903 2953 641 2809 
L 641 3341 
Q 956 3463 1253 3523 
Q 1550 3584 1831 3584 
Q 2591 3584 2966 3190 
Q 3341 2797 3341 1997 
z
" transform="scale(0.015625)"/>
      <path id="DejaVuSans-3d" d="M 678 2906 
L 4684 2906 
L 4684 2381 
L 678 2381 
L 678 2906 
z
M 678 1631 
L 4684 1631 
L 4684 1100 
L 678 1100 
L 678 1631 
z
" transform="scale(0.015625)"/>
      <path id="DejaVuSans-2e" d="M 684 794 
L 1344 794 
L 1344 0 
L 684 0 
L 684 794 
z
" transform="scale(0.015625)"/>
      <path id="DejaVuSans-39" d="M 703 97 
L 703 672 
Q 941 559 1184 500 
Q 1428 441 1663 441 
Q 2288 441 2617 861 
Q 2947 1281 2994 2138 
Q 2813 1869 2534 1725 
Q 2256 1581 1919 1581 
Q 1219 1581 811 2004 
Q 403 2428 403 3163 
Q 403 3881 828 4315 
Q 1253 4750 1959 4750 
Q 2769 4750 3195 4129 
Q 3622 3509 3622 2328 
Q 3622 1225 3098 567 
Q 2575 -91 1691 -91 
Q 1453 -91 1209 -44 
Q 966 3 703 97 
z
M 1959 2075 
Q 2384 2075 2632 2365 
Q 2881 2656 2881 3163 
Q 2881 3666 2632 3958 
Q 2384 4250 1959 4250 
Q 1534 4250 1286 3958 
Q 1038 3666 1038 3163 
Q 1038 2656 1286 2365 
Q 1534 2075 1959 2075 
z
" transform="scale(0.015625)"/>
      <path id="DejaVuSans-37" d="M 525 4666 
L 3525 4666 
L 3525 4397 
L 1831 0 
L 1172 0 
L 2766 4134 
L 525 4134 
L 525 4666 
z
" transform="scale(0.015625)"/>
      <path id="DejaVuSans-35" d="M 691 4666 
L 3169 4666 
L 3169 4134 
L 1269 4134 
L 1269 2991 
Q 1406 3038 1543 3061 
Q 1681 3084 1819 3084 
Q 2600 3084 3056 2656 
Q 3513 2228 3513 1497 
Q 3513 744 3044 326 
Q 2575 -91 1722 -91 
Q 1428 -91 1123 -41 
Q 819 9 494 109 
L 494 744 
Q 775 591 1075 516 
Q 1375 441 1709 441 
Q 2250 441 2565 725 
Q 2881 1009 2881 1497 
Q 2881 1984 2565 2268 
Q 2250 2553 1709 2553 
Q 1456 2553 1204 2497 
Q 953 2441 691 2322 
L 691 4666 
z
" transform="scale(0.015625)"/>
     </defs>
     <use xlink:href="#DejaVuSans-Oblique-52" transform="translate(0 0.765625)"/>
     <use xlink:href="#DejaVuSans-32" transform="translate(76.499193 39.046875) scale(0.7)"/>
     <use xlink:href="#DejaVuSans-20" transform="translate(123.769701 0.765625)"/>
     <use xlink:href="#DejaVuSans-6f" transform="translate(155.55681 0.765625)"/>
     <use xlink:href="#DejaVuSans-6e" transform="translate(216.738451 0.765625)"/>
     <use xlink:href="#DejaVuSans-20" transform="translate(280.117357 0.765625)"/>
     <use xlink:href="#DejaVuSans-70" transform="translate(311.904466 0.765625)"/>
     <use xlink:href="#DejaVuSans-72" transform="translate(375.381029 0.765625)"/>
     <use xlink:href="#DejaVuSans-65" transform="translate(416.49431 0.765625)"/>
     <use xlink:href="#DejaVuSans-2d" transform="translate(478.017747 0.765625)"/>
     <use xlink:href="#DejaVuSans-69" transform="translate(514.101732 0.765625)"/>
     <use xlink:href="#DejaVuSans-6e" transform="translate(541.884935 0.765625)"/>
     <use xlink:href="#DejaVuSans-74" transform="translate(605.263841 0.765625)"/>
     <use xlink:href="#DejaVuSans-65" transform="translate(644.472826 0.765625)"/>
     <use xlink:href="#DejaVuSans-72" transform="translate(705.996263 0.765625)"/>
     <use xlink:href="#DejaVuSans-76" transform="translate(747.109544 0.765625)"/>
     <use xlink:href="#DejaVuSans-65" transform="translate(806.289232 0.765625)"/>
     <use xlink:href="#DejaVuSans-6e" transform="translate(867.812669 0.765625)"/>
     <use xlink:href="#DejaVuSans-74" transform="translate(931.191576 0.765625)"/>
     <use xlink:href="#DejaVuSans-69" transform="translate(970.40056 0.765625)"/>
     <use xlink:href="#DejaVuSans-6f" transform="translate(998.183763 0.765625)"/>
     <use xlink:href="#DejaVuSans-6e" transform="translate(1059.365404 0.765625)"/>
     <use xlink:href="#DejaVuSans-20" transform="translate(1122.74431 0.765625)"/>
     <use xlink:href="#DejaVuSans-64" transform="translate(1154.531419 0.765625)"/>
     <use xlink:href="#DejaVuSans-61" transform="translate(1218.007982 0.765625)"/>
     <use xlink:href="#DejaVuSans-74" transform="translate(1279.287279 0.765625)"/>
     <use xlink:href="#DejaVuSans-61" transform="translate(1318.496263 0.765625)"/>
     <use xlink:href="#DejaVuSans-20" transform="translate(1379.77556 0.765625)"/>
     <use xlink:href="#DejaVuSans-3d" transform="translate(1411.562669 0.765625)"/>
     <use xlink:href="#DejaVuSans-20" transform="translate(1495.351732 0.765625)"/>
     <use xlink:href="#DejaVuSans-30" transform="translate(1527.138841 0.765625)"/>
     <use xlink:href="#DejaVuSans-2e" transform="translate(1590.761888 0.765625)"/>
     <use xlink:href="#DejaVuSans-39" transform="translate(1622.548997 0.765625)"/>
     <use xlink:href="#DejaVuSans-37" transform="translate(1686.172044 0.765625)"/>
     <use xlink:href="#DejaVuSans-35" transform="translate(1749.795091 0.765625)"/>
    </g>
   </g>
  </g>
  <g id="axes_2">
   <g id="patch_7">
    <path d="M 37.4225 374.634103 
L 505.19952 374.634103 
L 505.19952 213.276042 
L 37.4225 213.276042 
z
" style="fill: #eeeeee"/>
   </g>
   <g id="matplotlib.axis_3">
    <g id="xtick_12">
     <g id="line2d_40">
      <path d="M 55.161879 374.634103 
L 55.161879 213.276042 
" clip-path="url(#p5cdb5ee907)" style="fill: none; stroke: #ffffff; stroke-width: 0.8; stroke-linecap: round"/>
     </g>
     <g id="line2d_41"/>
    </g>
    <g id="xtick_13">
     <g id="line2d_42">
      <path d="M 98.02764 374.634103 
L 98.02764 213.276042 
" clip-path="url(#p5cdb5ee907)" style="fill: none; stroke: #ffffff; stroke-width: 0.8; stroke-linecap: round"/>
     </g>
     <g id="line2d_43"/>
    </g>
    <g id="xtick_14">
     <g id="line2d_44">
      <path d="M 140.8934 374.634103 
L 140.8934 213.276042 
" clip-path="url(#p5cdb5ee907)" style="fill: none; stroke: #ffffff; stroke-width: 0.8; stroke-linecap: round"/>
     </g>
     <g id="line2d_45"/>
    </g>
    <g id="xtick_15">
     <g id="line2d_46">
      <path d="M 183.876602 374.634103 
L 183.876602 213.276042 
" clip-path="url(#p5cdb5ee907)" style="fill: none; stroke: #ffffff; stroke-width: 0.8; stroke-linecap: round"/>
     </g>
     <g id="line2d_47"/>
    </g>
    <g id="xtick_16">
     <g id="line2d_48">
      <path d="M 226.742363 374.634103 
L 226.742363 213.276042 
" clip-path="url(#p5cdb5ee907)" style="fill: none; stroke: #ffffff; stroke-width: 0.8; stroke-linecap: round"/>
     </g>
     <g id="line2d_49"/>
    </g>
    <g id="xtick_17">
     <g id="line2d_50">
      <path d="M 269.608124 374.634103 
L 269.608124 213.276042 
" clip-path="url(#p5cdb5ee907)" style="fill: none; stroke: #ffffff; stroke-width: 0.8; stroke-linecap: round"/>
     </g>
     <g id="line2d_51"/>
    </g>
    <g id="xtick_18">
     <g id="line2d_52">
      <path d="M 312.473885 374.634103 
L 312.473885 213.276042 
" clip-path="url(#p5cdb5ee907)" style="fill: none; stroke: #ffffff; stroke-width: 0.8; stroke-linecap: round"/>
     </g>
     <g id="line2d_53"/>
    </g>
    <g id="xtick_19">
     <g id="line2d_54">
      <path d="M 355.457086 374.634103 
L 355.457086 213.276042 
" clip-path="url(#p5cdb5ee907)" style="fill: none; stroke: #ffffff; stroke-width: 0.8; stroke-linecap: round"/>
     </g>
     <g id="line2d_55"/>
    </g>
    <g id="xtick_20">
     <g id="line2d_56">
      <path d="M 398.322847 374.634103 
L 398.322847 213.276042 
" clip-path="url(#p5cdb5ee907)" style="fill: none; stroke: #ffffff; stroke-width: 0.8; stroke-linecap: round"/>
     </g>
     <g id="line2d_57"/>
    </g>
    <g id="xtick_21">
     <g id="line2d_58">
      <path d="M 441.188608 374.634103 
L 441.188608 213.276042 
" clip-path="url(#p5cdb5ee907)" style="fill: none; stroke: #ffffff; stroke-width: 0.8; stroke-linecap: round"/>
     </g>
     <g id="line2d_59"/>
    </g>
    <g id="xtick_22">
     <g id="line2d_60">
      <path d="M 484.054369 374.634103 
L 484.054369 213.276042 
" clip-path="url(#p5cdb5ee907)" style="fill: none; stroke: #ffffff; stroke-width: 0.8; stroke-linecap: round"/>
     </g>
     <g id="line2d_61"/>
    </g>
   </g>
   <g id="matplotlib.axis_4">
    <g id="ytick_5">
     <g id="line2d_62">
      <path d="M 37.4225 319.590651 
L 505.19952 319.590651 
" clip-path="url(#p5cdb5ee907)" style="fill: none; stroke: #ffffff; stroke-width: 0.8; stroke-linecap: round"/>
     </g>
     <g id="line2d_63"/>
     <g id="text_6">
      <!-- 0 -->
      <g style="fill: #262626" transform="translate(25.015 324.909558) scale(0.14 -0.14)">
       <use xlink:href="#DejaVuSans-30"/>
      </g>
     </g>
    </g>
    <g id="ytick_6">
     <g id="line2d_64">
      <path d="M 37.4225 264.526873 
L 505.19952 264.526873 
" clip-path="url(#p5cdb5ee907)" style="fill: none; stroke: #ffffff; stroke-width: 0.8; stroke-linecap: round"/>
     </g>
     <g id="line2d_65"/>
     <g id="text_7">
      <!-- 10 -->
      <g style="fill: #262626" transform="translate(16.1075 269.845779) scale(0.14 -0.14)">
       <defs>
        <path id="DejaVuSans-31" d="M 794 531 
L 1825 531 
L 1825 4091 
L 703 3866 
L 703 4441 
L 1819 4666 
L 2450 4666 
L 2450 531 
L 3481 531 
L 3481 0 
L 794 0 
L 794 531 
z
" transform="scale(0.015625)"/>
       </defs>
       <use xlink:href="#DejaVuSans-31"/>
       <use xlink:href="#DejaVuSans-30" x="63.623047"/>
      </g>
     </g>
    </g>
   </g>
   <g id="PolyCollection_3">
    <defs>
     <path id="ma58cacdfef" d="M 58.685092 -298.473087 
L 58.685092 -254.661423 
L 61.973424 -250.726209 
L 65.614078 -254.389535 
L 69.137291 -246.467813 
L 72.777945 -253.943257 
L 76.301158 -242.317283 
L 79.941812 -244.189477 
L 83.582465 -227.459493 
L 87.105679 -235.646063 
L 90.746332 -235.542257 
L 94.269545 -242.462858 
L 97.910199 -249.654397 
L 101.550853 -226.893377 
L 104.839185 -258.682689 
L 108.479839 -251.523211 
L 112.003052 -250.059643 
L 115.643706 -229.194714 
L 119.166919 -230.989171 
L 122.807573 -248.912943 
L 126.448226 -230.264824 
L 129.971439 -234.775142 
L 133.612093 -240.198904 
L 137.135306 -230.735567 
L 140.77596 -231.458735 
L 144.416614 -243.896303 
L 147.822386 -262.65722 
L 151.46304 -233.148167 
L 154.986253 -235.977321 
L 158.626907 -249.286947 
L 162.15012 -241.395538 
L 165.790774 -250.697215 
L 169.431428 -249.482975 
L 172.954641 -245.162499 
L 176.595294 -251.470366 
L 180.118508 -241.3367 
L 183.759161 -238.270237 
L 187.399815 -241.960396 
L 190.688147 -217.099874 
L 194.328801 -245.401079 
L 197.852014 -234.337622 
L 201.492668 -241.053597 
L 205.015881 -243.722366 
L 208.656535 -249.358335 
L 212.297188 -251.857425 
L 215.820402 -226.928426 
L 219.461055 -255.118535 
L 222.984269 -230.685373 
L 226.624922 -236.981213 
L 230.265576 -258.940693 
L 233.553908 -237.018302 
L 237.194562 -254.89993 
L 240.717775 -251.857422 
L 244.358429 -226.046255 
L 247.881642 -244.148997 
L 251.522296 -240.997714 
L 255.162949 -255.397623 
L 258.686163 -251.78116 
L 262.326816 -244.738756 
L 265.850029 -244.156438 
L 269.490683 -240.29838 
L 273.131337 -232.237132 
L 276.419669 -236.462714 
L 280.060323 -239.448857 
L 283.583536 -246.513752 
L 287.22419 -249.807885 
L 290.747403 -256.582981 
L 294.388057 -249.302636 
L 298.02871 -247.36509 
L 301.551924 -248.152031 
L 305.192577 -229.789779 
L 308.71579 -263.768836 
L 312.356444 -250.672943 
L 315.997098 -242.32047 
L 319.402871 -238.527624 
L 323.043524 -222.552611 
L 326.566737 -232.783784 
L 330.207391 -247.536338 
L 333.730604 -242.777341 
L 337.371258 -217.588979 
L 341.011912 -243.008184 
L 344.535125 -257.764956 
L 348.175779 -242.28099 
L 351.698992 -246.109028 
L 355.339645 -249.58592 
L 355.339645 -294.444401 
L 355.339645 -294.444401 
L 351.698992 -289.234996 
L 348.175779 -287.206831 
L 344.535125 -302.96012 
L 341.011912 -287.249392 
L 337.371258 -261.815373 
L 333.730604 -286.790661 
L 330.207391 -291.249464 
L 326.566737 -277.452819 
L 323.043524 -266.422485 
L 319.402871 -282.823846 
L 315.997098 -286.423443 
L 312.356444 -294.208401 
L 308.71579 -308.893189 
L 305.192577 -274.209606 
L 301.551924 -292.22806 
L 298.02871 -291.304727 
L 294.388057 -294.009418 
L 290.747403 -300.950009 
L 287.22419 -294.722691 
L 283.583536 -291.196739 
L 280.060323 -283.605905 
L 276.419669 -279.205597 
L 273.131337 -275.055563 
L 269.490683 -284.820892 
L 265.850029 -288.475179 
L 262.326816 -288.787659 
L 258.686163 -294.637007 
L 255.162949 -298.874006 
L 251.522296 -284.597955 
L 247.881642 -288.06601 
L 244.358429 -270.313604 
L 240.717775 -296.046993 
L 237.194562 -298.455019 
L 233.553908 -280.875532 
L 230.265576 -301.766001 
L 226.624922 -281.513725 
L 222.984269 -275.900407 
L 219.461055 -298.188803 
L 215.820402 -270.919963 
L 212.297188 -295.647983 
L 208.656535 -292.414796 
L 205.015881 -288.10388 
L 201.492668 -285.078723 
L 197.852014 -277.443284 
L 194.328801 -288.914765 
L 190.688147 -260.486024 
L 187.399815 -285.550207 
L 183.759161 -282.540581 
L 180.118508 -285.66873 
L 176.595294 -295.50558 
L 172.954641 -288.845074 
L 169.431428 -292.570585 
L 165.790774 -294.81087 
L 162.15012 -284.701227 
L 158.626907 -292.732367 
L 154.986253 -279.263573 
L 151.46304 -277.339788 
L 147.822386 -306.281682 
L 144.416614 -286.769787 
L 140.77596 -274.706099 
L 137.135306 -276.295522 
L 133.612093 -283.383108 
L 129.971439 -278.542566 
L 126.448226 -274.525649 
L 122.807573 -293.276675 
L 119.166919 -274.152852 
L 115.643706 -273.773633 
L 112.003052 -294.112101 
L 108.479839 -295.50398 
L 104.839185 -302.8623 
L 101.550853 -270.031694 
L 97.910199 -293.493679 
L 94.269545 -287.222358 
L 90.746332 -279.306304 
L 87.105679 -279.776293 
L 83.582465 -272.176828 
L 79.941812 -288.46031 
L 76.301158 -286.224273 
L 72.777945 -298.812882 
L 69.137291 -290.238617 
L 65.614078 -298.478846 
L 61.973424 -295.453435 
L 58.685092 -298.473087 
z
" style="stroke: #fa7c17; stroke-opacity: 0.25"/>
    </defs>
    <g clip-path="url(#p5cdb5ee907)">
     <use xlink:href="#ma58cacdfef" x="0" y="584.39952" style="fill: #fa7c17; fill-opacity: 0.25; stroke: #fa7c17; stroke-opacity: 0.25"/>
    </g>
   </g>
   <g id="PolyCollection_4">
    <defs>
     <path id="mbd7515870f" d="M 358.980299 -264.181881 
L 358.980299 -219.923208 
L 362.268631 -244.276024 
L 365.909285 -229.476865 
L 369.432498 -219.311849 
L 373.073152 -243.847425 
L 376.596365 -246.384416 
L 380.237019 -287.856639 
L 383.877673 -298.612422 
L 387.400886 -314.023368 
L 391.041539 -319.617554 
L 394.564753 -296.516813 
L 398.205406 -297.736404 
L 401.84606 -275.47288 
L 405.134392 -265.153602 
L 408.775046 -251.49293 
L 412.298259 -248.769448 
L 415.938913 -252.436595 
L 419.462126 -242.493995 
L 423.10278 -274.491446 
L 426.743433 -237.988773 
L 430.266647 -250.441529 
L 433.9073 -259.715922 
L 437.430514 -238.777141 
L 441.071167 -229.360294 
L 444.711821 -226.677171 
L 448.000153 -244.228781 
L 451.640807 -232.77099 
L 455.16402 -229.722029 
L 458.804674 -236.527763 
L 462.327887 -219.39917 
L 465.968541 -249.239086 
L 469.609194 -231.795517 
L 473.132408 -241.977346 
L 476.773061 -276.775556 
L 480.296275 -218.411877 
L 483.936928 -236.795001 
L 483.936928 -282.287347 
L 483.936928 -282.287347 
L 480.296275 -264.693779 
L 476.773061 -321.533123 
L 473.132408 -288.305905 
L 469.609194 -277.569713 
L 465.968541 -295.754893 
L 462.327887 -265.352455 
L 458.804674 -282.464573 
L 455.16402 -276.421096 
L 451.640807 -278.586337 
L 448.000153 -289.114662 
L 444.711821 -271.527518 
L 441.071167 -274.271238 
L 437.430514 -283.516847 
L 433.9073 -305.145008 
L 430.266647 -294.334643 
L 426.743433 -283.266031 
L 423.10278 -318.623513 
L 419.462126 -287.978735 
L 415.938913 -299.211615 
L 412.298259 -294.850214 
L 408.775046 -297.300851 
L 405.134392 -309.789688 
L 401.84606 -320.429569 
L 398.205406 -343.958605 
L 394.564753 -342.821771 
L 391.041539 -363.789021 
L 387.400886 -358.057304 
L 383.877673 -342.916717 
L 380.237019 -332.228485 
L 376.596365 -291.186631 
L 373.073152 -288.121753 
L 369.432498 -264.774812 
L 365.909285 -274.827629 
L 362.268631 -289.148656 
L 358.980299 -264.181881 
z
" style="stroke: #fa7c17; stroke-opacity: 0.25"/>
    </defs>
    <g clip-path="url(#p5cdb5ee907)">
     <use xlink:href="#mbd7515870f" x="0" y="584.39952" style="fill: #fa7c17; fill-opacity: 0.25; stroke: #fa7c17; stroke-opacity: 0.25"/>
    </g>
   </g>
   <g id="line2d_66">
    <path d="M 58.685092 329.738097 
L 61.973424 333.673311 
L 65.614078 330.009985 
L 69.137291 337.931707 
L 72.777945 330.456263 
L 76.301158 342.082237 
L 79.941812 340.210043 
L 83.582465 356.940027 
L 87.105679 348.753457 
L 90.746332 348.857263 
L 94.269545 341.936662 
L 97.910199 334.745123 
L 101.550853 357.506143 
L 104.839185 325.716831 
L 108.479839 332.876309 
L 112.003052 334.339877 
L 115.643706 355.204806 
L 119.166919 353.410349 
L 122.807573 335.486577 
L 126.448226 354.134696 
L 129.971439 349.624378 
L 133.612093 344.200616 
L 137.135306 353.663953 
L 140.77596 352.940785 
L 144.416614 340.503217 
L 147.822386 321.7423 
L 151.46304 351.251353 
L 154.986253 348.422199 
L 158.626907 335.112573 
L 162.15012 343.003982 
L 165.790774 333.702305 
L 169.431428 334.916545 
L 172.954641 339.237021 
L 176.595294 332.929154 
L 180.118508 343.06282 
L 183.759161 346.129283 
L 187.399815 342.439124 
L 190.688147 367.299646 
L 194.328801 338.998441 
L 197.852014 350.061898 
L 201.492668 343.345923 
L 205.015881 340.677154 
L 208.656535 335.041185 
L 212.297188 332.542095 
L 215.820402 357.471094 
L 219.461055 329.280985 
L 222.984269 353.714147 
L 226.624922 347.418307 
L 230.265576 325.458827 
L 233.553908 347.381218 
L 237.194562 329.49959 
L 240.717775 332.542098 
L 244.358429 358.353265 
L 247.881642 340.250523 
L 251.522296 343.401806 
L 255.162949 329.001897 
L 258.686163 332.61836 
L 262.326816 339.660764 
L 265.850029 340.243082 
L 269.490683 344.10114 
L 273.131337 352.162388 
L 276.419669 347.936806 
L 280.060323 344.950663 
L 283.583536 337.885768 
L 287.22419 334.591635 
L 290.747403 327.816539 
L 294.388057 335.096884 
L 298.02871 337.03443 
L 301.551924 336.247489 
L 305.192577 354.609741 
L 308.71579 320.630684 
L 312.356444 333.726577 
L 315.997098 342.07905 
L 319.402871 345.871896 
L 323.043524 361.846909 
L 326.566737 351.615736 
L 330.207391 336.863182 
L 333.730604 341.622179 
L 337.371258 366.810541 
L 341.011912 341.391336 
L 344.535125 326.634564 
L 348.175779 342.11853 
L 351.698992 338.290492 
L 355.339645 334.8136 
" clip-path="url(#p5cdb5ee907)" style="fill: none; stroke: #fa7c17; stroke-opacity: 0; stroke-width: 1.5; stroke-linecap: round"/>
   </g>
   <g id="line2d_67">
    <path d="M 58.685092 285.926433 
L 61.973424 288.946085 
L 65.614078 285.920674 
L 69.137291 294.160903 
L 72.777945 285.586638 
L 76.301158 298.175247 
L 79.941812 295.93921 
L 83.582465 312.222692 
L 87.105679 304.623227 
L 90.746332 305.093216 
L 94.269545 297.177162 
L 97.910199 290.905841 
L 101.550853 314.367826 
L 104.839185 281.53722 
L 108.479839 288.89554 
L 112.003052 290.287419 
L 115.643706 310.625887 
L 119.166919 310.246668 
L 122.807573 291.122845 
L 126.448226 309.873871 
L 129.971439 305.856954 
L 133.612093 301.016412 
L 137.135306 308.103998 
L 140.77596 309.693421 
L 144.416614 297.629733 
L 147.822386 278.117838 
L 151.46304 307.059732 
L 154.986253 305.135947 
L 158.626907 291.667153 
L 162.15012 299.698293 
L 165.790774 289.58865 
L 169.431428 291.828935 
L 172.954641 295.554446 
L 176.595294 288.89394 
L 180.118508 298.73079 
L 183.759161 301.858939 
L 187.399815 298.849313 
L 190.688147 323.913496 
L 194.328801 295.484755 
L 197.852014 306.956236 
L 201.492668 299.320797 
L 205.015881 296.29564 
L 208.656535 291.984724 
L 212.297188 288.751537 
L 215.820402 313.479557 
L 219.461055 286.210717 
L 222.984269 308.499113 
L 226.624922 302.885795 
L 230.265576 282.633519 
L 233.553908 303.523988 
L 237.194562 285.944501 
L 240.717775 288.352527 
L 244.358429 314.085916 
L 247.881642 296.33351 
L 251.522296 299.801565 
L 255.162949 285.525514 
L 258.686163 289.762513 
L 262.326816 295.611861 
L 265.850029 295.924341 
L 269.490683 299.578628 
L 273.131337 309.343957 
L 276.419669 305.193923 
L 280.060323 300.793615 
L 283.583536 293.202781 
L 287.22419 289.676829 
L 290.747403 283.449511 
L 294.388057 290.390102 
L 298.02871 293.094793 
L 301.551924 292.17146 
L 305.192577 310.189914 
L 308.71579 275.506331 
L 312.356444 290.191119 
L 315.997098 297.976077 
L 319.402871 301.575674 
L 323.043524 317.977035 
L 326.566737 306.946701 
L 330.207391 293.150056 
L 333.730604 297.608859 
L 337.371258 322.584147 
L 341.011912 297.150128 
L 344.535125 281.4394 
L 348.175779 297.192689 
L 351.698992 295.164524 
L 355.339645 289.955119 
" clip-path="url(#p5cdb5ee907)" style="fill: none; stroke: #fa7c17; stroke-opacity: 0; stroke-width: 1.5; stroke-linecap: round"/>
   </g>
   <g id="line2d_68">
    <path d="M 58.685092 306.725876 
L 61.973424 311.88713 
L 65.614078 307.769329 
L 69.137291 315.382195 
L 72.777945 307.967394 
L 76.301158 320.292419 
L 79.941812 318.005456 
L 83.582465 336.020921 
L 87.105679 327.473596 
L 90.746332 327.602517 
L 94.269545 319.605038 
L 97.910199 312.900951 
L 101.550853 336.517724 
L 104.839185 304.16328 
L 108.479839 310.66884 
L 112.003052 311.952171 
L 115.643706 331.260227 
L 119.166919 332.993522 
L 122.807573 313.198978 
L 126.448226 331.175114 
L 129.971439 327.144809 
L 133.612093 322.479803 
L 137.135306 330.37543 
L 140.77596 330.567995 
L 144.416614 319.818933 
L 147.822386 298.807538 
L 151.46304 329.713828 
L 154.986253 326.2474 
L 158.626907 313.03533 
L 162.15012 320.812302 
L 165.790774 312.432255 
L 169.431428 313.262995 
L 172.954641 317.229646 
L 176.595294 310.890364 
L 180.118508 321.233156 
L 183.759161 323.842309 
L 187.399815 319.294289 
L 190.688147 347.150372 
L 194.328801 318.171537 
L 197.852014 329.188043 
L 201.492668 321.163487 
L 205.015881 317.790998 
L 208.656535 313.673016 
L 212.297188 312.340135 
L 215.820402 335.007293 
L 219.461055 308.181625 
L 222.984269 331.385854 
L 226.624922 325.105011 
L 230.265576 305.104788 
L 233.553908 324.610907 
L 237.194562 307.262259 
L 240.717775 309.734451 
L 244.358429 336.311306 
L 247.881642 318.729573 
L 251.522296 320.93627 
L 255.162949 307.514764 
L 258.686163 311.184997 
L 262.326816 317.864357 
L 265.850029 318.816165 
L 269.490683 321.113639 
L 273.131337 330.6251 
L 276.419669 327.034777 
L 280.060323 323.069792 
L 283.583536 316.408015 
L 287.22419 310.532857 
L 290.747403 304.53494 
L 294.388057 313.470652 
L 298.02871 316.768156 
L 301.551924 314.505127 
L 305.192577 330.920802 
L 308.71579 297.595742 
L 312.356444 310.748422 
L 315.997098 319.694862 
L 319.402871 324.218957 
L 323.043524 341.818632 
L 326.566737 328.808321 
L 330.207391 316.09364 
L 333.730604 320.743489 
L 337.371258 345.203675 
L 341.011912 319.589385 
L 344.535125 303.379026 
L 348.175779 319.033548 
L 351.698992 317.464534 
L 355.339645 312.825358 
" clip-path="url(#p5cdb5ee907)" style="fill: none; stroke: #000000; stroke-width: 1.5; stroke-linecap: round"/>
   </g>
   <g id="line2d_69">
    <path d="M 358.980299 364.476312 
L 362.268631 340.123496 
L 365.909285 354.922655 
L 369.432498 365.087671 
L 373.073152 340.552095 
L 376.596365 338.015104 
L 380.237019 296.542881 
L 383.877673 285.787098 
L 387.400886 270.376152 
L 391.041539 264.781966 
L 394.564753 287.882707 
L 398.205406 286.663116 
L 401.84606 308.92664 
L 405.134392 319.245918 
L 408.775046 332.90659 
L 412.298259 335.630072 
L 415.938913 331.962925 
L 419.462126 341.905525 
L 423.10278 309.908074 
L 426.743433 346.410747 
L 430.266647 333.957991 
L 433.9073 324.683598 
L 437.430514 345.622379 
L 441.071167 355.039226 
L 444.711821 357.722349 
L 448.000153 340.170739 
L 451.640807 351.62853 
L 455.16402 354.677491 
L 458.804674 347.871757 
L 462.327887 365.00035 
L 465.968541 335.160434 
L 469.609194 352.604003 
L 473.132408 342.422174 
L 476.773061 307.623964 
L 480.296275 365.987643 
L 483.936928 347.604519 
" clip-path="url(#p5cdb5ee907)" style="fill: none; stroke: #fa7c17; stroke-opacity: 0; stroke-width: 1.5; stroke-linecap: round"/>
   </g>
   <g id="line2d_70">
    <path d="M 358.980299 320.217639 
L 362.268631 295.250864 
L 365.909285 309.571891 
L 369.432498 319.624708 
L 373.073152 296.277767 
L 376.596365 293.212889 
L 380.237019 252.171035 
L 383.877673 241.482803 
L 387.400886 226.342216 
L 391.041539 220.610499 
L 394.564753 241.577749 
L 398.205406 240.440915 
L 401.84606 263.969951 
L 405.134392 274.609832 
L 408.775046 287.098669 
L 412.298259 289.549306 
L 415.938913 285.187905 
L 419.462126 296.420785 
L 423.10278 265.776007 
L 426.743433 301.133489 
L 430.266647 290.064877 
L 433.9073 279.254512 
L 437.430514 300.882673 
L 441.071167 310.128282 
L 444.711821 312.872002 
L 448.000153 295.284858 
L 451.640807 305.813183 
L 455.16402 307.978424 
L 458.804674 301.934947 
L 462.327887 319.047065 
L 465.968541 288.644627 
L 469.609194 306.829807 
L 473.132408 296.093615 
L 476.773061 262.866397 
L 480.296275 319.705741 
L 483.936928 302.112173 
" clip-path="url(#p5cdb5ee907)" style="fill: none; stroke: #fa7c17; stroke-opacity: 0; stroke-width: 1.5; stroke-linecap: round"/>
   </g>
   <g id="line2d_71">
    <path d="M 358.980299 341.330927 
L 362.268631 317.301099 
L 365.909285 331.717604 
L 369.432498 343.503894 
L 373.073152 319.33549 
L 376.596365 315.871057 
L 380.237019 273.744209 
L 383.877673 263.565375 
L 387.400886 248.142949 
L 391.041539 243.699715 
L 394.564753 264.127599 
L 398.205406 262.242799 
L 401.84606 286.772442 
L 405.134392 295.704398 
L 408.775046 309.585998 
L 412.298259 313.1015 
L 415.938913 308.222051 
L 419.462126 319.520413 
L 423.10278 287.399997 
L 426.743433 324.035894 
L 430.266647 313.075151 
L 433.9073 302.52634 
L 437.430514 322.870417 
L 441.071167 333.037469 
L 444.711821 335.764699 
L 448.000153 317.938062 
L 451.640807 330.21976 
L 455.16402 330.712842 
L 458.804674 325.206327 
L 462.327887 342.082835 
L 465.968541 313.142864 
L 469.609194 329.075542 
L 473.132408 320.67964 
L 476.773061 285.680759 
L 480.296275 343.283119 
L 483.936928 322.961421 
" clip-path="url(#p5cdb5ee907)" style="fill: none; stroke: #000000; stroke-width: 1.5; stroke-linecap: round"/>
   </g>
   <g id="line2d_72">
    <path d="M 37.4225 319.590651 
L 505.19952 319.590651 
" clip-path="url(#p5cdb5ee907)" style="fill: none; stroke: #000000; stroke-width: 1.5; stroke-linecap: round"/>
   </g>
   <g id="line2d_73">
    <path d="M 355.457086 374.634103 
L 355.457086 213.276042 
" clip-path="url(#p5cdb5ee907)" style="fill: none; stroke: #ff0000; stroke-width: 3; stroke-linecap: round"/>
   </g>
   <g id="patch_8">
    <path d="M 37.4225 374.634103 
L 37.4225 213.276042 
" style="fill: none"/>
   </g>
   <g id="patch_9">
    <path d="M 505.19952 374.634103 
L 505.19952 213.276042 
" style="fill: none"/>
   </g>
   <g id="patch_10">
    <path d="M 37.4225 374.634103 
L 505.19952 374.634103 
" style="fill: none"/>
   </g>
   <g id="patch_11">
    <path d="M 37.4225 213.276042 
L 505.19952 213.276042 
" style="fill: none"/>
   </g>
   <g id="text_8">
    <!-- Causal Impact -->
    <g style="fill: #262626" transform="translate(214.24851 207.276042) scale(0.16 -0.16)">
     <defs>
      <path id="DejaVuSans-43" d="M 4122 4306 
L 4122 3641 
Q 3803 3938 3442 4084 
Q 3081 4231 2675 4231 
Q 1875 4231 1450 3742 
Q 1025 3253 1025 2328 
Q 1025 1406 1450 917 
Q 1875 428 2675 428 
Q 3081 428 3442 575 
Q 3803 722 4122 1019 
L 4122 359 
Q 3791 134 3420 21 
Q 3050 -91 2638 -91 
Q 1578 -91 968 557 
Q 359 1206 359 2328 
Q 359 3453 968 4101 
Q 1578 4750 2638 4750 
Q 3056 4750 3426 4639 
Q 3797 4528 4122 4306 
z
" transform="scale(0.015625)"/>
      <path id="DejaVuSans-75" d="M 544 1381 
L 544 3500 
L 1119 3500 
L 1119 1403 
Q 1119 906 1312 657 
Q 1506 409 1894 409 
Q 2359 409 2629 706 
Q 2900 1003 2900 1516 
L 2900 3500 
L 3475 3500 
L 3475 0 
L 2900 0 
L 2900 538 
Q 2691 219 2414 64 
Q 2138 -91 1772 -91 
Q 1169 -91 856 284 
Q 544 659 544 1381 
z
M 1991 3584 
L 1991 3584 
z
" transform="scale(0.015625)"/>
      <path id="DejaVuSans-73" d="M 2834 3397 
L 2834 2853 
Q 2591 2978 2328 3040 
Q 2066 3103 1784 3103 
Q 1356 3103 1142 2972 
Q 928 2841 928 2578 
Q 928 2378 1081 2264 
Q 1234 2150 1697 2047 
L 1894 2003 
Q 2506 1872 2764 1633 
Q 3022 1394 3022 966 
Q 3022 478 2636 193 
Q 2250 -91 1575 -91 
Q 1294 -91 989 -36 
Q 684 19 347 128 
L 347 722 
Q 666 556 975 473 
Q 1284 391 1588 391 
Q 1994 391 2212 530 
Q 2431 669 2431 922 
Q 2431 1156 2273 1281 
Q 2116 1406 1581 1522 
L 1381 1569 
Q 847 1681 609 1914 
Q 372 2147 372 2553 
Q 372 3047 722 3315 
Q 1072 3584 1716 3584 
Q 2034 3584 2315 3537 
Q 2597 3491 2834 3397 
z
" transform="scale(0.015625)"/>
      <path id="DejaVuSans-6c" d="M 603 4863 
L 1178 4863 
L 1178 0 
L 603 0 
L 603 4863 
z
" transform="scale(0.015625)"/>
      <path id="DejaVuSans-49" d="M 628 4666 
L 1259 4666 
L 1259 0 
L 628 0 
L 628 4666 
z
" transform="scale(0.015625)"/>
      <path id="DejaVuSans-6d" d="M 3328 2828 
Q 3544 3216 3844 3400 
Q 4144 3584 4550 3584 
Q 5097 3584 5394 3201 
Q 5691 2819 5691 2113 
L 5691 0 
L 5113 0 
L 5113 2094 
Q 5113 2597 4934 2840 
Q 4756 3084 4391 3084 
Q 3944 3084 3684 2787 
Q 3425 2491 3425 1978 
L 3425 0 
L 2847 0 
L 2847 2094 
Q 2847 2600 2669 2842 
Q 2491 3084 2119 3084 
Q 1678 3084 1418 2786 
Q 1159 2488 1159 1978 
L 1159 0 
L 581 0 
L 581 3500 
L 1159 3500 
L 1159 2956 
Q 1356 3278 1631 3431 
Q 1906 3584 2284 3584 
Q 2666 3584 2933 3390 
Q 3200 3197 3328 2828 
z
" transform="scale(0.015625)"/>
      <path id="DejaVuSans-63" d="M 3122 3366 
L 3122 2828 
Q 2878 2963 2633 3030 
Q 2388 3097 2138 3097 
Q 1578 3097 1268 2742 
Q 959 2388 959 1747 
Q 959 1106 1268 751 
Q 1578 397 2138 397 
Q 2388 397 2633 464 
Q 2878 531 3122 666 
L 3122 134 
Q 2881 22 2623 -34 
Q 2366 -91 2075 -91 
Q 1284 -91 818 406 
Q 353 903 353 1747 
Q 353 2603 823 3093 
Q 1294 3584 2113 3584 
Q 2378 3584 2631 3529 
Q 2884 3475 3122 3366 
z
" transform="scale(0.015625)"/>
     </defs>
     <use xlink:href="#DejaVuSans-43"/>
     <use xlink:href="#DejaVuSans-61" x="69.824219"/>
     <use xlink:href="#DejaVuSans-75" x="131.103516"/>
     <use xlink:href="#DejaVuSans-73" x="194.482422"/>
     <use xlink:href="#DejaVuSans-61" x="246.582031"/>
     <use xlink:href="#DejaVuSans-6c" x="307.861328"/>
     <use xlink:href="#DejaVuSans-20" x="335.644531"/>
     <use xlink:href="#DejaVuSans-49" x="367.431641"/>
     <use xlink:href="#DejaVuSans-6d" x="396.923828"/>
     <use xlink:href="#DejaVuSans-70" x="494.335938"/>
     <use xlink:href="#DejaVuSans-61" x="557.8125"/>
     <use xlink:href="#DejaVuSans-63" x="619.091797"/>
     <use xlink:href="#DejaVuSans-74" x="674.072266"/>
    </g>
   </g>
  </g>
  <g id="axes_3">
   <g id="patch_12">
    <path d="M 37.4225 560.150145 
L 505.19952 560.150145 
L 505.19952 398.792083 
L 37.4225 398.792083 
z
" style="fill: #eeeeee"/>
   </g>
   <g id="matplotlib.axis_5">
    <g id="xtick_23">
     <g id="line2d_74">
      <path d="M 55.161879 560.150145 
L 55.161879 398.792083 
" clip-path="url(#pce403133a9)" style="fill: none; stroke: #ffffff; stroke-width: 0.8; stroke-linecap: round"/>
     </g>
     <g id="line2d_75"/>
     <g id="text_9">
      <!-- 2010 -->
      <g style="fill: #262626" transform="translate(37.346879 574.287958) scale(0.14 -0.14)">
       <use xlink:href="#DejaVuSans-32"/>
       <use xlink:href="#DejaVuSans-30" x="63.623047"/>
       <use xlink:href="#DejaVuSans-31" x="127.246094"/>
       <use xlink:href="#DejaVuSans-30" x="190.869141"/>
      </g>
     </g>
    </g>
    <g id="xtick_24">
     <g id="line2d_76">
      <path d="M 98.02764 560.150145 
L 98.02764 398.792083 
" clip-path="url(#pce403133a9)" style="fill: none; stroke: #ffffff; stroke-width: 0.8; stroke-linecap: round"/>
     </g>
     <g id="line2d_77"/>
     <g id="text_10">
      <!-- 2011 -->
      <g style="fill: #262626" transform="translate(80.21264 574.287958) scale(0.14 -0.14)">
       <use xlink:href="#DejaVuSans-32"/>
       <use xlink:href="#DejaVuSans-30" x="63.623047"/>
       <use xlink:href="#DejaVuSans-31" x="127.246094"/>
       <use xlink:href="#DejaVuSans-31" x="190.869141"/>
      </g>
     </g>
    </g>
    <g id="xtick_25">
     <g id="line2d_78">
      <path d="M 140.8934 560.150145 
L 140.8934 398.792083 
" clip-path="url(#pce403133a9)" style="fill: none; stroke: #ffffff; stroke-width: 0.8; stroke-linecap: round"/>
     </g>
     <g id="line2d_79"/>
     <g id="text_11">
      <!-- 2012 -->
      <g style="fill: #262626" transform="translate(123.0784 574.287958) scale(0.14 -0.14)">
       <use xlink:href="#DejaVuSans-32"/>
       <use xlink:href="#DejaVuSans-30" x="63.623047"/>
       <use xlink:href="#DejaVuSans-31" x="127.246094"/>
       <use xlink:href="#DejaVuSans-32" x="190.869141"/>
      </g>
     </g>
    </g>
    <g id="xtick_26">
     <g id="line2d_80">
      <path d="M 183.876602 560.150145 
L 183.876602 398.792083 
" clip-path="url(#pce403133a9)" style="fill: none; stroke: #ffffff; stroke-width: 0.8; stroke-linecap: round"/>
     </g>
     <g id="line2d_81"/>
     <g id="text_12">
      <!-- 2013 -->
      <g style="fill: #262626" transform="translate(166.061602 574.287958) scale(0.14 -0.14)">
       <defs>
        <path id="DejaVuSans-33" d="M 2597 2516 
Q 3050 2419 3304 2112 
Q 3559 1806 3559 1356 
Q 3559 666 3084 287 
Q 2609 -91 1734 -91 
Q 1441 -91 1130 -33 
Q 819 25 488 141 
L 488 750 
Q 750 597 1062 519 
Q 1375 441 1716 441 
Q 2309 441 2620 675 
Q 2931 909 2931 1356 
Q 2931 1769 2642 2001 
Q 2353 2234 1838 2234 
L 1294 2234 
L 1294 2753 
L 1863 2753 
Q 2328 2753 2575 2939 
Q 2822 3125 2822 3475 
Q 2822 3834 2567 4026 
Q 2313 4219 1838 4219 
Q 1578 4219 1281 4162 
Q 984 4106 628 3988 
L 628 4550 
Q 988 4650 1302 4700 
Q 1616 4750 1894 4750 
Q 2613 4750 3031 4423 
Q 3450 4097 3450 3541 
Q 3450 3153 3228 2886 
Q 3006 2619 2597 2516 
z
" transform="scale(0.015625)"/>
       </defs>
       <use xlink:href="#DejaVuSans-32"/>
       <use xlink:href="#DejaVuSans-30" x="63.623047"/>
       <use xlink:href="#DejaVuSans-31" x="127.246094"/>
       <use xlink:href="#DejaVuSans-33" x="190.869141"/>
      </g>
     </g>
    </g>
    <g id="xtick_27">
     <g id="line2d_82">
      <path d="M 226.742363 560.150145 
L 226.742363 398.792083 
" clip-path="url(#pce403133a9)" style="fill: none; stroke: #ffffff; stroke-width: 0.8; stroke-linecap: round"/>
     </g>
     <g id="line2d_83"/>
     <g id="text_13">
      <!-- 2014 -->
      <g style="fill: #262626" transform="translate(208.927363 574.287958) scale(0.14 -0.14)">
       <use xlink:href="#DejaVuSans-32"/>
       <use xlink:href="#DejaVuSans-30" x="63.623047"/>
       <use xlink:href="#DejaVuSans-31" x="127.246094"/>
       <use xlink:href="#DejaVuSans-34" x="190.869141"/>
      </g>
     </g>
    </g>
    <g id="xtick_28">
     <g id="line2d_84">
      <path d="M 269.608124 560.150145 
L 269.608124 398.792083 
" clip-path="url(#pce403133a9)" style="fill: none; stroke: #ffffff; stroke-width: 0.8; stroke-linecap: round"/>
     </g>
     <g id="line2d_85"/>
     <g id="text_14">
      <!-- 2015 -->
      <g style="fill: #262626" transform="translate(251.793124 574.287958) scale(0.14 -0.14)">
       <use xlink:href="#DejaVuSans-32"/>
       <use xlink:href="#DejaVuSans-30" x="63.623047"/>
       <use xlink:href="#DejaVuSans-31" x="127.246094"/>
       <use xlink:href="#DejaVuSans-35" x="190.869141"/>
      </g>
     </g>
    </g>
    <g id="xtick_29">
     <g id="line2d_86">
      <path d="M 312.473885 560.150145 
L 312.473885 398.792083 
" clip-path="url(#pce403133a9)" style="fill: none; stroke: #ffffff; stroke-width: 0.8; stroke-linecap: round"/>
     </g>
     <g id="line2d_87"/>
     <g id="text_15">
      <!-- 2016 -->
      <g style="fill: #262626" transform="translate(294.658885 574.287958) scale(0.14 -0.14)">
       <use xlink:href="#DejaVuSans-32"/>
       <use xlink:href="#DejaVuSans-30" x="63.623047"/>
       <use xlink:href="#DejaVuSans-31" x="127.246094"/>
       <use xlink:href="#DejaVuSans-36" x="190.869141"/>
      </g>
     </g>
    </g>
    <g id="xtick_30">
     <g id="line2d_88">
      <path d="M 355.457086 560.150145 
L 355.457086 398.792083 
" clip-path="url(#pce403133a9)" style="fill: none; stroke: #ffffff; stroke-width: 0.8; stroke-linecap: round"/>
     </g>
     <g id="line2d_89"/>
     <g id="text_16">
      <!-- 2017 -->
      <g style="fill: #262626" transform="translate(337.642086 574.287958) scale(0.14 -0.14)">
       <use xlink:href="#DejaVuSans-32"/>
       <use xlink:href="#DejaVuSans-30" x="63.623047"/>
       <use xlink:href="#DejaVuSans-31" x="127.246094"/>
       <use xlink:href="#DejaVuSans-37" x="190.869141"/>
      </g>
     </g>
    </g>
    <g id="xtick_31">
     <g id="line2d_90">
      <path d="M 398.322847 560.150145 
L 398.322847 398.792083 
" clip-path="url(#pce403133a9)" style="fill: none; stroke: #ffffff; stroke-width: 0.8; stroke-linecap: round"/>
     </g>
     <g id="line2d_91"/>
     <g id="text_17">
      <!-- 2018 -->
      <g style="fill: #262626" transform="translate(380.507847 574.287958) scale(0.14 -0.14)">
       <use xlink:href="#DejaVuSans-32"/>
       <use xlink:href="#DejaVuSans-30" x="63.623047"/>
       <use xlink:href="#DejaVuSans-31" x="127.246094"/>
       <use xlink:href="#DejaVuSans-38" x="190.869141"/>
      </g>
     </g>
    </g>
    <g id="xtick_32">
     <g id="line2d_92">
      <path d="M 441.188608 560.150145 
L 441.188608 398.792083 
" clip-path="url(#pce403133a9)" style="fill: none; stroke: #ffffff; stroke-width: 0.8; stroke-linecap: round"/>
     </g>
     <g id="line2d_93"/>
     <g id="text_18">
      <!-- 2019 -->
      <g style="fill: #262626" transform="translate(423.373608 574.287958) scale(0.14 -0.14)">
       <use xlink:href="#DejaVuSans-32"/>
       <use xlink:href="#DejaVuSans-30" x="63.623047"/>
       <use xlink:href="#DejaVuSans-31" x="127.246094"/>
       <use xlink:href="#DejaVuSans-39" x="190.869141"/>
      </g>
     </g>
    </g>
    <g id="xtick_33">
     <g id="line2d_94">
      <path d="M 484.054369 560.150145 
L 484.054369 398.792083 
" clip-path="url(#pce403133a9)" style="fill: none; stroke: #ffffff; stroke-width: 0.8; stroke-linecap: round"/>
     </g>
     <g id="line2d_95"/>
     <g id="text_19">
      <!-- 2020 -->
      <g style="fill: #262626" transform="translate(466.239369 574.287958) scale(0.14 -0.14)">
       <use xlink:href="#DejaVuSans-32"/>
       <use xlink:href="#DejaVuSans-30" x="63.623047"/>
       <use xlink:href="#DejaVuSans-32" x="127.246094"/>
       <use xlink:href="#DejaVuSans-30" x="190.869141"/>
      </g>
     </g>
    </g>
   </g>
   <g id="matplotlib.axis_6">
    <g id="ytick_7">
     <g id="line2d_96">
      <path d="M 37.4225 531.467159 
L 505.19952 531.467159 
" clip-path="url(#pce403133a9)" style="fill: none; stroke: #ffffff; stroke-width: 0.8; stroke-linecap: round"/>
     </g>
     <g id="line2d_97"/>
     <g id="text_20">
      <!-- 0 -->
      <g style="fill: #262626" transform="translate(25.015 536.786065) scale(0.14 -0.14)">
       <use xlink:href="#DejaVuSans-30"/>
      </g>
     </g>
    </g>
    <g id="ytick_8">
     <g id="line2d_98">
      <path d="M 37.4225 477.57644 
L 505.19952 477.57644 
" clip-path="url(#pce403133a9)" style="fill: none; stroke: #ffffff; stroke-width: 0.8; stroke-linecap: round"/>
     </g>
     <g id="line2d_99"/>
     <g id="text_21">
      <!-- 50 -->
      <g style="fill: #262626" transform="translate(16.1075 482.895347) scale(0.14 -0.14)">
       <use xlink:href="#DejaVuSans-35"/>
       <use xlink:href="#DejaVuSans-30" x="63.623047"/>
      </g>
     </g>
    </g>
    <g id="ytick_9">
     <g id="line2d_100">
      <path d="M 37.4225 423.685722 
L 505.19952 423.685722 
" clip-path="url(#pce403133a9)" style="fill: none; stroke: #ffffff; stroke-width: 0.8; stroke-linecap: round"/>
     </g>
     <g id="line2d_101"/>
     <g id="text_22">
      <!-- 100 -->
      <g style="fill: #262626" transform="translate(7.2 429.004628) scale(0.14 -0.14)">
       <use xlink:href="#DejaVuSans-31"/>
       <use xlink:href="#DejaVuSans-30" x="63.623047"/>
       <use xlink:href="#DejaVuSans-30" x="127.246094"/>
      </g>
     </g>
    </g>
   </g>
   <g id="PolyCollection_5">
    <defs>
     <path id="m7dbe182e78" d="M 358.980299 -52.809635 
L 358.980299 -44.146475 
L 362.268631 -42.842994 
L 365.909285 -38.730776 
L 369.432498 -32.371134 
L 373.073152 -31.583832 
L 376.596365 -32.283154 
L 380.237019 -38.609684 
L 383.877673 -49.186947 
L 387.400886 -61.784855 
L 391.041539 -75.344268 
L 394.564753 -85.978782 
L 398.205406 -95.214357 
L 401.84606 -101.781576 
L 405.134392 -104.614487 
L 408.775046 -105.038929 
L 412.298259 -105.442759 
L 415.938913 -106.263449 
L 419.462126 -105.949129 
L 423.10278 -111.154481 
L 426.743433 -110.019108 
L 430.266647 -109.362752 
L 433.9073 -112.12757 
L 437.430514 -110.242903 
L 441.071167 -105.069842 
L 444.711821 -99.948987 
L 448.000153 -98.605653 
L 451.640807 -95.485857 
L 455.16402 -92.510826 
L 458.804674 -90.487787 
L 462.327887 -83.203876 
L 465.968541 -85.491867 
L 469.609194 -80.077674 
L 473.132408 -81.597694 
L 476.773061 -87.463895 
L 480.296275 -81.453339 
L 483.936928 -78.963806 
L 483.936928 -175.030059 
L 483.936928 -175.030059 
L 480.296275 -174.632716 
L 476.773061 -178.272979 
L 473.132408 -170.265593 
L 469.609194 -165.893615 
L 465.968541 -168.681155 
L 462.327887 -164.154584 
L 458.804674 -167.866945 
L 455.16402 -167.581969 
L 451.640807 -167.459077 
L 448.000153 -168.724431 
L 444.711821 -167.386351 
L 441.071167 -169.197593 
L 437.430514 -172.338432 
L 433.9073 -172.308924 
L 430.266647 -166.263248 
L 426.743433 -165.018046 
L 423.10278 -164.318989 
L 419.462126 -156.522817 
L 415.938913 -154.413947 
L 412.298259 -151.227812 
L 408.775046 -148.199841 
L 405.134392 -146.033657 
L 401.84606 -140.415197 
L 398.205406 -131.763146 
L 394.564753 -120.986641 
L 391.041539 -107.533064 
L 387.400886 -92.046068 
L 383.877673 -77.136859 
L 380.237019 -64.025596 
L 376.596365 -55.845793 
L 373.073152 -52.679829 
L 369.432498 -50.957729 
L 365.909285 -54.385613 
L 362.268631 -55.686236 
L 358.980299 -52.809635 
z
" style="stroke: #fa7c17; stroke-opacity: 0.25"/>
    </defs>
    <g clip-path="url(#pce403133a9)">
     <use xlink:href="#m7dbe182e78" x="0" y="584.39952" style="fill: #fa7c17; fill-opacity: 0.25; stroke: #fa7c17; stroke-opacity: 0.25"/>
    </g>
   </g>
   <g id="line2d_102">
    <path d="M 358.980299 540.253045 
L 362.268631 541.556526 
L 365.909285 545.668744 
L 369.432498 552.028386 
L 373.073152 552.815688 
L 376.596365 552.116366 
L 380.237019 545.789836 
L 383.877673 535.212573 
L 387.400886 522.614665 
L 391.041539 509.055252 
L 394.564753 498.420738 
L 398.205406 489.185163 
L 401.84606 482.617944 
L 405.134392 479.785033 
L 408.775046 479.360591 
L 412.298259 478.956761 
L 415.938913 478.136071 
L 419.462126 478.450391 
L 423.10278 473.245039 
L 426.743433 474.380412 
L 430.266647 475.036768 
L 433.9073 472.27195 
L 437.430514 474.156617 
L 441.071167 479.329678 
L 444.711821 484.450533 
L 448.000153 485.793867 
L 451.640807 488.913663 
L 455.16402 491.888694 
L 458.804674 493.911733 
L 462.327887 501.195644 
L 465.968541 498.907653 
L 469.609194 504.321846 
L 473.132408 502.801826 
L 476.773061 496.935625 
L 480.296275 502.946181 
L 483.936928 505.435714 
" clip-path="url(#pce403133a9)" style="fill: none; stroke: #fa7c17; stroke-opacity: 0; stroke-width: 1.5; stroke-linecap: round"/>
   </g>
   <g id="line2d_103">
    <path d="M 358.980299 531.589885 
L 362.268631 528.713284 
L 365.909285 530.013907 
L 369.432498 533.441791 
L 373.073152 531.719691 
L 376.596365 528.553727 
L 380.237019 520.373924 
L 383.877673 507.262661 
L 387.400886 492.353452 
L 391.041539 476.866456 
L 394.564753 463.412879 
L 398.205406 452.636374 
L 401.84606 443.984323 
L 405.134392 438.365863 
L 408.775046 436.199679 
L 412.298259 433.171708 
L 415.938913 429.985573 
L 419.462126 427.876703 
L 423.10278 420.080531 
L 426.743433 419.381474 
L 430.266647 418.136272 
L 433.9073 412.090596 
L 437.430514 412.061088 
L 441.071167 415.201927 
L 444.711821 417.013169 
L 448.000153 415.675089 
L 451.640807 416.940443 
L 455.16402 416.817551 
L 458.804674 416.532575 
L 462.327887 420.244936 
L 465.968541 415.718365 
L 469.609194 418.505905 
L 473.132408 414.133927 
L 476.773061 406.126541 
L 480.296275 409.766804 
L 483.936928 409.369461 
" clip-path="url(#pce403133a9)" style="fill: none; stroke: #fa7c17; stroke-opacity: 0; stroke-width: 1.5; stroke-linecap: round"/>
   </g>
   <g id="line2d_104">
    <path d="M 358.980299 535.722584 
L 362.268631 535.274429 
L 365.909285 537.64815 
L 369.432498 542.328911 
L 373.073152 542.278965 
L 376.596365 541.550895 
L 380.237019 532.576946 
L 383.877673 521.610599 
L 387.400886 507.625478 
L 391.041539 492.770641 
L 394.564753 481.914344 
L 398.205406 470.689118 
L 401.84606 464.265305 
L 405.134392 459.589828 
L 408.775046 457.631524 
L 412.298259 456.361342 
L 415.938913 454.136061 
L 419.462126 454.122312 
L 423.10278 447.821337 
L 426.743433 448.691446 
L 430.266647 447.416106 
L 433.9073 444.075951 
L 437.430514 444.71793 
L 441.071167 447.35 
L 444.711821 450.515896 
L 448.000153 450.192419 
L 451.640807 452.272953 
L 455.16402 454.450003 
L 458.804674 455.549211 
L 462.327887 459.951814 
L 465.968541 458.689729 
L 469.609194 460.546295 
L 473.132408 460.759453 
L 476.773061 454.121955 
L 480.296275 458.759501 
L 483.936928 459.419293 
" clip-path="url(#pce403133a9)" style="fill: none; stroke: #000000; stroke-width: 1.5; stroke-linecap: round"/>
   </g>
   <g id="line2d_105">
    <path d="M 355.457086 560.150145 
L 355.457086 398.792083 
" clip-path="url(#pce403133a9)" style="fill: none; stroke: #ff0000; stroke-width: 3; stroke-linecap: round"/>
   </g>
   <g id="patch_13">
    <path d="M 37.4225 560.150145 
L 37.4225 398.792083 
" style="fill: none"/>
   </g>
   <g id="patch_14">
    <path d="M 505.19952 560.150145 
L 505.19952 398.792083 
" style="fill: none"/>
   </g>
   <g id="patch_15">
    <path d="M 37.4225 560.150145 
L 505.19952 560.150145 
" style="fill: none"/>
   </g>
   <g id="patch_16">
    <path d="M 37.4225 398.792083 
L 505.19952 398.792083 
" style="fill: none"/>
   </g>
   <g id="text_23">
    <!-- Cumulative Causal Impact -->
    <g style="fill: #262626" transform="translate(166.04601 392.792083) scale(0.16 -0.16)">
     <use xlink:href="#DejaVuSans-43"/>
     <use xlink:href="#DejaVuSans-75" x="69.824219"/>
     <use xlink:href="#DejaVuSans-6d" x="133.203125"/>
     <use xlink:href="#DejaVuSans-75" x="230.615234"/>
     <use xlink:href="#DejaVuSans-6c" x="293.994141"/>
     <use xlink:href="#DejaVuSans-61" x="321.777344"/>
     <use xlink:href="#DejaVuSans-74" x="383.056641"/>
     <use xlink:href="#DejaVuSans-69" x="422.265625"/>
     <use xlink:href="#DejaVuSans-76" x="450.048828"/>
     <use xlink:href="#DejaVuSans-65" x="509.228516"/>
     <use xlink:href="#DejaVuSans-20" x="570.751953"/>
     <use xlink:href="#DejaVuSans-43" x="602.539062"/>
     <use xlink:href="#DejaVuSans-61" x="672.363281"/>
     <use xlink:href="#DejaVuSans-75" x="733.642578"/>
     <use xlink:href="#DejaVuSans-73" x="797.021484"/>
     <use xlink:href="#DejaVuSans-61" x="849.121094"/>
     <use xlink:href="#DejaVuSans-6c" x="910.400391"/>
     <use xlink:href="#DejaVuSans-20" x="938.183594"/>
     <use xlink:href="#DejaVuSans-49" x="969.970703"/>
     <use xlink:href="#DejaVuSans-6d" x="999.462891"/>
     <use xlink:href="#DejaVuSans-70" x="1096.875"/>
     <use xlink:href="#DejaVuSans-61" x="1160.351562"/>
     <use xlink:href="#DejaVuSans-63" x="1221.630859"/>
     <use xlink:href="#DejaVuSans-74" x="1276.611328"/>
    </g>
   </g>
  </g>
 </g>
 <defs>
  <clipPath id="p21898398da">
   <rect x="37.4225" y="27.76" width="467.77702" height="161.358062"/>
  </clipPath>
  <clipPath id="p5cdb5ee907">
   <rect x="37.4225" y="213.276042" width="467.77702" height="161.358062"/>
  </clipPath>
  <clipPath id="pce403133a9">
   <rect x="37.4225" y="398.792083" width="467.77702" height="161.358062"/>
  </clipPath>
 </defs>
</svg>
