<?xml version="1.0" encoding="utf-8" standalone="no"?>
<!DOCTYPE svg PUBLIC "-//W3C//DTD SVG 1.1//EN"
  "http://www.w3.org/Graphics/SVG/1.1/DTD/svg11.dtd">
<svg xmlns:xlink="http://www.w3.org/1999/xlink" width="512.39952pt" height="584.39952pt" viewBox="0 0 512.39952 584.39952" xmlns="http://www.w3.org/2000/svg" version="1.1">
 <metadata>
  <rdf:RDF xmlns:dc="http://purl.org/dc/elements/1.1/" xmlns:cc="http://creativecommons.org/ns#" xmlns:rdf="http://www.w3.org/1999/02/22-rdf-syntax-ns#">
   <cc:Work>
    <dc:type rdf:resource="http://purl.org/dc/dcmitype/StillImage"/>
    <dc:date>2022-10-29T12:36:24.615934</dc:date>
    <dc:format>image/svg+xml</dc:format>
    <dc:creator>
     <cc:Agent>
      <dc:title>Matplotlib v3.6.1, https://matplotlib.org/</dc:title>
     </cc:Agent>
    </dc:creator>
   </cc:Work>
  </rdf:RDF>
 </metadata>
 <defs>
  <style type="text/css">*{stroke-linejoin: round; stroke-linecap: butt}</style>
 </defs>
 <g id="figure_1">
  <g id="patch_1">
   <path d="M 0 584.39952 
L 512.39952 584.39952 
L 512.39952 0 
L 0 0 
z
" style="fill: #ffffff"/>
  </g>
  <g id="axes_1">
   <g id="patch_2">
    <path d="M 31.289881 186.75375 
L 505.248701 186.75375 
L 505.248701 27.716878 
L 31.289881 27.716878 
z
" style="fill: #eeeeee"/>
   </g>
   <g id="matplotlib.axis_1">
    <g id="xtick_1">
     <g id="line2d_1">
      <path d="M 49.26369 186.75375 
L 49.26369 27.716878 
" clip-path="url(#p1b386e8153)" style="fill: none; stroke: #ffffff; stroke-width: 0.8; stroke-linecap: round"/>
     </g>
     <g id="line2d_2"/>
    </g>
    <g id="xtick_2">
     <g id="line2d_3">
      <path d="M 92.695934 186.75375 
L 92.695934 27.716878 
" clip-path="url(#p1b386e8153)" style="fill: none; stroke: #ffffff; stroke-width: 0.8; stroke-linecap: round"/>
     </g>
     <g id="line2d_4"/>
    </g>
    <g id="xtick_3">
     <g id="line2d_5">
      <path d="M 136.128178 186.75375 
L 136.128178 27.716878 
" clip-path="url(#p1b386e8153)" style="fill: none; stroke: #ffffff; stroke-width: 0.8; stroke-linecap: round"/>
     </g>
     <g id="line2d_6"/>
    </g>
    <g id="xtick_4">
     <g id="line2d_7">
      <path d="M 179.679414 186.75375 
L 179.679414 27.716878 
" clip-path="url(#p1b386e8153)" style="fill: none; stroke: #ffffff; stroke-width: 0.8; stroke-linecap: round"/>
     </g>
     <g id="line2d_8"/>
    </g>
    <g id="xtick_5">
     <g id="line2d_9">
      <path d="M 223.111657 186.75375 
L 223.111657 27.716878 
" clip-path="url(#p1b386e8153)" style="fill: none; stroke: #ffffff; stroke-width: 0.8; stroke-linecap: round"/>
     </g>
     <g id="line2d_10"/>
    </g>
    <g id="xtick_6">
     <g id="line2d_11">
      <path d="M 266.543901 186.75375 
L 266.543901 27.716878 
" clip-path="url(#p1b386e8153)" style="fill: none; stroke: #ffffff; stroke-width: 0.8; stroke-linecap: round"/>
     </g>
     <g id="line2d_12"/>
    </g>
    <g id="xtick_7">
     <g id="line2d_13">
      <path d="M 309.976144 186.75375 
L 309.976144 27.716878 
" clip-path="url(#p1b386e8153)" style="fill: none; stroke: #ffffff; stroke-width: 0.8; stroke-linecap: round"/>
     </g>
     <g id="line2d_14"/>
    </g>
    <g id="xtick_8">
     <g id="line2d_15">
      <path d="M 353.52738 186.75375 
L 353.52738 27.716878 
" clip-path="url(#p1b386e8153)" style="fill: none; stroke: #ffffff; stroke-width: 0.8; stroke-linecap: round"/>
     </g>
     <g id="line2d_16"/>
    </g>
    <g id="xtick_9">
     <g id="line2d_17">
      <path d="M 396.959624 186.75375 
L 396.959624 27.716878 
" clip-path="url(#p1b386e8153)" style="fill: none; stroke: #ffffff; stroke-width: 0.8; stroke-linecap: round"/>
     </g>
     <g id="line2d_18"/>
    </g>
    <g id="xtick_10">
     <g id="line2d_19">
      <path d="M 440.391868 186.75375 
L 440.391868 27.716878 
" clip-path="url(#p1b386e8153)" style="fill: none; stroke: #ffffff; stroke-width: 0.8; stroke-linecap: round"/>
     </g>
     <g id="line2d_20"/>
    </g>
    <g id="xtick_11">
     <g id="line2d_21">
      <path d="M 483.824111 186.75375 
L 483.824111 27.716878 
" clip-path="url(#p1b386e8153)" style="fill: none; stroke: #ffffff; stroke-width: 0.8; stroke-linecap: round"/>
     </g>
     <g id="line2d_22"/>
    </g>
   </g>
   <g id="matplotlib.axis_2">
    <g id="ytick_1">
     <g id="line2d_23">
      <path d="M 31.289881 184.539406 
L 505.248701 184.539406 
" clip-path="url(#p1b386e8153)" style="fill: none; stroke: #ffffff; stroke-width: 0.8; stroke-linecap: round"/>
     </g>
     <g id="line2d_24"/>
     <g id="text_1">
      <!-- 20 -->
      <g style="fill: #262626" transform="translate(9.974881 189.858312) scale(0.14 -0.14)">
       <defs>
        <path id="DejaVuSans-32" d="M 1228 531 
L 3431 531 
L 3431 0 
L 469 0 
L 469 531 
Q 828 903 1448 1529 
Q 2069 2156 2228 2338 
Q 2531 2678 2651 2914 
Q 2772 3150 2772 3378 
Q 2772 3750 2511 3984 
Q 2250 4219 1831 4219 
Q 1534 4219 1204 4116 
Q 875 4013 500 3803 
L 500 4441 
Q 881 4594 1212 4672 
Q 1544 4750 1819 4750 
Q 2544 4750 2975 4387 
Q 3406 4025 3406 3419 
Q 3406 3131 3298 2873 
Q 3191 2616 2906 2266 
Q 2828 2175 2409 1742 
Q 1991 1309 1228 531 
z
" transform="scale(0.015625)"/>
        <path id="DejaVuSans-30" d="M 2034 4250 
Q 1547 4250 1301 3770 
Q 1056 3291 1056 2328 
Q 1056 1369 1301 889 
Q 1547 409 2034 409 
Q 2525 409 2770 889 
Q 3016 1369 3016 2328 
Q 3016 3291 2770 3770 
Q 2525 4250 2034 4250 
z
M 2034 4750 
Q 2819 4750 3233 4129 
Q 3647 3509 3647 2328 
Q 3647 1150 3233 529 
Q 2819 -91 2034 -91 
Q 1250 -91 836 529 
Q 422 1150 422 2328 
Q 422 3509 836 4129 
Q 1250 4750 2034 4750 
z
" transform="scale(0.015625)"/>
       </defs>
       <use xlink:href="#DejaVuSans-32"/>
       <use xlink:href="#DejaVuSans-30" x="63.623047"/>
      </g>
     </g>
    </g>
    <g id="ytick_2">
     <g id="line2d_25">
      <path d="M 31.289881 138.86079 
L 505.248701 138.86079 
" clip-path="url(#p1b386e8153)" style="fill: none; stroke: #ffffff; stroke-width: 0.8; stroke-linecap: round"/>
     </g>
     <g id="line2d_26"/>
     <g id="text_2">
      <!-- 40 -->
      <g style="fill: #262626" transform="translate(9.974881 144.179697) scale(0.14 -0.14)">
       <defs>
        <path id="DejaVuSans-34" d="M 2419 4116 
L 825 1625 
L 2419 1625 
L 2419 4116 
z
M 2253 4666 
L 3047 4666 
L 3047 1625 
L 3713 1625 
L 3713 1100 
L 3047 1100 
L 3047 0 
L 2419 0 
L 2419 1100 
L 313 1100 
L 313 1709 
L 2253 4666 
z
" transform="scale(0.015625)"/>
       </defs>
       <use xlink:href="#DejaVuSans-34"/>
       <use xlink:href="#DejaVuSans-30" x="63.623047"/>
      </g>
     </g>
    </g>
    <g id="ytick_3">
     <g id="line2d_27">
      <path d="M 31.289881 93.182175 
L 505.248701 93.182175 
" clip-path="url(#p1b386e8153)" style="fill: none; stroke: #ffffff; stroke-width: 0.8; stroke-linecap: round"/>
     </g>
     <g id="line2d_28"/>
     <g id="text_3">
      <!-- 60 -->
      <g style="fill: #262626" transform="translate(9.974881 98.501082) scale(0.14 -0.14)">
       <defs>
        <path id="DejaVuSans-36" d="M 2113 2584 
Q 1688 2584 1439 2293 
Q 1191 2003 1191 1497 
Q 1191 994 1439 701 
Q 1688 409 2113 409 
Q 2538 409 2786 701 
Q 3034 994 3034 1497 
Q 3034 2003 2786 2293 
Q 2538 2584 2113 2584 
z
M 3366 4563 
L 3366 3988 
Q 3128 4100 2886 4159 
Q 2644 4219 2406 4219 
Q 1781 4219 1451 3797 
Q 1122 3375 1075 2522 
Q 1259 2794 1537 2939 
Q 1816 3084 2150 3084 
Q 2853 3084 3261 2657 
Q 3669 2231 3669 1497 
Q 3669 778 3244 343 
Q 2819 -91 2113 -91 
Q 1303 -91 875 529 
Q 447 1150 447 2328 
Q 447 3434 972 4092 
Q 1497 4750 2381 4750 
Q 2619 4750 2861 4703 
Q 3103 4656 3366 4563 
z
" transform="scale(0.015625)"/>
       </defs>
       <use xlink:href="#DejaVuSans-36"/>
       <use xlink:href="#DejaVuSans-30" x="63.623047"/>
      </g>
     </g>
    </g>
    <g id="ytick_4">
     <g id="line2d_29">
      <path d="M 31.289881 47.50356 
L 505.248701 47.50356 
" clip-path="url(#p1b386e8153)" style="fill: none; stroke: #ffffff; stroke-width: 0.8; stroke-linecap: round"/>
     </g>
     <g id="line2d_30"/>
     <g id="text_4">
      <!-- 80 -->
      <g style="fill: #262626" transform="translate(9.974881 52.822466) scale(0.14 -0.14)">
       <defs>
        <path id="DejaVuSans-38" d="M 2034 2216 
Q 1584 2216 1326 1975 
Q 1069 1734 1069 1313 
Q 1069 891 1326 650 
Q 1584 409 2034 409 
Q 2484 409 2743 651 
Q 3003 894 3003 1313 
Q 3003 1734 2745 1975 
Q 2488 2216 2034 2216 
z
M 1403 2484 
Q 997 2584 770 2862 
Q 544 3141 544 3541 
Q 544 4100 942 4425 
Q 1341 4750 2034 4750 
Q 2731 4750 3128 4425 
Q 3525 4100 3525 3541 
Q 3525 3141 3298 2862 
Q 3072 2584 2669 2484 
Q 3125 2378 3379 2068 
Q 3634 1759 3634 1313 
Q 3634 634 3220 271 
Q 2806 -91 2034 -91 
Q 1263 -91 848 271 
Q 434 634 434 1313 
Q 434 1759 690 2068 
Q 947 2378 1403 2484 
z
M 1172 3481 
Q 1172 3119 1398 2916 
Q 1625 2713 2034 2713 
Q 2441 2713 2670 2916 
Q 2900 3119 2900 3481 
Q 2900 3844 2670 4047 
Q 2441 4250 2034 4250 
Q 1625 4250 1398 4047 
Q 1172 3844 1172 3481 
z
" transform="scale(0.015625)"/>
       </defs>
       <use xlink:href="#DejaVuSans-38"/>
       <use xlink:href="#DejaVuSans-30" x="63.623047"/>
      </g>
     </g>
    </g>
   </g>
   <g id="PolyCollection_1">
    <defs>
     <path id="m4f7a65175e" d="M 357.097154 -437.31768 
L 357.097154 -446.399535 
L 360.428942 -453.394302 
L 364.117708 -450.014559 
L 367.687482 -464.164567 
L 371.376248 -482.661304 
L 374.946021 -505.420132 
L 378.634787 -490.881262 
L 382.323553 -526.233219 
L 385.893326 -487.347135 
L 389.582092 -471.719266 
L 393.151866 -465.541347 
L 396.840632 -453.002042 
L 400.529397 -452.162061 
L 403.861186 -459.156829 
L 407.549952 -455.777086 
L 411.119725 -469.927093 
L 414.808491 -488.42383 
L 418.378265 -511.182659 
L 422.067031 -496.643789 
L 425.755796 -531.995746 
L 429.32557 -493.109662 
L 433.014336 -477.481793 
L 436.584109 -471.303874 
L 440.272875 -458.764569 
L 443.961641 -457.924588 
L 447.29343 -464.919356 
L 450.982195 -461.539612 
L 454.551969 -475.68962 
L 458.240735 -494.186357 
L 461.810508 -516.945185 
L 465.499274 -502.406316 
L 469.18804 -537.758272 
L 472.757814 -498.872188 
L 476.446579 -483.24432 
L 480.016353 -477.066401 
L 483.705119 -464.527095 
L 483.705119 -463.151476 
L 483.705119 -463.151476 
L 480.016353 -467.270161 
L 476.446579 -497.350505 
L 472.757814 -498.290645 
L 469.18804 -533.791891 
L 465.499274 -505.00246 
L 461.810508 -507.530427 
L 458.240735 -491.894999 
L 454.551969 -471.038374 
L 450.982195 -457.038377 
L 447.29343 -465.665505 
L 443.961641 -451.222723 
L 440.272875 -453.294436 
L 436.584109 -469.895441 
L 433.014336 -484.571115 
L 429.32557 -495.462139 
L 425.755796 -530.069379 
L 422.067031 -509.906589 
L 418.378265 -511.191263 
L 414.808491 -493.175097 
L 411.119725 -472.674694 
L 407.549952 -460.132323 
L 403.861186 -468.947967 
L 400.529397 -465.83859 
L 396.840632 -476.77741 
L 393.151866 -488.519674 
L 389.582092 -503.238107 
L 385.893326 -516.803595 
L 382.323553 -549.453693 
L 378.634787 -509.788158 
L 374.946021 -507.001306 
L 371.376248 -482.794751 
L 367.687482 -454.213264 
L 364.117708 -444.857429 
L 360.428942 -454.360165 
L 357.097154 -437.31768 
z
" style="stroke: #2a2eec; stroke-opacity: 0.25"/>
    </defs>
    <g clip-path="url(#p1b386e8153)">
     <use xlink:href="#m4f7a65175e" x="0" y="584.39952" style="fill: #2a2eec; fill-opacity: 0.25; stroke: #2a2eec; stroke-opacity: 0.25"/>
    </g>
   </g>
   <g id="line2d_31">
    <defs>
     <path id="m6aaf8a6191" d="M 0 1.5 
C 0.397805 1.5 0.77937 1.341951 1.06066 1.06066 
C 1.341951 0.77937 1.5 0.397805 1.5 0 
C 1.5 -0.397805 1.341951 -0.77937 1.06066 -1.06066 
C 0.77937 -1.341951 0.397805 -1.5 0 -1.5 
C -0.397805 -1.5 -0.77937 -1.341951 -1.06066 -1.06066 
C -1.341951 -0.77937 -1.5 -0.397805 -1.5 0 
C -1.5 0.397805 -1.341951 0.77937 -1.06066 1.06066 
C -0.77937 1.341951 -0.397805 1.5 0 1.5 
z
" style="stroke: #000000"/>
    </defs>
    <g clip-path="url(#p1b386e8153)">
     <use xlink:href="#m6aaf8a6191" x="52.833464" y="172.98686" style="stroke: #000000"/>
     <use xlink:href="#m6aaf8a6191" x="56.165252" y="168.118373" style="stroke: #000000"/>
     <use xlink:href="#m6aaf8a6191" x="59.854018" y="169.722287" style="stroke: #000000"/>
     <use xlink:href="#m6aaf8a6191" x="63.423792" y="158.864104" style="stroke: #000000"/>
     <use xlink:href="#m6aaf8a6191" x="67.112558" y="137.138769" style="stroke: #000000"/>
     <use xlink:href="#m6aaf8a6191" x="70.682331" y="119.676311" style="stroke: #000000"/>
     <use xlink:href="#m6aaf8a6191" x="74.371097" y="133.268875" style="stroke: #000000"/>
     <use xlink:href="#m6aaf8a6191" x="78.059863" y="105.31535" style="stroke: #000000"/>
     <use xlink:href="#m6aaf8a6191" x="81.629636" y="140.671058" style="stroke: #000000"/>
     <use xlink:href="#m6aaf8a6191" x="85.318402" y="156.342715" style="stroke: #000000"/>
     <use xlink:href="#m6aaf8a6191" x="88.888176" y="159.199775" style="stroke: #000000"/>
     <use xlink:href="#m6aaf8a6191" x="92.576941" y="168.900536" style="stroke: #000000"/>
     <use xlink:href="#m6aaf8a6191" x="96.265707" y="179.524801" style="stroke: #000000"/>
     <use xlink:href="#m6aaf8a6191" x="99.597496" y="159.050399" style="stroke: #000000"/>
     <use xlink:href="#m6aaf8a6191" x="103.286262" y="165.213968" style="stroke: #000000"/>
     <use xlink:href="#m6aaf8a6191" x="106.856035" y="151.693155" style="stroke: #000000"/>
     <use xlink:href="#m6aaf8a6191" x="110.544801" y="141.061151" style="stroke: #000000"/>
     <use xlink:href="#m6aaf8a6191" x="114.114575" y="119.164383" style="stroke: #000000"/>
     <use xlink:href="#m6aaf8a6191" x="117.80334" y="125.333698" style="stroke: #000000"/>
     <use xlink:href="#m6aaf8a6191" x="121.492106" y="97.58307" style="stroke: #000000"/>
     <use xlink:href="#m6aaf8a6191" x="125.06188" y="134.827992" style="stroke: #000000"/>
     <use xlink:href="#m6aaf8a6191" x="128.750646" y="148.367779" style="stroke: #000000"/>
     <use xlink:href="#m6aaf8a6191" x="132.320419" y="157.909064" style="stroke: #000000"/>
     <use xlink:href="#m6aaf8a6191" x="136.009185" y="170.448558" style="stroke: #000000"/>
     <use xlink:href="#m6aaf8a6191" x="139.697951" y="166.824249" style="stroke: #000000"/>
     <use xlink:href="#m6aaf8a6191" x="143.148732" y="151.27282" style="stroke: #000000"/>
     <use xlink:href="#m6aaf8a6191" x="146.837498" y="167.348272" style="stroke: #000000"/>
     <use xlink:href="#m6aaf8a6191" x="150.407271" y="151.72001" style="stroke: #000000"/>
     <use xlink:href="#m6aaf8a6191" x="154.096037" y="127.832431" style="stroke: #000000"/>
     <use xlink:href="#m6aaf8a6191" x="157.665811" y="108.363478" style="stroke: #000000"/>
     <use xlink:href="#m6aaf8a6191" x="161.354577" y="119.437599" style="stroke: #000000"/>
     <use xlink:href="#m6aaf8a6191" x="165.043342" y="84.4026" style="stroke: #000000"/>
     <use xlink:href="#m6aaf8a6191" x="168.613116" y="124.914327" style="stroke: #000000"/>
     <use xlink:href="#m6aaf8a6191" x="172.301882" y="137.903918" style="stroke: #000000"/>
     <use xlink:href="#m6aaf8a6191" x="175.871655" y="148.456984" style="stroke: #000000"/>
     <use xlink:href="#m6aaf8a6191" x="179.560421" y="161.892258" style="stroke: #000000"/>
     <use xlink:href="#m6aaf8a6191" x="183.249187" y="160.906987" style="stroke: #000000"/>
     <use xlink:href="#m6aaf8a6191" x="186.580976" y="165.41431" style="stroke: #000000"/>
     <use xlink:href="#m6aaf8a6191" x="190.269741" y="156.708944" style="stroke: #000000"/>
     <use xlink:href="#m6aaf8a6191" x="193.839515" y="147.181757" style="stroke: #000000"/>
     <use xlink:href="#m6aaf8a6191" x="197.528281" y="125.655791" style="stroke: #000000"/>
     <use xlink:href="#m6aaf8a6191" x="201.098054" y="101.306739" style="stroke: #000000"/>
     <use xlink:href="#m6aaf8a6191" x="204.78682" y="114.142231" style="stroke: #000000"/>
     <use xlink:href="#m6aaf8a6191" x="208.475586" y="78.291996" style="stroke: #000000"/>
     <use xlink:href="#m6aaf8a6191" x="212.045359" y="126.606924" style="stroke: #000000"/>
     <use xlink:href="#m6aaf8a6191" x="215.734125" y="130.978913" style="stroke: #000000"/>
     <use xlink:href="#m6aaf8a6191" x="219.303899" y="146.831785" style="stroke: #000000"/>
     <use xlink:href="#m6aaf8a6191" x="222.992665" y="156.740519" style="stroke: #000000"/>
     <use xlink:href="#m6aaf8a6191" x="226.681431" y="149.137512" style="stroke: #000000"/>
     <use xlink:href="#m6aaf8a6191" x="230.013219" y="150.285219" style="stroke: #000000"/>
     <use xlink:href="#m6aaf8a6191" x="233.701985" y="146.474386" style="stroke: #000000"/>
     <use xlink:href="#m6aaf8a6191" x="237.271758" y="133.371217" style="stroke: #000000"/>
     <use xlink:href="#m6aaf8a6191" x="240.960524" y="125.95364" style="stroke: #000000"/>
     <use xlink:href="#m6aaf8a6191" x="244.530298" y="95.975649" style="stroke: #000000"/>
     <use xlink:href="#m6aaf8a6191" x="248.219064" y="111.333623" style="stroke: #000000"/>
     <use xlink:href="#m6aaf8a6191" x="251.90783" y="70.427421" style="stroke: #000000"/>
     <use xlink:href="#m6aaf8a6191" x="255.477603" y="110.966766" style="stroke: #000000"/>
     <use xlink:href="#m6aaf8a6191" x="259.166369" y="129.212166" style="stroke: #000000"/>
     <use xlink:href="#m6aaf8a6191" x="262.736142" y="135.872383" style="stroke: #000000"/>
     <use xlink:href="#m6aaf8a6191" x="266.424908" y="149.348653" style="stroke: #000000"/>
     <use xlink:href="#m6aaf8a6191" x="270.113674" y="154.095886" style="stroke: #000000"/>
     <use xlink:href="#m6aaf8a6191" x="273.445463" y="145.618325" style="stroke: #000000"/>
     <use xlink:href="#m6aaf8a6191" x="277.134229" y="147.275061" style="stroke: #000000"/>
     <use xlink:href="#m6aaf8a6191" x="280.704002" y="130.326574" style="stroke: #000000"/>
     <use xlink:href="#m6aaf8a6191" x="284.392768" y="109.656372" style="stroke: #000000"/>
     <use xlink:href="#m6aaf8a6191" x="287.962541" y="84.379339" style="stroke: #000000"/>
     <use xlink:href="#m6aaf8a6191" x="291.651307" y="102.52493" style="stroke: #000000"/>
     <use xlink:href="#m6aaf8a6191" x="295.340073" y="68.458433" style="stroke: #000000"/>
     <use xlink:href="#m6aaf8a6191" x="298.909847" y="106.635051" style="stroke: #000000"/>
     <use xlink:href="#m6aaf8a6191" x="302.598613" y="128.912477" style="stroke: #000000"/>
     <use xlink:href="#m6aaf8a6191" x="306.168386" y="121.315038" style="stroke: #000000"/>
     <use xlink:href="#m6aaf8a6191" x="309.857152" y="139.351497" style="stroke: #000000"/>
     <use xlink:href="#m6aaf8a6191" x="313.545918" y="143.874351" style="stroke: #000000"/>
     <use xlink:href="#m6aaf8a6191" x="316.996699" y="138.627827" style="stroke: #000000"/>
     <use xlink:href="#m6aaf8a6191" x="320.685465" y="149.302557" style="stroke: #000000"/>
     <use xlink:href="#m6aaf8a6191" x="324.255238" y="129.838604" style="stroke: #000000"/>
     <use xlink:href="#m6aaf8a6191" x="327.944004" y="106.220108" style="stroke: #000000"/>
     <use xlink:href="#m6aaf8a6191" x="331.513777" y="85.340566" style="stroke: #000000"/>
     <use xlink:href="#m6aaf8a6191" x="335.202543" y="109.937596" style="stroke: #000000"/>
     <use xlink:href="#m6aaf8a6191" x="338.891309" y="64.035987" style="stroke: #000000"/>
     <use xlink:href="#m6aaf8a6191" x="342.461083" y="96.095327" style="stroke: #000000"/>
     <use xlink:href="#m6aaf8a6191" x="346.149849" y="118.394555" style="stroke: #000000"/>
     <use xlink:href="#m6aaf8a6191" x="349.719622" y="123.772928" style="stroke: #000000"/>
     <use xlink:href="#m6aaf8a6191" x="353.408388" y="134.451073" style="stroke: #000000"/>
    </g>
   </g>
   <g id="line2d_32">
    <g clip-path="url(#p1b386e8153)">
     <use xlink:href="#m6aaf8a6191" x="357.097154" y="147.08184" style="stroke: #000000"/>
     <use xlink:href="#m6aaf8a6191" x="360.428942" y="130.039355" style="stroke: #000000"/>
     <use xlink:href="#m6aaf8a6191" x="364.117708" y="139.542091" style="stroke: #000000"/>
     <use xlink:href="#m6aaf8a6191" x="367.687482" y="130.186256" style="stroke: #000000"/>
     <use xlink:href="#m6aaf8a6191" x="371.376248" y="101.604769" style="stroke: #000000"/>
     <use xlink:href="#m6aaf8a6191" x="374.946021" y="77.398214" style="stroke: #000000"/>
     <use xlink:href="#m6aaf8a6191" x="378.634787" y="74.611362" style="stroke: #000000"/>
     <use xlink:href="#m6aaf8a6191" x="382.323553" y="34.945827" style="stroke: #000000"/>
     <use xlink:href="#m6aaf8a6191" x="385.893326" y="67.595925" style="stroke: #000000"/>
     <use xlink:href="#m6aaf8a6191" x="389.582092" y="81.161413" style="stroke: #000000"/>
     <use xlink:href="#m6aaf8a6191" x="393.151866" y="95.879846" style="stroke: #000000"/>
     <use xlink:href="#m6aaf8a6191" x="396.840632" y="107.62211" style="stroke: #000000"/>
     <use xlink:href="#m6aaf8a6191" x="400.529397" y="118.56093" style="stroke: #000000"/>
     <use xlink:href="#m6aaf8a6191" x="403.861186" y="115.451553" style="stroke: #000000"/>
     <use xlink:href="#m6aaf8a6191" x="407.549952" y="124.267197" style="stroke: #000000"/>
     <use xlink:href="#m6aaf8a6191" x="411.119725" y="111.724826" style="stroke: #000000"/>
     <use xlink:href="#m6aaf8a6191" x="414.808491" y="91.224423" style="stroke: #000000"/>
     <use xlink:href="#m6aaf8a6191" x="418.378265" y="73.208257" style="stroke: #000000"/>
     <use xlink:href="#m6aaf8a6191" x="422.067031" y="74.492931" style="stroke: #000000"/>
     <use xlink:href="#m6aaf8a6191" x="425.755796" y="54.330141" style="stroke: #000000"/>
     <use xlink:href="#m6aaf8a6191" x="429.32557" y="88.937381" style="stroke: #000000"/>
     <use xlink:href="#m6aaf8a6191" x="433.014336" y="99.828405" style="stroke: #000000"/>
     <use xlink:href="#m6aaf8a6191" x="436.584109" y="114.504079" style="stroke: #000000"/>
     <use xlink:href="#m6aaf8a6191" x="440.272875" y="131.105084" style="stroke: #000000"/>
     <use xlink:href="#m6aaf8a6191" x="443.961641" y="133.176797" style="stroke: #000000"/>
     <use xlink:href="#m6aaf8a6191" x="447.29343" y="118.734015" style="stroke: #000000"/>
     <use xlink:href="#m6aaf8a6191" x="450.982195" y="127.361143" style="stroke: #000000"/>
     <use xlink:href="#m6aaf8a6191" x="454.551969" y="113.361146" style="stroke: #000000"/>
     <use xlink:href="#m6aaf8a6191" x="458.240735" y="92.504521" style="stroke: #000000"/>
     <use xlink:href="#m6aaf8a6191" x="461.810508" y="76.869093" style="stroke: #000000"/>
     <use xlink:href="#m6aaf8a6191" x="465.499274" y="79.39706" style="stroke: #000000"/>
     <use xlink:href="#m6aaf8a6191" x="469.18804" y="50.607629" style="stroke: #000000"/>
     <use xlink:href="#m6aaf8a6191" x="472.757814" y="86.108875" style="stroke: #000000"/>
     <use xlink:href="#m6aaf8a6191" x="476.446579" y="87.049015" style="stroke: #000000"/>
     <use xlink:href="#m6aaf8a6191" x="480.016353" y="117.129359" style="stroke: #000000"/>
     <use xlink:href="#m6aaf8a6191" x="483.705119" y="121.248044" style="stroke: #000000"/>
    </g>
   </g>
   <g id="line2d_33">
    <path d="M 52.833464 178.337672 
L 56.165252 171.342905 
L 59.854018 174.722648 
L 63.423792 160.57264 
L 67.112558 142.075903 
L 70.682331 119.317075 
L 74.371097 133.855945 
L 78.059863 98.503988 
L 81.629636 137.390072 
L 85.318402 153.017941 
L 88.888176 159.19586 
L 92.576941 171.735165 
L 96.265707 172.575146 
L 99.597496 165.580378 
L 103.286262 168.960122 
L 106.856035 154.810114 
L 110.544801 136.313377 
L 114.114575 113.554549 
L 117.80334 128.093418 
L 121.492106 92.741461 
L 125.06188 131.627546 
L 128.750646 147.255414 
L 132.320419 153.433333 
L 136.009185 165.972638 
L 139.697951 166.812619 
L 143.148732 159.817852 
L 146.837498 163.197595 
L 150.407271 149.047587 
L 154.096037 130.55085 
L 157.665811 107.792022 
L 161.354577 122.330891 
L 165.043342 86.978935 
L 168.613116 125.865019 
L 172.301882 141.492887 
L 175.871655 147.670806 
L 179.560421 160.210112 
L 183.249187 161.050092 
L 186.580976 154.055325 
L 190.269741 157.435068 
L 193.839515 143.28506 
L 197.528281 124.788323 
L 201.098054 102.029495 
L 204.78682 116.568365 
L 208.475586 81.216408 
L 212.045359 120.102492 
L 215.734125 135.730361 
L 219.303899 141.90828 
L 222.992665 154.447585 
L 226.681431 155.287565 
L 230.013219 148.292798 
L 233.701985 151.672541 
L 237.271758 137.522533 
L 240.960524 119.025796 
L 244.530298 96.266968 
L 248.219064 110.805838 
L 251.90783 75.453881 
L 255.477603 114.339965 
L 259.166369 129.967834 
L 262.736142 136.145753 
L 266.424908 148.685058 
L 270.113674 149.525039 
L 273.445463 142.530271 
L 277.134229 145.910015 
L 280.704002 131.760007 
L 284.392768 113.26327 
L 287.962541 90.504442 
L 291.651307 105.043311 
L 295.340073 69.691355 
L 298.909847 108.577439 
L 302.598613 124.205307 
L 306.168386 130.383226 
L 309.857152 142.922532 
L 313.545918 143.762512 
L 316.996699 136.767745 
L 320.685465 140.147488 
L 324.255238 125.99748 
L 327.944004 107.500743 
L 331.513777 84.741915 
L 335.202543 99.280784 
L 338.891309 63.928828 
L 342.461083 102.814912 
L 346.149849 118.44278 
L 349.719622 124.620699 
L 353.408388 137.160005 
" clip-path="url(#p1b386e8153)" style="fill: none; stroke: #000000; stroke-width: 1.5; stroke-linecap: round"/>
   </g>
   <g id="line2d_34">
    <path d="M 357.097154 137.999985 
L 360.428942 131.005218 
L 364.117708 134.384961 
L 367.687482 120.234953 
L 371.376248 101.738216 
L 374.946021 78.979388 
L 378.634787 93.518258 
L 382.323553 58.166301 
L 385.893326 97.052385 
L 389.582092 112.680254 
L 393.151866 118.858173 
L 396.840632 131.397478 
L 400.529397 132.237459 
L 403.861186 125.242691 
L 407.549952 128.622434 
L 411.119725 114.472427 
L 414.808491 95.97569 
L 418.378265 73.216861 
L 422.067031 87.755731 
L 425.755796 52.403774 
L 429.32557 91.289858 
L 433.014336 106.917727 
L 436.584109 113.095646 
L 440.272875 125.634951 
L 443.961641 126.474932 
L 447.29343 119.480164 
L 450.982195 122.859908 
L 454.551969 108.7099 
L 458.240735 90.213163 
L 461.810508 67.454335 
L 465.499274 81.993204 
L 469.18804 46.641248 
L 472.757814 85.527332 
L 476.446579 101.1552 
L 480.016353 107.333119 
L 483.705119 119.872425 
" clip-path="url(#p1b386e8153)" style="fill: none; stroke-dasharray: 1.5,2.475; stroke-dashoffset: 0; stroke: #000000; stroke-width: 1.5"/>
   </g>
   <g id="line2d_35">
    <path d="M 353.52738 186.75375 
L 353.52738 27.716878 
" clip-path="url(#p1b386e8153)" style="fill: none; stroke: #ff0000; stroke-width: 3; stroke-linecap: round"/>
   </g>
   <g id="patch_3">
    <path d="M 31.289881 186.75375 
L 31.289881 27.716878 
" style="fill: none"/>
   </g>
   <g id="patch_4">
    <path d="M 505.248701 186.75375 
L 505.248701 27.716878 
" style="fill: none"/>
   </g>
   <g id="patch_5">
    <path d="M 31.289881 186.75375 
L 505.248701 186.75375 
" style="fill: none"/>
   </g>
   <g id="patch_6">
    <path d="M 31.289881 27.716878 
L 505.248701 27.716878 
" style="fill: none"/>
   </g>
   <g id="text_5">
    <!-- $R^2$ on pre-intervention data = 0.975 -->
    <g style="fill: #262626" transform="translate(123.149291 21.716878) scale(0.16 -0.16)">
     <defs>
      <path id="DejaVuSans-Oblique-52" d="M 1613 4147 
L 1294 2491 
L 2106 2491 
Q 2584 2491 2879 2755 
Q 3175 3019 3175 3444 
Q 3175 3784 2976 3965 
Q 2778 4147 2406 4147 
L 1613 4147 
z
M 2772 2241 
Q 2972 2194 3105 2009 
Q 3238 1825 3413 1275 
L 3809 0 
L 3144 0 
L 2778 1197 
Q 2638 1659 2453 1815 
Q 2269 1972 1888 1972 
L 1191 1972 
L 806 0 
L 172 0 
L 1081 4666 
L 2503 4666 
Q 3150 4666 3495 4373 
Q 3841 4081 3841 3531 
Q 3841 3044 3547 2687 
Q 3253 2331 2772 2241 
z
" transform="scale(0.015625)"/>
      <path id="DejaVuSans-20" transform="scale(0.015625)"/>
      <path id="DejaVuSans-6f" d="M 1959 3097 
Q 1497 3097 1228 2736 
Q 959 2375 959 1747 
Q 959 1119 1226 758 
Q 1494 397 1959 397 
Q 2419 397 2687 759 
Q 2956 1122 2956 1747 
Q 2956 2369 2687 2733 
Q 2419 3097 1959 3097 
z
M 1959 3584 
Q 2709 3584 3137 3096 
Q 3566 2609 3566 1747 
Q 3566 888 3137 398 
Q 2709 -91 1959 -91 
Q 1206 -91 779 398 
Q 353 888 353 1747 
Q 353 2609 779 3096 
Q 1206 3584 1959 3584 
z
" transform="scale(0.015625)"/>
      <path id="DejaVuSans-6e" d="M 3513 2113 
L 3513 0 
L 2938 0 
L 2938 2094 
Q 2938 2591 2744 2837 
Q 2550 3084 2163 3084 
Q 1697 3084 1428 2787 
Q 1159 2491 1159 1978 
L 1159 0 
L 581 0 
L 581 3500 
L 1159 3500 
L 1159 2956 
Q 1366 3272 1645 3428 
Q 1925 3584 2291 3584 
Q 2894 3584 3203 3211 
Q 3513 2838 3513 2113 
z
" transform="scale(0.015625)"/>
      <path id="DejaVuSans-70" d="M 1159 525 
L 1159 -1331 
L 581 -1331 
L 581 3500 
L 1159 3500 
L 1159 2969 
Q 1341 3281 1617 3432 
Q 1894 3584 2278 3584 
Q 2916 3584 3314 3078 
Q 3713 2572 3713 1747 
Q 3713 922 3314 415 
Q 2916 -91 2278 -91 
Q 1894 -91 1617 61 
Q 1341 213 1159 525 
z
M 3116 1747 
Q 3116 2381 2855 2742 
Q 2594 3103 2138 3103 
Q 1681 3103 1420 2742 
Q 1159 2381 1159 1747 
Q 1159 1113 1420 752 
Q 1681 391 2138 391 
Q 2594 391 2855 752 
Q 3116 1113 3116 1747 
z
" transform="scale(0.015625)"/>
      <path id="DejaVuSans-72" d="M 2631 2963 
Q 2534 3019 2420 3045 
Q 2306 3072 2169 3072 
Q 1681 3072 1420 2755 
Q 1159 2438 1159 1844 
L 1159 0 
L 581 0 
L 581 3500 
L 1159 3500 
L 1159 2956 
Q 1341 3275 1631 3429 
Q 1922 3584 2338 3584 
Q 2397 3584 2469 3576 
Q 2541 3569 2628 3553 
L 2631 2963 
z
" transform="scale(0.015625)"/>
      <path id="DejaVuSans-65" d="M 3597 1894 
L 3597 1613 
L 953 1613 
Q 991 1019 1311 708 
Q 1631 397 2203 397 
Q 2534 397 2845 478 
Q 3156 559 3463 722 
L 3463 178 
Q 3153 47 2828 -22 
Q 2503 -91 2169 -91 
Q 1331 -91 842 396 
Q 353 884 353 1716 
Q 353 2575 817 3079 
Q 1281 3584 2069 3584 
Q 2775 3584 3186 3129 
Q 3597 2675 3597 1894 
z
M 3022 2063 
Q 3016 2534 2758 2815 
Q 2500 3097 2075 3097 
Q 1594 3097 1305 2825 
Q 1016 2553 972 2059 
L 3022 2063 
z
" transform="scale(0.015625)"/>
      <path id="DejaVuSans-2d" d="M 313 2009 
L 1997 2009 
L 1997 1497 
L 313 1497 
L 313 2009 
z
" transform="scale(0.015625)"/>
      <path id="DejaVuSans-69" d="M 603 3500 
L 1178 3500 
L 1178 0 
L 603 0 
L 603 3500 
z
M 603 4863 
L 1178 4863 
L 1178 4134 
L 603 4134 
L 603 4863 
z
" transform="scale(0.015625)"/>
      <path id="DejaVuSans-74" d="M 1172 4494 
L 1172 3500 
L 2356 3500 
L 2356 3053 
L 1172 3053 
L 1172 1153 
Q 1172 725 1289 603 
Q 1406 481 1766 481 
L 2356 481 
L 2356 0 
L 1766 0 
Q 1100 0 847 248 
Q 594 497 594 1153 
L 594 3053 
L 172 3053 
L 172 3500 
L 594 3500 
L 594 4494 
L 1172 4494 
z
" transform="scale(0.015625)"/>
      <path id="DejaVuSans-76" d="M 191 3500 
L 800 3500 
L 1894 563 
L 2988 3500 
L 3597 3500 
L 2284 0 
L 1503 0 
L 191 3500 
z
" transform="scale(0.015625)"/>
      <path id="DejaVuSans-64" d="M 2906 2969 
L 2906 4863 
L 3481 4863 
L 3481 0 
L 2906 0 
L 2906 525 
Q 2725 213 2448 61 
Q 2172 -91 1784 -91 
Q 1150 -91 751 415 
Q 353 922 353 1747 
Q 353 2572 751 3078 
Q 1150 3584 1784 3584 
Q 2172 3584 2448 3432 
Q 2725 3281 2906 2969 
z
M 947 1747 
Q 947 1113 1208 752 
Q 1469 391 1925 391 
Q 2381 391 2643 752 
Q 2906 1113 2906 1747 
Q 2906 2381 2643 2742 
Q 2381 3103 1925 3103 
Q 1469 3103 1208 2742 
Q 947 2381 947 1747 
z
" transform="scale(0.015625)"/>
      <path id="DejaVuSans-61" d="M 2194 1759 
Q 1497 1759 1228 1600 
Q 959 1441 959 1056 
Q 959 750 1161 570 
Q 1363 391 1709 391 
Q 2188 391 2477 730 
Q 2766 1069 2766 1631 
L 2766 1759 
L 2194 1759 
z
M 3341 1997 
L 3341 0 
L 2766 0 
L 2766 531 
Q 2569 213 2275 61 
Q 1981 -91 1556 -91 
Q 1019 -91 701 211 
Q 384 513 384 1019 
Q 384 1609 779 1909 
Q 1175 2209 1959 2209 
L 2766 2209 
L 2766 2266 
Q 2766 2663 2505 2880 
Q 2244 3097 1772 3097 
Q 1472 3097 1187 3025 
Q 903 2953 641 2809 
L 641 3341 
Q 956 3463 1253 3523 
Q 1550 3584 1831 3584 
Q 2591 3584 2966 3190 
Q 3341 2797 3341 1997 
z
" transform="scale(0.015625)"/>
      <path id="DejaVuSans-3d" d="M 678 2906 
L 4684 2906 
L 4684 2381 
L 678 2381 
L 678 2906 
z
M 678 1631 
L 4684 1631 
L 4684 1100 
L 678 1100 
L 678 1631 
z
" transform="scale(0.015625)"/>
      <path id="DejaVuSans-2e" d="M 684 794 
L 1344 794 
L 1344 0 
L 684 0 
L 684 794 
z
" transform="scale(0.015625)"/>
      <path id="DejaVuSans-39" d="M 703 97 
L 703 672 
Q 941 559 1184 500 
Q 1428 441 1663 441 
Q 2288 441 2617 861 
Q 2947 1281 2994 2138 
Q 2813 1869 2534 1725 
Q 2256 1581 1919 1581 
Q 1219 1581 811 2004 
Q 403 2428 403 3163 
Q 403 3881 828 4315 
Q 1253 4750 1959 4750 
Q 2769 4750 3195 4129 
Q 3622 3509 3622 2328 
Q 3622 1225 3098 567 
Q 2575 -91 1691 -91 
Q 1453 -91 1209 -44 
Q 966 3 703 97 
z
M 1959 2075 
Q 2384 2075 2632 2365 
Q 2881 2656 2881 3163 
Q 2881 3666 2632 3958 
Q 2384 4250 1959 4250 
Q 1534 4250 1286 3958 
Q 1038 3666 1038 3163 
Q 1038 2656 1286 2365 
Q 1534 2075 1959 2075 
z
" transform="scale(0.015625)"/>
      <path id="DejaVuSans-37" d="M 525 4666 
L 3525 4666 
L 3525 4397 
L 1831 0 
L 1172 0 
L 2766 4134 
L 525 4134 
L 525 4666 
z
" transform="scale(0.015625)"/>
      <path id="DejaVuSans-35" d="M 691 4666 
L 3169 4666 
L 3169 4134 
L 1269 4134 
L 1269 2991 
Q 1406 3038 1543 3061 
Q 1681 3084 1819 3084 
Q 2600 3084 3056 2656 
Q 3513 2228 3513 1497 
Q 3513 744 3044 326 
Q 2575 -91 1722 -91 
Q 1428 -91 1123 -41 
Q 819 9 494 109 
L 494 744 
Q 775 591 1075 516 
Q 1375 441 1709 441 
Q 2250 441 2565 725 
Q 2881 1009 2881 1497 
Q 2881 1984 2565 2268 
Q 2250 2553 1709 2553 
Q 1456 2553 1204 2497 
Q 953 2441 691 2322 
L 691 4666 
z
" transform="scale(0.015625)"/>
     </defs>
     <use xlink:href="#DejaVuSans-Oblique-52" transform="translate(0 0.765625)"/>
     <use xlink:href="#DejaVuSans-32" transform="translate(76.499193 39.046875) scale(0.7)"/>
     <use xlink:href="#DejaVuSans-20" transform="translate(123.769701 0.765625)"/>
     <use xlink:href="#DejaVuSans-6f" transform="translate(155.55681 0.765625)"/>
     <use xlink:href="#DejaVuSans-6e" transform="translate(216.738451 0.765625)"/>
     <use xlink:href="#DejaVuSans-20" transform="translate(280.117357 0.765625)"/>
     <use xlink:href="#DejaVuSans-70" transform="translate(311.904466 0.765625)"/>
     <use xlink:href="#DejaVuSans-72" transform="translate(375.381029 0.765625)"/>
     <use xlink:href="#DejaVuSans-65" transform="translate(416.49431 0.765625)"/>
     <use xlink:href="#DejaVuSans-2d" transform="translate(478.017747 0.765625)"/>
     <use xlink:href="#DejaVuSans-69" transform="translate(514.101732 0.765625)"/>
     <use xlink:href="#DejaVuSans-6e" transform="translate(541.884935 0.765625)"/>
     <use xlink:href="#DejaVuSans-74" transform="translate(605.263841 0.765625)"/>
     <use xlink:href="#DejaVuSans-65" transform="translate(644.472826 0.765625)"/>
     <use xlink:href="#DejaVuSans-72" transform="translate(705.996263 0.765625)"/>
     <use xlink:href="#DejaVuSans-76" transform="translate(747.109544 0.765625)"/>
     <use xlink:href="#DejaVuSans-65" transform="translate(806.289232 0.765625)"/>
     <use xlink:href="#DejaVuSans-6e" transform="translate(867.812669 0.765625)"/>
     <use xlink:href="#DejaVuSans-74" transform="translate(931.191576 0.765625)"/>
     <use xlink:href="#DejaVuSans-69" transform="translate(970.40056 0.765625)"/>
     <use xlink:href="#DejaVuSans-6f" transform="translate(998.183763 0.765625)"/>
     <use xlink:href="#DejaVuSans-6e" transform="translate(1059.365404 0.765625)"/>
     <use xlink:href="#DejaVuSans-20" transform="translate(1122.74431 0.765625)"/>
     <use xlink:href="#DejaVuSans-64" transform="translate(1154.531419 0.765625)"/>
     <use xlink:href="#DejaVuSans-61" transform="translate(1218.007982 0.765625)"/>
     <use xlink:href="#DejaVuSans-74" transform="translate(1279.287279 0.765625)"/>
     <use xlink:href="#DejaVuSans-61" transform="translate(1318.496263 0.765625)"/>
     <use xlink:href="#DejaVuSans-20" transform="translate(1379.77556 0.765625)"/>
     <use xlink:href="#DejaVuSans-3d" transform="translate(1411.562669 0.765625)"/>
     <use xlink:href="#DejaVuSans-20" transform="translate(1495.351732 0.765625)"/>
     <use xlink:href="#DejaVuSans-30" transform="translate(1527.138841 0.765625)"/>
     <use xlink:href="#DejaVuSans-2e" transform="translate(1590.761888 0.765625)"/>
     <use xlink:href="#DejaVuSans-39" transform="translate(1622.548997 0.765625)"/>
     <use xlink:href="#DejaVuSans-37" transform="translate(1686.172044 0.765625)"/>
     <use xlink:href="#DejaVuSans-35" transform="translate(1749.795091 0.765625)"/>
    </g>
   </g>
   <g id="legend_1">
    <g id="line2d_36">
     <path d="M 42.089881 43.435003 
L 54.089881 43.435003 
L 66.089881 43.435003 
" style="fill: none; stroke: #000000; stroke-width: 1.5; stroke-linecap: round"/>
    </g>
    <g id="text_6">
     <!-- model fit -->
     <g style="fill: #262626" transform="translate(75.689881 47.635003) scale(0.12 -0.12)">
      <defs>
       <path id="DejaVuSans-6d" d="M 3328 2828 
Q 3544 3216 3844 3400 
Q 4144 3584 4550 3584 
Q 5097 3584 5394 3201 
Q 5691 2819 5691 2113 
L 5691 0 
L 5113 0 
L 5113 2094 
Q 5113 2597 4934 2840 
Q 4756 3084 4391 3084 
Q 3944 3084 3684 2787 
Q 3425 2491 3425 1978 
L 3425 0 
L 2847 0 
L 2847 2094 
Q 2847 2600 2669 2842 
Q 2491 3084 2119 3084 
Q 1678 3084 1418 2786 
Q 1159 2488 1159 1978 
L 1159 0 
L 581 0 
L 581 3500 
L 1159 3500 
L 1159 2956 
Q 1356 3278 1631 3431 
Q 1906 3584 2284 3584 
Q 2666 3584 2933 3390 
Q 3200 3197 3328 2828 
z
" transform="scale(0.015625)"/>
       <path id="DejaVuSans-6c" d="M 603 4863 
L 1178 4863 
L 1178 0 
L 603 0 
L 603 4863 
z
" transform="scale(0.015625)"/>
       <path id="DejaVuSans-66" d="M 2375 4863 
L 2375 4384 
L 1825 4384 
Q 1516 4384 1395 4259 
Q 1275 4134 1275 3809 
L 1275 3500 
L 2222 3500 
L 2222 3053 
L 1275 3053 
L 1275 0 
L 697 0 
L 697 3053 
L 147 3053 
L 147 3500 
L 697 3500 
L 697 3744 
Q 697 4328 969 4595 
Q 1241 4863 1831 4863 
L 2375 4863 
z
" transform="scale(0.015625)"/>
      </defs>
      <use xlink:href="#DejaVuSans-6d"/>
      <use xlink:href="#DejaVuSans-6f" x="97.412109"/>
      <use xlink:href="#DejaVuSans-64" x="158.59375"/>
      <use xlink:href="#DejaVuSans-65" x="222.070312"/>
      <use xlink:href="#DejaVuSans-6c" x="283.59375"/>
      <use xlink:href="#DejaVuSans-20" x="311.376953"/>
      <use xlink:href="#DejaVuSans-66" x="343.164062"/>
      <use xlink:href="#DejaVuSans-69" x="378.369141"/>
      <use xlink:href="#DejaVuSans-74" x="406.152344"/>
     </g>
    </g>
    <g id="line2d_37">
     <path d="M 42.089881 61.048753 
L 54.089881 61.048753 
L 66.089881 61.048753 
" style="fill: none; stroke-dasharray: 1.5,2.475; stroke-dashoffset: 0; stroke: #000000; stroke-width: 1.5"/>
    </g>
    <g id="text_7">
     <!-- counterfactual -->
     <g style="fill: #262626" transform="translate(75.689881 65.248753) scale(0.12 -0.12)">
      <defs>
       <path id="DejaVuSans-63" d="M 3122 3366 
L 3122 2828 
Q 2878 2963 2633 3030 
Q 2388 3097 2138 3097 
Q 1578 3097 1268 2742 
Q 959 2388 959 1747 
Q 959 1106 1268 751 
Q 1578 397 2138 397 
Q 2388 397 2633 464 
Q 2878 531 3122 666 
L 3122 134 
Q 2881 22 2623 -34 
Q 2366 -91 2075 -91 
Q 1284 -91 818 406 
Q 353 903 353 1747 
Q 353 2603 823 3093 
Q 1294 3584 2113 3584 
Q 2378 3584 2631 3529 
Q 2884 3475 3122 3366 
z
" transform="scale(0.015625)"/>
       <path id="DejaVuSans-75" d="M 544 1381 
L 544 3500 
L 1119 3500 
L 1119 1403 
Q 1119 906 1312 657 
Q 1506 409 1894 409 
Q 2359 409 2629 706 
Q 2900 1003 2900 1516 
L 2900 3500 
L 3475 3500 
L 3475 0 
L 2900 0 
L 2900 538 
Q 2691 219 2414 64 
Q 2138 -91 1772 -91 
Q 1169 -91 856 284 
Q 544 659 544 1381 
z
M 1991 3584 
L 1991 3584 
z
" transform="scale(0.015625)"/>
      </defs>
      <use xlink:href="#DejaVuSans-63"/>
      <use xlink:href="#DejaVuSans-6f" x="54.980469"/>
      <use xlink:href="#DejaVuSans-75" x="116.162109"/>
      <use xlink:href="#DejaVuSans-6e" x="179.541016"/>
      <use xlink:href="#DejaVuSans-74" x="242.919922"/>
      <use xlink:href="#DejaVuSans-65" x="282.128906"/>
      <use xlink:href="#DejaVuSans-72" x="343.652344"/>
      <use xlink:href="#DejaVuSans-66" x="384.765625"/>
      <use xlink:href="#DejaVuSans-61" x="419.970703"/>
      <use xlink:href="#DejaVuSans-63" x="481.25"/>
      <use xlink:href="#DejaVuSans-74" x="536.230469"/>
      <use xlink:href="#DejaVuSans-75" x="575.439453"/>
      <use xlink:href="#DejaVuSans-61" x="638.818359"/>
      <use xlink:href="#DejaVuSans-6c" x="700.097656"/>
     </g>
    </g>
    <g id="patch_7">
     <path d="M 42.089881 82.862503 
L 66.089881 82.862503 
L 66.089881 74.462503 
L 42.089881 74.462503 
z
" style="fill: #2a2eec; fill-opacity: 0.25; stroke: #2a2eec; stroke-opacity: 0.25; stroke-linejoin: miter"/>
    </g>
    <g id="text_8">
     <!-- causal impact -->
     <g style="fill: #262626" transform="translate(75.689881 82.862503) scale(0.12 -0.12)">
      <defs>
       <path id="DejaVuSans-73" d="M 2834 3397 
L 2834 2853 
Q 2591 2978 2328 3040 
Q 2066 3103 1784 3103 
Q 1356 3103 1142 2972 
Q 928 2841 928 2578 
Q 928 2378 1081 2264 
Q 1234 2150 1697 2047 
L 1894 2003 
Q 2506 1872 2764 1633 
Q 3022 1394 3022 966 
Q 3022 478 2636 193 
Q 2250 -91 1575 -91 
Q 1294 -91 989 -36 
Q 684 19 347 128 
L 347 722 
Q 666 556 975 473 
Q 1284 391 1588 391 
Q 1994 391 2212 530 
Q 2431 669 2431 922 
Q 2431 1156 2273 1281 
Q 2116 1406 1581 1522 
L 1381 1569 
Q 847 1681 609 1914 
Q 372 2147 372 2553 
Q 372 3047 722 3315 
Q 1072 3584 1716 3584 
Q 2034 3584 2315 3537 
Q 2597 3491 2834 3397 
z
" transform="scale(0.015625)"/>
      </defs>
      <use xlink:href="#DejaVuSans-63"/>
      <use xlink:href="#DejaVuSans-61" x="54.980469"/>
      <use xlink:href="#DejaVuSans-75" x="116.259766"/>
      <use xlink:href="#DejaVuSans-73" x="179.638672"/>
      <use xlink:href="#DejaVuSans-61" x="231.738281"/>
      <use xlink:href="#DejaVuSans-6c" x="293.017578"/>
      <use xlink:href="#DejaVuSans-20" x="320.800781"/>
      <use xlink:href="#DejaVuSans-69" x="352.587891"/>
      <use xlink:href="#DejaVuSans-6d" x="380.371094"/>
      <use xlink:href="#DejaVuSans-70" x="477.783203"/>
      <use xlink:href="#DejaVuSans-61" x="541.259766"/>
      <use xlink:href="#DejaVuSans-63" x="602.539062"/>
      <use xlink:href="#DejaVuSans-74" x="657.519531"/>
     </g>
    </g>
    <g id="line2d_38">
     <path d="M 42.089881 96.276253 
L 54.089881 96.276253 
L 66.089881 96.276253 
" style="fill: none; stroke: #ff0000; stroke-width: 3; stroke-linecap: round"/>
    </g>
    <g id="text_9">
     <!-- treatment time -->
     <g style="fill: #262626" transform="translate(75.689881 100.476253) scale(0.12 -0.12)">
      <use xlink:href="#DejaVuSans-74"/>
      <use xlink:href="#DejaVuSans-72" x="39.208984"/>
      <use xlink:href="#DejaVuSans-65" x="78.072266"/>
      <use xlink:href="#DejaVuSans-61" x="139.595703"/>
      <use xlink:href="#DejaVuSans-74" x="200.875"/>
      <use xlink:href="#DejaVuSans-6d" x="240.083984"/>
      <use xlink:href="#DejaVuSans-65" x="337.496094"/>
      <use xlink:href="#DejaVuSans-6e" x="399.019531"/>
      <use xlink:href="#DejaVuSans-74" x="462.398438"/>
      <use xlink:href="#DejaVuSans-20" x="501.607422"/>
      <use xlink:href="#DejaVuSans-74" x="533.394531"/>
      <use xlink:href="#DejaVuSans-69" x="572.603516"/>
      <use xlink:href="#DejaVuSans-6d" x="600.386719"/>
      <use xlink:href="#DejaVuSans-65" x="697.798828"/>
     </g>
    </g>
   </g>
  </g>
  <g id="axes_2">
   <g id="patch_8">
    <path d="M 31.289881 375.878504 
L 505.248701 375.878504 
L 505.248701 216.841632 
L 31.289881 216.841632 
z
" style="fill: #eeeeee"/>
   </g>
   <g id="matplotlib.axis_3">
    <g id="xtick_12">
     <g id="line2d_39">
      <path d="M 49.26369 375.878504 
L 49.26369 216.841632 
" clip-path="url(#p8b33fc33b9)" style="fill: none; stroke: #ffffff; stroke-width: 0.8; stroke-linecap: round"/>
     </g>
     <g id="line2d_40"/>
    </g>
    <g id="xtick_13">
     <g id="line2d_41">
      <path d="M 92.695934 375.878504 
L 92.695934 216.841632 
" clip-path="url(#p8b33fc33b9)" style="fill: none; stroke: #ffffff; stroke-width: 0.8; stroke-linecap: round"/>
     </g>
     <g id="line2d_42"/>
    </g>
    <g id="xtick_14">
     <g id="line2d_43">
      <path d="M 136.128178 375.878504 
L 136.128178 216.841632 
" clip-path="url(#p8b33fc33b9)" style="fill: none; stroke: #ffffff; stroke-width: 0.8; stroke-linecap: round"/>
     </g>
     <g id="line2d_44"/>
    </g>
    <g id="xtick_15">
     <g id="line2d_45">
      <path d="M 179.679414 375.878504 
L 179.679414 216.841632 
" clip-path="url(#p8b33fc33b9)" style="fill: none; stroke: #ffffff; stroke-width: 0.8; stroke-linecap: round"/>
     </g>
     <g id="line2d_46"/>
    </g>
    <g id="xtick_16">
     <g id="line2d_47">
      <path d="M 223.111657 375.878504 
L 223.111657 216.841632 
" clip-path="url(#p8b33fc33b9)" style="fill: none; stroke: #ffffff; stroke-width: 0.8; stroke-linecap: round"/>
     </g>
     <g id="line2d_48"/>
    </g>
    <g id="xtick_17">
     <g id="line2d_49">
      <path d="M 266.543901 375.878504 
L 266.543901 216.841632 
" clip-path="url(#p8b33fc33b9)" style="fill: none; stroke: #ffffff; stroke-width: 0.8; stroke-linecap: round"/>
     </g>
     <g id="line2d_50"/>
    </g>
    <g id="xtick_18">
     <g id="line2d_51">
      <path d="M 309.976144 375.878504 
L 309.976144 216.841632 
" clip-path="url(#p8b33fc33b9)" style="fill: none; stroke: #ffffff; stroke-width: 0.8; stroke-linecap: round"/>
     </g>
     <g id="line2d_52"/>
    </g>
    <g id="xtick_19">
     <g id="line2d_53">
      <path d="M 353.52738 375.878504 
L 353.52738 216.841632 
" clip-path="url(#p8b33fc33b9)" style="fill: none; stroke: #ffffff; stroke-width: 0.8; stroke-linecap: round"/>
     </g>
     <g id="line2d_54"/>
    </g>
    <g id="xtick_20">
     <g id="line2d_55">
      <path d="M 396.959624 375.878504 
L 396.959624 216.841632 
" clip-path="url(#p8b33fc33b9)" style="fill: none; stroke: #ffffff; stroke-width: 0.8; stroke-linecap: round"/>
     </g>
     <g id="line2d_56"/>
    </g>
    <g id="xtick_21">
     <g id="line2d_57">
      <path d="M 440.391868 375.878504 
L 440.391868 216.841632 
" clip-path="url(#p8b33fc33b9)" style="fill: none; stroke: #ffffff; stroke-width: 0.8; stroke-linecap: round"/>
     </g>
     <g id="line2d_58"/>
    </g>
    <g id="xtick_22">
     <g id="line2d_59">
      <path d="M 483.824111 375.878504 
L 483.824111 216.841632 
" clip-path="url(#p8b33fc33b9)" style="fill: none; stroke: #ffffff; stroke-width: 0.8; stroke-linecap: round"/>
     </g>
     <g id="line2d_60"/>
    </g>
   </g>
   <g id="matplotlib.axis_4">
    <g id="ytick_5">
     <g id="line2d_61">
      <path d="M 31.289881 368.854121 
L 505.248701 368.854121 
" clip-path="url(#p8b33fc33b9)" style="fill: none; stroke: #ffffff; stroke-width: 0.8; stroke-linecap: round"/>
     </g>
     <g id="line2d_62"/>
     <g id="text_10">
      <!-- −5 -->
      <g style="fill: #262626" transform="translate(7.150819 374.173028) scale(0.14 -0.14)">
       <defs>
        <path id="DejaVuSans-2212" d="M 678 2272 
L 4684 2272 
L 4684 1741 
L 678 1741 
L 678 2272 
z
" transform="scale(0.015625)"/>
       </defs>
       <use xlink:href="#DejaVuSans-2212"/>
       <use xlink:href="#DejaVuSans-35" x="83.789062"/>
      </g>
     </g>
    </g>
    <g id="ytick_6">
     <g id="line2d_63">
      <path d="M 31.289881 330.348395 
L 505.248701 330.348395 
" clip-path="url(#p8b33fc33b9)" style="fill: none; stroke: #ffffff; stroke-width: 0.8; stroke-linecap: round"/>
     </g>
     <g id="line2d_64"/>
     <g id="text_11">
      <!-- 0 -->
      <g style="fill: #262626" transform="translate(18.882381 335.667302) scale(0.14 -0.14)">
       <use xlink:href="#DejaVuSans-30"/>
      </g>
     </g>
    </g>
    <g id="ytick_7">
     <g id="line2d_65">
      <path d="M 31.289881 291.842669 
L 505.248701 291.842669 
" clip-path="url(#p8b33fc33b9)" style="fill: none; stroke: #ffffff; stroke-width: 0.8; stroke-linecap: round"/>
     </g>
     <g id="line2d_66"/>
     <g id="text_12">
      <!-- 5 -->
      <g style="fill: #262626" transform="translate(18.882381 297.161576) scale(0.14 -0.14)">
       <use xlink:href="#DejaVuSans-35"/>
      </g>
     </g>
    </g>
    <g id="ytick_8">
     <g id="line2d_67">
      <path d="M 31.289881 253.336943 
L 505.248701 253.336943 
" clip-path="url(#p8b33fc33b9)" style="fill: none; stroke: #ffffff; stroke-width: 0.8; stroke-linecap: round"/>
     </g>
     <g id="line2d_68"/>
     <g id="text_13">
      <!-- 10 -->
      <g style="fill: #262626" transform="translate(9.974881 258.65585) scale(0.14 -0.14)">
       <defs>
        <path id="DejaVuSans-31" d="M 794 531 
L 1825 531 
L 1825 4091 
L 703 3866 
L 703 4441 
L 1819 4666 
L 2450 4666 
L 2450 531 
L 3481 531 
L 3481 0 
L 794 0 
L 794 531 
z
" transform="scale(0.015625)"/>
       </defs>
       <use xlink:href="#DejaVuSans-31"/>
       <use xlink:href="#DejaVuSans-30" x="63.623047"/>
      </g>
     </g>
    </g>
   </g>
   <g id="PolyCollection_2">
    <defs>
     <path id="ma7435e92a3" d="M 357.097154 -254.051125 
L 357.097154 -223.428182 
L 360.428942 -257.307899 
L 364.117708 -236.661889 
L 367.687482 -220.496505 
L 371.376248 -254.501093 
L 374.946021 -259.382658 
L 378.634787 -317.802947 
L 382.323553 -332.347827 
L 385.893326 -353.374834 
L 389.582092 -360.328939 
L 393.151866 -331.531334 
L 396.840632 -334.218864 
L 400.529397 -300.166766 
L 403.861186 -287.065687 
L 407.549952 -268.736471 
L 411.119725 -263.31571 
L 414.808491 -270.071837 
L 418.378265 -254.080138 
L 422.067031 -298.771721 
L 425.755796 -247.555643 
L 429.32557 -261.983401 
L 433.014336 -277.955484 
L 436.584109 -249.302054 
L 440.272875 -235.606483 
L 443.961641 -231.453225 
L 447.29343 -256.567053 
L 450.982195 -238.873489 
L 454.551969 -238.367669 
L 458.240735 -246.324936 
L 461.810508 -222.305671 
L 465.499274 -262.805016 
L 469.18804 -240.676956 
L 472.757814 -252.09023 
L 476.446579 -301.615517 
L 480.016353 -221.019359 
L 483.705119 -249.412698 
L 483.705119 -254.051125 
L 483.705119 -254.051125 
L 480.016353 -254.051125 
L 476.446579 -254.051125 
L 472.757814 -254.051125 
L 469.18804 -254.051125 
L 465.499274 -254.051125 
L 461.810508 -254.051125 
L 458.240735 -254.051125 
L 454.551969 -254.051125 
L 450.982195 -254.051125 
L 447.29343 -254.051125 
L 443.961641 -254.051125 
L 440.272875 -254.051125 
L 436.584109 -254.051125 
L 433.014336 -254.051125 
L 429.32557 -254.051125 
L 425.755796 -254.051125 
L 422.067031 -254.051125 
L 418.378265 -254.051125 
L 414.808491 -254.051125 
L 411.119725 -254.051125 
L 407.549952 -254.051125 
L 403.861186 -254.051125 
L 400.529397 -254.051125 
L 396.840632 -254.051125 
L 393.151866 -254.051125 
L 389.582092 -254.051125 
L 385.893326 -254.051125 
L 382.323553 -254.051125 
L 378.634787 -254.051125 
L 374.946021 -254.051125 
L 371.376248 -254.051125 
L 367.687482 -254.051125 
L 364.117708 -254.051125 
L 360.428942 -254.051125 
L 357.097154 -254.051125 
z
" style="stroke: #2a2eec; stroke-opacity: 0.25"/>
    </defs>
    <g clip-path="url(#p8b33fc33b9)">
     <use xlink:href="#ma7435e92a3" x="0" y="584.39952" style="fill: #2a2eec; fill-opacity: 0.25; stroke: #2a2eec; stroke-opacity: 0.25"/>
    </g>
   </g>
   <g id="line2d_69">
    <g clip-path="url(#p8b33fc33b9)">
     <use xlink:href="#m6aaf8a6191" x="52.833464" y="312.306086" style="stroke: #000000"/>
     <use xlink:href="#m6aaf8a6191" x="56.165252" y="319.475655" style="stroke: #000000"/>
     <use xlink:href="#m6aaf8a6191" x="59.854018" y="313.487769" style="stroke: #000000"/>
     <use xlink:href="#m6aaf8a6191" x="63.423792" y="324.587412" style="stroke: #000000"/>
     <use xlink:href="#m6aaf8a6191" x="67.112558" y="313.70096" style="stroke: #000000"/>
     <use xlink:href="#m6aaf8a6191" x="70.682331" y="331.559696" style="stroke: #000000"/>
     <use xlink:href="#m6aaf8a6191" x="74.371097" y="328.368863" style="stroke: #000000"/>
     <use xlink:href="#m6aaf8a6191" x="78.059863" y="353.315504" style="stroke: #000000"/>
     <use xlink:href="#m6aaf8a6191" x="81.629636" y="341.411492" style="stroke: #000000"/>
     <use xlink:href="#m6aaf8a6191" x="85.318402" y="341.559142" style="stroke: #000000"/>
     <use xlink:href="#m6aaf8a6191" x="88.888176" y="330.361597" style="stroke: #000000"/>
     <use xlink:href="#m6aaf8a6191" x="92.576941" y="320.79036" style="stroke: #000000"/>
     <use xlink:href="#m6aaf8a6191" x="96.265707" y="353.781814" style="stroke: #000000"/>
     <use xlink:href="#m6aaf8a6191" x="99.597496" y="308.330076" style="stroke: #000000"/>
     <use xlink:href="#m6aaf8a6191" x="103.286262" y="317.716806" style="stroke: #000000"/>
     <use xlink:href="#m6aaf8a6191" x="106.856035" y="319.838377" style="stroke: #000000"/>
     <use xlink:href="#m6aaf8a6191" x="110.544801" y="346.357332" style="stroke: #000000"/>
     <use xlink:href="#m6aaf8a6191" x="114.114575" y="349.264097" style="stroke: #000000"/>
     <use xlink:href="#m6aaf8a6191" x="117.80334" y="321.042944" style="stroke: #000000"/>
     <use xlink:href="#m6aaf8a6191" x="121.492106" y="346.673728" style="stroke: #000000"/>
     <use xlink:href="#m6aaf8a6191" x="125.06188" y="341.139922" style="stroke: #000000"/>
     <use xlink:href="#m6aaf8a6191" x="128.750646" y="334.099159" style="stroke: #000000"/>
     <use xlink:href="#m6aaf8a6191" x="132.320419" y="345.440032" style="stroke: #000000"/>
     <use xlink:href="#m6aaf8a6191" x="136.009185" y="345.440669" style="stroke: #000000"/>
     <use xlink:href="#m6aaf8a6191" x="139.697951" y="330.387609" style="stroke: #000000"/>
     <use xlink:href="#m6aaf8a6191" x="143.148732" y="301.535557" style="stroke: #000000"/>
     <use xlink:href="#m6aaf8a6191" x="146.837498" y="344.34399" style="stroke: #000000"/>
     <use xlink:href="#m6aaf8a6191" x="150.407271" y="339.359492" style="stroke: #000000"/>
     <use xlink:href="#m6aaf8a6191" x="154.096037" y="321.182208" style="stroke: #000000"/>
     <use xlink:href="#m6aaf8a6191" x="157.665811" y="332.27528" style="stroke: #000000"/>
     <use xlink:href="#m6aaf8a6191" x="161.354577" y="320.592556" style="stroke: #000000"/>
     <use xlink:href="#m6aaf8a6191" x="165.043342" y="321.661297" style="stroke: #000000"/>
     <use xlink:href="#m6aaf8a6191" x="168.613116" y="327.142776" style="stroke: #000000"/>
     <use xlink:href="#m6aaf8a6191" x="172.301882" y="318.246815" style="stroke: #000000"/>
     <use xlink:href="#m6aaf8a6191" x="175.871655" y="332.999295" style="stroke: #000000"/>
     <use xlink:href="#m6aaf8a6191" x="179.560421" y="336.020395" style="stroke: #000000"/>
     <use xlink:href="#m6aaf8a6191" x="183.249187" y="329.865863" style="stroke: #000000"/>
     <use xlink:href="#m6aaf8a6191" x="186.580976" y="368.649555" style="stroke: #000000"/>
     <use xlink:href="#m6aaf8a6191" x="190.269741" y="327.899992" style="stroke: #000000"/>
     <use xlink:href="#m6aaf8a6191" x="193.839515" y="343.487597" style="stroke: #000000"/>
     <use xlink:href="#m6aaf8a6191" x="197.528281" y="333.273394" style="stroke: #000000"/>
     <use xlink:href="#m6aaf8a6191" x="201.098054" y="327.911348" style="stroke: #000000"/>
     <use xlink:href="#m6aaf8a6191" x="204.78682" y="322.167759" style="stroke: #000000"/>
     <use xlink:href="#m6aaf8a6191" x="208.475586" y="320.487623" style="stroke: #000000"/>
     <use xlink:href="#m6aaf8a6191" x="212.045359" y="352.280574" style="stroke: #000000"/>
     <use xlink:href="#m6aaf8a6191" x="215.734125" y="314.327075" style="stroke: #000000"/>
     <use xlink:href="#m6aaf8a6191" x="219.303899" y="346.949876" style="stroke: #000000"/>
     <use xlink:href="#m6aaf8a6191" x="222.992665" y="338.079898" style="stroke: #000000"/>
     <use xlink:href="#m6aaf8a6191" x="226.681431" y="309.611142" style="stroke: #000000"/>
     <use xlink:href="#m6aaf8a6191" x="230.013219" y="337.066604" style="stroke: #000000"/>
     <use xlink:href="#m6aaf8a6191" x="233.701985" y="312.82083" style="stroke: #000000"/>
     <use xlink:href="#m6aaf8a6191" x="237.271758" y="316.350647" style="stroke: #000000"/>
     <use xlink:href="#m6aaf8a6191" x="240.960524" y="353.708268" style="stroke: #000000"/>
     <use xlink:href="#m6aaf8a6191" x="244.530298" y="329.3661" style="stroke: #000000"/>
     <use xlink:href="#m6aaf8a6191" x="248.219064" y="332.128026" style="stroke: #000000"/>
     <use xlink:href="#m6aaf8a6191" x="251.90783" y="313.399765" style="stroke: #000000"/>
     <use xlink:href="#m6aaf8a6191" x="255.477603" y="318.974366" style="stroke: #000000"/>
     <use xlink:href="#m6aaf8a6191" x="259.166369" y="327.800374" style="stroke: #000000"/>
     <use xlink:href="#m6aaf8a6191" x="262.736142" y="329.426625" style="stroke: #000000"/>
     <use xlink:href="#m6aaf8a6191" x="266.424908" y="332.585959" style="stroke: #000000"/>
     <use xlink:href="#m6aaf8a6191" x="270.113674" y="345.760752" style="stroke: #000000"/>
     <use xlink:href="#m6aaf8a6191" x="273.445463" y="340.760949" style="stroke: #000000"/>
     <use xlink:href="#m6aaf8a6191" x="277.134229" y="334.951171" style="stroke: #000000"/>
     <use xlink:href="#m6aaf8a6191" x="280.704002" y="325.51503" style="stroke: #000000"/>
     <use xlink:href="#m6aaf8a6191" x="284.392768" y="318.186361" style="stroke: #000000"/>
     <use xlink:href="#m6aaf8a6191" x="287.962541" y="309.695271" style="stroke: #000000"/>
     <use xlink:href="#m6aaf8a6191" x="291.651307" y="321.856711" style="stroke: #000000"/>
     <use xlink:href="#m6aaf8a6191" x="295.340073" y="326.191128" style="stroke: #000000"/>
     <use xlink:href="#m6aaf8a6191" x="298.909847" y="323.798892" style="stroke: #000000"/>
     <use xlink:href="#m6aaf8a6191" x="302.598613" y="346.220418" style="stroke: #000000"/>
     <use xlink:href="#m6aaf8a6191" x="306.168386" y="299.771535" style="stroke: #000000"/>
     <use xlink:href="#m6aaf8a6191" x="309.857152" y="318.30729" style="stroke: #000000"/>
     <use xlink:href="#m6aaf8a6191" x="313.545918" y="330.725502" style="stroke: #000000"/>
     <use xlink:href="#m6aaf8a6191" x="316.996699" y="336.620373" style="stroke: #000000"/>
     <use xlink:href="#m6aaf8a6191" x="320.685465" y="361.21821" style="stroke: #000000"/>
     <use xlink:href="#m6aaf8a6191" x="324.255238" y="343.300213" style="stroke: #000000"/>
     <use xlink:href="#m6aaf8a6191" x="327.944004" y="326.030245" style="stroke: #000000"/>
     <use xlink:href="#m6aaf8a6191" x="331.513777" y="332.366977" style="stroke: #000000"/>
     <use xlink:href="#m6aaf8a6191" x="335.202543" y="366.281908" style="stroke: #000000"/>
     <use xlink:href="#m6aaf8a6191" x="338.891309" y="330.709722" style="stroke: #000000"/>
     <use xlink:href="#m6aaf8a6191" x="342.461083" y="307.690746" style="stroke: #000000"/>
     <use xlink:href="#m6aaf8a6191" x="346.149849" y="330.185786" style="stroke: #000000"/>
     <use xlink:href="#m6aaf8a6191" x="349.719622" y="327.489809" style="stroke: #000000"/>
     <use xlink:href="#m6aaf8a6191" x="353.408388" y="321.214198" style="stroke: #000000"/>
    </g>
   </g>
   <g id="line2d_70">
    <g clip-path="url(#p8b33fc33b9)">
     <use xlink:href="#m6aaf8a6191" x="357.097154" y="360.971338" style="stroke: #000000"/>
     <use xlink:href="#m6aaf8a6191" x="360.428942" y="327.091621" style="stroke: #000000"/>
     <use xlink:href="#m6aaf8a6191" x="364.117708" y="347.737631" style="stroke: #000000"/>
     <use xlink:href="#m6aaf8a6191" x="367.687482" y="363.903015" style="stroke: #000000"/>
     <use xlink:href="#m6aaf8a6191" x="371.376248" y="329.898427" style="stroke: #000000"/>
     <use xlink:href="#m6aaf8a6191" x="374.946021" y="325.016862" style="stroke: #000000"/>
     <use xlink:href="#m6aaf8a6191" x="378.634787" y="266.596573" style="stroke: #000000"/>
     <use xlink:href="#m6aaf8a6191" x="382.323553" y="252.051693" style="stroke: #000000"/>
     <use xlink:href="#m6aaf8a6191" x="385.893326" y="231.024686" style="stroke: #000000"/>
     <use xlink:href="#m6aaf8a6191" x="389.582092" y="224.070581" style="stroke: #000000"/>
     <use xlink:href="#m6aaf8a6191" x="393.151866" y="252.868186" style="stroke: #000000"/>
     <use xlink:href="#m6aaf8a6191" x="396.840632" y="250.180656" style="stroke: #000000"/>
     <use xlink:href="#m6aaf8a6191" x="400.529397" y="284.232754" style="stroke: #000000"/>
     <use xlink:href="#m6aaf8a6191" x="403.861186" y="297.333833" style="stroke: #000000"/>
     <use xlink:href="#m6aaf8a6191" x="407.549952" y="315.663049" style="stroke: #000000"/>
     <use xlink:href="#m6aaf8a6191" x="411.119725" y="321.08381" style="stroke: #000000"/>
     <use xlink:href="#m6aaf8a6191" x="414.808491" y="314.327683" style="stroke: #000000"/>
     <use xlink:href="#m6aaf8a6191" x="418.378265" y="330.319382" style="stroke: #000000"/>
     <use xlink:href="#m6aaf8a6191" x="422.067031" y="285.627799" style="stroke: #000000"/>
     <use xlink:href="#m6aaf8a6191" x="425.755796" y="336.843877" style="stroke: #000000"/>
     <use xlink:href="#m6aaf8a6191" x="429.32557" y="322.416119" style="stroke: #000000"/>
     <use xlink:href="#m6aaf8a6191" x="433.014336" y="306.444036" style="stroke: #000000"/>
     <use xlink:href="#m6aaf8a6191" x="436.584109" y="335.097466" style="stroke: #000000"/>
     <use xlink:href="#m6aaf8a6191" x="440.272875" y="348.793037" style="stroke: #000000"/>
     <use xlink:href="#m6aaf8a6191" x="443.961641" y="352.946295" style="stroke: #000000"/>
     <use xlink:href="#m6aaf8a6191" x="447.29343" y="327.832467" style="stroke: #000000"/>
     <use xlink:href="#m6aaf8a6191" x="450.982195" y="345.526031" style="stroke: #000000"/>
     <use xlink:href="#m6aaf8a6191" x="454.551969" y="346.031851" style="stroke: #000000"/>
     <use xlink:href="#m6aaf8a6191" x="458.240735" y="338.074584" style="stroke: #000000"/>
     <use xlink:href="#m6aaf8a6191" x="461.810508" y="362.093849" style="stroke: #000000"/>
     <use xlink:href="#m6aaf8a6191" x="465.499274" y="321.594504" style="stroke: #000000"/>
     <use xlink:href="#m6aaf8a6191" x="469.18804" y="343.722564" style="stroke: #000000"/>
     <use xlink:href="#m6aaf8a6191" x="472.757814" y="332.30929" style="stroke: #000000"/>
     <use xlink:href="#m6aaf8a6191" x="476.446579" y="282.784003" style="stroke: #000000"/>
     <use xlink:href="#m6aaf8a6191" x="480.016353" y="363.380161" style="stroke: #000000"/>
     <use xlink:href="#m6aaf8a6191" x="483.705119" y="334.986822" style="stroke: #000000"/>
    </g>
   </g>
   <g id="line2d_71">
    <path d="M 31.289881 330.348395 
L 505.248701 330.348395 
" clip-path="url(#p8b33fc33b9)" style="fill: none; stroke: #000000; stroke-width: 1.5; stroke-linecap: round"/>
   </g>
   <g id="line2d_72">
    <path d="M 353.52738 375.878504 
L 353.52738 216.841632 
" clip-path="url(#p8b33fc33b9)" style="fill: none; stroke: #ff0000; stroke-width: 3; stroke-linecap: round"/>
   </g>
   <g id="patch_9">
    <path d="M 31.289881 375.878504 
L 31.289881 216.841632 
" style="fill: none"/>
   </g>
   <g id="patch_10">
    <path d="M 505.248701 375.878504 
L 505.248701 216.841632 
" style="fill: none"/>
   </g>
   <g id="patch_11">
    <path d="M 31.289881 375.878504 
L 505.248701 375.878504 
" style="fill: none"/>
   </g>
   <g id="patch_12">
    <path d="M 31.289881 216.841632 
L 505.248701 216.841632 
" style="fill: none"/>
   </g>
   <g id="text_14">
    <!-- Causal Impact -->
    <g style="fill: #262626" transform="translate(211.206791 210.841632) scale(0.16 -0.16)">
     <defs>
      <path id="DejaVuSans-43" d="M 4122 4306 
L 4122 3641 
Q 3803 3938 3442 4084 
Q 3081 4231 2675 4231 
Q 1875 4231 1450 3742 
Q 1025 3253 1025 2328 
Q 1025 1406 1450 917 
Q 1875 428 2675 428 
Q 3081 428 3442 575 
Q 3803 722 4122 1019 
L 4122 359 
Q 3791 134 3420 21 
Q 3050 -91 2638 -91 
Q 1578 -91 968 557 
Q 359 1206 359 2328 
Q 359 3453 968 4101 
Q 1578 4750 2638 4750 
Q 3056 4750 3426 4639 
Q 3797 4528 4122 4306 
z
" transform="scale(0.015625)"/>
      <path id="DejaVuSans-49" d="M 628 4666 
L 1259 4666 
L 1259 0 
L 628 0 
L 628 4666 
z
" transform="scale(0.015625)"/>
     </defs>
     <use xlink:href="#DejaVuSans-43"/>
     <use xlink:href="#DejaVuSans-61" x="69.824219"/>
     <use xlink:href="#DejaVuSans-75" x="131.103516"/>
     <use xlink:href="#DejaVuSans-73" x="194.482422"/>
     <use xlink:href="#DejaVuSans-61" x="246.582031"/>
     <use xlink:href="#DejaVuSans-6c" x="307.861328"/>
     <use xlink:href="#DejaVuSans-20" x="335.644531"/>
     <use xlink:href="#DejaVuSans-49" x="367.431641"/>
     <use xlink:href="#DejaVuSans-6d" x="396.923828"/>
     <use xlink:href="#DejaVuSans-70" x="494.335938"/>
     <use xlink:href="#DejaVuSans-61" x="557.8125"/>
     <use xlink:href="#DejaVuSans-63" x="619.091797"/>
     <use xlink:href="#DejaVuSans-74" x="674.072266"/>
    </g>
   </g>
  </g>
  <g id="axes_3">
   <g id="patch_13">
    <path d="M 31.289881 560.193267 
L 505.248701 560.193267 
L 505.248701 401.156395 
L 31.289881 401.156395 
z
" style="fill: #eeeeee"/>
   </g>
   <g id="matplotlib.axis_5">
    <g id="xtick_23">
     <g id="line2d_73">
      <path d="M 49.26369 560.193267 
L 49.26369 401.156395 
" clip-path="url(#p4d85b4506d)" style="fill: none; stroke: #ffffff; stroke-width: 0.8; stroke-linecap: round"/>
     </g>
     <g id="line2d_74"/>
     <g id="text_15">
      <!-- 2010 -->
      <g style="fill: #262626" transform="translate(31.44869 574.33108) scale(0.14 -0.14)">
       <use xlink:href="#DejaVuSans-32"/>
       <use xlink:href="#DejaVuSans-30" x="63.623047"/>
       <use xlink:href="#DejaVuSans-31" x="127.246094"/>
       <use xlink:href="#DejaVuSans-30" x="190.869141"/>
      </g>
     </g>
    </g>
    <g id="xtick_24">
     <g id="line2d_75">
      <path d="M 92.695934 560.193267 
L 92.695934 401.156395 
" clip-path="url(#p4d85b4506d)" style="fill: none; stroke: #ffffff; stroke-width: 0.8; stroke-linecap: round"/>
     </g>
     <g id="line2d_76"/>
     <g id="text_16">
      <!-- 2011 -->
      <g style="fill: #262626" transform="translate(74.880934 574.33108) scale(0.14 -0.14)">
       <use xlink:href="#DejaVuSans-32"/>
       <use xlink:href="#DejaVuSans-30" x="63.623047"/>
       <use xlink:href="#DejaVuSans-31" x="127.246094"/>
       <use xlink:href="#DejaVuSans-31" x="190.869141"/>
      </g>
     </g>
    </g>
    <g id="xtick_25">
     <g id="line2d_77">
      <path d="M 136.128178 560.193267 
L 136.128178 401.156395 
" clip-path="url(#p4d85b4506d)" style="fill: none; stroke: #ffffff; stroke-width: 0.8; stroke-linecap: round"/>
     </g>
     <g id="line2d_78"/>
     <g id="text_17">
      <!-- 2012 -->
      <g style="fill: #262626" transform="translate(118.313178 574.33108) scale(0.14 -0.14)">
       <use xlink:href="#DejaVuSans-32"/>
       <use xlink:href="#DejaVuSans-30" x="63.623047"/>
       <use xlink:href="#DejaVuSans-31" x="127.246094"/>
       <use xlink:href="#DejaVuSans-32" x="190.869141"/>
      </g>
     </g>
    </g>
    <g id="xtick_26">
     <g id="line2d_79">
      <path d="M 179.679414 560.193267 
L 179.679414 401.156395 
" clip-path="url(#p4d85b4506d)" style="fill: none; stroke: #ffffff; stroke-width: 0.8; stroke-linecap: round"/>
     </g>
     <g id="line2d_80"/>
     <g id="text_18">
      <!-- 2013 -->
      <g style="fill: #262626" transform="translate(161.864414 574.33108) scale(0.14 -0.14)">
       <defs>
        <path id="DejaVuSans-33" d="M 2597 2516 
Q 3050 2419 3304 2112 
Q 3559 1806 3559 1356 
Q 3559 666 3084 287 
Q 2609 -91 1734 -91 
Q 1441 -91 1130 -33 
Q 819 25 488 141 
L 488 750 
Q 750 597 1062 519 
Q 1375 441 1716 441 
Q 2309 441 2620 675 
Q 2931 909 2931 1356 
Q 2931 1769 2642 2001 
Q 2353 2234 1838 2234 
L 1294 2234 
L 1294 2753 
L 1863 2753 
Q 2328 2753 2575 2939 
Q 2822 3125 2822 3475 
Q 2822 3834 2567 4026 
Q 2313 4219 1838 4219 
Q 1578 4219 1281 4162 
Q 984 4106 628 3988 
L 628 4550 
Q 988 4650 1302 4700 
Q 1616 4750 1894 4750 
Q 2613 4750 3031 4423 
Q 3450 4097 3450 3541 
Q 3450 3153 3228 2886 
Q 3006 2619 2597 2516 
z
" transform="scale(0.015625)"/>
       </defs>
       <use xlink:href="#DejaVuSans-32"/>
       <use xlink:href="#DejaVuSans-30" x="63.623047"/>
       <use xlink:href="#DejaVuSans-31" x="127.246094"/>
       <use xlink:href="#DejaVuSans-33" x="190.869141"/>
      </g>
     </g>
    </g>
    <g id="xtick_27">
     <g id="line2d_81">
      <path d="M 223.111657 560.193267 
L 223.111657 401.156395 
" clip-path="url(#p4d85b4506d)" style="fill: none; stroke: #ffffff; stroke-width: 0.8; stroke-linecap: round"/>
     </g>
     <g id="line2d_82"/>
     <g id="text_19">
      <!-- 2014 -->
      <g style="fill: #262626" transform="translate(205.296657 574.33108) scale(0.14 -0.14)">
       <use xlink:href="#DejaVuSans-32"/>
       <use xlink:href="#DejaVuSans-30" x="63.623047"/>
       <use xlink:href="#DejaVuSans-31" x="127.246094"/>
       <use xlink:href="#DejaVuSans-34" x="190.869141"/>
      </g>
     </g>
    </g>
    <g id="xtick_28">
     <g id="line2d_83">
      <path d="M 266.543901 560.193267 
L 266.543901 401.156395 
" clip-path="url(#p4d85b4506d)" style="fill: none; stroke: #ffffff; stroke-width: 0.8; stroke-linecap: round"/>
     </g>
     <g id="line2d_84"/>
     <g id="text_20">
      <!-- 2015 -->
      <g style="fill: #262626" transform="translate(248.728901 574.33108) scale(0.14 -0.14)">
       <use xlink:href="#DejaVuSans-32"/>
       <use xlink:href="#DejaVuSans-30" x="63.623047"/>
       <use xlink:href="#DejaVuSans-31" x="127.246094"/>
       <use xlink:href="#DejaVuSans-35" x="190.869141"/>
      </g>
     </g>
    </g>
    <g id="xtick_29">
     <g id="line2d_85">
      <path d="M 309.976144 560.193267 
L 309.976144 401.156395 
" clip-path="url(#p4d85b4506d)" style="fill: none; stroke: #ffffff; stroke-width: 0.8; stroke-linecap: round"/>
     </g>
     <g id="line2d_86"/>
     <g id="text_21">
      <!-- 2016 -->
      <g style="fill: #262626" transform="translate(292.161144 574.33108) scale(0.14 -0.14)">
       <use xlink:href="#DejaVuSans-32"/>
       <use xlink:href="#DejaVuSans-30" x="63.623047"/>
       <use xlink:href="#DejaVuSans-31" x="127.246094"/>
       <use xlink:href="#DejaVuSans-36" x="190.869141"/>
      </g>
     </g>
    </g>
    <g id="xtick_30">
     <g id="line2d_87">
      <path d="M 353.52738 560.193267 
L 353.52738 401.156395 
" clip-path="url(#p4d85b4506d)" style="fill: none; stroke: #ffffff; stroke-width: 0.8; stroke-linecap: round"/>
     </g>
     <g id="line2d_88"/>
     <g id="text_22">
      <!-- 2017 -->
      <g style="fill: #262626" transform="translate(335.71238 574.33108) scale(0.14 -0.14)">
       <use xlink:href="#DejaVuSans-32"/>
       <use xlink:href="#DejaVuSans-30" x="63.623047"/>
       <use xlink:href="#DejaVuSans-31" x="127.246094"/>
       <use xlink:href="#DejaVuSans-37" x="190.869141"/>
      </g>
     </g>
    </g>
    <g id="xtick_31">
     <g id="line2d_89">
      <path d="M 396.959624 560.193267 
L 396.959624 401.156395 
" clip-path="url(#p4d85b4506d)" style="fill: none; stroke: #ffffff; stroke-width: 0.8; stroke-linecap: round"/>
     </g>
     <g id="line2d_90"/>
     <g id="text_23">
      <!-- 2018 -->
      <g style="fill: #262626" transform="translate(379.144624 574.33108) scale(0.14 -0.14)">
       <use xlink:href="#DejaVuSans-32"/>
       <use xlink:href="#DejaVuSans-30" x="63.623047"/>
       <use xlink:href="#DejaVuSans-31" x="127.246094"/>
       <use xlink:href="#DejaVuSans-38" x="190.869141"/>
      </g>
     </g>
    </g>
    <g id="xtick_32">
     <g id="line2d_91">
      <path d="M 440.391868 560.193267 
L 440.391868 401.156395 
" clip-path="url(#p4d85b4506d)" style="fill: none; stroke: #ffffff; stroke-width: 0.8; stroke-linecap: round"/>
     </g>
     <g id="line2d_92"/>
     <g id="text_24">
      <!-- 2019 -->
      <g style="fill: #262626" transform="translate(422.576868 574.33108) scale(0.14 -0.14)">
       <use xlink:href="#DejaVuSans-32"/>
       <use xlink:href="#DejaVuSans-30" x="63.623047"/>
       <use xlink:href="#DejaVuSans-31" x="127.246094"/>
       <use xlink:href="#DejaVuSans-39" x="190.869141"/>
      </g>
     </g>
    </g>
    <g id="xtick_33">
     <g id="line2d_93">
      <path d="M 483.824111 560.193267 
L 483.824111 401.156395 
" clip-path="url(#p4d85b4506d)" style="fill: none; stroke: #ffffff; stroke-width: 0.8; stroke-linecap: round"/>
     </g>
     <g id="line2d_94"/>
     <g id="text_25">
      <!-- 2020 -->
      <g style="fill: #262626" transform="translate(466.009111 574.33108) scale(0.14 -0.14)">
       <use xlink:href="#DejaVuSans-32"/>
       <use xlink:href="#DejaVuSans-30" x="63.623047"/>
       <use xlink:href="#DejaVuSans-32" x="127.246094"/>
       <use xlink:href="#DejaVuSans-30" x="190.869141"/>
      </g>
     </g>
    </g>
   </g>
   <g id="matplotlib.axis_6">
    <g id="ytick_9">
     <g id="line2d_95">
      <path d="M 31.289881 536.796319 
L 505.248701 536.796319 
" clip-path="url(#p4d85b4506d)" style="fill: none; stroke: #ffffff; stroke-width: 0.8; stroke-linecap: round"/>
     </g>
     <g id="line2d_96"/>
     <g id="text_26">
      <!-- 0 -->
      <g style="fill: #262626" transform="translate(18.882381 542.115225) scale(0.14 -0.14)">
       <use xlink:href="#DejaVuSans-30"/>
      </g>
     </g>
    </g>
    <g id="ytick_10">
     <g id="line2d_97">
      <path d="M 31.289881 497.046583 
L 505.248701 497.046583 
" clip-path="url(#p4d85b4506d)" style="fill: none; stroke: #ffffff; stroke-width: 0.8; stroke-linecap: round"/>
     </g>
     <g id="line2d_98"/>
     <g id="text_27">
      <!-- 25 -->
      <g style="fill: #262626" transform="translate(9.974881 502.365489) scale(0.14 -0.14)">
       <use xlink:href="#DejaVuSans-32"/>
       <use xlink:href="#DejaVuSans-35" x="63.623047"/>
      </g>
     </g>
    </g>
    <g id="ytick_11">
     <g id="line2d_99">
      <path d="M 31.289881 457.296847 
L 505.248701 457.296847 
" clip-path="url(#p4d85b4506d)" style="fill: none; stroke: #ffffff; stroke-width: 0.8; stroke-linecap: round"/>
     </g>
     <g id="line2d_100"/>
     <g id="text_28">
      <!-- 50 -->
      <g style="fill: #262626" transform="translate(9.974881 462.615753) scale(0.14 -0.14)">
       <use xlink:href="#DejaVuSans-35"/>
       <use xlink:href="#DejaVuSans-30" x="63.623047"/>
      </g>
     </g>
    </g>
    <g id="ytick_12">
     <g id="line2d_101">
      <path d="M 31.289881 417.547111 
L 505.248701 417.547111 
" clip-path="url(#p4d85b4506d)" style="fill: none; stroke: #ffffff; stroke-width: 0.8; stroke-linecap: round"/>
     </g>
     <g id="line2d_102"/>
     <g id="text_29">
      <!-- 75 -->
      <g style="fill: #262626" transform="translate(9.974881 422.866017) scale(0.14 -0.14)">
       <use xlink:href="#DejaVuSans-37"/>
       <use xlink:href="#DejaVuSans-35" x="63.623047"/>
      </g>
     </g>
    </g>
   </g>
   <g id="line2d_103">
    <path d="M 357.097154 543.118776 
L 360.428942 542.446377 
L 364.117708 546.036584 
L 367.687482 552.964318 
L 371.376248 552.871417 
L 374.946021 551.770661 
L 378.634787 538.608369 
L 382.323553 522.44312 
L 385.893326 501.936605 
L 389.582092 479.994335 
L 393.151866 463.99766 
L 396.840632 447.446114 
L 400.529397 437.925013 
L 403.861186 431.108779 
L 407.549952 428.076822 
L 411.119725 426.164042 
L 414.808491 422.856383 
L 418.378265 422.850393 
L 422.067031 413.617315 
L 425.755796 414.958381 
L 429.32557 413.320672 
L 433.014336 408.385344 
L 436.584109 409.365844 
L 440.272875 413.173951 
L 443.961641 417.839545 
L 447.29343 417.320103 
L 450.982195 420.4537 
L 454.551969 423.691728 
L 458.240735 425.286888 
L 461.810508 431.8411 
L 465.499274 430.033759 
L 469.18804 432.795009 
L 472.757814 433.199858 
L 476.446579 423.379646 
L 480.016353 430.199431 
L 483.705119 431.157087 
" clip-path="url(#p4d85b4506d)" style="fill: none; stroke: #000000; stroke-width: 1.5; stroke-linecap: round"/>
   </g>
   <g id="line2d_104">
    <path d="M 31.289881 536.796319 
L 505.248701 536.796319 
" clip-path="url(#p4d85b4506d)" style="fill: none; stroke: #000000; stroke-width: 1.5; stroke-linecap: round"/>
   </g>
   <g id="line2d_105">
    <path d="M 353.52738 560.193267 
L 353.52738 401.156395 
" clip-path="url(#p4d85b4506d)" style="fill: none; stroke: #ff0000; stroke-width: 3; stroke-linecap: round"/>
   </g>
   <g id="patch_14">
    <path d="M 31.289881 560.193267 
L 31.289881 401.156395 
" style="fill: none"/>
   </g>
   <g id="patch_15">
    <path d="M 505.248701 560.193267 
L 505.248701 401.156395 
" style="fill: none"/>
   </g>
   <g id="patch_16">
    <path d="M 31.289881 560.193267 
L 505.248701 560.193267 
" style="fill: none"/>
   </g>
   <g id="patch_17">
    <path d="M 31.289881 401.156395 
L 505.248701 401.156395 
" style="fill: none"/>
   </g>
   <g id="text_30">
    <!-- Cumulative Causal Impact -->
    <g style="fill: #262626" transform="translate(163.004291 395.156395) scale(0.16 -0.16)">
     <use xlink:href="#DejaVuSans-43"/>
     <use xlink:href="#DejaVuSans-75" x="69.824219"/>
     <use xlink:href="#DejaVuSans-6d" x="133.203125"/>
     <use xlink:href="#DejaVuSans-75" x="230.615234"/>
     <use xlink:href="#DejaVuSans-6c" x="293.994141"/>
     <use xlink:href="#DejaVuSans-61" x="321.777344"/>
     <use xlink:href="#DejaVuSans-74" x="383.056641"/>
     <use xlink:href="#DejaVuSans-69" x="422.265625"/>
     <use xlink:href="#DejaVuSans-76" x="450.048828"/>
     <use xlink:href="#DejaVuSans-65" x="509.228516"/>
     <use xlink:href="#DejaVuSans-20" x="570.751953"/>
     <use xlink:href="#DejaVuSans-43" x="602.539062"/>
     <use xlink:href="#DejaVuSans-61" x="672.363281"/>
     <use xlink:href="#DejaVuSans-75" x="733.642578"/>
     <use xlink:href="#DejaVuSans-73" x="797.021484"/>
     <use xlink:href="#DejaVuSans-61" x="849.121094"/>
     <use xlink:href="#DejaVuSans-6c" x="910.400391"/>
     <use xlink:href="#DejaVuSans-20" x="938.183594"/>
     <use xlink:href="#DejaVuSans-49" x="969.970703"/>
     <use xlink:href="#DejaVuSans-6d" x="999.462891"/>
     <use xlink:href="#DejaVuSans-70" x="1096.875"/>
     <use xlink:href="#DejaVuSans-61" x="1160.351562"/>
     <use xlink:href="#DejaVuSans-63" x="1221.630859"/>
     <use xlink:href="#DejaVuSans-74" x="1276.611328"/>
    </g>
   </g>
  </g>
 </g>
 <defs>
  <clipPath id="p1b386e8153">
   <rect x="31.289881" y="27.716878" width="473.95882" height="159.036872"/>
  </clipPath>
  <clipPath id="p8b33fc33b9">
   <rect x="31.289881" y="216.841632" width="473.95882" height="159.036872"/>
  </clipPath>
  <clipPath id="p4d85b4506d">
   <rect x="31.289881" y="401.156395" width="473.95882" height="159.036872"/>
  </clipPath>
 </defs>
</svg>
