<?xml version="1.0" encoding="utf-8" standalone="no"?>
<!DOCTYPE svg PUBLIC "-//W3C//DTD SVG 1.1//EN"
  "http://www.w3.org/Graphics/SVG/1.1/DTD/svg11.dtd">
<svg xmlns:xlink="http://www.w3.org/1999/xlink" width="512.39952pt" height="584.39952pt" viewBox="0 0 512.39952 584.39952" xmlns="http://www.w3.org/2000/svg" version="1.1">
 <metadata>
  <rdf:RDF xmlns:dc="http://purl.org/dc/elements/1.1/" xmlns:cc="http://creativecommons.org/ns#" xmlns:rdf="http://www.w3.org/1999/02/22-rdf-syntax-ns#">
   <cc:Work>
    <dc:type rdf:resource="http://purl.org/dc/dcmitype/StillImage"/>
    <dc:date>2022-11-15T19:40:53.596392</dc:date>
    <dc:format>image/svg+xml</dc:format>
    <dc:creator>
     <cc:Agent>
      <dc:title>Matplotlib v3.6.2, https://matplotlib.org/</dc:title>
     </cc:Agent>
    </dc:creator>
   </cc:Work>
  </rdf:RDF>
 </metadata>
 <defs>
  <style type="text/css">*{stroke-linejoin: round; stroke-linecap: butt}</style>
 </defs>
 <g id="figure_1">
  <g id="patch_1">
   <path d="M 0 584.39952 
L 512.39952 584.39952 
L 512.39952 0 
L 0 0 
z
" style="fill: #ffffff"/>
  </g>
  <g id="axes_1">
   <g id="patch_2">
    <path d="M 40.246563 187.419223 
L 505.19952 187.419223 
L 505.19952 27.76 
L 40.246563 27.76 
z
" style="fill: #eeeeee"/>
   </g>
   <g id="matplotlib.axis_1">
    <g id="xtick_1">
     <g id="line2d_1">
      <path d="M 57.878845 187.419223 
L 57.878845 27.76 
" clip-path="url(#p5c64643c3a)" style="fill: none; stroke: #ffffff; stroke-width: 0.8; stroke-linecap: round"/>
     </g>
     <g id="line2d_2"/>
    </g>
    <g id="xtick_2">
     <g id="line2d_3">
      <path d="M 100.485817 187.419223 
L 100.485817 27.76 
" clip-path="url(#p5c64643c3a)" style="fill: none; stroke: #ffffff; stroke-width: 0.8; stroke-linecap: round"/>
     </g>
     <g id="line2d_4"/>
    </g>
    <g id="xtick_3">
     <g id="line2d_5">
      <path d="M 143.092789 187.419223 
L 143.092789 27.76 
" clip-path="url(#p5c64643c3a)" style="fill: none; stroke: #ffffff; stroke-width: 0.8; stroke-linecap: round"/>
     </g>
     <g id="line2d_6"/>
    </g>
    <g id="xtick_4">
     <g id="line2d_7">
      <path d="M 185.816492 187.419223 
L 185.816492 27.76 
" clip-path="url(#p5c64643c3a)" style="fill: none; stroke: #ffffff; stroke-width: 0.8; stroke-linecap: round"/>
     </g>
     <g id="line2d_8"/>
    </g>
    <g id="xtick_5">
     <g id="line2d_9">
      <path d="M 228.423464 187.419223 
L 228.423464 27.76 
" clip-path="url(#p5c64643c3a)" style="fill: none; stroke: #ffffff; stroke-width: 0.8; stroke-linecap: round"/>
     </g>
     <g id="line2d_10"/>
    </g>
    <g id="xtick_6">
     <g id="line2d_11">
      <path d="M 271.030436 187.419223 
L 271.030436 27.76 
" clip-path="url(#p5c64643c3a)" style="fill: none; stroke: #ffffff; stroke-width: 0.8; stroke-linecap: round"/>
     </g>
     <g id="line2d_12"/>
    </g>
    <g id="xtick_7">
     <g id="line2d_13">
      <path d="M 313.637407 187.419223 
L 313.637407 27.76 
" clip-path="url(#p5c64643c3a)" style="fill: none; stroke: #ffffff; stroke-width: 0.8; stroke-linecap: round"/>
     </g>
     <g id="line2d_14"/>
    </g>
    <g id="xtick_8">
     <g id="line2d_15">
      <path d="M 356.361111 187.419223 
L 356.361111 27.76 
" clip-path="url(#p5c64643c3a)" style="fill: none; stroke: #ffffff; stroke-width: 0.8; stroke-linecap: round"/>
     </g>
     <g id="line2d_16"/>
    </g>
    <g id="xtick_9">
     <g id="line2d_17">
      <path d="M 398.968082 187.419223 
L 398.968082 27.76 
" clip-path="url(#p5c64643c3a)" style="fill: none; stroke: #ffffff; stroke-width: 0.8; stroke-linecap: round"/>
     </g>
     <g id="line2d_18"/>
    </g>
    <g id="xtick_10">
     <g id="line2d_19">
      <path d="M 441.575054 187.419223 
L 441.575054 27.76 
" clip-path="url(#p5c64643c3a)" style="fill: none; stroke: #ffffff; stroke-width: 0.8; stroke-linecap: round"/>
     </g>
     <g id="line2d_20"/>
    </g>
    <g id="xtick_11">
     <g id="line2d_21">
      <path d="M 484.182026 187.419223 
L 484.182026 27.76 
" clip-path="url(#p5c64643c3a)" style="fill: none; stroke: #ffffff; stroke-width: 0.8; stroke-linecap: round"/>
     </g>
     <g id="line2d_22"/>
    </g>
   </g>
   <g id="matplotlib.axis_2">
    <g id="ytick_1">
     <g id="line2d_23">
      <path d="M 40.246563 177.150175 
L 505.19952 177.150175 
" clip-path="url(#p5c64643c3a)" style="fill: none; stroke: #ffffff; stroke-width: 0.8; stroke-linecap: round"/>
     </g>
     <g id="line2d_24"/>
     <g id="text_1">
      <!-- 20 -->
      <g style="fill: #262626" transform="translate(18.931563 182.469081) scale(0.14 -0.14)">
       <defs>
        <path id="DejaVuSans-32" d="M 1228 531 
L 3431 531 
L 3431 0 
L 469 0 
L 469 531 
Q 828 903 1448 1529 
Q 2069 2156 2228 2338 
Q 2531 2678 2651 2914 
Q 2772 3150 2772 3378 
Q 2772 3750 2511 3984 
Q 2250 4219 1831 4219 
Q 1534 4219 1204 4116 
Q 875 4013 500 3803 
L 500 4441 
Q 881 4594 1212 4672 
Q 1544 4750 1819 4750 
Q 2544 4750 2975 4387 
Q 3406 4025 3406 3419 
Q 3406 3131 3298 2873 
Q 3191 2616 2906 2266 
Q 2828 2175 2409 1742 
Q 1991 1309 1228 531 
z
" transform="scale(0.015625)"/>
        <path id="DejaVuSans-30" d="M 2034 4250 
Q 1547 4250 1301 3770 
Q 1056 3291 1056 2328 
Q 1056 1369 1301 889 
Q 1547 409 2034 409 
Q 2525 409 2770 889 
Q 3016 1369 3016 2328 
Q 3016 3291 2770 3770 
Q 2525 4250 2034 4250 
z
M 2034 4750 
Q 2819 4750 3233 4129 
Q 3647 3509 3647 2328 
Q 3647 1150 3233 529 
Q 2819 -91 2034 -91 
Q 1250 -91 836 529 
Q 422 1150 422 2328 
Q 422 3509 836 4129 
Q 1250 4750 2034 4750 
z
" transform="scale(0.015625)"/>
       </defs>
       <use xlink:href="#DejaVuSans-32"/>
       <use xlink:href="#DejaVuSans-30" x="63.623047"/>
      </g>
     </g>
    </g>
    <g id="ytick_2">
     <g id="line2d_25">
      <path d="M 40.246563 133.749678 
L 505.19952 133.749678 
" clip-path="url(#p5c64643c3a)" style="fill: none; stroke: #ffffff; stroke-width: 0.8; stroke-linecap: round"/>
     </g>
     <g id="line2d_26"/>
     <g id="text_2">
      <!-- 40 -->
      <g style="fill: #262626" transform="translate(18.931563 139.068584) scale(0.14 -0.14)">
       <defs>
        <path id="DejaVuSans-34" d="M 2419 4116 
L 825 1625 
L 2419 1625 
L 2419 4116 
z
M 2253 4666 
L 3047 4666 
L 3047 1625 
L 3713 1625 
L 3713 1100 
L 3047 1100 
L 3047 0 
L 2419 0 
L 2419 1100 
L 313 1100 
L 313 1709 
L 2253 4666 
z
" transform="scale(0.015625)"/>
       </defs>
       <use xlink:href="#DejaVuSans-34"/>
       <use xlink:href="#DejaVuSans-30" x="63.623047"/>
      </g>
     </g>
    </g>
    <g id="ytick_3">
     <g id="line2d_27">
      <path d="M 40.246563 90.34918 
L 505.19952 90.34918 
" clip-path="url(#p5c64643c3a)" style="fill: none; stroke: #ffffff; stroke-width: 0.8; stroke-linecap: round"/>
     </g>
     <g id="line2d_28"/>
     <g id="text_3">
      <!-- 60 -->
      <g style="fill: #262626" transform="translate(18.931563 95.668086) scale(0.14 -0.14)">
       <defs>
        <path id="DejaVuSans-36" d="M 2113 2584 
Q 1688 2584 1439 2293 
Q 1191 2003 1191 1497 
Q 1191 994 1439 701 
Q 1688 409 2113 409 
Q 2538 409 2786 701 
Q 3034 994 3034 1497 
Q 3034 2003 2786 2293 
Q 2538 2584 2113 2584 
z
M 3366 4563 
L 3366 3988 
Q 3128 4100 2886 4159 
Q 2644 4219 2406 4219 
Q 1781 4219 1451 3797 
Q 1122 3375 1075 2522 
Q 1259 2794 1537 2939 
Q 1816 3084 2150 3084 
Q 2853 3084 3261 2657 
Q 3669 2231 3669 1497 
Q 3669 778 3244 343 
Q 2819 -91 2113 -91 
Q 1303 -91 875 529 
Q 447 1150 447 2328 
Q 447 3434 972 4092 
Q 1497 4750 2381 4750 
Q 2619 4750 2861 4703 
Q 3103 4656 3366 4563 
z
" transform="scale(0.015625)"/>
       </defs>
       <use xlink:href="#DejaVuSans-36"/>
       <use xlink:href="#DejaVuSans-30" x="63.623047"/>
      </g>
     </g>
    </g>
    <g id="ytick_4">
     <g id="line2d_29">
      <path d="M 40.246563 46.948682 
L 505.19952 46.948682 
" clip-path="url(#p5c64643c3a)" style="fill: none; stroke: #ffffff; stroke-width: 0.8; stroke-linecap: round"/>
     </g>
     <g id="line2d_30"/>
     <g id="text_4">
      <!-- 80 -->
      <g style="fill: #262626" transform="translate(18.931563 52.267589) scale(0.14 -0.14)">
       <defs>
        <path id="DejaVuSans-38" d="M 2034 2216 
Q 1584 2216 1326 1975 
Q 1069 1734 1069 1313 
Q 1069 891 1326 650 
Q 1584 409 2034 409 
Q 2484 409 2743 651 
Q 3003 894 3003 1313 
Q 3003 1734 2745 1975 
Q 2488 2216 2034 2216 
z
M 1403 2484 
Q 997 2584 770 2862 
Q 544 3141 544 3541 
Q 544 4100 942 4425 
Q 1341 4750 2034 4750 
Q 2731 4750 3128 4425 
Q 3525 4100 3525 3541 
Q 3525 3141 3298 2862 
Q 3072 2584 2669 2484 
Q 3125 2378 3379 2068 
Q 3634 1759 3634 1313 
Q 3634 634 3220 271 
Q 2806 -91 2034 -91 
Q 1263 -91 848 271 
Q 434 634 434 1313 
Q 434 1759 690 2068 
Q 947 2378 1403 2484 
z
M 1172 3481 
Q 1172 3119 1398 2916 
Q 1625 2713 2034 2713 
Q 2441 2713 2670 2916 
Q 2900 3119 2900 3481 
Q 2900 3844 2670 4047 
Q 2441 4250 2034 4250 
Q 1625 4250 1398 4047 
Q 1172 3844 1172 3481 
z
" transform="scale(0.015625)"/>
       </defs>
       <use xlink:href="#DejaVuSans-38"/>
       <use xlink:href="#DejaVuSans-30" x="63.623047"/>
      </g>
     </g>
    </g>
   </g>
   <g id="PolyCollection_1">
    <defs>
     <path id="m113fb20c16" d="M 61.380788 -421.340372 
L 61.380788 -404.237534 
L 64.649268 -411.012201 
L 68.267942 -408.017308 
L 71.769885 -420.854641 
L 75.388559 -439.160739 
L 78.890502 -460.600673 
L 82.509177 -446.749773 
L 86.127851 -479.595047 
L 89.629794 -443.43484 
L 93.248468 -428.372565 
L 96.750411 -422.795401 
L 100.369085 -410.878775 
L 103.98776 -409.791441 
L 107.25624 -415.675274 
L 110.874914 -413.900176 
L 114.376857 -426.347095 
L 117.995531 -444.086632 
L 121.497474 -466.087789 
L 125.116148 -451.936308 
L 128.734823 -485.60625 
L 132.236766 -448.471358 
L 135.85544 -434.707652 
L 139.357383 -428.458086 
L 142.976057 -416.197416 
L 146.594731 -416.164356 
L 149.979943 -421.976739 
L 153.598617 -418.909125 
L 157.10056 -432.10521 
L 160.719234 -449.451604 
L 164.221177 -471.364924 
L 167.839852 -457.499296 
L 171.458526 -490.919097 
L 174.960469 -454.437587 
L 178.579143 -439.481098 
L 182.081086 -433.647489 
L 185.69976 -421.672182 
L 189.318435 -421.140444 
L 192.586915 -428.331055 
L 196.205589 -424.410703 
L 199.707532 -437.660951 
L 203.326206 -455.19167 
L 206.828149 -477.282938 
L 210.446824 -463.221129 
L 214.065498 -496.820458 
L 217.567441 -459.77886 
L 221.186115 -445.190485 
L 224.688058 -438.9923 
L 228.306732 -427.55971 
L 231.925407 -426.476011 
L 235.193887 -433.263942 
L 238.812561 -429.407875 
L 242.314504 -443.471975 
L 245.933178 -460.960065 
L 249.435121 -482.955813 
L 253.053795 -468.555126 
L 256.67247 -502.222588 
L 260.174413 -464.880813 
L 263.793087 -449.916654 
L 267.29503 -444.565817 
L 270.913704 -432.725989 
L 274.532378 -432.322008 
L 277.800858 -438.4845 
L 281.419533 -435.585528 
L 284.921476 -448.877492 
L 288.54015 -466.170341 
L 292.042093 -488.060956 
L 295.660767 -474.143832 
L 299.279441 -507.488938 
L 302.781384 -470.439953 
L 306.400059 -455.887394 
L 309.902002 -450.006932 
L 313.520676 -437.344564 
L 317.13935 -437.575503 
L 320.524562 -443.9266 
L 324.143236 -440.374277 
L 327.645179 -453.990494 
L 331.263853 -471.584564 
L 334.765796 -493.492489 
L 338.38447 -479.491756 
L 342.003145 -513.025803 
L 345.505088 -476.777418 
L 349.123762 -461.878022 
L 352.625705 -455.293679 
L 356.244379 -443.348163 
L 356.244379 -460.674875 
L 356.244379 -460.674875 
L 352.625705 -472.56049 
L 349.123762 -479.354868 
L 345.505088 -494.222867 
L 342.003145 -530.171056 
L 338.38447 -496.558391 
L 334.765796 -510.567885 
L 331.263853 -488.934186 
L 327.645179 -471.480976 
L 324.143236 -457.868905 
L 320.524562 -460.958903 
L 317.13935 -454.551999 
L 313.520676 -455.187409 
L 309.902002 -467.687166 
L 306.400059 -472.672426 
L 302.781384 -487.81894 
L 299.279441 -524.260575 
L 295.660767 -491.304578 
L 292.042093 -505.769773 
L 288.54015 -483.518618 
L 284.921476 -465.805699 
L 281.419533 -452.530729 
L 277.800858 -455.43841 
L 274.532378 -449.471744 
L 270.913704 -449.875695 
L 267.29503 -461.971875 
L 263.793087 -467.479252 
L 260.174413 -482.248703 
L 256.67247 -519.59427 
L 253.053795 -485.723646 
L 249.435121 -499.980052 
L 245.933178 -478.134729 
L 242.314504 -460.879356 
L 238.812561 -446.801173 
L 235.193887 -450.162296 
L 231.925407 -443.679074 
L 228.306732 -444.3245 
L 224.688058 -456.061563 
L 221.186115 -462.429191 
L 217.567441 -477.325136 
L 214.065498 -513.86352 
L 210.446824 -480.327914 
L 206.828149 -494.150863 
L 203.326206 -472.47348 
L 199.707532 -455.054924 
L 196.205589 -441.32806 
L 192.586915 -445.452858 
L 189.318435 -438.049757 
L 185.69976 -438.741347 
L 182.081086 -451.167322 
L 178.579143 -456.562393 
L 174.960469 -471.765882 
L 171.458526 -508.018424 
L 167.839852 -474.927542 
L 164.221177 -488.320801 
L 160.719234 -466.695623 
L 157.10056 -449.33952 
L 153.598617 -436.182051 
L 149.979943 -439.168022 
L 146.594731 -433.365227 
L 142.976057 -433.500865 
L 139.357383 -446.102802 
L 135.85544 -451.704883 
L 132.236766 -466.079571 
L 128.734823 -502.892479 
L 125.116148 -469.172373 
L 121.497474 -483.250075 
L 117.995531 -461.870409 
L 114.376857 -443.561219 
L 110.874914 -430.920051 
L 107.25624 -433.20209 
L 103.98776 -427.27644 
L 100.369085 -428.383444 
L 96.750411 -440.112405 
L 93.248468 -446.198644 
L 89.629794 -460.965558 
L 86.127851 -497.233206 
L 82.509177 -464.473715 
L 78.890502 -477.879104 
L 75.388559 -456.039975 
L 71.769885 -438.19273 
L 68.267942 -425.237045 
L 64.649268 -428.645465 
L 61.380788 -421.340372 
z
" style="stroke: #fa7c17; stroke-opacity: 0.25"/>
    </defs>
    <g clip-path="url(#p5c64643c3a)">
     <use xlink:href="#m113fb20c16" x="0" y="584.39952" style="fill: #fa7c17; fill-opacity: 0.25; stroke: #fa7c17; stroke-opacity: 0.25"/>
    </g>
   </g>
   <g id="PolyCollection_2">
    <defs>
     <path id="ma471b776a1" d="M 359.863053 -460.595273 
L 359.863053 -443.423357 
L 363.131534 -449.798683 
L 366.750208 -446.055781 
L 370.252151 -459.605213 
L 373.870825 -476.475463 
L 377.372768 -499.044207 
L 380.991442 -484.739172 
L 384.610117 -518.828185 
L 388.112059 -481.837086 
L 391.730734 -466.734537 
L 395.232677 -461.140627 
L 398.851351 -448.893156 
L 402.470025 -448.712517 
L 405.738505 -454.504908 
L 409.35718 -451.44822 
L 412.859123 -465.066765 
L 416.477797 -482.21142 
L 419.97974 -504.103069 
L 423.598414 -490.143517 
L 427.217088 -524.276799 
L 430.719031 -487.325694 
L 434.337706 -472.237256 
L 437.839649 -466.040365 
L 441.458323 -453.933423 
L 445.076997 -453.378613 
L 448.345477 -459.845789 
L 451.964152 -457.275447 
L 455.466094 -470.731021 
L 459.084769 -488.083812 
L 462.586712 -509.117458 
L 466.205386 -496.112361 
L 469.82406 -529.520959 
L 473.326003 -492.266534 
L 476.944677 -477.524399 
L 480.44662 -471.643149 
L 484.065295 -459.834372 
L 484.065295 -477.551586 
L 484.065295 -477.551586 
L 480.44662 -489.370273 
L 476.944677 -495.472722 
L 473.326003 -510.092885 
L 469.82406 -547.622826 
L 466.205386 -514.026971 
L 462.586712 -527.259739 
L 459.084769 -506.262639 
L 455.466094 -488.542031 
L 451.964152 -475.209852 
L 448.345477 -477.842645 
L 445.076997 -471.244494 
L 441.458323 -471.902857 
L 437.839649 -484.155488 
L 434.337706 -490.020227 
L 430.719031 -505.398934 
L 427.217088 -541.788867 
L 423.598414 -507.596212 
L 419.97974 -521.554326 
L 416.477797 -500.454265 
L 412.859123 -483.263587 
L 409.35718 -469.010399 
L 405.738505 -472.2004 
L 402.470025 -466.180043 
L 398.851351 -466.58097 
L 395.232677 -478.760416 
L 391.730734 -483.788753 
L 388.112059 -499.406978 
L 384.610117 -536.384428 
L 380.991442 -502.389698 
L 377.372768 -516.176923 
L 373.870825 -494.352727 
L 370.252151 -477.519122 
L 366.750208 -463.296779 
L 363.131534 -467.213232 
L 359.863053 -460.595273 
z
" style="stroke: #fa7c17; stroke-opacity: 0.25"/>
    </defs>
    <g clip-path="url(#p5c64643c3a)">
     <use xlink:href="#ma471b776a1" x="0" y="584.39952" style="fill: #fa7c17; fill-opacity: 0.25; stroke: #fa7c17; stroke-opacity: 0.25"/>
    </g>
   </g>
   <g id="line2d_31">
    <path d="M 61.380788 180.161986 
L 64.649268 173.387319 
L 68.267942 176.382212 
L 71.769885 163.544879 
L 75.388559 145.238781 
L 78.890502 123.798847 
L 82.509177 137.649747 
L 86.127851 104.804473 
L 89.629794 140.96468 
L 93.248468 156.026955 
L 96.750411 161.604119 
L 100.369085 173.520745 
L 103.98776 174.608079 
L 107.25624 168.724246 
L 110.874914 170.499344 
L 114.376857 158.052425 
L 117.995531 140.312888 
L 121.497474 118.311731 
L 125.116148 132.463212 
L 128.734823 98.79327 
L 132.236766 135.928162 
L 135.85544 149.691868 
L 139.357383 155.941434 
L 142.976057 168.202104 
L 146.594731 168.235164 
L 149.979943 162.422781 
L 153.598617 165.490395 
L 157.10056 152.29431 
L 160.719234 134.947916 
L 164.221177 113.034596 
L 167.839852 126.900224 
L 171.458526 93.480423 
L 174.960469 129.961933 
L 178.579143 144.918422 
L 182.081086 150.752031 
L 185.69976 162.727338 
L 189.318435 163.259076 
L 192.586915 156.068465 
L 196.205589 159.988817 
L 199.707532 146.738569 
L 203.326206 129.20785 
L 206.828149 107.116582 
L 210.446824 121.178391 
L 214.065498 87.579062 
L 217.567441 124.62066 
L 221.186115 139.209035 
L 224.688058 145.40722 
L 228.306732 156.83981 
L 231.925407 157.923509 
L 235.193887 151.135578 
L 238.812561 154.991645 
L 242.314504 140.927545 
L 245.933178 123.439455 
L 249.435121 101.443707 
L 253.053795 115.844394 
L 256.67247 82.176932 
L 260.174413 119.518707 
L 263.793087 134.482866 
L 267.29503 139.833703 
L 270.913704 151.673531 
L 274.532378 152.077512 
L 277.800858 145.91502 
L 281.419533 148.813992 
L 284.921476 135.522028 
L 288.54015 118.229179 
L 292.042093 96.338564 
L 295.660767 110.255688 
L 299.279441 76.910582 
L 302.781384 113.959567 
L 306.400059 128.512126 
L 309.902002 134.392588 
L 313.520676 147.054956 
L 317.13935 146.824017 
L 320.524562 140.47292 
L 324.143236 144.025243 
L 327.645179 130.409026 
L 331.263853 112.814956 
L 334.765796 90.907031 
L 338.38447 104.907764 
L 342.003145 71.373717 
L 345.505088 107.622102 
L 349.123762 122.521498 
L 352.625705 129.105841 
L 356.244379 141.051357 
" clip-path="url(#p5c64643c3a)" style="fill: none; stroke: #fa7c17; stroke-opacity: 0; stroke-width: 1.5; stroke-linecap: round"/>
   </g>
   <g id="line2d_32">
    <path d="M 61.380788 163.059148 
L 64.649268 155.754055 
L 68.267942 159.162475 
L 71.769885 146.20679 
L 75.388559 128.359545 
L 78.890502 106.520416 
L 82.509177 119.925805 
L 86.127851 87.166314 
L 89.629794 123.433962 
L 93.248468 138.200876 
L 96.750411 144.287115 
L 100.369085 156.016076 
L 103.98776 157.12308 
L 107.25624 151.19743 
L 110.874914 153.479469 
L 114.376857 140.838301 
L 117.995531 122.529111 
L 121.497474 101.149445 
L 125.116148 115.227147 
L 128.734823 81.507041 
L 132.236766 118.319949 
L 135.85544 132.694637 
L 139.357383 138.296718 
L 142.976057 150.898655 
L 146.594731 151.034293 
L 149.979943 145.231498 
L 153.598617 148.217469 
L 157.10056 135.06 
L 160.719234 117.703897 
L 164.221177 96.078719 
L 167.839852 109.471978 
L 171.458526 76.381096 
L 174.960469 112.633638 
L 178.579143 127.837127 
L 182.081086 133.232198 
L 185.69976 145.658173 
L 189.318435 146.349763 
L 192.586915 138.946662 
L 196.205589 143.07146 
L 199.707532 129.344596 
L 203.326206 111.92604 
L 206.828149 90.248657 
L 210.446824 104.071606 
L 214.065498 70.536 
L 217.567441 107.074384 
L 221.186115 121.970329 
L 224.688058 128.337957 
L 228.306732 140.07502 
L 231.925407 140.720446 
L 235.193887 134.237224 
L 238.812561 137.598347 
L 242.314504 123.520164 
L 245.933178 106.264791 
L 249.435121 84.419468 
L 253.053795 98.675874 
L 256.67247 64.80525 
L 260.174413 102.150817 
L 263.793087 116.920268 
L 267.29503 122.427645 
L 270.913704 134.523825 
L 274.532378 134.927776 
L 277.800858 128.96111 
L 281.419533 131.868791 
L 284.921476 118.593821 
L 288.54015 100.880902 
L 292.042093 78.629747 
L 295.660767 93.094942 
L 299.279441 60.138945 
L 302.781384 96.58058 
L 306.400059 111.727094 
L 309.902002 116.712354 
L 313.520676 129.212111 
L 317.13935 129.847521 
L 320.524562 123.440617 
L 324.143236 126.530615 
L 327.645179 112.918544 
L 331.263853 95.465334 
L 334.765796 73.831635 
L 338.38447 87.841129 
L 342.003145 54.228464 
L 345.505088 90.176653 
L 349.123762 105.044652 
L 352.625705 111.83903 
L 356.244379 123.724645 
" clip-path="url(#p5c64643c3a)" style="fill: none; stroke: #fa7c17; stroke-opacity: 0; stroke-width: 1.5; stroke-linecap: round"/>
   </g>
   <g id="line2d_33">
    <path d="M 61.380788 170.99354 
L 64.649268 164.752597 
L 68.267942 167.991259 
L 71.769885 154.466232 
L 75.388559 136.862344 
L 78.890502 115.352063 
L 82.509177 128.970085 
L 86.127851 95.609597 
L 89.629794 132.38497 
L 93.248468 147.240049 
L 96.750411 152.990235 
L 100.369085 165.075169 
L 103.98776 165.674366 
L 107.25624 159.277819 
L 110.874914 162.329754 
L 114.376857 149.03039 
L 117.995531 131.370851 
L 121.497474 109.817934 
L 125.116148 123.561457 
L 128.734823 90.040171 
L 132.236766 126.889893 
L 135.85544 141.574119 
L 139.357383 147.537897 
L 142.976057 159.674546 
L 146.594731 160.089293 
L 149.979943 153.786704 
L 153.598617 156.974073 
L 157.10056 143.402371 
L 160.719234 125.900535 
L 164.221177 104.344626 
L 167.839852 118.077311 
L 171.458526 84.567032 
L 174.960469 121.41311 
L 178.579143 136.354367 
L 182.081086 142.147995 
L 185.69976 154.135594 
L 189.318435 154.632155 
L 192.586915 148.14676 
L 196.205589 151.421618 
L 199.707532 137.926488 
L 203.326206 120.425166 
L 206.828149 98.788307 
L 210.446824 112.749541 
L 214.065498 79.149384 
L 217.567441 115.947711 
L 221.186115 130.767362 
L 224.688058 136.696043 
L 228.306732 148.678883 
L 231.925407 149.152164 
L 235.193887 142.783811 
L 238.812561 146.04575 
L 242.314504 132.469555 
L 245.933178 114.909629 
L 249.435121 93.404646 
L 253.053795 107.051059 
L 256.67247 73.593849 
L 260.174413 110.51797 
L 263.793087 125.247441 
L 267.29503 131.040937 
L 270.913704 143.116705 
L 274.532378 143.73175 
L 277.800858 137.29383 
L 281.419533 140.460673 
L 284.921476 126.90724 
L 288.54015 109.430559 
L 292.042093 87.857165 
L 295.660767 101.550706 
L 299.279441 67.979701 
L 302.781384 104.979327 
L 306.400059 119.871766 
L 309.902002 125.769107 
L 313.520676 137.692341 
L 317.13935 138.212345 
L 320.524562 131.819703 
L 324.143236 135.029876 
L 327.645179 121.609821 
L 331.263853 103.839232 
L 334.765796 82.350373 
L 338.38447 96.166377 
L 342.003145 62.534145 
L 345.505088 99.302962 
L 349.123762 114.351084 
L 352.625705 120.242927 
L 356.244379 132.121918 
" clip-path="url(#p5c64643c3a)" style="fill: none; stroke: #000000; stroke-width: 1.5; stroke-linecap: round"/>
   </g>
   <g id="line2d_34">
    <defs>
     <path id="mfb79dd338b" d="M 0 1.5 
C 0.397805 1.5 0.77937 1.341951 1.06066 1.06066 
C 1.341951 0.77937 1.5 0.397805 1.5 0 
C 1.5 -0.397805 1.341951 -0.77937 1.06066 -1.06066 
C 0.77937 -1.341951 0.397805 -1.5 0 -1.5 
C -0.397805 -1.5 -0.77937 -1.341951 -1.06066 -1.06066 
C -1.341951 -0.77937 -1.5 -0.397805 -1.5 0 
C -1.5 0.397805 -1.341951 0.77937 -1.06066 1.06066 
C -0.77937 1.341951 -0.397805 1.5 0 1.5 
z
" style="stroke: #000000"/>
    </defs>
    <g clip-path="url(#p5c64643c3a)">
     <use xlink:href="#mfb79dd338b" x="61.380788" y="166.173786" style="stroke: #000000"/>
     <use xlink:href="#mfb79dd338b" x="64.649268" y="161.548105" style="stroke: #000000"/>
     <use xlink:href="#mfb79dd338b" x="68.267942" y="163.072027" style="stroke: #000000"/>
     <use xlink:href="#mfb79dd338b" x="71.769885" y="152.755371" style="stroke: #000000"/>
     <use xlink:href="#mfb79dd338b" x="75.388559" y="132.113538" style="stroke: #000000"/>
     <use xlink:href="#mfb79dd338b" x="78.890502" y="115.521981" style="stroke: #000000"/>
     <use xlink:href="#mfb79dd338b" x="82.509177" y="128.436646" style="stroke: #000000"/>
     <use xlink:href="#mfb79dd338b" x="86.127851" y="101.87724" style="stroke: #000000"/>
     <use xlink:href="#mfb79dd338b" x="89.629794" y="135.469662" style="stroke: #000000"/>
     <use xlink:href="#mfb79dd338b" x="93.248468" y="150.359731" style="stroke: #000000"/>
     <use xlink:href="#mfb79dd338b" x="96.750411" y="153.074301" style="stroke: #000000"/>
     <use xlink:href="#mfb79dd338b" x="100.369085" y="162.291259" style="stroke: #000000"/>
     <use xlink:href="#mfb79dd338b" x="103.98776" y="172.385663" style="stroke: #000000"/>
     <use xlink:href="#mfb79dd338b" x="107.25624" y="152.932375" style="stroke: #000000"/>
     <use xlink:href="#mfb79dd338b" x="110.874914" y="158.78855" style="stroke: #000000"/>
     <use xlink:href="#mfb79dd338b" x="114.376857" y="145.942057" style="stroke: #000000"/>
     <use xlink:href="#mfb79dd338b" x="117.995531" y="135.840301" style="stroke: #000000"/>
     <use xlink:href="#mfb79dd338b" x="121.497474" y="115.035584" style="stroke: #000000"/>
     <use xlink:href="#mfb79dd338b" x="125.116148" y="120.897218" style="stroke: #000000"/>
     <use xlink:href="#mfb79dd338b" x="128.734823" y="94.53059" style="stroke: #000000"/>
     <use xlink:href="#mfb79dd338b" x="132.236766" y="129.918006" style="stroke: #000000"/>
     <use xlink:href="#mfb79dd338b" x="135.85544" y="142.782527" style="stroke: #000000"/>
     <use xlink:href="#mfb79dd338b" x="139.357383" y="151.847961" style="stroke: #000000"/>
     <use xlink:href="#mfb79dd338b" x="142.976057" y="163.762077" style="stroke: #000000"/>
     <use xlink:href="#mfb79dd338b" x="146.594731" y="160.318522" style="stroke: #000000"/>
     <use xlink:href="#mfb79dd338b" x="149.979943" y="145.542685" style="stroke: #000000"/>
     <use xlink:href="#mfb79dd338b" x="153.598617" y="160.816411" style="stroke: #000000"/>
     <use xlink:href="#mfb79dd338b" x="157.10056" y="145.967573" style="stroke: #000000"/>
     <use xlink:href="#mfb79dd338b" x="160.719234" y="123.271333" style="stroke: #000000"/>
     <use xlink:href="#mfb79dd338b" x="164.221177" y="104.77335" style="stroke: #000000"/>
     <use xlink:href="#mfb79dd338b" x="167.839852" y="115.295174" style="stroke: #000000"/>
     <use xlink:href="#mfb79dd338b" x="171.458526" y="82.007466" style="stroke: #000000"/>
     <use xlink:href="#mfb79dd338b" x="174.960469" y="120.498763" style="stroke: #000000"/>
     <use xlink:href="#mfb79dd338b" x="178.579143" y="132.840527" style="stroke: #000000"/>
     <use xlink:href="#mfb79dd338b" x="182.081086" y="142.867283" style="stroke: #000000"/>
     <use xlink:href="#mfb79dd338b" x="185.69976" y="155.632503" style="stroke: #000000"/>
     <use xlink:href="#mfb79dd338b" x="189.318435" y="154.69637" style="stroke: #000000"/>
     <use xlink:href="#mfb79dd338b" x="192.586915" y="158.978901" style="stroke: #000000"/>
     <use xlink:href="#mfb79dd338b" x="196.205589" y="150.707695" style="stroke: #000000"/>
     <use xlink:href="#mfb79dd338b" x="199.707532" y="141.655655" style="stroke: #000000"/>
     <use xlink:href="#mfb79dd338b" x="203.326206" y="121.203247" style="stroke: #000000"/>
     <use xlink:href="#mfb79dd338b" x="206.828149" y="98.06855" style="stroke: #000000"/>
     <use xlink:href="#mfb79dd338b" x="210.446824" y="110.263901" style="stroke: #000000"/>
     <use xlink:href="#mfb79dd338b" x="214.065498" y="76.201615" style="stroke: #000000"/>
     <use xlink:href="#mfb79dd338b" x="217.567441" y="122.106945" style="stroke: #000000"/>
     <use xlink:href="#mfb79dd338b" x="221.186115" y="126.260891" style="stroke: #000000"/>
     <use xlink:href="#mfb79dd338b" x="224.688058" y="141.323137" style="stroke: #000000"/>
     <use xlink:href="#mfb79dd338b" x="228.306732" y="150.737695" style="stroke: #000000"/>
     <use xlink:href="#mfb79dd338b" x="231.925407" y="143.513871" style="stroke: #000000"/>
     <use xlink:href="#mfb79dd338b" x="235.193887" y="144.604339" style="stroke: #000000"/>
     <use xlink:href="#mfb79dd338b" x="238.812561" y="140.983563" style="stroke: #000000"/>
     <use xlink:href="#mfb79dd338b" x="242.314504" y="128.533885" style="stroke: #000000"/>
     <use xlink:href="#mfb79dd338b" x="245.933178" y="121.486242" style="stroke: #000000"/>
     <use xlink:href="#mfb79dd338b" x="249.435121" y="93.003335" style="stroke: #000000"/>
     <use xlink:href="#mfb79dd338b" x="253.053795" y="107.595366" style="stroke: #000000"/>
     <use xlink:href="#mfb79dd338b" x="256.67247" y="68.729268" style="stroke: #000000"/>
     <use xlink:href="#mfb79dd338b" x="260.174413" y="107.246805" style="stroke: #000000"/>
     <use xlink:href="#mfb79dd338b" x="263.793087" y="124.582257" style="stroke: #000000"/>
     <use xlink:href="#mfb79dd338b" x="267.29503" y="130.91031" style="stroke: #000000"/>
     <use xlink:href="#mfb79dd338b" x="270.913704" y="143.714482" style="stroke: #000000"/>
     <use xlink:href="#mfb79dd338b" x="274.532378" y="148.224957" style="stroke: #000000"/>
     <use xlink:href="#mfb79dd338b" x="277.800858" y="140.170196" style="stroke: #000000"/>
     <use xlink:href="#mfb79dd338b" x="281.419533" y="141.744305" style="stroke: #000000"/>
     <use xlink:href="#mfb79dd338b" x="284.921476" y="125.641086" style="stroke: #000000"/>
     <use xlink:href="#mfb79dd338b" x="288.54015" y="106.001763" style="stroke: #000000"/>
     <use xlink:href="#mfb79dd338b" x="292.042093" y="81.985365" style="stroke: #000000"/>
     <use xlink:href="#mfb79dd338b" x="295.660767" y="99.225986" style="stroke: #000000"/>
     <use xlink:href="#mfb79dd338b" x="299.279441" y="66.858478" style="stroke: #000000"/>
     <use xlink:href="#mfb79dd338b" x="302.781384" y="103.131124" style="stroke: #000000"/>
     <use xlink:href="#mfb79dd338b" x="306.400059" y="124.297514" style="stroke: #000000"/>
     <use xlink:href="#mfb79dd338b" x="309.902002" y="117.07898" style="stroke: #000000"/>
     <use xlink:href="#mfb79dd338b" x="313.520676" y="134.215912" style="stroke: #000000"/>
     <use xlink:href="#mfb79dd338b" x="317.13935" y="138.513198" style="stroke: #000000"/>
     <use xlink:href="#mfb79dd338b" x="320.524562" y="133.528332" style="stroke: #000000"/>
     <use xlink:href="#mfb79dd338b" x="324.143236" y="143.670685" style="stroke: #000000"/>
     <use xlink:href="#mfb79dd338b" x="327.645179" y="125.177452" style="stroke: #000000"/>
     <use xlink:href="#mfb79dd338b" x="331.263853" y="102.736875" style="stroke: #000000"/>
     <use xlink:href="#mfb79dd338b" x="334.765796" y="82.898654" style="stroke: #000000"/>
     <use xlink:href="#mfb79dd338b" x="338.38447" y="106.268962" style="stroke: #000000"/>
     <use xlink:href="#mfb79dd338b" x="342.003145" y="62.656592" style="stroke: #000000"/>
     <use xlink:href="#mfb79dd338b" x="345.505088" y="93.117045" style="stroke: #000000"/>
     <use xlink:href="#mfb79dd338b" x="349.123762" y="114.30415" style="stroke: #000000"/>
     <use xlink:href="#mfb79dd338b" x="352.625705" y="119.414288" style="stroke: #000000"/>
     <use xlink:href="#mfb79dd338b" x="356.244379" y="129.559885" style="stroke: #000000"/>
    </g>
   </g>
   <g id="line2d_35">
    <path d="M 359.863053 140.976163 
L 363.131534 134.600837 
L 366.750208 138.343739 
L 370.252151 124.794307 
L 373.870825 107.924057 
L 377.372768 85.355313 
L 380.991442 99.660348 
L 384.610117 65.571335 
L 388.112059 102.562434 
L 391.730734 117.664983 
L 395.232677 123.258893 
L 398.851351 135.506364 
L 402.470025 135.687003 
L 405.738505 129.894612 
L 409.35718 132.9513 
L 412.859123 119.332755 
L 416.477797 102.1881 
L 419.97974 80.296451 
L 423.598414 94.256003 
L 427.217088 60.122721 
L 430.719031 97.073826 
L 434.337706 112.162264 
L 437.839649 118.359155 
L 441.458323 130.466097 
L 445.076997 131.020907 
L 448.345477 124.553731 
L 451.964152 127.124073 
L 455.466094 113.668499 
L 459.084769 96.315708 
L 462.586712 75.282062 
L 466.205386 88.287159 
L 469.82406 54.878561 
L 473.326003 92.132986 
L 476.944677 106.875121 
L 480.44662 112.756371 
L 484.065295 124.565148 
" clip-path="url(#p5c64643c3a)" style="fill: none; stroke: #fa7c17; stroke-opacity: 0; stroke-width: 1.5; stroke-linecap: round"/>
   </g>
   <g id="line2d_36">
    <path d="M 359.863053 123.804247 
L 363.131534 117.186288 
L 366.750208 121.102741 
L 370.252151 106.880398 
L 373.870825 90.046793 
L 377.372768 68.222597 
L 380.991442 82.009822 
L 384.610117 48.015092 
L 388.112059 84.992542 
L 391.730734 100.610767 
L 395.232677 105.639104 
L 398.851351 117.81855 
L 402.470025 118.219477 
L 405.738505 112.19912 
L 409.35718 115.389121 
L 412.859123 101.135933 
L 416.477797 83.945255 
L 419.97974 62.845194 
L 423.598414 76.803308 
L 427.217088 42.610653 
L 430.719031 79.000586 
L 434.337706 94.379293 
L 437.839649 100.244032 
L 441.458323 112.496663 
L 445.076997 113.155026 
L 448.345477 106.556875 
L 451.964152 109.189668 
L 455.466094 95.857489 
L 459.084769 78.136881 
L 462.586712 57.139781 
L 466.205386 70.372549 
L 469.82406 36.776694 
L 473.326003 74.306635 
L 476.944677 88.926798 
L 480.44662 95.029247 
L 484.065295 106.847934 
" clip-path="url(#p5c64643c3a)" style="fill: none; stroke: #fa7c17; stroke-opacity: 0; stroke-width: 1.5; stroke-linecap: round"/>
   </g>
   <g id="line2d_37">
    <path d="M 359.863053 132.653499 
L 363.131534 126.182866 
L 366.750208 129.59206 
L 370.252151 116.030809 
L 373.870825 98.473952 
L 377.372768 76.796249 
L 380.991442 90.601139 
L 384.610117 57.101176 
L 388.112059 93.958825 
L 391.730734 108.931059 
L 395.232677 114.742305 
L 398.851351 126.699238 
L 402.470025 127.225813 
L 405.738505 120.796197 
L 409.35718 123.976682 
L 412.859123 110.528019 
L 416.477797 93.080457 
L 419.97974 71.329007 
L 423.598414 85.157118 
L 427.217088 51.53435 
L 430.719031 88.59786 
L 434.337706 103.370267 
L 437.839649 109.273572 
L 441.458323 121.13656 
L 445.076997 121.68865 
L 448.345477 115.353258 
L 451.964152 118.452875 
L 455.466094 105.176634 
L 459.084769 87.413978 
L 462.586712 65.943867 
L 466.205386 79.75886 
L 469.82406 46.0546 
L 473.326003 83.023211 
L 476.944677 97.779032 
L 480.44662 103.831911 
L 484.065295 115.732541 
" clip-path="url(#p5c64643c3a)" style="fill: none; stroke: #000000; stroke-width: 1.5; stroke-linecap: round"/>
   </g>
   <g id="line2d_38">
    <g clip-path="url(#p5c64643c3a)">
     <use xlink:href="#mfb79dd338b" x="359.863053" y="141.560721" style="stroke: #000000"/>
     <use xlink:href="#mfb79dd338b" x="363.131534" y="125.368192" style="stroke: #000000"/>
     <use xlink:href="#mfb79dd338b" x="366.750208" y="134.397" style="stroke: #000000"/>
     <use xlink:href="#mfb79dd338b" x="370.252151" y="125.507766" style="stroke: #000000"/>
     <use xlink:href="#mfb79dd338b" x="373.870825" y="98.351716" style="stroke: #000000"/>
     <use xlink:href="#mfb79dd338b" x="377.372768" y="75.352408" style="stroke: #000000"/>
     <use xlink:href="#mfb79dd338b" x="380.991442" y="72.704544" style="stroke: #000000"/>
     <use xlink:href="#mfb79dd338b" x="384.610117" y="35.017237" style="stroke: #000000"/>
     <use xlink:href="#mfb79dd338b" x="388.112059" y="66.038986" style="stroke: #000000"/>
     <use xlink:href="#mfb79dd338b" x="391.730734" y="78.927926" style="stroke: #000000"/>
     <use xlink:href="#mfb79dd338b" x="395.232677" y="92.91231" style="stroke: #000000"/>
     <use xlink:href="#mfb79dd338b" x="398.851351" y="104.068955" style="stroke: #000000"/>
     <use xlink:href="#mfb79dd338b" x="402.470025" y="114.462227" style="stroke: #000000"/>
     <use xlink:href="#mfb79dd338b" x="405.738505" y="111.507923" style="stroke: #000000"/>
     <use xlink:href="#mfb79dd338b" x="409.35718" y="119.883907" style="stroke: #000000"/>
     <use xlink:href="#mfb79dd338b" x="412.859123" y="107.967058" style="stroke: #000000"/>
     <use xlink:href="#mfb79dd338b" x="416.477797" y="88.489066" style="stroke: #000000"/>
     <use xlink:href="#mfb79dd338b" x="419.97974" y="71.371416" style="stroke: #000000"/>
     <use xlink:href="#mfb79dd338b" x="423.598414" y="72.59202" style="stroke: #000000"/>
     <use xlink:href="#mfb79dd338b" x="427.217088" y="53.434803" style="stroke: #000000"/>
     <use xlink:href="#mfb79dd338b" x="430.719031" y="86.316085" style="stroke: #000000"/>
     <use xlink:href="#mfb79dd338b" x="434.337706" y="96.663944" style="stroke: #000000"/>
     <use xlink:href="#mfb79dd338b" x="437.839649" y="110.607702" style="stroke: #000000"/>
     <use xlink:href="#mfb79dd338b" x="441.458323" y="126.380769" style="stroke: #000000"/>
     <use xlink:href="#mfb79dd338b" x="445.076997" y="128.349161" style="stroke: #000000"/>
     <use xlink:href="#mfb79dd338b" x="448.345477" y="114.62668" style="stroke: #000000"/>
     <use xlink:href="#mfb79dd338b" x="451.964152" y="122.823549" style="stroke: #000000"/>
     <use xlink:href="#mfb79dd338b" x="455.466094" y="109.521771" style="stroke: #000000"/>
     <use xlink:href="#mfb79dd338b" x="459.084769" y="89.705322" style="stroke: #000000"/>
     <use xlink:href="#mfb79dd338b" x="462.586712" y="74.849676" style="stroke: #000000"/>
     <use xlink:href="#mfb79dd338b" x="466.205386" y="77.251566" style="stroke: #000000"/>
     <use xlink:href="#mfb79dd338b" x="469.82406" y="49.897943" style="stroke: #000000"/>
     <use xlink:href="#mfb79dd338b" x="473.326003" y="83.628644" style="stroke: #000000"/>
     <use xlink:href="#mfb79dd338b" x="476.944677" y="84.521897" style="stroke: #000000"/>
     <use xlink:href="#mfb79dd338b" x="480.44662" y="113.102052" style="stroke: #000000"/>
     <use xlink:href="#mfb79dd338b" x="484.065295" y="117.015327" style="stroke: #000000"/>
    </g>
   </g>
   <g id="line2d_39">
    <path d="M 356.361111 187.419223 
L 356.361111 27.76 
" clip-path="url(#p5c64643c3a)" style="fill: none; stroke: #ff0000; stroke-width: 3; stroke-linecap: round"/>
   </g>
   <g id="patch_3">
    <path d="M 40.246563 187.419223 
L 40.246563 27.76 
" style="fill: none"/>
   </g>
   <g id="patch_4">
    <path d="M 505.19952 187.419223 
L 505.19952 27.76 
" style="fill: none"/>
   </g>
   <g id="patch_5">
    <path d="M 40.246562 187.419223 
L 505.19952 187.419223 
" style="fill: none"/>
   </g>
   <g id="patch_6">
    <path d="M 40.246562 27.76 
L 505.19952 27.76 
" style="fill: none"/>
   </g>
   <g id="text_5">
    <!-- Pre-intervention Bayesian $R^2$: 0.946 (std = 0.009) -->
    <g style="fill: #262626" transform="translate(72.643041 21.76) scale(0.16 -0.16)">
     <defs>
      <path id="DejaVuSans-50" d="M 1259 4147 
L 1259 2394 
L 2053 2394 
Q 2494 2394 2734 2622 
Q 2975 2850 2975 3272 
Q 2975 3691 2734 3919 
Q 2494 4147 2053 4147 
L 1259 4147 
z
M 628 4666 
L 2053 4666 
Q 2838 4666 3239 4311 
Q 3641 3956 3641 3272 
Q 3641 2581 3239 2228 
Q 2838 1875 2053 1875 
L 1259 1875 
L 1259 0 
L 628 0 
L 628 4666 
z
" transform="scale(0.015625)"/>
      <path id="DejaVuSans-72" d="M 2631 2963 
Q 2534 3019 2420 3045 
Q 2306 3072 2169 3072 
Q 1681 3072 1420 2755 
Q 1159 2438 1159 1844 
L 1159 0 
L 581 0 
L 581 3500 
L 1159 3500 
L 1159 2956 
Q 1341 3275 1631 3429 
Q 1922 3584 2338 3584 
Q 2397 3584 2469 3576 
Q 2541 3569 2628 3553 
L 2631 2963 
z
" transform="scale(0.015625)"/>
      <path id="DejaVuSans-65" d="M 3597 1894 
L 3597 1613 
L 953 1613 
Q 991 1019 1311 708 
Q 1631 397 2203 397 
Q 2534 397 2845 478 
Q 3156 559 3463 722 
L 3463 178 
Q 3153 47 2828 -22 
Q 2503 -91 2169 -91 
Q 1331 -91 842 396 
Q 353 884 353 1716 
Q 353 2575 817 3079 
Q 1281 3584 2069 3584 
Q 2775 3584 3186 3129 
Q 3597 2675 3597 1894 
z
M 3022 2063 
Q 3016 2534 2758 2815 
Q 2500 3097 2075 3097 
Q 1594 3097 1305 2825 
Q 1016 2553 972 2059 
L 3022 2063 
z
" transform="scale(0.015625)"/>
      <path id="DejaVuSans-2d" d="M 313 2009 
L 1997 2009 
L 1997 1497 
L 313 1497 
L 313 2009 
z
" transform="scale(0.015625)"/>
      <path id="DejaVuSans-69" d="M 603 3500 
L 1178 3500 
L 1178 0 
L 603 0 
L 603 3500 
z
M 603 4863 
L 1178 4863 
L 1178 4134 
L 603 4134 
L 603 4863 
z
" transform="scale(0.015625)"/>
      <path id="DejaVuSans-6e" d="M 3513 2113 
L 3513 0 
L 2938 0 
L 2938 2094 
Q 2938 2591 2744 2837 
Q 2550 3084 2163 3084 
Q 1697 3084 1428 2787 
Q 1159 2491 1159 1978 
L 1159 0 
L 581 0 
L 581 3500 
L 1159 3500 
L 1159 2956 
Q 1366 3272 1645 3428 
Q 1925 3584 2291 3584 
Q 2894 3584 3203 3211 
Q 3513 2838 3513 2113 
z
" transform="scale(0.015625)"/>
      <path id="DejaVuSans-74" d="M 1172 4494 
L 1172 3500 
L 2356 3500 
L 2356 3053 
L 1172 3053 
L 1172 1153 
Q 1172 725 1289 603 
Q 1406 481 1766 481 
L 2356 481 
L 2356 0 
L 1766 0 
Q 1100 0 847 248 
Q 594 497 594 1153 
L 594 3053 
L 172 3053 
L 172 3500 
L 594 3500 
L 594 4494 
L 1172 4494 
z
" transform="scale(0.015625)"/>
      <path id="DejaVuSans-76" d="M 191 3500 
L 800 3500 
L 1894 563 
L 2988 3500 
L 3597 3500 
L 2284 0 
L 1503 0 
L 191 3500 
z
" transform="scale(0.015625)"/>
      <path id="DejaVuSans-6f" d="M 1959 3097 
Q 1497 3097 1228 2736 
Q 959 2375 959 1747 
Q 959 1119 1226 758 
Q 1494 397 1959 397 
Q 2419 397 2687 759 
Q 2956 1122 2956 1747 
Q 2956 2369 2687 2733 
Q 2419 3097 1959 3097 
z
M 1959 3584 
Q 2709 3584 3137 3096 
Q 3566 2609 3566 1747 
Q 3566 888 3137 398 
Q 2709 -91 1959 -91 
Q 1206 -91 779 398 
Q 353 888 353 1747 
Q 353 2609 779 3096 
Q 1206 3584 1959 3584 
z
" transform="scale(0.015625)"/>
      <path id="DejaVuSans-20" transform="scale(0.015625)"/>
      <path id="DejaVuSans-42" d="M 1259 2228 
L 1259 519 
L 2272 519 
Q 2781 519 3026 730 
Q 3272 941 3272 1375 
Q 3272 1813 3026 2020 
Q 2781 2228 2272 2228 
L 1259 2228 
z
M 1259 4147 
L 1259 2741 
L 2194 2741 
Q 2656 2741 2882 2914 
Q 3109 3088 3109 3444 
Q 3109 3797 2882 3972 
Q 2656 4147 2194 4147 
L 1259 4147 
z
M 628 4666 
L 2241 4666 
Q 2963 4666 3353 4366 
Q 3744 4066 3744 3513 
Q 3744 3084 3544 2831 
Q 3344 2578 2956 2516 
Q 3422 2416 3680 2098 
Q 3938 1781 3938 1306 
Q 3938 681 3513 340 
Q 3088 0 2303 0 
L 628 0 
L 628 4666 
z
" transform="scale(0.015625)"/>
      <path id="DejaVuSans-61" d="M 2194 1759 
Q 1497 1759 1228 1600 
Q 959 1441 959 1056 
Q 959 750 1161 570 
Q 1363 391 1709 391 
Q 2188 391 2477 730 
Q 2766 1069 2766 1631 
L 2766 1759 
L 2194 1759 
z
M 3341 1997 
L 3341 0 
L 2766 0 
L 2766 531 
Q 2569 213 2275 61 
Q 1981 -91 1556 -91 
Q 1019 -91 701 211 
Q 384 513 384 1019 
Q 384 1609 779 1909 
Q 1175 2209 1959 2209 
L 2766 2209 
L 2766 2266 
Q 2766 2663 2505 2880 
Q 2244 3097 1772 3097 
Q 1472 3097 1187 3025 
Q 903 2953 641 2809 
L 641 3341 
Q 956 3463 1253 3523 
Q 1550 3584 1831 3584 
Q 2591 3584 2966 3190 
Q 3341 2797 3341 1997 
z
" transform="scale(0.015625)"/>
      <path id="DejaVuSans-79" d="M 2059 -325 
Q 1816 -950 1584 -1140 
Q 1353 -1331 966 -1331 
L 506 -1331 
L 506 -850 
L 844 -850 
Q 1081 -850 1212 -737 
Q 1344 -625 1503 -206 
L 1606 56 
L 191 3500 
L 800 3500 
L 1894 763 
L 2988 3500 
L 3597 3500 
L 2059 -325 
z
" transform="scale(0.015625)"/>
      <path id="DejaVuSans-73" d="M 2834 3397 
L 2834 2853 
Q 2591 2978 2328 3040 
Q 2066 3103 1784 3103 
Q 1356 3103 1142 2972 
Q 928 2841 928 2578 
Q 928 2378 1081 2264 
Q 1234 2150 1697 2047 
L 1894 2003 
Q 2506 1872 2764 1633 
Q 3022 1394 3022 966 
Q 3022 478 2636 193 
Q 2250 -91 1575 -91 
Q 1294 -91 989 -36 
Q 684 19 347 128 
L 347 722 
Q 666 556 975 473 
Q 1284 391 1588 391 
Q 1994 391 2212 530 
Q 2431 669 2431 922 
Q 2431 1156 2273 1281 
Q 2116 1406 1581 1522 
L 1381 1569 
Q 847 1681 609 1914 
Q 372 2147 372 2553 
Q 372 3047 722 3315 
Q 1072 3584 1716 3584 
Q 2034 3584 2315 3537 
Q 2597 3491 2834 3397 
z
" transform="scale(0.015625)"/>
      <path id="DejaVuSans-Oblique-52" d="M 1613 4147 
L 1294 2491 
L 2106 2491 
Q 2584 2491 2879 2755 
Q 3175 3019 3175 3444 
Q 3175 3784 2976 3965 
Q 2778 4147 2406 4147 
L 1613 4147 
z
M 2772 2241 
Q 2972 2194 3105 2009 
Q 3238 1825 3413 1275 
L 3809 0 
L 3144 0 
L 2778 1197 
Q 2638 1659 2453 1815 
Q 2269 1972 1888 1972 
L 1191 1972 
L 806 0 
L 172 0 
L 1081 4666 
L 2503 4666 
Q 3150 4666 3495 4373 
Q 3841 4081 3841 3531 
Q 3841 3044 3547 2687 
Q 3253 2331 2772 2241 
z
" transform="scale(0.015625)"/>
      <path id="DejaVuSans-3a" d="M 750 794 
L 1409 794 
L 1409 0 
L 750 0 
L 750 794 
z
M 750 3309 
L 1409 3309 
L 1409 2516 
L 750 2516 
L 750 3309 
z
" transform="scale(0.015625)"/>
      <path id="DejaVuSans-2e" d="M 684 794 
L 1344 794 
L 1344 0 
L 684 0 
L 684 794 
z
" transform="scale(0.015625)"/>
      <path id="DejaVuSans-39" d="M 703 97 
L 703 672 
Q 941 559 1184 500 
Q 1428 441 1663 441 
Q 2288 441 2617 861 
Q 2947 1281 2994 2138 
Q 2813 1869 2534 1725 
Q 2256 1581 1919 1581 
Q 1219 1581 811 2004 
Q 403 2428 403 3163 
Q 403 3881 828 4315 
Q 1253 4750 1959 4750 
Q 2769 4750 3195 4129 
Q 3622 3509 3622 2328 
Q 3622 1225 3098 567 
Q 2575 -91 1691 -91 
Q 1453 -91 1209 -44 
Q 966 3 703 97 
z
M 1959 2075 
Q 2384 2075 2632 2365 
Q 2881 2656 2881 3163 
Q 2881 3666 2632 3958 
Q 2384 4250 1959 4250 
Q 1534 4250 1286 3958 
Q 1038 3666 1038 3163 
Q 1038 2656 1286 2365 
Q 1534 2075 1959 2075 
z
" transform="scale(0.015625)"/>
      <path id="DejaVuSans-28" d="M 1984 4856 
Q 1566 4138 1362 3434 
Q 1159 2731 1159 2009 
Q 1159 1288 1364 580 
Q 1569 -128 1984 -844 
L 1484 -844 
Q 1016 -109 783 600 
Q 550 1309 550 2009 
Q 550 2706 781 3412 
Q 1013 4119 1484 4856 
L 1984 4856 
z
" transform="scale(0.015625)"/>
      <path id="DejaVuSans-64" d="M 2906 2969 
L 2906 4863 
L 3481 4863 
L 3481 0 
L 2906 0 
L 2906 525 
Q 2725 213 2448 61 
Q 2172 -91 1784 -91 
Q 1150 -91 751 415 
Q 353 922 353 1747 
Q 353 2572 751 3078 
Q 1150 3584 1784 3584 
Q 2172 3584 2448 3432 
Q 2725 3281 2906 2969 
z
M 947 1747 
Q 947 1113 1208 752 
Q 1469 391 1925 391 
Q 2381 391 2643 752 
Q 2906 1113 2906 1747 
Q 2906 2381 2643 2742 
Q 2381 3103 1925 3103 
Q 1469 3103 1208 2742 
Q 947 2381 947 1747 
z
" transform="scale(0.015625)"/>
      <path id="DejaVuSans-3d" d="M 678 2906 
L 4684 2906 
L 4684 2381 
L 678 2381 
L 678 2906 
z
M 678 1631 
L 4684 1631 
L 4684 1100 
L 678 1100 
L 678 1631 
z
" transform="scale(0.015625)"/>
      <path id="DejaVuSans-29" d="M 513 4856 
L 1013 4856 
Q 1481 4119 1714 3412 
Q 1947 2706 1947 2009 
Q 1947 1309 1714 600 
Q 1481 -109 1013 -844 
L 513 -844 
Q 928 -128 1133 580 
Q 1338 1288 1338 2009 
Q 1338 2731 1133 3434 
Q 928 4138 513 4856 
z
" transform="scale(0.015625)"/>
     </defs>
     <use xlink:href="#DejaVuSans-50" transform="translate(0 0.765625)"/>
     <use xlink:href="#DejaVuSans-72" transform="translate(60.302734 0.765625)"/>
     <use xlink:href="#DejaVuSans-65" transform="translate(101.416016 0.765625)"/>
     <use xlink:href="#DejaVuSans-2d" transform="translate(162.939453 0.765625)"/>
     <use xlink:href="#DejaVuSans-69" transform="translate(199.023438 0.765625)"/>
     <use xlink:href="#DejaVuSans-6e" transform="translate(226.806641 0.765625)"/>
     <use xlink:href="#DejaVuSans-74" transform="translate(290.185547 0.765625)"/>
     <use xlink:href="#DejaVuSans-65" transform="translate(329.394531 0.765625)"/>
     <use xlink:href="#DejaVuSans-72" transform="translate(390.917969 0.765625)"/>
     <use xlink:href="#DejaVuSans-76" transform="translate(432.03125 0.765625)"/>
     <use xlink:href="#DejaVuSans-65" transform="translate(491.210938 0.765625)"/>
     <use xlink:href="#DejaVuSans-6e" transform="translate(552.734375 0.765625)"/>
     <use xlink:href="#DejaVuSans-74" transform="translate(616.113281 0.765625)"/>
     <use xlink:href="#DejaVuSans-69" transform="translate(655.322266 0.765625)"/>
     <use xlink:href="#DejaVuSans-6f" transform="translate(683.105469 0.765625)"/>
     <use xlink:href="#DejaVuSans-6e" transform="translate(744.287109 0.765625)"/>
     <use xlink:href="#DejaVuSans-20" transform="translate(807.666016 0.765625)"/>
     <use xlink:href="#DejaVuSans-42" transform="translate(839.453125 0.765625)"/>
     <use xlink:href="#DejaVuSans-61" transform="translate(908.056641 0.765625)"/>
     <use xlink:href="#DejaVuSans-79" transform="translate(969.335938 0.765625)"/>
     <use xlink:href="#DejaVuSans-65" transform="translate(1028.515625 0.765625)"/>
     <use xlink:href="#DejaVuSans-73" transform="translate(1090.039062 0.765625)"/>
     <use xlink:href="#DejaVuSans-69" transform="translate(1142.138672 0.765625)"/>
     <use xlink:href="#DejaVuSans-61" transform="translate(1169.921875 0.765625)"/>
     <use xlink:href="#DejaVuSans-6e" transform="translate(1231.201172 0.765625)"/>
     <use xlink:href="#DejaVuSans-20" transform="translate(1294.580078 0.765625)"/>
     <use xlink:href="#DejaVuSans-Oblique-52" transform="translate(1326.367188 0.765625)"/>
     <use xlink:href="#DejaVuSans-32" transform="translate(1402.86638 39.046875) scale(0.7)"/>
     <use xlink:href="#DejaVuSans-3a" transform="translate(1450.136888 0.765625)"/>
     <use xlink:href="#DejaVuSans-20" transform="translate(1483.828294 0.765625)"/>
     <use xlink:href="#DejaVuSans-30" transform="translate(1515.615404 0.765625)"/>
     <use xlink:href="#DejaVuSans-2e" transform="translate(1579.238451 0.765625)"/>
     <use xlink:href="#DejaVuSans-39" transform="translate(1611.02556 0.765625)"/>
     <use xlink:href="#DejaVuSans-34" transform="translate(1674.648607 0.765625)"/>
     <use xlink:href="#DejaVuSans-36" transform="translate(1738.271654 0.765625)"/>
     <use xlink:href="#DejaVuSans-20" transform="translate(1801.894701 0.765625)"/>
     <use xlink:href="#DejaVuSans-28" transform="translate(1833.68181 0.765625)"/>
     <use xlink:href="#DejaVuSans-73" transform="translate(1872.695482 0.765625)"/>
     <use xlink:href="#DejaVuSans-74" transform="translate(1924.795091 0.765625)"/>
     <use xlink:href="#DejaVuSans-64" transform="translate(1964.004076 0.765625)"/>
     <use xlink:href="#DejaVuSans-20" transform="translate(2027.480638 0.765625)"/>
     <use xlink:href="#DejaVuSans-3d" transform="translate(2059.267747 0.765625)"/>
     <use xlink:href="#DejaVuSans-20" transform="translate(2143.05681 0.765625)"/>
     <use xlink:href="#DejaVuSans-30" transform="translate(2174.843919 0.765625)"/>
     <use xlink:href="#DejaVuSans-2e" transform="translate(2238.466966 0.765625)"/>
     <use xlink:href="#DejaVuSans-30" transform="translate(2270.254076 0.765625)"/>
     <use xlink:href="#DejaVuSans-30" transform="translate(2333.877122 0.765625)"/>
     <use xlink:href="#DejaVuSans-39" transform="translate(2397.500169 0.765625)"/>
     <use xlink:href="#DejaVuSans-29" transform="translate(2461.123216 0.765625)"/>
    </g>
   </g>
  </g>
  <g id="axes_2">
   <g id="patch_7">
    <path d="M 40.246563 371.236426 
L 505.19952 371.236426 
L 505.19952 211.577203 
L 40.246563 211.577203 
z
" style="fill: #eeeeee"/>
   </g>
   <g id="matplotlib.axis_3">
    <g id="xtick_12">
     <g id="line2d_40">
      <path d="M 57.878845 371.236426 
L 57.878845 211.577203 
" clip-path="url(#p9b4658a20f)" style="fill: none; stroke: #ffffff; stroke-width: 0.8; stroke-linecap: round"/>
     </g>
     <g id="line2d_41"/>
    </g>
    <g id="xtick_13">
     <g id="line2d_42">
      <path d="M 100.485817 371.236426 
L 100.485817 211.577203 
" clip-path="url(#p9b4658a20f)" style="fill: none; stroke: #ffffff; stroke-width: 0.8; stroke-linecap: round"/>
     </g>
     <g id="line2d_43"/>
    </g>
    <g id="xtick_14">
     <g id="line2d_44">
      <path d="M 143.092789 371.236426 
L 143.092789 211.577203 
" clip-path="url(#p9b4658a20f)" style="fill: none; stroke: #ffffff; stroke-width: 0.8; stroke-linecap: round"/>
     </g>
     <g id="line2d_45"/>
    </g>
    <g id="xtick_15">
     <g id="line2d_46">
      <path d="M 185.816492 371.236426 
L 185.816492 211.577203 
" clip-path="url(#p9b4658a20f)" style="fill: none; stroke: #ffffff; stroke-width: 0.8; stroke-linecap: round"/>
     </g>
     <g id="line2d_47"/>
    </g>
    <g id="xtick_16">
     <g id="line2d_48">
      <path d="M 228.423464 371.236426 
L 228.423464 211.577203 
" clip-path="url(#p9b4658a20f)" style="fill: none; stroke: #ffffff; stroke-width: 0.8; stroke-linecap: round"/>
     </g>
     <g id="line2d_49"/>
    </g>
    <g id="xtick_17">
     <g id="line2d_50">
      <path d="M 271.030436 371.236426 
L 271.030436 211.577203 
" clip-path="url(#p9b4658a20f)" style="fill: none; stroke: #ffffff; stroke-width: 0.8; stroke-linecap: round"/>
     </g>
     <g id="line2d_51"/>
    </g>
    <g id="xtick_18">
     <g id="line2d_52">
      <path d="M 313.637407 371.236426 
L 313.637407 211.577203 
" clip-path="url(#p9b4658a20f)" style="fill: none; stroke: #ffffff; stroke-width: 0.8; stroke-linecap: round"/>
     </g>
     <g id="line2d_53"/>
    </g>
    <g id="xtick_19">
     <g id="line2d_54">
      <path d="M 356.361111 371.236426 
L 356.361111 211.577203 
" clip-path="url(#p9b4658a20f)" style="fill: none; stroke: #ffffff; stroke-width: 0.8; stroke-linecap: round"/>
     </g>
     <g id="line2d_55"/>
    </g>
    <g id="xtick_20">
     <g id="line2d_56">
      <path d="M 398.968082 371.236426 
L 398.968082 211.577203 
" clip-path="url(#p9b4658a20f)" style="fill: none; stroke: #ffffff; stroke-width: 0.8; stroke-linecap: round"/>
     </g>
     <g id="line2d_57"/>
    </g>
    <g id="xtick_21">
     <g id="line2d_58">
      <path d="M 441.575054 371.236426 
L 441.575054 211.577203 
" clip-path="url(#p9b4658a20f)" style="fill: none; stroke: #ffffff; stroke-width: 0.8; stroke-linecap: round"/>
     </g>
     <g id="line2d_59"/>
    </g>
    <g id="xtick_22">
     <g id="line2d_60">
      <path d="M 484.182026 371.236426 
L 484.182026 211.577203 
" clip-path="url(#p9b4658a20f)" style="fill: none; stroke: #ffffff; stroke-width: 0.8; stroke-linecap: round"/>
     </g>
     <g id="line2d_61"/>
    </g>
   </g>
   <g id="matplotlib.axis_4">
    <g id="ytick_5">
     <g id="line2d_62">
      <path d="M 40.246563 368.098737 
L 505.19952 368.098737 
" clip-path="url(#p9b4658a20f)" style="fill: none; stroke: #ffffff; stroke-width: 0.8; stroke-linecap: round"/>
     </g>
     <g id="line2d_63"/>
     <g id="text_6">
      <!-- 10 -->
      <g style="fill: #262626" transform="translate(7.2 373.417643) scale(0.14 -0.14)">
       <defs>
        <path id="DejaVuSans-2212" d="M 678 2272 
L 4684 2272 
L 4684 1741 
L 678 1741 
L 678 2272 
z
" transform="scale(0.015625)"/>
        <path id="DejaVuSans-31" d="M 794 531 
L 1825 531 
L 1825 4091 
L 703 3866 
L 703 4441 
L 1819 4666 
L 2450 4666 
L 2450 531 
L 3481 531 
L 3481 0 
L 794 0 
L 794 531 
z
" transform="scale(0.015625)"/>
       </defs>
       <use xlink:href="#DejaVuSans-2212"/>
       <use xlink:href="#DejaVuSans-31" x="83.789062"/>
       <use xlink:href="#DejaVuSans-30" x="147.412109"/>
      </g>
     </g>
    </g>
    <g id="ytick_6">
     <g id="line2d_64">
      <path d="M 40.246563 314.504813 
L 505.19952 314.504813 
" clip-path="url(#p9b4658a20f)" style="fill: none; stroke: #ffffff; stroke-width: 0.8; stroke-linecap: round"/>
     </g>
     <g id="line2d_65"/>
     <g id="text_7">
      <!-- 0 -->
      <g style="fill: #262626" transform="translate(27.839063 319.823719) scale(0.14 -0.14)">
       <use xlink:href="#DejaVuSans-30"/>
      </g>
     </g>
    </g>
    <g id="ytick_7">
     <g id="line2d_66">
      <path d="M 40.246563 260.910889 
L 505.19952 260.910889 
" clip-path="url(#p9b4658a20f)" style="fill: none; stroke: #ffffff; stroke-width: 0.8; stroke-linecap: round"/>
     </g>
     <g id="line2d_67"/>
     <g id="text_8">
      <!-- 10 -->
      <g style="fill: #262626" transform="translate(18.931563 266.229796) scale(0.14 -0.14)">
       <use xlink:href="#DejaVuSans-31"/>
       <use xlink:href="#DejaVuSans-30" x="63.623047"/>
      </g>
     </g>
    </g>
   </g>
   <g id="PolyCollection_3">
    <defs>
     <path id="m77ace850fb" d="M 61.380788 -304.441891 
L 61.380788 -262.202367 
L 64.649268 -255.584925 
L 68.267942 -260.239137 
L 71.769885 -253.72143 
L 75.388559 -260.623329 
L 78.890502 -247.663202 
L 82.509177 -248.875162 
L 86.127851 -233.562578 
L 89.629794 -240.169685 
L 93.248468 -239.865525 
L 96.750411 -248.192661 
L 100.369085 -254.396652 
L 103.98776 -232.20013 
L 107.25624 -265.609847 
L 110.874914 -256.782669 
L 114.376857 -257.289769 
L 117.995531 -237.019559 
L 121.497474 -235.599584 
L 125.116148 -255.891119 
L 128.734823 -237.729956 
L 132.236766 -241.250548 
L 135.85544 -244.980264 
L 139.357383 -236.42669 
L 142.976057 -238.125428 
L 146.594731 -246.965098 
L 149.979943 -269.126155 
L 153.598617 -238.778626 
L 157.10056 -242.955862 
L 160.719234 -256.144599 
L 164.221177 -248.421248 
L 167.839852 -255.512938 
L 171.458526 -255.99905 
L 174.960469 -250.469912 
L 178.579143 -257.53762 
L 182.081086 -246.098573 
L 185.69976 -245.260728 
L 189.318435 -249.280776 
L 192.586915 -220.420331 
L 196.205589 -251.035209 
L 199.707532 -239.48962 
L 203.326206 -246.982438 
L 206.828149 -250.581623 
L 210.446824 -254.601363 
L 214.065498 -255.902126 
L 217.567441 -232.768223 
L 221.186115 -259.298142 
L 224.688058 -237.824717 
L 228.306732 -243.560696 
L 231.925407 -262.995679 
L 235.193887 -244.290653 
L 238.812561 -261.534111 
L 242.314504 -257.512133 
L 245.933178 -232.301713 
L 249.435121 -248.694805 
L 253.053795 -247.865902 
L 256.67247 -260.203412 
L 260.174413 -257.308953 
L 263.793087 -250.971602 
L 267.29503 -248.944748 
L 270.913704 -247.196195 
L 274.532378 -237.054157 
L 277.800858 -242.211204 
L 281.419533 -245.504776 
L 284.921476 -252.489809 
L 288.54015 -257.247523 
L 292.042093 -261.60721 
L 295.660767 -254.752636 
L 299.279441 -253.299222 
L 302.781384 -253.716583 
L 306.400059 -238.849065 
L 309.902002 -268.989238 
L 313.520676 -257.536632 
L 317.13935 -248.492758 
L 320.524562 -244.980696 
L 324.143236 -227.563228 
L 327.645179 -239.618418 
L 331.263853 -251.935907 
L 334.765796 -247.501549 
L 338.38447 -224.382791 
L 342.003145 -249.079441 
L 345.505088 -262.632712 
L 349.123762 -247.026176 
L 352.625705 -251.185806 
L 356.244379 -255.483195 
L 356.244379 -298.275628 
L 356.244379 -298.275628 
L 352.625705 -293.830302 
L 349.123762 -290.189402 
L 345.505088 -305.718395 
L 342.003145 -291.423721 
L 338.38447 -266.532903 
L 334.765796 -289.673298 
L 331.263853 -294.784922 
L 327.645179 -282.815321 
L 324.143236 -270.770372 
L 320.524562 -287.046016 
L 317.13935 -290.420251 
L 313.520676 -301.603779 
L 309.902002 -312.654777 
L 306.400059 -280.303694 
L 302.781384 -296.638122 
L 299.279441 -294.720767 
L 295.660767 -297.135179 
L 292.042093 -305.343345 
L 288.54015 -300.093218 
L 284.921476 -294.298042 
L 281.419533 -287.35498 
L 277.800858 -284.082916 
L 274.532378 -279.409507 
L 270.913704 -289.551471 
L 267.29503 -291.933146 
L 263.793087 -294.346616 
L 260.174413 -300.203087 
L 256.67247 -303.10691 
L 253.053795 -290.267643 
L 249.435121 -290.74021 
L 245.933178 -274.71863 
L 242.314504 -300.503798 
L 238.812561 -304.490996 
L 235.193887 -286.025154 
L 231.925407 -305.482733 
L 228.306732 -284.96533 
L 224.688058 -279.98132 
L 221.186115 -301.873227 
L 217.567441 -276.102922 
L 214.065498 -297.994018 
L 210.446824 -296.850635 
L 206.828149 -292.240973 
L 203.326206 -289.663976 
L 199.707532 -282.448173 
L 196.205589 -292.816643 
L 192.586915 -262.706695 
L 189.318435 -291.042345 
L 185.69976 -287.417088 
L 182.081086 -289.367967 
L 178.579143 -299.723938 
L 174.960469 -293.266255 
L 171.458526 -298.229901 
L 167.839852 -298.556136 
L 164.221177 -290.297818 
L 160.719234 -298.732806 
L 157.10056 -285.520089 
L 153.598617 -281.438223 
L 149.979943 -311.584116 
L 146.594731 -289.446737 
L 142.976057 -280.860409 
L 139.357383 -280.004512 
L 135.85544 -286.958969 
L 132.236766 -284.738216 
L 128.734823 -280.422407 
L 125.116148 -298.459678 
L 121.497474 -277.985931 
L 117.995531 -280.940825 
L 114.376857 -299.80414 
L 110.874914 -298.817297 
L 107.25624 -308.896487 
L 103.98776 -275.383493 
L 100.369085 -297.628594 
L 96.750411 -290.961119 
L 93.248468 -283.891265 
L 89.629794 -283.465961 
L 86.127851 -277.124205 
L 82.509177 -292.64865 
L 78.890502 -290.336397 
L 75.388559 -302.310616 
L 71.769885 -296.541963 
L 68.267942 -302.767374 
L 64.649268 -299.13446 
L 61.380788 -304.441891 
z
" style="stroke: #fa7c17; stroke-opacity: 0.25"/>
    </defs>
    <g clip-path="url(#p9b4658a20f)">
     <use xlink:href="#m77ace850fb" x="0" y="584.39952" style="fill: #fa7c17; fill-opacity: 0.25; stroke: #fa7c17; stroke-opacity: 0.25"/>
    </g>
   </g>
   <g id="PolyCollection_4">
    <defs>
     <path id="m765a1e6cf5" d="M 359.863053 -268.451003 
L 359.863053 -226.040873 
L 363.131534 -249.68755 
L 366.750208 -237.061373 
L 370.252151 -223.889993 
L 373.870825 -249.383726 
L 377.372768 -252.285944 
L 380.991442 -292.876302 
L 384.610117 -301.995998 
L 388.112059 -316.705019 
L 391.730734 -323.445638 
L 395.232677 -301.326549 
L 398.851351 -303.852601 
L 402.470025 -279.174128 
L 405.738505 -271.601782 
L 409.35718 -258.793765 
L 412.859123 -253.023619 
L 416.477797 -258.672685 
L 419.97974 -248.837174 
L 423.598414 -280.295484 
L 427.217088 -243.161894 
L 430.719031 -251.827341 
L 434.337706 -264.252218 
L 437.839649 -244.299159 
L 441.458323 -235.604605 
L 445.076997 -232.36918 
L 448.345477 -249.964407 
L 451.964152 -236.222595 
L 455.466094 -236.147514 
L 459.084769 -241.323692 
L 462.586712 -226.155911 
L 466.205386 -252.905338 
L 469.82406 -237.488663 
L 473.326003 -246.871788 
L 476.944677 -280.773657 
L 480.44662 -225.259617 
L 484.065295 -244.783912 
L 484.065295 -288.540786 
L 484.065295 -288.540786 
L 480.44662 -269.040965 
L 476.944677 -325.101308 
L 473.326003 -290.8982 
L 469.82406 -282.195529 
L 466.205386 -297.149727 
L 462.586712 -270.962588 
L 459.084769 -286.220627 
L 455.466094 -280.136039 
L 451.964152 -280.515873 
L 448.345477 -294.411921 
L 445.076997 -276.49322 
L 441.458323 -279.984394 
L 437.839649 -289.038763 
L 434.337706 -308.171493 
L 430.719031 -296.463506 
L 427.217088 -286.412109 
L 423.598414 -323.399063 
L 419.97974 -291.937202 
L 416.477797 -303.727729 
L 412.859123 -297.964997 
L 409.35718 -302.167741 
L 405.738505 -315.305006 
L 402.470025 -322.314337 
L 398.851351 -347.536862 
L 395.232677 -344.842807 
L 391.730734 -365.565079 
L 388.112059 -360.098043 
L 384.610117 -345.355316 
L 380.991442 -336.468474 
L 377.372768 -294.599259 
L 373.870825 -293.53588 
L 370.252151 -268.132649 
L 366.750208 -279.642115 
L 363.131534 -292.696919 
L 359.863053 -268.451003 
z
" style="stroke: #fa7c17; stroke-opacity: 0.25"/>
    </defs>
    <g clip-path="url(#p9b4658a20f)">
     <use xlink:href="#m765a1e6cf5" x="0" y="584.39952" style="fill: #fa7c17; fill-opacity: 0.25; stroke: #fa7c17; stroke-opacity: 0.25"/>
    </g>
   </g>
   <g id="line2d_68">
    <path d="M 61.380788 322.197153 
L 64.649268 328.814595 
L 68.267942 324.160383 
L 71.769885 330.67809 
L 75.388559 323.776191 
L 78.890502 336.736318 
L 82.509177 335.524358 
L 86.127851 350.836942 
L 89.629794 344.229835 
L 93.248468 344.533995 
L 96.750411 336.206859 
L 100.369085 330.002868 
L 103.98776 352.19939 
L 107.25624 318.789673 
L 110.874914 327.616851 
L 114.376857 327.109751 
L 117.995531 347.379961 
L 121.497474 348.799936 
L 125.116148 328.508401 
L 128.734823 346.669564 
L 132.236766 343.148972 
L 135.85544 339.419256 
L 139.357383 347.97283 
L 142.976057 346.274092 
L 146.594731 337.434422 
L 149.979943 315.273365 
L 153.598617 345.620894 
L 157.10056 341.443658 
L 160.719234 328.254921 
L 164.221177 335.978272 
L 167.839852 328.886582 
L 171.458526 328.40047 
L 174.960469 333.929608 
L 178.579143 326.8619 
L 182.081086 338.300947 
L 185.69976 339.138792 
L 189.318435 335.118744 
L 192.586915 363.979189 
L 196.205589 333.364311 
L 199.707532 344.9099 
L 203.326206 337.417082 
L 206.828149 333.817897 
L 210.446824 329.798157 
L 214.065498 328.497394 
L 217.567441 351.631297 
L 221.186115 325.101378 
L 224.688058 346.574803 
L 228.306732 340.838824 
L 231.925407 321.403841 
L 235.193887 340.108867 
L 238.812561 322.865409 
L 242.314504 326.887387 
L 245.933178 352.097807 
L 249.435121 335.704715 
L 253.053795 336.533618 
L 256.67247 324.196108 
L 260.174413 327.090567 
L 263.793087 333.427918 
L 267.29503 335.454772 
L 270.913704 337.203325 
L 274.532378 347.345363 
L 277.800858 342.188316 
L 281.419533 338.894744 
L 284.921476 331.909711 
L 288.54015 327.151997 
L 292.042093 322.79231 
L 295.660767 329.646884 
L 299.279441 331.100298 
L 302.781384 330.682937 
L 306.400059 345.550455 
L 309.902002 315.410282 
L 313.520676 326.862888 
L 317.13935 335.906762 
L 320.524562 339.418824 
L 324.143236 356.836292 
L 327.645179 344.781102 
L 331.263853 332.463613 
L 334.765796 336.897971 
L 338.38447 360.016729 
L 342.003145 335.320079 
L 345.505088 321.766808 
L 349.123762 337.373344 
L 352.625705 333.213714 
L 356.244379 328.916325 
" clip-path="url(#p9b4658a20f)" style="fill: none; stroke: #fa7c17; stroke-opacity: 0; stroke-width: 1.5; stroke-linecap: round"/>
   </g>
   <g id="line2d_69">
    <path d="M 61.380788 279.957629 
L 64.649268 285.26506 
L 68.267942 281.632146 
L 71.769885 287.857557 
L 75.388559 282.088904 
L 78.890502 294.063123 
L 82.509177 291.75087 
L 86.127851 307.275315 
L 89.629794 300.933559 
L 93.248468 300.508255 
L 96.750411 293.438401 
L 100.369085 286.770926 
L 103.98776 309.016027 
L 107.25624 275.503033 
L 110.874914 285.582223 
L 114.376857 284.59538 
L 117.995531 303.458695 
L 121.497474 306.413589 
L 125.116148 285.939842 
L 128.734823 303.977113 
L 132.236766 299.661304 
L 135.85544 297.440551 
L 139.357383 304.395008 
L 142.976057 303.539111 
L 146.594731 294.952783 
L 149.979943 272.815404 
L 153.598617 302.961297 
L 157.10056 298.879431 
L 160.719234 285.666714 
L 164.221177 294.101702 
L 167.839852 285.843384 
L 171.458526 286.169619 
L 174.960469 291.133265 
L 178.579143 284.675582 
L 182.081086 295.031553 
L 185.69976 296.982432 
L 189.318435 293.357175 
L 192.586915 321.692825 
L 196.205589 291.582877 
L 199.707532 301.951347 
L 203.326206 294.735544 
L 206.828149 292.158547 
L 210.446824 287.548885 
L 214.065498 286.405502 
L 217.567441 308.296598 
L 221.186115 282.526293 
L 224.688058 304.4182 
L 228.306732 299.43419 
L 231.925407 278.916787 
L 235.193887 298.374366 
L 238.812561 279.908524 
L 242.314504 283.895722 
L 245.933178 309.68089 
L 249.435121 293.65931 
L 253.053795 294.131877 
L 256.67247 281.29261 
L 260.174413 284.196433 
L 263.793087 290.052904 
L 267.29503 292.466374 
L 270.913704 294.848049 
L 274.532378 304.990013 
L 277.800858 300.316604 
L 281.419533 297.04454 
L 284.921476 290.101478 
L 288.54015 284.306302 
L 292.042093 279.056175 
L 295.660767 287.264341 
L 299.279441 289.678753 
L 302.781384 287.761398 
L 306.400059 304.095826 
L 309.902002 271.744743 
L 313.520676 282.795741 
L 317.13935 293.979269 
L 320.524562 297.353504 
L 324.143236 313.629148 
L 327.645179 301.584199 
L 331.263853 289.614598 
L 334.765796 294.726222 
L 338.38447 317.866617 
L 342.003145 292.975799 
L 345.505088 278.681125 
L 349.123762 294.210118 
L 352.625705 290.569218 
L 356.244379 286.123892 
" clip-path="url(#p9b4658a20f)" style="fill: none; stroke: #fa7c17; stroke-opacity: 0; stroke-width: 1.5; stroke-linecap: round"/>
   </g>
   <g id="line2d_70">
    <path d="M 61.380788 302.601286 
L 64.649268 306.590558 
L 68.267942 302.355601 
L 71.769885 310.279436 
L 75.388559 302.776506 
L 78.890502 314.924466 
L 82.509177 313.187359 
L 86.127851 329.984248 
L 89.629794 322.123194 
L 93.248468 322.209609 
L 96.750411 314.712435 
L 100.369085 307.629286 
L 103.98776 331.079955 
L 107.25624 298.833231 
L 110.874914 305.758968 
L 114.376857 306.877439 
L 117.995531 325.543183 
L 121.497474 327.391041 
L 125.116148 307.924842 
L 128.734823 325.594971 
L 132.236766 321.983458 
L 135.85544 317.489264 
L 139.357383 325.149541 
L 142.976057 324.599943 
L 146.594731 315.070947 
L 149.979943 294.144249 
L 153.598617 323.994379 
L 157.10056 320.840189 
L 160.719234 308.011373 
L 164.221177 315.563648 
L 167.839852 307.633664 
L 171.458526 308.183355 
L 174.960469 312.246615 
L 178.579143 305.82655 
L 182.081086 316.281267 
L 185.69976 318.201786 
L 189.318435 314.663409 
L 192.586915 341.257359 
L 196.205589 312.741611 
L 199.707532 323.714875 
L 203.326206 316.426471 
L 206.828149 312.727201 
L 210.446824 308.365932 
L 214.065498 307.224596 
L 217.567441 329.716506 
L 221.186115 303.375013 
L 224.688058 325.932522 
L 228.306732 319.589539 
L 231.925407 300.579708 
L 235.193887 319.001039 
L 238.812561 302.002538 
L 242.314504 304.78474 
L 245.933178 330.747323 
L 249.435121 313.513681 
L 253.053795 315.849108 
L 256.67247 302.490574 
L 260.174413 306.425893 
L 263.793087 312.861983 
L 267.29503 314.1822 
L 270.913704 315.981165 
L 274.532378 325.601856 
L 277.800858 321.608683 
L 281.419533 317.675049 
L 284.921476 311.377746 
L 288.54015 306.036586 
L 292.042093 300.003006 
L 295.660767 308.763365 
L 299.279441 311.735686 
L 302.781384 309.940235 
L 306.400059 325.435249 
L 309.902002 293.042478 
L 313.520676 305.918944 
L 317.13935 315.247841 
L 320.524562 318.724679 
L 324.143236 335.845344 
L 327.645179 323.315926 
L 331.263853 311.782282 
L 334.765796 315.858923 
L 338.38447 339.455548 
L 342.003145 314.807225 
L 345.505088 299.22722 
L 349.123762 314.388897 
L 352.625705 312.458291 
L 356.244379 308.177264 
" clip-path="url(#p9b4658a20f)" style="fill: none; stroke: #000000; stroke-width: 1.5; stroke-linecap: round"/>
   </g>
   <g id="line2d_71">
    <path d="M 359.863053 358.358647 
L 363.131534 334.71197 
L 366.750208 347.338147 
L 370.252151 360.509527 
L 373.870825 335.015794 
L 377.372768 332.113576 
L 380.991442 291.523218 
L 384.610117 282.403522 
L 388.112059 267.694501 
L 391.730734 260.953882 
L 395.232677 283.072971 
L 398.851351 280.546919 
L 402.470025 305.225392 
L 405.738505 312.797738 
L 409.35718 325.605755 
L 412.859123 331.375901 
L 416.477797 325.726835 
L 419.97974 335.562346 
L 423.598414 304.104036 
L 427.217088 341.237626 
L 430.719031 332.572179 
L 434.337706 320.147302 
L 437.839649 340.100361 
L 441.458323 348.794915 
L 445.076997 352.03034 
L 448.345477 334.435113 
L 451.964152 348.176925 
L 455.466094 348.252006 
L 459.084769 343.075828 
L 462.586712 358.243609 
L 466.205386 331.494182 
L 469.82406 346.910857 
L 473.326003 337.527732 
L 476.944677 303.625863 
L 480.44662 359.139903 
L 484.065295 339.615608 
" clip-path="url(#p9b4658a20f)" style="fill: none; stroke: #fa7c17; stroke-opacity: 0; stroke-width: 1.5; stroke-linecap: round"/>
   </g>
   <g id="line2d_72">
    <path d="M 359.863053 315.948517 
L 363.131534 291.702601 
L 366.750208 304.757405 
L 370.252151 316.266871 
L 373.870825 290.86364 
L 377.372768 289.800261 
L 380.991442 247.931046 
L 384.610117 239.044204 
L 388.112059 224.301477 
L 391.730734 218.834441 
L 395.232677 239.556713 
L 398.851351 236.862658 
L 402.470025 262.085183 
L 405.738505 269.094514 
L 409.35718 282.231779 
L 412.859123 286.434523 
L 416.477797 280.671791 
L 419.97974 292.462318 
L 423.598414 261.000457 
L 427.217088 297.987411 
L 430.719031 287.936014 
L 434.337706 276.228027 
L 437.839649 295.360757 
L 441.458323 304.415126 
L 445.076997 307.9063 
L 448.345477 289.987599 
L 451.964152 303.883647 
L 455.466094 304.263481 
L 459.084769 298.178893 
L 462.586712 313.436932 
L 466.205386 287.249793 
L 469.82406 302.203991 
L 473.326003 293.50132 
L 476.944677 259.298212 
L 480.44662 315.358555 
L 484.065295 295.858734 
" clip-path="url(#p9b4658a20f)" style="fill: none; stroke: #fa7c17; stroke-opacity: 0; stroke-width: 1.5; stroke-linecap: round"/>
   </g>
   <g id="line2d_73">
    <path d="M 359.863053 336.503316 
L 363.131534 312.492782 
L 366.750208 326.371757 
L 370.252151 337.910411 
L 373.870825 314.202922 
L 377.372768 310.938903 
L 380.991442 270.304917 
L 384.610117 259.963275 
L 388.112059 245.550133 
L 391.730734 240.404941 
L 395.232677 260.590449 
L 398.851351 258.613949 
L 402.470025 282.982103 
L 405.738505 291.565213 
L 409.35718 304.396732 
L 412.859123 308.17991 
L 416.477797 303.16528 
L 419.97974 314.609552 
L 423.598414 283.472316 
L 427.217088 319.198433 
L 430.719031 308.869429 
L 434.337706 297.941953 
L 437.839649 317.799764 
L 441.458323 327.456635 
L 445.076997 330.954528 
L 448.345477 312.710355 
L 451.964152 325.299233 
L 455.466094 325.236162 
L 459.084769 320.163832 
L 462.586712 336.499826 
L 466.205386 308.312456 
L 469.82406 323.996862 
L 473.326003 316.000075 
L 476.944677 281.763168 
L 480.44662 337.399631 
L 484.065295 317.672957 
" clip-path="url(#p9b4658a20f)" style="fill: none; stroke: #000000; stroke-width: 1.5; stroke-linecap: round"/>
   </g>
   <g id="line2d_74">
    <path d="M 40.246563 314.504813 
L 505.19952 314.504813 
" clip-path="url(#p9b4658a20f)" style="fill: none; stroke: #000000; stroke-width: 1.5; stroke-linecap: round"/>
   </g>
   <g id="line2d_75">
    <path d="M 356.361111 371.236426 
L 356.361111 211.577203 
" clip-path="url(#p9b4658a20f)" style="fill: none; stroke: #ff0000; stroke-width: 3; stroke-linecap: round"/>
   </g>
   <g id="patch_8">
    <path d="M 40.246563 371.236426 
L 40.246563 211.577203 
" style="fill: none"/>
   </g>
   <g id="patch_9">
    <path d="M 505.19952 371.236426 
L 505.19952 211.577203 
" style="fill: none"/>
   </g>
   <g id="patch_10">
    <path d="M 40.246562 371.236426 
L 505.19952 371.236426 
" style="fill: none"/>
   </g>
   <g id="patch_11">
    <path d="M 40.246562 211.577203 
L 505.19952 211.577203 
" style="fill: none"/>
   </g>
   <g id="text_9">
    <!-- Causal Impact -->
    <g style="fill: #262626" transform="translate(215.660541 205.577203) scale(0.16 -0.16)">
     <defs>
      <path id="DejaVuSans-43" d="M 4122 4306 
L 4122 3641 
Q 3803 3938 3442 4084 
Q 3081 4231 2675 4231 
Q 1875 4231 1450 3742 
Q 1025 3253 1025 2328 
Q 1025 1406 1450 917 
Q 1875 428 2675 428 
Q 3081 428 3442 575 
Q 3803 722 4122 1019 
L 4122 359 
Q 3791 134 3420 21 
Q 3050 -91 2638 -91 
Q 1578 -91 968 557 
Q 359 1206 359 2328 
Q 359 3453 968 4101 
Q 1578 4750 2638 4750 
Q 3056 4750 3426 4639 
Q 3797 4528 4122 4306 
z
" transform="scale(0.015625)"/>
      <path id="DejaVuSans-75" d="M 544 1381 
L 544 3500 
L 1119 3500 
L 1119 1403 
Q 1119 906 1312 657 
Q 1506 409 1894 409 
Q 2359 409 2629 706 
Q 2900 1003 2900 1516 
L 2900 3500 
L 3475 3500 
L 3475 0 
L 2900 0 
L 2900 538 
Q 2691 219 2414 64 
Q 2138 -91 1772 -91 
Q 1169 -91 856 284 
Q 544 659 544 1381 
z
M 1991 3584 
L 1991 3584 
z
" transform="scale(0.015625)"/>
      <path id="DejaVuSans-6c" d="M 603 4863 
L 1178 4863 
L 1178 0 
L 603 0 
L 603 4863 
z
" transform="scale(0.015625)"/>
      <path id="DejaVuSans-49" d="M 628 4666 
L 1259 4666 
L 1259 0 
L 628 0 
L 628 4666 
z
" transform="scale(0.015625)"/>
      <path id="DejaVuSans-6d" d="M 3328 2828 
Q 3544 3216 3844 3400 
Q 4144 3584 4550 3584 
Q 5097 3584 5394 3201 
Q 5691 2819 5691 2113 
L 5691 0 
L 5113 0 
L 5113 2094 
Q 5113 2597 4934 2840 
Q 4756 3084 4391 3084 
Q 3944 3084 3684 2787 
Q 3425 2491 3425 1978 
L 3425 0 
L 2847 0 
L 2847 2094 
Q 2847 2600 2669 2842 
Q 2491 3084 2119 3084 
Q 1678 3084 1418 2786 
Q 1159 2488 1159 1978 
L 1159 0 
L 581 0 
L 581 3500 
L 1159 3500 
L 1159 2956 
Q 1356 3278 1631 3431 
Q 1906 3584 2284 3584 
Q 2666 3584 2933 3390 
Q 3200 3197 3328 2828 
z
" transform="scale(0.015625)"/>
      <path id="DejaVuSans-70" d="M 1159 525 
L 1159 -1331 
L 581 -1331 
L 581 3500 
L 1159 3500 
L 1159 2969 
Q 1341 3281 1617 3432 
Q 1894 3584 2278 3584 
Q 2916 3584 3314 3078 
Q 3713 2572 3713 1747 
Q 3713 922 3314 415 
Q 2916 -91 2278 -91 
Q 1894 -91 1617 61 
Q 1341 213 1159 525 
z
M 3116 1747 
Q 3116 2381 2855 2742 
Q 2594 3103 2138 3103 
Q 1681 3103 1420 2742 
Q 1159 2381 1159 1747 
Q 1159 1113 1420 752 
Q 1681 391 2138 391 
Q 2594 391 2855 752 
Q 3116 1113 3116 1747 
z
" transform="scale(0.015625)"/>
      <path id="DejaVuSans-63" d="M 3122 3366 
L 3122 2828 
Q 2878 2963 2633 3030 
Q 2388 3097 2138 3097 
Q 1578 3097 1268 2742 
Q 959 2388 959 1747 
Q 959 1106 1268 751 
Q 1578 397 2138 397 
Q 2388 397 2633 464 
Q 2878 531 3122 666 
L 3122 134 
Q 2881 22 2623 -34 
Q 2366 -91 2075 -91 
Q 1284 -91 818 406 
Q 353 903 353 1747 
Q 353 2603 823 3093 
Q 1294 3584 2113 3584 
Q 2378 3584 2631 3529 
Q 2884 3475 3122 3366 
z
" transform="scale(0.015625)"/>
     </defs>
     <use xlink:href="#DejaVuSans-43"/>
     <use xlink:href="#DejaVuSans-61" x="69.824219"/>
     <use xlink:href="#DejaVuSans-75" x="131.103516"/>
     <use xlink:href="#DejaVuSans-73" x="194.482422"/>
     <use xlink:href="#DejaVuSans-61" x="246.582031"/>
     <use xlink:href="#DejaVuSans-6c" x="307.861328"/>
     <use xlink:href="#DejaVuSans-20" x="335.644531"/>
     <use xlink:href="#DejaVuSans-49" x="367.431641"/>
     <use xlink:href="#DejaVuSans-6d" x="396.923828"/>
     <use xlink:href="#DejaVuSans-70" x="494.335938"/>
     <use xlink:href="#DejaVuSans-61" x="557.8125"/>
     <use xlink:href="#DejaVuSans-63" x="619.091797"/>
     <use xlink:href="#DejaVuSans-74" x="674.072266"/>
    </g>
   </g>
  </g>
  <g id="axes_3">
   <g id="patch_12">
    <path d="M 40.246563 560.150145 
L 505.19952 560.150145 
L 505.19952 400.490922 
L 40.246563 400.490922 
z
" style="fill: #eeeeee"/>
   </g>
   <g id="matplotlib.axis_5">
    <g id="xtick_23">
     <g id="line2d_76">
      <path d="M 57.878845 560.150145 
L 57.878845 400.490922 
" clip-path="url(#pa7d08e3164)" style="fill: none; stroke: #ffffff; stroke-width: 0.8; stroke-linecap: round"/>
     </g>
     <g id="line2d_77"/>
     <g id="text_10">
      <!-- 2010 -->
      <g style="fill: #262626" transform="translate(40.063845 574.287958) scale(0.14 -0.14)">
       <use xlink:href="#DejaVuSans-32"/>
       <use xlink:href="#DejaVuSans-30" x="63.623047"/>
       <use xlink:href="#DejaVuSans-31" x="127.246094"/>
       <use xlink:href="#DejaVuSans-30" x="190.869141"/>
      </g>
     </g>
    </g>
    <g id="xtick_24">
     <g id="line2d_78">
      <path d="M 100.485817 560.150145 
L 100.485817 400.490922 
" clip-path="url(#pa7d08e3164)" style="fill: none; stroke: #ffffff; stroke-width: 0.8; stroke-linecap: round"/>
     </g>
     <g id="line2d_79"/>
     <g id="text_11">
      <!-- 2011 -->
      <g style="fill: #262626" transform="translate(82.670817 574.287958) scale(0.14 -0.14)">
       <use xlink:href="#DejaVuSans-32"/>
       <use xlink:href="#DejaVuSans-30" x="63.623047"/>
       <use xlink:href="#DejaVuSans-31" x="127.246094"/>
       <use xlink:href="#DejaVuSans-31" x="190.869141"/>
      </g>
     </g>
    </g>
    <g id="xtick_25">
     <g id="line2d_80">
      <path d="M 143.092789 560.150145 
L 143.092789 400.490922 
" clip-path="url(#pa7d08e3164)" style="fill: none; stroke: #ffffff; stroke-width: 0.8; stroke-linecap: round"/>
     </g>
     <g id="line2d_81"/>
     <g id="text_12">
      <!-- 2012 -->
      <g style="fill: #262626" transform="translate(125.277789 574.287958) scale(0.14 -0.14)">
       <use xlink:href="#DejaVuSans-32"/>
       <use xlink:href="#DejaVuSans-30" x="63.623047"/>
       <use xlink:href="#DejaVuSans-31" x="127.246094"/>
       <use xlink:href="#DejaVuSans-32" x="190.869141"/>
      </g>
     </g>
    </g>
    <g id="xtick_26">
     <g id="line2d_82">
      <path d="M 185.816492 560.150145 
L 185.816492 400.490922 
" clip-path="url(#pa7d08e3164)" style="fill: none; stroke: #ffffff; stroke-width: 0.8; stroke-linecap: round"/>
     </g>
     <g id="line2d_83"/>
     <g id="text_13">
      <!-- 2013 -->
      <g style="fill: #262626" transform="translate(168.001492 574.287958) scale(0.14 -0.14)">
       <defs>
        <path id="DejaVuSans-33" d="M 2597 2516 
Q 3050 2419 3304 2112 
Q 3559 1806 3559 1356 
Q 3559 666 3084 287 
Q 2609 -91 1734 -91 
Q 1441 -91 1130 -33 
Q 819 25 488 141 
L 488 750 
Q 750 597 1062 519 
Q 1375 441 1716 441 
Q 2309 441 2620 675 
Q 2931 909 2931 1356 
Q 2931 1769 2642 2001 
Q 2353 2234 1838 2234 
L 1294 2234 
L 1294 2753 
L 1863 2753 
Q 2328 2753 2575 2939 
Q 2822 3125 2822 3475 
Q 2822 3834 2567 4026 
Q 2313 4219 1838 4219 
Q 1578 4219 1281 4162 
Q 984 4106 628 3988 
L 628 4550 
Q 988 4650 1302 4700 
Q 1616 4750 1894 4750 
Q 2613 4750 3031 4423 
Q 3450 4097 3450 3541 
Q 3450 3153 3228 2886 
Q 3006 2619 2597 2516 
z
" transform="scale(0.015625)"/>
       </defs>
       <use xlink:href="#DejaVuSans-32"/>
       <use xlink:href="#DejaVuSans-30" x="63.623047"/>
       <use xlink:href="#DejaVuSans-31" x="127.246094"/>
       <use xlink:href="#DejaVuSans-33" x="190.869141"/>
      </g>
     </g>
    </g>
    <g id="xtick_27">
     <g id="line2d_84">
      <path d="M 228.423464 560.150145 
L 228.423464 400.490922 
" clip-path="url(#pa7d08e3164)" style="fill: none; stroke: #ffffff; stroke-width: 0.8; stroke-linecap: round"/>
     </g>
     <g id="line2d_85"/>
     <g id="text_14">
      <!-- 2014 -->
      <g style="fill: #262626" transform="translate(210.608464 574.287958) scale(0.14 -0.14)">
       <use xlink:href="#DejaVuSans-32"/>
       <use xlink:href="#DejaVuSans-30" x="63.623047"/>
       <use xlink:href="#DejaVuSans-31" x="127.246094"/>
       <use xlink:href="#DejaVuSans-34" x="190.869141"/>
      </g>
     </g>
    </g>
    <g id="xtick_28">
     <g id="line2d_86">
      <path d="M 271.030436 560.150145 
L 271.030436 400.490922 
" clip-path="url(#pa7d08e3164)" style="fill: none; stroke: #ffffff; stroke-width: 0.8; stroke-linecap: round"/>
     </g>
     <g id="line2d_87"/>
     <g id="text_15">
      <!-- 2015 -->
      <g style="fill: #262626" transform="translate(253.215436 574.287958) scale(0.14 -0.14)">
       <defs>
        <path id="DejaVuSans-35" d="M 691 4666 
L 3169 4666 
L 3169 4134 
L 1269 4134 
L 1269 2991 
Q 1406 3038 1543 3061 
Q 1681 3084 1819 3084 
Q 2600 3084 3056 2656 
Q 3513 2228 3513 1497 
Q 3513 744 3044 326 
Q 2575 -91 1722 -91 
Q 1428 -91 1123 -41 
Q 819 9 494 109 
L 494 744 
Q 775 591 1075 516 
Q 1375 441 1709 441 
Q 2250 441 2565 725 
Q 2881 1009 2881 1497 
Q 2881 1984 2565 2268 
Q 2250 2553 1709 2553 
Q 1456 2553 1204 2497 
Q 953 2441 691 2322 
L 691 4666 
z
" transform="scale(0.015625)"/>
       </defs>
       <use xlink:href="#DejaVuSans-32"/>
       <use xlink:href="#DejaVuSans-30" x="63.623047"/>
       <use xlink:href="#DejaVuSans-31" x="127.246094"/>
       <use xlink:href="#DejaVuSans-35" x="190.869141"/>
      </g>
     </g>
    </g>
    <g id="xtick_29">
     <g id="line2d_88">
      <path d="M 313.637407 560.150145 
L 313.637407 400.490922 
" clip-path="url(#pa7d08e3164)" style="fill: none; stroke: #ffffff; stroke-width: 0.8; stroke-linecap: round"/>
     </g>
     <g id="line2d_89"/>
     <g id="text_16">
      <!-- 2016 -->
      <g style="fill: #262626" transform="translate(295.822407 574.287958) scale(0.14 -0.14)">
       <use xlink:href="#DejaVuSans-32"/>
       <use xlink:href="#DejaVuSans-30" x="63.623047"/>
       <use xlink:href="#DejaVuSans-31" x="127.246094"/>
       <use xlink:href="#DejaVuSans-36" x="190.869141"/>
      </g>
     </g>
    </g>
    <g id="xtick_30">
     <g id="line2d_90">
      <path d="M 356.361111 560.150145 
L 356.361111 400.490922 
" clip-path="url(#pa7d08e3164)" style="fill: none; stroke: #ffffff; stroke-width: 0.8; stroke-linecap: round"/>
     </g>
     <g id="line2d_91"/>
     <g id="text_17">
      <!-- 2017 -->
      <g style="fill: #262626" transform="translate(338.546111 574.287958) scale(0.14 -0.14)">
       <defs>
        <path id="DejaVuSans-37" d="M 525 4666 
L 3525 4666 
L 3525 4397 
L 1831 0 
L 1172 0 
L 2766 4134 
L 525 4134 
L 525 4666 
z
" transform="scale(0.015625)"/>
       </defs>
       <use xlink:href="#DejaVuSans-32"/>
       <use xlink:href="#DejaVuSans-30" x="63.623047"/>
       <use xlink:href="#DejaVuSans-31" x="127.246094"/>
       <use xlink:href="#DejaVuSans-37" x="190.869141"/>
      </g>
     </g>
    </g>
    <g id="xtick_31">
     <g id="line2d_92">
      <path d="M 398.968082 560.150145 
L 398.968082 400.490922 
" clip-path="url(#pa7d08e3164)" style="fill: none; stroke: #ffffff; stroke-width: 0.8; stroke-linecap: round"/>
     </g>
     <g id="line2d_93"/>
     <g id="text_18">
      <!-- 2018 -->
      <g style="fill: #262626" transform="translate(381.153082 574.287958) scale(0.14 -0.14)">
       <use xlink:href="#DejaVuSans-32"/>
       <use xlink:href="#DejaVuSans-30" x="63.623047"/>
       <use xlink:href="#DejaVuSans-31" x="127.246094"/>
       <use xlink:href="#DejaVuSans-38" x="190.869141"/>
      </g>
     </g>
    </g>
    <g id="xtick_32">
     <g id="line2d_94">
      <path d="M 441.575054 560.150145 
L 441.575054 400.490922 
" clip-path="url(#pa7d08e3164)" style="fill: none; stroke: #ffffff; stroke-width: 0.8; stroke-linecap: round"/>
     </g>
     <g id="line2d_95"/>
     <g id="text_19">
      <!-- 2019 -->
      <g style="fill: #262626" transform="translate(423.760054 574.287958) scale(0.14 -0.14)">
       <use xlink:href="#DejaVuSans-32"/>
       <use xlink:href="#DejaVuSans-30" x="63.623047"/>
       <use xlink:href="#DejaVuSans-31" x="127.246094"/>
       <use xlink:href="#DejaVuSans-39" x="190.869141"/>
      </g>
     </g>
    </g>
    <g id="xtick_33">
     <g id="line2d_96">
      <path d="M 484.182026 560.150145 
L 484.182026 400.490922 
" clip-path="url(#pa7d08e3164)" style="fill: none; stroke: #ffffff; stroke-width: 0.8; stroke-linecap: round"/>
     </g>
     <g id="line2d_97"/>
     <g id="text_20">
      <!-- 2020 -->
      <g style="fill: #262626" transform="translate(466.367026 574.287958) scale(0.14 -0.14)">
       <use xlink:href="#DejaVuSans-32"/>
       <use xlink:href="#DejaVuSans-30" x="63.623047"/>
       <use xlink:href="#DejaVuSans-32" x="127.246094"/>
       <use xlink:href="#DejaVuSans-30" x="190.869141"/>
      </g>
     </g>
    </g>
   </g>
   <g id="matplotlib.axis_6">
    <g id="ytick_8">
     <g id="line2d_98">
      <path d="M 40.246563 530.823578 
L 505.19952 530.823578 
" clip-path="url(#pa7d08e3164)" style="fill: none; stroke: #ffffff; stroke-width: 0.8; stroke-linecap: round"/>
     </g>
     <g id="line2d_99"/>
     <g id="text_21">
      <!-- 0 -->
      <g style="fill: #262626" transform="translate(27.839063 536.142485) scale(0.14 -0.14)">
       <use xlink:href="#DejaVuSans-30"/>
      </g>
     </g>
    </g>
    <g id="ytick_9">
     <g id="line2d_100">
      <path d="M 40.246563 476.703448 
L 505.19952 476.703448 
" clip-path="url(#pa7d08e3164)" style="fill: none; stroke: #ffffff; stroke-width: 0.8; stroke-linecap: round"/>
     </g>
     <g id="line2d_101"/>
     <g id="text_22">
      <!-- 50 -->
      <g style="fill: #262626" transform="translate(18.931563 482.022355) scale(0.14 -0.14)">
       <use xlink:href="#DejaVuSans-35"/>
       <use xlink:href="#DejaVuSans-30" x="63.623047"/>
      </g>
     </g>
    </g>
    <g id="ytick_10">
     <g id="line2d_102">
      <path d="M 40.246563 422.583319 
L 505.19952 422.583319 
" clip-path="url(#pa7d08e3164)" style="fill: none; stroke: #ffffff; stroke-width: 0.8; stroke-linecap: round"/>
     </g>
     <g id="line2d_103"/>
     <g id="text_23">
      <!-- 100 -->
      <g style="fill: #262626" transform="translate(10.024062 427.902225) scale(0.14 -0.14)">
       <use xlink:href="#DejaVuSans-31"/>
       <use xlink:href="#DejaVuSans-30" x="63.623047"/>
       <use xlink:href="#DejaVuSans-30" x="127.246094"/>
      </g>
     </g>
    </g>
   </g>
   <g id="PolyCollection_5">
    <defs>
     <path id="m987a8e2a22" d="M 359.863053 -53.284366 
L 359.863053 -44.71906 
L 363.131534 -43.498477 
L 366.750208 -39.294778 
L 370.252151 -32.717661 
L 373.870825 -31.506612 
L 377.372768 -32.041269 
L 380.991442 -38.762069 
L 384.610117 -48.817387 
L 388.112059 -61.702711 
L 391.730734 -75.599884 
L 395.232677 -85.248644 
L 398.851351 -95.050956 
L 402.470025 -102.105435 
L 405.738505 -103.927117 
L 409.35718 -106.254161 
L 412.859123 -106.738503 
L 416.477797 -107.606949 
L 419.97974 -105.303369 
L 423.598414 -110.233332 
L 427.217088 -106.958729 
L 430.719031 -106.909129 
L 434.337706 -110.22858 
L 437.839649 -106.777872 
L 441.458323 -104.412003 
L 445.076997 -99.271761 
L 448.345477 -98.724145 
L 451.964152 -93.459466 
L 455.466094 -89.895278 
L 459.084769 -89.295486 
L 462.586712 -84.062735 
L 466.205386 -84.026147 
L 469.82406 -79.718768 
L 473.326003 -76.004353 
L 476.944677 -84.061057 
L 480.44662 -76.687716 
L 484.065295 -74.98892 
L 484.065295 -172.782788 
L 484.065295 -172.782788 
L 480.44662 -172.046808 
L 476.944677 -176.651361 
L 473.326003 -165.391981 
L 469.82406 -166.767184 
L 466.205386 -168.0292 
L 462.586712 -165.559916 
L 459.084769 -167.688859 
L 455.466094 -165.045718 
L 451.964152 -166.618187 
L 448.345477 -168.611648 
L 445.076997 -166.786447 
L 441.458323 -169.391334 
L 437.839649 -169.737547 
L 434.337706 -170.361486 
L 430.719031 -164.423944 
L 427.217088 -161.632951 
L 423.598414 -162.404976 
L 419.97974 -155.167716 
L 416.477797 -155.252713 
L 412.859123 -151.892207 
L 409.35718 -149.039175 
L 405.738505 -144.536724 
L 402.470025 -140.103426 
L 398.851351 -130.9846 
L 395.232677 -119.007657 
L 391.730734 -107.103359 
L 388.112059 -91.622539 
L 384.610117 -76.868842 
L 380.991442 -64.378932 
L 377.372768 -55.48004 
L 373.870825 -52.67807 
L 370.252151 -51.323822 
L 366.750208 -54.988064 
L 363.131534 -55.702276 
L 359.863053 -53.284366 
z
" style="stroke: #fa7c17; stroke-opacity: 0.25"/>
    </defs>
    <g clip-path="url(#pa7d08e3164)">
     <use xlink:href="#m987a8e2a22" x="0" y="584.39952" style="fill: #fa7c17; fill-opacity: 0.25; stroke: #fa7c17; stroke-opacity: 0.25"/>
    </g>
   </g>
   <g id="line2d_104">
    <path d="M 359.863053 539.68046 
L 363.131534 540.901043 
L 366.750208 545.104742 
L 370.252151 551.681859 
L 373.870825 552.892908 
L 377.372768 552.358251 
L 380.991442 545.637451 
L 384.610117 535.582133 
L 388.112059 522.696809 
L 391.730734 508.799636 
L 395.232677 499.150876 
L 398.851351 489.348564 
L 402.470025 482.294085 
L 405.738505 480.472403 
L 409.35718 478.145359 
L 412.859123 477.661017 
L 416.477797 476.792571 
L 419.97974 479.096151 
L 423.598414 474.166188 
L 427.217088 477.440791 
L 430.719031 477.490391 
L 434.337706 474.17094 
L 437.839649 477.621648 
L 441.458323 479.987517 
L 445.076997 485.127759 
L 448.345477 485.675375 
L 451.964152 490.940054 
L 455.466094 494.504242 
L 459.084769 495.104034 
L 462.586712 500.336785 
L 466.205386 500.373373 
L 469.82406 504.680752 
L 473.326003 508.395167 
L 476.944677 500.338463 
L 480.44662 507.711804 
L 484.065295 509.4106 
" clip-path="url(#pa7d08e3164)" style="fill: none; stroke: #fa7c17; stroke-opacity: 0; stroke-width: 1.5; stroke-linecap: round"/>
   </g>
   <g id="line2d_105">
    <path d="M 359.863053 531.115154 
L 363.131534 528.697244 
L 366.750208 529.411456 
L 370.252151 533.075698 
L 373.870825 531.72145 
L 377.372768 528.91948 
L 380.991442 520.020588 
L 384.610117 507.530678 
L 388.112059 492.776981 
L 391.730734 477.296161 
L 395.232677 465.391863 
L 398.851351 453.41492 
L 402.470025 444.296094 
L 405.738505 439.862796 
L 409.35718 435.360345 
L 412.859123 432.507313 
L 416.477797 429.146807 
L 419.97974 429.231804 
L 423.598414 421.994544 
L 427.217088 422.766569 
L 430.719031 419.975576 
L 434.337706 414.038034 
L 437.839649 414.661973 
L 441.458323 415.008186 
L 445.076997 417.613073 
L 448.345477 415.787872 
L 451.964152 417.781333 
L 455.466094 419.353802 
L 459.084769 416.710661 
L 462.586712 418.839604 
L 466.205386 416.37032 
L 469.82406 417.632336 
L 473.326003 419.007539 
L 476.944677 407.748159 
L 480.44662 412.352712 
L 484.065295 411.616732 
" clip-path="url(#pa7d08e3164)" style="fill: none; stroke: #fa7c17; stroke-opacity: 0; stroke-width: 1.5; stroke-linecap: round"/>
   </g>
   <g id="line2d_106">
    <path d="M 359.863053 535.266477 
L 363.131534 534.86012 
L 366.750208 537.256811 
L 370.252151 541.983892 
L 373.870825 541.922921 
L 377.372768 541.202737 
L 380.991442 532.275963 
L 384.610117 521.260553 
L 388.112059 507.334213 
L 391.730734 492.36873 
L 395.232677 481.479987 
L 398.851351 470.192062 
L 402.470025 463.82562 
L 405.738505 459.192654 
L 409.35718 457.151188 
L 412.859123 455.873788 
L 416.477797 453.583614 
L 419.97974 453.604767 
L 423.598414 447.33733 
L 427.217088 448.285271 
L 430.719031 447.147128 
L 434.337706 443.802032 
L 437.839649 444.467492 
L 441.458323 447.08329 
L 445.076997 450.405535 
L 448.345477 450.043119 
L 451.964152 452.2232 
L 455.466094 454.390543 
L 459.084769 455.533459 
L 462.586712 459.975653 
L 466.205386 458.725021 
L 469.82406 460.64207 
L 473.326003 460.944059 
L 476.944677 454.331436 
L 480.44662 458.955358 
L 484.065295 459.595208 
" clip-path="url(#pa7d08e3164)" style="fill: none; stroke: #000000; stroke-width: 1.5; stroke-linecap: round"/>
   </g>
   <g id="line2d_107">
    <path d="M 356.361111 560.150145 
L 356.361111 400.490922 
" clip-path="url(#pa7d08e3164)" style="fill: none; stroke: #ff0000; stroke-width: 3; stroke-linecap: round"/>
   </g>
   <g id="patch_13">
    <path d="M 40.246563 560.150145 
L 40.246563 400.490922 
" style="fill: none"/>
   </g>
   <g id="patch_14">
    <path d="M 505.19952 560.150145 
L 505.19952 400.490922 
" style="fill: none"/>
   </g>
   <g id="patch_15">
    <path d="M 40.246562 560.150145 
L 505.19952 560.150145 
" style="fill: none"/>
   </g>
   <g id="patch_16">
    <path d="M 40.246562 400.490922 
L 505.19952 400.490922 
" style="fill: none"/>
   </g>
   <g id="text_24">
    <!-- Cumulative Causal Impact -->
    <g style="fill: #262626" transform="translate(167.458041 394.490922) scale(0.16 -0.16)">
     <use xlink:href="#DejaVuSans-43"/>
     <use xlink:href="#DejaVuSans-75" x="69.824219"/>
     <use xlink:href="#DejaVuSans-6d" x="133.203125"/>
     <use xlink:href="#DejaVuSans-75" x="230.615234"/>
     <use xlink:href="#DejaVuSans-6c" x="293.994141"/>
     <use xlink:href="#DejaVuSans-61" x="321.777344"/>
     <use xlink:href="#DejaVuSans-74" x="383.056641"/>
     <use xlink:href="#DejaVuSans-69" x="422.265625"/>
     <use xlink:href="#DejaVuSans-76" x="450.048828"/>
     <use xlink:href="#DejaVuSans-65" x="509.228516"/>
     <use xlink:href="#DejaVuSans-20" x="570.751953"/>
     <use xlink:href="#DejaVuSans-43" x="602.539062"/>
     <use xlink:href="#DejaVuSans-61" x="672.363281"/>
     <use xlink:href="#DejaVuSans-75" x="733.642578"/>
     <use xlink:href="#DejaVuSans-73" x="797.021484"/>
     <use xlink:href="#DejaVuSans-61" x="849.121094"/>
     <use xlink:href="#DejaVuSans-6c" x="910.400391"/>
     <use xlink:href="#DejaVuSans-20" x="938.183594"/>
     <use xlink:href="#DejaVuSans-49" x="969.970703"/>
     <use xlink:href="#DejaVuSans-6d" x="999.462891"/>
     <use xlink:href="#DejaVuSans-70" x="1096.875"/>
     <use xlink:href="#DejaVuSans-61" x="1160.351562"/>
     <use xlink:href="#DejaVuSans-63" x="1221.630859"/>
     <use xlink:href="#DejaVuSans-74" x="1276.611328"/>
    </g>
   </g>
  </g>
 </g>
 <defs>
  <clipPath id="p5c64643c3a">
   <rect x="40.246563" y="27.76" width="464.952958" height="159.659223"/>
  </clipPath>
  <clipPath id="p9b4658a20f">
   <rect x="40.246563" y="211.577203" width="464.952958" height="159.659223"/>
  </clipPath>
  <clipPath id="pa7d08e3164">
   <rect x="40.246563" y="400.490922" width="464.952958" height="159.659223"/>
  </clipPath>
 </defs>
</svg>
