<?xml version="1.0" encoding="utf-8" standalone="no"?>
<!DOCTYPE svg PUBLIC "-//W3C//DTD SVG 1.1//EN"
  "http://www.w3.org/Graphics/SVG/1.1/DTD/svg11.dtd">
<svg xmlns:xlink="http://www.w3.org/1999/xlink" width="526.746263pt" height="353.99952pt" viewBox="0 0 526.746263 353.99952" xmlns="http://www.w3.org/2000/svg" version="1.1">
 <metadata>
  <rdf:RDF xmlns:dc="http://purl.org/dc/elements/1.1/" xmlns:cc="http://creativecommons.org/ns#" xmlns:rdf="http://www.w3.org/1999/02/22-rdf-syntax-ns#">
   <cc:Work>
    <dc:type rdf:resource="http://purl.org/dc/dcmitype/StillImage"/>
    <dc:date>2022-11-15T19:41:04.578774</dc:date>
    <dc:format>image/svg+xml</dc:format>
    <dc:creator>
     <cc:Agent>
      <dc:title>Matplotlib v3.6.2, https://matplotlib.org/</dc:title>
     </cc:Agent>
    </dc:creator>
   </cc:Work>
  </rdf:RDF>
 </metadata>
 <defs>
  <style type="text/css">*{stroke-linejoin: round; stroke-linecap: butt}</style>
 </defs>
 <g id="figure_1">
  <g id="patch_1">
   <path d="M 0 353.99952 
L 526.746263 353.99952 
L 526.746263 0 
L 0 0 
z
" style="fill: #ffffff"/>
  </g>
  <g id="axes_1">
   <g id="patch_2">
    <path d="M 63.213125 311.232957 
L 518.544868 311.232957 
L 518.544868 45.712 
L 63.213125 45.712 
z
" style="fill: #eeeeee"/>
   </g>
   <g id="matplotlib.axis_1">
    <g id="xtick_1">
     <g id="line2d_1">
      <path d="M 69.291804 311.232957 
L 69.291804 45.712 
" clip-path="url(#p54b49d7f6a)" style="fill: none; stroke: #ffffff; stroke-width: 0.8; stroke-linecap: round"/>
     </g>
     <g id="line2d_2"/>
     <g id="text_1">
      <!-- −1.00 -->
      <g style="fill: #262626" transform="translate(47.840085 325.37077) scale(0.14 -0.14)">
       <defs>
        <path id="DejaVuSans-2212" d="M 678 2272 
L 4684 2272 
L 4684 1741 
L 678 1741 
L 678 2272 
z
" transform="scale(0.015625)"/>
        <path id="DejaVuSans-31" d="M 794 531 
L 1825 531 
L 1825 4091 
L 703 3866 
L 703 4441 
L 1819 4666 
L 2450 4666 
L 2450 531 
L 3481 531 
L 3481 0 
L 794 0 
L 794 531 
z
" transform="scale(0.015625)"/>
        <path id="DejaVuSans-2e" d="M 684 794 
L 1344 794 
L 1344 0 
L 684 0 
L 684 794 
z
" transform="scale(0.015625)"/>
        <path id="DejaVuSans-30" d="M 2034 4250 
Q 1547 4250 1301 3770 
Q 1056 3291 1056 2328 
Q 1056 1369 1301 889 
Q 1547 409 2034 409 
Q 2525 409 2770 889 
Q 3016 1369 3016 2328 
Q 3016 3291 2770 3770 
Q 2525 4250 2034 4250 
z
M 2034 4750 
Q 2819 4750 3233 4129 
Q 3647 3509 3647 2328 
Q 3647 1150 3233 529 
Q 2819 -91 2034 -91 
Q 1250 -91 836 529 
Q 422 1150 422 2328 
Q 422 3509 836 4129 
Q 1250 4750 2034 4750 
z
" transform="scale(0.015625)"/>
       </defs>
       <use xlink:href="#DejaVuSans-2212"/>
       <use xlink:href="#DejaVuSans-31" x="83.789062"/>
       <use xlink:href="#DejaVuSans-2e" x="147.412109"/>
       <use xlink:href="#DejaVuSans-30" x="179.199219"/>
       <use xlink:href="#DejaVuSans-30" x="242.822266"/>
      </g>
     </g>
    </g>
    <g id="xtick_2">
     <g id="line2d_3">
      <path d="M 123.625369 311.232957 
L 123.625369 45.712 
" clip-path="url(#p54b49d7f6a)" style="fill: none; stroke: #ffffff; stroke-width: 0.8; stroke-linecap: round"/>
     </g>
     <g id="line2d_4"/>
     <g id="text_2">
      <!-- −0.75 -->
      <g style="fill: #262626" transform="translate(102.173651 325.37077) scale(0.14 -0.14)">
       <defs>
        <path id="DejaVuSans-37" d="M 525 4666 
L 3525 4666 
L 3525 4397 
L 1831 0 
L 1172 0 
L 2766 4134 
L 525 4134 
L 525 4666 
z
" transform="scale(0.015625)"/>
        <path id="DejaVuSans-35" d="M 691 4666 
L 3169 4666 
L 3169 4134 
L 1269 4134 
L 1269 2991 
Q 1406 3038 1543 3061 
Q 1681 3084 1819 3084 
Q 2600 3084 3056 2656 
Q 3513 2228 3513 1497 
Q 3513 744 3044 326 
Q 2575 -91 1722 -91 
Q 1428 -91 1123 -41 
Q 819 9 494 109 
L 494 744 
Q 775 591 1075 516 
Q 1375 441 1709 441 
Q 2250 441 2565 725 
Q 2881 1009 2881 1497 
Q 2881 1984 2565 2268 
Q 2250 2553 1709 2553 
Q 1456 2553 1204 2497 
Q 953 2441 691 2322 
L 691 4666 
z
" transform="scale(0.015625)"/>
       </defs>
       <use xlink:href="#DejaVuSans-2212"/>
       <use xlink:href="#DejaVuSans-30" x="83.789062"/>
       <use xlink:href="#DejaVuSans-2e" x="147.412109"/>
       <use xlink:href="#DejaVuSans-37" x="179.199219"/>
       <use xlink:href="#DejaVuSans-35" x="242.822266"/>
      </g>
     </g>
    </g>
    <g id="xtick_3">
     <g id="line2d_5">
      <path d="M 177.958935 311.232957 
L 177.958935 45.712 
" clip-path="url(#p54b49d7f6a)" style="fill: none; stroke: #ffffff; stroke-width: 0.8; stroke-linecap: round"/>
     </g>
     <g id="line2d_6"/>
     <g id="text_3">
      <!-- −0.50 -->
      <g style="fill: #262626" transform="translate(156.507216 325.37077) scale(0.14 -0.14)">
       <use xlink:href="#DejaVuSans-2212"/>
       <use xlink:href="#DejaVuSans-30" x="83.789062"/>
       <use xlink:href="#DejaVuSans-2e" x="147.412109"/>
       <use xlink:href="#DejaVuSans-35" x="179.199219"/>
       <use xlink:href="#DejaVuSans-30" x="242.822266"/>
      </g>
     </g>
    </g>
    <g id="xtick_4">
     <g id="line2d_7">
      <path d="M 232.2925 311.232957 
L 232.2925 45.712 
" clip-path="url(#p54b49d7f6a)" style="fill: none; stroke: #ffffff; stroke-width: 0.8; stroke-linecap: round"/>
     </g>
     <g id="line2d_8"/>
     <g id="text_4">
      <!-- −0.25 -->
      <g style="fill: #262626" transform="translate(210.840781 325.37077) scale(0.14 -0.14)">
       <defs>
        <path id="DejaVuSans-32" d="M 1228 531 
L 3431 531 
L 3431 0 
L 469 0 
L 469 531 
Q 828 903 1448 1529 
Q 2069 2156 2228 2338 
Q 2531 2678 2651 2914 
Q 2772 3150 2772 3378 
Q 2772 3750 2511 3984 
Q 2250 4219 1831 4219 
Q 1534 4219 1204 4116 
Q 875 4013 500 3803 
L 500 4441 
Q 881 4594 1212 4672 
Q 1544 4750 1819 4750 
Q 2544 4750 2975 4387 
Q 3406 4025 3406 3419 
Q 3406 3131 3298 2873 
Q 3191 2616 2906 2266 
Q 2828 2175 2409 1742 
Q 1991 1309 1228 531 
z
" transform="scale(0.015625)"/>
       </defs>
       <use xlink:href="#DejaVuSans-2212"/>
       <use xlink:href="#DejaVuSans-30" x="83.789062"/>
       <use xlink:href="#DejaVuSans-2e" x="147.412109"/>
       <use xlink:href="#DejaVuSans-32" x="179.199219"/>
       <use xlink:href="#DejaVuSans-35" x="242.822266"/>
      </g>
     </g>
    </g>
    <g id="xtick_5">
     <g id="line2d_9">
      <path d="M 286.626065 311.232957 
L 286.626065 45.712 
" clip-path="url(#p54b49d7f6a)" style="fill: none; stroke: #ffffff; stroke-width: 0.8; stroke-linecap: round"/>
     </g>
     <g id="line2d_10"/>
     <g id="text_5">
      <!-- 0.00 -->
      <g style="fill: #262626" transform="translate(271.040128 325.37077) scale(0.14 -0.14)">
       <use xlink:href="#DejaVuSans-30"/>
       <use xlink:href="#DejaVuSans-2e" x="63.623047"/>
       <use xlink:href="#DejaVuSans-30" x="95.410156"/>
       <use xlink:href="#DejaVuSans-30" x="159.033203"/>
      </g>
     </g>
    </g>
    <g id="xtick_6">
     <g id="line2d_11">
      <path d="M 340.95963 311.232957 
L 340.95963 45.712 
" clip-path="url(#p54b49d7f6a)" style="fill: none; stroke: #ffffff; stroke-width: 0.8; stroke-linecap: round"/>
     </g>
     <g id="line2d_12"/>
     <g id="text_6">
      <!-- 0.25 -->
      <g style="fill: #262626" transform="translate(325.373693 325.37077) scale(0.14 -0.14)">
       <use xlink:href="#DejaVuSans-30"/>
       <use xlink:href="#DejaVuSans-2e" x="63.623047"/>
       <use xlink:href="#DejaVuSans-32" x="95.410156"/>
       <use xlink:href="#DejaVuSans-35" x="159.033203"/>
      </g>
     </g>
    </g>
    <g id="xtick_7">
     <g id="line2d_13">
      <path d="M 395.293195 311.232957 
L 395.293195 45.712 
" clip-path="url(#p54b49d7f6a)" style="fill: none; stroke: #ffffff; stroke-width: 0.8; stroke-linecap: round"/>
     </g>
     <g id="line2d_14"/>
     <g id="text_7">
      <!-- 0.50 -->
      <g style="fill: #262626" transform="translate(379.707258 325.37077) scale(0.14 -0.14)">
       <use xlink:href="#DejaVuSans-30"/>
       <use xlink:href="#DejaVuSans-2e" x="63.623047"/>
       <use xlink:href="#DejaVuSans-35" x="95.410156"/>
       <use xlink:href="#DejaVuSans-30" x="159.033203"/>
      </g>
     </g>
    </g>
    <g id="xtick_8">
     <g id="line2d_15">
      <path d="M 449.626761 311.232957 
L 449.626761 45.712 
" clip-path="url(#p54b49d7f6a)" style="fill: none; stroke: #ffffff; stroke-width: 0.8; stroke-linecap: round"/>
     </g>
     <g id="line2d_16"/>
     <g id="text_8">
      <!-- 0.75 -->
      <g style="fill: #262626" transform="translate(434.040823 325.37077) scale(0.14 -0.14)">
       <use xlink:href="#DejaVuSans-30"/>
       <use xlink:href="#DejaVuSans-2e" x="63.623047"/>
       <use xlink:href="#DejaVuSans-37" x="95.410156"/>
       <use xlink:href="#DejaVuSans-35" x="159.033203"/>
      </g>
     </g>
    </g>
    <g id="xtick_9">
     <g id="line2d_17">
      <path d="M 503.960326 311.232957 
L 503.960326 45.712 
" clip-path="url(#p54b49d7f6a)" style="fill: none; stroke: #ffffff; stroke-width: 0.8; stroke-linecap: round"/>
     </g>
     <g id="line2d_18"/>
     <g id="text_9">
      <!-- 1.00 -->
      <g style="fill: #262626" transform="translate(488.374388 325.37077) scale(0.14 -0.14)">
       <use xlink:href="#DejaVuSans-31"/>
       <use xlink:href="#DejaVuSans-2e" x="63.623047"/>
       <use xlink:href="#DejaVuSans-30" x="95.410156"/>
       <use xlink:href="#DejaVuSans-30" x="159.033203"/>
      </g>
     </g>
    </g>
    <g id="text_10">
     <!-- x -->
     <g style="fill: #262626" transform="translate(286.439934 343.679989) scale(0.15 -0.15)">
      <defs>
       <path id="DejaVuSans-78" d="M 3513 3500 
L 2247 1797 
L 3578 0 
L 2900 0 
L 1881 1375 
L 863 0 
L 184 0 
L 1544 1831 
L 300 3500 
L 978 3500 
L 1906 2253 
L 2834 3500 
L 3513 3500 
z
" transform="scale(0.015625)"/>
      </defs>
      <use xlink:href="#DejaVuSans-78"/>
     </g>
    </g>
   </g>
   <g id="matplotlib.axis_2">
    <g id="ytick_1">
     <g id="line2d_19">
      <path d="M 63.213125 288.089224 
L 518.544868 288.089224 
" clip-path="url(#p54b49d7f6a)" style="fill: none; stroke: #ffffff; stroke-width: 0.8; stroke-linecap: round"/>
     </g>
     <g id="line2d_20"/>
     <g id="text_11">
      <!-- −1.0 -->
      <g style="fill: #262626" transform="translate(25.717188 293.40813) scale(0.14 -0.14)">
       <use xlink:href="#DejaVuSans-2212"/>
       <use xlink:href="#DejaVuSans-31" x="83.789062"/>
       <use xlink:href="#DejaVuSans-2e" x="147.412109"/>
       <use xlink:href="#DejaVuSans-30" x="179.199219"/>
      </g>
     </g>
    </g>
    <g id="ytick_2">
     <g id="line2d_21">
      <path d="M 63.213125 243.130074 
L 518.544868 243.130074 
" clip-path="url(#p54b49d7f6a)" style="fill: none; stroke: #ffffff; stroke-width: 0.8; stroke-linecap: round"/>
     </g>
     <g id="line2d_22"/>
     <g id="text_12">
      <!-- −0.5 -->
      <g style="fill: #262626" transform="translate(25.717188 248.44898) scale(0.14 -0.14)">
       <use xlink:href="#DejaVuSans-2212"/>
       <use xlink:href="#DejaVuSans-30" x="83.789062"/>
       <use xlink:href="#DejaVuSans-2e" x="147.412109"/>
       <use xlink:href="#DejaVuSans-35" x="179.199219"/>
      </g>
     </g>
    </g>
    <g id="ytick_3">
     <g id="line2d_23">
      <path d="M 63.213125 198.170924 
L 518.544868 198.170924 
" clip-path="url(#p54b49d7f6a)" style="fill: none; stroke: #ffffff; stroke-width: 0.8; stroke-linecap: round"/>
     </g>
     <g id="line2d_24"/>
     <g id="text_13">
      <!-- 0.0 -->
      <g style="fill: #262626" transform="translate(37.44875 203.48983) scale(0.14 -0.14)">
       <use xlink:href="#DejaVuSans-30"/>
       <use xlink:href="#DejaVuSans-2e" x="63.623047"/>
       <use xlink:href="#DejaVuSans-30" x="95.410156"/>
      </g>
     </g>
    </g>
    <g id="ytick_4">
     <g id="line2d_25">
      <path d="M 63.213125 153.211774 
L 518.544868 153.211774 
" clip-path="url(#p54b49d7f6a)" style="fill: none; stroke: #ffffff; stroke-width: 0.8; stroke-linecap: round"/>
     </g>
     <g id="line2d_26"/>
     <g id="text_14">
      <!-- 0.5 -->
      <g style="fill: #262626" transform="translate(37.44875 158.53068) scale(0.14 -0.14)">
       <use xlink:href="#DejaVuSans-30"/>
       <use xlink:href="#DejaVuSans-2e" x="63.623047"/>
       <use xlink:href="#DejaVuSans-35" x="95.410156"/>
      </g>
     </g>
    </g>
    <g id="ytick_5">
     <g id="line2d_27">
      <path d="M 63.213125 108.252624 
L 518.544868 108.252624 
" clip-path="url(#p54b49d7f6a)" style="fill: none; stroke: #ffffff; stroke-width: 0.8; stroke-linecap: round"/>
     </g>
     <g id="line2d_28"/>
     <g id="text_15">
      <!-- 1.0 -->
      <g style="fill: #262626" transform="translate(37.44875 113.57153) scale(0.14 -0.14)">
       <use xlink:href="#DejaVuSans-31"/>
       <use xlink:href="#DejaVuSans-2e" x="63.623047"/>
       <use xlink:href="#DejaVuSans-30" x="95.410156"/>
      </g>
     </g>
    </g>
    <g id="ytick_6">
     <g id="line2d_29">
      <path d="M 63.213125 63.293474 
L 518.544868 63.293474 
" clip-path="url(#p54b49d7f6a)" style="fill: none; stroke: #ffffff; stroke-width: 0.8; stroke-linecap: round"/>
     </g>
     <g id="line2d_30"/>
     <g id="text_16">
      <!-- 1.5 -->
      <g style="fill: #262626" transform="translate(37.44875 68.61238) scale(0.14 -0.14)">
       <use xlink:href="#DejaVuSans-31"/>
       <use xlink:href="#DejaVuSans-2e" x="63.623047"/>
       <use xlink:href="#DejaVuSans-35" x="95.410156"/>
      </g>
     </g>
    </g>
    <g id="text_17">
     <!-- y -->
     <g style="fill: #262626" transform="translate(18.597656 182.911541) rotate(-90) scale(0.15 -0.15)">
      <defs>
       <path id="DejaVuSans-79" d="M 2059 -325 
Q 1816 -950 1584 -1140 
Q 1353 -1331 966 -1331 
L 506 -1331 
L 506 -850 
L 844 -850 
Q 1081 -850 1212 -737 
Q 1344 -625 1503 -206 
L 1606 56 
L 191 3500 
L 800 3500 
L 1894 763 
L 2988 3500 
L 3597 3500 
L 2059 -325 
z
" transform="scale(0.015625)"/>
      </defs>
      <use xlink:href="#DejaVuSans-79"/>
     </g>
    </g>
   </g>
   <g id="PathCollection_1">
    <defs>
     <path id="m1df0b8e5ab" d="M 0 3 
C 0.795609 3 1.55874 2.683901 2.12132 2.12132 
C 2.683901 1.55874 3 0.795609 3 0 
C 3 -0.795609 2.683901 -1.55874 2.12132 -2.12132 
C 1.55874 -2.683901 0.795609 -3 0 -3 
C -0.795609 -3 -1.55874 -2.683901 -2.12132 -2.12132 
C -2.683901 -1.55874 -3 -0.795609 -3 0 
C -3 0.795609 -2.683901 1.55874 -2.12132 2.12132 
C -1.55874 2.683901 -0.795609 3 0 3 
z
" style="stroke: #ffffff; stroke-width: 0.48"/>
    </defs>
    <g clip-path="url(#p54b49d7f6a)">
     <use xlink:href="#m1df0b8e5ab" x="83.910022" y="206.43614" style="stroke: #ffffff; stroke-width: 0.48"/>
     <use xlink:href="#m1df0b8e5ab" x="84.336022" y="232.579362" style="stroke: #ffffff; stroke-width: 0.48"/>
     <use xlink:href="#m1df0b8e5ab" x="84.69857" y="214.516817" style="stroke: #ffffff; stroke-width: 0.48"/>
     <use xlink:href="#m1df0b8e5ab" x="89.412792" y="224.08942" style="stroke: #ffffff; stroke-width: 0.48"/>
     <use xlink:href="#m1df0b8e5ab" x="94.835298" y="236.009491" style="stroke: #ffffff; stroke-width: 0.48"/>
     <use xlink:href="#m1df0b8e5ab" x="94.920755" y="248.070332" style="stroke: #ffffff; stroke-width: 0.48"/>
     <use xlink:href="#m1df0b8e5ab" x="105.526504" y="249.084683" style="stroke: #ffffff; stroke-width: 0.48"/>
     <use xlink:href="#m1df0b8e5ab" x="107.174569" y="241.675465" style="stroke: #ffffff; stroke-width: 0.48"/>
     <use xlink:href="#m1df0b8e5ab" x="112.222407" y="241.761169" style="stroke: #ffffff; stroke-width: 0.48"/>
     <use xlink:href="#m1df0b8e5ab" x="114.768501" y="261.810405" style="stroke: #ffffff; stroke-width: 0.48"/>
     <use xlink:href="#m1df0b8e5ab" x="117.423734" y="264.48309" style="stroke: #ffffff; stroke-width: 0.48"/>
     <use xlink:href="#m1df0b8e5ab" x="125.295493" y="256.46528" style="stroke: #ffffff; stroke-width: 0.48"/>
     <use xlink:href="#m1df0b8e5ab" x="141.833089" y="273.052915" style="stroke: #ffffff; stroke-width: 0.48"/>
     <use xlink:href="#m1df0b8e5ab" x="141.9756" y="287.999041" style="stroke: #ffffff; stroke-width: 0.48"/>
     <use xlink:href="#m1df0b8e5ab" x="145.162711" y="296.919338" style="stroke: #ffffff; stroke-width: 0.48"/>
     <use xlink:href="#m1df0b8e5ab" x="145.509225" y="281.692656" style="stroke: #ffffff; stroke-width: 0.48"/>
     <use xlink:href="#m1df0b8e5ab" x="147.059173" y="287.547049" style="stroke: #ffffff; stroke-width: 0.48"/>
     <use xlink:href="#m1df0b8e5ab" x="147.299032" y="278.429122" style="stroke: #ffffff; stroke-width: 0.48"/>
     <use xlink:href="#m1df0b8e5ab" x="149.509041" y="299.163823" style="stroke: #ffffff; stroke-width: 0.48"/>
     <use xlink:href="#m1df0b8e5ab" x="159.417963" y="275.361764" style="stroke: #ffffff; stroke-width: 0.48"/>
     <use xlink:href="#m1df0b8e5ab" x="163.564673" y="279.011356" style="stroke: #ffffff; stroke-width: 0.48"/>
     <use xlink:href="#m1df0b8e5ab" x="168.797623" y="278.328789" style="stroke: #ffffff; stroke-width: 0.48"/>
     <use xlink:href="#m1df0b8e5ab" x="170.455346" y="266.301812" style="stroke: #ffffff; stroke-width: 0.48"/>
     <use xlink:href="#m1df0b8e5ab" x="172.701312" y="271.362551" style="stroke: #ffffff; stroke-width: 0.48"/>
     <use xlink:href="#m1df0b8e5ab" x="188.833339" y="279.164666" style="stroke: #ffffff; stroke-width: 0.48"/>
     <use xlink:href="#m1df0b8e5ab" x="194.379694" y="293.031132" style="stroke: #ffffff; stroke-width: 0.48"/>
     <use xlink:href="#m1df0b8e5ab" x="195.102613" y="285.931857" style="stroke: #ffffff; stroke-width: 0.48"/>
     <use xlink:href="#m1df0b8e5ab" x="203.349595" y="280.031133" style="stroke: #ffffff; stroke-width: 0.48"/>
     <use xlink:href="#m1df0b8e5ab" x="205.405779" y="288.553577" style="stroke: #ffffff; stroke-width: 0.48"/>
     <use xlink:href="#m1df0b8e5ab" x="208.282416" y="282.439384" style="stroke: #ffffff; stroke-width: 0.48"/>
     <use xlink:href="#m1df0b8e5ab" x="208.871219" y="291.827743" style="stroke: #ffffff; stroke-width: 0.48"/>
     <use xlink:href="#m1df0b8e5ab" x="210.295392" y="267.939039" style="stroke: #ffffff; stroke-width: 0.48"/>
     <use xlink:href="#m1df0b8e5ab" x="211.069273" y="268.776966" style="stroke: #ffffff; stroke-width: 0.48"/>
     <use xlink:href="#m1df0b8e5ab" x="211.748993" y="263.858652" style="stroke: #ffffff; stroke-width: 0.48"/>
     <use xlink:href="#m1df0b8e5ab" x="216.562155" y="269.542997" style="stroke: #ffffff; stroke-width: 0.48"/>
     <use xlink:href="#m1df0b8e5ab" x="230.422528" y="260.723058" style="stroke: #ffffff; stroke-width: 0.48"/>
     <use xlink:href="#m1df0b8e5ab" x="235.037652" y="265.578462" style="stroke: #ffffff; stroke-width: 0.48"/>
     <use xlink:href="#m1df0b8e5ab" x="239.493093" y="238.362593" style="stroke: #ffffff; stroke-width: 0.48"/>
     <use xlink:href="#m1df0b8e5ab" x="243.175218" y="244.304337" style="stroke: #ffffff; stroke-width: 0.48"/>
     <use xlink:href="#m1df0b8e5ab" x="245.068273" y="251.198246" style="stroke: #ffffff; stroke-width: 0.48"/>
     <use xlink:href="#m1df0b8e5ab" x="249.100659" y="249.841925" style="stroke: #ffffff; stroke-width: 0.48"/>
     <use xlink:href="#m1df0b8e5ab" x="258.305684" y="231.912044" style="stroke: #ffffff; stroke-width: 0.48"/>
     <use xlink:href="#m1df0b8e5ab" x="262.182011" y="221.560749" style="stroke: #ffffff; stroke-width: 0.48"/>
     <use xlink:href="#m1df0b8e5ab" x="266.093358" y="232.335189" style="stroke: #ffffff; stroke-width: 0.48"/>
     <use xlink:href="#m1df0b8e5ab" x="266.798071" y="239.778249" style="stroke: #ffffff; stroke-width: 0.48"/>
     <use xlink:href="#m1df0b8e5ab" x="269.087997" y="213.816702" style="stroke: #ffffff; stroke-width: 0.48"/>
     <use xlink:href="#m1df0b8e5ab" x="281.112906" y="202.583876" style="stroke: #ffffff; stroke-width: 0.48"/>
     <use xlink:href="#m1df0b8e5ab" x="284.936083" y="208.199544" style="stroke: #ffffff; stroke-width: 0.48"/>
     <use xlink:href="#m1df0b8e5ab" x="286.235929" y="209.846196" style="stroke: #ffffff; stroke-width: 0.48"/>
     <use xlink:href="#m1df0b8e5ab" x="289.454876" y="206.889435" style="stroke: #ffffff; stroke-width: 0.48"/>
     <use xlink:href="#m1df0b8e5ab" x="289.523467" y="210.296595" style="stroke: #ffffff; stroke-width: 0.48"/>
     <use xlink:href="#m1df0b8e5ab" x="299.076053" y="187.294779" style="stroke: #ffffff; stroke-width: 0.48"/>
     <use xlink:href="#m1df0b8e5ab" x="301.144193" y="189.350342" style="stroke: #ffffff; stroke-width: 0.48"/>
     <use xlink:href="#m1df0b8e5ab" x="304.354028" y="170.276168" style="stroke: #ffffff; stroke-width: 0.48"/>
     <use xlink:href="#m1df0b8e5ab" x="310.233288" y="165.673518" style="stroke: #ffffff; stroke-width: 0.48"/>
     <use xlink:href="#m1df0b8e5ab" x="310.81556" y="169.292261" style="stroke: #ffffff; stroke-width: 0.48"/>
     <use xlink:href="#m1df0b8e5ab" x="316.333421" y="153.934534" style="stroke: #ffffff; stroke-width: 0.48"/>
     <use xlink:href="#m1df0b8e5ab" x="326.15288" y="146.500498" style="stroke: #ffffff; stroke-width: 0.48"/>
     <use xlink:href="#m1df0b8e5ab" x="329.473717" y="137.496077" style="stroke: #ffffff; stroke-width: 0.48"/>
     <use xlink:href="#m1df0b8e5ab" x="345.717135" y="115.669325" style="stroke: #ffffff; stroke-width: 0.48"/>
     <use xlink:href="#m1df0b8e5ab" x="345.912491" y="120.632958" style="stroke: #ffffff; stroke-width: 0.48"/>
     <use xlink:href="#m1df0b8e5ab" x="348.40895" y="139.275098" style="stroke: #ffffff; stroke-width: 0.48"/>
     <use xlink:href="#m1df0b8e5ab" x="350.254007" y="139.717858" style="stroke: #ffffff; stroke-width: 0.48"/>
     <use xlink:href="#m1df0b8e5ab" x="350.642973" y="126.643969" style="stroke: #ffffff; stroke-width: 0.48"/>
     <use xlink:href="#m1df0b8e5ab" x="361.213638" y="129.537686" style="stroke: #ffffff; stroke-width: 0.48"/>
     <use xlink:href="#m1df0b8e5ab" x="363.251157" y="128.530666" style="stroke: #ffffff; stroke-width: 0.48"/>
     <use xlink:href="#m1df0b8e5ab" x="365.881418" y="110.971889" style="stroke: #ffffff; stroke-width: 0.48"/>
     <use xlink:href="#m1df0b8e5ab" x="366.74208" y="141.811977" style="stroke: #ffffff; stroke-width: 0.48"/>
     <use xlink:href="#m1df0b8e5ab" x="370.659001" y="114.506713" style="stroke: #ffffff; stroke-width: 0.48"/>
     <use xlink:href="#m1df0b8e5ab" x="377.968914" y="109.46964" style="stroke: #ffffff; stroke-width: 0.48"/>
     <use xlink:href="#m1df0b8e5ab" x="382.373811" y="106.503409" style="stroke: #ffffff; stroke-width: 0.48"/>
     <use xlink:href="#m1df0b8e5ab" x="384.627721" y="105.716104" style="stroke: #ffffff; stroke-width: 0.48"/>
     <use xlink:href="#m1df0b8e5ab" x="384.895427" y="113.743947" style="stroke: #ffffff; stroke-width: 0.48"/>
     <use xlink:href="#m1df0b8e5ab" x="385.076865" y="119.418872" style="stroke: #ffffff; stroke-width: 0.48"/>
     <use xlink:href="#m1df0b8e5ab" x="392.383214" y="101.77816" style="stroke: #ffffff; stroke-width: 0.48"/>
     <use xlink:href="#m1df0b8e5ab" x="408.505902" y="67.481416" style="stroke: #ffffff; stroke-width: 0.48"/>
     <use xlink:href="#m1df0b8e5ab" x="414.78928" y="68.771842" style="stroke: #ffffff; stroke-width: 0.48"/>
     <use xlink:href="#m1df0b8e5ab" x="418.379741" y="81.051612" style="stroke: #ffffff; stroke-width: 0.48"/>
     <use xlink:href="#m1df0b8e5ab" x="423.312125" y="72.558677" style="stroke: #ffffff; stroke-width: 0.48"/>
     <use xlink:href="#m1df0b8e5ab" x="424.220592" y="76.690575" style="stroke: #ffffff; stroke-width: 0.48"/>
     <use xlink:href="#m1df0b8e5ab" x="427.130787" y="68.454528" style="stroke: #ffffff; stroke-width: 0.48"/>
     <use xlink:href="#m1df0b8e5ab" x="428.394188" y="75.502749" style="stroke: #ffffff; stroke-width: 0.48"/>
     <use xlink:href="#m1df0b8e5ab" x="431.732798" y="85.673325" style="stroke: #ffffff; stroke-width: 0.48"/>
     <use xlink:href="#m1df0b8e5ab" x="432.894093" y="65.076934" style="stroke: #ffffff; stroke-width: 0.48"/>
     <use xlink:href="#m1df0b8e5ab" x="433.879567" y="64.998362" style="stroke: #ffffff; stroke-width: 0.48"/>
     <use xlink:href="#m1df0b8e5ab" x="438.591916" y="72.719999" style="stroke: #ffffff; stroke-width: 0.48"/>
     <use xlink:href="#m1df0b8e5ab" x="441.61939" y="76.296241" style="stroke: #ffffff; stroke-width: 0.48"/>
     <use xlink:href="#m1df0b8e5ab" x="445.959405" y="77.338479" style="stroke: #ffffff; stroke-width: 0.48"/>
     <use xlink:href="#m1df0b8e5ab" x="454.085761" y="85.213294" style="stroke: #ffffff; stroke-width: 0.48"/>
     <use xlink:href="#m1df0b8e5ab" x="454.160468" y="80.934366" style="stroke: #ffffff; stroke-width: 0.48"/>
     <use xlink:href="#m1df0b8e5ab" x="464.439127" y="88.404218" style="stroke: #ffffff; stroke-width: 0.48"/>
     <use xlink:href="#m1df0b8e5ab" x="464.787074" y="102.863777" style="stroke: #ffffff; stroke-width: 0.48"/>
     <use xlink:href="#m1df0b8e5ab" x="477.548688" y="115.740217" style="stroke: #ffffff; stroke-width: 0.48"/>
     <use xlink:href="#m1df0b8e5ab" x="480.628972" y="110.025739" style="stroke: #ffffff; stroke-width: 0.48"/>
     <use xlink:href="#m1df0b8e5ab" x="480.649141" y="112.114745" style="stroke: #ffffff; stroke-width: 0.48"/>
     <use xlink:href="#m1df0b8e5ab" x="483.017451" y="119.603599" style="stroke: #ffffff; stroke-width: 0.48"/>
     <use xlink:href="#m1df0b8e5ab" x="489.376035" y="130.853263" style="stroke: #ffffff; stroke-width: 0.48"/>
     <use xlink:href="#m1df0b8e5ab" x="493.102116" y="116.583496" style="stroke: #ffffff; stroke-width: 0.48"/>
     <use xlink:href="#m1df0b8e5ab" x="496.132545" y="126.277747" style="stroke: #ffffff; stroke-width: 0.48"/>
     <use xlink:href="#m1df0b8e5ab" x="497.847971" y="131.650236" style="stroke: #ffffff; stroke-width: 0.48"/>
    </g>
   </g>
   <g id="PolyCollection_1">
    <defs>
     <path id="m8d1545c1e8" d="M 83.910022 -143.413696 
L 83.910022 -126.982915 
L 85.990113 -124.707468 
L 88.070203 -122.02893 
L 90.150293 -119.825725 
L 92.230383 -117.568888 
L 94.310473 -115.186277 
L 96.390564 -112.575333 
L 98.470654 -110.187553 
L 100.550744 -107.771195 
L 102.630834 -105.513368 
L 104.710924 -103.317906 
L 106.791015 -100.818624 
L 108.871105 -98.558544 
L 110.951195 -96.30627 
L 113.031285 -94.011377 
L 115.111375 -91.864216 
L 117.191466 -89.711462 
L 119.271556 -87.9333 
L 121.351646 -86.153418 
L 123.431736 -84.136213 
L 125.511826 -82.27422 
L 127.591917 -80.768936 
L 129.672007 -79.216782 
L 131.752097 -77.798559 
L 133.832187 -76.41037 
L 135.912277 -74.997714 
L 137.992367 -73.832821 
L 140.072458 -72.637432 
L 142.152548 -71.518302 
L 144.232638 -70.56534 
L 146.312728 -69.664719 
L 148.392818 -68.736214 
L 150.472909 -67.978902 
L 152.552999 -67.116037 
L 154.633089 -66.599772 
L 156.713179 -65.966185 
L 158.793269 -65.658487 
L 160.87336 -65.167992 
L 162.95345 -64.676821 
L 165.03354 -64.347426 
L 167.11363 -64.124655 
L 169.19372 -63.862071 
L 171.273811 -63.671396 
L 173.353901 -63.707915 
L 175.433991 -63.714695 
L 177.514081 -63.717733 
L 179.594171 -63.82537 
L 181.674262 -63.911386 
L 183.754352 -64.271567 
L 185.834442 -64.614766 
L 187.914532 -64.98453 
L 189.994622 -65.422512 
L 192.074713 -66.151938 
L 194.154803 -66.708205 
L 196.234893 -67.375255 
L 198.314983 -68.181767 
L 200.395073 -69.097846 
L 202.475163 -70.26936 
L 204.555254 -71.340641 
L 206.635344 -72.035697 
L 208.715434 -73.478505 
L 210.795524 -75.001799 
L 212.875614 -76.300636 
L 214.955705 -77.594844 
L 217.035795 -79.095744 
L 219.115885 -80.358907 
L 221.195975 -82.070705 
L 223.276065 -83.742223 
L 225.356156 -85.212897 
L 227.436246 -87.354782 
L 229.516336 -88.713662 
L 231.596426 -90.563845 
L 233.676516 -92.426483 
L 235.756607 -94.271343 
L 237.836697 -96.299584 
L 239.916787 -98.375033 
L 241.996877 -100.447047 
L 244.076967 -102.601668 
L 246.157058 -104.702729 
L 248.237148 -106.868077 
L 250.317238 -108.929016 
L 252.397328 -111.028818 
L 254.477418 -113.168428 
L 256.557509 -115.505255 
L 258.637599 -117.644093 
L 260.717689 -119.93442 
L 262.797779 -122.103315 
L 264.877869 -124.577184 
L 266.957959 -126.763744 
L 269.03805 -129.213688 
L 271.11814 -131.375222 
L 273.19823 -133.683137 
L 275.27832 -136.076284 
L 277.35841 -138.548411 
L 279.438501 -140.770817 
L 281.518591 -143.095518 
L 283.598681 -145.622275 
L 285.678771 -148.048523 
L 287.758861 -150.494084 
L 289.838952 -152.976253 
L 291.919042 -155.517813 
L 293.999132 -157.792899 
L 296.079222 -160.449604 
L 298.159312 -162.708818 
L 300.239403 -165.389803 
L 302.319493 -167.853424 
L 304.399583 -170.372147 
L 306.479673 -172.874192 
L 308.559763 -175.347464 
L 310.639854 -177.735972 
L 312.719944 -180.233944 
L 314.800034 -182.703948 
L 316.880124 -185.099149 
L 318.960214 -187.476391 
L 321.040305 -189.818044 
L 323.120395 -192.040668 
L 325.200485 -194.479864 
L 327.280575 -196.633751 
L 329.360665 -198.863929 
L 331.440756 -201.020059 
L 333.520846 -203.1554 
L 335.600936 -205.499685 
L 337.681026 -207.661384 
L 339.761116 -209.602338 
L 341.841206 -211.579093 
L 343.921297 -213.489583 
L 346.001387 -215.538311 
L 348.081477 -217.450323 
L 350.161567 -219.155438 
L 352.241657 -220.914001 
L 354.321748 -222.575013 
L 356.401838 -224.156057 
L 358.481928 -225.6014 
L 360.562018 -227.101686 
L 362.642108 -229.032428 
L 364.722199 -230.345128 
L 366.802289 -231.450779 
L 368.882379 -232.781532 
L 370.962469 -234.125759 
L 373.042559 -235.253386 
L 375.12265 -236.430274 
L 377.20274 -237.152955 
L 379.28283 -238.089208 
L 381.36292 -238.976365 
L 383.44301 -239.653386 
L 385.523101 -240.411721 
L 387.603191 -240.927441 
L 389.683281 -241.400098 
L 391.763371 -241.597739 
L 393.843461 -242.212922 
L 395.923552 -273.939253 
L 398.003642 -274.998038 
L 400.083732 -275.8164 
L 402.163822 -276.538644 
L 404.243912 -277.35892 
L 406.324002 -277.754135 
L 408.404093 -277.626228 
L 410.484183 -278.098456 
L 412.564273 -278.445925 
L 414.644363 -278.68723 
L 416.724453 -278.150372 
L 418.804544 -278.050014 
L 420.884634 -278.111085 
L 422.964724 -278.154068 
L 425.044814 -277.898121 
L 427.124904 -277.326457 
L 429.204995 -276.707511 
L 431.285085 -276.012262 
L 433.365175 -275.082113 
L 435.445265 -274.535221 
L 437.525355 -273.230042 
L 439.605446 -271.856882 
L 441.685536 -270.692261 
L 443.765626 -269.334467 
L 445.845716 -267.902391 
L 447.925806 -266.382034 
L 450.005897 -264.859037 
L 452.085987 -262.937342 
L 454.166077 -261.495926 
L 456.246167 -259.809724 
L 458.326257 -258.033579 
L 460.406348 -256.208471 
L 462.486438 -254.247788 
L 464.566528 -252.404215 
L 466.646618 -250.458494 
L 468.726708 -248.68726 
L 470.806798 -246.98538 
L 472.886889 -245.180967 
L 474.966979 -243.079967 
L 477.047069 -241.098828 
L 479.127159 -238.993126 
L 481.207249 -236.342719 
L 483.28734 -233.827859 
L 485.36743 -231.625994 
L 487.44752 -229.399286 
L 489.52761 -226.339609 
L 491.6077 -223.253079 
L 493.687791 -220.360139 
L 495.767881 -216.487625 
L 497.847971 -213.206128 
L 497.847971 -232.050027 
L 497.847971 -232.050027 
L 495.767881 -233.111429 
L 493.687791 -235.177493 
L 491.6077 -236.477834 
L 489.52761 -238.2339 
L 487.44752 -240.543307 
L 485.36743 -242.275941 
L 483.28734 -244.295853 
L 481.207249 -246.694113 
L 479.127159 -249.341436 
L 477.047069 -251.522265 
L 474.966979 -253.712414 
L 472.886889 -256.005155 
L 470.806798 -258.026454 
L 468.726708 -259.816085 
L 466.646618 -261.634971 
L 464.566528 -263.718983 
L 462.486438 -265.543278 
L 460.406348 -267.453245 
L 458.326257 -269.155321 
L 456.246167 -270.755395 
L 454.166077 -272.146563 
L 452.085987 -273.329962 
L 450.005897 -274.967309 
L 447.925806 -276.172082 
L 445.845716 -277.341157 
L 443.765626 -278.526767 
L 441.685536 -279.576188 
L 439.605446 -280.518588 
L 437.525355 -281.77635 
L 435.445265 -283.065693 
L 433.365175 -283.562679 
L 431.285085 -284.652637 
L 429.204995 -285.578715 
L 427.124904 -286.580621 
L 425.044814 -287.669326 
L 422.964724 -288.562952 
L 420.884634 -289.302166 
L 418.804544 -290.076399 
L 416.724453 -291.072549 
L 414.644363 -292.539135 
L 412.564273 -293.171532 
L 410.484183 -293.709161 
L 408.404093 -294.177526 
L 406.324002 -295.284659 
L 404.243912 -295.820505 
L 402.163822 -295.921342 
L 400.083732 -296.090229 
L 398.003642 -296.218386 
L 395.923552 -295.982327 
L 393.843461 -254.978842 
L 391.763371 -253.836246 
L 389.683281 -253.195642 
L 387.603191 -252.301689 
L 385.523101 -251.396661 
L 383.44301 -250.274325 
L 381.36292 -249.252284 
L 379.28283 -248.035586 
L 377.20274 -246.784679 
L 375.12265 -245.824781 
L 373.042559 -244.38509 
L 370.962469 -243.056003 
L 368.882379 -241.521136 
L 366.802289 -240.000927 
L 364.722199 -238.719783 
L 362.642108 -237.238673 
L 360.562018 -235.125365 
L 358.481928 -233.499653 
L 356.401838 -231.885372 
L 354.321748 -230.178907 
L 352.241657 -228.454007 
L 350.161567 -226.611941 
L 348.081477 -224.841772 
L 346.001387 -222.839799 
L 343.921297 -220.742392 
L 341.841206 -218.784959 
L 339.761116 -216.771294 
L 337.681026 -214.845549 
L 335.600936 -212.695692 
L 333.520846 -210.370908 
L 331.440756 -208.228344 
L 329.360665 -206.07372 
L 327.280575 -203.887897 
L 325.200485 -201.775461 
L 323.120395 -199.403041 
L 321.040305 -197.269318 
L 318.960214 -194.965443 
L 316.880124 -192.679427 
L 314.800034 -190.37426 
L 312.719944 -188.003078 
L 310.639854 -185.568918 
L 308.559763 -183.257582 
L 306.479673 -180.855257 
L 304.399583 -178.429369 
L 302.319493 -175.96267 
L 300.239403 -173.553581 
L 298.159312 -170.938488 
L 296.079222 -168.732483 
L 293.999132 -166.122794 
L 291.919042 -163.86064 
L 289.838952 -161.298324 
L 287.758861 -158.768483 
L 285.678771 -156.257922 
L 283.598681 -153.747666 
L 281.518591 -151.146939 
L 279.438501 -148.743235 
L 277.35841 -146.422704 
L 275.27832 -143.852259 
L 273.19823 -141.367895 
L 271.11814 -138.959068 
L 269.03805 -136.689464 
L 266.957959 -134.119199 
L 264.877869 -131.833193 
L 262.797779 -129.26608 
L 260.717689 -127.013443 
L 258.637599 -124.611893 
L 256.557509 -122.428131 
L 254.477418 -120.026092 
L 252.397328 -117.846466 
L 250.317238 -115.697945 
L 248.237148 -113.608919 
L 246.157058 -111.48721 
L 244.076967 -109.452205 
L 241.996877 -107.398049 
L 239.916787 -105.36335 
L 237.836697 -103.391635 
L 235.756607 -101.479717 
L 233.676516 -99.725438 
L 231.596426 -97.963265 
L 229.516336 -96.275808 
L 227.436246 -95.062024 
L 225.356156 -93.035764 
L 223.276065 -91.66369 
L 221.195975 -90.086013 
L 219.115885 -88.490854 
L 217.035795 -87.330273 
L 214.955705 -85.930309 
L 212.875614 -84.712141 
L 210.795524 -83.481417 
L 208.715434 -82.068146 
L 206.635344 -80.666568 
L 204.555254 -79.992336 
L 202.475163 -78.934191 
L 200.395073 -77.765031 
L 198.314983 -76.836558 
L 196.234893 -75.943015 
L 194.154803 -75.209062 
L 192.074713 -74.564834 
L 189.994622 -73.738326 
L 187.914532 -73.185078 
L 185.834442 -72.714568 
L 183.754352 -72.280006 
L 181.674262 -71.849418 
L 179.594171 -71.688647 
L 177.514081 -71.484156 
L 175.433991 -71.440576 
L 173.353901 -71.358623 
L 171.273811 -71.251024 
L 169.19372 -71.4201 
L 167.11363 -71.69682 
L 165.03354 -72.013616 
L 162.95345 -72.432259 
L 160.87336 -73.047304 
L 158.793269 -73.660014 
L 156.713179 -74.08599 
L 154.633089 -74.83012 
L 152.552999 -75.526915 
L 150.472909 -76.531045 
L 148.392818 -77.475517 
L 146.312728 -78.590674 
L 144.232638 -79.646035 
L 142.152548 -80.786154 
L 140.072458 -82.04546 
L 137.992367 -83.360878 
L 135.912277 -84.687064 
L 133.832187 -86.188591 
L 131.752097 -87.640532 
L 129.672007 -89.128203 
L 127.591917 -90.713414 
L 125.511826 -92.213374 
L 123.431736 -94.023691 
L 121.351646 -95.996535 
L 119.271556 -97.722589 
L 117.191466 -99.419578 
L 115.111375 -101.470829 
L 113.031285 -103.461212 
L 110.951195 -105.633223 
L 108.871105 -107.812301 
L 106.791015 -109.966193 
L 104.710924 -112.479768 
L 102.630834 -114.831207 
L 100.550744 -117.305631 
L 98.470654 -119.998807 
L 96.390564 -122.764842 
L 94.310473 -125.904976 
L 92.230383 -129.119074 
L 90.150293 -132.282713 
L 88.070203 -135.66068 
L 85.990113 -139.597956 
L 83.910022 -143.413696 
z
" style="stroke: #fa7c17; stroke-opacity: 0.25"/>
    </defs>
    <g clip-path="url(#p54b49d7f6a)">
     <use xlink:href="#m8d1545c1e8" x="0" y="353.99952" style="fill: #fa7c17; fill-opacity: 0.25; stroke: #fa7c17; stroke-opacity: 0.25"/>
    </g>
   </g>
   <g id="line2d_31">
    <path d="M 83.910022 227.016605 
L 85.990113 229.292052 
L 88.070203 231.97059 
L 92.230383 236.430632 
L 94.310473 238.813243 
L 96.390564 241.424187 
L 102.630834 248.486152 
L 104.710924 250.681614 
L 106.791015 253.180896 
L 115.111375 262.135304 
L 117.191466 264.288058 
L 121.351646 267.846102 
L 123.431736 269.863307 
L 125.511826 271.7253 
L 131.752097 276.200961 
L 135.912277 279.001806 
L 142.152548 282.481218 
L 148.392818 285.263306 
L 152.552999 286.883483 
L 154.633089 287.399748 
L 156.713179 288.033335 
L 158.793269 288.341033 
L 162.95345 289.322699 
L 167.11363 289.874865 
L 171.273811 290.328124 
L 181.674262 290.088134 
L 189.994622 288.577008 
L 192.074713 287.847582 
L 196.234893 286.624265 
L 200.395073 284.901674 
L 204.555254 282.658879 
L 206.635344 281.963823 
L 212.875614 277.698884 
L 214.955705 276.404676 
L 217.035795 274.903776 
L 219.115885 273.640613 
L 223.276065 270.257297 
L 225.356156 268.786623 
L 227.436246 266.644738 
L 229.516336 265.285858 
L 235.756607 259.728177 
L 241.996877 253.552473 
L 250.317238 245.070504 
L 254.477418 240.831092 
L 256.557509 238.494265 
L 260.717689 234.0651 
L 262.797779 231.896205 
L 264.877869 229.422336 
L 266.957959 227.235776 
L 269.03805 224.785832 
L 273.19823 220.316383 
L 289.838952 201.023267 
L 291.919042 198.481707 
L 293.999132 196.206621 
L 296.079222 193.549916 
L 298.159312 191.290702 
L 300.239403 188.609717 
L 318.960214 166.523129 
L 325.200485 159.519656 
L 333.520846 150.84412 
L 335.600936 148.499835 
L 337.681026 146.338136 
L 350.161567 134.844082 
L 354.321748 131.424507 
L 358.481928 128.39812 
L 360.562018 126.897834 
L 362.642108 124.967092 
L 364.722199 123.654392 
L 366.802289 122.548741 
L 370.962469 119.873761 
L 375.12265 117.569246 
L 377.20274 116.846565 
L 381.36292 115.023155 
L 387.603191 113.072079 
L 389.683281 112.599422 
L 391.763371 112.401781 
L 393.843461 111.786598 
L 395.923552 80.060267 
L 398.003642 79.001482 
L 404.243912 76.6406 
L 406.324002 76.245385 
L 408.404093 76.373292 
L 410.484183 75.901064 
L 414.644363 75.31229 
L 416.724453 75.849148 
L 418.804544 75.949506 
L 422.964724 75.845452 
L 425.044814 76.101399 
L 429.204995 77.292009 
L 431.285085 77.987258 
L 433.365175 78.917407 
L 435.445265 79.464299 
L 445.845716 86.097129 
L 450.005897 89.140483 
L 452.085987 91.062178 
L 454.166077 92.503594 
L 458.326257 95.965941 
L 462.486438 99.751732 
L 470.806798 107.01414 
L 472.886889 108.818553 
L 479.127159 115.006394 
L 483.28734 120.171661 
L 487.44752 124.600234 
L 493.687791 133.639381 
L 495.767881 137.511895 
L 497.847971 140.793392 
L 497.847971 140.793392 
" clip-path="url(#p54b49d7f6a)" style="fill: none; stroke: #fa7c17; stroke-opacity: 0; stroke-width: 1.5; stroke-linecap: round"/>
   </g>
   <g id="line2d_32">
    <path d="M 83.910022 210.585824 
L 88.070203 218.33884 
L 90.150293 221.716807 
L 96.390564 231.234678 
L 100.550744 236.693889 
L 106.791015 244.033327 
L 115.111375 252.528691 
L 117.191466 254.579942 
L 121.351646 258.002985 
L 123.431736 259.975829 
L 125.511826 261.786146 
L 135.912277 269.312456 
L 142.152548 273.213366 
L 148.392818 276.524003 
L 152.552999 278.472605 
L 156.713179 279.91353 
L 158.793269 280.339506 
L 162.95345 281.567261 
L 167.11363 282.3027 
L 171.273811 282.748496 
L 181.674262 282.150102 
L 187.914532 280.814442 
L 189.994622 280.261194 
L 192.074713 279.434686 
L 196.234893 278.056505 
L 200.395073 276.234489 
L 204.555254 274.007184 
L 206.635344 273.332952 
L 210.795524 270.518103 
L 214.955705 268.069211 
L 217.035795 266.669247 
L 219.115885 265.508666 
L 223.276065 262.33583 
L 225.356156 260.963756 
L 227.436246 258.937496 
L 229.516336 257.723712 
L 235.756607 252.519803 
L 239.916787 248.63617 
L 248.237148 240.390601 
L 254.477418 233.973428 
L 256.557509 231.571389 
L 258.637599 229.387627 
L 275.27832 210.147261 
L 277.35841 207.576816 
L 281.518591 202.852581 
L 285.678771 197.741598 
L 291.919042 190.13888 
L 293.999132 187.876726 
L 296.079222 185.267037 
L 298.159312 183.061032 
L 300.239403 180.445939 
L 316.880124 161.320093 
L 325.200485 152.224059 
L 333.520846 143.628612 
L 335.600936 141.303828 
L 337.681026 139.153971 
L 343.921297 133.257128 
L 348.081477 129.157748 
L 356.401838 122.114148 
L 360.562018 118.874155 
L 362.642108 116.760847 
L 364.722199 115.279737 
L 366.802289 113.998593 
L 370.962469 110.943517 
L 375.12265 108.174739 
L 377.20274 107.214841 
L 381.36292 104.747236 
L 387.603191 101.697831 
L 389.683281 100.803878 
L 391.763371 100.163274 
L 393.843461 99.020678 
L 395.923552 58.017193 
L 398.003642 57.781134 
L 404.243912 58.179015 
L 406.324002 58.714861 
L 408.404093 59.821994 
L 412.564273 60.827988 
L 414.644363 61.460385 
L 416.724453 62.926971 
L 418.804544 63.923121 
L 425.044814 66.330194 
L 429.204995 68.420805 
L 431.285085 69.346883 
L 433.365175 70.436841 
L 435.445265 70.933827 
L 439.605446 73.480932 
L 443.765626 75.472753 
L 450.005897 79.032211 
L 452.085987 80.669558 
L 454.166077 81.852957 
L 456.246167 83.244125 
L 460.406348 86.546275 
L 472.886889 97.994365 
L 477.047069 102.477255 
L 479.127159 104.658084 
L 481.207249 107.305407 
L 483.28734 109.703667 
L 485.36743 111.723579 
L 487.44752 113.456213 
L 489.52761 115.76562 
L 491.6077 117.521686 
L 493.687791 118.822027 
L 495.767881 120.888091 
L 497.847971 121.949493 
L 497.847971 121.949493 
" clip-path="url(#p54b49d7f6a)" style="fill: none; stroke: #fa7c17; stroke-opacity: 0; stroke-width: 1.5; stroke-linecap: round"/>
   </g>
   <g id="line2d_33">
    <path d="M 83.910022 219.15489 
L 88.070203 225.118557 
L 92.230383 230.814763 
L 96.390564 236.242141 
L 100.550744 241.399321 
L 104.710924 246.284937 
L 108.871105 250.897618 
L 113.031285 255.235999 
L 117.191466 259.29871 
L 121.351646 263.084383 
L 125.511826 266.591649 
L 129.672007 269.819142 
L 133.832187 272.765492 
L 137.992367 275.429332 
L 142.152548 277.809293 
L 146.312728 279.904008 
L 150.472909 281.712107 
L 154.633089 283.232223 
L 158.793269 284.462987 
L 162.95345 285.403032 
L 167.11363 286.05099 
L 171.273811 286.405491 
L 175.433991 286.465168 
L 179.594171 286.228653 
L 183.754352 285.694578 
L 187.914532 284.861574 
L 192.074713 283.728273 
L 196.234893 282.294415 
L 200.395073 280.568493 
L 204.555254 278.563155 
L 208.715434 276.291079 
L 212.875614 273.764938 
L 217.035795 270.997408 
L 221.195975 268.001165 
L 225.356156 264.788884 
L 229.516336 261.37324 
L 235.756607 255.896195 
L 241.996877 250.032882 
L 248.237148 243.82608 
L 254.477418 237.318568 
L 262.797779 228.248052 
L 271.11814 218.820394 
L 281.518591 206.68807 
L 314.800034 167.510969 
L 323.120395 158.181814 
L 329.360665 151.44116 
L 335.600936 144.970117 
L 341.841206 138.813684 
L 348.081477 133.016862 
L 354.321748 127.624651 
L 358.481928 124.276851 
L 362.642108 121.142212 
L 366.802289 118.234067 
L 370.962469 115.56575 
L 375.12265 113.150594 
L 379.28283 111.001933 
L 383.44301 109.133101 
L 387.603191 107.55743 
L 391.763371 106.288254 
L 393.843461 105.772768 
L 395.923552 68.923191 
L 400.083732 68.304596 
L 404.243912 68.013909 
L 408.404093 68.043405 
L 412.564273 68.385352 
L 416.724453 69.032022 
L 420.884634 69.975681 
L 425.044814 71.2086 
L 429.204995 72.723047 
L 433.365175 74.511293 
L 437.525355 76.565605 
L 441.685536 78.878253 
L 445.845716 81.441506 
L 450.005897 84.247633 
L 454.166077 87.288903 
L 458.326257 90.557586 
L 462.486438 94.045951 
L 466.646618 97.746266 
L 472.886889 103.677234 
L 479.127159 110.041606 
L 485.36743 116.813289 
L 491.6077 123.966191 
L 497.847971 131.47422 
L 497.847971 131.47422 
" clip-path="url(#p54b49d7f6a)" style="fill: none; stroke: #000000; stroke-width: 1.5; stroke-linecap: round"/>
   </g>
   <g id="line2d_34">
    <path d="M 395.293195 311.232957 
L 395.293195 45.712 
" clip-path="url(#p54b49d7f6a)" style="fill: none; stroke: #ff0000; stroke-width: 3; stroke-linecap: round"/>
   </g>
   <g id="patch_3">
    <path d="M 63.213125 311.232957 
L 63.213125 45.712 
" style="fill: none"/>
   </g>
   <g id="patch_4">
    <path d="M 518.544868 311.232957 
L 518.544868 45.712 
" style="fill: none"/>
   </g>
   <g id="patch_5">
    <path d="M 63.213125 311.232957 
L 518.544868 311.232957 
" style="fill: none"/>
   </g>
   <g id="patch_6">
    <path d="M 63.213125 45.712 
L 518.544868 45.712 
" style="fill: none"/>
   </g>
   <g id="text_18">
    <!-- Bayesian $R^2$ on all data = 0.973 (std = 0.004) -->
    <g style="fill: #262626" transform="translate(106.478997 21.76) scale(0.16 -0.16)">
     <defs>
      <path id="DejaVuSans-42" d="M 1259 2228 
L 1259 519 
L 2272 519 
Q 2781 519 3026 730 
Q 3272 941 3272 1375 
Q 3272 1813 3026 2020 
Q 2781 2228 2272 2228 
L 1259 2228 
z
M 1259 4147 
L 1259 2741 
L 2194 2741 
Q 2656 2741 2882 2914 
Q 3109 3088 3109 3444 
Q 3109 3797 2882 3972 
Q 2656 4147 2194 4147 
L 1259 4147 
z
M 628 4666 
L 2241 4666 
Q 2963 4666 3353 4366 
Q 3744 4066 3744 3513 
Q 3744 3084 3544 2831 
Q 3344 2578 2956 2516 
Q 3422 2416 3680 2098 
Q 3938 1781 3938 1306 
Q 3938 681 3513 340 
Q 3088 0 2303 0 
L 628 0 
L 628 4666 
z
" transform="scale(0.015625)"/>
      <path id="DejaVuSans-61" d="M 2194 1759 
Q 1497 1759 1228 1600 
Q 959 1441 959 1056 
Q 959 750 1161 570 
Q 1363 391 1709 391 
Q 2188 391 2477 730 
Q 2766 1069 2766 1631 
L 2766 1759 
L 2194 1759 
z
M 3341 1997 
L 3341 0 
L 2766 0 
L 2766 531 
Q 2569 213 2275 61 
Q 1981 -91 1556 -91 
Q 1019 -91 701 211 
Q 384 513 384 1019 
Q 384 1609 779 1909 
Q 1175 2209 1959 2209 
L 2766 2209 
L 2766 2266 
Q 2766 2663 2505 2880 
Q 2244 3097 1772 3097 
Q 1472 3097 1187 3025 
Q 903 2953 641 2809 
L 641 3341 
Q 956 3463 1253 3523 
Q 1550 3584 1831 3584 
Q 2591 3584 2966 3190 
Q 3341 2797 3341 1997 
z
" transform="scale(0.015625)"/>
      <path id="DejaVuSans-65" d="M 3597 1894 
L 3597 1613 
L 953 1613 
Q 991 1019 1311 708 
Q 1631 397 2203 397 
Q 2534 397 2845 478 
Q 3156 559 3463 722 
L 3463 178 
Q 3153 47 2828 -22 
Q 2503 -91 2169 -91 
Q 1331 -91 842 396 
Q 353 884 353 1716 
Q 353 2575 817 3079 
Q 1281 3584 2069 3584 
Q 2775 3584 3186 3129 
Q 3597 2675 3597 1894 
z
M 3022 2063 
Q 3016 2534 2758 2815 
Q 2500 3097 2075 3097 
Q 1594 3097 1305 2825 
Q 1016 2553 972 2059 
L 3022 2063 
z
" transform="scale(0.015625)"/>
      <path id="DejaVuSans-73" d="M 2834 3397 
L 2834 2853 
Q 2591 2978 2328 3040 
Q 2066 3103 1784 3103 
Q 1356 3103 1142 2972 
Q 928 2841 928 2578 
Q 928 2378 1081 2264 
Q 1234 2150 1697 2047 
L 1894 2003 
Q 2506 1872 2764 1633 
Q 3022 1394 3022 966 
Q 3022 478 2636 193 
Q 2250 -91 1575 -91 
Q 1294 -91 989 -36 
Q 684 19 347 128 
L 347 722 
Q 666 556 975 473 
Q 1284 391 1588 391 
Q 1994 391 2212 530 
Q 2431 669 2431 922 
Q 2431 1156 2273 1281 
Q 2116 1406 1581 1522 
L 1381 1569 
Q 847 1681 609 1914 
Q 372 2147 372 2553 
Q 372 3047 722 3315 
Q 1072 3584 1716 3584 
Q 2034 3584 2315 3537 
Q 2597 3491 2834 3397 
z
" transform="scale(0.015625)"/>
      <path id="DejaVuSans-69" d="M 603 3500 
L 1178 3500 
L 1178 0 
L 603 0 
L 603 3500 
z
M 603 4863 
L 1178 4863 
L 1178 4134 
L 603 4134 
L 603 4863 
z
" transform="scale(0.015625)"/>
      <path id="DejaVuSans-6e" d="M 3513 2113 
L 3513 0 
L 2938 0 
L 2938 2094 
Q 2938 2591 2744 2837 
Q 2550 3084 2163 3084 
Q 1697 3084 1428 2787 
Q 1159 2491 1159 1978 
L 1159 0 
L 581 0 
L 581 3500 
L 1159 3500 
L 1159 2956 
Q 1366 3272 1645 3428 
Q 1925 3584 2291 3584 
Q 2894 3584 3203 3211 
Q 3513 2838 3513 2113 
z
" transform="scale(0.015625)"/>
      <path id="DejaVuSans-20" transform="scale(0.015625)"/>
      <path id="DejaVuSans-Oblique-52" d="M 1613 4147 
L 1294 2491 
L 2106 2491 
Q 2584 2491 2879 2755 
Q 3175 3019 3175 3444 
Q 3175 3784 2976 3965 
Q 2778 4147 2406 4147 
L 1613 4147 
z
M 2772 2241 
Q 2972 2194 3105 2009 
Q 3238 1825 3413 1275 
L 3809 0 
L 3144 0 
L 2778 1197 
Q 2638 1659 2453 1815 
Q 2269 1972 1888 1972 
L 1191 1972 
L 806 0 
L 172 0 
L 1081 4666 
L 2503 4666 
Q 3150 4666 3495 4373 
Q 3841 4081 3841 3531 
Q 3841 3044 3547 2687 
Q 3253 2331 2772 2241 
z
" transform="scale(0.015625)"/>
      <path id="DejaVuSans-6f" d="M 1959 3097 
Q 1497 3097 1228 2736 
Q 959 2375 959 1747 
Q 959 1119 1226 758 
Q 1494 397 1959 397 
Q 2419 397 2687 759 
Q 2956 1122 2956 1747 
Q 2956 2369 2687 2733 
Q 2419 3097 1959 3097 
z
M 1959 3584 
Q 2709 3584 3137 3096 
Q 3566 2609 3566 1747 
Q 3566 888 3137 398 
Q 2709 -91 1959 -91 
Q 1206 -91 779 398 
Q 353 888 353 1747 
Q 353 2609 779 3096 
Q 1206 3584 1959 3584 
z
" transform="scale(0.015625)"/>
      <path id="DejaVuSans-6c" d="M 603 4863 
L 1178 4863 
L 1178 0 
L 603 0 
L 603 4863 
z
" transform="scale(0.015625)"/>
      <path id="DejaVuSans-64" d="M 2906 2969 
L 2906 4863 
L 3481 4863 
L 3481 0 
L 2906 0 
L 2906 525 
Q 2725 213 2448 61 
Q 2172 -91 1784 -91 
Q 1150 -91 751 415 
Q 353 922 353 1747 
Q 353 2572 751 3078 
Q 1150 3584 1784 3584 
Q 2172 3584 2448 3432 
Q 2725 3281 2906 2969 
z
M 947 1747 
Q 947 1113 1208 752 
Q 1469 391 1925 391 
Q 2381 391 2643 752 
Q 2906 1113 2906 1747 
Q 2906 2381 2643 2742 
Q 2381 3103 1925 3103 
Q 1469 3103 1208 2742 
Q 947 2381 947 1747 
z
" transform="scale(0.015625)"/>
      <path id="DejaVuSans-74" d="M 1172 4494 
L 1172 3500 
L 2356 3500 
L 2356 3053 
L 1172 3053 
L 1172 1153 
Q 1172 725 1289 603 
Q 1406 481 1766 481 
L 2356 481 
L 2356 0 
L 1766 0 
Q 1100 0 847 248 
Q 594 497 594 1153 
L 594 3053 
L 172 3053 
L 172 3500 
L 594 3500 
L 594 4494 
L 1172 4494 
z
" transform="scale(0.015625)"/>
      <path id="DejaVuSans-3d" d="M 678 2906 
L 4684 2906 
L 4684 2381 
L 678 2381 
L 678 2906 
z
M 678 1631 
L 4684 1631 
L 4684 1100 
L 678 1100 
L 678 1631 
z
" transform="scale(0.015625)"/>
      <path id="DejaVuSans-39" d="M 703 97 
L 703 672 
Q 941 559 1184 500 
Q 1428 441 1663 441 
Q 2288 441 2617 861 
Q 2947 1281 2994 2138 
Q 2813 1869 2534 1725 
Q 2256 1581 1919 1581 
Q 1219 1581 811 2004 
Q 403 2428 403 3163 
Q 403 3881 828 4315 
Q 1253 4750 1959 4750 
Q 2769 4750 3195 4129 
Q 3622 3509 3622 2328 
Q 3622 1225 3098 567 
Q 2575 -91 1691 -91 
Q 1453 -91 1209 -44 
Q 966 3 703 97 
z
M 1959 2075 
Q 2384 2075 2632 2365 
Q 2881 2656 2881 3163 
Q 2881 3666 2632 3958 
Q 2384 4250 1959 4250 
Q 1534 4250 1286 3958 
Q 1038 3666 1038 3163 
Q 1038 2656 1286 2365 
Q 1534 2075 1959 2075 
z
" transform="scale(0.015625)"/>
      <path id="DejaVuSans-33" d="M 2597 2516 
Q 3050 2419 3304 2112 
Q 3559 1806 3559 1356 
Q 3559 666 3084 287 
Q 2609 -91 1734 -91 
Q 1441 -91 1130 -33 
Q 819 25 488 141 
L 488 750 
Q 750 597 1062 519 
Q 1375 441 1716 441 
Q 2309 441 2620 675 
Q 2931 909 2931 1356 
Q 2931 1769 2642 2001 
Q 2353 2234 1838 2234 
L 1294 2234 
L 1294 2753 
L 1863 2753 
Q 2328 2753 2575 2939 
Q 2822 3125 2822 3475 
Q 2822 3834 2567 4026 
Q 2313 4219 1838 4219 
Q 1578 4219 1281 4162 
Q 984 4106 628 3988 
L 628 4550 
Q 988 4650 1302 4700 
Q 1616 4750 1894 4750 
Q 2613 4750 3031 4423 
Q 3450 4097 3450 3541 
Q 3450 3153 3228 2886 
Q 3006 2619 2597 2516 
z
" transform="scale(0.015625)"/>
      <path id="DejaVuSans-28" d="M 1984 4856 
Q 1566 4138 1362 3434 
Q 1159 2731 1159 2009 
Q 1159 1288 1364 580 
Q 1569 -128 1984 -844 
L 1484 -844 
Q 1016 -109 783 600 
Q 550 1309 550 2009 
Q 550 2706 781 3412 
Q 1013 4119 1484 4856 
L 1984 4856 
z
" transform="scale(0.015625)"/>
      <path id="DejaVuSans-34" d="M 2419 4116 
L 825 1625 
L 2419 1625 
L 2419 4116 
z
M 2253 4666 
L 3047 4666 
L 3047 1625 
L 3713 1625 
L 3713 1100 
L 3047 1100 
L 3047 0 
L 2419 0 
L 2419 1100 
L 313 1100 
L 313 1709 
L 2253 4666 
z
" transform="scale(0.015625)"/>
      <path id="DejaVuSans-29" d="M 513 4856 
L 1013 4856 
Q 1481 4119 1714 3412 
Q 1947 2706 1947 2009 
Q 1947 1309 1714 600 
Q 1481 -109 1013 -844 
L 513 -844 
Q 928 -128 1133 580 
Q 1338 1288 1338 2009 
Q 1338 2731 1133 3434 
Q 928 4138 513 4856 
z
" transform="scale(0.015625)"/>
     </defs>
     <use xlink:href="#DejaVuSans-42" transform="translate(0 0.765625)"/>
     <use xlink:href="#DejaVuSans-61" transform="translate(68.603516 0.765625)"/>
     <use xlink:href="#DejaVuSans-79" transform="translate(129.882812 0.765625)"/>
     <use xlink:href="#DejaVuSans-65" transform="translate(189.0625 0.765625)"/>
     <use xlink:href="#DejaVuSans-73" transform="translate(250.585938 0.765625)"/>
     <use xlink:href="#DejaVuSans-69" transform="translate(302.685547 0.765625)"/>
     <use xlink:href="#DejaVuSans-61" transform="translate(330.46875 0.765625)"/>
     <use xlink:href="#DejaVuSans-6e" transform="translate(391.748047 0.765625)"/>
     <use xlink:href="#DejaVuSans-20" transform="translate(455.126953 0.765625)"/>
     <use xlink:href="#DejaVuSans-Oblique-52" transform="translate(486.914062 0.765625)"/>
     <use xlink:href="#DejaVuSans-32" transform="translate(563.413255 39.046875) scale(0.7)"/>
     <use xlink:href="#DejaVuSans-20" transform="translate(610.683763 0.765625)"/>
     <use xlink:href="#DejaVuSans-6f" transform="translate(642.470872 0.765625)"/>
     <use xlink:href="#DejaVuSans-6e" transform="translate(703.652513 0.765625)"/>
     <use xlink:href="#DejaVuSans-20" transform="translate(767.031419 0.765625)"/>
     <use xlink:href="#DejaVuSans-61" transform="translate(798.818529 0.765625)"/>
     <use xlink:href="#DejaVuSans-6c" transform="translate(860.097826 0.765625)"/>
     <use xlink:href="#DejaVuSans-6c" transform="translate(887.881029 0.765625)"/>
     <use xlink:href="#DejaVuSans-20" transform="translate(915.664232 0.765625)"/>
     <use xlink:href="#DejaVuSans-64" transform="translate(947.451341 0.765625)"/>
     <use xlink:href="#DejaVuSans-61" transform="translate(1010.927904 0.765625)"/>
     <use xlink:href="#DejaVuSans-74" transform="translate(1072.207201 0.765625)"/>
     <use xlink:href="#DejaVuSans-61" transform="translate(1111.416185 0.765625)"/>
     <use xlink:href="#DejaVuSans-20" transform="translate(1172.695482 0.765625)"/>
     <use xlink:href="#DejaVuSans-3d" transform="translate(1204.482591 0.765625)"/>
     <use xlink:href="#DejaVuSans-20" transform="translate(1288.271654 0.765625)"/>
     <use xlink:href="#DejaVuSans-30" transform="translate(1320.058763 0.765625)"/>
     <use xlink:href="#DejaVuSans-2e" transform="translate(1383.68181 0.765625)"/>
     <use xlink:href="#DejaVuSans-39" transform="translate(1415.468919 0.765625)"/>
     <use xlink:href="#DejaVuSans-37" transform="translate(1479.091966 0.765625)"/>
     <use xlink:href="#DejaVuSans-33" transform="translate(1542.715013 0.765625)"/>
     <use xlink:href="#DejaVuSans-20" transform="translate(1606.33806 0.765625)"/>
     <use xlink:href="#DejaVuSans-28" transform="translate(1638.125169 0.765625)"/>
     <use xlink:href="#DejaVuSans-73" transform="translate(1677.138841 0.765625)"/>
     <use xlink:href="#DejaVuSans-74" transform="translate(1729.238451 0.765625)"/>
     <use xlink:href="#DejaVuSans-64" transform="translate(1768.447435 0.765625)"/>
     <use xlink:href="#DejaVuSans-20" transform="translate(1831.923997 0.765625)"/>
     <use xlink:href="#DejaVuSans-3d" transform="translate(1863.711107 0.765625)"/>
     <use xlink:href="#DejaVuSans-20" transform="translate(1947.500169 0.765625)"/>
     <use xlink:href="#DejaVuSans-30" transform="translate(1979.287279 0.765625)"/>
     <use xlink:href="#DejaVuSans-2e" transform="translate(2042.910326 0.765625)"/>
     <use xlink:href="#DejaVuSans-30" transform="translate(2074.697435 0.765625)"/>
     <use xlink:href="#DejaVuSans-30" transform="translate(2138.320482 0.765625)"/>
     <use xlink:href="#DejaVuSans-34" transform="translate(2201.943529 0.765625)"/>
     <use xlink:href="#DejaVuSans-29" transform="translate(2265.566576 0.765625)"/>
    </g>
    <!-- Discontinuity at threshold = 0.41, $CI_{94\%}$[0.23, 0.58] -->
    <g style="fill: #262626" transform="translate(85.518997 39.712) scale(0.16 -0.16)">
     <defs>
      <path id="DejaVuSans-44" d="M 1259 4147 
L 1259 519 
L 2022 519 
Q 2988 519 3436 956 
Q 3884 1394 3884 2338 
Q 3884 3275 3436 3711 
Q 2988 4147 2022 4147 
L 1259 4147 
z
M 628 4666 
L 1925 4666 
Q 3281 4666 3915 4102 
Q 4550 3538 4550 2338 
Q 4550 1131 3912 565 
Q 3275 0 1925 0 
L 628 0 
L 628 4666 
z
" transform="scale(0.015625)"/>
      <path id="DejaVuSans-63" d="M 3122 3366 
L 3122 2828 
Q 2878 2963 2633 3030 
Q 2388 3097 2138 3097 
Q 1578 3097 1268 2742 
Q 959 2388 959 1747 
Q 959 1106 1268 751 
Q 1578 397 2138 397 
Q 2388 397 2633 464 
Q 2878 531 3122 666 
L 3122 134 
Q 2881 22 2623 -34 
Q 2366 -91 2075 -91 
Q 1284 -91 818 406 
Q 353 903 353 1747 
Q 353 2603 823 3093 
Q 1294 3584 2113 3584 
Q 2378 3584 2631 3529 
Q 2884 3475 3122 3366 
z
" transform="scale(0.015625)"/>
      <path id="DejaVuSans-75" d="M 544 1381 
L 544 3500 
L 1119 3500 
L 1119 1403 
Q 1119 906 1312 657 
Q 1506 409 1894 409 
Q 2359 409 2629 706 
Q 2900 1003 2900 1516 
L 2900 3500 
L 3475 3500 
L 3475 0 
L 2900 0 
L 2900 538 
Q 2691 219 2414 64 
Q 2138 -91 1772 -91 
Q 1169 -91 856 284 
Q 544 659 544 1381 
z
M 1991 3584 
L 1991 3584 
z
" transform="scale(0.015625)"/>
      <path id="DejaVuSans-68" d="M 3513 2113 
L 3513 0 
L 2938 0 
L 2938 2094 
Q 2938 2591 2744 2837 
Q 2550 3084 2163 3084 
Q 1697 3084 1428 2787 
Q 1159 2491 1159 1978 
L 1159 0 
L 581 0 
L 581 4863 
L 1159 4863 
L 1159 2956 
Q 1366 3272 1645 3428 
Q 1925 3584 2291 3584 
Q 2894 3584 3203 3211 
Q 3513 2838 3513 2113 
z
" transform="scale(0.015625)"/>
      <path id="DejaVuSans-72" d="M 2631 2963 
Q 2534 3019 2420 3045 
Q 2306 3072 2169 3072 
Q 1681 3072 1420 2755 
Q 1159 2438 1159 1844 
L 1159 0 
L 581 0 
L 581 3500 
L 1159 3500 
L 1159 2956 
Q 1341 3275 1631 3429 
Q 1922 3584 2338 3584 
Q 2397 3584 2469 3576 
Q 2541 3569 2628 3553 
L 2631 2963 
z
" transform="scale(0.015625)"/>
      <path id="DejaVuSans-2c" d="M 750 794 
L 1409 794 
L 1409 256 
L 897 -744 
L 494 -744 
L 750 256 
L 750 794 
z
" transform="scale(0.015625)"/>
      <path id="DejaVuSans-Oblique-43" d="M 4447 4306 
L 4319 3641 
Q 4019 3944 3683 4091 
Q 3347 4238 2956 4238 
Q 2422 4238 2017 3981 
Q 1613 3725 1319 3200 
Q 1131 2863 1032 2486 
Q 934 2109 934 1728 
Q 934 1091 1264 756 
Q 1594 422 2222 422 
Q 2656 422 3056 561 
Q 3456 700 3834 978 
L 3688 231 
Q 3316 72 2936 -9 
Q 2556 -91 2175 -91 
Q 1278 -91 773 396 
Q 269 884 269 1753 
Q 269 2309 461 2846 
Q 653 3384 1013 3828 
Q 1394 4300 1883 4525 
Q 2372 4750 3022 4750 
Q 3422 4750 3780 4639 
Q 4138 4528 4447 4306 
z
" transform="scale(0.015625)"/>
      <path id="DejaVuSans-Oblique-49" d="M 1081 4666 
L 1716 4666 
L 806 0 
L 172 0 
L 1081 4666 
z
" transform="scale(0.015625)"/>
      <path id="DejaVuSans-25" d="M 4653 2053 
Q 4381 2053 4226 1822 
Q 4072 1591 4072 1178 
Q 4072 772 4226 539 
Q 4381 306 4653 306 
Q 4919 306 5073 539 
Q 5228 772 5228 1178 
Q 5228 1588 5073 1820 
Q 4919 2053 4653 2053 
z
M 4653 2450 
Q 5147 2450 5437 2106 
Q 5728 1763 5728 1178 
Q 5728 594 5436 251 
Q 5144 -91 4653 -91 
Q 4153 -91 3862 251 
Q 3572 594 3572 1178 
Q 3572 1766 3864 2108 
Q 4156 2450 4653 2450 
z
M 1428 4353 
Q 1159 4353 1004 4120 
Q 850 3888 850 3481 
Q 850 3069 1003 2837 
Q 1156 2606 1428 2606 
Q 1700 2606 1854 2837 
Q 2009 3069 2009 3481 
Q 2009 3884 1853 4118 
Q 1697 4353 1428 4353 
z
M 4250 4750 
L 4750 4750 
L 1831 -91 
L 1331 -91 
L 4250 4750 
z
M 1428 4750 
Q 1922 4750 2215 4408 
Q 2509 4066 2509 3481 
Q 2509 2891 2217 2550 
Q 1925 2209 1428 2209 
Q 931 2209 642 2551 
Q 353 2894 353 3481 
Q 353 4063 643 4406 
Q 934 4750 1428 4750 
z
" transform="scale(0.015625)"/>
      <path id="DejaVuSans-5b" d="M 550 4863 
L 1875 4863 
L 1875 4416 
L 1125 4416 
L 1125 -397 
L 1875 -397 
L 1875 -844 
L 550 -844 
L 550 4863 
z
" transform="scale(0.015625)"/>
      <path id="DejaVuSans-38" d="M 2034 2216 
Q 1584 2216 1326 1975 
Q 1069 1734 1069 1313 
Q 1069 891 1326 650 
Q 1584 409 2034 409 
Q 2484 409 2743 651 
Q 3003 894 3003 1313 
Q 3003 1734 2745 1975 
Q 2488 2216 2034 2216 
z
M 1403 2484 
Q 997 2584 770 2862 
Q 544 3141 544 3541 
Q 544 4100 942 4425 
Q 1341 4750 2034 4750 
Q 2731 4750 3128 4425 
Q 3525 4100 3525 3541 
Q 3525 3141 3298 2862 
Q 3072 2584 2669 2484 
Q 3125 2378 3379 2068 
Q 3634 1759 3634 1313 
Q 3634 634 3220 271 
Q 2806 -91 2034 -91 
Q 1263 -91 848 271 
Q 434 634 434 1313 
Q 434 1759 690 2068 
Q 947 2378 1403 2484 
z
M 1172 3481 
Q 1172 3119 1398 2916 
Q 1625 2713 2034 2713 
Q 2441 2713 2670 2916 
Q 2900 3119 2900 3481 
Q 2900 3844 2670 4047 
Q 2441 4250 2034 4250 
Q 1625 4250 1398 4047 
Q 1172 3844 1172 3481 
z
" transform="scale(0.015625)"/>
      <path id="DejaVuSans-5d" d="M 1947 4863 
L 1947 -844 
L 622 -844 
L 622 -397 
L 1369 -397 
L 1369 4416 
L 622 4416 
L 622 4863 
L 1947 4863 
z
" transform="scale(0.015625)"/>
     </defs>
     <use xlink:href="#DejaVuSans-44" transform="translate(0 0.015625)"/>
     <use xlink:href="#DejaVuSans-69" transform="translate(77.001953 0.015625)"/>
     <use xlink:href="#DejaVuSans-73" transform="translate(104.785156 0.015625)"/>
     <use xlink:href="#DejaVuSans-63" transform="translate(156.884766 0.015625)"/>
     <use xlink:href="#DejaVuSans-6f" transform="translate(211.865234 0.015625)"/>
     <use xlink:href="#DejaVuSans-6e" transform="translate(273.046875 0.015625)"/>
     <use xlink:href="#DejaVuSans-74" transform="translate(336.425781 0.015625)"/>
     <use xlink:href="#DejaVuSans-69" transform="translate(375.634766 0.015625)"/>
     <use xlink:href="#DejaVuSans-6e" transform="translate(403.417969 0.015625)"/>
     <use xlink:href="#DejaVuSans-75" transform="translate(466.796875 0.015625)"/>
     <use xlink:href="#DejaVuSans-69" transform="translate(530.175781 0.015625)"/>
     <use xlink:href="#DejaVuSans-74" transform="translate(557.958984 0.015625)"/>
     <use xlink:href="#DejaVuSans-79" transform="translate(597.167969 0.015625)"/>
     <use xlink:href="#DejaVuSans-20" transform="translate(656.347656 0.015625)"/>
     <use xlink:href="#DejaVuSans-61" transform="translate(688.134766 0.015625)"/>
     <use xlink:href="#DejaVuSans-74" transform="translate(749.414062 0.015625)"/>
     <use xlink:href="#DejaVuSans-20" transform="translate(788.623047 0.015625)"/>
     <use xlink:href="#DejaVuSans-74" transform="translate(820.410156 0.015625)"/>
     <use xlink:href="#DejaVuSans-68" transform="translate(859.619141 0.015625)"/>
     <use xlink:href="#DejaVuSans-72" transform="translate(922.998047 0.015625)"/>
     <use xlink:href="#DejaVuSans-65" transform="translate(964.111328 0.015625)"/>
     <use xlink:href="#DejaVuSans-73" transform="translate(1025.634766 0.015625)"/>
     <use xlink:href="#DejaVuSans-68" transform="translate(1077.734375 0.015625)"/>
     <use xlink:href="#DejaVuSans-6f" transform="translate(1141.113281 0.015625)"/>
     <use xlink:href="#DejaVuSans-6c" transform="translate(1202.294922 0.015625)"/>
     <use xlink:href="#DejaVuSans-64" transform="translate(1230.078125 0.015625)"/>
     <use xlink:href="#DejaVuSans-20" transform="translate(1293.554688 0.015625)"/>
     <use xlink:href="#DejaVuSans-3d" transform="translate(1325.341797 0.015625)"/>
     <use xlink:href="#DejaVuSans-20" transform="translate(1409.130859 0.015625)"/>
     <use xlink:href="#DejaVuSans-30" transform="translate(1440.917969 0.015625)"/>
     <use xlink:href="#DejaVuSans-2e" transform="translate(1504.541016 0.015625)"/>
     <use xlink:href="#DejaVuSans-34" transform="translate(1536.328125 0.015625)"/>
     <use xlink:href="#DejaVuSans-31" transform="translate(1599.951172 0.015625)"/>
     <use xlink:href="#DejaVuSans-2c" transform="translate(1663.574219 0.015625)"/>
     <use xlink:href="#DejaVuSans-20" transform="translate(1695.361328 0.015625)"/>
     <use xlink:href="#DejaVuSans-Oblique-43" transform="translate(1727.148438 0.015625)"/>
     <use xlink:href="#DejaVuSans-Oblique-49" transform="translate(1796.972656 0.015625)"/>
     <use xlink:href="#DejaVuSans-39" transform="translate(1826.464844 -16.390625) scale(0.7)"/>
     <use xlink:href="#DejaVuSans-34" transform="translate(1871.000977 -16.390625) scale(0.7)"/>
     <use xlink:href="#DejaVuSans-25" transform="translate(1915.537109 -16.390625) scale(0.7)"/>
     <use xlink:href="#DejaVuSans-5b" transform="translate(1984.785156 0.015625)"/>
     <use xlink:href="#DejaVuSans-30" transform="translate(2023.798828 0.015625)"/>
     <use xlink:href="#DejaVuSans-2e" transform="translate(2087.421875 0.015625)"/>
     <use xlink:href="#DejaVuSans-32" transform="translate(2113.708984 0.015625)"/>
     <use xlink:href="#DejaVuSans-33" transform="translate(2177.332031 0.015625)"/>
     <use xlink:href="#DejaVuSans-2c" transform="translate(2240.955078 0.015625)"/>
     <use xlink:href="#DejaVuSans-20" transform="translate(2272.742188 0.015625)"/>
     <use xlink:href="#DejaVuSans-30" transform="translate(2304.529297 0.015625)"/>
     <use xlink:href="#DejaVuSans-2e" transform="translate(2368.152344 0.015625)"/>
     <use xlink:href="#DejaVuSans-35" transform="translate(2399.939453 0.015625)"/>
     <use xlink:href="#DejaVuSans-38" transform="translate(2463.5625 0.015625)"/>
     <use xlink:href="#DejaVuSans-5d" transform="translate(2527.185547 0.015625)"/>
    </g>
   </g>
   <g id="legend_1">
    <g id="patch_7">
     <path d="M 74.013125 65.630125 
L 98.013125 65.630125 
L 98.013125 57.230125 
L 74.013125 57.230125 
z
" style="fill: #fa7c17; fill-opacity: 0.25; stroke: #fa7c17; stroke-opacity: 0.25; stroke-linejoin: miter"/>
    </g>
    <g id="text_19">
     <!-- 94.0% HDI -->
     <g style="fill: #262626" transform="translate(107.613125 65.630125) scale(0.12 -0.12)">
      <defs>
       <path id="DejaVuSans-48" d="M 628 4666 
L 1259 4666 
L 1259 2753 
L 3553 2753 
L 3553 4666 
L 4184 4666 
L 4184 0 
L 3553 0 
L 3553 2222 
L 1259 2222 
L 1259 0 
L 628 0 
L 628 4666 
z
" transform="scale(0.015625)"/>
       <path id="DejaVuSans-49" d="M 628 4666 
L 1259 4666 
L 1259 0 
L 628 0 
L 628 4666 
z
" transform="scale(0.015625)"/>
      </defs>
      <use xlink:href="#DejaVuSans-39"/>
      <use xlink:href="#DejaVuSans-34" x="63.623047"/>
      <use xlink:href="#DejaVuSans-2e" x="127.246094"/>
      <use xlink:href="#DejaVuSans-30" x="159.033203"/>
      <use xlink:href="#DejaVuSans-25" x="222.65625"/>
      <use xlink:href="#DejaVuSans-20" x="317.675781"/>
      <use xlink:href="#DejaVuSans-48" x="349.462891"/>
      <use xlink:href="#DejaVuSans-44" x="424.658203"/>
      <use xlink:href="#DejaVuSans-49" x="501.660156"/>
     </g>
    </g>
    <g id="line2d_35">
     <path d="M 74.013125 79.043875 
L 86.013125 79.043875 
L 98.013125 79.043875 
" style="fill: none; stroke: #000000; stroke-width: 1.5; stroke-linecap: round"/>
    </g>
    <g id="text_20">
     <!-- Posterior mean -->
     <g style="fill: #262626" transform="translate(107.613125 83.243875) scale(0.12 -0.12)">
      <defs>
       <path id="DejaVuSans-50" d="M 1259 4147 
L 1259 2394 
L 2053 2394 
Q 2494 2394 2734 2622 
Q 2975 2850 2975 3272 
Q 2975 3691 2734 3919 
Q 2494 4147 2053 4147 
L 1259 4147 
z
M 628 4666 
L 2053 4666 
Q 2838 4666 3239 4311 
Q 3641 3956 3641 3272 
Q 3641 2581 3239 2228 
Q 2838 1875 2053 1875 
L 1259 1875 
L 1259 0 
L 628 0 
L 628 4666 
z
" transform="scale(0.015625)"/>
       <path id="DejaVuSans-6d" d="M 3328 2828 
Q 3544 3216 3844 3400 
Q 4144 3584 4550 3584 
Q 5097 3584 5394 3201 
Q 5691 2819 5691 2113 
L 5691 0 
L 5113 0 
L 5113 2094 
Q 5113 2597 4934 2840 
Q 4756 3084 4391 3084 
Q 3944 3084 3684 2787 
Q 3425 2491 3425 1978 
L 3425 0 
L 2847 0 
L 2847 2094 
Q 2847 2600 2669 2842 
Q 2491 3084 2119 3084 
Q 1678 3084 1418 2786 
Q 1159 2488 1159 1978 
L 1159 0 
L 581 0 
L 581 3500 
L 1159 3500 
L 1159 2956 
Q 1356 3278 1631 3431 
Q 1906 3584 2284 3584 
Q 2666 3584 2933 3390 
Q 3200 3197 3328 2828 
z
" transform="scale(0.015625)"/>
      </defs>
      <use xlink:href="#DejaVuSans-50"/>
      <use xlink:href="#DejaVuSans-6f" x="56.677734"/>
      <use xlink:href="#DejaVuSans-73" x="117.859375"/>
      <use xlink:href="#DejaVuSans-74" x="169.958984"/>
      <use xlink:href="#DejaVuSans-65" x="209.167969"/>
      <use xlink:href="#DejaVuSans-72" x="270.691406"/>
      <use xlink:href="#DejaVuSans-69" x="311.804688"/>
      <use xlink:href="#DejaVuSans-6f" x="339.587891"/>
      <use xlink:href="#DejaVuSans-72" x="400.769531"/>
      <use xlink:href="#DejaVuSans-20" x="441.882812"/>
      <use xlink:href="#DejaVuSans-6d" x="473.669922"/>
      <use xlink:href="#DejaVuSans-65" x="571.082031"/>
      <use xlink:href="#DejaVuSans-61" x="632.605469"/>
      <use xlink:href="#DejaVuSans-6e" x="693.884766"/>
     </g>
    </g>
    <g id="line2d_36">
     <path d="M 74.013125 96.657625 
L 86.013125 96.657625 
L 98.013125 96.657625 
" style="fill: none; stroke: #ff0000; stroke-width: 3; stroke-linecap: round"/>
    </g>
    <g id="text_21">
     <!-- treatment threshold -->
     <g style="fill: #262626" transform="translate(107.613125 100.857625) scale(0.12 -0.12)">
      <use xlink:href="#DejaVuSans-74"/>
      <use xlink:href="#DejaVuSans-72" x="39.208984"/>
      <use xlink:href="#DejaVuSans-65" x="78.072266"/>
      <use xlink:href="#DejaVuSans-61" x="139.595703"/>
      <use xlink:href="#DejaVuSans-74" x="200.875"/>
      <use xlink:href="#DejaVuSans-6d" x="240.083984"/>
      <use xlink:href="#DejaVuSans-65" x="337.496094"/>
      <use xlink:href="#DejaVuSans-6e" x="399.019531"/>
      <use xlink:href="#DejaVuSans-74" x="462.398438"/>
      <use xlink:href="#DejaVuSans-20" x="501.607422"/>
      <use xlink:href="#DejaVuSans-74" x="533.394531"/>
      <use xlink:href="#DejaVuSans-68" x="572.603516"/>
      <use xlink:href="#DejaVuSans-72" x="635.982422"/>
      <use xlink:href="#DejaVuSans-65" x="674.845703"/>
      <use xlink:href="#DejaVuSans-73" x="736.369141"/>
      <use xlink:href="#DejaVuSans-68" x="788.46875"/>
      <use xlink:href="#DejaVuSans-6f" x="851.847656"/>
      <use xlink:href="#DejaVuSans-6c" x="913.029297"/>
      <use xlink:href="#DejaVuSans-64" x="940.8125"/>
     </g>
    </g>
   </g>
  </g>
 </g>
 <defs>
  <clipPath id="p54b49d7f6a">
   <rect x="63.213125" y="45.712" width="455.331743" height="265.520957"/>
  </clipPath>
 </defs>
</svg>
