<?xml version="1.0" encoding="utf-8" standalone="no"?>
<!DOCTYPE svg PUBLIC "-//W3C//DTD SVG 1.1//EN"
  "http://www.w3.org/Graphics/SVG/1.1/DTD/svg11.dtd">
<svg xmlns:xlink="http://www.w3.org/1999/xlink" width="526.746263pt" height="353.99952pt" viewBox="0 0 526.746263 353.99952" xmlns="http://www.w3.org/2000/svg" version="1.1">
 <metadata>
  <rdf:RDF xmlns:dc="http://purl.org/dc/elements/1.1/" xmlns:cc="http://creativecommons.org/ns#" xmlns:rdf="http://www.w3.org/1999/02/22-rdf-syntax-ns#">
   <cc:Work>
    <dc:type rdf:resource="http://purl.org/dc/dcmitype/StillImage"/>
    <dc:date>2022-11-03T08:48:47.445530</dc:date>
    <dc:format>image/svg+xml</dc:format>
    <dc:creator>
     <cc:Agent>
      <dc:title>Matplotlib v3.6.2, https://matplotlib.org/</dc:title>
     </cc:Agent>
    </dc:creator>
   </cc:Work>
  </rdf:RDF>
 </metadata>
 <defs>
  <style type="text/css">*{stroke-linejoin: round; stroke-linecap: butt}</style>
 </defs>
 <g id="figure_1">
  <g id="patch_1">
   <path d="M 0 353.99952 
L 526.746263 353.99952 
L 526.746263 0 
L 0 0 
z
" style="fill: #ffffff"/>
  </g>
  <g id="axes_1">
   <g id="patch_2">
    <path d="M 63.213125 311.232957 
L 518.544868 311.232957 
L 518.544868 25.3575 
L 63.213125 25.3575 
z
" style="fill: #eeeeee"/>
   </g>
   <g id="matplotlib.axis_1">
    <g id="xtick_1">
     <g id="line2d_1">
      <path d="M 69.291804 311.232957 
L 69.291804 25.3575 
" clip-path="url(#p2d33f806a4)" style="fill: none; stroke: #ffffff; stroke-width: 0.8; stroke-linecap: round"/>
     </g>
     <g id="line2d_2"/>
     <g id="text_1">
      <!-- −1.00 -->
      <g style="fill: #262626" transform="translate(47.840085 325.37077) scale(0.14 -0.14)">
       <defs>
        <path id="DejaVuSans-2212" d="M 678 2272 
L 4684 2272 
L 4684 1741 
L 678 1741 
L 678 2272 
z
" transform="scale(0.015625)"/>
        <path id="DejaVuSans-31" d="M 794 531 
L 1825 531 
L 1825 4091 
L 703 3866 
L 703 4441 
L 1819 4666 
L 2450 4666 
L 2450 531 
L 3481 531 
L 3481 0 
L 794 0 
L 794 531 
z
" transform="scale(0.015625)"/>
        <path id="DejaVuSans-2e" d="M 684 794 
L 1344 794 
L 1344 0 
L 684 0 
L 684 794 
z
" transform="scale(0.015625)"/>
        <path id="DejaVuSans-30" d="M 2034 4250 
Q 1547 4250 1301 3770 
Q 1056 3291 1056 2328 
Q 1056 1369 1301 889 
Q 1547 409 2034 409 
Q 2525 409 2770 889 
Q 3016 1369 3016 2328 
Q 3016 3291 2770 3770 
Q 2525 4250 2034 4250 
z
M 2034 4750 
Q 2819 4750 3233 4129 
Q 3647 3509 3647 2328 
Q 3647 1150 3233 529 
Q 2819 -91 2034 -91 
Q 1250 -91 836 529 
Q 422 1150 422 2328 
Q 422 3509 836 4129 
Q 1250 4750 2034 4750 
z
" transform="scale(0.015625)"/>
       </defs>
       <use xlink:href="#DejaVuSans-2212"/>
       <use xlink:href="#DejaVuSans-31" x="83.789062"/>
       <use xlink:href="#DejaVuSans-2e" x="147.412109"/>
       <use xlink:href="#DejaVuSans-30" x="179.199219"/>
       <use xlink:href="#DejaVuSans-30" x="242.822266"/>
      </g>
     </g>
    </g>
    <g id="xtick_2">
     <g id="line2d_3">
      <path d="M 123.625369 311.232957 
L 123.625369 25.3575 
" clip-path="url(#p2d33f806a4)" style="fill: none; stroke: #ffffff; stroke-width: 0.8; stroke-linecap: round"/>
     </g>
     <g id="line2d_4"/>
     <g id="text_2">
      <!-- −0.75 -->
      <g style="fill: #262626" transform="translate(102.173651 325.37077) scale(0.14 -0.14)">
       <defs>
        <path id="DejaVuSans-37" d="M 525 4666 
L 3525 4666 
L 3525 4397 
L 1831 0 
L 1172 0 
L 2766 4134 
L 525 4134 
L 525 4666 
z
" transform="scale(0.015625)"/>
        <path id="DejaVuSans-35" d="M 691 4666 
L 3169 4666 
L 3169 4134 
L 1269 4134 
L 1269 2991 
Q 1406 3038 1543 3061 
Q 1681 3084 1819 3084 
Q 2600 3084 3056 2656 
Q 3513 2228 3513 1497 
Q 3513 744 3044 326 
Q 2575 -91 1722 -91 
Q 1428 -91 1123 -41 
Q 819 9 494 109 
L 494 744 
Q 775 591 1075 516 
Q 1375 441 1709 441 
Q 2250 441 2565 725 
Q 2881 1009 2881 1497 
Q 2881 1984 2565 2268 
Q 2250 2553 1709 2553 
Q 1456 2553 1204 2497 
Q 953 2441 691 2322 
L 691 4666 
z
" transform="scale(0.015625)"/>
       </defs>
       <use xlink:href="#DejaVuSans-2212"/>
       <use xlink:href="#DejaVuSans-30" x="83.789062"/>
       <use xlink:href="#DejaVuSans-2e" x="147.412109"/>
       <use xlink:href="#DejaVuSans-37" x="179.199219"/>
       <use xlink:href="#DejaVuSans-35" x="242.822266"/>
      </g>
     </g>
    </g>
    <g id="xtick_3">
     <g id="line2d_5">
      <path d="M 177.958935 311.232957 
L 177.958935 25.3575 
" clip-path="url(#p2d33f806a4)" style="fill: none; stroke: #ffffff; stroke-width: 0.8; stroke-linecap: round"/>
     </g>
     <g id="line2d_6"/>
     <g id="text_3">
      <!-- −0.50 -->
      <g style="fill: #262626" transform="translate(156.507216 325.37077) scale(0.14 -0.14)">
       <use xlink:href="#DejaVuSans-2212"/>
       <use xlink:href="#DejaVuSans-30" x="83.789062"/>
       <use xlink:href="#DejaVuSans-2e" x="147.412109"/>
       <use xlink:href="#DejaVuSans-35" x="179.199219"/>
       <use xlink:href="#DejaVuSans-30" x="242.822266"/>
      </g>
     </g>
    </g>
    <g id="xtick_4">
     <g id="line2d_7">
      <path d="M 232.2925 311.232957 
L 232.2925 25.3575 
" clip-path="url(#p2d33f806a4)" style="fill: none; stroke: #ffffff; stroke-width: 0.8; stroke-linecap: round"/>
     </g>
     <g id="line2d_8"/>
     <g id="text_4">
      <!-- −0.25 -->
      <g style="fill: #262626" transform="translate(210.840781 325.37077) scale(0.14 -0.14)">
       <defs>
        <path id="DejaVuSans-32" d="M 1228 531 
L 3431 531 
L 3431 0 
L 469 0 
L 469 531 
Q 828 903 1448 1529 
Q 2069 2156 2228 2338 
Q 2531 2678 2651 2914 
Q 2772 3150 2772 3378 
Q 2772 3750 2511 3984 
Q 2250 4219 1831 4219 
Q 1534 4219 1204 4116 
Q 875 4013 500 3803 
L 500 4441 
Q 881 4594 1212 4672 
Q 1544 4750 1819 4750 
Q 2544 4750 2975 4387 
Q 3406 4025 3406 3419 
Q 3406 3131 3298 2873 
Q 3191 2616 2906 2266 
Q 2828 2175 2409 1742 
Q 1991 1309 1228 531 
z
" transform="scale(0.015625)"/>
       </defs>
       <use xlink:href="#DejaVuSans-2212"/>
       <use xlink:href="#DejaVuSans-30" x="83.789062"/>
       <use xlink:href="#DejaVuSans-2e" x="147.412109"/>
       <use xlink:href="#DejaVuSans-32" x="179.199219"/>
       <use xlink:href="#DejaVuSans-35" x="242.822266"/>
      </g>
     </g>
    </g>
    <g id="xtick_5">
     <g id="line2d_9">
      <path d="M 286.626065 311.232957 
L 286.626065 25.3575 
" clip-path="url(#p2d33f806a4)" style="fill: none; stroke: #ffffff; stroke-width: 0.8; stroke-linecap: round"/>
     </g>
     <g id="line2d_10"/>
     <g id="text_5">
      <!-- 0.00 -->
      <g style="fill: #262626" transform="translate(271.040128 325.37077) scale(0.14 -0.14)">
       <use xlink:href="#DejaVuSans-30"/>
       <use xlink:href="#DejaVuSans-2e" x="63.623047"/>
       <use xlink:href="#DejaVuSans-30" x="95.410156"/>
       <use xlink:href="#DejaVuSans-30" x="159.033203"/>
      </g>
     </g>
    </g>
    <g id="xtick_6">
     <g id="line2d_11">
      <path d="M 340.95963 311.232957 
L 340.95963 25.3575 
" clip-path="url(#p2d33f806a4)" style="fill: none; stroke: #ffffff; stroke-width: 0.8; stroke-linecap: round"/>
     </g>
     <g id="line2d_12"/>
     <g id="text_6">
      <!-- 0.25 -->
      <g style="fill: #262626" transform="translate(325.373693 325.37077) scale(0.14 -0.14)">
       <use xlink:href="#DejaVuSans-30"/>
       <use xlink:href="#DejaVuSans-2e" x="63.623047"/>
       <use xlink:href="#DejaVuSans-32" x="95.410156"/>
       <use xlink:href="#DejaVuSans-35" x="159.033203"/>
      </g>
     </g>
    </g>
    <g id="xtick_7">
     <g id="line2d_13">
      <path d="M 395.293195 311.232957 
L 395.293195 25.3575 
" clip-path="url(#p2d33f806a4)" style="fill: none; stroke: #ffffff; stroke-width: 0.8; stroke-linecap: round"/>
     </g>
     <g id="line2d_14"/>
     <g id="text_7">
      <!-- 0.50 -->
      <g style="fill: #262626" transform="translate(379.707258 325.37077) scale(0.14 -0.14)">
       <use xlink:href="#DejaVuSans-30"/>
       <use xlink:href="#DejaVuSans-2e" x="63.623047"/>
       <use xlink:href="#DejaVuSans-35" x="95.410156"/>
       <use xlink:href="#DejaVuSans-30" x="159.033203"/>
      </g>
     </g>
    </g>
    <g id="xtick_8">
     <g id="line2d_15">
      <path d="M 449.626761 311.232957 
L 449.626761 25.3575 
" clip-path="url(#p2d33f806a4)" style="fill: none; stroke: #ffffff; stroke-width: 0.8; stroke-linecap: round"/>
     </g>
     <g id="line2d_16"/>
     <g id="text_8">
      <!-- 0.75 -->
      <g style="fill: #262626" transform="translate(434.040823 325.37077) scale(0.14 -0.14)">
       <use xlink:href="#DejaVuSans-30"/>
       <use xlink:href="#DejaVuSans-2e" x="63.623047"/>
       <use xlink:href="#DejaVuSans-37" x="95.410156"/>
       <use xlink:href="#DejaVuSans-35" x="159.033203"/>
      </g>
     </g>
    </g>
    <g id="xtick_9">
     <g id="line2d_17">
      <path d="M 503.960326 311.232957 
L 503.960326 25.3575 
" clip-path="url(#p2d33f806a4)" style="fill: none; stroke: #ffffff; stroke-width: 0.8; stroke-linecap: round"/>
     </g>
     <g id="line2d_18"/>
     <g id="text_9">
      <!-- 1.00 -->
      <g style="fill: #262626" transform="translate(488.374388 325.37077) scale(0.14 -0.14)">
       <use xlink:href="#DejaVuSans-31"/>
       <use xlink:href="#DejaVuSans-2e" x="63.623047"/>
       <use xlink:href="#DejaVuSans-30" x="95.410156"/>
       <use xlink:href="#DejaVuSans-30" x="159.033203"/>
      </g>
     </g>
    </g>
    <g id="text_10">
     <!-- x -->
     <g style="fill: #262626" transform="translate(286.439934 343.679989) scale(0.15 -0.15)">
      <defs>
       <path id="DejaVuSans-78" d="M 3513 3500 
L 2247 1797 
L 3578 0 
L 2900 0 
L 1881 1375 
L 863 0 
L 184 0 
L 1544 1831 
L 300 3500 
L 978 3500 
L 1906 2253 
L 2834 3500 
L 3513 3500 
z
" transform="scale(0.015625)"/>
      </defs>
      <use xlink:href="#DejaVuSans-78"/>
     </g>
    </g>
   </g>
   <g id="matplotlib.axis_2">
    <g id="ytick_1">
     <g id="line2d_19">
      <path d="M 63.213125 285.947558 
L 518.544868 285.947558 
" clip-path="url(#p2d33f806a4)" style="fill: none; stroke: #ffffff; stroke-width: 0.8; stroke-linecap: round"/>
     </g>
     <g id="line2d_20"/>
     <g id="text_11">
      <!-- −1.0 -->
      <g style="fill: #262626" transform="translate(25.717188 291.266464) scale(0.14 -0.14)">
       <use xlink:href="#DejaVuSans-2212"/>
       <use xlink:href="#DejaVuSans-31" x="83.789062"/>
       <use xlink:href="#DejaVuSans-2e" x="147.412109"/>
       <use xlink:href="#DejaVuSans-30" x="179.199219"/>
      </g>
     </g>
    </g>
    <g id="ytick_2">
     <g id="line2d_21">
      <path d="M 63.213125 236.049983 
L 518.544868 236.049983 
" clip-path="url(#p2d33f806a4)" style="fill: none; stroke: #ffffff; stroke-width: 0.8; stroke-linecap: round"/>
     </g>
     <g id="line2d_22"/>
     <g id="text_12">
      <!-- −0.5 -->
      <g style="fill: #262626" transform="translate(25.717188 241.368889) scale(0.14 -0.14)">
       <use xlink:href="#DejaVuSans-2212"/>
       <use xlink:href="#DejaVuSans-30" x="83.789062"/>
       <use xlink:href="#DejaVuSans-2e" x="147.412109"/>
       <use xlink:href="#DejaVuSans-35" x="179.199219"/>
      </g>
     </g>
    </g>
    <g id="ytick_3">
     <g id="line2d_23">
      <path d="M 63.213125 186.152407 
L 518.544868 186.152407 
" clip-path="url(#p2d33f806a4)" style="fill: none; stroke: #ffffff; stroke-width: 0.8; stroke-linecap: round"/>
     </g>
     <g id="line2d_24"/>
     <g id="text_13">
      <!-- 0.0 -->
      <g style="fill: #262626" transform="translate(37.44875 191.471314) scale(0.14 -0.14)">
       <use xlink:href="#DejaVuSans-30"/>
       <use xlink:href="#DejaVuSans-2e" x="63.623047"/>
       <use xlink:href="#DejaVuSans-30" x="95.410156"/>
      </g>
     </g>
    </g>
    <g id="ytick_4">
     <g id="line2d_25">
      <path d="M 63.213125 136.254832 
L 518.544868 136.254832 
" clip-path="url(#p2d33f806a4)" style="fill: none; stroke: #ffffff; stroke-width: 0.8; stroke-linecap: round"/>
     </g>
     <g id="line2d_26"/>
     <g id="text_14">
      <!-- 0.5 -->
      <g style="fill: #262626" transform="translate(37.44875 141.573738) scale(0.14 -0.14)">
       <use xlink:href="#DejaVuSans-30"/>
       <use xlink:href="#DejaVuSans-2e" x="63.623047"/>
       <use xlink:href="#DejaVuSans-35" x="95.410156"/>
      </g>
     </g>
    </g>
    <g id="ytick_5">
     <g id="line2d_27">
      <path d="M 63.213125 86.357257 
L 518.544868 86.357257 
" clip-path="url(#p2d33f806a4)" style="fill: none; stroke: #ffffff; stroke-width: 0.8; stroke-linecap: round"/>
     </g>
     <g id="line2d_28"/>
     <g id="text_15">
      <!-- 1.0 -->
      <g style="fill: #262626" transform="translate(37.44875 91.676163) scale(0.14 -0.14)">
       <use xlink:href="#DejaVuSans-31"/>
       <use xlink:href="#DejaVuSans-2e" x="63.623047"/>
       <use xlink:href="#DejaVuSans-30" x="95.410156"/>
      </g>
     </g>
    </g>
    <g id="ytick_6">
     <g id="line2d_29">
      <path d="M 63.213125 36.459682 
L 518.544868 36.459682 
" clip-path="url(#p2d33f806a4)" style="fill: none; stroke: #ffffff; stroke-width: 0.8; stroke-linecap: round"/>
     </g>
     <g id="line2d_30"/>
     <g id="text_16">
      <!-- 1.5 -->
      <g style="fill: #262626" transform="translate(37.44875 41.778588) scale(0.14 -0.14)">
       <use xlink:href="#DejaVuSans-31"/>
       <use xlink:href="#DejaVuSans-2e" x="63.623047"/>
       <use xlink:href="#DejaVuSans-35" x="95.410156"/>
      </g>
     </g>
    </g>
    <g id="text_17">
     <!-- y -->
     <g style="fill: #262626" transform="translate(18.597656 172.734291) rotate(-90) scale(0.15 -0.15)">
      <defs>
       <path id="DejaVuSans-79" d="M 2059 -325 
Q 1816 -950 1584 -1140 
Q 1353 -1331 966 -1331 
L 506 -1331 
L 506 -850 
L 844 -850 
Q 1081 -850 1212 -737 
Q 1344 -625 1503 -206 
L 1606 56 
L 191 3500 
L 800 3500 
L 1894 763 
L 2988 3500 
L 3597 3500 
L 2059 -325 
z
" transform="scale(0.015625)"/>
      </defs>
      <use xlink:href="#DejaVuSans-79"/>
     </g>
    </g>
   </g>
   <g id="PathCollection_1">
    <defs>
     <path id="mdacfde097f" d="M 0 3 
C 0.795609 3 1.55874 2.683901 2.12132 2.12132 
C 2.683901 1.55874 3 0.795609 3 0 
C 3 -0.795609 2.683901 -1.55874 2.12132 -2.12132 
C 1.55874 -2.683901 0.795609 -3 0 -3 
C -0.795609 -3 -1.55874 -2.683901 -2.12132 -2.12132 
C -2.683901 -1.55874 -3 -0.795609 -3 0 
C -3 0.795609 -2.683901 1.55874 -2.12132 2.12132 
C -1.55874 2.683901 -0.795609 3 0 3 
z
" style="stroke: #ffffff; stroke-width: 0.48"/>
    </defs>
    <g clip-path="url(#p2d33f806a4)">
     <use xlink:href="#mdacfde097f" x="83.910022" y="195.325495" style="stroke: #ffffff; stroke-width: 0.48"/>
     <use xlink:href="#mdacfde097f" x="84.336022" y="224.340354" style="stroke: #ffffff; stroke-width: 0.48"/>
     <use xlink:href="#mdacfde097f" x="84.69857" y="204.293774" style="stroke: #ffffff; stroke-width: 0.48"/>
     <use xlink:href="#mdacfde097f" x="89.412792" y="214.917856" style="stroke: #ffffff; stroke-width: 0.48"/>
     <use xlink:href="#mdacfde097f" x="94.835298" y="228.147257" style="stroke: #ffffff; stroke-width: 0.48"/>
     <use xlink:href="#mdacfde097f" x="94.920755" y="241.532891" style="stroke: #ffffff; stroke-width: 0.48"/>
     <use xlink:href="#mdacfde097f" x="105.526504" y="242.65866" style="stroke: #ffffff; stroke-width: 0.48"/>
     <use xlink:href="#mdacfde097f" x="107.174569" y="234.435596" style="stroke: #ffffff; stroke-width: 0.48"/>
     <use xlink:href="#mdacfde097f" x="112.222407" y="234.530713" style="stroke: #ffffff; stroke-width: 0.48"/>
     <use xlink:href="#mdacfde097f" x="114.768501" y="256.782207" style="stroke: #ffffff; stroke-width: 0.48"/>
     <use xlink:href="#mdacfde097f" x="117.423734" y="259.748467" style="stroke: #ffffff; stroke-width: 0.48"/>
     <use xlink:href="#mdacfde097f" x="125.295493" y="250.84996" style="stroke: #ffffff; stroke-width: 0.48"/>
     <use xlink:href="#mdacfde097f" x="141.833089" y="269.259623" style="stroke: #ffffff; stroke-width: 0.48"/>
     <use xlink:href="#mdacfde097f" x="141.9756" y="285.847468" style="stroke: #ffffff; stroke-width: 0.48"/>
     <use xlink:href="#mdacfde097f" x="145.162711" y="295.747593" style="stroke: #ffffff; stroke-width: 0.48"/>
     <use xlink:href="#mdacfde097f" x="145.509225" y="278.848375" style="stroke: #ffffff; stroke-width: 0.48"/>
     <use xlink:href="#mdacfde097f" x="147.059173" y="285.345829" style="stroke: #ffffff; stroke-width: 0.48"/>
     <use xlink:href="#mdacfde097f" x="147.299032" y="275.226366" style="stroke: #ffffff; stroke-width: 0.48"/>
     <use xlink:href="#mdacfde097f" x="149.509041" y="298.238619" style="stroke: #ffffff; stroke-width: 0.48"/>
     <use xlink:href="#mdacfde097f" x="159.417963" y="271.822082" style="stroke: #ffffff; stroke-width: 0.48"/>
     <use xlink:href="#mdacfde097f" x="163.564673" y="275.872554" style="stroke: #ffffff; stroke-width: 0.48"/>
     <use xlink:href="#mdacfde097f" x="168.797623" y="275.115012" style="stroke: #ffffff; stroke-width: 0.48"/>
     <use xlink:href="#mdacfde097f" x="170.455346" y="261.766962" style="stroke: #ffffff; stroke-width: 0.48"/>
     <use xlink:href="#mdacfde097f" x="172.701312" y="267.383585" style="stroke: #ffffff; stroke-width: 0.48"/>
     <use xlink:href="#mdacfde097f" x="188.833339" y="276.042704" style="stroke: #ffffff; stroke-width: 0.48"/>
     <use xlink:href="#mdacfde097f" x="194.379694" y="291.432297" style="stroke: #ffffff; stroke-width: 0.48"/>
     <use xlink:href="#mdacfde097f" x="195.102613" y="283.553221" style="stroke: #ffffff; stroke-width: 0.48"/>
     <use xlink:href="#mdacfde097f" x="203.349595" y="277.004346" style="stroke: #ffffff; stroke-width: 0.48"/>
     <use xlink:href="#mdacfde097f" x="205.405779" y="286.462916" style="stroke: #ffffff; stroke-width: 0.48"/>
     <use xlink:href="#mdacfde097f" x="208.282416" y="279.677126" style="stroke: #ffffff; stroke-width: 0.48"/>
     <use xlink:href="#mdacfde097f" x="208.871219" y="290.096726" style="stroke: #ffffff; stroke-width: 0.48"/>
     <use xlink:href="#mdacfde097f" x="210.295392" y="263.584026" style="stroke: #ffffff; stroke-width: 0.48"/>
     <use xlink:href="#mdacfde097f" x="211.069273" y="264.513993" style="stroke: #ffffff; stroke-width: 0.48"/>
     <use xlink:href="#mdacfde097f" x="211.748993" y="259.055439" style="stroke: #ffffff; stroke-width: 0.48"/>
     <use xlink:href="#mdacfde097f" x="216.562155" y="265.364167" style="stroke: #ffffff; stroke-width: 0.48"/>
     <use xlink:href="#mdacfde097f" x="230.422528" y="255.575423" style="stroke: #ffffff; stroke-width: 0.48"/>
     <use xlink:href="#mdacfde097f" x="235.037652" y="260.964157" style="stroke: #ffffff; stroke-width: 0.48"/>
     <use xlink:href="#mdacfde097f" x="239.493093" y="230.75883" style="stroke: #ffffff; stroke-width: 0.48"/>
     <use xlink:href="#mdacfde097f" x="243.175218" y="237.35323" style="stroke: #ffffff; stroke-width: 0.48"/>
     <use xlink:href="#mdacfde097f" x="245.068273" y="245.004382" style="stroke: #ffffff; stroke-width: 0.48"/>
     <use xlink:href="#mdacfde097f" x="249.100659" y="243.49908" style="stroke: #ffffff; stroke-width: 0.48"/>
     <use xlink:href="#mdacfde097f" x="258.305684" y="223.599736" style="stroke: #ffffff; stroke-width: 0.48"/>
     <use xlink:href="#mdacfde097f" x="262.182011" y="212.11143" style="stroke: #ffffff; stroke-width: 0.48"/>
     <use xlink:href="#mdacfde097f" x="266.093358" y="224.069361" style="stroke: #ffffff; stroke-width: 0.48"/>
     <use xlink:href="#mdacfde097f" x="266.798071" y="232.329985" style="stroke: #ffffff; stroke-width: 0.48"/>
     <use xlink:href="#mdacfde097f" x="269.087997" y="203.516756" style="stroke: #ffffff; stroke-width: 0.48"/>
     <use xlink:href="#mdacfde097f" x="281.112906" y="191.050089" style="stroke: #ffffff; stroke-width: 0.48"/>
     <use xlink:href="#mdacfde097f" x="284.936083" y="197.282596" style="stroke: #ffffff; stroke-width: 0.48"/>
     <use xlink:href="#mdacfde097f" x="286.235929" y="199.11012" style="stroke: #ffffff; stroke-width: 0.48"/>
     <use xlink:href="#mdacfde097f" x="289.454876" y="195.828581" style="stroke: #ffffff; stroke-width: 0.48"/>
     <use xlink:href="#mdacfde097f" x="289.523467" y="199.609992" style="stroke: #ffffff; stroke-width: 0.48"/>
     <use xlink:href="#mdacfde097f" x="299.076053" y="174.0816" style="stroke: #ffffff; stroke-width: 0.48"/>
     <use xlink:href="#mdacfde097f" x="301.144193" y="176.362951" style="stroke: #ffffff; stroke-width: 0.48"/>
     <use xlink:href="#mdacfde097f" x="304.354028" y="155.193622" style="stroke: #ffffff; stroke-width: 0.48"/>
     <use xlink:href="#mdacfde097f" x="310.233288" y="150.085406" style="stroke: #ffffff; stroke-width: 0.48"/>
     <use xlink:href="#mdacfde097f" x="310.81556" y="154.10164" style="stroke: #ffffff; stroke-width: 0.48"/>
     <use xlink:href="#mdacfde097f" x="316.333421" y="137.056982" style="stroke: #ffffff; stroke-width: 0.48"/>
     <use xlink:href="#mdacfde097f" x="326.15288" y="128.806373" style="stroke: #ffffff; stroke-width: 0.48"/>
     <use xlink:href="#mdacfde097f" x="329.473717" y="118.812884" style="stroke: #ffffff; stroke-width: 0.48"/>
     <use xlink:href="#mdacfde097f" x="345.717135" y="94.588626" style="stroke: #ffffff; stroke-width: 0.48"/>
     <use xlink:href="#mdacfde097f" x="345.912491" y="100.097477" style="stroke: #ffffff; stroke-width: 0.48"/>
     <use xlink:href="#mdacfde097f" x="348.40895" y="120.787317" style="stroke: #ffffff; stroke-width: 0.48"/>
     <use xlink:href="#mdacfde097f" x="350.254007" y="121.278711" style="stroke: #ffffff; stroke-width: 0.48"/>
     <use xlink:href="#mdacfde097f" x="350.642973" y="106.768753" style="stroke: #ffffff; stroke-width: 0.48"/>
     <use xlink:href="#mdacfde097f" x="361.213638" y="109.980323" style="stroke: #ffffff; stroke-width: 0.48"/>
     <use xlink:href="#mdacfde097f" x="363.251157" y="108.86269" style="stroke: #ffffff; stroke-width: 0.48"/>
     <use xlink:href="#mdacfde097f" x="365.881418" y="89.375213" style="stroke: #ffffff; stroke-width: 0.48"/>
     <use xlink:href="#mdacfde097f" x="366.74208" y="123.602853" style="stroke: #ffffff; stroke-width: 0.48"/>
     <use xlink:href="#mdacfde097f" x="370.659001" y="93.298311" style="stroke: #ffffff; stroke-width: 0.48"/>
     <use xlink:href="#mdacfde097f" x="377.968914" y="87.707953" style="stroke: #ffffff; stroke-width: 0.48"/>
     <use xlink:href="#mdacfde097f" x="382.373811" y="84.415904" style="stroke: #ffffff; stroke-width: 0.48"/>
     <use xlink:href="#mdacfde097f" x="384.627721" y="83.542119" style="stroke: #ffffff; stroke-width: 0.48"/>
     <use xlink:href="#mdacfde097f" x="384.895427" y="92.451761" style="stroke: #ffffff; stroke-width: 0.48"/>
     <use xlink:href="#mdacfde097f" x="385.076865" y="98.750034" style="stroke: #ffffff; stroke-width: 0.48"/>
     <use xlink:href="#mdacfde097f" x="392.383214" y="79.171621" style="stroke: #ffffff; stroke-width: 0.48"/>
     <use xlink:href="#mdacfde097f" x="408.505902" y="41.107638" style="stroke: #ffffff; stroke-width: 0.48"/>
     <use xlink:href="#mdacfde097f" x="414.78928" y="42.539807" style="stroke: #ffffff; stroke-width: 0.48"/>
     <use xlink:href="#mdacfde097f" x="418.379741" y="56.168418" style="stroke: #ffffff; stroke-width: 0.48"/>
     <use xlink:href="#mdacfde097f" x="423.312125" y="46.742598" style="stroke: #ffffff; stroke-width: 0.48"/>
     <use xlink:href="#mdacfde097f" x="424.220592" y="51.328353" style="stroke: #ffffff; stroke-width: 0.48"/>
     <use xlink:href="#mdacfde097f" x="427.130787" y="42.187639" style="stroke: #ffffff; stroke-width: 0.48"/>
     <use xlink:href="#mdacfde097f" x="428.394188" y="50.010054" style="stroke: #ffffff; stroke-width: 0.48"/>
     <use xlink:href="#mdacfde097f" x="431.732798" y="61.297791" style="stroke: #ffffff; stroke-width: 0.48"/>
     <use xlink:href="#mdacfde097f" x="432.894093" y="38.439041" style="stroke: #ffffff; stroke-width: 0.48"/>
     <use xlink:href="#mdacfde097f" x="433.879567" y="38.351839" style="stroke: #ffffff; stroke-width: 0.48"/>
     <use xlink:href="#mdacfde097f" x="438.591916" y="46.92164" style="stroke: #ffffff; stroke-width: 0.48"/>
     <use xlink:href="#mdacfde097f" x="441.61939" y="50.890704" style="stroke: #ffffff; stroke-width: 0.48"/>
     <use xlink:href="#mdacfde097f" x="445.959405" y="52.047425" style="stroke: #ffffff; stroke-width: 0.48"/>
     <use xlink:href="#mdacfde097f" x="454.085761" y="60.78723" style="stroke: #ffffff; stroke-width: 0.48"/>
     <use xlink:href="#mdacfde097f" x="454.160468" y="56.038294" style="stroke: #ffffff; stroke-width: 0.48"/>
     <use xlink:href="#mdacfde097f" x="464.439127" y="64.328652" style="stroke: #ffffff; stroke-width: 0.48"/>
     <use xlink:href="#mdacfde097f" x="464.787074" y="80.376485" style="stroke: #ffffff; stroke-width: 0.48"/>
     <use xlink:href="#mdacfde097f" x="477.548688" y="94.667305" style="stroke: #ffffff; stroke-width: 0.48"/>
     <use xlink:href="#mdacfde097f" x="480.628972" y="88.325135" style="stroke: #ffffff; stroke-width: 0.48"/>
     <use xlink:href="#mdacfde097f" x="480.649141" y="90.643602" style="stroke: #ffffff; stroke-width: 0.48"/>
     <use xlink:href="#mdacfde097f" x="483.017451" y="98.955052" style="stroke: #ffffff; stroke-width: 0.48"/>
     <use xlink:href="#mdacfde097f" x="489.376035" y="111.440407" style="stroke: #ffffff; stroke-width: 0.48"/>
     <use xlink:href="#mdacfde097f" x="493.102116" y="95.603212" style="stroke: #ffffff; stroke-width: 0.48"/>
     <use xlink:href="#mdacfde097f" x="496.132545" y="106.362304" style="stroke: #ffffff; stroke-width: 0.48"/>
     <use xlink:href="#mdacfde097f" x="497.847971" y="112.324921" style="stroke: #ffffff; stroke-width: 0.48"/>
    </g>
   </g>
   <g id="line2d_31">
    <path d="M 83.910022 209.308872 
L 88.88225 217.20728 
L 93.854478 224.678303 
L 98.412353 231.149249 
L 102.970228 237.257213 
L 107.528104 243.000347 
L 112.085979 248.376806 
L 116.643854 253.384741 
L 120.787377 257.616063 
L 124.9309 261.539906 
L 129.074423 265.154884 
L 133.217946 268.459609 
L 136.947117 271.167448 
L 140.676288 273.621846 
L 144.405458 275.821793 
L 148.134629 277.766275 
L 151.8638 279.454283 
L 155.59297 280.884804 
L 159.322141 282.056827 
L 162.63696 282.880796 
L 165.951778 283.499011 
L 169.266596 283.91076 
L 172.581415 284.115333 
L 175.896233 284.11202 
L 179.211052 283.90011 
L 182.52587 283.478893 
L 185.840688 282.847659 
L 189.155507 282.005696 
L 192.470325 280.952295 
L 195.785144 279.68752 
L 199.514314 278.018409 
L 203.243485 276.098266 
L 206.972656 273.937159 
L 211.116179 271.265568 
L 215.259702 268.322738 
L 219.817577 264.788831 
L 224.375452 260.961825 
L 229.34768 256.474238 
L 234.319908 251.683592 
L 239.706488 246.179415 
L 245.50742 239.920214 
L 251.722704 232.874358 
L 258.352341 225.022977 
L 265.810683 215.84488 
L 274.512081 204.778723 
L 286.113945 189.635124 
L 311.803788 155.972617 
L 320.505186 145.001102 
L 327.963528 135.944696 
L 334.593164 128.237656 
L 340.808449 121.361643 
L 346.195029 115.715299 
L 351.581609 110.393571 
L 356.553836 105.797379 
L 361.111712 101.873251 
L 365.669587 98.245849 
L 369.81311 95.222235 
L 373.956633 92.474851 
L 377.685804 90.250584 
L 381.414974 88.272784 
L 385.144145 86.552213 
L 388.458964 85.247463 
L 391.773782 84.162018 
L 395.0886 83.303437 
L 395.502953 42.623121 
L 398.817771 42.028028 
L 402.13259 41.667045 
L 405.447408 41.535674 
L 408.762226 41.629378 
L 412.077045 41.943616 
L 415.391863 42.473848 
L 418.706682 43.215535 
L 422.0215 44.164139 
L 425.750671 45.472994 
L 429.479841 47.031519 
L 433.209012 48.83325 
L 436.938183 50.871723 
L 441.081706 53.406492 
L 445.225229 56.216691 
L 449.368752 59.293452 
L 453.926627 62.975188 
L 458.484502 66.956937 
L 463.042378 71.226897 
L 468.014605 76.199872 
L 472.986833 81.486479 
L 478.373413 87.549791 
L 483.759993 93.943724 
L 489.560925 101.176905 
L 495.77621 109.299536 
L 497.847971 112.087756 
L 497.847971 112.087756 
" clip-path="url(#p2d33f806a4)" style="fill: none; stroke: #000000; stroke-width: 1.5; stroke-linecap: round"/>
   </g>
   <g id="line2d_32">
    <path d="M 395.293195 311.232957 
L 395.293195 25.3575 
" clip-path="url(#p2d33f806a4)" style="fill: none; stroke: #ff0000; stroke-width: 3; stroke-linecap: round"/>
   </g>
   <g id="patch_3">
    <path d="M 63.213125 311.232957 
L 63.213125 25.3575 
" style="fill: none"/>
   </g>
   <g id="patch_4">
    <path d="M 518.544868 311.232957 
L 518.544868 25.3575 
" style="fill: none"/>
   </g>
   <g id="patch_5">
    <path d="M 63.213125 311.232957 
L 518.544868 311.232957 
" style="fill: none"/>
   </g>
   <g id="patch_6">
    <path d="M 63.213125 25.3575 
L 518.544868 25.3575 
" style="fill: none"/>
   </g>
   <g id="text_18">
    <!-- $R^2$ on all data = 0.987 -->
    <g style="fill: #262626" transform="translate(201.278997 19.3575) scale(0.16 -0.16)">
     <defs>
      <path id="DejaVuSans-Oblique-52" d="M 1613 4147 
L 1294 2491 
L 2106 2491 
Q 2584 2491 2879 2755 
Q 3175 3019 3175 3444 
Q 3175 3784 2976 3965 
Q 2778 4147 2406 4147 
L 1613 4147 
z
M 2772 2241 
Q 2972 2194 3105 2009 
Q 3238 1825 3413 1275 
L 3809 0 
L 3144 0 
L 2778 1197 
Q 2638 1659 2453 1815 
Q 2269 1972 1888 1972 
L 1191 1972 
L 806 0 
L 172 0 
L 1081 4666 
L 2503 4666 
Q 3150 4666 3495 4373 
Q 3841 4081 3841 3531 
Q 3841 3044 3547 2687 
Q 3253 2331 2772 2241 
z
" transform="scale(0.015625)"/>
      <path id="DejaVuSans-20" transform="scale(0.015625)"/>
      <path id="DejaVuSans-6f" d="M 1959 3097 
Q 1497 3097 1228 2736 
Q 959 2375 959 1747 
Q 959 1119 1226 758 
Q 1494 397 1959 397 
Q 2419 397 2687 759 
Q 2956 1122 2956 1747 
Q 2956 2369 2687 2733 
Q 2419 3097 1959 3097 
z
M 1959 3584 
Q 2709 3584 3137 3096 
Q 3566 2609 3566 1747 
Q 3566 888 3137 398 
Q 2709 -91 1959 -91 
Q 1206 -91 779 398 
Q 353 888 353 1747 
Q 353 2609 779 3096 
Q 1206 3584 1959 3584 
z
" transform="scale(0.015625)"/>
      <path id="DejaVuSans-6e" d="M 3513 2113 
L 3513 0 
L 2938 0 
L 2938 2094 
Q 2938 2591 2744 2837 
Q 2550 3084 2163 3084 
Q 1697 3084 1428 2787 
Q 1159 2491 1159 1978 
L 1159 0 
L 581 0 
L 581 3500 
L 1159 3500 
L 1159 2956 
Q 1366 3272 1645 3428 
Q 1925 3584 2291 3584 
Q 2894 3584 3203 3211 
Q 3513 2838 3513 2113 
z
" transform="scale(0.015625)"/>
      <path id="DejaVuSans-61" d="M 2194 1759 
Q 1497 1759 1228 1600 
Q 959 1441 959 1056 
Q 959 750 1161 570 
Q 1363 391 1709 391 
Q 2188 391 2477 730 
Q 2766 1069 2766 1631 
L 2766 1759 
L 2194 1759 
z
M 3341 1997 
L 3341 0 
L 2766 0 
L 2766 531 
Q 2569 213 2275 61 
Q 1981 -91 1556 -91 
Q 1019 -91 701 211 
Q 384 513 384 1019 
Q 384 1609 779 1909 
Q 1175 2209 1959 2209 
L 2766 2209 
L 2766 2266 
Q 2766 2663 2505 2880 
Q 2244 3097 1772 3097 
Q 1472 3097 1187 3025 
Q 903 2953 641 2809 
L 641 3341 
Q 956 3463 1253 3523 
Q 1550 3584 1831 3584 
Q 2591 3584 2966 3190 
Q 3341 2797 3341 1997 
z
" transform="scale(0.015625)"/>
      <path id="DejaVuSans-6c" d="M 603 4863 
L 1178 4863 
L 1178 0 
L 603 0 
L 603 4863 
z
" transform="scale(0.015625)"/>
      <path id="DejaVuSans-64" d="M 2906 2969 
L 2906 4863 
L 3481 4863 
L 3481 0 
L 2906 0 
L 2906 525 
Q 2725 213 2448 61 
Q 2172 -91 1784 -91 
Q 1150 -91 751 415 
Q 353 922 353 1747 
Q 353 2572 751 3078 
Q 1150 3584 1784 3584 
Q 2172 3584 2448 3432 
Q 2725 3281 2906 2969 
z
M 947 1747 
Q 947 1113 1208 752 
Q 1469 391 1925 391 
Q 2381 391 2643 752 
Q 2906 1113 2906 1747 
Q 2906 2381 2643 2742 
Q 2381 3103 1925 3103 
Q 1469 3103 1208 2742 
Q 947 2381 947 1747 
z
" transform="scale(0.015625)"/>
      <path id="DejaVuSans-74" d="M 1172 4494 
L 1172 3500 
L 2356 3500 
L 2356 3053 
L 1172 3053 
L 1172 1153 
Q 1172 725 1289 603 
Q 1406 481 1766 481 
L 2356 481 
L 2356 0 
L 1766 0 
Q 1100 0 847 248 
Q 594 497 594 1153 
L 594 3053 
L 172 3053 
L 172 3500 
L 594 3500 
L 594 4494 
L 1172 4494 
z
" transform="scale(0.015625)"/>
      <path id="DejaVuSans-3d" d="M 678 2906 
L 4684 2906 
L 4684 2381 
L 678 2381 
L 678 2906 
z
M 678 1631 
L 4684 1631 
L 4684 1100 
L 678 1100 
L 678 1631 
z
" transform="scale(0.015625)"/>
      <path id="DejaVuSans-39" d="M 703 97 
L 703 672 
Q 941 559 1184 500 
Q 1428 441 1663 441 
Q 2288 441 2617 861 
Q 2947 1281 2994 2138 
Q 2813 1869 2534 1725 
Q 2256 1581 1919 1581 
Q 1219 1581 811 2004 
Q 403 2428 403 3163 
Q 403 3881 828 4315 
Q 1253 4750 1959 4750 
Q 2769 4750 3195 4129 
Q 3622 3509 3622 2328 
Q 3622 1225 3098 567 
Q 2575 -91 1691 -91 
Q 1453 -91 1209 -44 
Q 966 3 703 97 
z
M 1959 2075 
Q 2384 2075 2632 2365 
Q 2881 2656 2881 3163 
Q 2881 3666 2632 3958 
Q 2384 4250 1959 4250 
Q 1534 4250 1286 3958 
Q 1038 3666 1038 3163 
Q 1038 2656 1286 2365 
Q 1534 2075 1959 2075 
z
" transform="scale(0.015625)"/>
      <path id="DejaVuSans-38" d="M 2034 2216 
Q 1584 2216 1326 1975 
Q 1069 1734 1069 1313 
Q 1069 891 1326 650 
Q 1584 409 2034 409 
Q 2484 409 2743 651 
Q 3003 894 3003 1313 
Q 3003 1734 2745 1975 
Q 2488 2216 2034 2216 
z
M 1403 2484 
Q 997 2584 770 2862 
Q 544 3141 544 3541 
Q 544 4100 942 4425 
Q 1341 4750 2034 4750 
Q 2731 4750 3128 4425 
Q 3525 4100 3525 3541 
Q 3525 3141 3298 2862 
Q 3072 2584 2669 2484 
Q 3125 2378 3379 2068 
Q 3634 1759 3634 1313 
Q 3634 634 3220 271 
Q 2806 -91 2034 -91 
Q 1263 -91 848 271 
Q 434 634 434 1313 
Q 434 1759 690 2068 
Q 947 2378 1403 2484 
z
M 1172 3481 
Q 1172 3119 1398 2916 
Q 1625 2713 2034 2713 
Q 2441 2713 2670 2916 
Q 2900 3119 2900 3481 
Q 2900 3844 2670 4047 
Q 2441 4250 2034 4250 
Q 1625 4250 1398 4047 
Q 1172 3844 1172 3481 
z
" transform="scale(0.015625)"/>
     </defs>
     <use xlink:href="#DejaVuSans-Oblique-52" transform="translate(0 0.765625)"/>
     <use xlink:href="#DejaVuSans-32" transform="translate(76.499193 39.046875) scale(0.7)"/>
     <use xlink:href="#DejaVuSans-20" transform="translate(123.769701 0.765625)"/>
     <use xlink:href="#DejaVuSans-6f" transform="translate(155.55681 0.765625)"/>
     <use xlink:href="#DejaVuSans-6e" transform="translate(216.738451 0.765625)"/>
     <use xlink:href="#DejaVuSans-20" transform="translate(280.117357 0.765625)"/>
     <use xlink:href="#DejaVuSans-61" transform="translate(311.904466 0.765625)"/>
     <use xlink:href="#DejaVuSans-6c" transform="translate(373.183763 0.765625)"/>
     <use xlink:href="#DejaVuSans-6c" transform="translate(400.966966 0.765625)"/>
     <use xlink:href="#DejaVuSans-20" transform="translate(428.750169 0.765625)"/>
     <use xlink:href="#DejaVuSans-64" transform="translate(460.537279 0.765625)"/>
     <use xlink:href="#DejaVuSans-61" transform="translate(524.013841 0.765625)"/>
     <use xlink:href="#DejaVuSans-74" transform="translate(585.293138 0.765625)"/>
     <use xlink:href="#DejaVuSans-61" transform="translate(624.502122 0.765625)"/>
     <use xlink:href="#DejaVuSans-20" transform="translate(685.781419 0.765625)"/>
     <use xlink:href="#DejaVuSans-3d" transform="translate(717.568529 0.765625)"/>
     <use xlink:href="#DejaVuSans-20" transform="translate(801.357591 0.765625)"/>
     <use xlink:href="#DejaVuSans-30" transform="translate(833.144701 0.765625)"/>
     <use xlink:href="#DejaVuSans-2e" transform="translate(896.767747 0.765625)"/>
     <use xlink:href="#DejaVuSans-39" transform="translate(928.554857 0.765625)"/>
     <use xlink:href="#DejaVuSans-38" transform="translate(992.177904 0.765625)"/>
     <use xlink:href="#DejaVuSans-37" transform="translate(1055.800951 0.765625)"/>
    </g>
   </g>
   <g id="legend_1">
    <g id="line2d_33">
     <path d="M 74.013125 41.075625 
L 86.013125 41.075625 
L 98.013125 41.075625 
" style="fill: none; stroke: #000000; stroke-width: 1.5; stroke-linecap: round"/>
    </g>
    <g id="text_19">
     <!-- model fit -->
     <g style="fill: #262626" transform="translate(107.613125 45.275625) scale(0.12 -0.12)">
      <defs>
       <path id="DejaVuSans-6d" d="M 3328 2828 
Q 3544 3216 3844 3400 
Q 4144 3584 4550 3584 
Q 5097 3584 5394 3201 
Q 5691 2819 5691 2113 
L 5691 0 
L 5113 0 
L 5113 2094 
Q 5113 2597 4934 2840 
Q 4756 3084 4391 3084 
Q 3944 3084 3684 2787 
Q 3425 2491 3425 1978 
L 3425 0 
L 2847 0 
L 2847 2094 
Q 2847 2600 2669 2842 
Q 2491 3084 2119 3084 
Q 1678 3084 1418 2786 
Q 1159 2488 1159 1978 
L 1159 0 
L 581 0 
L 581 3500 
L 1159 3500 
L 1159 2956 
Q 1356 3278 1631 3431 
Q 1906 3584 2284 3584 
Q 2666 3584 2933 3390 
Q 3200 3197 3328 2828 
z
" transform="scale(0.015625)"/>
       <path id="DejaVuSans-65" d="M 3597 1894 
L 3597 1613 
L 953 1613 
Q 991 1019 1311 708 
Q 1631 397 2203 397 
Q 2534 397 2845 478 
Q 3156 559 3463 722 
L 3463 178 
Q 3153 47 2828 -22 
Q 2503 -91 2169 -91 
Q 1331 -91 842 396 
Q 353 884 353 1716 
Q 353 2575 817 3079 
Q 1281 3584 2069 3584 
Q 2775 3584 3186 3129 
Q 3597 2675 3597 1894 
z
M 3022 2063 
Q 3016 2534 2758 2815 
Q 2500 3097 2075 3097 
Q 1594 3097 1305 2825 
Q 1016 2553 972 2059 
L 3022 2063 
z
" transform="scale(0.015625)"/>
       <path id="DejaVuSans-66" d="M 2375 4863 
L 2375 4384 
L 1825 4384 
Q 1516 4384 1395 4259 
Q 1275 4134 1275 3809 
L 1275 3500 
L 2222 3500 
L 2222 3053 
L 1275 3053 
L 1275 0 
L 697 0 
L 697 3053 
L 147 3053 
L 147 3500 
L 697 3500 
L 697 3744 
Q 697 4328 969 4595 
Q 1241 4863 1831 4863 
L 2375 4863 
z
" transform="scale(0.015625)"/>
       <path id="DejaVuSans-69" d="M 603 3500 
L 1178 3500 
L 1178 0 
L 603 0 
L 603 3500 
z
M 603 4863 
L 1178 4863 
L 1178 4134 
L 603 4134 
L 603 4863 
z
" transform="scale(0.015625)"/>
      </defs>
      <use xlink:href="#DejaVuSans-6d"/>
      <use xlink:href="#DejaVuSans-6f" x="97.412109"/>
      <use xlink:href="#DejaVuSans-64" x="158.59375"/>
      <use xlink:href="#DejaVuSans-65" x="222.070312"/>
      <use xlink:href="#DejaVuSans-6c" x="283.59375"/>
      <use xlink:href="#DejaVuSans-20" x="311.376953"/>
      <use xlink:href="#DejaVuSans-66" x="343.164062"/>
      <use xlink:href="#DejaVuSans-69" x="378.369141"/>
      <use xlink:href="#DejaVuSans-74" x="406.152344"/>
     </g>
    </g>
    <g id="line2d_34">
     <path d="M 74.013125 58.689375 
L 86.013125 58.689375 
L 98.013125 58.689375 
" style="fill: none; stroke: #ff0000; stroke-width: 3; stroke-linecap: round"/>
    </g>
    <g id="text_20">
     <!-- treatment threshold -->
     <g style="fill: #262626" transform="translate(107.613125 62.889375) scale(0.12 -0.12)">
      <defs>
       <path id="DejaVuSans-72" d="M 2631 2963 
Q 2534 3019 2420 3045 
Q 2306 3072 2169 3072 
Q 1681 3072 1420 2755 
Q 1159 2438 1159 1844 
L 1159 0 
L 581 0 
L 581 3500 
L 1159 3500 
L 1159 2956 
Q 1341 3275 1631 3429 
Q 1922 3584 2338 3584 
Q 2397 3584 2469 3576 
Q 2541 3569 2628 3553 
L 2631 2963 
z
" transform="scale(0.015625)"/>
       <path id="DejaVuSans-68" d="M 3513 2113 
L 3513 0 
L 2938 0 
L 2938 2094 
Q 2938 2591 2744 2837 
Q 2550 3084 2163 3084 
Q 1697 3084 1428 2787 
Q 1159 2491 1159 1978 
L 1159 0 
L 581 0 
L 581 4863 
L 1159 4863 
L 1159 2956 
Q 1366 3272 1645 3428 
Q 1925 3584 2291 3584 
Q 2894 3584 3203 3211 
Q 3513 2838 3513 2113 
z
" transform="scale(0.015625)"/>
       <path id="DejaVuSans-73" d="M 2834 3397 
L 2834 2853 
Q 2591 2978 2328 3040 
Q 2066 3103 1784 3103 
Q 1356 3103 1142 2972 
Q 928 2841 928 2578 
Q 928 2378 1081 2264 
Q 1234 2150 1697 2047 
L 1894 2003 
Q 2506 1872 2764 1633 
Q 3022 1394 3022 966 
Q 3022 478 2636 193 
Q 2250 -91 1575 -91 
Q 1294 -91 989 -36 
Q 684 19 347 128 
L 347 722 
Q 666 556 975 473 
Q 1284 391 1588 391 
Q 1994 391 2212 530 
Q 2431 669 2431 922 
Q 2431 1156 2273 1281 
Q 2116 1406 1581 1522 
L 1381 1569 
Q 847 1681 609 1914 
Q 372 2147 372 2553 
Q 372 3047 722 3315 
Q 1072 3584 1716 3584 
Q 2034 3584 2315 3537 
Q 2597 3491 2834 3397 
z
" transform="scale(0.015625)"/>
      </defs>
      <use xlink:href="#DejaVuSans-74"/>
      <use xlink:href="#DejaVuSans-72" x="39.208984"/>
      <use xlink:href="#DejaVuSans-65" x="78.072266"/>
      <use xlink:href="#DejaVuSans-61" x="139.595703"/>
      <use xlink:href="#DejaVuSans-74" x="200.875"/>
      <use xlink:href="#DejaVuSans-6d" x="240.083984"/>
      <use xlink:href="#DejaVuSans-65" x="337.496094"/>
      <use xlink:href="#DejaVuSans-6e" x="399.019531"/>
      <use xlink:href="#DejaVuSans-74" x="462.398438"/>
      <use xlink:href="#DejaVuSans-20" x="501.607422"/>
      <use xlink:href="#DejaVuSans-74" x="533.394531"/>
      <use xlink:href="#DejaVuSans-68" x="572.603516"/>
      <use xlink:href="#DejaVuSans-72" x="635.982422"/>
      <use xlink:href="#DejaVuSans-65" x="674.845703"/>
      <use xlink:href="#DejaVuSans-73" x="736.369141"/>
      <use xlink:href="#DejaVuSans-68" x="788.46875"/>
      <use xlink:href="#DejaVuSans-6f" x="851.847656"/>
      <use xlink:href="#DejaVuSans-6c" x="913.029297"/>
      <use xlink:href="#DejaVuSans-64" x="940.8125"/>
     </g>
    </g>
   </g>
  </g>
 </g>
 <defs>
  <clipPath id="p2d33f806a4">
   <rect x="63.213125" y="25.3575" width="455.331743" height="285.875457"/>
  </clipPath>
 </defs>
</svg>
