<?xml version="1.0" encoding="utf-8" standalone="no"?>
<!DOCTYPE svg PUBLIC "-//W3C//DTD SVG 1.1//EN"
  "http://www.w3.org/Graphics/SVG/1.1/DTD/svg11.dtd">
<svg xmlns:xlink="http://www.w3.org/1999/xlink" width="526.746263pt" height="353.99952pt" viewBox="0 0 526.746263 353.99952" xmlns="http://www.w3.org/2000/svg" version="1.1">
 <metadata>
  <rdf:RDF xmlns:dc="http://purl.org/dc/elements/1.1/" xmlns:cc="http://creativecommons.org/ns#" xmlns:rdf="http://www.w3.org/1999/02/22-rdf-syntax-ns#">
   <cc:Work>
    <dc:type rdf:resource="http://purl.org/dc/dcmitype/StillImage"/>
    <dc:date>2022-11-03T08:46:26.030547</dc:date>
    <dc:format>image/svg+xml</dc:format>
    <dc:creator>
     <cc:Agent>
      <dc:title>Matplotlib v3.6.2, https://matplotlib.org/</dc:title>
     </cc:Agent>
    </dc:creator>
   </cc:Work>
  </rdf:RDF>
 </metadata>
 <defs>
  <style type="text/css">*{stroke-linejoin: round; stroke-linecap: butt}</style>
 </defs>
 <g id="figure_1">
  <g id="patch_1">
   <path d="M 0 353.99952 
L 526.746263 353.99952 
L 526.746263 0 
L 0 0 
z
" style="fill: #ffffff"/>
  </g>
  <g id="axes_1">
   <g id="patch_2">
    <path d="M 63.213125 311.232957 
L 518.544868 311.232957 
L 518.544868 25.3575 
L 63.213125 25.3575 
z
" style="fill: #eeeeee"/>
   </g>
   <g id="matplotlib.axis_1">
    <g id="xtick_1">
     <g id="line2d_1">
      <path d="M 69.291804 311.232957 
L 69.291804 25.3575 
" clip-path="url(#pcd4efa0edf)" style="fill: none; stroke: #ffffff; stroke-width: 0.8; stroke-linecap: round"/>
     </g>
     <g id="line2d_2"/>
     <g id="text_1">
      <!-- −1.00 -->
      <g style="fill: #262626" transform="translate(47.840085 325.37077) scale(0.14 -0.14)">
       <defs>
        <path id="DejaVuSans-2212" d="M 678 2272 
L 4684 2272 
L 4684 1741 
L 678 1741 
L 678 2272 
z
" transform="scale(0.015625)"/>
        <path id="DejaVuSans-31" d="M 794 531 
L 1825 531 
L 1825 4091 
L 703 3866 
L 703 4441 
L 1819 4666 
L 2450 4666 
L 2450 531 
L 3481 531 
L 3481 0 
L 794 0 
L 794 531 
z
" transform="scale(0.015625)"/>
        <path id="DejaVuSans-2e" d="M 684 794 
L 1344 794 
L 1344 0 
L 684 0 
L 684 794 
z
" transform="scale(0.015625)"/>
        <path id="DejaVuSans-30" d="M 2034 4250 
Q 1547 4250 1301 3770 
Q 1056 3291 1056 2328 
Q 1056 1369 1301 889 
Q 1547 409 2034 409 
Q 2525 409 2770 889 
Q 3016 1369 3016 2328 
Q 3016 3291 2770 3770 
Q 2525 4250 2034 4250 
z
M 2034 4750 
Q 2819 4750 3233 4129 
Q 3647 3509 3647 2328 
Q 3647 1150 3233 529 
Q 2819 -91 2034 -91 
Q 1250 -91 836 529 
Q 422 1150 422 2328 
Q 422 3509 836 4129 
Q 1250 4750 2034 4750 
z
" transform="scale(0.015625)"/>
       </defs>
       <use xlink:href="#DejaVuSans-2212"/>
       <use xlink:href="#DejaVuSans-31" x="83.789062"/>
       <use xlink:href="#DejaVuSans-2e" x="147.412109"/>
       <use xlink:href="#DejaVuSans-30" x="179.199219"/>
       <use xlink:href="#DejaVuSans-30" x="242.822266"/>
      </g>
     </g>
    </g>
    <g id="xtick_2">
     <g id="line2d_3">
      <path d="M 123.625369 311.232957 
L 123.625369 25.3575 
" clip-path="url(#pcd4efa0edf)" style="fill: none; stroke: #ffffff; stroke-width: 0.8; stroke-linecap: round"/>
     </g>
     <g id="line2d_4"/>
     <g id="text_2">
      <!-- −0.75 -->
      <g style="fill: #262626" transform="translate(102.173651 325.37077) scale(0.14 -0.14)">
       <defs>
        <path id="DejaVuSans-37" d="M 525 4666 
L 3525 4666 
L 3525 4397 
L 1831 0 
L 1172 0 
L 2766 4134 
L 525 4134 
L 525 4666 
z
" transform="scale(0.015625)"/>
        <path id="DejaVuSans-35" d="M 691 4666 
L 3169 4666 
L 3169 4134 
L 1269 4134 
L 1269 2991 
Q 1406 3038 1543 3061 
Q 1681 3084 1819 3084 
Q 2600 3084 3056 2656 
Q 3513 2228 3513 1497 
Q 3513 744 3044 326 
Q 2575 -91 1722 -91 
Q 1428 -91 1123 -41 
Q 819 9 494 109 
L 494 744 
Q 775 591 1075 516 
Q 1375 441 1709 441 
Q 2250 441 2565 725 
Q 2881 1009 2881 1497 
Q 2881 1984 2565 2268 
Q 2250 2553 1709 2553 
Q 1456 2553 1204 2497 
Q 953 2441 691 2322 
L 691 4666 
z
" transform="scale(0.015625)"/>
       </defs>
       <use xlink:href="#DejaVuSans-2212"/>
       <use xlink:href="#DejaVuSans-30" x="83.789062"/>
       <use xlink:href="#DejaVuSans-2e" x="147.412109"/>
       <use xlink:href="#DejaVuSans-37" x="179.199219"/>
       <use xlink:href="#DejaVuSans-35" x="242.822266"/>
      </g>
     </g>
    </g>
    <g id="xtick_3">
     <g id="line2d_5">
      <path d="M 177.958935 311.232957 
L 177.958935 25.3575 
" clip-path="url(#pcd4efa0edf)" style="fill: none; stroke: #ffffff; stroke-width: 0.8; stroke-linecap: round"/>
     </g>
     <g id="line2d_6"/>
     <g id="text_3">
      <!-- −0.50 -->
      <g style="fill: #262626" transform="translate(156.507216 325.37077) scale(0.14 -0.14)">
       <use xlink:href="#DejaVuSans-2212"/>
       <use xlink:href="#DejaVuSans-30" x="83.789062"/>
       <use xlink:href="#DejaVuSans-2e" x="147.412109"/>
       <use xlink:href="#DejaVuSans-35" x="179.199219"/>
       <use xlink:href="#DejaVuSans-30" x="242.822266"/>
      </g>
     </g>
    </g>
    <g id="xtick_4">
     <g id="line2d_7">
      <path d="M 232.2925 311.232957 
L 232.2925 25.3575 
" clip-path="url(#pcd4efa0edf)" style="fill: none; stroke: #ffffff; stroke-width: 0.8; stroke-linecap: round"/>
     </g>
     <g id="line2d_8"/>
     <g id="text_4">
      <!-- −0.25 -->
      <g style="fill: #262626" transform="translate(210.840781 325.37077) scale(0.14 -0.14)">
       <defs>
        <path id="DejaVuSans-32" d="M 1228 531 
L 3431 531 
L 3431 0 
L 469 0 
L 469 531 
Q 828 903 1448 1529 
Q 2069 2156 2228 2338 
Q 2531 2678 2651 2914 
Q 2772 3150 2772 3378 
Q 2772 3750 2511 3984 
Q 2250 4219 1831 4219 
Q 1534 4219 1204 4116 
Q 875 4013 500 3803 
L 500 4441 
Q 881 4594 1212 4672 
Q 1544 4750 1819 4750 
Q 2544 4750 2975 4387 
Q 3406 4025 3406 3419 
Q 3406 3131 3298 2873 
Q 3191 2616 2906 2266 
Q 2828 2175 2409 1742 
Q 1991 1309 1228 531 
z
" transform="scale(0.015625)"/>
       </defs>
       <use xlink:href="#DejaVuSans-2212"/>
       <use xlink:href="#DejaVuSans-30" x="83.789062"/>
       <use xlink:href="#DejaVuSans-2e" x="147.412109"/>
       <use xlink:href="#DejaVuSans-32" x="179.199219"/>
       <use xlink:href="#DejaVuSans-35" x="242.822266"/>
      </g>
     </g>
    </g>
    <g id="xtick_5">
     <g id="line2d_9">
      <path d="M 286.626065 311.232957 
L 286.626065 25.3575 
" clip-path="url(#pcd4efa0edf)" style="fill: none; stroke: #ffffff; stroke-width: 0.8; stroke-linecap: round"/>
     </g>
     <g id="line2d_10"/>
     <g id="text_5">
      <!-- 0.00 -->
      <g style="fill: #262626" transform="translate(271.040128 325.37077) scale(0.14 -0.14)">
       <use xlink:href="#DejaVuSans-30"/>
       <use xlink:href="#DejaVuSans-2e" x="63.623047"/>
       <use xlink:href="#DejaVuSans-30" x="95.410156"/>
       <use xlink:href="#DejaVuSans-30" x="159.033203"/>
      </g>
     </g>
    </g>
    <g id="xtick_6">
     <g id="line2d_11">
      <path d="M 340.95963 311.232957 
L 340.95963 25.3575 
" clip-path="url(#pcd4efa0edf)" style="fill: none; stroke: #ffffff; stroke-width: 0.8; stroke-linecap: round"/>
     </g>
     <g id="line2d_12"/>
     <g id="text_6">
      <!-- 0.25 -->
      <g style="fill: #262626" transform="translate(325.373693 325.37077) scale(0.14 -0.14)">
       <use xlink:href="#DejaVuSans-30"/>
       <use xlink:href="#DejaVuSans-2e" x="63.623047"/>
       <use xlink:href="#DejaVuSans-32" x="95.410156"/>
       <use xlink:href="#DejaVuSans-35" x="159.033203"/>
      </g>
     </g>
    </g>
    <g id="xtick_7">
     <g id="line2d_13">
      <path d="M 395.293195 311.232957 
L 395.293195 25.3575 
" clip-path="url(#pcd4efa0edf)" style="fill: none; stroke: #ffffff; stroke-width: 0.8; stroke-linecap: round"/>
     </g>
     <g id="line2d_14"/>
     <g id="text_7">
      <!-- 0.50 -->
      <g style="fill: #262626" transform="translate(379.707258 325.37077) scale(0.14 -0.14)">
       <use xlink:href="#DejaVuSans-30"/>
       <use xlink:href="#DejaVuSans-2e" x="63.623047"/>
       <use xlink:href="#DejaVuSans-35" x="95.410156"/>
       <use xlink:href="#DejaVuSans-30" x="159.033203"/>
      </g>
     </g>
    </g>
    <g id="xtick_8">
     <g id="line2d_15">
      <path d="M 449.626761 311.232957 
L 449.626761 25.3575 
" clip-path="url(#pcd4efa0edf)" style="fill: none; stroke: #ffffff; stroke-width: 0.8; stroke-linecap: round"/>
     </g>
     <g id="line2d_16"/>
     <g id="text_8">
      <!-- 0.75 -->
      <g style="fill: #262626" transform="translate(434.040823 325.37077) scale(0.14 -0.14)">
       <use xlink:href="#DejaVuSans-30"/>
       <use xlink:href="#DejaVuSans-2e" x="63.623047"/>
       <use xlink:href="#DejaVuSans-37" x="95.410156"/>
       <use xlink:href="#DejaVuSans-35" x="159.033203"/>
      </g>
     </g>
    </g>
    <g id="xtick_9">
     <g id="line2d_17">
      <path d="M 503.960326 311.232957 
L 503.960326 25.3575 
" clip-path="url(#pcd4efa0edf)" style="fill: none; stroke: #ffffff; stroke-width: 0.8; stroke-linecap: round"/>
     </g>
     <g id="line2d_18"/>
     <g id="text_9">
      <!-- 1.00 -->
      <g style="fill: #262626" transform="translate(488.374388 325.37077) scale(0.14 -0.14)">
       <use xlink:href="#DejaVuSans-31"/>
       <use xlink:href="#DejaVuSans-2e" x="63.623047"/>
       <use xlink:href="#DejaVuSans-30" x="95.410156"/>
       <use xlink:href="#DejaVuSans-30" x="159.033203"/>
      </g>
     </g>
    </g>
    <g id="text_10">
     <!-- x -->
     <g style="fill: #262626" transform="translate(286.439934 343.679989) scale(0.15 -0.15)">
      <defs>
       <path id="DejaVuSans-78" d="M 3513 3500 
L 2247 1797 
L 3578 0 
L 2900 0 
L 1881 1375 
L 863 0 
L 184 0 
L 1544 1831 
L 300 3500 
L 978 3500 
L 1906 2253 
L 2834 3500 
L 3513 3500 
z
" transform="scale(0.015625)"/>
      </defs>
      <use xlink:href="#DejaVuSans-78"/>
     </g>
    </g>
   </g>
   <g id="matplotlib.axis_2">
    <g id="ytick_1">
     <g id="line2d_19">
      <path d="M 63.213125 280.591438 
L 518.544868 280.591438 
" clip-path="url(#pcd4efa0edf)" style="fill: none; stroke: #ffffff; stroke-width: 0.8; stroke-linecap: round"/>
     </g>
     <g id="line2d_20"/>
     <g id="text_11">
      <!-- −1.0 -->
      <g style="fill: #262626" transform="translate(25.717188 285.910345) scale(0.14 -0.14)">
       <use xlink:href="#DejaVuSans-2212"/>
       <use xlink:href="#DejaVuSans-31" x="83.789062"/>
       <use xlink:href="#DejaVuSans-2e" x="147.412109"/>
       <use xlink:href="#DejaVuSans-30" x="179.199219"/>
      </g>
     </g>
    </g>
    <g id="ytick_2">
     <g id="line2d_21">
      <path d="M 63.213125 235.501457 
L 518.544868 235.501457 
" clip-path="url(#pcd4efa0edf)" style="fill: none; stroke: #ffffff; stroke-width: 0.8; stroke-linecap: round"/>
     </g>
     <g id="line2d_22"/>
     <g id="text_12">
      <!-- −0.5 -->
      <g style="fill: #262626" transform="translate(25.717188 240.820363) scale(0.14 -0.14)">
       <use xlink:href="#DejaVuSans-2212"/>
       <use xlink:href="#DejaVuSans-30" x="83.789062"/>
       <use xlink:href="#DejaVuSans-2e" x="147.412109"/>
       <use xlink:href="#DejaVuSans-35" x="179.199219"/>
      </g>
     </g>
    </g>
    <g id="ytick_3">
     <g id="line2d_23">
      <path d="M 63.213125 190.411476 
L 518.544868 190.411476 
" clip-path="url(#pcd4efa0edf)" style="fill: none; stroke: #ffffff; stroke-width: 0.8; stroke-linecap: round"/>
     </g>
     <g id="line2d_24"/>
     <g id="text_13">
      <!-- 0.0 -->
      <g style="fill: #262626" transform="translate(37.44875 195.730382) scale(0.14 -0.14)">
       <use xlink:href="#DejaVuSans-30"/>
       <use xlink:href="#DejaVuSans-2e" x="63.623047"/>
       <use xlink:href="#DejaVuSans-30" x="95.410156"/>
      </g>
     </g>
    </g>
    <g id="ytick_4">
     <g id="line2d_25">
      <path d="M 63.213125 145.321494 
L 518.544868 145.321494 
" clip-path="url(#pcd4efa0edf)" style="fill: none; stroke: #ffffff; stroke-width: 0.8; stroke-linecap: round"/>
     </g>
     <g id="line2d_26"/>
     <g id="text_14">
      <!-- 0.5 -->
      <g style="fill: #262626" transform="translate(37.44875 150.640401) scale(0.14 -0.14)">
       <use xlink:href="#DejaVuSans-30"/>
       <use xlink:href="#DejaVuSans-2e" x="63.623047"/>
       <use xlink:href="#DejaVuSans-35" x="95.410156"/>
      </g>
     </g>
    </g>
    <g id="ytick_5">
     <g id="line2d_27">
      <path d="M 63.213125 100.231513 
L 518.544868 100.231513 
" clip-path="url(#pcd4efa0edf)" style="fill: none; stroke: #ffffff; stroke-width: 0.8; stroke-linecap: round"/>
     </g>
     <g id="line2d_28"/>
     <g id="text_15">
      <!-- 1.0 -->
      <g style="fill: #262626" transform="translate(37.44875 105.550419) scale(0.14 -0.14)">
       <use xlink:href="#DejaVuSans-31"/>
       <use xlink:href="#DejaVuSans-2e" x="63.623047"/>
       <use xlink:href="#DejaVuSans-30" x="95.410156"/>
      </g>
     </g>
    </g>
    <g id="ytick_6">
     <g id="line2d_29">
      <path d="M 63.213125 55.141532 
L 518.544868 55.141532 
" clip-path="url(#pcd4efa0edf)" style="fill: none; stroke: #ffffff; stroke-width: 0.8; stroke-linecap: round"/>
     </g>
     <g id="line2d_30"/>
     <g id="text_16">
      <!-- 1.5 -->
      <g style="fill: #262626" transform="translate(37.44875 60.460438) scale(0.14 -0.14)">
       <use xlink:href="#DejaVuSans-31"/>
       <use xlink:href="#DejaVuSans-2e" x="63.623047"/>
       <use xlink:href="#DejaVuSans-35" x="95.410156"/>
      </g>
     </g>
    </g>
    <g id="text_17">
     <!-- y -->
     <g style="fill: #262626" transform="translate(18.597656 172.734291) rotate(-90) scale(0.15 -0.15)">
      <defs>
       <path id="DejaVuSans-79" d="M 2059 -325 
Q 1816 -950 1584 -1140 
Q 1353 -1331 966 -1331 
L 506 -1331 
L 506 -850 
L 844 -850 
Q 1081 -850 1212 -737 
Q 1344 -625 1503 -206 
L 1606 56 
L 191 3500 
L 800 3500 
L 1894 763 
L 2988 3500 
L 3597 3500 
L 2059 -325 
z
" transform="scale(0.015625)"/>
      </defs>
      <use xlink:href="#DejaVuSans-79"/>
     </g>
    </g>
   </g>
   <g id="PathCollection_1">
    <defs>
     <path id="mb01cd2a71c" d="M 0 3 
C 0.795609 3 1.55874 2.683901 2.12132 2.12132 
C 2.683901 1.55874 3 0.795609 3 0 
C 3 -0.795609 2.683901 -1.55874 2.12132 -2.12132 
C 1.55874 -2.683901 0.795609 -3 0 -3 
C -0.795609 -3 -1.55874 -2.683901 -2.12132 -2.12132 
C -2.683901 -1.55874 -3 -0.795609 -3 0 
C -3 0.795609 -2.683901 1.55874 -2.12132 2.12132 
C -1.55874 2.683901 -0.795609 3 0 3 
z
" style="stroke: #ffffff; stroke-width: 0.48"/>
    </defs>
    <g clip-path="url(#pcd4efa0edf)">
     <use xlink:href="#mb01cd2a71c" x="83.910022" y="198.700743" style="stroke: #ffffff; stroke-width: 0.48"/>
     <use xlink:href="#mb01cd2a71c" x="84.336022" y="224.920042" style="stroke: #ffffff; stroke-width: 0.48"/>
     <use xlink:href="#mb01cd2a71c" x="84.69857" y="206.804935" style="stroke: #ffffff; stroke-width: 0.48"/>
     <use xlink:href="#mb01cd2a71c" x="89.412792" y="216.405395" style="stroke: #ffffff; stroke-width: 0.48"/>
     <use xlink:href="#mb01cd2a71c" x="94.835298" y="228.360153" style="stroke: #ffffff; stroke-width: 0.48"/>
     <use xlink:href="#mb01cd2a71c" x="94.920755" y="240.456091" style="stroke: #ffffff; stroke-width: 0.48"/>
     <use xlink:href="#mb01cd2a71c" x="105.526504" y="241.473393" style="stroke: #ffffff; stroke-width: 0.48"/>
     <use xlink:href="#mb01cd2a71c" x="107.174569" y="234.042615" style="stroke: #ffffff; stroke-width: 0.48"/>
     <use xlink:href="#mb01cd2a71c" x="112.222407" y="234.128568" style="stroke: #ffffff; stroke-width: 0.48"/>
     <use xlink:href="#mb01cd2a71c" x="114.768501" y="254.236147" style="stroke: #ffffff; stroke-width: 0.48"/>
     <use xlink:href="#mb01cd2a71c" x="117.423734" y="256.91661" style="stroke: #ffffff; stroke-width: 0.48"/>
     <use xlink:href="#mb01cd2a71c" x="125.295493" y="248.875468" style="stroke: #ffffff; stroke-width: 0.48"/>
     <use xlink:href="#mb01cd2a71c" x="141.833089" y="265.511373" style="stroke: #ffffff; stroke-width: 0.48"/>
     <use xlink:href="#mb01cd2a71c" x="141.9756" y="280.500992" style="stroke: #ffffff; stroke-width: 0.48"/>
     <use xlink:href="#mb01cd2a71c" x="145.162711" y="289.447248" style="stroke: #ffffff; stroke-width: 0.48"/>
     <use xlink:href="#mb01cd2a71c" x="145.509225" y="274.176257" style="stroke: #ffffff; stroke-width: 0.48"/>
     <use xlink:href="#mb01cd2a71c" x="147.059173" y="280.047686" style="stroke: #ffffff; stroke-width: 0.48"/>
     <use xlink:href="#mb01cd2a71c" x="147.299032" y="270.903225" style="stroke: #ffffff; stroke-width: 0.48"/>
     <use xlink:href="#mb01cd2a71c" x="149.509041" y="291.698264" style="stroke: #ffffff; stroke-width: 0.48"/>
     <use xlink:href="#mb01cd2a71c" x="159.417963" y="267.826941" style="stroke: #ffffff; stroke-width: 0.48"/>
     <use xlink:href="#mb01cd2a71c" x="163.564673" y="271.487154" style="stroke: #ffffff; stroke-width: 0.48"/>
     <use xlink:href="#mb01cd2a71c" x="168.797623" y="270.8026" style="stroke: #ffffff; stroke-width: 0.48"/>
     <use xlink:href="#mb01cd2a71c" x="170.455346" y="258.740624" style="stroke: #ffffff; stroke-width: 0.48"/>
     <use xlink:href="#mb01cd2a71c" x="172.701312" y="263.81609" style="stroke: #ffffff; stroke-width: 0.48"/>
     <use xlink:href="#mb01cd2a71c" x="188.833339" y="271.64091" style="stroke: #ffffff; stroke-width: 0.48"/>
     <use xlink:href="#mb01cd2a71c" x="194.379694" y="285.547727" style="stroke: #ffffff; stroke-width: 0.48"/>
     <use xlink:href="#mb01cd2a71c" x="195.102613" y="278.427794" style="stroke: #ffffff; stroke-width: 0.48"/>
     <use xlink:href="#mb01cd2a71c" x="203.349595" y="272.509898" style="stroke: #ffffff; stroke-width: 0.48"/>
     <use xlink:href="#mb01cd2a71c" x="205.405779" y="281.057142" style="stroke: #ffffff; stroke-width: 0.48"/>
     <use xlink:href="#mb01cd2a71c" x="208.282416" y="274.925157" style="stroke: #ffffff; stroke-width: 0.48"/>
     <use xlink:href="#mb01cd2a71c" x="208.871219" y="284.340837" style="stroke: #ffffff; stroke-width: 0.48"/>
     <use xlink:href="#mb01cd2a71c" x="210.295392" y="260.382616" style="stroke: #ffffff; stroke-width: 0.48"/>
     <use xlink:href="#mb01cd2a71c" x="211.069273" y="261.222981" style="stroke: #ffffff; stroke-width: 0.48"/>
     <use xlink:href="#mb01cd2a71c" x="211.748993" y="256.290355" style="stroke: #ffffff; stroke-width: 0.48"/>
     <use xlink:href="#mb01cd2a71c" x="216.562155" y="261.991242" style="stroke: #ffffff; stroke-width: 0.48"/>
     <use xlink:href="#mb01cd2a71c" x="230.422528" y="253.145636" style="stroke: #ffffff; stroke-width: 0.48"/>
     <use xlink:href="#mb01cd2a71c" x="235.037652" y="258.01517" style="stroke: #ffffff; stroke-width: 0.48"/>
     <use xlink:href="#mb01cd2a71c" x="239.493093" y="230.720103" style="stroke: #ffffff; stroke-width: 0.48"/>
     <use xlink:href="#mb01cd2a71c" x="243.175218" y="236.679137" style="stroke: #ffffff; stroke-width: 0.48"/>
     <use xlink:href="#mb01cd2a71c" x="245.068273" y="243.593107" style="stroke: #ffffff; stroke-width: 0.48"/>
     <use xlink:href="#mb01cd2a71c" x="249.100659" y="242.232839" style="stroke: #ffffff; stroke-width: 0.48"/>
     <use xlink:href="#mb01cd2a71c" x="258.305684" y="224.250782" style="stroke: #ffffff; stroke-width: 0.48"/>
     <use xlink:href="#mb01cd2a71c" x="262.182011" y="213.869366" style="stroke: #ffffff; stroke-width: 0.48"/>
     <use xlink:href="#mb01cd2a71c" x="266.093358" y="224.675159" style="stroke: #ffffff; stroke-width: 0.48"/>
     <use xlink:href="#mb01cd2a71c" x="266.798071" y="232.139878" style="stroke: #ffffff; stroke-width: 0.48"/>
     <use xlink:href="#mb01cd2a71c" x="269.087997" y="206.102783" style="stroke: #ffffff; stroke-width: 0.48"/>
     <use xlink:href="#mb01cd2a71c" x="281.112906" y="194.83727" style="stroke: #ffffff; stroke-width: 0.48"/>
     <use xlink:href="#mb01cd2a71c" x="284.936083" y="200.469279" style="stroke: #ffffff; stroke-width: 0.48"/>
     <use xlink:href="#mb01cd2a71c" x="286.235929" y="202.120722" style="stroke: #ffffff; stroke-width: 0.48"/>
     <use xlink:href="#mb01cd2a71c" x="289.454876" y="199.155357" style="stroke: #ffffff; stroke-width: 0.48"/>
     <use xlink:href="#mb01cd2a71c" x="289.523467" y="202.572432" style="stroke: #ffffff; stroke-width: 0.48"/>
     <use xlink:href="#mb01cd2a71c" x="299.076053" y="179.503681" style="stroke: #ffffff; stroke-width: 0.48"/>
     <use xlink:href="#mb01cd2a71c" x="301.144193" y="181.565226" style="stroke: #ffffff; stroke-width: 0.48"/>
     <use xlink:href="#mb01cd2a71c" x="304.354028" y="162.435546" style="stroke: #ffffff; stroke-width: 0.48"/>
     <use xlink:href="#mb01cd2a71c" x="310.233288" y="157.819503" style="stroke: #ffffff; stroke-width: 0.48"/>
     <use xlink:href="#mb01cd2a71c" x="310.81556" y="161.448776" style="stroke: #ffffff; stroke-width: 0.48"/>
     <use xlink:href="#mb01cd2a71c" x="316.333421" y="146.046358" style="stroke: #ffffff; stroke-width: 0.48"/>
     <use xlink:href="#mb01cd2a71c" x="326.15288" y="138.590688" style="stroke: #ffffff; stroke-width: 0.48"/>
     <use xlink:href="#mb01cd2a71c" x="329.473717" y="129.560065" style="stroke: #ffffff; stroke-width: 0.48"/>
     <use xlink:href="#mb01cd2a71c" x="345.717135" y="107.669796" style="stroke: #ffffff; stroke-width: 0.48"/>
     <use xlink:href="#mb01cd2a71c" x="345.912491" y="112.647873" style="stroke: #ffffff; stroke-width: 0.48"/>
     <use xlink:href="#mb01cd2a71c" x="348.40895" y="131.344263" style="stroke: #ffffff; stroke-width: 0.48"/>
     <use xlink:href="#mb01cd2a71c" x="350.254007" y="131.788311" style="stroke: #ffffff; stroke-width: 0.48"/>
     <use xlink:href="#mb01cd2a71c" x="350.642973" y="118.676377" style="stroke: #ffffff; stroke-width: 0.48"/>
     <use xlink:href="#mb01cd2a71c" x="361.213638" y="121.578515" style="stroke: #ffffff; stroke-width: 0.48"/>
     <use xlink:href="#mb01cd2a71c" x="363.251157" y="120.568564" style="stroke: #ffffff; stroke-width: 0.48"/>
     <use xlink:href="#mb01cd2a71c" x="365.881418" y="102.958692" style="stroke: #ffffff; stroke-width: 0.48"/>
     <use xlink:href="#mb01cd2a71c" x="366.74208" y="133.888524" style="stroke: #ffffff; stroke-width: 0.48"/>
     <use xlink:href="#mb01cd2a71c" x="370.659001" y="106.503801" style="stroke: #ffffff; stroke-width: 0.48"/>
     <use xlink:href="#mb01cd2a71c" x="377.968914" y="101.452071" style="stroke: #ffffff; stroke-width: 0.48"/>
     <use xlink:href="#mb01cd2a71c" x="382.373811" y="98.477208" style="stroke: #ffffff; stroke-width: 0.48"/>
     <use xlink:href="#mb01cd2a71c" x="384.627721" y="97.687612" style="stroke: #ffffff; stroke-width: 0.48"/>
     <use xlink:href="#mb01cd2a71c" x="384.895427" y="105.738816" style="stroke: #ffffff; stroke-width: 0.48"/>
     <use xlink:href="#mb01cd2a71c" x="385.076865" y="111.430255" style="stroke: #ffffff; stroke-width: 0.48"/>
     <use xlink:href="#mb01cd2a71c" x="392.383214" y="93.738208" style="stroke: #ffffff; stroke-width: 0.48"/>
     <use xlink:href="#mb01cd2a71c" x="408.505902" y="59.341661" style="stroke: #ffffff; stroke-width: 0.48"/>
     <use xlink:href="#mb01cd2a71c" x="414.78928" y="60.635841" style="stroke: #ffffff; stroke-width: 0.48"/>
     <use xlink:href="#mb01cd2a71c" x="418.379741" y="72.951346" style="stroke: #ffffff; stroke-width: 0.48"/>
     <use xlink:href="#mb01cd2a71c" x="423.312125" y="64.433697" style="stroke: #ffffff; stroke-width: 0.48"/>
     <use xlink:href="#mb01cd2a71c" x="424.220592" y="68.577618" style="stroke: #ffffff; stroke-width: 0.48"/>
     <use xlink:href="#mb01cd2a71c" x="427.130787" y="60.317605" style="stroke: #ffffff; stroke-width: 0.48"/>
     <use xlink:href="#mb01cd2a71c" x="428.394188" y="67.386336" style="stroke: #ffffff; stroke-width: 0.48"/>
     <use xlink:href="#mb01cd2a71c" x="431.732798" y="77.586508" style="stroke: #ffffff; stroke-width: 0.48"/>
     <use xlink:href="#mb01cd2a71c" x="432.894093" y="56.930181" style="stroke: #ffffff; stroke-width: 0.48"/>
     <use xlink:href="#mb01cd2a71c" x="433.879567" y="56.851381" style="stroke: #ffffff; stroke-width: 0.48"/>
     <use xlink:href="#mb01cd2a71c" x="438.591916" y="64.595488" style="stroke: #ffffff; stroke-width: 0.48"/>
     <use xlink:href="#mb01cd2a71c" x="441.61939" y="68.182136" style="stroke: #ffffff; stroke-width: 0.48"/>
     <use xlink:href="#mb01cd2a71c" x="445.959405" y="69.227407" style="stroke: #ffffff; stroke-width: 0.48"/>
     <use xlink:href="#mb01cd2a71c" x="454.085761" y="77.125139" style="stroke: #ffffff; stroke-width: 0.48"/>
     <use xlink:href="#mb01cd2a71c" x="454.160468" y="72.833759" style="stroke: #ffffff; stroke-width: 0.48"/>
     <use xlink:href="#mb01cd2a71c" x="464.439127" y="80.325348" style="stroke: #ffffff; stroke-width: 0.48"/>
     <use xlink:href="#mb01cd2a71c" x="464.787074" y="94.826984" style="stroke: #ffffff; stroke-width: 0.48"/>
     <use xlink:href="#mb01cd2a71c" x="477.548688" y="107.740894" style="stroke: #ffffff; stroke-width: 0.48"/>
     <use xlink:href="#mb01cd2a71c" x="480.628972" y="102.009787" style="stroke: #ffffff; stroke-width: 0.48"/>
     <use xlink:href="#mb01cd2a71c" x="480.649141" y="104.104872" style="stroke: #ffffff; stroke-width: 0.48"/>
     <use xlink:href="#mb01cd2a71c" x="483.017451" y="111.61552" style="stroke: #ffffff; stroke-width: 0.48"/>
     <use xlink:href="#mb01cd2a71c" x="489.376035" y="122.89792" style="stroke: #ffffff; stroke-width: 0.48"/>
     <use xlink:href="#mb01cd2a71c" x="493.102116" y="108.586628" style="stroke: #ffffff; stroke-width: 0.48"/>
     <use xlink:href="#mb01cd2a71c" x="496.132545" y="118.309089" style="stroke: #ffffff; stroke-width: 0.48"/>
     <use xlink:href="#mb01cd2a71c" x="497.847971" y="123.697212" style="stroke: #ffffff; stroke-width: 0.48"/>
    </g>
   </g>
   <g id="PolyCollection_1">
    <defs>
     <path id="m32f11e3c2b" d="M 83.910022 -162.608 
L 83.910022 -123.381739 
L 85.990113 -119.889437 
L 88.070203 -116.745289 
L 90.150293 -114.805825 
L 92.230383 -112.035133 
L 94.310473 -108.410409 
L 96.390564 -106.269295 
L 98.470654 -104.561838 
L 100.550744 -101.540744 
L 102.630834 -99.087434 
L 104.710924 -96.753931 
L 106.791015 -94.24007 
L 108.871105 -92.746527 
L 110.951195 -89.281455 
L 113.031285 -87.725065 
L 115.111375 -85.310225 
L 117.191466 -83.501051 
L 119.271556 -81.652021 
L 121.351646 -79.342194 
L 123.431736 -77.310488 
L 125.511826 -76.099843 
L 127.591917 -73.753635 
L 129.672007 -72.964491 
L 131.752097 -71.457446 
L 133.832187 -70.208035 
L 135.912277 -68.566722 
L 137.992367 -66.924118 
L 140.072458 -65.712736 
L 142.152548 -65.065213 
L 144.232638 -63.743894 
L 146.312728 -62.399212 
L 148.392818 -61.634274 
L 150.472909 -60.777196 
L 152.552999 -60.192043 
L 154.633089 -58.805052 
L 156.713179 -59.070461 
L 158.793269 -58.291146 
L 160.87336 -57.982882 
L 162.95345 -57.7981 
L 165.03354 -57.127699 
L 167.11363 -56.653281 
L 169.19372 -56.481133 
L 171.273811 -56.125889 
L 173.353901 -56.893968 
L 175.433991 -55.760901 
L 177.514081 -56.570278 
L 179.594171 -56.424169 
L 181.674262 -56.657943 
L 183.754352 -57.19594 
L 185.834442 -58.045965 
L 187.914532 -58.150899 
L 189.994622 -57.793515 
L 192.074713 -58.5736 
L 194.154803 -60.015638 
L 196.234893 -60.703359 
L 198.314983 -61.456128 
L 200.395073 -62.126812 
L 202.475163 -63.696559 
L 204.555254 -63.607393 
L 206.635344 -65.966842 
L 208.715434 -65.916939 
L 210.795524 -67.700228 
L 212.875614 -69.474463 
L 214.955705 -70.270518 
L 217.035795 -71.908062 
L 219.115885 -73.719323 
L 221.195975 -74.943736 
L 223.276065 -76.445856 
L 225.356156 -78.930466 
L 227.436246 -79.920196 
L 229.516336 -82.186676 
L 231.596426 -83.797042 
L 233.676516 -85.29649 
L 235.756607 -87.359993 
L 237.836697 -89.082276 
L 239.916787 -91.036286 
L 241.996877 -93.290561 
L 244.076967 -95.296812 
L 246.157058 -96.500099 
L 248.237148 -99.072152 
L 250.317238 -101.249652 
L 252.397328 -103.52084 
L 254.477418 -105.950743 
L 256.557509 -107.673726 
L 258.637599 -110.113135 
L 260.717689 -112.971092 
L 262.797779 -114.685282 
L 264.877869 -117.077306 
L 266.957959 -118.766734 
L 269.03805 -122.147258 
L 271.11814 -124.121193 
L 273.19823 -126.834888 
L 275.27832 -128.841902 
L 277.35841 -130.866129 
L 279.438501 -133.92171 
L 281.518591 -136.175016 
L 283.598681 -138.611447 
L 285.678771 -140.91196 
L 287.758861 -143.720735 
L 289.838952 -146.014765 
L 291.919042 -148.249215 
L 293.999132 -150.617681 
L 296.079222 -153.336071 
L 298.159312 -155.506241 
L 300.239403 -158.459545 
L 302.319493 -161.458218 
L 304.399583 -163.85621 
L 306.479673 -165.584258 
L 308.559763 -168.546306 
L 310.639854 -170.381489 
L 312.719944 -173.371591 
L 314.800034 -175.694102 
L 316.880124 -177.42939 
L 318.960214 -179.689699 
L 321.040305 -182.486062 
L 323.120395 -184.924181 
L 325.200485 -187.00242 
L 327.280575 -190.647039 
L 329.360665 -191.567964 
L 331.440756 -194.245668 
L 333.520846 -196.223986 
L 335.600936 -199.027699 
L 337.681026 -200.567642 
L 339.761116 -202.812124 
L 341.841206 -204.605038 
L 343.921297 -206.421476 
L 346.001387 -208.206442 
L 348.081477 -210.274142 
L 350.161567 -212.151303 
L 352.241657 -213.519891 
L 354.321748 -214.927046 
L 356.401838 -217.205068 
L 358.481928 -218.686147 
L 360.562018 -220.756082 
L 362.642108 -222.993919 
L 364.722199 -223.893384 
L 366.802289 -224.90648 
L 368.882379 -226.344247 
L 370.962469 -227.195692 
L 373.042559 -228.983849 
L 375.12265 -229.580016 
L 377.20274 -231.325664 
L 379.28283 -232.292199 
L 381.36292 -233.249267 
L 383.44301 -234.241695 
L 385.523101 -233.325907 
L 387.603191 -235.681693 
L 389.683281 -236.524352 
L 391.763371 -236.729403 
L 393.843461 -237.361651 
L 395.923552 -271.697391 
L 398.003642 -271.827951 
L 400.083732 -273.064258 
L 402.163822 -272.899967 
L 404.243912 -273.884756 
L 406.324002 -273.900304 
L 408.404093 -273.884576 
L 410.484183 -274.805005 
L 412.564273 -273.71202 
L 414.644363 -273.351106 
L 416.724453 -274.068755 
L 418.804544 -272.967309 
L 420.884634 -272.903613 
L 422.964724 -272.441793 
L 425.044814 -272.32034 
L 427.124904 -271.848587 
L 429.204995 -270.045768 
L 431.285085 -269.424259 
L 433.365175 -268.962015 
L 435.445265 -267.672 
L 437.525355 -266.797215 
L 439.605446 -264.625755 
L 441.685536 -264.311392 
L 443.765626 -263.435439 
L 445.845716 -260.759337 
L 447.925806 -260.031361 
L 450.005897 -258.165979 
L 452.085987 -256.178767 
L 454.166077 -255.615301 
L 456.246167 -252.962156 
L 458.326257 -251.50665 
L 460.406348 -251.20817 
L 462.486438 -248.378803 
L 464.566528 -245.914067 
L 466.646618 -244.667326 
L 468.726708 -243.483818 
L 470.806798 -241.507084 
L 472.886889 -238.617013 
L 474.966979 -237.130613 
L 477.047069 -235.257148 
L 479.127159 -232.40266 
L 481.207249 -230.444684 
L 483.28734 -228.34101 
L 485.36743 -225.930247 
L 487.44752 -223.787432 
L 489.52761 -220.528219 
L 491.6077 -219.202406 
L 493.687791 -216.328864 
L 495.767881 -212.377665 
L 497.847971 -209.524003 
L 497.847971 -251.692308 
L 497.847971 -251.692308 
L 495.767881 -252.961726 
L 493.687791 -255.176191 
L 491.6077 -258.40999 
L 489.52761 -259.697191 
L 487.44752 -261.480729 
L 485.36743 -264.77599 
L 483.28734 -266.962349 
L 481.207249 -268.685651 
L 479.127159 -270.590173 
L 477.047069 -273.41998 
L 474.966979 -275.081265 
L 472.886889 -277.625147 
L 470.806798 -279.083573 
L 468.726708 -281.80307 
L 466.646618 -283.599848 
L 464.566528 -285.632505 
L 462.486438 -287.574079 
L 460.406348 -288.549332 
L 458.326257 -290.761315 
L 456.246167 -292.496867 
L 454.166077 -293.842751 
L 452.085987 -295.504307 
L 450.005897 -297.325554 
L 447.925806 -298.64116 
L 445.845716 -299.554167 
L 443.765626 -301.329951 
L 441.685536 -301.894061 
L 439.605446 -303.786009 
L 437.525355 -304.622384 
L 435.445265 -305.419357 
L 433.365175 -306.285697 
L 431.285085 -307.863628 
L 429.204995 -308.413058 
L 427.124904 -309.511255 
L 425.044814 -310.854048 
L 422.964724 -310.578283 
L 420.884634 -311.266483 
L 418.804544 -311.888228 
L 416.724453 -311.792569 
L 414.644363 -313.605687 
L 412.564273 -313.735758 
L 410.484183 -314.590309 
L 408.404093 -313.803058 
L 406.324002 -314.511685 
L 404.243912 -315.475718 
L 402.163822 -315.622505 
L 400.083732 -314.410816 
L 398.003642 -314.878347 
L 395.923552 -315.647681 
L 393.843461 -276.14102 
L 391.763371 -275.174345 
L 389.683281 -275.084624 
L 387.603191 -273.110719 
L 385.523101 -273.382441 
L 383.44301 -272.220836 
L 381.36292 -270.343811 
L 379.28283 -270.419646 
L 377.20274 -268.873186 
L 375.12265 -267.892128 
L 373.042559 -266.880168 
L 370.962469 -265.122677 
L 368.882379 -264.408594 
L 366.802289 -262.288303 
L 364.722199 -260.92316 
L 362.642108 -259.781031 
L 360.562018 -258.435945 
L 358.481928 -256.320214 
L 356.401838 -254.935655 
L 354.321748 -252.716306 
L 352.241657 -251.441155 
L 350.161567 -249.962456 
L 348.081477 -248.177737 
L 346.001387 -246.064357 
L 343.921297 -244.00703 
L 341.841206 -241.402599 
L 339.761116 -239.102302 
L 337.681026 -237.009433 
L 335.600936 -235.680457 
L 333.520846 -233.543354 
L 331.440756 -231.913126 
L 329.360665 -229.378552 
L 327.280575 -226.797914 
L 325.200485 -224.97718 
L 323.120395 -222.706188 
L 321.040305 -220.058424 
L 318.960214 -218.213599 
L 316.880124 -216.068486 
L 314.800034 -212.343426 
L 312.719944 -210.594603 
L 310.639854 -207.763324 
L 308.559763 -205.830217 
L 306.479673 -202.892903 
L 304.399583 -200.690048 
L 302.319493 -197.758468 
L 300.239403 -196.138437 
L 298.159312 -193.415042 
L 296.079222 -190.227955 
L 293.999132 -188.73604 
L 291.919042 -185.772924 
L 289.838952 -183.640628 
L 287.758861 -181.123263 
L 285.678771 -178.799088 
L 283.598681 -175.452465 
L 281.518591 -173.385751 
L 279.438501 -171.568707 
L 277.35841 -168.772027 
L 275.27832 -166.4364 
L 273.19823 -164.142813 
L 271.11814 -161.71037 
L 269.03805 -159.156586 
L 266.957959 -157.289922 
L 264.877869 -154.463016 
L 262.797779 -152.410871 
L 260.717689 -150.074723 
L 258.637599 -147.288274 
L 256.557509 -145.15786 
L 254.477418 -142.332115 
L 252.397328 -140.587222 
L 250.317238 -138.720885 
L 248.237148 -136.984682 
L 246.157058 -134.222879 
L 244.076967 -132.112707 
L 241.996877 -130.52011 
L 239.916787 -128.423611 
L 237.836697 -126.803137 
L 235.756607 -124.601833 
L 233.676516 -122.768665 
L 231.596426 -120.381351 
L 229.516336 -119.018444 
L 227.436246 -117.45668 
L 225.356156 -115.133871 
L 223.276065 -113.783132 
L 221.195975 -112.64599 
L 219.115885 -110.246265 
L 217.035795 -108.745557 
L 214.955705 -108.061704 
L 212.875614 -106.855983 
L 210.795524 -105.359803 
L 208.715434 -102.916873 
L 206.635344 -104.255073 
L 204.555254 -102.08524 
L 202.475163 -100.89408 
L 200.395073 -100.075871 
L 198.314983 -98.567805 
L 196.234893 -97.899084 
L 194.154803 -97.622576 
L 192.074713 -95.998856 
L 189.994622 -95.637044 
L 187.914532 -95.550313 
L 185.834442 -95.01596 
L 183.754352 -94.414231 
L 181.674262 -94.554034 
L 179.594171 -94.126903 
L 177.514081 -94.157567 
L 175.433991 -93.074998 
L 173.353901 -93.507712 
L 171.273811 -94.137551 
L 169.19372 -94.06384 
L 167.11363 -94.332436 
L 165.03354 -94.585298 
L 162.95345 -95.524193 
L 160.87336 -94.987882 
L 158.793269 -95.397227 
L 156.713179 -96.419321 
L 154.633089 -97.534408 
L 152.552999 -98.462165 
L 150.472909 -98.110892 
L 148.392818 -99.035488 
L 146.312728 -100.998772 
L 144.232638 -101.158963 
L 142.152548 -102.252047 
L 140.072458 -103.833923 
L 137.992367 -104.918324 
L 135.912277 -106.65953 
L 133.832187 -107.802685 
L 131.752097 -109.446694 
L 129.672007 -110.854219 
L 127.591917 -111.853418 
L 125.511826 -114.451497 
L 123.431736 -116.197484 
L 121.351646 -117.458932 
L 119.271556 -119.311811 
L 117.191466 -122.107438 
L 115.111375 -123.568842 
L 113.031285 -125.010113 
L 110.951195 -127.825869 
L 108.871105 -130.033855 
L 106.791015 -131.964808 
L 104.710924 -134.266658 
L 102.630834 -137.130296 
L 100.550744 -139.711411 
L 98.470654 -141.738992 
L 96.390564 -144.127927 
L 94.310473 -147.675397 
L 92.230383 -150.878973 
L 90.150293 -153.273931 
L 88.070203 -156.935799 
L 85.990113 -160.220543 
L 83.910022 -162.608 
z
" style="stroke: #fa7c17; stroke-opacity: 0.25"/>
    </defs>
    <g clip-path="url(#pcd4efa0edf)">
     <use xlink:href="#m32f11e3c2b" x="0" y="353.99952" style="fill: #fa7c17; fill-opacity: 0.25; stroke: #fa7c17; stroke-opacity: 0.25"/>
    </g>
   </g>
   <g id="PolyCollection_2">
    <defs>
     <path id="mac81c29a2c" d="M 83.910022 -149.633995 
L 83.910022 -135.73471 
L 85.990113 -133.028392 
L 88.070203 -130.10708 
L 90.150293 -127.523488 
L 92.230383 -124.424096 
L 94.310473 -121.507182 
L 96.390564 -119.071931 
L 98.470654 -116.864419 
L 100.550744 -114.122086 
L 102.630834 -111.5127 
L 104.710924 -109.052831 
L 106.791015 -106.316751 
L 108.871105 -104.463923 
L 110.951195 -101.931356 
L 113.031285 -100.038576 
L 115.111375 -97.884192 
L 117.191466 -95.933162 
L 119.271556 -93.885983 
L 121.351646 -91.90918 
L 123.431736 -90.154622 
L 125.511826 -88.627597 
L 127.591917 -86.776353 
L 129.672007 -85.058777 
L 131.752097 -83.883117 
L 133.832187 -82.130244 
L 135.912277 -80.78526 
L 137.992367 -79.239806 
L 140.072458 -78.722596 
L 142.152548 -77.512275 
L 144.232638 -76.359858 
L 146.312728 -75.244618 
L 148.392818 -74.159393 
L 150.472909 -73.172776 
L 152.552999 -72.391423 
L 154.633089 -71.941938 
L 156.713179 -71.484236 
L 158.793269 -70.828043 
L 160.87336 -69.682865 
L 162.95345 -69.940441 
L 165.03354 -69.399578 
L 167.11363 -69.184846 
L 169.19372 -68.6875 
L 171.273811 -68.621391 
L 173.353901 -69.14127 
L 175.433991 -68.342979 
L 177.514081 -68.672072 
L 179.594171 -68.741982 
L 181.674262 -69.24812 
L 183.754352 -69.590367 
L 185.834442 -69.916666 
L 187.914532 -70.612972 
L 189.994622 -70.588945 
L 192.074713 -71.015561 
L 194.154803 -72.120237 
L 196.234893 -73.147109 
L 198.314983 -73.54858 
L 200.395073 -74.463676 
L 202.475163 -75.572444 
L 204.555254 -76.415227 
L 206.635344 -77.795821 
L 208.715434 -78.837407 
L 210.795524 -80.118166 
L 212.875614 -81.636227 
L 214.955705 -82.656876 
L 217.035795 -84.159565 
L 219.115885 -85.835694 
L 221.195975 -87.225452 
L 223.276065 -88.558731 
L 225.356156 -90.665071 
L 227.436246 -92.304044 
L 229.516336 -93.977713 
L 231.596426 -95.720235 
L 233.676516 -97.568186 
L 235.756607 -99.560239 
L 237.836697 -101.257472 
L 239.916787 -103.441777 
L 241.996877 -105.592833 
L 244.076967 -107.240094 
L 246.157058 -108.922229 
L 248.237148 -111.244777 
L 250.317238 -113.415187 
L 252.397328 -115.757824 
L 254.477418 -117.518588 
L 256.557509 -120.056276 
L 258.637599 -122.04623 
L 260.717689 -124.764823 
L 262.797779 -126.783209 
L 264.877869 -129.223883 
L 266.957959 -131.652867 
L 269.03805 -133.938749 
L 271.11814 -136.478964 
L 273.19823 -139.180452 
L 275.27832 -141.318177 
L 277.35841 -143.943715 
L 279.438501 -146.175574 
L 281.518591 -148.456556 
L 283.598681 -150.961501 
L 285.678771 -153.381528 
L 287.758861 -155.922929 
L 289.838952 -158.771631 
L 291.919042 -160.912933 
L 293.999132 -163.495656 
L 296.079222 -166.200328 
L 298.159312 -168.281326 
L 300.239403 -170.796167 
L 302.319493 -173.335644 
L 304.399583 -176.07611 
L 306.479673 -178.30941 
L 308.559763 -180.557919 
L 310.639854 -183.046296 
L 312.719944 -185.46492 
L 314.800034 -187.776565 
L 316.880124 -190.310694 
L 318.960214 -192.789188 
L 321.040305 -195.11161 
L 323.120395 -197.19092 
L 325.200485 -199.546938 
L 327.280575 -202.064683 
L 329.360665 -204.191912 
L 331.440756 -206.214192 
L 333.520846 -208.585867 
L 335.600936 -210.51313 
L 337.681026 -212.913815 
L 339.761116 -214.818323 
L 341.841206 -216.974334 
L 343.921297 -218.611615 
L 346.001387 -220.837927 
L 348.081477 -222.619735 
L 350.161567 -224.194947 
L 352.241657 -226.167323 
L 354.321748 -227.647314 
L 356.401838 -229.458262 
L 358.481928 -231.398015 
L 360.562018 -233.095366 
L 362.642108 -234.43331 
L 364.722199 -235.925865 
L 366.802289 -237.468974 
L 368.882379 -238.699513 
L 370.962469 -239.825073 
L 373.042559 -240.977465 
L 375.12265 -242.34014 
L 377.20274 -243.718957 
L 379.28283 -244.466809 
L 381.36292 -245.726734 
L 383.44301 -246.33262 
L 385.523101 -247.213922 
L 387.603191 -248.208813 
L 389.683281 -248.364752 
L 391.763371 -249.168692 
L 393.843461 -249.660027 
L 395.923552 -286.514753 
L 398.003642 -286.240935 
L 400.083732 -286.736718 
L 402.163822 -286.92838 
L 404.243912 -287.091567 
L 406.324002 -287.383313 
L 408.404093 -287.417095 
L 410.484183 -287.161437 
L 412.564273 -286.880053 
L 414.644363 -286.900011 
L 416.724453 -286.674348 
L 418.804544 -285.840285 
L 420.884634 -285.436028 
L 422.964724 -285.054278 
L 425.044814 -284.55265 
L 427.124904 -283.883124 
L 429.204995 -283.339499 
L 431.285085 -282.060717 
L 433.365175 -281.079265 
L 435.445265 -280.096331 
L 437.525355 -278.973456 
L 439.605446 -277.651833 
L 441.685536 -276.798456 
L 443.765626 -275.421279 
L 445.845716 -273.758955 
L 447.925806 -272.698263 
L 450.005897 -271.149478 
L 452.085987 -269.727844 
L 454.166077 -267.911904 
L 456.246167 -266.31697 
L 458.326257 -264.697553 
L 460.406348 -263.433731 
L 462.486438 -261.27598 
L 464.566528 -259.942223 
L 466.646618 -257.541417 
L 468.726708 -255.855658 
L 470.806798 -254.074162 
L 472.886889 -251.423291 
L 474.966979 -249.327612 
L 477.047069 -247.970424 
L 479.127159 -245.417035 
L 481.207249 -243.310642 
L 483.28734 -241.36559 
L 485.36743 -238.559249 
L 487.44752 -236.077312 
L 489.52761 -233.339684 
L 491.6077 -231.451413 
L 493.687791 -229.193281 
L 495.767881 -225.725344 
L 497.847971 -223.610756 
L 497.847971 -237.540571 
L 497.847971 -237.540571 
L 495.767881 -240.264138 
L 493.687791 -242.193186 
L 491.6077 -244.726093 
L 489.52761 -247.187417 
L 487.44752 -249.277071 
L 485.36743 -251.858791 
L 483.28734 -253.995039 
L 481.207249 -256.502446 
L 479.127159 -258.486437 
L 477.047069 -260.957282 
L 474.966979 -262.51721 
L 472.886889 -264.649108 
L 470.806798 -267.063098 
L 468.726708 -269.141407 
L 466.646618 -270.621411 
L 464.566528 -272.855679 
L 462.486438 -274.47645 
L 460.406348 -276.516342 
L 458.326257 -277.824585 
L 456.246167 -279.910311 
L 454.166077 -280.974973 
L 452.085987 -282.713521 
L 450.005897 -284.506728 
L 447.925806 -286.214484 
L 445.845716 -287.057949 
L 443.765626 -288.243517 
L 441.685536 -289.548091 
L 439.605446 -290.673214 
L 437.525355 -292.014319 
L 435.445265 -293.138826 
L 433.365175 -294.060814 
L 431.285085 -295.00938 
L 429.204995 -295.919204 
L 427.124904 -296.473694 
L 425.044814 -297.3979 
L 422.964724 -297.86005 
L 420.884634 -298.78269 
L 418.804544 -299.090782 
L 416.724453 -299.818687 
L 414.644363 -300.236922 
L 412.564273 -300.417886 
L 410.484183 -300.760366 
L 408.404093 -301.214263 
L 406.324002 -301.262299 
L 404.243912 -301.2756 
L 402.163822 -301.068848 
L 400.083732 -300.982697 
L 398.003642 -300.990034 
L 395.923552 -300.877378 
L 393.843461 -263.203915 
L 391.763371 -262.136456 
L 389.683281 -261.626887 
L 387.603191 -261.392328 
L 385.523101 -260.425681 
L 383.44301 -259.432868 
L 381.36292 -258.548173 
L 379.28283 -257.655601 
L 377.20274 -256.672889 
L 375.12265 -254.944613 
L 373.042559 -254.517042 
L 370.962469 -252.830885 
L 368.882379 -251.518407 
L 366.802289 -250.316333 
L 364.722199 -248.945376 
L 362.642108 -247.413828 
L 360.562018 -245.632014 
L 358.481928 -244.003911 
L 356.401838 -242.821852 
L 354.321748 -240.544125 
L 352.241657 -239.120936 
L 350.161567 -237.051264 
L 348.081477 -235.116341 
L 346.001387 -233.503873 
L 343.921297 -231.264501 
L 341.841206 -229.232651 
L 339.761116 -227.263084 
L 337.681026 -225.073981 
L 335.600936 -223.411785 
L 333.520846 -221.47047 
L 331.440756 -219.249487 
L 329.360665 -216.791312 
L 327.280575 -214.37168 
L 325.200485 -212.28806 
L 323.120395 -210.201796 
L 321.040305 -207.572989 
L 318.960214 -205.697873 
L 316.880124 -203.107907 
L 314.800034 -200.533264 
L 312.719944 -198.193544 
L 310.639854 -195.546201 
L 308.559763 -193.50811 
L 306.479673 -191.040288 
L 304.399583 -188.633996 
L 302.319493 -186.123603 
L 300.239403 -184.057626 
L 298.159312 -180.944653 
L 296.079222 -178.621633 
L 293.999132 -176.177734 
L 291.919042 -173.813874 
L 289.838952 -171.195162 
L 287.758861 -169.075849 
L 285.678771 -166.40838 
L 283.598681 -164.092674 
L 281.518591 -161.462613 
L 279.438501 -159.068153 
L 277.35841 -156.62285 
L 275.27832 -154.192793 
L 273.19823 -151.86735 
L 271.11814 -149.054358 
L 269.03805 -147.028018 
L 266.957959 -144.762667 
L 264.877869 -142.058636 
L 262.797779 -139.901832 
L 260.717689 -137.697225 
L 258.637599 -135.036061 
L 256.557509 -133.19964 
L 254.477418 -130.580626 
L 252.397328 -128.202737 
L 250.317238 -126.311419 
L 248.237148 -124.206086 
L 246.157058 -121.989569 
L 244.076967 -120.030819 
L 241.996877 -118.330367 
L 239.916787 -116.020402 
L 237.836697 -114.083839 
L 235.756607 -111.978296 
L 233.676516 -109.996419 
L 231.596426 -108.482849 
L 229.516336 -106.846126 
L 227.436246 -104.705306 
L 225.356156 -103.371801 
L 223.276065 -101.366162 
L 221.195975 -99.970488 
L 219.115885 -98.263636 
L 217.035795 -96.924439 
L 214.955705 -95.500242 
L 212.875614 -94.555273 
L 210.795524 -92.857808 
L 208.715434 -91.341911 
L 206.635344 -90.793062 
L 204.555254 -89.67937 
L 202.475163 -88.443357 
L 200.395073 -87.28873 
L 198.314983 -86.273977 
L 196.234893 -85.56963 
L 194.154803 -85.190489 
L 192.074713 -84.030035 
L 189.994622 -83.57735 
L 187.914532 -83.136305 
L 185.834442 -82.299339 
L 183.754352 -82.361137 
L 181.674262 -82.05518 
L 179.594171 -81.543693 
L 177.514081 -81.784635 
L 175.433991 -81.392114 
L 173.353901 -81.604946 
L 171.273811 -81.366492 
L 169.19372 -81.590575 
L 167.11363 -82.016903 
L 165.03354 -81.928607 
L 162.95345 -82.697952 
L 160.87336 -82.980526 
L 158.793269 -83.256045 
L 156.713179 -84.437382 
L 154.633089 -84.925025 
L 152.552999 -85.507003 
L 150.472909 -85.954902 
L 148.392818 -86.771979 
L 146.312728 -88.080519 
L 144.232638 -88.831475 
L 142.152548 -90.331488 
L 140.072458 -91.397849 
L 137.992367 -92.656367 
L 135.912277 -93.798573 
L 133.832187 -95.405817 
L 131.752097 -96.445648 
L 129.672007 -98.30526 
L 127.591917 -100.133626 
L 125.511826 -101.288845 
L 123.431736 -103.030372 
L 121.351646 -104.673988 
L 119.271556 -106.698821 
L 117.191466 -109.136931 
L 115.111375 -111.027561 
L 113.031285 -112.624198 
L 110.951195 -114.853703 
L 108.871105 -117.471879 
L 106.791015 -119.236346 
L 104.710924 -122.025513 
L 102.630834 -124.363619 
L 100.550744 -126.722358 
L 98.470654 -129.254327 
L 96.390564 -131.729066 
L 94.310473 -134.559134 
L 92.230383 -137.552634 
L 90.150293 -140.353998 
L 88.070203 -143.451653 
L 85.990113 -146.435325 
L 83.910022 -149.633995 
z
" style="stroke: #fa7c17; stroke-opacity: 0.5"/>
    </defs>
    <g clip-path="url(#pcd4efa0edf)">
     <use xlink:href="#mac81c29a2c" x="0" y="353.99952" style="fill: #fa7c17; fill-opacity: 0.5; stroke: #fa7c17; stroke-opacity: 0.5"/>
    </g>
   </g>
   <g id="line2d_31">
    <path d="M 83.910022 230.617781 
L 85.990113 234.110083 
L 88.070203 237.254231 
L 90.150293 239.193695 
L 92.230383 241.964387 
L 94.310473 245.589111 
L 96.390564 247.730225 
L 98.470654 249.437682 
L 100.550744 252.458776 
L 106.791015 259.75945 
L 108.871105 261.252993 
L 110.951195 264.718065 
L 113.031285 266.274455 
L 115.111375 268.689295 
L 119.271556 272.347499 
L 121.351646 274.657326 
L 123.431736 276.689032 
L 125.511826 277.899677 
L 127.591917 280.245885 
L 129.672007 281.035029 
L 131.752097 282.542074 
L 133.832187 283.791485 
L 137.992367 287.075402 
L 140.072458 288.286784 
L 142.152548 288.934307 
L 146.312728 291.600308 
L 152.552999 293.807477 
L 154.633089 295.194468 
L 156.713179 294.929059 
L 158.793269 295.708374 
L 160.87336 296.016638 
L 162.95345 296.20142 
L 165.03354 296.871821 
L 167.11363 297.346239 
L 169.19372 297.518387 
L 171.273811 297.873631 
L 173.353901 297.105552 
L 175.433991 298.238619 
L 177.514081 297.429242 
L 179.594171 297.575351 
L 181.674262 297.341577 
L 183.754352 296.80358 
L 185.834442 295.953555 
L 187.914532 295.848621 
L 189.994622 296.206005 
L 192.074713 295.42592 
L 194.154803 293.983882 
L 200.395073 291.872708 
L 202.475163 290.302961 
L 204.555254 290.392127 
L 206.635344 288.032678 
L 208.715434 288.082581 
L 212.875614 284.525057 
L 214.955705 283.729002 
L 217.035795 282.091458 
L 219.115885 280.280197 
L 221.195975 279.055784 
L 223.276065 277.553664 
L 225.356156 275.069054 
L 227.436246 274.079324 
L 229.516336 271.812844 
L 233.676516 268.70303 
L 235.756607 266.639527 
L 237.836697 264.917244 
L 239.916787 262.963234 
L 241.996877 260.708959 
L 244.076967 258.702708 
L 246.157058 257.499421 
L 248.237148 254.927368 
L 252.397328 250.47868 
L 254.477418 248.048777 
L 256.557509 246.325794 
L 258.637599 243.886385 
L 260.717689 241.028428 
L 262.797779 239.314238 
L 264.877869 236.922214 
L 266.957959 235.232786 
L 269.03805 231.852262 
L 271.11814 229.878327 
L 273.19823 227.164632 
L 277.35841 223.133391 
L 279.438501 220.07781 
L 281.518591 217.824504 
L 285.678771 213.08756 
L 287.758861 210.278785 
L 293.999132 203.381839 
L 296.079222 200.663449 
L 298.159312 198.493279 
L 302.319493 192.541302 
L 304.399583 190.14331 
L 306.479673 188.415262 
L 308.559763 185.453214 
L 310.639854 183.618031 
L 312.719944 180.627929 
L 314.800034 178.305418 
L 316.880124 176.57013 
L 318.960214 174.309821 
L 321.040305 171.513458 
L 323.120395 169.075339 
L 325.200485 166.9971 
L 327.280575 163.352481 
L 329.360665 162.431556 
L 331.440756 159.753852 
L 333.520846 157.775534 
L 335.600936 154.971821 
L 337.681026 153.431878 
L 339.761116 151.187396 
L 346.001387 145.793078 
L 348.081477 143.725378 
L 350.161567 141.848217 
L 354.321748 139.072474 
L 356.401838 136.794452 
L 358.481928 135.313373 
L 360.562018 133.243438 
L 362.642108 131.005601 
L 366.802289 129.09304 
L 368.882379 127.655273 
L 370.962469 126.803828 
L 373.042559 125.015671 
L 375.12265 124.419504 
L 377.20274 122.673856 
L 383.44301 119.757825 
L 385.523101 120.673613 
L 387.603191 118.317827 
L 389.683281 117.475168 
L 391.763371 117.270117 
L 393.843461 116.637869 
L 395.923552 82.302129 
L 398.003642 82.171569 
L 400.083732 80.935262 
L 402.163822 81.099553 
L 404.243912 80.114764 
L 408.404093 80.114944 
L 410.484183 79.194515 
L 412.564273 80.2875 
L 414.644363 80.648414 
L 416.724453 79.930765 
L 418.804544 81.032211 
L 420.884634 81.095907 
L 422.964724 81.557727 
L 425.044814 81.67918 
L 427.124904 82.150933 
L 429.204995 83.953752 
L 431.285085 84.575261 
L 433.365175 85.037505 
L 435.445265 86.32752 
L 437.525355 87.202305 
L 439.605446 89.373765 
L 441.685536 89.688128 
L 443.765626 90.564081 
L 445.845716 93.240183 
L 447.925806 93.968159 
L 452.085987 97.820753 
L 454.166077 98.384219 
L 456.246167 101.037364 
L 458.326257 102.49287 
L 460.406348 102.79135 
L 462.486438 105.620717 
L 464.566528 108.085453 
L 468.726708 110.515702 
L 470.806798 112.492436 
L 472.886889 115.382507 
L 474.966979 116.868907 
L 477.047069 118.742372 
L 479.127159 121.59686 
L 483.28734 125.65851 
L 485.36743 128.069273 
L 487.44752 130.212088 
L 489.52761 133.471301 
L 491.6077 134.797114 
L 493.687791 137.670656 
L 495.767881 141.621855 
L 497.847971 144.475517 
L 497.847971 144.475517 
" clip-path="url(#pcd4efa0edf)" style="fill: none; stroke: #fa7c17; stroke-opacity: 0; stroke-width: 1.5; stroke-linecap: round"/>
   </g>
   <g id="line2d_32">
    <path d="M 83.910022 191.39152 
L 85.990113 193.778977 
L 88.070203 197.063721 
L 90.150293 200.725589 
L 92.230383 203.120547 
L 94.310473 206.324123 
L 96.390564 209.871593 
L 98.470654 212.260528 
L 100.550744 214.288109 
L 102.630834 216.869224 
L 104.710924 219.732862 
L 106.791015 222.034712 
L 108.871105 223.965665 
L 110.951195 226.173651 
L 113.031285 228.989407 
L 117.191466 231.892082 
L 119.271556 234.687709 
L 121.351646 236.540588 
L 123.431736 237.802036 
L 125.511826 239.548023 
L 127.591917 242.146102 
L 129.672007 243.145301 
L 131.752097 244.552826 
L 133.832187 246.196835 
L 135.912277 247.33999 
L 137.992367 249.081196 
L 140.072458 250.165597 
L 142.152548 251.747473 
L 144.232638 252.840557 
L 146.312728 253.000748 
L 148.392818 254.964032 
L 150.472909 255.888628 
L 152.552999 255.537355 
L 154.633089 256.465112 
L 158.793269 258.602293 
L 160.87336 259.011638 
L 162.95345 258.475327 
L 165.03354 259.414222 
L 169.19372 259.93568 
L 171.273811 259.861969 
L 173.353901 260.491808 
L 175.433991 260.924522 
L 177.514081 259.841953 
L 179.594171 259.872617 
L 181.674262 259.445486 
L 183.754352 259.585289 
L 187.914532 258.449207 
L 189.994622 258.362476 
L 192.074713 258.000664 
L 194.154803 256.376944 
L 196.234893 256.100436 
L 198.314983 255.431715 
L 200.395073 253.923649 
L 202.475163 253.10544 
L 204.555254 251.91428 
L 206.635344 249.744447 
L 208.715434 251.082647 
L 210.795524 248.639717 
L 212.875614 247.143537 
L 214.955705 245.937816 
L 217.035795 245.253963 
L 219.115885 243.753255 
L 221.195975 241.35353 
L 223.276065 240.216388 
L 225.356156 238.865649 
L 227.436246 236.54284 
L 229.516336 234.981076 
L 231.596426 233.618169 
L 233.676516 231.230855 
L 235.756607 229.397687 
L 237.836697 227.196383 
L 239.916787 225.575909 
L 241.996877 223.47941 
L 244.076967 221.886813 
L 246.157058 219.776641 
L 248.237148 217.014838 
L 254.477418 211.667405 
L 256.557509 208.84166 
L 258.637599 206.711246 
L 260.717689 203.924797 
L 262.797779 201.588649 
L 264.877869 199.536504 
L 266.957959 196.709598 
L 269.03805 194.842934 
L 273.19823 189.856707 
L 277.35841 185.227493 
L 279.438501 182.430813 
L 281.518591 180.613769 
L 283.598681 178.547055 
L 285.678771 175.200432 
L 287.758861 172.876257 
L 289.838952 170.358892 
L 291.919042 168.226596 
L 293.999132 165.26348 
L 296.079222 163.771565 
L 298.159312 160.584478 
L 300.239403 157.861083 
L 302.319493 156.241052 
L 304.399583 153.309472 
L 306.479673 151.106617 
L 308.559763 148.169303 
L 310.639854 146.236196 
L 312.719944 143.404917 
L 314.800034 141.656094 
L 316.880124 137.931034 
L 318.960214 135.785921 
L 321.040305 133.941096 
L 323.120395 131.293332 
L 325.200485 129.02234 
L 327.280575 127.201606 
L 331.440756 122.086394 
L 333.520846 120.456166 
L 335.600936 118.319063 
L 337.681026 116.990087 
L 339.761116 114.897218 
L 341.841206 112.596921 
L 343.921297 109.99249 
L 348.081477 105.821783 
L 350.161567 104.037064 
L 352.241657 102.558365 
L 354.321748 101.283214 
L 356.401838 99.063865 
L 358.481928 97.679306 
L 360.562018 95.563575 
L 362.642108 94.218489 
L 364.722199 93.07636 
L 366.802289 91.711217 
L 368.882379 89.590926 
L 370.962469 88.876843 
L 373.042559 87.119352 
L 377.20274 85.126334 
L 379.28283 83.579874 
L 381.36292 83.655709 
L 383.44301 81.778684 
L 385.523101 80.617079 
L 387.603191 80.888801 
L 389.683281 78.914896 
L 391.763371 78.825175 
L 393.843461 77.8585 
L 395.923552 38.351839 
L 398.003642 39.121173 
L 400.083732 39.588704 
L 402.163822 38.377015 
L 404.243912 38.523802 
L 406.324002 39.487835 
L 408.404093 40.196462 
L 410.484183 39.409211 
L 412.564273 40.263762 
L 414.644363 40.393833 
L 416.724453 42.206951 
L 418.804544 42.111292 
L 422.964724 43.421237 
L 425.044814 43.145472 
L 427.124904 44.488265 
L 429.204995 45.586462 
L 431.285085 46.135892 
L 433.365175 47.713823 
L 439.605446 50.213511 
L 441.685536 52.105459 
L 443.765626 52.669569 
L 445.845716 54.445353 
L 447.925806 55.35836 
L 450.005897 56.673966 
L 452.085987 58.495213 
L 454.166077 60.156769 
L 456.246167 61.502653 
L 458.326257 63.238205 
L 460.406348 65.450188 
L 462.486438 66.425441 
L 468.726708 72.19645 
L 470.806798 74.915947 
L 472.886889 76.374373 
L 474.966979 78.918255 
L 477.047069 80.57954 
L 479.127159 83.409347 
L 481.207249 85.313869 
L 483.28734 87.037171 
L 485.36743 89.22353 
L 487.44752 92.518791 
L 489.52761 94.302329 
L 491.6077 95.58953 
L 493.687791 98.823329 
L 495.767881 101.037794 
L 497.847971 102.307212 
L 497.847971 102.307212 
" clip-path="url(#pcd4efa0edf)" style="fill: none; stroke: #fa7c17; stroke-opacity: 0; stroke-width: 1.5; stroke-linecap: round"/>
   </g>
   <g id="line2d_33">
    <path d="M 83.910022 218.26481 
L 85.990113 220.971128 
L 88.070203 223.89244 
L 90.150293 226.476032 
L 94.310473 232.492338 
L 96.390564 234.927589 
L 98.470654 237.135101 
L 102.630834 242.48682 
L 104.710924 244.946689 
L 106.791015 247.682769 
L 108.871105 249.535597 
L 110.951195 252.068164 
L 113.031285 253.960944 
L 115.111375 256.115328 
L 123.431736 263.844898 
L 125.511826 265.371923 
L 129.672007 268.940743 
L 131.752097 270.116403 
L 133.832187 271.869276 
L 135.912277 273.21426 
L 137.992367 274.759714 
L 140.072458 275.276924 
L 144.232638 277.639662 
L 148.392818 279.840127 
L 150.472909 280.826744 
L 152.552999 281.608097 
L 156.713179 282.515284 
L 158.793269 283.171477 
L 160.87336 284.316655 
L 162.95345 284.059079 
L 165.03354 284.599942 
L 167.11363 284.814674 
L 169.19372 285.31202 
L 171.273811 285.378129 
L 173.353901 284.85825 
L 175.433991 285.656541 
L 177.514081 285.327448 
L 179.594171 285.257538 
L 181.674262 284.7514 
L 185.834442 284.082854 
L 187.914532 283.386548 
L 189.994622 283.410575 
L 192.074713 282.983959 
L 196.234893 280.852411 
L 198.314983 280.45094 
L 200.395073 279.535844 
L 202.475163 278.427076 
L 204.555254 277.584293 
L 206.635344 276.203699 
L 208.715434 275.162113 
L 210.795524 273.881354 
L 212.875614 272.363293 
L 214.955705 271.342644 
L 217.035795 269.839955 
L 219.115885 268.163826 
L 223.276065 265.440789 
L 225.356156 263.334449 
L 231.596426 258.279285 
L 237.836697 252.742048 
L 241.996877 248.406687 
L 246.157058 245.077291 
L 252.397328 238.241696 
L 254.477418 236.480932 
L 256.557509 233.943244 
L 258.637599 231.95329 
L 260.717689 229.234697 
L 262.797779 227.216311 
L 271.11814 217.520556 
L 273.19823 214.819068 
L 275.27832 212.681343 
L 277.35841 210.055805 
L 281.518591 205.542964 
L 287.758861 198.076591 
L 289.838952 195.227889 
L 291.919042 193.086587 
L 296.079222 187.799192 
L 298.159312 185.718194 
L 302.319493 180.663876 
L 304.399583 177.92341 
L 308.559763 173.441601 
L 312.719944 168.5346 
L 314.800034 166.222955 
L 318.960214 161.210332 
L 321.040305 158.88791 
L 323.120395 156.8086 
L 329.360665 149.807608 
L 331.440756 147.785328 
L 333.520846 145.413653 
L 335.600936 143.48639 
L 337.681026 141.085705 
L 339.761116 139.181197 
L 341.841206 137.025186 
L 343.921297 135.387905 
L 346.001387 133.161593 
L 348.081477 131.379785 
L 350.161567 129.804573 
L 352.241657 127.832197 
L 354.321748 126.352206 
L 360.562018 120.904154 
L 362.642108 119.56621 
L 366.802289 116.530546 
L 370.962469 114.174447 
L 373.042559 113.022055 
L 377.20274 110.280563 
L 379.28283 109.532711 
L 381.36292 108.272786 
L 383.44301 107.6669 
L 387.603191 105.790707 
L 389.683281 105.634768 
L 391.763371 104.830828 
L 393.843461 104.339493 
L 395.923552 67.484767 
L 398.003642 67.758585 
L 400.083732 67.262802 
L 408.404093 66.582425 
L 412.564273 67.119467 
L 414.644363 67.099509 
L 416.724453 67.325172 
L 418.804544 68.159235 
L 425.044814 69.44687 
L 427.124904 70.116396 
L 429.204995 70.660021 
L 431.285085 71.938803 
L 435.445265 73.903189 
L 437.525355 75.026064 
L 439.605446 76.347687 
L 441.685536 77.201064 
L 443.765626 78.578241 
L 445.845716 80.240565 
L 447.925806 81.301257 
L 452.085987 84.271676 
L 454.166077 86.087616 
L 458.326257 89.301967 
L 460.406348 90.565789 
L 462.486438 92.72354 
L 464.566528 94.057297 
L 466.646618 96.458103 
L 470.806798 99.925358 
L 472.886889 102.576229 
L 474.966979 104.671908 
L 477.047069 106.029096 
L 479.127159 108.582485 
L 481.207249 110.688878 
L 483.28734 112.63393 
L 485.36743 115.440271 
L 487.44752 117.922208 
L 489.52761 120.659836 
L 491.6077 122.548107 
L 493.687791 124.806239 
L 495.767881 128.274176 
L 497.847971 130.388764 
L 497.847971 130.388764 
" clip-path="url(#pcd4efa0edf)" style="fill: none; stroke: #fa7c17; stroke-opacity: 0; stroke-width: 1.5; stroke-linecap: round"/>
   </g>
   <g id="line2d_34">
    <path d="M 83.910022 204.365525 
L 85.990113 207.564195 
L 94.310473 219.440386 
L 96.390564 222.270454 
L 102.630834 229.635901 
L 104.710924 231.974007 
L 106.791015 234.763174 
L 108.871105 236.527641 
L 110.951195 239.145817 
L 113.031285 241.375322 
L 115.111375 242.971959 
L 117.191466 244.862589 
L 119.271556 247.300699 
L 121.351646 249.325532 
L 125.511826 252.710675 
L 127.591917 253.865894 
L 131.752097 257.553872 
L 133.832187 258.593703 
L 135.912277 260.200947 
L 142.152548 263.668032 
L 144.232638 265.168045 
L 146.312728 265.919001 
L 148.392818 267.227541 
L 150.472909 268.044618 
L 152.552999 268.492517 
L 156.713179 269.562138 
L 158.793269 270.743475 
L 162.95345 271.301568 
L 165.03354 272.070913 
L 167.11363 271.982617 
L 169.19372 272.408945 
L 171.273811 272.633028 
L 173.353901 272.394574 
L 175.433991 272.607406 
L 177.514081 272.214885 
L 179.594171 272.455827 
L 181.674262 271.94434 
L 183.754352 271.638383 
L 185.834442 271.700181 
L 187.914532 270.863215 
L 192.074713 269.969485 
L 194.154803 268.809031 
L 196.234893 268.42989 
L 198.314983 267.725543 
L 200.395073 266.71079 
L 206.635344 263.206458 
L 208.715434 262.657609 
L 210.795524 261.141712 
L 212.875614 259.444247 
L 214.955705 258.499278 
L 219.115885 255.735884 
L 221.195975 254.029032 
L 223.276065 252.633358 
L 225.356156 250.627719 
L 227.436246 249.294214 
L 229.516336 247.153394 
L 233.676516 244.003101 
L 239.916787 237.979118 
L 241.996877 235.669153 
L 244.076967 233.968701 
L 246.157058 232.009951 
L 250.317238 227.688101 
L 252.397328 225.796783 
L 254.477418 223.418894 
L 256.557509 220.79988 
L 258.637599 218.963459 
L 260.717689 216.302295 
L 264.877869 211.940884 
L 266.957959 209.236853 
L 269.03805 206.971502 
L 271.11814 204.945162 
L 273.19823 202.13217 
L 277.35841 197.37667 
L 285.678771 187.59114 
L 287.758861 184.923671 
L 289.838952 182.804358 
L 291.919042 180.185646 
L 298.159312 173.054867 
L 300.239403 169.941894 
L 302.319493 167.875917 
L 308.559763 160.49141 
L 310.639854 158.453319 
L 312.719944 155.805976 
L 314.800034 153.466256 
L 318.960214 148.301647 
L 321.040305 146.426531 
L 323.120395 143.797724 
L 327.280575 139.62784 
L 333.520846 132.52905 
L 335.600936 130.587735 
L 337.681026 128.925539 
L 339.761116 126.736436 
L 343.921297 122.735019 
L 346.001387 120.495647 
L 348.081477 118.883179 
L 352.241657 114.878584 
L 354.321748 113.455395 
L 356.401838 111.177668 
L 358.481928 109.995609 
L 360.562018 108.367506 
L 362.642108 106.585692 
L 364.722199 105.054144 
L 366.802289 103.683187 
L 370.962469 101.168635 
L 373.042559 99.482478 
L 375.12265 99.054907 
L 377.20274 97.326631 
L 381.36292 95.451347 
L 385.523101 93.573839 
L 387.603191 92.607192 
L 389.683281 92.372633 
L 391.763371 91.863064 
L 393.843461 90.795605 
L 395.923552 53.122142 
L 398.003642 53.009486 
L 402.163822 52.930672 
L 404.243912 52.72392 
L 408.404093 52.785257 
L 412.564273 53.581634 
L 414.644363 53.762598 
L 416.724453 54.180833 
L 418.804544 54.908738 
L 420.884634 55.21683 
L 422.964724 56.13947 
L 425.044814 56.60162 
L 427.124904 57.525826 
L 429.204995 58.080316 
L 435.445265 60.860694 
L 437.525355 61.985201 
L 439.605446 63.326306 
L 441.685536 64.451429 
L 445.845716 66.941571 
L 447.925806 67.785036 
L 454.166077 73.024547 
L 456.246167 74.089209 
L 458.326257 76.174935 
L 460.406348 77.483178 
L 462.486438 79.52307 
L 464.566528 81.143841 
L 466.646618 83.378109 
L 468.726708 84.858113 
L 470.806798 86.936422 
L 472.886889 89.350412 
L 474.966979 91.48231 
L 477.047069 93.042238 
L 479.127159 95.513083 
L 481.207249 97.497074 
L 483.28734 100.004481 
L 485.36743 102.140729 
L 487.44752 104.722449 
L 489.52761 106.812103 
L 493.687791 111.806334 
L 495.767881 113.735382 
L 497.847971 116.458949 
L 497.847971 116.458949 
" clip-path="url(#pcd4efa0edf)" style="fill: none; stroke: #fa7c17; stroke-opacity: 0; stroke-width: 1.5; stroke-linecap: round"/>
   </g>
   <g id="line2d_35">
    <path d="M 83.910022 211.037978 
L 85.990113 214.413256 
L 88.070203 217.098597 
L 90.150293 220.229383 
L 94.310473 225.810333 
L 96.390564 228.713971 
L 98.470654 230.909924 
L 100.550744 233.59154 
L 108.871105 243.179374 
L 110.951195 245.39015 
L 113.031285 247.852855 
L 117.191466 251.437588 
L 119.271556 253.67557 
L 121.351646 255.631506 
L 123.431736 257.385319 
L 125.511826 258.904622 
L 127.591917 260.625232 
L 129.672007 262.523341 
L 131.752097 263.626427 
L 135.912277 266.863312 
L 137.992367 267.715999 
L 140.072458 268.96147 
L 142.152548 269.865755 
L 144.232638 271.426716 
L 146.312728 272.42509 
L 148.392818 273.617055 
L 152.552999 274.952303 
L 156.713179 276.11435 
L 158.793269 276.942554 
L 160.87336 277.621078 
L 162.95345 277.97222 
L 165.03354 278.067009 
L 169.19372 278.87073 
L 171.273811 279.004028 
L 173.353901 278.860885 
L 175.433991 279.250816 
L 177.514081 278.691225 
L 179.594171 278.760808 
L 181.674262 278.527741 
L 183.754352 278.040943 
L 185.834442 277.877591 
L 187.914532 277.112308 
L 189.994622 276.512837 
L 192.074713 276.603994 
L 194.154803 275.462105 
L 196.234893 274.782401 
L 202.475163 272.100952 
L 206.635344 269.90032 
L 208.715434 269.037814 
L 210.795524 267.373313 
L 212.875614 266.045844 
L 214.955705 265.141737 
L 217.035795 263.488781 
L 219.115885 262.018083 
L 221.195975 260.384847 
L 223.276065 258.956581 
L 225.356156 256.990944 
L 227.436246 255.583398 
L 239.916787 244.341285 
L 241.996877 242.048715 
L 244.076967 240.24714 
L 246.157058 238.168027 
L 248.237148 236.336732 
L 250.317238 233.942951 
L 258.637599 225.482516 
L 260.717689 222.789767 
L 262.797779 220.653441 
L 264.877869 218.313603 
L 266.957959 215.746957 
L 269.03805 213.61123 
L 275.27832 206.013112 
L 277.35841 203.93018 
L 279.438501 201.310754 
L 281.518591 199.255042 
L 283.598681 196.465906 
L 291.919042 186.583424 
L 296.079222 181.535699 
L 298.159312 179.212721 
L 300.239403 176.471008 
L 302.319493 174.183317 
L 306.479673 169.102514 
L 308.559763 167.095816 
L 310.639854 164.539435 
L 318.960214 154.905232 
L 321.040305 152.819589 
L 323.120395 150.146029 
L 325.200485 148.109263 
L 333.520846 138.933419 
L 335.600936 136.973813 
L 337.681026 135.356513 
L 341.841206 130.686752 
L 343.921297 128.922023 
L 348.081477 124.91009 
L 350.161567 123.276212 
L 352.241657 121.337786 
L 354.321748 120.018046 
L 356.401838 117.922334 
L 358.481928 116.426579 
L 360.562018 114.666936 
L 364.722199 111.687274 
L 368.882379 108.739059 
L 379.28283 102.899774 
L 381.36292 101.675993 
L 385.523101 100.301591 
L 387.603191 99.557205 
L 389.683281 99.205499 
L 393.843461 97.772469 
L 395.923552 60.236433 
L 400.083732 60.314076 
L 406.324002 59.430716 
L 408.404093 59.790148 
L 410.484183 59.703615 
L 412.564273 60.560278 
L 414.644363 60.281534 
L 420.884634 62.194886 
L 422.964724 62.322889 
L 425.044814 63.150237 
L 427.124904 63.778317 
L 429.204995 64.076471 
L 431.285085 65.341546 
L 435.445265 67.288631 
L 437.525355 68.558095 
L 439.605446 70.00992 
L 441.685536 70.744149 
L 443.765626 72.408112 
L 447.925806 74.675592 
L 452.085987 77.647736 
L 454.166077 79.492076 
L 456.246167 80.85765 
L 458.326257 82.757541 
L 460.406348 84.226388 
L 462.486438 86.138926 
L 464.566528 87.731687 
L 466.646618 89.979758 
L 468.726708 91.494269 
L 470.806798 93.608434 
L 472.886889 96.031406 
L 474.966979 97.767145 
L 477.047069 99.832987 
L 481.207249 104.357264 
L 487.44752 111.132559 
L 489.52761 113.765091 
L 493.687791 118.200387 
L 495.767881 121.242029 
L 497.847971 123.378127 
L 497.847971 123.378127 
" clip-path="url(#pcd4efa0edf)" style="fill: none; stroke: #000000; stroke-width: 1.5; stroke-linecap: round"/>
   </g>
   <g id="patch_3">
    <path d="M 63.213125 311.232957 
L 63.213125 25.3575 
" style="fill: none"/>
   </g>
   <g id="patch_4">
    <path d="M 518.544868 311.232957 
L 518.544868 25.3575 
" style="fill: none"/>
   </g>
   <g id="patch_5">
    <path d="M 63.213125 311.232957 
L 518.544868 311.232957 
" style="fill: none"/>
   </g>
   <g id="patch_6">
    <path d="M 63.213125 25.3575 
L 518.544868 25.3575 
" style="fill: none"/>
   </g>
   <g id="text_18">
    <!-- $R^2$ on all data = 0.987 -->
    <g style="fill: #262626" transform="translate(201.278997 19.3575) scale(0.16 -0.16)">
     <defs>
      <path id="DejaVuSans-Oblique-52" d="M 1613 4147 
L 1294 2491 
L 2106 2491 
Q 2584 2491 2879 2755 
Q 3175 3019 3175 3444 
Q 3175 3784 2976 3965 
Q 2778 4147 2406 4147 
L 1613 4147 
z
M 2772 2241 
Q 2972 2194 3105 2009 
Q 3238 1825 3413 1275 
L 3809 0 
L 3144 0 
L 2778 1197 
Q 2638 1659 2453 1815 
Q 2269 1972 1888 1972 
L 1191 1972 
L 806 0 
L 172 0 
L 1081 4666 
L 2503 4666 
Q 3150 4666 3495 4373 
Q 3841 4081 3841 3531 
Q 3841 3044 3547 2687 
Q 3253 2331 2772 2241 
z
" transform="scale(0.015625)"/>
      <path id="DejaVuSans-20" transform="scale(0.015625)"/>
      <path id="DejaVuSans-6f" d="M 1959 3097 
Q 1497 3097 1228 2736 
Q 959 2375 959 1747 
Q 959 1119 1226 758 
Q 1494 397 1959 397 
Q 2419 397 2687 759 
Q 2956 1122 2956 1747 
Q 2956 2369 2687 2733 
Q 2419 3097 1959 3097 
z
M 1959 3584 
Q 2709 3584 3137 3096 
Q 3566 2609 3566 1747 
Q 3566 888 3137 398 
Q 2709 -91 1959 -91 
Q 1206 -91 779 398 
Q 353 888 353 1747 
Q 353 2609 779 3096 
Q 1206 3584 1959 3584 
z
" transform="scale(0.015625)"/>
      <path id="DejaVuSans-6e" d="M 3513 2113 
L 3513 0 
L 2938 0 
L 2938 2094 
Q 2938 2591 2744 2837 
Q 2550 3084 2163 3084 
Q 1697 3084 1428 2787 
Q 1159 2491 1159 1978 
L 1159 0 
L 581 0 
L 581 3500 
L 1159 3500 
L 1159 2956 
Q 1366 3272 1645 3428 
Q 1925 3584 2291 3584 
Q 2894 3584 3203 3211 
Q 3513 2838 3513 2113 
z
" transform="scale(0.015625)"/>
      <path id="DejaVuSans-61" d="M 2194 1759 
Q 1497 1759 1228 1600 
Q 959 1441 959 1056 
Q 959 750 1161 570 
Q 1363 391 1709 391 
Q 2188 391 2477 730 
Q 2766 1069 2766 1631 
L 2766 1759 
L 2194 1759 
z
M 3341 1997 
L 3341 0 
L 2766 0 
L 2766 531 
Q 2569 213 2275 61 
Q 1981 -91 1556 -91 
Q 1019 -91 701 211 
Q 384 513 384 1019 
Q 384 1609 779 1909 
Q 1175 2209 1959 2209 
L 2766 2209 
L 2766 2266 
Q 2766 2663 2505 2880 
Q 2244 3097 1772 3097 
Q 1472 3097 1187 3025 
Q 903 2953 641 2809 
L 641 3341 
Q 956 3463 1253 3523 
Q 1550 3584 1831 3584 
Q 2591 3584 2966 3190 
Q 3341 2797 3341 1997 
z
" transform="scale(0.015625)"/>
      <path id="DejaVuSans-6c" d="M 603 4863 
L 1178 4863 
L 1178 0 
L 603 0 
L 603 4863 
z
" transform="scale(0.015625)"/>
      <path id="DejaVuSans-64" d="M 2906 2969 
L 2906 4863 
L 3481 4863 
L 3481 0 
L 2906 0 
L 2906 525 
Q 2725 213 2448 61 
Q 2172 -91 1784 -91 
Q 1150 -91 751 415 
Q 353 922 353 1747 
Q 353 2572 751 3078 
Q 1150 3584 1784 3584 
Q 2172 3584 2448 3432 
Q 2725 3281 2906 2969 
z
M 947 1747 
Q 947 1113 1208 752 
Q 1469 391 1925 391 
Q 2381 391 2643 752 
Q 2906 1113 2906 1747 
Q 2906 2381 2643 2742 
Q 2381 3103 1925 3103 
Q 1469 3103 1208 2742 
Q 947 2381 947 1747 
z
" transform="scale(0.015625)"/>
      <path id="DejaVuSans-74" d="M 1172 4494 
L 1172 3500 
L 2356 3500 
L 2356 3053 
L 1172 3053 
L 1172 1153 
Q 1172 725 1289 603 
Q 1406 481 1766 481 
L 2356 481 
L 2356 0 
L 1766 0 
Q 1100 0 847 248 
Q 594 497 594 1153 
L 594 3053 
L 172 3053 
L 172 3500 
L 594 3500 
L 594 4494 
L 1172 4494 
z
" transform="scale(0.015625)"/>
      <path id="DejaVuSans-3d" d="M 678 2906 
L 4684 2906 
L 4684 2381 
L 678 2381 
L 678 2906 
z
M 678 1631 
L 4684 1631 
L 4684 1100 
L 678 1100 
L 678 1631 
z
" transform="scale(0.015625)"/>
      <path id="DejaVuSans-39" d="M 703 97 
L 703 672 
Q 941 559 1184 500 
Q 1428 441 1663 441 
Q 2288 441 2617 861 
Q 2947 1281 2994 2138 
Q 2813 1869 2534 1725 
Q 2256 1581 1919 1581 
Q 1219 1581 811 2004 
Q 403 2428 403 3163 
Q 403 3881 828 4315 
Q 1253 4750 1959 4750 
Q 2769 4750 3195 4129 
Q 3622 3509 3622 2328 
Q 3622 1225 3098 567 
Q 2575 -91 1691 -91 
Q 1453 -91 1209 -44 
Q 966 3 703 97 
z
M 1959 2075 
Q 2384 2075 2632 2365 
Q 2881 2656 2881 3163 
Q 2881 3666 2632 3958 
Q 2384 4250 1959 4250 
Q 1534 4250 1286 3958 
Q 1038 3666 1038 3163 
Q 1038 2656 1286 2365 
Q 1534 2075 1959 2075 
z
" transform="scale(0.015625)"/>
      <path id="DejaVuSans-38" d="M 2034 2216 
Q 1584 2216 1326 1975 
Q 1069 1734 1069 1313 
Q 1069 891 1326 650 
Q 1584 409 2034 409 
Q 2484 409 2743 651 
Q 3003 894 3003 1313 
Q 3003 1734 2745 1975 
Q 2488 2216 2034 2216 
z
M 1403 2484 
Q 997 2584 770 2862 
Q 544 3141 544 3541 
Q 544 4100 942 4425 
Q 1341 4750 2034 4750 
Q 2731 4750 3128 4425 
Q 3525 4100 3525 3541 
Q 3525 3141 3298 2862 
Q 3072 2584 2669 2484 
Q 3125 2378 3379 2068 
Q 3634 1759 3634 1313 
Q 3634 634 3220 271 
Q 2806 -91 2034 -91 
Q 1263 -91 848 271 
Q 434 634 434 1313 
Q 434 1759 690 2068 
Q 947 2378 1403 2484 
z
M 1172 3481 
Q 1172 3119 1398 2916 
Q 1625 2713 2034 2713 
Q 2441 2713 2670 2916 
Q 2900 3119 2900 3481 
Q 2900 3844 2670 4047 
Q 2441 4250 2034 4250 
Q 1625 4250 1398 4047 
Q 1172 3844 1172 3481 
z
" transform="scale(0.015625)"/>
     </defs>
     <use xlink:href="#DejaVuSans-Oblique-52" transform="translate(0 0.765625)"/>
     <use xlink:href="#DejaVuSans-32" transform="translate(76.499193 39.046875) scale(0.7)"/>
     <use xlink:href="#DejaVuSans-20" transform="translate(123.769701 0.765625)"/>
     <use xlink:href="#DejaVuSans-6f" transform="translate(155.55681 0.765625)"/>
     <use xlink:href="#DejaVuSans-6e" transform="translate(216.738451 0.765625)"/>
     <use xlink:href="#DejaVuSans-20" transform="translate(280.117357 0.765625)"/>
     <use xlink:href="#DejaVuSans-61" transform="translate(311.904466 0.765625)"/>
     <use xlink:href="#DejaVuSans-6c" transform="translate(373.183763 0.765625)"/>
     <use xlink:href="#DejaVuSans-6c" transform="translate(400.966966 0.765625)"/>
     <use xlink:href="#DejaVuSans-20" transform="translate(428.750169 0.765625)"/>
     <use xlink:href="#DejaVuSans-64" transform="translate(460.537279 0.765625)"/>
     <use xlink:href="#DejaVuSans-61" transform="translate(524.013841 0.765625)"/>
     <use xlink:href="#DejaVuSans-74" transform="translate(585.293138 0.765625)"/>
     <use xlink:href="#DejaVuSans-61" transform="translate(624.502122 0.765625)"/>
     <use xlink:href="#DejaVuSans-20" transform="translate(685.781419 0.765625)"/>
     <use xlink:href="#DejaVuSans-3d" transform="translate(717.568529 0.765625)"/>
     <use xlink:href="#DejaVuSans-20" transform="translate(801.357591 0.765625)"/>
     <use xlink:href="#DejaVuSans-30" transform="translate(833.144701 0.765625)"/>
     <use xlink:href="#DejaVuSans-2e" transform="translate(896.767747 0.765625)"/>
     <use xlink:href="#DejaVuSans-39" transform="translate(928.554857 0.765625)"/>
     <use xlink:href="#DejaVuSans-38" transform="translate(992.177904 0.765625)"/>
     <use xlink:href="#DejaVuSans-37" transform="translate(1055.800951 0.765625)"/>
    </g>
   </g>
   <g id="legend_1"/>
  </g>
 </g>
 <defs>
  <clipPath id="pcd4efa0edf">
   <rect x="63.213125" y="25.3575" width="455.331743" height="285.875457"/>
  </clipPath>
 </defs>
</svg>
