<?xml version="1.0" encoding="utf-8" standalone="no"?>
<!DOCTYPE svg PUBLIC "-//W3C//DTD SVG 1.1//EN"
  "http://www.w3.org/Graphics/SVG/1.1/DTD/svg11.dtd">
<svg xmlns:xlink="http://www.w3.org/1999/xlink" width="526.746263pt" height="353.99952pt" viewBox="0 0 526.746263 353.99952" xmlns="http://www.w3.org/2000/svg" version="1.1">
 <metadata>
  <rdf:RDF xmlns:dc="http://purl.org/dc/elements/1.1/" xmlns:cc="http://creativecommons.org/ns#" xmlns:rdf="http://www.w3.org/1999/02/22-rdf-syntax-ns#">
   <cc:Work>
    <dc:type rdf:resource="http://purl.org/dc/dcmitype/StillImage"/>
    <dc:date>2022-11-15T17:34:32.382040</dc:date>
    <dc:format>image/svg+xml</dc:format>
    <dc:creator>
     <cc:Agent>
      <dc:title>Matplotlib v3.6.2, https://matplotlib.org/</dc:title>
     </cc:Agent>
    </dc:creator>
   </cc:Work>
  </rdf:RDF>
 </metadata>
 <defs>
  <style type="text/css">*{stroke-linejoin: round; stroke-linecap: butt}</style>
 </defs>
 <g id="figure_1">
  <g id="patch_1">
   <path d="M 0 353.99952 
L 526.746263 353.99952 
L 526.746263 0 
L 0 0 
z
" style="fill: #ffffff"/>
  </g>
  <g id="axes_1">
   <g id="patch_2">
    <path d="M 63.213125 311.232957 
L 518.544868 311.232957 
L 518.544868 43.277 
L 63.213125 43.277 
z
" style="fill: #eeeeee"/>
   </g>
   <g id="matplotlib.axis_1">
    <g id="xtick_1">
     <g id="line2d_1">
      <path d="M 69.291804 311.232957 
L 69.291804 43.277 
" clip-path="url(#pbf052d4222)" style="fill: none; stroke: #ffffff; stroke-width: 0.8; stroke-linecap: round"/>
     </g>
     <g id="line2d_2"/>
     <g id="text_1">
      <!-- −1.00 -->
      <g style="fill: #262626" transform="translate(47.840085 325.37077) scale(0.14 -0.14)">
       <defs>
        <path id="DejaVuSans-2212" d="M 678 2272 
L 4684 2272 
L 4684 1741 
L 678 1741 
L 678 2272 
z
" transform="scale(0.015625)"/>
        <path id="DejaVuSans-31" d="M 794 531 
L 1825 531 
L 1825 4091 
L 703 3866 
L 703 4441 
L 1819 4666 
L 2450 4666 
L 2450 531 
L 3481 531 
L 3481 0 
L 794 0 
L 794 531 
z
" transform="scale(0.015625)"/>
        <path id="DejaVuSans-2e" d="M 684 794 
L 1344 794 
L 1344 0 
L 684 0 
L 684 794 
z
" transform="scale(0.015625)"/>
        <path id="DejaVuSans-30" d="M 2034 4250 
Q 1547 4250 1301 3770 
Q 1056 3291 1056 2328 
Q 1056 1369 1301 889 
Q 1547 409 2034 409 
Q 2525 409 2770 889 
Q 3016 1369 3016 2328 
Q 3016 3291 2770 3770 
Q 2525 4250 2034 4250 
z
M 2034 4750 
Q 2819 4750 3233 4129 
Q 3647 3509 3647 2328 
Q 3647 1150 3233 529 
Q 2819 -91 2034 -91 
Q 1250 -91 836 529 
Q 422 1150 422 2328 
Q 422 3509 836 4129 
Q 1250 4750 2034 4750 
z
" transform="scale(0.015625)"/>
       </defs>
       <use xlink:href="#DejaVuSans-2212"/>
       <use xlink:href="#DejaVuSans-31" x="83.789062"/>
       <use xlink:href="#DejaVuSans-2e" x="147.412109"/>
       <use xlink:href="#DejaVuSans-30" x="179.199219"/>
       <use xlink:href="#DejaVuSans-30" x="242.822266"/>
      </g>
     </g>
    </g>
    <g id="xtick_2">
     <g id="line2d_3">
      <path d="M 123.625369 311.232957 
L 123.625369 43.277 
" clip-path="url(#pbf052d4222)" style="fill: none; stroke: #ffffff; stroke-width: 0.8; stroke-linecap: round"/>
     </g>
     <g id="line2d_4"/>
     <g id="text_2">
      <!-- −0.75 -->
      <g style="fill: #262626" transform="translate(102.173651 325.37077) scale(0.14 -0.14)">
       <defs>
        <path id="DejaVuSans-37" d="M 525 4666 
L 3525 4666 
L 3525 4397 
L 1831 0 
L 1172 0 
L 2766 4134 
L 525 4134 
L 525 4666 
z
" transform="scale(0.015625)"/>
        <path id="DejaVuSans-35" d="M 691 4666 
L 3169 4666 
L 3169 4134 
L 1269 4134 
L 1269 2991 
Q 1406 3038 1543 3061 
Q 1681 3084 1819 3084 
Q 2600 3084 3056 2656 
Q 3513 2228 3513 1497 
Q 3513 744 3044 326 
Q 2575 -91 1722 -91 
Q 1428 -91 1123 -41 
Q 819 9 494 109 
L 494 744 
Q 775 591 1075 516 
Q 1375 441 1709 441 
Q 2250 441 2565 725 
Q 2881 1009 2881 1497 
Q 2881 1984 2565 2268 
Q 2250 2553 1709 2553 
Q 1456 2553 1204 2497 
Q 953 2441 691 2322 
L 691 4666 
z
" transform="scale(0.015625)"/>
       </defs>
       <use xlink:href="#DejaVuSans-2212"/>
       <use xlink:href="#DejaVuSans-30" x="83.789062"/>
       <use xlink:href="#DejaVuSans-2e" x="147.412109"/>
       <use xlink:href="#DejaVuSans-37" x="179.199219"/>
       <use xlink:href="#DejaVuSans-35" x="242.822266"/>
      </g>
     </g>
    </g>
    <g id="xtick_3">
     <g id="line2d_5">
      <path d="M 177.958935 311.232957 
L 177.958935 43.277 
" clip-path="url(#pbf052d4222)" style="fill: none; stroke: #ffffff; stroke-width: 0.8; stroke-linecap: round"/>
     </g>
     <g id="line2d_6"/>
     <g id="text_3">
      <!-- −0.50 -->
      <g style="fill: #262626" transform="translate(156.507216 325.37077) scale(0.14 -0.14)">
       <use xlink:href="#DejaVuSans-2212"/>
       <use xlink:href="#DejaVuSans-30" x="83.789062"/>
       <use xlink:href="#DejaVuSans-2e" x="147.412109"/>
       <use xlink:href="#DejaVuSans-35" x="179.199219"/>
       <use xlink:href="#DejaVuSans-30" x="242.822266"/>
      </g>
     </g>
    </g>
    <g id="xtick_4">
     <g id="line2d_7">
      <path d="M 232.2925 311.232957 
L 232.2925 43.277 
" clip-path="url(#pbf052d4222)" style="fill: none; stroke: #ffffff; stroke-width: 0.8; stroke-linecap: round"/>
     </g>
     <g id="line2d_8"/>
     <g id="text_4">
      <!-- −0.25 -->
      <g style="fill: #262626" transform="translate(210.840781 325.37077) scale(0.14 -0.14)">
       <defs>
        <path id="DejaVuSans-32" d="M 1228 531 
L 3431 531 
L 3431 0 
L 469 0 
L 469 531 
Q 828 903 1448 1529 
Q 2069 2156 2228 2338 
Q 2531 2678 2651 2914 
Q 2772 3150 2772 3378 
Q 2772 3750 2511 3984 
Q 2250 4219 1831 4219 
Q 1534 4219 1204 4116 
Q 875 4013 500 3803 
L 500 4441 
Q 881 4594 1212 4672 
Q 1544 4750 1819 4750 
Q 2544 4750 2975 4387 
Q 3406 4025 3406 3419 
Q 3406 3131 3298 2873 
Q 3191 2616 2906 2266 
Q 2828 2175 2409 1742 
Q 1991 1309 1228 531 
z
" transform="scale(0.015625)"/>
       </defs>
       <use xlink:href="#DejaVuSans-2212"/>
       <use xlink:href="#DejaVuSans-30" x="83.789062"/>
       <use xlink:href="#DejaVuSans-2e" x="147.412109"/>
       <use xlink:href="#DejaVuSans-32" x="179.199219"/>
       <use xlink:href="#DejaVuSans-35" x="242.822266"/>
      </g>
     </g>
    </g>
    <g id="xtick_5">
     <g id="line2d_9">
      <path d="M 286.626065 311.232957 
L 286.626065 43.277 
" clip-path="url(#pbf052d4222)" style="fill: none; stroke: #ffffff; stroke-width: 0.8; stroke-linecap: round"/>
     </g>
     <g id="line2d_10"/>
     <g id="text_5">
      <!-- 0.00 -->
      <g style="fill: #262626" transform="translate(271.040128 325.37077) scale(0.14 -0.14)">
       <use xlink:href="#DejaVuSans-30"/>
       <use xlink:href="#DejaVuSans-2e" x="63.623047"/>
       <use xlink:href="#DejaVuSans-30" x="95.410156"/>
       <use xlink:href="#DejaVuSans-30" x="159.033203"/>
      </g>
     </g>
    </g>
    <g id="xtick_6">
     <g id="line2d_11">
      <path d="M 340.95963 311.232957 
L 340.95963 43.277 
" clip-path="url(#pbf052d4222)" style="fill: none; stroke: #ffffff; stroke-width: 0.8; stroke-linecap: round"/>
     </g>
     <g id="line2d_12"/>
     <g id="text_6">
      <!-- 0.25 -->
      <g style="fill: #262626" transform="translate(325.373693 325.37077) scale(0.14 -0.14)">
       <use xlink:href="#DejaVuSans-30"/>
       <use xlink:href="#DejaVuSans-2e" x="63.623047"/>
       <use xlink:href="#DejaVuSans-32" x="95.410156"/>
       <use xlink:href="#DejaVuSans-35" x="159.033203"/>
      </g>
     </g>
    </g>
    <g id="xtick_7">
     <g id="line2d_13">
      <path d="M 395.293195 311.232957 
L 395.293195 43.277 
" clip-path="url(#pbf052d4222)" style="fill: none; stroke: #ffffff; stroke-width: 0.8; stroke-linecap: round"/>
     </g>
     <g id="line2d_14"/>
     <g id="text_7">
      <!-- 0.50 -->
      <g style="fill: #262626" transform="translate(379.707258 325.37077) scale(0.14 -0.14)">
       <use xlink:href="#DejaVuSans-30"/>
       <use xlink:href="#DejaVuSans-2e" x="63.623047"/>
       <use xlink:href="#DejaVuSans-35" x="95.410156"/>
       <use xlink:href="#DejaVuSans-30" x="159.033203"/>
      </g>
     </g>
    </g>
    <g id="xtick_8">
     <g id="line2d_15">
      <path d="M 449.626761 311.232957 
L 449.626761 43.277 
" clip-path="url(#pbf052d4222)" style="fill: none; stroke: #ffffff; stroke-width: 0.8; stroke-linecap: round"/>
     </g>
     <g id="line2d_16"/>
     <g id="text_8">
      <!-- 0.75 -->
      <g style="fill: #262626" transform="translate(434.040823 325.37077) scale(0.14 -0.14)">
       <use xlink:href="#DejaVuSans-30"/>
       <use xlink:href="#DejaVuSans-2e" x="63.623047"/>
       <use xlink:href="#DejaVuSans-37" x="95.410156"/>
       <use xlink:href="#DejaVuSans-35" x="159.033203"/>
      </g>
     </g>
    </g>
    <g id="xtick_9">
     <g id="line2d_17">
      <path d="M 503.960326 311.232957 
L 503.960326 43.277 
" clip-path="url(#pbf052d4222)" style="fill: none; stroke: #ffffff; stroke-width: 0.8; stroke-linecap: round"/>
     </g>
     <g id="line2d_18"/>
     <g id="text_9">
      <!-- 1.00 -->
      <g style="fill: #262626" transform="translate(488.374388 325.37077) scale(0.14 -0.14)">
       <use xlink:href="#DejaVuSans-31"/>
       <use xlink:href="#DejaVuSans-2e" x="63.623047"/>
       <use xlink:href="#DejaVuSans-30" x="95.410156"/>
       <use xlink:href="#DejaVuSans-30" x="159.033203"/>
      </g>
     </g>
    </g>
    <g id="text_10">
     <!-- x -->
     <g style="fill: #262626" transform="translate(286.439934 343.679989) scale(0.15 -0.15)">
      <defs>
       <path id="DejaVuSans-78" d="M 3513 3500 
L 2247 1797 
L 3578 0 
L 2900 0 
L 1881 1375 
L 863 0 
L 184 0 
L 1544 1831 
L 300 3500 
L 978 3500 
L 1906 2253 
L 2834 3500 
L 3513 3500 
z
" transform="scale(0.015625)"/>
      </defs>
      <use xlink:href="#DejaVuSans-78"/>
     </g>
    </g>
   </g>
   <g id="matplotlib.axis_2">
    <g id="ytick_1">
     <g id="line2d_19">
      <path d="M 63.213125 287.884451 
L 518.544868 287.884451 
" clip-path="url(#pbf052d4222)" style="fill: none; stroke: #ffffff; stroke-width: 0.8; stroke-linecap: round"/>
     </g>
     <g id="line2d_20"/>
     <g id="text_11">
      <!-- −1.0 -->
      <g style="fill: #262626" transform="translate(25.717188 293.203357) scale(0.14 -0.14)">
       <use xlink:href="#DejaVuSans-2212"/>
       <use xlink:href="#DejaVuSans-31" x="83.789062"/>
       <use xlink:href="#DejaVuSans-2e" x="147.412109"/>
       <use xlink:href="#DejaVuSans-30" x="179.199219"/>
      </g>
     </g>
    </g>
    <g id="ytick_2">
     <g id="line2d_21">
      <path d="M 63.213125 242.543319 
L 518.544868 242.543319 
" clip-path="url(#pbf052d4222)" style="fill: none; stroke: #ffffff; stroke-width: 0.8; stroke-linecap: round"/>
     </g>
     <g id="line2d_22"/>
     <g id="text_12">
      <!-- −0.5 -->
      <g style="fill: #262626" transform="translate(25.717188 247.862225) scale(0.14 -0.14)">
       <use xlink:href="#DejaVuSans-2212"/>
       <use xlink:href="#DejaVuSans-30" x="83.789062"/>
       <use xlink:href="#DejaVuSans-2e" x="147.412109"/>
       <use xlink:href="#DejaVuSans-35" x="179.199219"/>
      </g>
     </g>
    </g>
    <g id="ytick_3">
     <g id="line2d_23">
      <path d="M 63.213125 197.202188 
L 518.544868 197.202188 
" clip-path="url(#pbf052d4222)" style="fill: none; stroke: #ffffff; stroke-width: 0.8; stroke-linecap: round"/>
     </g>
     <g id="line2d_24"/>
     <g id="text_13">
      <!-- 0.0 -->
      <g style="fill: #262626" transform="translate(37.44875 202.521094) scale(0.14 -0.14)">
       <use xlink:href="#DejaVuSans-30"/>
       <use xlink:href="#DejaVuSans-2e" x="63.623047"/>
       <use xlink:href="#DejaVuSans-30" x="95.410156"/>
      </g>
     </g>
    </g>
    <g id="ytick_4">
     <g id="line2d_25">
      <path d="M 63.213125 151.861056 
L 518.544868 151.861056 
" clip-path="url(#pbf052d4222)" style="fill: none; stroke: #ffffff; stroke-width: 0.8; stroke-linecap: round"/>
     </g>
     <g id="line2d_26"/>
     <g id="text_14">
      <!-- 0.5 -->
      <g style="fill: #262626" transform="translate(37.44875 157.179963) scale(0.14 -0.14)">
       <use xlink:href="#DejaVuSans-30"/>
       <use xlink:href="#DejaVuSans-2e" x="63.623047"/>
       <use xlink:href="#DejaVuSans-35" x="95.410156"/>
      </g>
     </g>
    </g>
    <g id="ytick_5">
     <g id="line2d_27">
      <path d="M 63.213125 106.519925 
L 518.544868 106.519925 
" clip-path="url(#pbf052d4222)" style="fill: none; stroke: #ffffff; stroke-width: 0.8; stroke-linecap: round"/>
     </g>
     <g id="line2d_28"/>
     <g id="text_15">
      <!-- 1.0 -->
      <g style="fill: #262626" transform="translate(37.44875 111.838831) scale(0.14 -0.14)">
       <use xlink:href="#DejaVuSans-31"/>
       <use xlink:href="#DejaVuSans-2e" x="63.623047"/>
       <use xlink:href="#DejaVuSans-30" x="95.410156"/>
      </g>
     </g>
    </g>
    <g id="ytick_6">
     <g id="line2d_29">
      <path d="M 63.213125 61.178793 
L 518.544868 61.178793 
" clip-path="url(#pbf052d4222)" style="fill: none; stroke: #ffffff; stroke-width: 0.8; stroke-linecap: round"/>
     </g>
     <g id="line2d_30"/>
     <g id="text_16">
      <!-- 1.5 -->
      <g style="fill: #262626" transform="translate(37.44875 66.4977) scale(0.14 -0.14)">
       <use xlink:href="#DejaVuSans-31"/>
       <use xlink:href="#DejaVuSans-2e" x="63.623047"/>
       <use xlink:href="#DejaVuSans-35" x="95.410156"/>
      </g>
     </g>
    </g>
    <g id="text_17">
     <!-- y -->
     <g style="fill: #262626" transform="translate(18.597656 181.694041) rotate(-90) scale(0.15 -0.15)">
      <defs>
       <path id="DejaVuSans-79" d="M 2059 -325 
Q 1816 -950 1584 -1140 
Q 1353 -1331 966 -1331 
L 506 -1331 
L 506 -850 
L 844 -850 
Q 1081 -850 1212 -737 
Q 1344 -625 1503 -206 
L 1606 56 
L 191 3500 
L 800 3500 
L 1894 763 
L 2988 3500 
L 3597 3500 
L 2059 -325 
z
" transform="scale(0.015625)"/>
      </defs>
      <use xlink:href="#DejaVuSans-79"/>
     </g>
    </g>
   </g>
   <g id="PathCollection_1">
    <defs>
     <path id="m4f31add78c" d="M 0 3 
C 0.795609 3 1.55874 2.683901 2.12132 2.12132 
C 2.683901 1.55874 3 0.795609 3 0 
C 3 -0.795609 2.683901 -1.55874 2.12132 -2.12132 
C 1.55874 -2.683901 0.795609 -3 0 -3 
C -0.795609 -3 -1.55874 -2.683901 -2.12132 -2.12132 
C -2.683901 -1.55874 -3 -0.795609 -3 0 
C -3 0.795609 -2.683901 1.55874 -2.12132 2.12132 
C -1.55874 2.683901 -0.795609 3 0 3 
z
" style="stroke: #ffffff; stroke-width: 0.48"/>
    </defs>
    <g clip-path="url(#pbf052d4222)">
     <use xlink:href="#m4f31add78c" x="83.910022" y="205.537626" style="stroke: #ffffff; stroke-width: 0.48"/>
     <use xlink:href="#m4f31add78c" x="84.336022" y="231.902966" style="stroke: #ffffff; stroke-width: 0.48"/>
     <use xlink:href="#m4f31add78c" x="84.69857" y="213.686958" style="stroke: #ffffff; stroke-width: 0.48"/>
     <use xlink:href="#m4f31add78c" x="89.412792" y="223.340892" style="stroke: #ffffff; stroke-width: 0.48"/>
     <use xlink:href="#m4f31add78c" x="94.835298" y="235.362238" style="stroke: #ffffff; stroke-width: 0.48"/>
     <use xlink:href="#m4f31add78c" x="94.920755" y="247.52555" style="stroke: #ffffff; stroke-width: 0.48"/>
     <use xlink:href="#m4f31add78c" x="105.526504" y="248.548519" style="stroke: #ffffff; stroke-width: 0.48"/>
     <use xlink:href="#m4f31add78c" x="107.174569" y="241.076351" style="stroke: #ffffff; stroke-width: 0.48"/>
     <use xlink:href="#m4f31add78c" x="112.222407" y="241.162783" style="stroke: #ffffff; stroke-width: 0.48"/>
     <use xlink:href="#m4f31add78c" x="114.768501" y="261.382361" style="stroke: #ffffff; stroke-width: 0.48"/>
     <use xlink:href="#m4f31add78c" x="117.423734" y="264.077754" style="stroke: #ffffff; stroke-width: 0.48"/>
     <use xlink:href="#m4f31add78c" x="125.295493" y="255.991823" style="stroke: #ffffff; stroke-width: 0.48"/>
     <use xlink:href="#m4f31add78c" x="141.833089" y="272.72039" style="stroke: #ffffff; stroke-width: 0.48"/>
     <use xlink:href="#m4f31add78c" x="141.9756" y="287.793501" style="stroke: #ffffff; stroke-width: 0.48"/>
     <use xlink:href="#m4f31add78c" x="145.162711" y="296.789586" style="stroke: #ffffff; stroke-width: 0.48"/>
     <use xlink:href="#m4f31add78c" x="145.509225" y="281.433536" style="stroke: #ffffff; stroke-width: 0.48"/>
     <use xlink:href="#m4f31add78c" x="147.059173" y="287.337669" style="stroke: #ffffff; stroke-width: 0.48"/>
     <use xlink:href="#m4f31add78c" x="147.299032" y="278.142274" style="stroke: #ffffff; stroke-width: 0.48"/>
     <use xlink:href="#m4f31add78c" x="149.509041" y="299.053141" style="stroke: #ffffff; stroke-width: 0.48"/>
     <use xlink:href="#m4f31add78c" x="159.417963" y="275.048855" style="stroke: #ffffff; stroke-width: 0.48"/>
     <use xlink:href="#m4f31add78c" x="163.564673" y="278.729455" style="stroke: #ffffff; stroke-width: 0.48"/>
     <use xlink:href="#m4f31add78c" x="168.797623" y="278.041089" style="stroke: #ffffff; stroke-width: 0.48"/>
     <use xlink:href="#m4f31add78c" x="170.455346" y="265.911928" style="stroke: #ffffff; stroke-width: 0.48"/>
     <use xlink:href="#m4f31add78c" x="172.701312" y="271.015664" style="stroke: #ffffff; stroke-width: 0.48"/>
     <use xlink:href="#m4f31add78c" x="188.833339" y="278.884067" style="stroke: #ffffff; stroke-width: 0.48"/>
     <use xlink:href="#m4f31add78c" x="194.379694" y="292.868345" style="stroke: #ffffff; stroke-width: 0.48"/>
     <use xlink:href="#m4f31add78c" x="195.102613" y="285.708754" style="stroke: #ffffff; stroke-width: 0.48"/>
     <use xlink:href="#m4f31add78c" x="203.349595" y="279.757896" style="stroke: #ffffff; stroke-width: 0.48"/>
     <use xlink:href="#m4f31add78c" x="205.405779" y="288.352748" style="stroke: #ffffff; stroke-width: 0.48"/>
     <use xlink:href="#m4f31add78c" x="208.282416" y="282.186608" style="stroke: #ffffff; stroke-width: 0.48"/>
     <use xlink:href="#m4f31add78c" x="208.871219" y="291.654733" style="stroke: #ffffff; stroke-width: 0.48"/>
     <use xlink:href="#m4f31add78c" x="210.295392" y="267.563066" style="stroke: #ffffff; stroke-width: 0.48"/>
     <use xlink:href="#m4f31add78c" x="211.069273" y="268.408112" style="stroke: #ffffff; stroke-width: 0.48"/>
     <use xlink:href="#m4f31add78c" x="211.748993" y="263.448011" style="stroke: #ffffff; stroke-width: 0.48"/>
     <use xlink:href="#m4f31add78c" x="216.562155" y="269.180651" style="stroke: #ffffff; stroke-width: 0.48"/>
     <use xlink:href="#m4f31add78c" x="230.422528" y="260.285776" style="stroke: #ffffff; stroke-width: 0.48"/>
     <use xlink:href="#m4f31add78c" x="235.037652" y="265.182432" style="stroke: #ffffff; stroke-width: 0.48"/>
     <use xlink:href="#m4f31add78c" x="239.493093" y="237.735333" style="stroke: #ffffff; stroke-width: 0.48"/>
     <use xlink:href="#m4f31add78c" x="243.175218" y="243.727559" style="stroke: #ffffff; stroke-width: 0.48"/>
     <use xlink:href="#m4f31add78c" x="245.068273" y="250.680039" style="stroke: #ffffff; stroke-width: 0.48"/>
     <use xlink:href="#m4f31add78c" x="249.100659" y="249.312195" style="stroke: #ffffff; stroke-width: 0.48"/>
     <use xlink:href="#m4f31add78c" x="258.305684" y="231.229978" style="stroke: #ffffff; stroke-width: 0.48"/>
     <use xlink:href="#m4f31add78c" x="262.182011" y="220.790737" style="stroke: #ffffff; stroke-width: 0.48"/>
     <use xlink:href="#m4f31add78c" x="266.093358" y="231.656719" style="stroke: #ffffff; stroke-width: 0.48"/>
     <use xlink:href="#m4f31add78c" x="266.798071" y="239.163016" style="stroke: #ffffff; stroke-width: 0.48"/>
     <use xlink:href="#m4f31add78c" x="269.087997" y="212.980895" style="stroke: #ffffff; stroke-width: 0.48"/>
     <use xlink:href="#m4f31add78c" x="281.112906" y="201.652633" style="stroke: #ffffff; stroke-width: 0.48"/>
     <use xlink:href="#m4f31add78c" x="284.936083" y="207.316012" style="stroke: #ffffff; stroke-width: 0.48"/>
     <use xlink:href="#m4f31add78c" x="286.235929" y="208.976654" style="stroke: #ffffff; stroke-width: 0.48"/>
     <use xlink:href="#m4f31add78c" x="289.454876" y="205.994772" style="stroke: #ffffff; stroke-width: 0.48"/>
     <use xlink:href="#m4f31add78c" x="289.523467" y="209.43088" style="stroke: #ffffff; stroke-width: 0.48"/>
     <use xlink:href="#m4f31add78c" x="299.076053" y="186.233637" style="stroke: #ffffff; stroke-width: 0.48"/>
     <use xlink:href="#m4f31add78c" x="301.144193" y="188.306664" style="stroke: #ffffff; stroke-width: 0.48"/>
     <use xlink:href="#m4f31add78c" x="304.354028" y="169.070433" style="stroke: #ffffff; stroke-width: 0.48"/>
     <use xlink:href="#m4f31add78c" x="310.233288" y="164.428678" style="stroke: #ffffff; stroke-width: 0.48"/>
     <use xlink:href="#m4f31add78c" x="310.81556" y="168.078166" style="stroke: #ffffff; stroke-width: 0.48"/>
     <use xlink:href="#m4f31add78c" x="316.333421" y="152.589957" style="stroke: #ffffff; stroke-width: 0.48"/>
     <use xlink:href="#m4f31add78c" x="326.15288" y="145.09276" style="stroke: #ffffff; stroke-width: 0.48"/>
     <use xlink:href="#m4f31add78c" x="329.473717" y="136.011836" style="stroke: #ffffff; stroke-width: 0.48"/>
     <use xlink:href="#m4f31add78c" x="345.717135" y="113.999639" style="stroke: #ffffff; stroke-width: 0.48"/>
     <use xlink:href="#m4f31add78c" x="345.912491" y="119.005444" style="stroke: #ffffff; stroke-width: 0.48"/>
     <use xlink:href="#m4f31add78c" x="348.40895" y="137.805972" style="stroke: #ffffff; stroke-width: 0.48"/>
     <use xlink:href="#m4f31add78c" x="350.254007" y="138.252493" style="stroke: #ffffff; stroke-width: 0.48"/>
     <use xlink:href="#m4f31add78c" x="350.642973" y="125.067526" style="stroke: #ffffff; stroke-width: 0.48"/>
     <use xlink:href="#m4f31add78c" x="361.213638" y="127.985829" style="stroke: #ffffff; stroke-width: 0.48"/>
     <use xlink:href="#m4f31add78c" x="363.251157" y="126.970253" style="stroke: #ffffff; stroke-width: 0.48"/>
     <use xlink:href="#m4f31add78c" x="365.881418" y="109.262294" style="stroke: #ffffff; stroke-width: 0.48"/>
     <use xlink:href="#m4f31add78c" x="366.74208" y="140.364405" style="stroke: #ffffff; stroke-width: 0.48"/>
     <use xlink:href="#m4f31add78c" x="370.659001" y="112.82715" style="stroke: #ffffff; stroke-width: 0.48"/>
     <use xlink:href="#m4f31add78c" x="377.968914" y="107.747281" style="stroke: #ffffff; stroke-width: 0.48"/>
     <use xlink:href="#m4f31add78c" x="382.373811" y="104.755849" style="stroke: #ffffff; stroke-width: 0.48"/>
     <use xlink:href="#m4f31add78c" x="384.627721" y="103.961854" style="stroke: #ffffff; stroke-width: 0.48"/>
     <use xlink:href="#m4f31add78c" x="384.895427" y="112.057903" style="stroke: #ffffff; stroke-width: 0.48"/>
     <use xlink:href="#m4f31add78c" x="385.076865" y="117.781044" style="stroke: #ffffff; stroke-width: 0.48"/>
     <use xlink:href="#m4f31add78c" x="392.383214" y="99.990452" style="stroke: #ffffff; stroke-width: 0.48"/>
     <use xlink:href="#m4f31add78c" x="408.505902" y="65.402317" style="stroke: #ffffff; stroke-width: 0.48"/>
     <use xlink:href="#m4f31add78c" x="414.78928" y="66.703706" style="stroke: #ffffff; stroke-width: 0.48"/>
     <use xlink:href="#m4f31add78c" x="418.379741" y="79.087808" style="stroke: #ffffff; stroke-width: 0.48"/>
     <use xlink:href="#m4f31add78c" x="423.312125" y="70.522715" style="stroke: #ffffff; stroke-width: 0.48"/>
     <use xlink:href="#m4f31add78c" x="424.220592" y="74.689718" style="stroke: #ffffff; stroke-width: 0.48"/>
     <use xlink:href="#m4f31add78c" x="427.130787" y="66.383697" style="stroke: #ffffff; stroke-width: 0.48"/>
     <use xlink:href="#m4f31add78c" x="428.394188" y="73.491801" style="stroke: #ffffff; stroke-width: 0.48"/>
     <use xlink:href="#m4f31add78c" x="431.732798" y="83.748788" style="stroke: #ffffff; stroke-width: 0.48"/>
     <use xlink:href="#m4f31add78c" x="432.894093" y="62.977406" style="stroke: #ffffff; stroke-width: 0.48"/>
     <use xlink:href="#m4f31add78c" x="433.879567" y="62.898167" style="stroke: #ffffff; stroke-width: 0.48"/>
     <use xlink:href="#m4f31add78c" x="438.591916" y="70.685408" style="stroke: #ffffff; stroke-width: 0.48"/>
     <use xlink:href="#m4f31add78c" x="441.61939" y="74.292034" style="stroke: #ffffff; stroke-width: 0.48"/>
     <use xlink:href="#m4f31add78c" x="445.959405" y="75.343127" style="stroke: #ffffff; stroke-width: 0.48"/>
     <use xlink:href="#m4f31add78c" x="454.085761" y="83.284849" style="stroke: #ffffff; stroke-width: 0.48"/>
     <use xlink:href="#m4f31add78c" x="454.160468" y="78.969566" style="stroke: #ffffff; stroke-width: 0.48"/>
     <use xlink:href="#m4f31add78c" x="464.439127" y="86.502883" style="stroke: #ffffff; stroke-width: 0.48"/>
     <use xlink:href="#m4f31add78c" x="464.787074" y="101.085293" style="stroke: #ffffff; stroke-width: 0.48"/>
     <use xlink:href="#m4f31add78c" x="477.548688" y="114.071133" style="stroke: #ffffff; stroke-width: 0.48"/>
     <use xlink:href="#m4f31add78c" x="480.628972" y="108.308104" style="stroke: #ffffff; stroke-width: 0.48"/>
     <use xlink:href="#m4f31add78c" x="480.649141" y="110.414859" style="stroke: #ffffff; stroke-width: 0.48"/>
     <use xlink:href="#m4f31add78c" x="483.017451" y="117.96734" style="stroke: #ffffff; stroke-width: 0.48"/>
     <use xlink:href="#m4f31add78c" x="489.376035" y="129.312583" style="stroke: #ffffff; stroke-width: 0.48"/>
     <use xlink:href="#m4f31add78c" x="493.102116" y="114.921577" style="stroke: #ffffff; stroke-width: 0.48"/>
     <use xlink:href="#m4f31add78c" x="496.132545" y="124.698192" style="stroke: #ffffff; stroke-width: 0.48"/>
     <use xlink:href="#m4f31add78c" x="497.847971" y="130.116327" style="stroke: #ffffff; stroke-width: 0.48"/>
    </g>
   </g>
   <g id="PolyCollection_1">
    <defs>
     <path id="ma9549d4271" d="M 83.910022 -143.974292 
L 83.910022 -127.987007 
L 85.990113 -125.288109 
L 88.070203 -123.274633 
L 90.150293 -120.871533 
L 92.230383 -118.388046 
L 94.310473 -115.733747 
L 96.390564 -113.504968 
L 98.470654 -110.907982 
L 100.550744 -108.549999 
L 102.630834 -106.336685 
L 104.710924 -103.517998 
L 106.791015 -101.261582 
L 108.871105 -99.0165 
L 110.951195 -96.710612 
L 113.031285 -94.439702 
L 115.111375 -92.357582 
L 117.191466 -90.038075 
L 119.271556 -88.065167 
L 121.351646 -86.141024 
L 123.431736 -84.360691 
L 125.511826 -82.668226 
L 127.591917 -80.976804 
L 129.672007 -79.293754 
L 131.752097 -77.861387 
L 133.832187 -76.55066 
L 135.912277 -75.192513 
L 137.992367 -73.78348 
L 140.072458 -72.649618 
L 142.152548 -71.582592 
L 144.232638 -70.756141 
L 146.312728 -69.823171 
L 148.392818 -68.778448 
L 150.472909 -67.882171 
L 152.552999 -67.257436 
L 154.633089 -66.977551 
L 156.713179 -66.324623 
L 158.793269 -65.863147 
L 160.87336 -65.252934 
L 162.95345 -64.628627 
L 165.03354 -64.325512 
L 167.11363 -64.324373 
L 169.19372 -64.028005 
L 171.273811 -63.712964 
L 173.353901 -64.100282 
L 175.433991 -64.008297 
L 177.514081 -63.741176 
L 179.594171 -63.8453 
L 181.674262 -63.959285 
L 183.754352 -64.406053 
L 185.834442 -64.742885 
L 187.914532 -65.08975 
L 189.994622 -65.713414 
L 192.074713 -66.440331 
L 194.154803 -67.026019 
L 196.234893 -67.586351 
L 198.314983 -68.38963 
L 200.395073 -69.247346 
L 202.475163 -70.286746 
L 204.555254 -71.363353 
L 206.635344 -72.393364 
L 208.715434 -73.714366 
L 210.795524 -75.180754 
L 212.875614 -76.501799 
L 214.955705 -77.801295 
L 217.035795 -79.290283 
L 219.115885 -80.834876 
L 221.195975 -82.432465 
L 223.276065 -84.053486 
L 225.356156 -85.772128 
L 227.436246 -87.550582 
L 229.516336 -89.365965 
L 231.596426 -91.085713 
L 233.676516 -93.043175 
L 235.756607 -94.762285 
L 237.836697 -96.842706 
L 239.916787 -98.860551 
L 241.996877 -100.91784 
L 244.076967 -102.93743 
L 246.157058 -105.084714 
L 248.237148 -107.208769 
L 250.317238 -109.498509 
L 252.397328 -111.539688 
L 254.477418 -113.83002 
L 256.557509 -115.991635 
L 258.637599 -118.310213 
L 260.717689 -120.556917 
L 262.797779 -122.45814 
L 264.877869 -124.822192 
L 266.957959 -127.279807 
L 269.03805 -129.665349 
L 271.11814 -131.806477 
L 273.19823 -134.123503 
L 275.27832 -136.62573 
L 277.35841 -139.275386 
L 279.438501 -141.602799 
L 281.518591 -144.03453 
L 283.598681 -146.446044 
L 285.678771 -148.878136 
L 287.758861 -151.399342 
L 289.838952 -153.852108 
L 291.919042 -156.283978 
L 293.999132 -158.881699 
L 296.079222 -161.340576 
L 298.159312 -163.80957 
L 300.239403 -166.254638 
L 302.319493 -168.962116 
L 304.399583 -171.587427 
L 306.479673 -173.985534 
L 308.559763 -176.468619 
L 310.639854 -178.937764 
L 312.719944 -181.523371 
L 314.800034 -183.889441 
L 316.880124 -186.287021 
L 318.960214 -188.778208 
L 321.040305 -191.109956 
L 323.120395 -193.292985 
L 325.200485 -195.799111 
L 327.280575 -198.020558 
L 329.360665 -200.232648 
L 331.440756 -202.344109 
L 333.520846 -204.597209 
L 335.600936 -206.815864 
L 337.681026 -208.946614 
L 339.761116 -210.897821 
L 341.841206 -212.807195 
L 343.921297 -214.683187 
L 346.001387 -216.634267 
L 348.081477 -218.759443 
L 350.161567 -220.626861 
L 352.241657 -222.365462 
L 354.321748 -223.961789 
L 356.401838 -225.489834 
L 358.481928 -227.078561 
L 360.562018 -228.520489 
L 362.642108 -229.997096 
L 364.722199 -231.532086 
L 366.802289 -232.839329 
L 368.882379 -234.114502 
L 370.962469 -235.522374 
L 373.042559 -236.592293 
L 375.12265 -237.633363 
L 377.20274 -238.607799 
L 379.28283 -239.678126 
L 381.36292 -240.420409 
L 383.44301 -240.986769 
L 385.523101 -241.539381 
L 387.603191 -242.058843 
L 389.683281 -242.49153 
L 391.763371 -242.381185 
L 393.843461 -242.605682 
L 395.923552 -275.783046 
L 398.003642 -276.475953 
L 400.083732 -277.427622 
L 402.163822 -278.319558 
L 404.243912 -278.156425 
L 406.324002 -279.043289 
L 408.404093 -279.179822 
L 410.484183 -279.777321 
L 412.564273 -279.990915 
L 414.644363 -280.333427 
L 416.724453 -280.343211 
L 418.804544 -280.54695 
L 420.884634 -280.407094 
L 422.964724 -280.404701 
L 425.044814 -279.781174 
L 427.124904 -279.691501 
L 429.204995 -278.810122 
L 431.285085 -278.1718 
L 433.365175 -277.120657 
L 435.445265 -276.22909 
L 437.525355 -274.896233 
L 439.605446 -273.701035 
L 441.685536 -272.221061 
L 443.765626 -270.786715 
L 445.845716 -269.431712 
L 447.925806 -267.579159 
L 450.005897 -266.030484 
L 452.085987 -264.280645 
L 454.166077 -262.48907 
L 456.246167 -260.427489 
L 458.326257 -258.723645 
L 460.406348 -257.154051 
L 462.486438 -255.165822 
L 464.566528 -253.333877 
L 466.646618 -252.030044 
L 468.726708 -249.766699 
L 470.806798 -247.805725 
L 472.886889 -245.958182 
L 474.966979 -244.229788 
L 477.047069 -242.523382 
L 479.127159 -240.074464 
L 481.207249 -238.054517 
L 483.28734 -235.574891 
L 485.36743 -233.305936 
L 487.44752 -231.056534 
L 489.52761 -228.165313 
L 491.6077 -225.110379 
L 493.687791 -222.147662 
L 495.767881 -218.411003 
L 497.847971 -214.752364 
L 497.847971 -233.671066 
L 497.847971 -233.671066 
L 495.767881 -235.118199 
L 493.687791 -236.997596 
L 491.6077 -238.395047 
L 489.52761 -240.353865 
L 487.44752 -242.367855 
L 485.36743 -244.099033 
L 483.28734 -246.28942 
L 481.207249 -248.800486 
L 479.127159 -251.040751 
L 477.047069 -253.712681 
L 474.966979 -255.761774 
L 472.886889 -257.668068 
L 470.806798 -259.701387 
L 468.726708 -261.857036 
L 466.646618 -264.249812 
L 464.566528 -265.545871 
L 462.486438 -267.308099 
L 460.406348 -269.232691 
L 458.326257 -270.758621 
L 456.246167 -272.297104 
L 454.166077 -274.148434 
L 452.085987 -275.573584 
L 450.005897 -276.961656 
L 447.925806 -278.118196 
L 445.845716 -279.58712 
L 443.765626 -280.584836 
L 441.685536 -281.690472 
L 439.605446 -282.812818 
L 437.525355 -283.758817 
L 435.445265 -284.964072 
L 433.365175 -285.809752 
L 431.285085 -287.042281 
L 429.204995 -287.894197 
L 427.124904 -289.207276 
L 425.044814 -289.815157 
L 422.964724 -291.117285 
L 420.884634 -291.923982 
L 418.804544 -292.816371 
L 416.724453 -293.388952 
L 414.644363 -294.345869 
L 412.564273 -294.999366 
L 410.484183 -295.739892 
L 408.404093 -296.171234 
L 406.324002 -297.089622 
L 404.243912 -297.252538 
L 402.163822 -298.312633 
L 400.083732 -298.358074 
L 398.003642 -298.364373 
L 395.923552 -298.542704 
L 393.843461 -256.299924 
L 391.763371 -255.462914 
L 389.683281 -254.952176 
L 387.603191 -254.039758 
L 385.523101 -253.071323 
L 383.44301 -252.131873 
L 381.36292 -251.106451 
L 379.28283 -250.020455 
L 377.20274 -248.624415 
L 375.12265 -247.329059 
L 373.042559 -245.983211 
L 370.962469 -244.692582 
L 368.882379 -243.090199 
L 366.802289 -241.603898 
L 364.722199 -240.084979 
L 362.642108 -238.382292 
L 360.562018 -236.773898 
L 358.481928 -235.154036 
L 356.401838 -233.445372 
L 354.321748 -231.751182 
L 352.241657 -229.975849 
L 350.161567 -228.14076 
L 348.081477 -226.221364 
L 346.001387 -224.063508 
L 343.921297 -222.057579 
L 341.841206 -220.157427 
L 339.761116 -218.179335 
L 337.681026 -216.188432 
L 335.600936 -214.104854 
L 333.520846 -211.92766 
L 331.440756 -209.721142 
L 329.360665 -207.649255 
L 327.280575 -205.450492 
L 325.200485 -203.28052 
L 323.120395 -200.831511 
L 321.040305 -198.694268 
L 318.960214 -196.415162 
L 316.880124 -193.999031 
L 314.800034 -191.679942 
L 312.719944 -189.383979 
L 310.639854 -186.856404 
L 308.559763 -184.45557 
L 306.479673 -182.035452 
L 304.399583 -179.680744 
L 302.319493 -177.127969 
L 300.239403 -174.461725 
L 298.159312 -172.04927 
L 296.079222 -169.571512 
L 293.999132 -167.137262 
L 291.919042 -164.558208 
L 289.838952 -162.09714 
L 287.758861 -159.638694 
L 285.678771 -157.080811 
L 283.598681 -154.597352 
L 281.518591 -152.143575 
L 279.438501 -149.658396 
L 277.35841 -147.302294 
L 275.27832 -144.572398 
L 273.19823 -141.98507 
L 271.11814 -139.559871 
L 269.03805 -137.293793 
L 266.957959 -134.850178 
L 264.877869 -132.312951 
L 262.797779 -129.902771 
L 260.717689 -127.927996 
L 258.637599 -125.578925 
L 256.557509 -123.183144 
L 254.477418 -120.952937 
L 252.397328 -118.634456 
L 250.317238 -116.611442 
L 248.237148 -114.321521 
L 246.157058 -112.188416 
L 244.076967 -110.093347 
L 241.996877 -108.115874 
L 239.916787 -106.099556 
L 237.836697 -104.105059 
L 235.756607 -102.117867 
L 233.676516 -100.462599 
L 231.596426 -98.536173 
L 229.516336 -96.91741 
L 227.436246 -95.185556 
L 225.356156 -93.504883 
L 223.276065 -91.897743 
L 221.195975 -90.412118 
L 219.115885 -88.926201 
L 217.035795 -87.491144 
L 214.955705 -86.093419 
L 212.875614 -84.91089 
L 210.795524 -83.685802 
L 208.715434 -82.274013 
L 206.635344 -81.028348 
L 204.555254 -80.026825 
L 202.475163 -78.974686 
L 200.395073 -77.955251 
L 198.314983 -77.095615 
L 196.234893 -76.271792 
L 194.154803 -75.655486 
L 192.074713 -74.988309 
L 189.994622 -74.185105 
L 187.914532 -73.443565 
L 185.834442 -72.976099 
L 183.754352 -72.598389 
L 181.674262 -72.087631 
L 179.594171 -71.882919 
L 177.514081 -71.729745 
L 175.433991 -71.927448 
L 173.353901 -71.966027 
L 171.273811 -71.548651 
L 169.19372 -71.793476 
L 167.11363 -72.066607 
L 165.03354 -72.145095 
L 162.95345 -72.49635 
L 160.87336 -73.223364 
L 158.793269 -73.995653 
L 156.713179 -74.595511 
L 154.633089 -75.393075 
L 152.552999 -75.855821 
L 150.472909 -76.655718 
L 148.392818 -77.721974 
L 146.312728 -78.932088 
L 144.232638 -80.086156 
L 142.152548 -81.082812 
L 140.072458 -82.27067 
L 137.992367 -83.527214 
L 135.912277 -85.050298 
L 133.832187 -86.521305 
L 131.752097 -87.951423 
L 129.672007 -89.428719 
L 127.591917 -91.169973 
L 125.511826 -92.877477 
L 123.431736 -94.590392 
L 121.351646 -96.314293 
L 119.271556 -98.165157 
L 117.191466 -100.04896 
L 115.111375 -102.202378 
L 113.031285 -104.115832 
L 110.951195 -106.233122 
L 108.871105 -108.39763 
L 106.791015 -110.553214 
L 104.710924 -112.796824 
L 102.630834 -115.547087 
L 100.550744 -117.961352 
L 98.470654 -120.68713 
L 96.390564 -123.750116 
L 94.310473 -126.5157 
L 92.230383 -129.8188 
L 90.150293 -133.064859 
L 88.070203 -136.475186 
L 85.990113 -139.839172 
L 83.910022 -143.974292 
z
" style="stroke: #fa7c17; stroke-opacity: 0.25"/>
    </defs>
    <g clip-path="url(#pbf052d4222)">
     <use xlink:href="#ma9549d4271" x="0" y="353.99952" style="fill: #fa7c17; fill-opacity: 0.25; stroke: #fa7c17; stroke-opacity: 0.25"/>
    </g>
   </g>
   <g id="line2d_31">
    <path d="M 83.910022 226.012513 
L 85.990113 228.711411 
L 88.070203 230.724887 
L 92.230383 235.611474 
L 94.310473 238.265773 
L 96.390564 240.494552 
L 98.470654 243.091538 
L 102.630834 247.662835 
L 104.710924 250.481522 
L 117.191466 263.961445 
L 121.351646 267.858496 
L 125.511826 271.331294 
L 129.672007 274.705766 
L 133.832187 277.44886 
L 137.992367 280.21604 
L 142.152548 282.416928 
L 146.312728 284.176349 
L 148.392818 285.221072 
L 150.472909 286.117349 
L 152.552999 286.742084 
L 154.633089 287.021969 
L 156.713179 287.674897 
L 158.793269 288.136373 
L 162.95345 289.370893 
L 165.03354 289.674008 
L 167.11363 289.675147 
L 171.273811 290.286556 
L 173.353901 289.899238 
L 175.433991 289.991223 
L 177.514081 290.258344 
L 181.674262 290.040235 
L 185.834442 289.256635 
L 187.914532 288.90977 
L 196.234893 286.413169 
L 200.395073 284.752174 
L 206.635344 281.606156 
L 208.715434 280.285154 
L 210.795524 278.818766 
L 214.955705 276.198225 
L 219.115885 273.164644 
L 223.276065 269.946034 
L 227.436246 266.448938 
L 235.756607 259.237235 
L 248.237148 246.790751 
L 250.317238 244.501011 
L 252.397328 242.459832 
L 260.717689 233.442603 
L 262.797779 231.54138 
L 275.27832 217.37379 
L 277.35841 214.724134 
L 281.518591 209.96499 
L 287.758861 202.600178 
L 300.239403 187.744882 
L 304.399583 182.412093 
L 310.639854 175.061756 
L 312.719944 172.476149 
L 327.280575 155.978962 
L 337.681026 145.052906 
L 350.161567 133.372659 
L 354.321748 130.037731 
L 364.722199 122.467434 
L 370.962469 118.477146 
L 379.28283 114.321394 
L 381.36292 113.579111 
L 387.603191 111.940677 
L 389.683281 111.50799 
L 391.763371 111.618335 
L 393.843461 111.393838 
L 395.923552 78.216474 
L 398.003642 77.523567 
L 402.163822 75.679962 
L 404.243912 75.843095 
L 406.324002 74.956231 
L 408.404093 74.819698 
L 410.484183 74.222199 
L 412.564273 74.008605 
L 414.644363 73.666093 
L 416.724453 73.656309 
L 418.804544 73.45257 
L 420.884634 73.592426 
L 422.964724 73.594819 
L 425.044814 74.218346 
L 427.124904 74.308019 
L 429.204995 75.189398 
L 431.285085 75.82772 
L 433.365175 76.878863 
L 435.445265 77.77043 
L 437.525355 79.103287 
L 439.605446 80.298485 
L 443.765626 83.212805 
L 445.845716 84.567808 
L 447.925806 86.420361 
L 450.005897 87.969036 
L 454.166077 91.51045 
L 456.246167 93.572031 
L 460.406348 96.845469 
L 462.486438 98.833698 
L 464.566528 100.665643 
L 466.646618 101.969476 
L 468.726708 104.232821 
L 472.886889 108.041338 
L 477.047069 111.476138 
L 479.127159 113.925056 
L 481.207249 115.945003 
L 483.28734 118.424629 
L 487.44752 122.942986 
L 491.6077 128.889141 
L 493.687791 131.851858 
L 497.847971 139.247156 
L 497.847971 139.247156 
" clip-path="url(#pbf052d4222)" style="fill: none; stroke: #fa7c17; stroke-opacity: 0; stroke-width: 1.5; stroke-linecap: round"/>
   </g>
   <g id="line2d_32">
    <path d="M 83.910022 210.025228 
L 85.990113 214.160348 
L 94.310473 227.48382 
L 96.390564 230.249404 
L 98.470654 233.31239 
L 100.550744 236.038168 
L 102.630834 238.452433 
L 104.710924 241.202696 
L 108.871105 245.60189 
L 113.031285 249.883688 
L 115.111375 251.797142 
L 117.191466 253.95056 
L 121.351646 257.685227 
L 129.672007 264.570801 
L 137.992367 270.472306 
L 142.152548 272.916708 
L 144.232638 273.913364 
L 150.472909 277.343802 
L 152.552999 278.143699 
L 154.633089 278.606445 
L 156.713179 279.404009 
L 158.793269 280.003867 
L 162.95345 281.50317 
L 165.03354 281.854425 
L 167.11363 281.932913 
L 171.273811 282.450869 
L 173.353901 282.033493 
L 175.433991 282.072072 
L 177.514081 282.269775 
L 181.674262 281.911889 
L 183.754352 281.401131 
L 187.914532 280.555955 
L 194.154803 278.344034 
L 196.234893 277.727728 
L 200.395073 276.044269 
L 206.635344 272.971172 
L 208.715434 271.725507 
L 210.795524 270.313718 
L 214.955705 267.906101 
L 221.195975 263.587402 
L 225.356156 260.494637 
L 231.596426 255.463347 
L 233.676516 253.536921 
L 235.756607 251.881653 
L 246.157058 241.811104 
L 252.397328 235.365064 
L 260.717689 226.071524 
L 262.797779 224.096749 
L 273.19823 212.01445 
L 279.438501 204.341124 
L 302.319493 176.871551 
L 304.399583 174.318776 
L 310.639854 167.143116 
L 312.719944 164.615541 
L 329.360665 146.350265 
L 333.520846 142.07186 
L 337.681026 137.811088 
L 352.241657 124.023671 
L 356.401838 120.554148 
L 360.562018 117.225622 
L 370.962469 109.306938 
L 377.20274 105.375105 
L 379.28283 103.979065 
L 383.44301 101.867647 
L 389.683281 99.047344 
L 391.763371 98.536606 
L 393.843461 97.699596 
L 395.923552 55.456816 
L 398.003642 55.635147 
L 402.163822 55.686887 
L 404.243912 56.746982 
L 406.324002 56.909898 
L 408.404093 57.828286 
L 410.484183 58.259628 
L 414.644363 59.653651 
L 416.724453 60.610568 
L 418.804544 61.183149 
L 422.964724 62.882235 
L 425.044814 64.184363 
L 427.124904 64.792244 
L 429.204995 66.105323 
L 431.285085 66.957239 
L 433.365175 68.189768 
L 435.445265 69.035448 
L 437.525355 70.240703 
L 439.605446 71.186702 
L 443.765626 73.414684 
L 445.845716 74.4124 
L 447.925806 75.881324 
L 450.005897 77.037864 
L 454.166077 79.851086 
L 456.246167 81.702416 
L 460.406348 84.766829 
L 462.486438 86.691421 
L 464.566528 88.453649 
L 466.646618 89.749708 
L 468.726708 92.142484 
L 472.886889 96.331452 
L 477.047069 100.286839 
L 479.127159 102.958769 
L 481.207249 105.199034 
L 483.28734 107.7101 
L 485.36743 109.900487 
L 487.44752 111.631665 
L 491.6077 115.604473 
L 493.687791 117.001924 
L 495.767881 118.881321 
L 497.847971 120.328454 
L 497.847971 120.328454 
" clip-path="url(#pbf052d4222)" style="fill: none; stroke: #fa7c17; stroke-opacity: 0; stroke-width: 1.5; stroke-linecap: round"/>
   </g>
   <g id="line2d_33">
    <path d="M 83.910022 218.130118 
L 88.070203 224.191835 
L 92.230383 229.978419 
L 96.390564 235.488774 
L 100.550744 240.721803 
L 104.710924 245.676411 
L 108.871105 250.351502 
L 113.031285 254.745978 
L 117.191466 258.858745 
L 121.351646 262.688706 
L 125.511826 266.234765 
L 129.672007 269.495826 
L 133.832187 272.470792 
L 137.992367 275.158568 
L 142.152548 277.558058 
L 146.312728 279.668164 
L 150.472909 281.487792 
L 154.633089 283.015846 
L 158.793269 284.251228 
L 162.95345 285.192843 
L 167.11363 285.839595 
L 171.273811 286.190387 
L 175.433991 286.244125 
L 179.594171 285.99971 
L 183.754352 285.456048 
L 187.914532 284.612042 
L 192.074713 283.466596 
L 196.234893 282.019696 
L 200.395073 280.279883 
L 204.555254 278.259758 
L 208.715434 275.97195 
L 212.875614 273.429086 
L 217.035795 270.643794 
L 221.195975 267.628699 
L 225.356156 264.396431 
L 229.516336 260.959616 
L 235.756607 255.448491 
L 241.996877 249.548164 
L 248.237148 243.301254 
L 254.477418 236.750377 
L 262.797779 227.616698 
L 271.11814 218.119416 
L 281.518591 205.890396 
L 314.800034 166.336535 
L 323.120395 156.906521 
L 329.360665 150.091511 
L 335.600936 143.548359 
L 341.841206 137.323094 
L 348.081477 131.461746 
L 354.321748 126.010344 
L 358.481928 122.626554 
L 362.642108 119.459058 
L 366.802289 116.521493 
L 370.962469 113.827499 
L 375.12265 111.390713 
L 379.28283 109.224774 
L 383.44301 107.34332 
L 387.603191 105.75999 
L 391.763371 104.488421 
L 393.843461 103.973809 
L 395.923552 66.652807 
L 400.083732 66.043173 
L 404.243912 65.766913 
L 408.404093 65.815795 
L 412.564273 66.181582 
L 416.724453 66.856038 
L 420.884634 67.830926 
L 425.044814 69.098008 
L 429.204995 70.649048 
L 433.365175 72.475809 
L 437.525355 74.570053 
L 441.685536 76.923544 
L 445.845716 79.528046 
L 450.005897 82.37532 
L 454.166077 85.45713 
L 458.326257 88.765239 
L 462.486438 92.29141 
L 466.646618 96.027406 
L 472.886889 102.006804 
L 479.127159 108.411976 
L 485.36743 115.215121 
L 491.6077 122.388441 
L 497.847971 129.904135 
L 497.847971 129.904135 
" clip-path="url(#pbf052d4222)" style="fill: none; stroke: #000000; stroke-width: 1.5; stroke-linecap: round"/>
   </g>
   <g id="line2d_34">
    <path d="M 395.293195 311.232957 
L 395.293195 43.277 
" clip-path="url(#pbf052d4222)" style="fill: none; stroke: #ff0000; stroke-width: 3; stroke-linecap: round"/>
   </g>
   <g id="patch_3">
    <path d="M 63.213125 311.232957 
L 63.213125 43.277 
" style="fill: none"/>
   </g>
   <g id="patch_4">
    <path d="M 518.544868 311.232957 
L 518.544868 43.277 
" style="fill: none"/>
   </g>
   <g id="patch_5">
    <path d="M 63.213125 311.232957 
L 518.544868 311.232957 
" style="fill: none"/>
   </g>
   <g id="patch_6">
    <path d="M 63.213125 43.277 
L 518.544868 43.277 
" style="fill: none"/>
   </g>
   <g id="text_18">
    <!-- $R^2$ on all data = 0.987 -->
    <g style="fill: #262626" transform="translate(201.278997 19.3575) scale(0.16 -0.16)">
     <defs>
      <path id="DejaVuSans-Oblique-52" d="M 1613 4147 
L 1294 2491 
L 2106 2491 
Q 2584 2491 2879 2755 
Q 3175 3019 3175 3444 
Q 3175 3784 2976 3965 
Q 2778 4147 2406 4147 
L 1613 4147 
z
M 2772 2241 
Q 2972 2194 3105 2009 
Q 3238 1825 3413 1275 
L 3809 0 
L 3144 0 
L 2778 1197 
Q 2638 1659 2453 1815 
Q 2269 1972 1888 1972 
L 1191 1972 
L 806 0 
L 172 0 
L 1081 4666 
L 2503 4666 
Q 3150 4666 3495 4373 
Q 3841 4081 3841 3531 
Q 3841 3044 3547 2687 
Q 3253 2331 2772 2241 
z
" transform="scale(0.015625)"/>
      <path id="DejaVuSans-20" transform="scale(0.015625)"/>
      <path id="DejaVuSans-6f" d="M 1959 3097 
Q 1497 3097 1228 2736 
Q 959 2375 959 1747 
Q 959 1119 1226 758 
Q 1494 397 1959 397 
Q 2419 397 2687 759 
Q 2956 1122 2956 1747 
Q 2956 2369 2687 2733 
Q 2419 3097 1959 3097 
z
M 1959 3584 
Q 2709 3584 3137 3096 
Q 3566 2609 3566 1747 
Q 3566 888 3137 398 
Q 2709 -91 1959 -91 
Q 1206 -91 779 398 
Q 353 888 353 1747 
Q 353 2609 779 3096 
Q 1206 3584 1959 3584 
z
" transform="scale(0.015625)"/>
      <path id="DejaVuSans-6e" d="M 3513 2113 
L 3513 0 
L 2938 0 
L 2938 2094 
Q 2938 2591 2744 2837 
Q 2550 3084 2163 3084 
Q 1697 3084 1428 2787 
Q 1159 2491 1159 1978 
L 1159 0 
L 581 0 
L 581 3500 
L 1159 3500 
L 1159 2956 
Q 1366 3272 1645 3428 
Q 1925 3584 2291 3584 
Q 2894 3584 3203 3211 
Q 3513 2838 3513 2113 
z
" transform="scale(0.015625)"/>
      <path id="DejaVuSans-61" d="M 2194 1759 
Q 1497 1759 1228 1600 
Q 959 1441 959 1056 
Q 959 750 1161 570 
Q 1363 391 1709 391 
Q 2188 391 2477 730 
Q 2766 1069 2766 1631 
L 2766 1759 
L 2194 1759 
z
M 3341 1997 
L 3341 0 
L 2766 0 
L 2766 531 
Q 2569 213 2275 61 
Q 1981 -91 1556 -91 
Q 1019 -91 701 211 
Q 384 513 384 1019 
Q 384 1609 779 1909 
Q 1175 2209 1959 2209 
L 2766 2209 
L 2766 2266 
Q 2766 2663 2505 2880 
Q 2244 3097 1772 3097 
Q 1472 3097 1187 3025 
Q 903 2953 641 2809 
L 641 3341 
Q 956 3463 1253 3523 
Q 1550 3584 1831 3584 
Q 2591 3584 2966 3190 
Q 3341 2797 3341 1997 
z
" transform="scale(0.015625)"/>
      <path id="DejaVuSans-6c" d="M 603 4863 
L 1178 4863 
L 1178 0 
L 603 0 
L 603 4863 
z
" transform="scale(0.015625)"/>
      <path id="DejaVuSans-64" d="M 2906 2969 
L 2906 4863 
L 3481 4863 
L 3481 0 
L 2906 0 
L 2906 525 
Q 2725 213 2448 61 
Q 2172 -91 1784 -91 
Q 1150 -91 751 415 
Q 353 922 353 1747 
Q 353 2572 751 3078 
Q 1150 3584 1784 3584 
Q 2172 3584 2448 3432 
Q 2725 3281 2906 2969 
z
M 947 1747 
Q 947 1113 1208 752 
Q 1469 391 1925 391 
Q 2381 391 2643 752 
Q 2906 1113 2906 1747 
Q 2906 2381 2643 2742 
Q 2381 3103 1925 3103 
Q 1469 3103 1208 2742 
Q 947 2381 947 1747 
z
" transform="scale(0.015625)"/>
      <path id="DejaVuSans-74" d="M 1172 4494 
L 1172 3500 
L 2356 3500 
L 2356 3053 
L 1172 3053 
L 1172 1153 
Q 1172 725 1289 603 
Q 1406 481 1766 481 
L 2356 481 
L 2356 0 
L 1766 0 
Q 1100 0 847 248 
Q 594 497 594 1153 
L 594 3053 
L 172 3053 
L 172 3500 
L 594 3500 
L 594 4494 
L 1172 4494 
z
" transform="scale(0.015625)"/>
      <path id="DejaVuSans-3d" d="M 678 2906 
L 4684 2906 
L 4684 2381 
L 678 2381 
L 678 2906 
z
M 678 1631 
L 4684 1631 
L 4684 1100 
L 678 1100 
L 678 1631 
z
" transform="scale(0.015625)"/>
      <path id="DejaVuSans-39" d="M 703 97 
L 703 672 
Q 941 559 1184 500 
Q 1428 441 1663 441 
Q 2288 441 2617 861 
Q 2947 1281 2994 2138 
Q 2813 1869 2534 1725 
Q 2256 1581 1919 1581 
Q 1219 1581 811 2004 
Q 403 2428 403 3163 
Q 403 3881 828 4315 
Q 1253 4750 1959 4750 
Q 2769 4750 3195 4129 
Q 3622 3509 3622 2328 
Q 3622 1225 3098 567 
Q 2575 -91 1691 -91 
Q 1453 -91 1209 -44 
Q 966 3 703 97 
z
M 1959 2075 
Q 2384 2075 2632 2365 
Q 2881 2656 2881 3163 
Q 2881 3666 2632 3958 
Q 2384 4250 1959 4250 
Q 1534 4250 1286 3958 
Q 1038 3666 1038 3163 
Q 1038 2656 1286 2365 
Q 1534 2075 1959 2075 
z
" transform="scale(0.015625)"/>
      <path id="DejaVuSans-38" d="M 2034 2216 
Q 1584 2216 1326 1975 
Q 1069 1734 1069 1313 
Q 1069 891 1326 650 
Q 1584 409 2034 409 
Q 2484 409 2743 651 
Q 3003 894 3003 1313 
Q 3003 1734 2745 1975 
Q 2488 2216 2034 2216 
z
M 1403 2484 
Q 997 2584 770 2862 
Q 544 3141 544 3541 
Q 544 4100 942 4425 
Q 1341 4750 2034 4750 
Q 2731 4750 3128 4425 
Q 3525 4100 3525 3541 
Q 3525 3141 3298 2862 
Q 3072 2584 2669 2484 
Q 3125 2378 3379 2068 
Q 3634 1759 3634 1313 
Q 3634 634 3220 271 
Q 2806 -91 2034 -91 
Q 1263 -91 848 271 
Q 434 634 434 1313 
Q 434 1759 690 2068 
Q 947 2378 1403 2484 
z
M 1172 3481 
Q 1172 3119 1398 2916 
Q 1625 2713 2034 2713 
Q 2441 2713 2670 2916 
Q 2900 3119 2900 3481 
Q 2900 3844 2670 4047 
Q 2441 4250 2034 4250 
Q 1625 4250 1398 4047 
Q 1172 3844 1172 3481 
z
" transform="scale(0.015625)"/>
     </defs>
     <use xlink:href="#DejaVuSans-Oblique-52" transform="translate(0 0.765625)"/>
     <use xlink:href="#DejaVuSans-32" transform="translate(76.499193 39.046875) scale(0.7)"/>
     <use xlink:href="#DejaVuSans-20" transform="translate(123.769701 0.765625)"/>
     <use xlink:href="#DejaVuSans-6f" transform="translate(155.55681 0.765625)"/>
     <use xlink:href="#DejaVuSans-6e" transform="translate(216.738451 0.765625)"/>
     <use xlink:href="#DejaVuSans-20" transform="translate(280.117357 0.765625)"/>
     <use xlink:href="#DejaVuSans-61" transform="translate(311.904466 0.765625)"/>
     <use xlink:href="#DejaVuSans-6c" transform="translate(373.183763 0.765625)"/>
     <use xlink:href="#DejaVuSans-6c" transform="translate(400.966966 0.765625)"/>
     <use xlink:href="#DejaVuSans-20" transform="translate(428.750169 0.765625)"/>
     <use xlink:href="#DejaVuSans-64" transform="translate(460.537279 0.765625)"/>
     <use xlink:href="#DejaVuSans-61" transform="translate(524.013841 0.765625)"/>
     <use xlink:href="#DejaVuSans-74" transform="translate(585.293138 0.765625)"/>
     <use xlink:href="#DejaVuSans-61" transform="translate(624.502122 0.765625)"/>
     <use xlink:href="#DejaVuSans-20" transform="translate(685.781419 0.765625)"/>
     <use xlink:href="#DejaVuSans-3d" transform="translate(717.568529 0.765625)"/>
     <use xlink:href="#DejaVuSans-20" transform="translate(801.357591 0.765625)"/>
     <use xlink:href="#DejaVuSans-30" transform="translate(833.144701 0.765625)"/>
     <use xlink:href="#DejaVuSans-2e" transform="translate(896.767747 0.765625)"/>
     <use xlink:href="#DejaVuSans-39" transform="translate(928.554857 0.765625)"/>
     <use xlink:href="#DejaVuSans-38" transform="translate(992.177904 0.765625)"/>
     <use xlink:href="#DejaVuSans-37" transform="translate(1055.800951 0.765625)"/>
    </g>
    <!-- Discontinuity at threshold = 0.41, $CI_{94\%}$[0.23, 0.59] -->
    <g style="fill: #262626" transform="translate(85.998997 37.277) scale(0.16 -0.16)">
     <defs>
      <path id="DejaVuSans-44" d="M 1259 4147 
L 1259 519 
L 2022 519 
Q 2988 519 3436 956 
Q 3884 1394 3884 2338 
Q 3884 3275 3436 3711 
Q 2988 4147 2022 4147 
L 1259 4147 
z
M 628 4666 
L 1925 4666 
Q 3281 4666 3915 4102 
Q 4550 3538 4550 2338 
Q 4550 1131 3912 565 
Q 3275 0 1925 0 
L 628 0 
L 628 4666 
z
" transform="scale(0.015625)"/>
      <path id="DejaVuSans-69" d="M 603 3500 
L 1178 3500 
L 1178 0 
L 603 0 
L 603 3500 
z
M 603 4863 
L 1178 4863 
L 1178 4134 
L 603 4134 
L 603 4863 
z
" transform="scale(0.015625)"/>
      <path id="DejaVuSans-73" d="M 2834 3397 
L 2834 2853 
Q 2591 2978 2328 3040 
Q 2066 3103 1784 3103 
Q 1356 3103 1142 2972 
Q 928 2841 928 2578 
Q 928 2378 1081 2264 
Q 1234 2150 1697 2047 
L 1894 2003 
Q 2506 1872 2764 1633 
Q 3022 1394 3022 966 
Q 3022 478 2636 193 
Q 2250 -91 1575 -91 
Q 1294 -91 989 -36 
Q 684 19 347 128 
L 347 722 
Q 666 556 975 473 
Q 1284 391 1588 391 
Q 1994 391 2212 530 
Q 2431 669 2431 922 
Q 2431 1156 2273 1281 
Q 2116 1406 1581 1522 
L 1381 1569 
Q 847 1681 609 1914 
Q 372 2147 372 2553 
Q 372 3047 722 3315 
Q 1072 3584 1716 3584 
Q 2034 3584 2315 3537 
Q 2597 3491 2834 3397 
z
" transform="scale(0.015625)"/>
      <path id="DejaVuSans-63" d="M 3122 3366 
L 3122 2828 
Q 2878 2963 2633 3030 
Q 2388 3097 2138 3097 
Q 1578 3097 1268 2742 
Q 959 2388 959 1747 
Q 959 1106 1268 751 
Q 1578 397 2138 397 
Q 2388 397 2633 464 
Q 2878 531 3122 666 
L 3122 134 
Q 2881 22 2623 -34 
Q 2366 -91 2075 -91 
Q 1284 -91 818 406 
Q 353 903 353 1747 
Q 353 2603 823 3093 
Q 1294 3584 2113 3584 
Q 2378 3584 2631 3529 
Q 2884 3475 3122 3366 
z
" transform="scale(0.015625)"/>
      <path id="DejaVuSans-75" d="M 544 1381 
L 544 3500 
L 1119 3500 
L 1119 1403 
Q 1119 906 1312 657 
Q 1506 409 1894 409 
Q 2359 409 2629 706 
Q 2900 1003 2900 1516 
L 2900 3500 
L 3475 3500 
L 3475 0 
L 2900 0 
L 2900 538 
Q 2691 219 2414 64 
Q 2138 -91 1772 -91 
Q 1169 -91 856 284 
Q 544 659 544 1381 
z
M 1991 3584 
L 1991 3584 
z
" transform="scale(0.015625)"/>
      <path id="DejaVuSans-68" d="M 3513 2113 
L 3513 0 
L 2938 0 
L 2938 2094 
Q 2938 2591 2744 2837 
Q 2550 3084 2163 3084 
Q 1697 3084 1428 2787 
Q 1159 2491 1159 1978 
L 1159 0 
L 581 0 
L 581 4863 
L 1159 4863 
L 1159 2956 
Q 1366 3272 1645 3428 
Q 1925 3584 2291 3584 
Q 2894 3584 3203 3211 
Q 3513 2838 3513 2113 
z
" transform="scale(0.015625)"/>
      <path id="DejaVuSans-72" d="M 2631 2963 
Q 2534 3019 2420 3045 
Q 2306 3072 2169 3072 
Q 1681 3072 1420 2755 
Q 1159 2438 1159 1844 
L 1159 0 
L 581 0 
L 581 3500 
L 1159 3500 
L 1159 2956 
Q 1341 3275 1631 3429 
Q 1922 3584 2338 3584 
Q 2397 3584 2469 3576 
Q 2541 3569 2628 3553 
L 2631 2963 
z
" transform="scale(0.015625)"/>
      <path id="DejaVuSans-65" d="M 3597 1894 
L 3597 1613 
L 953 1613 
Q 991 1019 1311 708 
Q 1631 397 2203 397 
Q 2534 397 2845 478 
Q 3156 559 3463 722 
L 3463 178 
Q 3153 47 2828 -22 
Q 2503 -91 2169 -91 
Q 1331 -91 842 396 
Q 353 884 353 1716 
Q 353 2575 817 3079 
Q 1281 3584 2069 3584 
Q 2775 3584 3186 3129 
Q 3597 2675 3597 1894 
z
M 3022 2063 
Q 3016 2534 2758 2815 
Q 2500 3097 2075 3097 
Q 1594 3097 1305 2825 
Q 1016 2553 972 2059 
L 3022 2063 
z
" transform="scale(0.015625)"/>
      <path id="DejaVuSans-34" d="M 2419 4116 
L 825 1625 
L 2419 1625 
L 2419 4116 
z
M 2253 4666 
L 3047 4666 
L 3047 1625 
L 3713 1625 
L 3713 1100 
L 3047 1100 
L 3047 0 
L 2419 0 
L 2419 1100 
L 313 1100 
L 313 1709 
L 2253 4666 
z
" transform="scale(0.015625)"/>
      <path id="DejaVuSans-2c" d="M 750 794 
L 1409 794 
L 1409 256 
L 897 -744 
L 494 -744 
L 750 256 
L 750 794 
z
" transform="scale(0.015625)"/>
      <path id="DejaVuSans-Oblique-43" d="M 4447 4306 
L 4319 3641 
Q 4019 3944 3683 4091 
Q 3347 4238 2956 4238 
Q 2422 4238 2017 3981 
Q 1613 3725 1319 3200 
Q 1131 2863 1032 2486 
Q 934 2109 934 1728 
Q 934 1091 1264 756 
Q 1594 422 2222 422 
Q 2656 422 3056 561 
Q 3456 700 3834 978 
L 3688 231 
Q 3316 72 2936 -9 
Q 2556 -91 2175 -91 
Q 1278 -91 773 396 
Q 269 884 269 1753 
Q 269 2309 461 2846 
Q 653 3384 1013 3828 
Q 1394 4300 1883 4525 
Q 2372 4750 3022 4750 
Q 3422 4750 3780 4639 
Q 4138 4528 4447 4306 
z
" transform="scale(0.015625)"/>
      <path id="DejaVuSans-Oblique-49" d="M 1081 4666 
L 1716 4666 
L 806 0 
L 172 0 
L 1081 4666 
z
" transform="scale(0.015625)"/>
      <path id="DejaVuSans-25" d="M 4653 2053 
Q 4381 2053 4226 1822 
Q 4072 1591 4072 1178 
Q 4072 772 4226 539 
Q 4381 306 4653 306 
Q 4919 306 5073 539 
Q 5228 772 5228 1178 
Q 5228 1588 5073 1820 
Q 4919 2053 4653 2053 
z
M 4653 2450 
Q 5147 2450 5437 2106 
Q 5728 1763 5728 1178 
Q 5728 594 5436 251 
Q 5144 -91 4653 -91 
Q 4153 -91 3862 251 
Q 3572 594 3572 1178 
Q 3572 1766 3864 2108 
Q 4156 2450 4653 2450 
z
M 1428 4353 
Q 1159 4353 1004 4120 
Q 850 3888 850 3481 
Q 850 3069 1003 2837 
Q 1156 2606 1428 2606 
Q 1700 2606 1854 2837 
Q 2009 3069 2009 3481 
Q 2009 3884 1853 4118 
Q 1697 4353 1428 4353 
z
M 4250 4750 
L 4750 4750 
L 1831 -91 
L 1331 -91 
L 4250 4750 
z
M 1428 4750 
Q 1922 4750 2215 4408 
Q 2509 4066 2509 3481 
Q 2509 2891 2217 2550 
Q 1925 2209 1428 2209 
Q 931 2209 642 2551 
Q 353 2894 353 3481 
Q 353 4063 643 4406 
Q 934 4750 1428 4750 
z
" transform="scale(0.015625)"/>
      <path id="DejaVuSans-5b" d="M 550 4863 
L 1875 4863 
L 1875 4416 
L 1125 4416 
L 1125 -397 
L 1875 -397 
L 1875 -844 
L 550 -844 
L 550 4863 
z
" transform="scale(0.015625)"/>
      <path id="DejaVuSans-33" d="M 2597 2516 
Q 3050 2419 3304 2112 
Q 3559 1806 3559 1356 
Q 3559 666 3084 287 
Q 2609 -91 1734 -91 
Q 1441 -91 1130 -33 
Q 819 25 488 141 
L 488 750 
Q 750 597 1062 519 
Q 1375 441 1716 441 
Q 2309 441 2620 675 
Q 2931 909 2931 1356 
Q 2931 1769 2642 2001 
Q 2353 2234 1838 2234 
L 1294 2234 
L 1294 2753 
L 1863 2753 
Q 2328 2753 2575 2939 
Q 2822 3125 2822 3475 
Q 2822 3834 2567 4026 
Q 2313 4219 1838 4219 
Q 1578 4219 1281 4162 
Q 984 4106 628 3988 
L 628 4550 
Q 988 4650 1302 4700 
Q 1616 4750 1894 4750 
Q 2613 4750 3031 4423 
Q 3450 4097 3450 3541 
Q 3450 3153 3228 2886 
Q 3006 2619 2597 2516 
z
" transform="scale(0.015625)"/>
      <path id="DejaVuSans-5d" d="M 1947 4863 
L 1947 -844 
L 622 -844 
L 622 -397 
L 1369 -397 
L 1369 4416 
L 622 4416 
L 622 4863 
L 1947 4863 
z
" transform="scale(0.015625)"/>
     </defs>
     <use xlink:href="#DejaVuSans-44" transform="translate(0 0.015625)"/>
     <use xlink:href="#DejaVuSans-69" transform="translate(77.001953 0.015625)"/>
     <use xlink:href="#DejaVuSans-73" transform="translate(104.785156 0.015625)"/>
     <use xlink:href="#DejaVuSans-63" transform="translate(156.884766 0.015625)"/>
     <use xlink:href="#DejaVuSans-6f" transform="translate(211.865234 0.015625)"/>
     <use xlink:href="#DejaVuSans-6e" transform="translate(273.046875 0.015625)"/>
     <use xlink:href="#DejaVuSans-74" transform="translate(336.425781 0.015625)"/>
     <use xlink:href="#DejaVuSans-69" transform="translate(375.634766 0.015625)"/>
     <use xlink:href="#DejaVuSans-6e" transform="translate(403.417969 0.015625)"/>
     <use xlink:href="#DejaVuSans-75" transform="translate(466.796875 0.015625)"/>
     <use xlink:href="#DejaVuSans-69" transform="translate(530.175781 0.015625)"/>
     <use xlink:href="#DejaVuSans-74" transform="translate(557.958984 0.015625)"/>
     <use xlink:href="#DejaVuSans-79" transform="translate(597.167969 0.015625)"/>
     <use xlink:href="#DejaVuSans-20" transform="translate(656.347656 0.015625)"/>
     <use xlink:href="#DejaVuSans-61" transform="translate(688.134766 0.015625)"/>
     <use xlink:href="#DejaVuSans-74" transform="translate(749.414062 0.015625)"/>
     <use xlink:href="#DejaVuSans-20" transform="translate(788.623047 0.015625)"/>
     <use xlink:href="#DejaVuSans-74" transform="translate(820.410156 0.015625)"/>
     <use xlink:href="#DejaVuSans-68" transform="translate(859.619141 0.015625)"/>
     <use xlink:href="#DejaVuSans-72" transform="translate(922.998047 0.015625)"/>
     <use xlink:href="#DejaVuSans-65" transform="translate(964.111328 0.015625)"/>
     <use xlink:href="#DejaVuSans-73" transform="translate(1025.634766 0.015625)"/>
     <use xlink:href="#DejaVuSans-68" transform="translate(1077.734375 0.015625)"/>
     <use xlink:href="#DejaVuSans-6f" transform="translate(1141.113281 0.015625)"/>
     <use xlink:href="#DejaVuSans-6c" transform="translate(1202.294922 0.015625)"/>
     <use xlink:href="#DejaVuSans-64" transform="translate(1230.078125 0.015625)"/>
     <use xlink:href="#DejaVuSans-20" transform="translate(1293.554688 0.015625)"/>
     <use xlink:href="#DejaVuSans-3d" transform="translate(1325.341797 0.015625)"/>
     <use xlink:href="#DejaVuSans-20" transform="translate(1409.130859 0.015625)"/>
     <use xlink:href="#DejaVuSans-30" transform="translate(1440.917969 0.015625)"/>
     <use xlink:href="#DejaVuSans-2e" transform="translate(1504.541016 0.015625)"/>
     <use xlink:href="#DejaVuSans-34" transform="translate(1536.328125 0.015625)"/>
     <use xlink:href="#DejaVuSans-31" transform="translate(1599.951172 0.015625)"/>
     <use xlink:href="#DejaVuSans-2c" transform="translate(1663.574219 0.015625)"/>
     <use xlink:href="#DejaVuSans-20" transform="translate(1695.361328 0.015625)"/>
     <use xlink:href="#DejaVuSans-Oblique-43" transform="translate(1727.148438 0.015625)"/>
     <use xlink:href="#DejaVuSans-Oblique-49" transform="translate(1796.972656 0.015625)"/>
     <use xlink:href="#DejaVuSans-39" transform="translate(1826.464844 -16.390625) scale(0.7)"/>
     <use xlink:href="#DejaVuSans-34" transform="translate(1871.000977 -16.390625) scale(0.7)"/>
     <use xlink:href="#DejaVuSans-25" transform="translate(1915.537109 -16.390625) scale(0.7)"/>
     <use xlink:href="#DejaVuSans-5b" transform="translate(1984.785156 0.015625)"/>
     <use xlink:href="#DejaVuSans-30" transform="translate(2023.798828 0.015625)"/>
     <use xlink:href="#DejaVuSans-2e" transform="translate(2087.421875 0.015625)"/>
     <use xlink:href="#DejaVuSans-32" transform="translate(2113.708984 0.015625)"/>
     <use xlink:href="#DejaVuSans-33" transform="translate(2177.332031 0.015625)"/>
     <use xlink:href="#DejaVuSans-2c" transform="translate(2240.955078 0.015625)"/>
     <use xlink:href="#DejaVuSans-20" transform="translate(2272.742188 0.015625)"/>
     <use xlink:href="#DejaVuSans-30" transform="translate(2304.529297 0.015625)"/>
     <use xlink:href="#DejaVuSans-2e" transform="translate(2368.152344 0.015625)"/>
     <use xlink:href="#DejaVuSans-35" transform="translate(2399.939453 0.015625)"/>
     <use xlink:href="#DejaVuSans-39" transform="translate(2458.0625 0.015625)"/>
     <use xlink:href="#DejaVuSans-5d" transform="translate(2521.685547 0.015625)"/>
    </g>
   </g>
   <g id="legend_1">
    <g id="patch_7">
     <path d="M 74.013125 63.195125 
L 98.013125 63.195125 
L 98.013125 54.795125 
L 74.013125 54.795125 
z
" style="fill: #fa7c17; fill-opacity: 0.25; stroke: #fa7c17; stroke-opacity: 0.25; stroke-linejoin: miter"/>
    </g>
    <g id="text_19">
     <!-- 94.0% HDI -->
     <g style="fill: #262626" transform="translate(107.613125 63.195125) scale(0.12 -0.12)">
      <defs>
       <path id="DejaVuSans-48" d="M 628 4666 
L 1259 4666 
L 1259 2753 
L 3553 2753 
L 3553 4666 
L 4184 4666 
L 4184 0 
L 3553 0 
L 3553 2222 
L 1259 2222 
L 1259 0 
L 628 0 
L 628 4666 
z
" transform="scale(0.015625)"/>
       <path id="DejaVuSans-49" d="M 628 4666 
L 1259 4666 
L 1259 0 
L 628 0 
L 628 4666 
z
" transform="scale(0.015625)"/>
      </defs>
      <use xlink:href="#DejaVuSans-39"/>
      <use xlink:href="#DejaVuSans-34" x="63.623047"/>
      <use xlink:href="#DejaVuSans-2e" x="127.246094"/>
      <use xlink:href="#DejaVuSans-30" x="159.033203"/>
      <use xlink:href="#DejaVuSans-25" x="222.65625"/>
      <use xlink:href="#DejaVuSans-20" x="317.675781"/>
      <use xlink:href="#DejaVuSans-48" x="349.462891"/>
      <use xlink:href="#DejaVuSans-44" x="424.658203"/>
      <use xlink:href="#DejaVuSans-49" x="501.660156"/>
     </g>
    </g>
    <g id="line2d_35">
     <path d="M 74.013125 76.608875 
L 86.013125 76.608875 
L 98.013125 76.608875 
" style="fill: none; stroke: #000000; stroke-width: 1.5; stroke-linecap: round"/>
    </g>
    <g id="text_20">
     <!-- Posterior mean -->
     <g style="fill: #262626" transform="translate(107.613125 80.808875) scale(0.12 -0.12)">
      <defs>
       <path id="DejaVuSans-50" d="M 1259 4147 
L 1259 2394 
L 2053 2394 
Q 2494 2394 2734 2622 
Q 2975 2850 2975 3272 
Q 2975 3691 2734 3919 
Q 2494 4147 2053 4147 
L 1259 4147 
z
M 628 4666 
L 2053 4666 
Q 2838 4666 3239 4311 
Q 3641 3956 3641 3272 
Q 3641 2581 3239 2228 
Q 2838 1875 2053 1875 
L 1259 1875 
L 1259 0 
L 628 0 
L 628 4666 
z
" transform="scale(0.015625)"/>
       <path id="DejaVuSans-6d" d="M 3328 2828 
Q 3544 3216 3844 3400 
Q 4144 3584 4550 3584 
Q 5097 3584 5394 3201 
Q 5691 2819 5691 2113 
L 5691 0 
L 5113 0 
L 5113 2094 
Q 5113 2597 4934 2840 
Q 4756 3084 4391 3084 
Q 3944 3084 3684 2787 
Q 3425 2491 3425 1978 
L 3425 0 
L 2847 0 
L 2847 2094 
Q 2847 2600 2669 2842 
Q 2491 3084 2119 3084 
Q 1678 3084 1418 2786 
Q 1159 2488 1159 1978 
L 1159 0 
L 581 0 
L 581 3500 
L 1159 3500 
L 1159 2956 
Q 1356 3278 1631 3431 
Q 1906 3584 2284 3584 
Q 2666 3584 2933 3390 
Q 3200 3197 3328 2828 
z
" transform="scale(0.015625)"/>
      </defs>
      <use xlink:href="#DejaVuSans-50"/>
      <use xlink:href="#DejaVuSans-6f" x="56.677734"/>
      <use xlink:href="#DejaVuSans-73" x="117.859375"/>
      <use xlink:href="#DejaVuSans-74" x="169.958984"/>
      <use xlink:href="#DejaVuSans-65" x="209.167969"/>
      <use xlink:href="#DejaVuSans-72" x="270.691406"/>
      <use xlink:href="#DejaVuSans-69" x="311.804688"/>
      <use xlink:href="#DejaVuSans-6f" x="339.587891"/>
      <use xlink:href="#DejaVuSans-72" x="400.769531"/>
      <use xlink:href="#DejaVuSans-20" x="441.882812"/>
      <use xlink:href="#DejaVuSans-6d" x="473.669922"/>
      <use xlink:href="#DejaVuSans-65" x="571.082031"/>
      <use xlink:href="#DejaVuSans-61" x="632.605469"/>
      <use xlink:href="#DejaVuSans-6e" x="693.884766"/>
     </g>
    </g>
    <g id="line2d_36">
     <path d="M 74.013125 94.222625 
L 86.013125 94.222625 
L 98.013125 94.222625 
" style="fill: none; stroke: #ff0000; stroke-width: 3; stroke-linecap: round"/>
    </g>
    <g id="text_21">
     <!-- treatment threshold -->
     <g style="fill: #262626" transform="translate(107.613125 98.422625) scale(0.12 -0.12)">
      <use xlink:href="#DejaVuSans-74"/>
      <use xlink:href="#DejaVuSans-72" x="39.208984"/>
      <use xlink:href="#DejaVuSans-65" x="78.072266"/>
      <use xlink:href="#DejaVuSans-61" x="139.595703"/>
      <use xlink:href="#DejaVuSans-74" x="200.875"/>
      <use xlink:href="#DejaVuSans-6d" x="240.083984"/>
      <use xlink:href="#DejaVuSans-65" x="337.496094"/>
      <use xlink:href="#DejaVuSans-6e" x="399.019531"/>
      <use xlink:href="#DejaVuSans-74" x="462.398438"/>
      <use xlink:href="#DejaVuSans-20" x="501.607422"/>
      <use xlink:href="#DejaVuSans-74" x="533.394531"/>
      <use xlink:href="#DejaVuSans-68" x="572.603516"/>
      <use xlink:href="#DejaVuSans-72" x="635.982422"/>
      <use xlink:href="#DejaVuSans-65" x="674.845703"/>
      <use xlink:href="#DejaVuSans-73" x="736.369141"/>
      <use xlink:href="#DejaVuSans-68" x="788.46875"/>
      <use xlink:href="#DejaVuSans-6f" x="851.847656"/>
      <use xlink:href="#DejaVuSans-6c" x="913.029297"/>
      <use xlink:href="#DejaVuSans-64" x="940.8125"/>
     </g>
    </g>
   </g>
  </g>
 </g>
 <defs>
  <clipPath id="pbf052d4222">
   <rect x="63.213125" y="43.277" width="455.331743" height="267.955957"/>
  </clipPath>
 </defs>
</svg>
