<?xml version="1.0" encoding="utf-8" standalone="no"?>
<!DOCTYPE svg PUBLIC "-//W3C//DTD SVG 1.1//EN"
  "http://www.w3.org/Graphics/SVG/1.1/DTD/svg11.dtd">
<svg xmlns:xlink="http://www.w3.org/1999/xlink" width="526.746263pt" height="353.99952pt" viewBox="0 0 526.746263 353.99952" xmlns="http://www.w3.org/2000/svg" version="1.1">
 <metadata>
  <rdf:RDF xmlns:dc="http://purl.org/dc/elements/1.1/" xmlns:cc="http://creativecommons.org/ns#" xmlns:rdf="http://www.w3.org/1999/02/22-rdf-syntax-ns#">
   <cc:Work>
    <dc:type rdf:resource="http://purl.org/dc/dcmitype/StillImage"/>
    <dc:date>2023-01-04T12:11:57.940011</dc:date>
    <dc:format>image/svg+xml</dc:format>
    <dc:creator>
     <cc:Agent>
      <dc:title>Matplotlib v3.6.2, https://matplotlib.org/</dc:title>
     </cc:Agent>
    </dc:creator>
   </cc:Work>
  </rdf:RDF>
 </metadata>
 <defs>
  <style type="text/css">*{stroke-linejoin: round; stroke-linecap: butt}</style>
 </defs>
 <g id="figure_1">
  <g id="patch_1">
   <path d="M 0 353.99952 
L 526.746263 353.99952 
L 526.746263 0 
L 0 0 
z
" style="fill: #ffffff"/>
  </g>
  <g id="axes_1">
   <g id="patch_2">
    <path d="M 63.213125 311.232957 
L 518.544868 311.232957 
L 518.544868 81.542 
L 63.213125 81.542 
z
" style="fill: #eeeeee"/>
   </g>
   <g id="matplotlib.axis_1">
    <g id="xtick_1">
     <g id="line2d_1">
      <path d="M 69.291804 311.232957 
L 69.291804 81.542 
" clip-path="url(#p04e9027a42)" style="fill: none; stroke: #ffffff; stroke-width: 0.8; stroke-linecap: round"/>
     </g>
     <g id="line2d_2"/>
     <g id="text_1">
      <!-- −1.00 -->
      <g style="fill: #262626" transform="translate(47.840085 325.37077) scale(0.14 -0.14)">
       <defs>
        <path id="DejaVuSans-2212" d="M 678 2272 
L 4684 2272 
L 4684 1741 
L 678 1741 
L 678 2272 
z
" transform="scale(0.015625)"/>
        <path id="DejaVuSans-31" d="M 794 531 
L 1825 531 
L 1825 4091 
L 703 3866 
L 703 4441 
L 1819 4666 
L 2450 4666 
L 2450 531 
L 3481 531 
L 3481 0 
L 794 0 
L 794 531 
z
" transform="scale(0.015625)"/>
        <path id="DejaVuSans-2e" d="M 684 794 
L 1344 794 
L 1344 0 
L 684 0 
L 684 794 
z
" transform="scale(0.015625)"/>
        <path id="DejaVuSans-30" d="M 2034 4250 
Q 1547 4250 1301 3770 
Q 1056 3291 1056 2328 
Q 1056 1369 1301 889 
Q 1547 409 2034 409 
Q 2525 409 2770 889 
Q 3016 1369 3016 2328 
Q 3016 3291 2770 3770 
Q 2525 4250 2034 4250 
z
M 2034 4750 
Q 2819 4750 3233 4129 
Q 3647 3509 3647 2328 
Q 3647 1150 3233 529 
Q 2819 -91 2034 -91 
Q 1250 -91 836 529 
Q 422 1150 422 2328 
Q 422 3509 836 4129 
Q 1250 4750 2034 4750 
z
" transform="scale(0.015625)"/>
       </defs>
       <use xlink:href="#DejaVuSans-2212"/>
       <use xlink:href="#DejaVuSans-31" x="83.789062"/>
       <use xlink:href="#DejaVuSans-2e" x="147.412109"/>
       <use xlink:href="#DejaVuSans-30" x="179.199219"/>
       <use xlink:href="#DejaVuSans-30" x="242.822266"/>
      </g>
     </g>
    </g>
    <g id="xtick_2">
     <g id="line2d_3">
      <path d="M 123.625369 311.232957 
L 123.625369 81.542 
" clip-path="url(#p04e9027a42)" style="fill: none; stroke: #ffffff; stroke-width: 0.8; stroke-linecap: round"/>
     </g>
     <g id="line2d_4"/>
     <g id="text_2">
      <!-- −0.75 -->
      <g style="fill: #262626" transform="translate(102.173651 325.37077) scale(0.14 -0.14)">
       <defs>
        <path id="DejaVuSans-37" d="M 525 4666 
L 3525 4666 
L 3525 4397 
L 1831 0 
L 1172 0 
L 2766 4134 
L 525 4134 
L 525 4666 
z
" transform="scale(0.015625)"/>
        <path id="DejaVuSans-35" d="M 691 4666 
L 3169 4666 
L 3169 4134 
L 1269 4134 
L 1269 2991 
Q 1406 3038 1543 3061 
Q 1681 3084 1819 3084 
Q 2600 3084 3056 2656 
Q 3513 2228 3513 1497 
Q 3513 744 3044 326 
Q 2575 -91 1722 -91 
Q 1428 -91 1123 -41 
Q 819 9 494 109 
L 494 744 
Q 775 591 1075 516 
Q 1375 441 1709 441 
Q 2250 441 2565 725 
Q 2881 1009 2881 1497 
Q 2881 1984 2565 2268 
Q 2250 2553 1709 2553 
Q 1456 2553 1204 2497 
Q 953 2441 691 2322 
L 691 4666 
z
" transform="scale(0.015625)"/>
       </defs>
       <use xlink:href="#DejaVuSans-2212"/>
       <use xlink:href="#DejaVuSans-30" x="83.789062"/>
       <use xlink:href="#DejaVuSans-2e" x="147.412109"/>
       <use xlink:href="#DejaVuSans-37" x="179.199219"/>
       <use xlink:href="#DejaVuSans-35" x="242.822266"/>
      </g>
     </g>
    </g>
    <g id="xtick_3">
     <g id="line2d_5">
      <path d="M 177.958935 311.232957 
L 177.958935 81.542 
" clip-path="url(#p04e9027a42)" style="fill: none; stroke: #ffffff; stroke-width: 0.8; stroke-linecap: round"/>
     </g>
     <g id="line2d_6"/>
     <g id="text_3">
      <!-- −0.50 -->
      <g style="fill: #262626" transform="translate(156.507216 325.37077) scale(0.14 -0.14)">
       <use xlink:href="#DejaVuSans-2212"/>
       <use xlink:href="#DejaVuSans-30" x="83.789062"/>
       <use xlink:href="#DejaVuSans-2e" x="147.412109"/>
       <use xlink:href="#DejaVuSans-35" x="179.199219"/>
       <use xlink:href="#DejaVuSans-30" x="242.822266"/>
      </g>
     </g>
    </g>
    <g id="xtick_4">
     <g id="line2d_7">
      <path d="M 232.2925 311.232957 
L 232.2925 81.542 
" clip-path="url(#p04e9027a42)" style="fill: none; stroke: #ffffff; stroke-width: 0.8; stroke-linecap: round"/>
     </g>
     <g id="line2d_8"/>
     <g id="text_4">
      <!-- −0.25 -->
      <g style="fill: #262626" transform="translate(210.840781 325.37077) scale(0.14 -0.14)">
       <defs>
        <path id="DejaVuSans-32" d="M 1228 531 
L 3431 531 
L 3431 0 
L 469 0 
L 469 531 
Q 828 903 1448 1529 
Q 2069 2156 2228 2338 
Q 2531 2678 2651 2914 
Q 2772 3150 2772 3378 
Q 2772 3750 2511 3984 
Q 2250 4219 1831 4219 
Q 1534 4219 1204 4116 
Q 875 4013 500 3803 
L 500 4441 
Q 881 4594 1212 4672 
Q 1544 4750 1819 4750 
Q 2544 4750 2975 4387 
Q 3406 4025 3406 3419 
Q 3406 3131 3298 2873 
Q 3191 2616 2906 2266 
Q 2828 2175 2409 1742 
Q 1991 1309 1228 531 
z
" transform="scale(0.015625)"/>
       </defs>
       <use xlink:href="#DejaVuSans-2212"/>
       <use xlink:href="#DejaVuSans-30" x="83.789062"/>
       <use xlink:href="#DejaVuSans-2e" x="147.412109"/>
       <use xlink:href="#DejaVuSans-32" x="179.199219"/>
       <use xlink:href="#DejaVuSans-35" x="242.822266"/>
      </g>
     </g>
    </g>
    <g id="xtick_5">
     <g id="line2d_9">
      <path d="M 286.626065 311.232957 
L 286.626065 81.542 
" clip-path="url(#p04e9027a42)" style="fill: none; stroke: #ffffff; stroke-width: 0.8; stroke-linecap: round"/>
     </g>
     <g id="line2d_10"/>
     <g id="text_5">
      <!-- 0.00 -->
      <g style="fill: #262626" transform="translate(271.040128 325.37077) scale(0.14 -0.14)">
       <use xlink:href="#DejaVuSans-30"/>
       <use xlink:href="#DejaVuSans-2e" x="63.623047"/>
       <use xlink:href="#DejaVuSans-30" x="95.410156"/>
       <use xlink:href="#DejaVuSans-30" x="159.033203"/>
      </g>
     </g>
    </g>
    <g id="xtick_6">
     <g id="line2d_11">
      <path d="M 340.95963 311.232957 
L 340.95963 81.542 
" clip-path="url(#p04e9027a42)" style="fill: none; stroke: #ffffff; stroke-width: 0.8; stroke-linecap: round"/>
     </g>
     <g id="line2d_12"/>
     <g id="text_6">
      <!-- 0.25 -->
      <g style="fill: #262626" transform="translate(325.373693 325.37077) scale(0.14 -0.14)">
       <use xlink:href="#DejaVuSans-30"/>
       <use xlink:href="#DejaVuSans-2e" x="63.623047"/>
       <use xlink:href="#DejaVuSans-32" x="95.410156"/>
       <use xlink:href="#DejaVuSans-35" x="159.033203"/>
      </g>
     </g>
    </g>
    <g id="xtick_7">
     <g id="line2d_13">
      <path d="M 395.293195 311.232957 
L 395.293195 81.542 
" clip-path="url(#p04e9027a42)" style="fill: none; stroke: #ffffff; stroke-width: 0.8; stroke-linecap: round"/>
     </g>
     <g id="line2d_14"/>
     <g id="text_7">
      <!-- 0.50 -->
      <g style="fill: #262626" transform="translate(379.707258 325.37077) scale(0.14 -0.14)">
       <use xlink:href="#DejaVuSans-30"/>
       <use xlink:href="#DejaVuSans-2e" x="63.623047"/>
       <use xlink:href="#DejaVuSans-35" x="95.410156"/>
       <use xlink:href="#DejaVuSans-30" x="159.033203"/>
      </g>
     </g>
    </g>
    <g id="xtick_8">
     <g id="line2d_15">
      <path d="M 449.626761 311.232957 
L 449.626761 81.542 
" clip-path="url(#p04e9027a42)" style="fill: none; stroke: #ffffff; stroke-width: 0.8; stroke-linecap: round"/>
     </g>
     <g id="line2d_16"/>
     <g id="text_8">
      <!-- 0.75 -->
      <g style="fill: #262626" transform="translate(434.040823 325.37077) scale(0.14 -0.14)">
       <use xlink:href="#DejaVuSans-30"/>
       <use xlink:href="#DejaVuSans-2e" x="63.623047"/>
       <use xlink:href="#DejaVuSans-37" x="95.410156"/>
       <use xlink:href="#DejaVuSans-35" x="159.033203"/>
      </g>
     </g>
    </g>
    <g id="xtick_9">
     <g id="line2d_17">
      <path d="M 503.960326 311.232957 
L 503.960326 81.542 
" clip-path="url(#p04e9027a42)" style="fill: none; stroke: #ffffff; stroke-width: 0.8; stroke-linecap: round"/>
     </g>
     <g id="line2d_18"/>
     <g id="text_9">
      <!-- 1.00 -->
      <g style="fill: #262626" transform="translate(488.374388 325.37077) scale(0.14 -0.14)">
       <use xlink:href="#DejaVuSans-31"/>
       <use xlink:href="#DejaVuSans-2e" x="63.623047"/>
       <use xlink:href="#DejaVuSans-30" x="95.410156"/>
       <use xlink:href="#DejaVuSans-30" x="159.033203"/>
      </g>
     </g>
    </g>
    <g id="text_10">
     <!-- x -->
     <g style="fill: #262626" transform="translate(286.439934 343.679989) scale(0.15 -0.15)">
      <defs>
       <path id="DejaVuSans-78" d="M 3513 3500 
L 2247 1797 
L 3578 0 
L 2900 0 
L 1881 1375 
L 863 0 
L 184 0 
L 1544 1831 
L 300 3500 
L 978 3500 
L 1906 2253 
L 2834 3500 
L 3513 3500 
z
" transform="scale(0.015625)"/>
      </defs>
      <use xlink:href="#DejaVuSans-78"/>
     </g>
    </g>
   </g>
   <g id="matplotlib.axis_2">
    <g id="ytick_1">
     <g id="line2d_19">
      <path d="M 63.213125 291.197166 
L 518.544868 291.197166 
" clip-path="url(#p04e9027a42)" style="fill: none; stroke: #ffffff; stroke-width: 0.8; stroke-linecap: round"/>
     </g>
     <g id="line2d_20"/>
     <g id="text_11">
      <!-- −1.0 -->
      <g style="fill: #262626" transform="translate(25.717188 296.516072) scale(0.14 -0.14)">
       <use xlink:href="#DejaVuSans-2212"/>
       <use xlink:href="#DejaVuSans-31" x="83.789062"/>
       <use xlink:href="#DejaVuSans-2e" x="147.412109"/>
       <use xlink:href="#DejaVuSans-30" x="179.199219"/>
      </g>
     </g>
    </g>
    <g id="ytick_2">
     <g id="line2d_21">
      <path d="M 63.213125 252.243497 
L 518.544868 252.243497 
" clip-path="url(#p04e9027a42)" style="fill: none; stroke: #ffffff; stroke-width: 0.8; stroke-linecap: round"/>
     </g>
     <g id="line2d_22"/>
     <g id="text_12">
      <!-- −0.5 -->
      <g style="fill: #262626" transform="translate(25.717188 257.562403) scale(0.14 -0.14)">
       <use xlink:href="#DejaVuSans-2212"/>
       <use xlink:href="#DejaVuSans-30" x="83.789062"/>
       <use xlink:href="#DejaVuSans-2e" x="147.412109"/>
       <use xlink:href="#DejaVuSans-35" x="179.199219"/>
      </g>
     </g>
    </g>
    <g id="ytick_3">
     <g id="line2d_23">
      <path d="M 63.213125 213.289828 
L 518.544868 213.289828 
" clip-path="url(#p04e9027a42)" style="fill: none; stroke: #ffffff; stroke-width: 0.8; stroke-linecap: round"/>
     </g>
     <g id="line2d_24"/>
     <g id="text_13">
      <!-- 0.0 -->
      <g style="fill: #262626" transform="translate(37.44875 218.608734) scale(0.14 -0.14)">
       <use xlink:href="#DejaVuSans-30"/>
       <use xlink:href="#DejaVuSans-2e" x="63.623047"/>
       <use xlink:href="#DejaVuSans-30" x="95.410156"/>
      </g>
     </g>
    </g>
    <g id="ytick_4">
     <g id="line2d_25">
      <path d="M 63.213125 174.336159 
L 518.544868 174.336159 
" clip-path="url(#p04e9027a42)" style="fill: none; stroke: #ffffff; stroke-width: 0.8; stroke-linecap: round"/>
     </g>
     <g id="line2d_26"/>
     <g id="text_14">
      <!-- 0.5 -->
      <g style="fill: #262626" transform="translate(37.44875 179.655065) scale(0.14 -0.14)">
       <use xlink:href="#DejaVuSans-30"/>
       <use xlink:href="#DejaVuSans-2e" x="63.623047"/>
       <use xlink:href="#DejaVuSans-35" x="95.410156"/>
      </g>
     </g>
    </g>
    <g id="ytick_5">
     <g id="line2d_27">
      <path d="M 63.213125 135.38249 
L 518.544868 135.38249 
" clip-path="url(#p04e9027a42)" style="fill: none; stroke: #ffffff; stroke-width: 0.8; stroke-linecap: round"/>
     </g>
     <g id="line2d_28"/>
     <g id="text_15">
      <!-- 1.0 -->
      <g style="fill: #262626" transform="translate(37.44875 140.701396) scale(0.14 -0.14)">
       <use xlink:href="#DejaVuSans-31"/>
       <use xlink:href="#DejaVuSans-2e" x="63.623047"/>
       <use xlink:href="#DejaVuSans-30" x="95.410156"/>
      </g>
     </g>
    </g>
    <g id="ytick_6">
     <g id="line2d_29">
      <path d="M 63.213125 96.428821 
L 518.544868 96.428821 
" clip-path="url(#p04e9027a42)" style="fill: none; stroke: #ffffff; stroke-width: 0.8; stroke-linecap: round"/>
     </g>
     <g id="line2d_30"/>
     <g id="text_16">
      <!-- 1.5 -->
      <g style="fill: #262626" transform="translate(37.44875 101.747727) scale(0.14 -0.14)">
       <use xlink:href="#DejaVuSans-31"/>
       <use xlink:href="#DejaVuSans-2e" x="63.623047"/>
       <use xlink:href="#DejaVuSans-35" x="95.410156"/>
      </g>
     </g>
    </g>
    <g id="text_17">
     <!-- y -->
     <g style="fill: #262626" transform="translate(18.597656 200.826541) rotate(-90) scale(0.15 -0.15)">
      <defs>
       <path id="DejaVuSans-79" d="M 2059 -325 
Q 1816 -950 1584 -1140 
Q 1353 -1331 966 -1331 
L 506 -1331 
L 506 -850 
L 844 -850 
Q 1081 -850 1212 -737 
Q 1344 -625 1503 -206 
L 1606 56 
L 191 3500 
L 800 3500 
L 1894 763 
L 2988 3500 
L 3597 3500 
L 2059 -325 
z
" transform="scale(0.015625)"/>
      </defs>
      <use xlink:href="#DejaVuSans-79"/>
     </g>
    </g>
   </g>
   <g id="PathCollection_1">
    <defs>
     <path id="m75c1fd8807" d="M 0 3 
C 0.795609 3 1.55874 2.683901 2.12132 2.12132 
C 2.683901 1.55874 3 0.795609 3 0 
C 3 -0.795609 2.683901 -1.55874 2.12132 -2.12132 
C 1.55874 -2.683901 0.795609 -3 0 -3 
C -0.795609 -3 -1.55874 -2.683901 -2.12132 -2.12132 
C -2.683901 -1.55874 -3 -0.795609 -3 0 
C -3 0.795609 -2.683901 1.55874 -2.12132 2.12132 
C -1.55874 2.683901 -0.795609 3 0 3 
z
" style="stroke: #ffffff; stroke-width: 0.48"/>
    </defs>
    <g clip-path="url(#p04e9027a42)">
     <use xlink:href="#m75c1fd8807" x="83.910022" y="220.451006" style="stroke: #ffffff; stroke-width: 0.48"/>
     <use xlink:href="#m75c1fd8807" x="84.336022" y="243.10211" style="stroke: #ffffff; stroke-width: 0.48"/>
     <use xlink:href="#m75c1fd8807" x="84.69857" y="227.452295" style="stroke: #ffffff; stroke-width: 0.48"/>
     <use xlink:href="#m75c1fd8807" x="89.412792" y="235.746225" style="stroke: #ffffff; stroke-width: 0.48"/>
     <use xlink:href="#m75c1fd8807" x="94.835298" y="246.074055" style="stroke: #ffffff; stroke-width: 0.48"/>
     <use xlink:href="#m75c1fd8807" x="94.920755" y="256.523852" style="stroke: #ffffff; stroke-width: 0.48"/>
     <use xlink:href="#m75c1fd8807" x="105.526504" y="257.40271" style="stroke: #ffffff; stroke-width: 0.48"/>
     <use xlink:href="#m75c1fd8807" x="107.174569" y="250.983189" style="stroke: #ffffff; stroke-width: 0.48"/>
     <use xlink:href="#m75c1fd8807" x="112.222407" y="251.057445" style="stroke: #ffffff; stroke-width: 0.48"/>
     <use xlink:href="#m75c1fd8807" x="114.768501" y="268.428576" style="stroke: #ffffff; stroke-width: 0.48"/>
     <use xlink:href="#m75c1fd8807" x="117.423734" y="270.744253" style="stroke: #ffffff; stroke-width: 0.48"/>
     <use xlink:href="#m75c1fd8807" x="125.295493" y="263.797433" style="stroke: #ffffff; stroke-width: 0.48"/>
     <use xlink:href="#m75c1fd8807" x="141.833089" y="278.169352" style="stroke: #ffffff; stroke-width: 0.48"/>
     <use xlink:href="#m75c1fd8807" x="141.9756" y="291.119028" style="stroke: #ffffff; stroke-width: 0.48"/>
     <use xlink:href="#m75c1fd8807" x="145.162711" y="298.847784" style="stroke: #ffffff; stroke-width: 0.48"/>
     <use xlink:href="#m75c1fd8807" x="145.509225" y="285.655028" style="stroke: #ffffff; stroke-width: 0.48"/>
     <use xlink:href="#m75c1fd8807" x="147.059173" y="290.727412" style="stroke: #ffffff; stroke-width: 0.48"/>
     <use xlink:href="#m75c1fd8807" x="147.299032" y="282.827425" style="stroke: #ffffff; stroke-width: 0.48"/>
     <use xlink:href="#m75c1fd8807" x="149.509041" y="300.792459" style="stroke: #ffffff; stroke-width: 0.48"/>
     <use xlink:href="#m75c1fd8807" x="159.417963" y="280.169793" style="stroke: #ffffff; stroke-width: 0.48"/>
     <use xlink:href="#m75c1fd8807" x="163.564673" y="283.331886" style="stroke: #ffffff; stroke-width: 0.48"/>
     <use xlink:href="#m75c1fd8807" x="168.797623" y="282.740494" style="stroke: #ffffff; stroke-width: 0.48"/>
     <use xlink:href="#m75c1fd8807" x="170.455346" y="272.320037" style="stroke: #ffffff; stroke-width: 0.48"/>
     <use xlink:href="#m75c1fd8807" x="172.701312" y="276.704781" style="stroke: #ffffff; stroke-width: 0.48"/>
     <use xlink:href="#m75c1fd8807" x="188.833339" y="283.464718" style="stroke: #ffffff; stroke-width: 0.48"/>
     <use xlink:href="#m75c1fd8807" x="194.379694" y="295.478951" style="stroke: #ffffff; stroke-width: 0.48"/>
     <use xlink:href="#m75c1fd8807" x="195.102613" y="289.327972" style="stroke: #ffffff; stroke-width: 0.48"/>
     <use xlink:href="#m75c1fd8807" x="203.349595" y="284.215445" style="stroke: #ffffff; stroke-width: 0.48"/>
     <use xlink:href="#m75c1fd8807" x="205.405779" y="291.599492" style="stroke: #ffffff; stroke-width: 0.48"/>
     <use xlink:href="#m75c1fd8807" x="208.282416" y="286.302011" style="stroke: #ffffff; stroke-width: 0.48"/>
     <use xlink:href="#m75c1fd8807" x="208.871219" y="294.436307" style="stroke: #ffffff; stroke-width: 0.48"/>
     <use xlink:href="#m75c1fd8807" x="210.295392" y="273.73857" style="stroke: #ffffff; stroke-width: 0.48"/>
     <use xlink:href="#m75c1fd8807" x="211.069273" y="274.464569" style="stroke: #ffffff; stroke-width: 0.48"/>
     <use xlink:href="#m75c1fd8807" x="211.748993" y="270.203226" style="stroke: #ffffff; stroke-width: 0.48"/>
     <use xlink:href="#m75c1fd8807" x="216.562155" y="275.128277" style="stroke: #ffffff; stroke-width: 0.48"/>
     <use xlink:href="#m75c1fd8807" x="230.422528" y="267.486473" style="stroke: #ffffff; stroke-width: 0.48"/>
     <use xlink:href="#m75c1fd8807" x="235.037652" y="271.69331" style="stroke: #ffffff; stroke-width: 0.48"/>
     <use xlink:href="#m75c1fd8807" x="239.493093" y="248.112839" style="stroke: #ffffff; stroke-width: 0.48"/>
     <use xlink:href="#m75c1fd8807" x="243.175218" y="253.260906" style="stroke: #ffffff; stroke-width: 0.48"/>
     <use xlink:href="#m75c1fd8807" x="245.068273" y="259.233951" style="stroke: #ffffff; stroke-width: 0.48"/>
     <use xlink:href="#m75c1fd8807" x="249.100659" y="258.058803" style="stroke: #ffffff; stroke-width: 0.48"/>
     <use xlink:href="#m75c1fd8807" x="258.305684" y="242.52393" style="stroke: #ffffff; stroke-width: 0.48"/>
     <use xlink:href="#m75c1fd8807" x="262.182011" y="233.555325" style="stroke: #ffffff; stroke-width: 0.48"/>
     <use xlink:href="#m75c1fd8807" x="266.093358" y="242.890553" style="stroke: #ffffff; stroke-width: 0.48"/>
     <use xlink:href="#m75c1fd8807" x="266.798071" y="249.339396" style="stroke: #ffffff; stroke-width: 0.48"/>
     <use xlink:href="#m75c1fd8807" x="269.087997" y="226.845699" style="stroke: #ffffff; stroke-width: 0.48"/>
     <use xlink:href="#m75c1fd8807" x="281.112906" y="217.113314" style="stroke: #ffffff; stroke-width: 0.48"/>
     <use xlink:href="#m75c1fd8807" x="284.936083" y="221.978861" style="stroke: #ffffff; stroke-width: 0.48"/>
     <use xlink:href="#m75c1fd8807" x="286.235929" y="223.405558" style="stroke: #ffffff; stroke-width: 0.48"/>
     <use xlink:href="#m75c1fd8807" x="289.454876" y="220.843751" style="stroke: #ffffff; stroke-width: 0.48"/>
     <use xlink:href="#m75c1fd8807" x="289.523467" y="223.795795" style="stroke: #ffffff; stroke-width: 0.48"/>
     <use xlink:href="#m75c1fd8807" x="299.076053" y="203.866479" style="stroke: #ffffff; stroke-width: 0.48"/>
     <use xlink:href="#m75c1fd8807" x="301.144193" y="205.647467" style="stroke: #ffffff; stroke-width: 0.48"/>
     <use xlink:href="#m75c1fd8807" x="304.354028" y="189.121153" style="stroke: #ffffff; stroke-width: 0.48"/>
     <use xlink:href="#m75c1fd8807" x="310.233288" y="185.133308" style="stroke: #ffffff; stroke-width: 0.48"/>
     <use xlink:href="#m75c1fd8807" x="310.81556" y="188.268672" style="stroke: #ffffff; stroke-width: 0.48"/>
     <use xlink:href="#m75c1fd8807" x="316.333421" y="174.962375" style="stroke: #ffffff; stroke-width: 0.48"/>
     <use xlink:href="#m75c1fd8807" x="326.15288" y="168.521351" style="stroke: #ffffff; stroke-width: 0.48"/>
     <use xlink:href="#m75c1fd8807" x="329.473717" y="160.719708" style="stroke: #ffffff; stroke-width: 0.48"/>
     <use xlink:href="#m75c1fd8807" x="345.717135" y="141.808494" style="stroke: #ffffff; stroke-width: 0.48"/>
     <use xlink:href="#m75c1fd8807" x="345.912491" y="146.109103" style="stroke: #ffffff; stroke-width: 0.48"/>
     <use xlink:href="#m75c1fd8807" x="348.40895" y="162.261094" style="stroke: #ffffff; stroke-width: 0.48"/>
     <use xlink:href="#m75c1fd8807" x="350.254007" y="162.644711" style="stroke: #ffffff; stroke-width: 0.48"/>
     <use xlink:href="#m75c1fd8807" x="350.642973" y="151.317185" style="stroke: #ffffff; stroke-width: 0.48"/>
     <use xlink:href="#m75c1fd8807" x="361.213638" y="153.82437" style="stroke: #ffffff; stroke-width: 0.48"/>
     <use xlink:href="#m75c1fd8807" x="363.251157" y="152.951864" style="stroke: #ffffff; stroke-width: 0.48"/>
     <use xlink:href="#m75c1fd8807" x="365.881418" y="137.738526" style="stroke: #ffffff; stroke-width: 0.48"/>
     <use xlink:href="#m75c1fd8807" x="366.74208" y="164.459106" style="stroke: #ffffff; stroke-width: 0.48"/>
     <use xlink:href="#m75c1fd8807" x="370.659001" y="140.80118" style="stroke: #ffffff; stroke-width: 0.48"/>
     <use xlink:href="#m75c1fd8807" x="377.968914" y="136.436941" style="stroke: #ffffff; stroke-width: 0.48"/>
     <use xlink:href="#m75c1fd8807" x="382.373811" y="133.866929" style="stroke: #ffffff; stroke-width: 0.48"/>
     <use xlink:href="#m75c1fd8807" x="384.627721" y="133.184789" style="stroke: #ffffff; stroke-width: 0.48"/>
     <use xlink:href="#m75c1fd8807" x="384.895427" y="140.140302" style="stroke: #ffffff; stroke-width: 0.48"/>
     <use xlink:href="#m75c1fd8807" x="385.076865" y="145.057191" style="stroke: #ffffff; stroke-width: 0.48"/>
     <use xlink:href="#m75c1fd8807" x="392.383214" y="129.772861" style="stroke: #ffffff; stroke-width: 0.48"/>
     <use xlink:href="#m75c1fd8807" x="408.505902" y="100.057353" style="stroke: #ffffff; stroke-width: 0.48"/>
     <use xlink:href="#m75c1fd8807" x="414.78928" y="101.175408" style="stroke: #ffffff; stroke-width: 0.48"/>
     <use xlink:href="#m75c1fd8807" x="418.379741" y="111.814891" style="stroke: #ffffff; stroke-width: 0.48"/>
     <use xlink:href="#m75c1fd8807" x="423.312125" y="104.456412" style="stroke: #ffffff; stroke-width: 0.48"/>
     <use xlink:href="#m75c1fd8807" x="424.220592" y="108.036385" style="stroke: #ffffff; stroke-width: 0.48"/>
     <use xlink:href="#m75c1fd8807" x="427.130787" y="100.90048" style="stroke: #ffffff; stroke-width: 0.48"/>
     <use xlink:href="#m75c1fd8807" x="428.394188" y="107.007225" style="stroke: #ffffff; stroke-width: 0.48"/>
     <use xlink:href="#m75c1fd8807" x="431.732798" y="115.819252" style="stroke: #ffffff; stroke-width: 0.48"/>
     <use xlink:href="#m75c1fd8807" x="432.894093" y="97.974053" style="stroke: #ffffff; stroke-width: 0.48"/>
     <use xlink:href="#m75c1fd8807" x="433.879567" y="97.905976" style="stroke: #ffffff; stroke-width: 0.48"/>
     <use xlink:href="#m75c1fd8807" x="438.591916" y="104.596185" style="stroke: #ffffff; stroke-width: 0.48"/>
     <use xlink:href="#m75c1fd8807" x="441.61939" y="107.694725" style="stroke: #ffffff; stroke-width: 0.48"/>
     <use xlink:href="#m75c1fd8807" x="445.959405" y="108.597745" style="stroke: #ffffff; stroke-width: 0.48"/>
     <use xlink:href="#m75c1fd8807" x="454.085761" y="115.420671" style="stroke: #ffffff; stroke-width: 0.48"/>
     <use xlink:href="#m75c1fd8807" x="454.160468" y="111.713307" style="stroke: #ffffff; stroke-width: 0.48"/>
     <use xlink:href="#m75c1fd8807" x="464.439127" y="118.185362" style="stroke: #ffffff; stroke-width: 0.48"/>
     <use xlink:href="#m75c1fd8807" x="464.787074" y="130.713465" style="stroke: #ffffff; stroke-width: 0.48"/>
     <use xlink:href="#m75c1fd8807" x="477.548688" y="141.869917" style="stroke: #ffffff; stroke-width: 0.48"/>
     <use xlink:href="#m75c1fd8807" x="480.628972" y="136.918758" style="stroke: #ffffff; stroke-width: 0.48"/>
     <use xlink:href="#m75c1fd8807" x="480.649141" y="138.728722" style="stroke: #ffffff; stroke-width: 0.48"/>
     <use xlink:href="#m75c1fd8807" x="483.017451" y="145.217243" style="stroke: #ffffff; stroke-width: 0.48"/>
     <use xlink:href="#m75c1fd8807" x="489.376035" y="154.964217" style="stroke: #ffffff; stroke-width: 0.48"/>
     <use xlink:href="#m75c1fd8807" x="493.102116" y="142.600554" style="stroke: #ffffff; stroke-width: 0.48"/>
     <use xlink:href="#m75c1fd8807" x="496.132545" y="150.999882" style="stroke: #ffffff; stroke-width: 0.48"/>
     <use xlink:href="#m75c1fd8807" x="497.847971" y="155.654733" style="stroke: #ffffff; stroke-width: 0.48"/>
    </g>
   </g>
   <g id="PolyCollection_1">
    <defs>
     <path id="m9df4125e9e" d="M 83.910022 -130.012572 
L 83.910022 -116.33028 
L 85.990113 -113.719874 
L 88.070203 -111.72818 
L 90.150293 -109.414886 
L 92.230383 -107.62623 
L 94.310473 -105.606052 
L 96.390564 -103.712598 
L 98.470654 -101.492165 
L 100.550744 -99.164065 
L 102.630834 -97.1209 
L 104.710924 -95.164451 
L 106.791015 -93.203187 
L 108.871105 -90.933636 
L 110.951195 -89.009306 
L 113.031285 -87.036155 
L 115.111375 -85.09485 
L 117.191466 -83.299959 
L 119.271556 -81.640319 
L 121.351646 -79.842296 
L 123.431736 -78.321312 
L 125.511826 -76.961472 
L 127.591917 -75.684719 
L 129.672007 -74.369755 
L 131.752097 -72.950028 
L 133.832187 -71.748779 
L 135.912277 -70.610882 
L 137.992367 -69.318501 
L 140.072458 -68.261791 
L 142.152548 -67.6184 
L 144.232638 -66.7842 
L 146.312728 -65.979935 
L 148.392818 -65.128144 
L 150.472909 -64.472677 
L 152.552999 -63.883698 
L 154.633089 -63.336169 
L 156.713179 -62.680379 
L 158.793269 -62.602026 
L 160.87336 -62.001809 
L 162.95345 -61.69778 
L 165.03354 -61.406625 
L 167.11363 -61.377901 
L 169.19372 -61.338403 
L 171.273811 -61.11953 
L 173.353901 -61.028681 
L 175.433991 -61.004256 
L 177.514081 -61.054677 
L 179.594171 -61.114189 
L 181.674262 -61.187626 
L 183.754352 -61.5148 
L 185.834442 -61.655179 
L 187.914532 -61.957826 
L 189.994622 -62.499738 
L 192.074713 -62.916989 
L 194.154803 -63.500075 
L 196.234893 -64.148722 
L 198.314983 -64.782579 
L 200.395073 -65.472838 
L 202.475163 -66.419735 
L 204.555254 -67.344194 
L 206.635344 -68.34091 
L 208.715434 -69.171039 
L 210.795524 -70.521961 
L 212.875614 -71.70253 
L 214.955705 -72.952216 
L 217.035795 -73.917615 
L 219.115885 -75.232006 
L 221.195975 -76.604031 
L 223.276065 -78.166194 
L 225.356156 -79.502198 
L 227.436246 -81.015849 
L 229.516336 -82.695045 
L 231.596426 -84.158042 
L 233.676516 -85.89021 
L 235.756607 -87.354254 
L 237.836697 -89.276229 
L 239.916787 -90.799182 
L 241.996877 -92.623014 
L 244.076967 -94.381403 
L 246.157058 -96.323745 
L 248.237148 -97.974155 
L 250.317238 -99.915294 
L 252.397328 -101.697878 
L 254.477418 -103.604818 
L 256.557509 -105.477309 
L 258.637599 -107.303585 
L 260.717689 -109.339219 
L 262.797779 -111.297282 
L 264.877869 -113.299901 
L 266.957959 -115.198233 
L 269.03805 -117.060742 
L 271.11814 -119.263452 
L 273.19823 -121.259172 
L 275.27832 -123.411948 
L 277.35841 -125.432392 
L 279.438501 -127.401114 
L 281.518591 -129.469502 
L 283.598681 -131.506963 
L 285.678771 -133.688119 
L 287.758861 -135.848113 
L 289.838952 -138.030752 
L 291.919042 -140.104633 
L 293.999132 -142.204893 
L 296.079222 -144.427843 
L 298.159312 -146.503463 
L 300.239403 -148.658757 
L 302.319493 -150.826694 
L 304.399583 -153.006359 
L 306.479673 -155.086616 
L 308.559763 -157.245143 
L 310.639854 -159.535333 
L 312.719944 -161.578712 
L 314.800034 -163.902528 
L 316.880124 -165.796107 
L 318.960214 -167.920081 
L 321.040305 -170.045179 
L 323.120395 -172.011874 
L 325.200485 -174.103864 
L 327.280575 -175.876891 
L 329.360665 -177.76792 
L 331.440756 -179.552797 
L 333.520846 -181.653816 
L 335.600936 -183.514408 
L 337.681026 -185.345467 
L 339.761116 -187.180375 
L 341.841206 -188.724115 
L 343.921297 -190.368195 
L 346.001387 -192.146093 
L 348.081477 -193.9031 
L 350.161567 -195.39762 
L 352.241657 -196.779971 
L 354.321748 -198.204865 
L 356.401838 -199.727343 
L 358.481928 -201.194217 
L 360.562018 -202.470373 
L 362.642108 -203.810132 
L 364.722199 -205.171606 
L 366.802289 -206.367104 
L 368.882379 -207.453809 
L 370.962469 -208.281574 
L 373.042559 -209.085554 
L 375.12265 -210.194157 
L 377.20274 -210.992678 
L 379.28283 -211.682159 
L 381.36292 -212.296313 
L 383.44301 -213.191234 
L 385.523101 -213.614511 
L 387.603191 -213.763013 
L 389.683281 -214.644167 
L 391.763371 -214.998193 
L 393.843461 -215.25021 
L 395.923552 -242.835141 
L 398.003642 -243.575886 
L 400.083732 -244.275474 
L 402.163822 -244.844332 
L 404.243912 -245.447359 
L 406.324002 -245.424278 
L 408.404093 -246.7475 
L 410.484183 -247.278608 
L 412.564273 -247.308122 
L 414.644363 -247.130272 
L 416.724453 -247.140533 
L 418.804544 -247.166682 
L 420.884634 -246.846321 
L 422.964724 -246.931203 
L 425.044814 -246.63132 
L 427.124904 -246.190982 
L 429.204995 -245.65918 
L 431.285085 -244.780201 
L 433.365175 -243.976889 
L 435.445265 -242.992876 
L 437.525355 -242.136748 
L 439.605446 -241.163718 
L 441.685536 -240.159811 
L 443.765626 -238.738779 
L 445.845716 -237.739249 
L 447.925806 -236.418844 
L 450.005897 -235.068694 
L 452.085987 -233.537656 
L 454.166077 -232.216289 
L 456.246167 -230.460371 
L 458.326257 -228.760117 
L 460.406348 -227.299986 
L 462.486438 -225.631579 
L 464.566528 -224.017137 
L 466.646618 -222.491921 
L 468.726708 -221.067225 
L 470.806798 -219.311044 
L 472.886889 -217.656038 
L 474.966979 -215.82696 
L 477.047069 -214.357069 
L 479.127159 -212.507084 
L 481.207249 -210.439246 
L 483.28734 -208.586106 
L 485.36743 -206.458959 
L 487.44752 -204.448703 
L 489.52761 -202.150968 
L 491.6077 -199.248183 
L 493.687791 -196.366762 
L 495.767881 -193.501688 
L 497.847971 -190.416044 
L 497.847971 -206.933218 
L 497.847971 -206.933218 
L 495.767881 -208.189914 
L 493.687791 -209.52697 
L 491.6077 -211.087752 
L 489.52761 -212.936404 
L 487.44752 -214.424287 
L 485.36743 -215.872184 
L 483.28734 -217.726666 
L 481.207249 -219.58235 
L 479.127159 -221.751805 
L 477.047069 -223.662747 
L 474.966979 -225.30807 
L 472.886889 -227.334619 
L 470.806798 -229.129459 
L 468.726708 -231.052012 
L 466.646618 -232.535834 
L 464.566528 -234.089107 
L 462.486438 -235.66004 
L 460.406348 -237.225443 
L 458.326257 -238.541813 
L 456.246167 -240.077662 
L 454.166077 -241.6019 
L 452.085987 -242.736263 
L 450.005897 -244.021807 
L 447.925806 -245.066003 
L 445.845716 -246.120107 
L 443.765626 -246.919185 
L 441.685536 -248.076108 
L 439.605446 -248.829552 
L 437.525355 -249.650892 
L 435.445265 -250.502553 
L 433.365175 -251.494301 
L 431.285085 -252.335659 
L 429.204995 -253.367156 
L 427.124904 -254.257815 
L 425.044814 -255.132304 
L 422.964724 -255.945462 
L 420.884634 -256.519816 
L 418.804544 -257.479965 
L 416.724453 -258.25903 
L 414.644363 -259.074055 
L 412.564273 -260.035832 
L 410.484183 -260.817549 
L 408.404093 -261.128575 
L 406.324002 -260.712885 
L 404.243912 -261.537964 
L 402.163822 -261.721945 
L 400.083732 -261.906132 
L 398.003642 -261.977094 
L 395.923552 -262.017022 
L 393.843461 -226.400517 
L 391.763371 -225.790933 
L 389.683281 -225.022663 
L 387.603191 -223.746015 
L 385.523101 -223.30552 
L 383.44301 -222.569952 
L 381.36292 -221.338899 
L 379.28283 -220.467164 
L 377.20274 -219.495882 
L 375.12265 -218.500579 
L 373.042559 -217.217295 
L 370.962469 -216.216981 
L 368.882379 -215.234637 
L 366.802289 -213.991553 
L 364.722199 -212.65203 
L 362.642108 -211.180615 
L 360.562018 -209.723025 
L 358.481928 -208.302488 
L 356.401838 -206.741154 
L 354.321748 -205.098969 
L 352.241657 -203.559371 
L 350.161567 -202.087911 
L 348.081477 -200.568709 
L 346.001387 -198.745971 
L 343.921297 -196.890113 
L 341.841206 -195.225531 
L 339.761116 -193.650701 
L 337.681026 -191.783121 
L 335.600936 -189.950636 
L 333.520846 -188.098302 
L 331.440756 -185.976811 
L 329.360665 -184.178254 
L 327.280575 -182.326879 
L 325.200485 -180.604751 
L 323.120395 -178.538402 
L 321.040305 -176.634497 
L 318.960214 -174.558703 
L 316.880124 -172.544767 
L 314.800034 -170.689369 
L 312.719944 -168.467719 
L 310.639854 -166.493076 
L 308.559763 -164.292539 
L 306.479673 -162.214782 
L 304.399583 -160.178613 
L 302.319493 -158.062665 
L 300.239403 -155.917166 
L 298.159312 -153.77763 
L 296.079222 -151.713862 
L 293.999132 -149.540921 
L 291.919042 -147.443293 
L 289.838952 -145.368918 
L 287.758861 -143.168461 
L 285.678771 -140.974106 
L 283.598681 -138.76049 
L 281.518591 -136.666803 
L 279.438501 -134.539832 
L 277.35841 -132.510799 
L 275.27832 -130.426498 
L 273.19823 -128.214811 
L 271.11814 -126.152311 
L 269.03805 -123.847305 
L 266.957959 -121.918255 
L 264.877869 -119.896303 
L 262.797779 -117.828377 
L 260.717689 -115.807034 
L 258.637599 -113.726465 
L 256.557509 -111.835374 
L 254.477418 -109.933342 
L 252.397328 -107.934661 
L 250.317238 -106.132078 
L 248.237148 -104.171738 
L 246.157058 -102.514563 
L 244.076967 -100.586737 
L 241.996877 -98.832659 
L 239.916787 -96.968454 
L 237.836697 -95.487632 
L 235.756607 -93.614197 
L 233.676516 -92.21804 
L 231.596426 -90.564366 
L 229.516336 -89.181426 
L 227.436246 -87.581717 
L 225.356156 -86.147889 
L 223.276065 -84.945986 
L 221.195975 -83.458604 
L 219.115885 -82.187694 
L 217.035795 -80.948865 
L 214.955705 -80.042062 
L 212.875614 -78.862184 
L 210.795524 -77.736539 
L 208.715434 -76.415659 
L 206.635344 -75.62893 
L 204.555254 -74.654476 
L 202.475163 -73.760858 
L 200.395073 -72.836097 
L 198.314983 -72.119815 
L 196.234893 -71.437124 
L 194.154803 -70.714936 
L 192.074713 -70.095256 
L 189.994622 -69.596316 
L 187.914532 -68.970986 
L 185.834442 -68.566662 
L 183.754352 -68.336328 
L 181.674262 -67.959239 
L 179.594171 -67.839164 
L 177.514081 -67.695333 
L 175.433991 -67.564687 
L 173.353901 -67.542744 
L 171.273811 -67.632227 
L 169.19372 -67.880392 
L 167.11363 -67.931377 
L 165.03354 -68.019554 
L 162.95345 -68.401832 
L 160.87336 -68.823736 
L 158.793269 -69.488772 
L 156.713179 -69.741477 
L 154.633089 -70.51786 
L 152.552999 -71.201761 
L 150.472909 -71.97387 
L 148.392818 -72.807206 
L 146.312728 -73.852297 
L 144.232638 -74.81621 
L 142.152548 -75.832376 
L 140.072458 -76.628936 
L 137.992367 -77.839232 
L 135.912277 -79.258208 
L 133.832187 -80.502402 
L 131.752097 -81.776165 
L 129.672007 -83.243022 
L 127.591917 -84.604523 
L 125.511826 -85.917073 
L 123.431736 -87.285282 
L 121.351646 -88.777366 
L 119.271556 -90.466095 
L 117.191466 -92.053518 
L 115.111375 -93.785889 
L 113.031285 -95.593255 
L 110.951195 -97.49665 
L 108.871105 -99.341296 
L 106.791015 -101.540608 
L 104.710924 -103.409374 
L 102.630834 -105.412485 
L 100.550744 -107.562504 
L 98.470654 -110.112957 
L 96.390564 -112.597822 
L 94.310473 -114.916931 
L 92.230383 -117.51916 
L 90.150293 -120.043001 
L 88.070203 -123.186045 
L 85.990113 -126.209173 
L 83.910022 -130.012572 
z
" style="stroke: #fa7c17; stroke-opacity: 0.25"/>
    </defs>
    <g clip-path="url(#p04e9027a42)">
     <use xlink:href="#m9df4125e9e" x="0" y="353.99952" style="fill: #fa7c17; fill-opacity: 0.25; stroke: #fa7c17; stroke-opacity: 0.25"/>
    </g>
   </g>
   <g id="line2d_31">
    <path d="M 83.910022 231.33522 
L 90.150293 239.039534 
L 94.310473 243.881566 
L 98.470654 248.487077 
L 102.630834 252.855059 
L 106.791015 256.984501 
L 110.951195 260.874392 
L 115.111375 264.523724 
L 119.271556 267.931485 
L 123.431736 271.096666 
L 127.591917 274.018257 
L 131.752097 276.695247 
L 135.912277 279.126628 
L 140.072458 281.311388 
L 144.232638 283.248519 
L 148.392818 284.937009 
L 152.552999 286.375849 
L 156.713179 287.564028 
L 160.87336 288.500538 
L 165.03354 289.184367 
L 169.19372 289.614506 
L 173.353901 289.789945 
L 177.514081 289.709674 
L 181.674262 289.372683 
L 185.834442 288.777961 
L 189.994622 287.924499 
L 194.154803 286.81133 
L 198.314983 285.441464 
L 202.475163 283.825044 
L 206.635344 281.972953 
L 210.795524 279.896076 
L 214.955705 277.605297 
L 219.115885 275.111501 
L 223.276065 272.42557 
L 229.516336 268.060233 
L 235.756607 263.323819 
L 241.996877 258.253063 
L 248.237148 252.884698 
L 254.477418 247.255458 
L 262.797779 239.407492 
L 271.11814 231.248128 
L 281.518591 220.743672 
L 314.800034 186.784617 
L 323.120395 178.69173 
L 331.440756 170.9443 
L 337.681026 165.416621 
L 343.921297 160.175203 
L 350.161567 155.259448 
L 356.401838 150.708761 
L 360.562018 147.897243 
L 364.722199 145.277164 
L 368.882379 142.8602 
L 373.042559 140.658026 
L 377.20274 138.682316 
L 381.36292 136.944746 
L 385.523101 135.456991 
L 389.683281 134.230725 
L 393.843461 133.277623 
L 395.923552 101.145733 
L 400.083732 100.62213 
L 404.243912 100.384376 
L 408.404093 100.425452 
L 412.564273 100.738331 
L 416.724453 101.315987 
L 420.884634 102.151393 
L 425.044814 103.237523 
L 429.204995 104.567352 
L 433.365175 106.133852 
L 437.525355 107.929999 
L 441.685536 109.948765 
L 445.845716 112.183125 
L 450.005897 114.626052 
L 454.166077 117.27052 
L 458.326257 120.109503 
L 462.486438 123.135976 
L 468.726708 128.011856 
L 474.966979 133.270064 
L 481.207249 138.886886 
L 487.44752 144.83861 
L 493.687791 151.101522 
L 497.847971 155.437968 
L 497.847971 155.437968 
" clip-path="url(#p04e9027a42)" style="fill: none; stroke: #fa7c17; stroke-width: 1.5; stroke-linecap: round"/>
   </g>
   <g id="line2d_32">
    <path d="M 83.910022 237.66924 
L 85.990113 240.279646 
L 88.070203 242.27134 
L 90.150293 244.584634 
L 92.230383 246.37329 
L 98.470654 252.507355 
L 100.550744 254.835455 
L 104.710924 258.835069 
L 106.791015 260.796333 
L 108.871105 263.065884 
L 117.191466 270.699561 
L 123.431736 275.678208 
L 131.752097 281.049492 
L 140.072458 285.737729 
L 142.152548 286.38112 
L 148.392818 288.871376 
L 152.552999 290.115822 
L 156.713179 291.319141 
L 158.793269 291.397494 
L 160.87336 291.997711 
L 165.03354 292.592895 
L 169.19372 292.661117 
L 171.273811 292.87999 
L 175.433991 292.995264 
L 181.674262 292.811894 
L 183.754352 292.48472 
L 185.834442 292.344341 
L 187.914532 292.041694 
L 189.994622 291.499782 
L 192.074713 291.082531 
L 196.234893 289.850798 
L 200.395073 288.526682 
L 208.715434 284.828481 
L 210.795524 283.477559 
L 214.955705 281.047304 
L 217.035795 280.081905 
L 221.195975 277.395489 
L 223.276065 275.833326 
L 225.356156 274.497322 
L 227.436246 272.983671 
L 229.516336 271.304475 
L 231.596426 269.841478 
L 233.676516 268.10931 
L 235.756607 266.645266 
L 237.836697 264.723291 
L 239.916787 263.200338 
L 258.637599 246.695935 
L 264.877869 240.699619 
L 269.03805 236.938778 
L 271.11814 234.736068 
L 273.19823 232.740348 
L 277.35841 228.567128 
L 281.518591 224.530018 
L 285.678771 220.311401 
L 304.399583 200.993161 
L 308.559763 196.754377 
L 310.639854 194.464187 
L 312.719944 192.420808 
L 314.800034 190.096992 
L 316.880124 188.203413 
L 323.120395 181.987646 
L 325.200485 179.895656 
L 331.440756 174.446723 
L 333.520846 172.345704 
L 339.761116 166.819145 
L 343.921297 163.631325 
L 348.081477 160.09642 
L 352.241657 157.219549 
L 356.401838 154.272177 
L 358.481928 152.805303 
L 362.642108 150.189388 
L 364.722199 148.827914 
L 368.882379 146.545711 
L 373.042559 144.913966 
L 375.12265 143.805363 
L 379.28283 142.317361 
L 381.36292 141.703207 
L 383.44301 140.808286 
L 385.523101 140.385009 
L 387.603191 140.236507 
L 389.683281 139.355353 
L 393.843461 138.74931 
L 395.923552 111.164379 
L 400.083732 109.724046 
L 404.243912 108.552161 
L 406.324002 108.575242 
L 408.404093 107.25202 
L 410.484183 106.720912 
L 412.564273 106.691398 
L 414.644363 106.869248 
L 418.804544 106.832838 
L 420.884634 107.153199 
L 422.964724 107.068317 
L 425.044814 107.3682 
L 429.204995 108.34034 
L 439.605446 112.835802 
L 441.685536 113.839709 
L 443.765626 115.260741 
L 445.845716 116.260271 
L 450.005897 118.930826 
L 452.085987 120.461864 
L 454.166077 121.783231 
L 458.326257 125.239403 
L 460.406348 126.699534 
L 464.566528 129.982383 
L 470.806798 134.688476 
L 472.886889 136.343482 
L 474.966979 138.17256 
L 477.047069 139.642451 
L 479.127159 141.492436 
L 481.207249 143.560274 
L 483.28734 145.413414 
L 489.52761 151.848552 
L 497.847971 163.583476 
L 497.847971 163.583476 
" clip-path="url(#p04e9027a42)" style="fill: none; stroke: #fa7c17; stroke-opacity: 0; stroke-width: 1.5; stroke-linecap: round"/>
   </g>
   <g id="line2d_33">
    <path d="M 83.910022 223.986948 
L 85.990113 227.790347 
L 90.150293 233.956519 
L 100.550744 246.437016 
L 104.710924 250.590146 
L 106.791015 252.458912 
L 108.871105 254.658224 
L 117.191466 261.946002 
L 123.431736 266.714238 
L 133.832187 273.497118 
L 135.912277 274.741312 
L 137.992367 276.160288 
L 140.072458 277.370584 
L 142.152548 278.167144 
L 148.392818 281.192314 
L 152.552999 282.797759 
L 156.713179 284.258043 
L 158.793269 284.510748 
L 160.87336 285.175784 
L 165.03354 285.979966 
L 169.19372 286.119128 
L 171.273811 286.367293 
L 173.353901 286.456776 
L 177.514081 286.304187 
L 181.674262 286.040281 
L 183.754352 285.663192 
L 185.834442 285.432858 
L 187.914532 285.028534 
L 189.994622 284.403204 
L 192.074713 283.904264 
L 196.234893 282.562396 
L 200.395073 281.163423 
L 208.715434 277.583861 
L 210.795524 276.262981 
L 214.955705 273.957458 
L 217.035795 273.050655 
L 221.195975 270.540916 
L 223.276065 269.053534 
L 225.356156 267.851631 
L 227.436246 266.417803 
L 229.516336 264.818094 
L 231.596426 263.435154 
L 233.676516 261.78148 
L 235.756607 260.385323 
L 237.836697 258.511888 
L 239.916787 257.031066 
L 246.157058 251.484957 
L 248.237148 249.827782 
L 250.317238 247.867442 
L 252.397328 246.064859 
L 256.557509 242.164146 
L 258.637599 240.273055 
L 266.957959 232.081265 
L 269.03805 230.152215 
L 271.11814 227.847209 
L 275.27832 223.573022 
L 285.678771 213.025414 
L 291.919042 206.556227 
L 308.559763 189.706981 
L 310.639854 187.506444 
L 312.719944 185.531801 
L 314.800034 183.310151 
L 316.880124 181.454753 
L 325.200485 173.394769 
L 329.360665 169.821266 
L 331.440756 168.022709 
L 333.520846 165.901218 
L 339.761116 160.348819 
L 343.921297 157.109407 
L 348.081477 153.430811 
L 356.401838 147.258366 
L 358.481928 145.697032 
L 366.802289 140.007967 
L 368.882379 138.764883 
L 373.042559 136.782225 
L 375.12265 135.498941 
L 379.28283 133.532356 
L 381.36292 132.660621 
L 383.44301 131.429568 
L 385.523101 130.694 
L 387.603191 130.253505 
L 389.683281 128.976857 
L 391.763371 128.208587 
L 393.843461 127.599003 
L 395.923552 91.982498 
L 400.083732 92.093388 
L 404.243912 92.461556 
L 406.324002 93.286635 
L 408.404093 92.870945 
L 410.484183 93.181971 
L 412.564273 93.963688 
L 414.644363 94.925465 
L 420.884634 97.479704 
L 422.964724 98.054058 
L 427.124904 99.741705 
L 429.204995 100.632364 
L 431.285085 101.663861 
L 433.365175 102.505219 
L 435.445265 103.496967 
L 439.605446 105.169968 
L 441.685536 105.923412 
L 443.765626 107.080335 
L 445.845716 107.879413 
L 450.005897 109.977713 
L 452.085987 111.263257 
L 454.166077 112.39762 
L 458.326257 115.457707 
L 460.406348 116.774077 
L 468.726708 122.947508 
L 474.966979 128.69145 
L 477.047069 130.336773 
L 479.127159 132.247715 
L 481.207249 134.41717 
L 485.36743 138.127336 
L 489.52761 141.063116 
L 491.6077 142.911768 
L 493.687791 144.47255 
L 497.847971 147.066302 
L 497.847971 147.066302 
" clip-path="url(#p04e9027a42)" style="fill: none; stroke: #fa7c17; stroke-opacity: 0; stroke-width: 1.5; stroke-linecap: round"/>
   </g>
   <g id="line2d_34">
    <path d="M 395.293195 311.232957 
L 395.293195 81.542 
" clip-path="url(#p04e9027a42)" style="fill: none; stroke: #ff0000; stroke-width: 3; stroke-linecap: round"/>
   </g>
   <g id="patch_3">
    <path d="M 63.213125 311.232957 
L 63.213125 81.542 
" style="fill: none"/>
   </g>
   <g id="patch_4">
    <path d="M 518.544868 311.232957 
L 518.544868 81.542 
" style="fill: none"/>
   </g>
   <g id="patch_5">
    <path d="M 63.213125 311.232957 
L 518.544868 311.232957 
" style="fill: none"/>
   </g>
   <g id="patch_6">
    <path d="M 63.213125 81.542 
L 518.544868 81.542 
" style="fill: none"/>
   </g>
   <g id="text_18">
    <!-- Bayesian $R^2$ on all data = 0.973 (std = 0.004) -->
    <g style="fill: #262626" transform="translate(106.478997 21.76) scale(0.16 -0.16)">
     <defs>
      <path id="DejaVuSans-42" d="M 1259 2228 
L 1259 519 
L 2272 519 
Q 2781 519 3026 730 
Q 3272 941 3272 1375 
Q 3272 1813 3026 2020 
Q 2781 2228 2272 2228 
L 1259 2228 
z
M 1259 4147 
L 1259 2741 
L 2194 2741 
Q 2656 2741 2882 2914 
Q 3109 3088 3109 3444 
Q 3109 3797 2882 3972 
Q 2656 4147 2194 4147 
L 1259 4147 
z
M 628 4666 
L 2241 4666 
Q 2963 4666 3353 4366 
Q 3744 4066 3744 3513 
Q 3744 3084 3544 2831 
Q 3344 2578 2956 2516 
Q 3422 2416 3680 2098 
Q 3938 1781 3938 1306 
Q 3938 681 3513 340 
Q 3088 0 2303 0 
L 628 0 
L 628 4666 
z
" transform="scale(0.015625)"/>
      <path id="DejaVuSans-61" d="M 2194 1759 
Q 1497 1759 1228 1600 
Q 959 1441 959 1056 
Q 959 750 1161 570 
Q 1363 391 1709 391 
Q 2188 391 2477 730 
Q 2766 1069 2766 1631 
L 2766 1759 
L 2194 1759 
z
M 3341 1997 
L 3341 0 
L 2766 0 
L 2766 531 
Q 2569 213 2275 61 
Q 1981 -91 1556 -91 
Q 1019 -91 701 211 
Q 384 513 384 1019 
Q 384 1609 779 1909 
Q 1175 2209 1959 2209 
L 2766 2209 
L 2766 2266 
Q 2766 2663 2505 2880 
Q 2244 3097 1772 3097 
Q 1472 3097 1187 3025 
Q 903 2953 641 2809 
L 641 3341 
Q 956 3463 1253 3523 
Q 1550 3584 1831 3584 
Q 2591 3584 2966 3190 
Q 3341 2797 3341 1997 
z
" transform="scale(0.015625)"/>
      <path id="DejaVuSans-65" d="M 3597 1894 
L 3597 1613 
L 953 1613 
Q 991 1019 1311 708 
Q 1631 397 2203 397 
Q 2534 397 2845 478 
Q 3156 559 3463 722 
L 3463 178 
Q 3153 47 2828 -22 
Q 2503 -91 2169 -91 
Q 1331 -91 842 396 
Q 353 884 353 1716 
Q 353 2575 817 3079 
Q 1281 3584 2069 3584 
Q 2775 3584 3186 3129 
Q 3597 2675 3597 1894 
z
M 3022 2063 
Q 3016 2534 2758 2815 
Q 2500 3097 2075 3097 
Q 1594 3097 1305 2825 
Q 1016 2553 972 2059 
L 3022 2063 
z
" transform="scale(0.015625)"/>
      <path id="DejaVuSans-73" d="M 2834 3397 
L 2834 2853 
Q 2591 2978 2328 3040 
Q 2066 3103 1784 3103 
Q 1356 3103 1142 2972 
Q 928 2841 928 2578 
Q 928 2378 1081 2264 
Q 1234 2150 1697 2047 
L 1894 2003 
Q 2506 1872 2764 1633 
Q 3022 1394 3022 966 
Q 3022 478 2636 193 
Q 2250 -91 1575 -91 
Q 1294 -91 989 -36 
Q 684 19 347 128 
L 347 722 
Q 666 556 975 473 
Q 1284 391 1588 391 
Q 1994 391 2212 530 
Q 2431 669 2431 922 
Q 2431 1156 2273 1281 
Q 2116 1406 1581 1522 
L 1381 1569 
Q 847 1681 609 1914 
Q 372 2147 372 2553 
Q 372 3047 722 3315 
Q 1072 3584 1716 3584 
Q 2034 3584 2315 3537 
Q 2597 3491 2834 3397 
z
" transform="scale(0.015625)"/>
      <path id="DejaVuSans-69" d="M 603 3500 
L 1178 3500 
L 1178 0 
L 603 0 
L 603 3500 
z
M 603 4863 
L 1178 4863 
L 1178 4134 
L 603 4134 
L 603 4863 
z
" transform="scale(0.015625)"/>
      <path id="DejaVuSans-6e" d="M 3513 2113 
L 3513 0 
L 2938 0 
L 2938 2094 
Q 2938 2591 2744 2837 
Q 2550 3084 2163 3084 
Q 1697 3084 1428 2787 
Q 1159 2491 1159 1978 
L 1159 0 
L 581 0 
L 581 3500 
L 1159 3500 
L 1159 2956 
Q 1366 3272 1645 3428 
Q 1925 3584 2291 3584 
Q 2894 3584 3203 3211 
Q 3513 2838 3513 2113 
z
" transform="scale(0.015625)"/>
      <path id="DejaVuSans-20" transform="scale(0.015625)"/>
      <path id="DejaVuSans-Oblique-52" d="M 1613 4147 
L 1294 2491 
L 2106 2491 
Q 2584 2491 2879 2755 
Q 3175 3019 3175 3444 
Q 3175 3784 2976 3965 
Q 2778 4147 2406 4147 
L 1613 4147 
z
M 2772 2241 
Q 2972 2194 3105 2009 
Q 3238 1825 3413 1275 
L 3809 0 
L 3144 0 
L 2778 1197 
Q 2638 1659 2453 1815 
Q 2269 1972 1888 1972 
L 1191 1972 
L 806 0 
L 172 0 
L 1081 4666 
L 2503 4666 
Q 3150 4666 3495 4373 
Q 3841 4081 3841 3531 
Q 3841 3044 3547 2687 
Q 3253 2331 2772 2241 
z
" transform="scale(0.015625)"/>
      <path id="DejaVuSans-6f" d="M 1959 3097 
Q 1497 3097 1228 2736 
Q 959 2375 959 1747 
Q 959 1119 1226 758 
Q 1494 397 1959 397 
Q 2419 397 2687 759 
Q 2956 1122 2956 1747 
Q 2956 2369 2687 2733 
Q 2419 3097 1959 3097 
z
M 1959 3584 
Q 2709 3584 3137 3096 
Q 3566 2609 3566 1747 
Q 3566 888 3137 398 
Q 2709 -91 1959 -91 
Q 1206 -91 779 398 
Q 353 888 353 1747 
Q 353 2609 779 3096 
Q 1206 3584 1959 3584 
z
" transform="scale(0.015625)"/>
      <path id="DejaVuSans-6c" d="M 603 4863 
L 1178 4863 
L 1178 0 
L 603 0 
L 603 4863 
z
" transform="scale(0.015625)"/>
      <path id="DejaVuSans-64" d="M 2906 2969 
L 2906 4863 
L 3481 4863 
L 3481 0 
L 2906 0 
L 2906 525 
Q 2725 213 2448 61 
Q 2172 -91 1784 -91 
Q 1150 -91 751 415 
Q 353 922 353 1747 
Q 353 2572 751 3078 
Q 1150 3584 1784 3584 
Q 2172 3584 2448 3432 
Q 2725 3281 2906 2969 
z
M 947 1747 
Q 947 1113 1208 752 
Q 1469 391 1925 391 
Q 2381 391 2643 752 
Q 2906 1113 2906 1747 
Q 2906 2381 2643 2742 
Q 2381 3103 1925 3103 
Q 1469 3103 1208 2742 
Q 947 2381 947 1747 
z
" transform="scale(0.015625)"/>
      <path id="DejaVuSans-74" d="M 1172 4494 
L 1172 3500 
L 2356 3500 
L 2356 3053 
L 1172 3053 
L 1172 1153 
Q 1172 725 1289 603 
Q 1406 481 1766 481 
L 2356 481 
L 2356 0 
L 1766 0 
Q 1100 0 847 248 
Q 594 497 594 1153 
L 594 3053 
L 172 3053 
L 172 3500 
L 594 3500 
L 594 4494 
L 1172 4494 
z
" transform="scale(0.015625)"/>
      <path id="DejaVuSans-3d" d="M 678 2906 
L 4684 2906 
L 4684 2381 
L 678 2381 
L 678 2906 
z
M 678 1631 
L 4684 1631 
L 4684 1100 
L 678 1100 
L 678 1631 
z
" transform="scale(0.015625)"/>
      <path id="DejaVuSans-39" d="M 703 97 
L 703 672 
Q 941 559 1184 500 
Q 1428 441 1663 441 
Q 2288 441 2617 861 
Q 2947 1281 2994 2138 
Q 2813 1869 2534 1725 
Q 2256 1581 1919 1581 
Q 1219 1581 811 2004 
Q 403 2428 403 3163 
Q 403 3881 828 4315 
Q 1253 4750 1959 4750 
Q 2769 4750 3195 4129 
Q 3622 3509 3622 2328 
Q 3622 1225 3098 567 
Q 2575 -91 1691 -91 
Q 1453 -91 1209 -44 
Q 966 3 703 97 
z
M 1959 2075 
Q 2384 2075 2632 2365 
Q 2881 2656 2881 3163 
Q 2881 3666 2632 3958 
Q 2384 4250 1959 4250 
Q 1534 4250 1286 3958 
Q 1038 3666 1038 3163 
Q 1038 2656 1286 2365 
Q 1534 2075 1959 2075 
z
" transform="scale(0.015625)"/>
      <path id="DejaVuSans-33" d="M 2597 2516 
Q 3050 2419 3304 2112 
Q 3559 1806 3559 1356 
Q 3559 666 3084 287 
Q 2609 -91 1734 -91 
Q 1441 -91 1130 -33 
Q 819 25 488 141 
L 488 750 
Q 750 597 1062 519 
Q 1375 441 1716 441 
Q 2309 441 2620 675 
Q 2931 909 2931 1356 
Q 2931 1769 2642 2001 
Q 2353 2234 1838 2234 
L 1294 2234 
L 1294 2753 
L 1863 2753 
Q 2328 2753 2575 2939 
Q 2822 3125 2822 3475 
Q 2822 3834 2567 4026 
Q 2313 4219 1838 4219 
Q 1578 4219 1281 4162 
Q 984 4106 628 3988 
L 628 4550 
Q 988 4650 1302 4700 
Q 1616 4750 1894 4750 
Q 2613 4750 3031 4423 
Q 3450 4097 3450 3541 
Q 3450 3153 3228 2886 
Q 3006 2619 2597 2516 
z
" transform="scale(0.015625)"/>
      <path id="DejaVuSans-28" d="M 1984 4856 
Q 1566 4138 1362 3434 
Q 1159 2731 1159 2009 
Q 1159 1288 1364 580 
Q 1569 -128 1984 -844 
L 1484 -844 
Q 1016 -109 783 600 
Q 550 1309 550 2009 
Q 550 2706 781 3412 
Q 1013 4119 1484 4856 
L 1984 4856 
z
" transform="scale(0.015625)"/>
      <path id="DejaVuSans-34" d="M 2419 4116 
L 825 1625 
L 2419 1625 
L 2419 4116 
z
M 2253 4666 
L 3047 4666 
L 3047 1625 
L 3713 1625 
L 3713 1100 
L 3047 1100 
L 3047 0 
L 2419 0 
L 2419 1100 
L 313 1100 
L 313 1709 
L 2253 4666 
z
" transform="scale(0.015625)"/>
      <path id="DejaVuSans-29" d="M 513 4856 
L 1013 4856 
Q 1481 4119 1714 3412 
Q 1947 2706 1947 2009 
Q 1947 1309 1714 600 
Q 1481 -109 1013 -844 
L 513 -844 
Q 928 -128 1133 580 
Q 1338 1288 1338 2009 
Q 1338 2731 1133 3434 
Q 928 4138 513 4856 
z
" transform="scale(0.015625)"/>
     </defs>
     <use xlink:href="#DejaVuSans-42" transform="translate(0 0.765625)"/>
     <use xlink:href="#DejaVuSans-61" transform="translate(68.603516 0.765625)"/>
     <use xlink:href="#DejaVuSans-79" transform="translate(129.882812 0.765625)"/>
     <use xlink:href="#DejaVuSans-65" transform="translate(189.0625 0.765625)"/>
     <use xlink:href="#DejaVuSans-73" transform="translate(250.585938 0.765625)"/>
     <use xlink:href="#DejaVuSans-69" transform="translate(302.685547 0.765625)"/>
     <use xlink:href="#DejaVuSans-61" transform="translate(330.46875 0.765625)"/>
     <use xlink:href="#DejaVuSans-6e" transform="translate(391.748047 0.765625)"/>
     <use xlink:href="#DejaVuSans-20" transform="translate(455.126953 0.765625)"/>
     <use xlink:href="#DejaVuSans-Oblique-52" transform="translate(486.914062 0.765625)"/>
     <use xlink:href="#DejaVuSans-32" transform="translate(563.413255 39.046875) scale(0.7)"/>
     <use xlink:href="#DejaVuSans-20" transform="translate(610.683763 0.765625)"/>
     <use xlink:href="#DejaVuSans-6f" transform="translate(642.470872 0.765625)"/>
     <use xlink:href="#DejaVuSans-6e" transform="translate(703.652513 0.765625)"/>
     <use xlink:href="#DejaVuSans-20" transform="translate(767.031419 0.765625)"/>
     <use xlink:href="#DejaVuSans-61" transform="translate(798.818529 0.765625)"/>
     <use xlink:href="#DejaVuSans-6c" transform="translate(860.097826 0.765625)"/>
     <use xlink:href="#DejaVuSans-6c" transform="translate(887.881029 0.765625)"/>
     <use xlink:href="#DejaVuSans-20" transform="translate(915.664232 0.765625)"/>
     <use xlink:href="#DejaVuSans-64" transform="translate(947.451341 0.765625)"/>
     <use xlink:href="#DejaVuSans-61" transform="translate(1010.927904 0.765625)"/>
     <use xlink:href="#DejaVuSans-74" transform="translate(1072.207201 0.765625)"/>
     <use xlink:href="#DejaVuSans-61" transform="translate(1111.416185 0.765625)"/>
     <use xlink:href="#DejaVuSans-20" transform="translate(1172.695482 0.765625)"/>
     <use xlink:href="#DejaVuSans-3d" transform="translate(1204.482591 0.765625)"/>
     <use xlink:href="#DejaVuSans-20" transform="translate(1288.271654 0.765625)"/>
     <use xlink:href="#DejaVuSans-30" transform="translate(1320.058763 0.765625)"/>
     <use xlink:href="#DejaVuSans-2e" transform="translate(1383.68181 0.765625)"/>
     <use xlink:href="#DejaVuSans-39" transform="translate(1415.468919 0.765625)"/>
     <use xlink:href="#DejaVuSans-37" transform="translate(1479.091966 0.765625)"/>
     <use xlink:href="#DejaVuSans-33" transform="translate(1542.715013 0.765625)"/>
     <use xlink:href="#DejaVuSans-20" transform="translate(1606.33806 0.765625)"/>
     <use xlink:href="#DejaVuSans-28" transform="translate(1638.125169 0.765625)"/>
     <use xlink:href="#DejaVuSans-73" transform="translate(1677.138841 0.765625)"/>
     <use xlink:href="#DejaVuSans-74" transform="translate(1729.238451 0.765625)"/>
     <use xlink:href="#DejaVuSans-64" transform="translate(1768.447435 0.765625)"/>
     <use xlink:href="#DejaVuSans-20" transform="translate(1831.923997 0.765625)"/>
     <use xlink:href="#DejaVuSans-3d" transform="translate(1863.711107 0.765625)"/>
     <use xlink:href="#DejaVuSans-20" transform="translate(1947.500169 0.765625)"/>
     <use xlink:href="#DejaVuSans-30" transform="translate(1979.287279 0.765625)"/>
     <use xlink:href="#DejaVuSans-2e" transform="translate(2042.910326 0.765625)"/>
     <use xlink:href="#DejaVuSans-30" transform="translate(2074.697435 0.765625)"/>
     <use xlink:href="#DejaVuSans-30" transform="translate(2138.320482 0.765625)"/>
     <use xlink:href="#DejaVuSans-34" transform="translate(2201.943529 0.765625)"/>
     <use xlink:href="#DejaVuSans-29" transform="translate(2265.566576 0.765625)"/>
    </g>
    <!--  -->
    <g style="fill: #262626" transform="translate(290.878997 39.709) scale(0.16 -0.16)"/>
    <!--             Discontinuity at threshold = 0.41, -->
    <g style="fill: #262626" transform="translate(124.923997 57.6255) scale(0.16 -0.16)">
     <defs>
      <path id="DejaVuSans-44" d="M 1259 4147 
L 1259 519 
L 2022 519 
Q 2988 519 3436 956 
Q 3884 1394 3884 2338 
Q 3884 3275 3436 3711 
Q 2988 4147 2022 4147 
L 1259 4147 
z
M 628 4666 
L 1925 4666 
Q 3281 4666 3915 4102 
Q 4550 3538 4550 2338 
Q 4550 1131 3912 565 
Q 3275 0 1925 0 
L 628 0 
L 628 4666 
z
" transform="scale(0.015625)"/>
      <path id="DejaVuSans-63" d="M 3122 3366 
L 3122 2828 
Q 2878 2963 2633 3030 
Q 2388 3097 2138 3097 
Q 1578 3097 1268 2742 
Q 959 2388 959 1747 
Q 959 1106 1268 751 
Q 1578 397 2138 397 
Q 2388 397 2633 464 
Q 2878 531 3122 666 
L 3122 134 
Q 2881 22 2623 -34 
Q 2366 -91 2075 -91 
Q 1284 -91 818 406 
Q 353 903 353 1747 
Q 353 2603 823 3093 
Q 1294 3584 2113 3584 
Q 2378 3584 2631 3529 
Q 2884 3475 3122 3366 
z
" transform="scale(0.015625)"/>
      <path id="DejaVuSans-75" d="M 544 1381 
L 544 3500 
L 1119 3500 
L 1119 1403 
Q 1119 906 1312 657 
Q 1506 409 1894 409 
Q 2359 409 2629 706 
Q 2900 1003 2900 1516 
L 2900 3500 
L 3475 3500 
L 3475 0 
L 2900 0 
L 2900 538 
Q 2691 219 2414 64 
Q 2138 -91 1772 -91 
Q 1169 -91 856 284 
Q 544 659 544 1381 
z
M 1991 3584 
L 1991 3584 
z
" transform="scale(0.015625)"/>
      <path id="DejaVuSans-68" d="M 3513 2113 
L 3513 0 
L 2938 0 
L 2938 2094 
Q 2938 2591 2744 2837 
Q 2550 3084 2163 3084 
Q 1697 3084 1428 2787 
Q 1159 2491 1159 1978 
L 1159 0 
L 581 0 
L 581 4863 
L 1159 4863 
L 1159 2956 
Q 1366 3272 1645 3428 
Q 1925 3584 2291 3584 
Q 2894 3584 3203 3211 
Q 3513 2838 3513 2113 
z
" transform="scale(0.015625)"/>
      <path id="DejaVuSans-72" d="M 2631 2963 
Q 2534 3019 2420 3045 
Q 2306 3072 2169 3072 
Q 1681 3072 1420 2755 
Q 1159 2438 1159 1844 
L 1159 0 
L 581 0 
L 581 3500 
L 1159 3500 
L 1159 2956 
Q 1341 3275 1631 3429 
Q 1922 3584 2338 3584 
Q 2397 3584 2469 3576 
Q 2541 3569 2628 3553 
L 2631 2963 
z
" transform="scale(0.015625)"/>
      <path id="DejaVuSans-2c" d="M 750 794 
L 1409 794 
L 1409 256 
L 897 -744 
L 494 -744 
L 750 256 
L 750 794 
z
" transform="scale(0.015625)"/>
     </defs>
     <use xlink:href="#DejaVuSans-20"/>
     <use xlink:href="#DejaVuSans-20" x="31.787109"/>
     <use xlink:href="#DejaVuSans-20" x="63.574219"/>
     <use xlink:href="#DejaVuSans-20" x="95.361328"/>
     <use xlink:href="#DejaVuSans-20" x="127.148438"/>
     <use xlink:href="#DejaVuSans-20" x="158.935547"/>
     <use xlink:href="#DejaVuSans-20" x="190.722656"/>
     <use xlink:href="#DejaVuSans-20" x="222.509766"/>
     <use xlink:href="#DejaVuSans-20" x="254.296875"/>
     <use xlink:href="#DejaVuSans-20" x="286.083984"/>
     <use xlink:href="#DejaVuSans-20" x="317.871094"/>
     <use xlink:href="#DejaVuSans-20" x="349.658203"/>
     <use xlink:href="#DejaVuSans-44" x="381.445312"/>
     <use xlink:href="#DejaVuSans-69" x="458.447266"/>
     <use xlink:href="#DejaVuSans-73" x="486.230469"/>
     <use xlink:href="#DejaVuSans-63" x="538.330078"/>
     <use xlink:href="#DejaVuSans-6f" x="593.310547"/>
     <use xlink:href="#DejaVuSans-6e" x="654.492188"/>
     <use xlink:href="#DejaVuSans-74" x="717.871094"/>
     <use xlink:href="#DejaVuSans-69" x="757.080078"/>
     <use xlink:href="#DejaVuSans-6e" x="784.863281"/>
     <use xlink:href="#DejaVuSans-75" x="848.242188"/>
     <use xlink:href="#DejaVuSans-69" x="911.621094"/>
     <use xlink:href="#DejaVuSans-74" x="939.404297"/>
     <use xlink:href="#DejaVuSans-79" x="978.613281"/>
     <use xlink:href="#DejaVuSans-20" x="1037.792969"/>
     <use xlink:href="#DejaVuSans-61" x="1069.580078"/>
     <use xlink:href="#DejaVuSans-74" x="1130.859375"/>
     <use xlink:href="#DejaVuSans-20" x="1170.068359"/>
     <use xlink:href="#DejaVuSans-74" x="1201.855469"/>
     <use xlink:href="#DejaVuSans-68" x="1241.064453"/>
     <use xlink:href="#DejaVuSans-72" x="1304.443359"/>
     <use xlink:href="#DejaVuSans-65" x="1343.306641"/>
     <use xlink:href="#DejaVuSans-73" x="1404.830078"/>
     <use xlink:href="#DejaVuSans-68" x="1456.929688"/>
     <use xlink:href="#DejaVuSans-6f" x="1520.308594"/>
     <use xlink:href="#DejaVuSans-6c" x="1581.490234"/>
     <use xlink:href="#DejaVuSans-64" x="1609.273438"/>
     <use xlink:href="#DejaVuSans-20" x="1672.75"/>
     <use xlink:href="#DejaVuSans-3d" x="1704.537109"/>
     <use xlink:href="#DejaVuSans-20" x="1788.326172"/>
     <use xlink:href="#DejaVuSans-30" x="1820.113281"/>
     <use xlink:href="#DejaVuSans-2e" x="1883.736328"/>
     <use xlink:href="#DejaVuSans-34" x="1915.523438"/>
     <use xlink:href="#DejaVuSans-31" x="1979.146484"/>
     <use xlink:href="#DejaVuSans-2c" x="2042.769531"/>
    </g>
    <!--             $CI_{94\%}$[0.24, 0.58] -->
    <g style="fill: #262626" transform="translate(193.198997 75.542) scale(0.16 -0.16)">
     <defs>
      <path id="DejaVuSans-Oblique-43" d="M 4447 4306 
L 4319 3641 
Q 4019 3944 3683 4091 
Q 3347 4238 2956 4238 
Q 2422 4238 2017 3981 
Q 1613 3725 1319 3200 
Q 1131 2863 1032 2486 
Q 934 2109 934 1728 
Q 934 1091 1264 756 
Q 1594 422 2222 422 
Q 2656 422 3056 561 
Q 3456 700 3834 978 
L 3688 231 
Q 3316 72 2936 -9 
Q 2556 -91 2175 -91 
Q 1278 -91 773 396 
Q 269 884 269 1753 
Q 269 2309 461 2846 
Q 653 3384 1013 3828 
Q 1394 4300 1883 4525 
Q 2372 4750 3022 4750 
Q 3422 4750 3780 4639 
Q 4138 4528 4447 4306 
z
" transform="scale(0.015625)"/>
      <path id="DejaVuSans-Oblique-49" d="M 1081 4666 
L 1716 4666 
L 806 0 
L 172 0 
L 1081 4666 
z
" transform="scale(0.015625)"/>
      <path id="DejaVuSans-25" d="M 4653 2053 
Q 4381 2053 4226 1822 
Q 4072 1591 4072 1178 
Q 4072 772 4226 539 
Q 4381 306 4653 306 
Q 4919 306 5073 539 
Q 5228 772 5228 1178 
Q 5228 1588 5073 1820 
Q 4919 2053 4653 2053 
z
M 4653 2450 
Q 5147 2450 5437 2106 
Q 5728 1763 5728 1178 
Q 5728 594 5436 251 
Q 5144 -91 4653 -91 
Q 4153 -91 3862 251 
Q 3572 594 3572 1178 
Q 3572 1766 3864 2108 
Q 4156 2450 4653 2450 
z
M 1428 4353 
Q 1159 4353 1004 4120 
Q 850 3888 850 3481 
Q 850 3069 1003 2837 
Q 1156 2606 1428 2606 
Q 1700 2606 1854 2837 
Q 2009 3069 2009 3481 
Q 2009 3884 1853 4118 
Q 1697 4353 1428 4353 
z
M 4250 4750 
L 4750 4750 
L 1831 -91 
L 1331 -91 
L 4250 4750 
z
M 1428 4750 
Q 1922 4750 2215 4408 
Q 2509 4066 2509 3481 
Q 2509 2891 2217 2550 
Q 1925 2209 1428 2209 
Q 931 2209 642 2551 
Q 353 2894 353 3481 
Q 353 4063 643 4406 
Q 934 4750 1428 4750 
z
" transform="scale(0.015625)"/>
      <path id="DejaVuSans-5b" d="M 550 4863 
L 1875 4863 
L 1875 4416 
L 1125 4416 
L 1125 -397 
L 1875 -397 
L 1875 -844 
L 550 -844 
L 550 4863 
z
" transform="scale(0.015625)"/>
      <path id="DejaVuSans-38" d="M 2034 2216 
Q 1584 2216 1326 1975 
Q 1069 1734 1069 1313 
Q 1069 891 1326 650 
Q 1584 409 2034 409 
Q 2484 409 2743 651 
Q 3003 894 3003 1313 
Q 3003 1734 2745 1975 
Q 2488 2216 2034 2216 
z
M 1403 2484 
Q 997 2584 770 2862 
Q 544 3141 544 3541 
Q 544 4100 942 4425 
Q 1341 4750 2034 4750 
Q 2731 4750 3128 4425 
Q 3525 4100 3525 3541 
Q 3525 3141 3298 2862 
Q 3072 2584 2669 2484 
Q 3125 2378 3379 2068 
Q 3634 1759 3634 1313 
Q 3634 634 3220 271 
Q 2806 -91 2034 -91 
Q 1263 -91 848 271 
Q 434 634 434 1313 
Q 434 1759 690 2068 
Q 947 2378 1403 2484 
z
M 1172 3481 
Q 1172 3119 1398 2916 
Q 1625 2713 2034 2713 
Q 2441 2713 2670 2916 
Q 2900 3119 2900 3481 
Q 2900 3844 2670 4047 
Q 2441 4250 2034 4250 
Q 1625 4250 1398 4047 
Q 1172 3844 1172 3481 
z
" transform="scale(0.015625)"/>
      <path id="DejaVuSans-5d" d="M 1947 4863 
L 1947 -844 
L 622 -844 
L 622 -397 
L 1369 -397 
L 1369 4416 
L 622 4416 
L 622 4863 
L 1947 4863 
z
" transform="scale(0.015625)"/>
     </defs>
     <use xlink:href="#DejaVuSans-20" transform="translate(0 0.015625)"/>
     <use xlink:href="#DejaVuSans-20" transform="translate(31.787109 0.015625)"/>
     <use xlink:href="#DejaVuSans-20" transform="translate(63.574219 0.015625)"/>
     <use xlink:href="#DejaVuSans-20" transform="translate(95.361328 0.015625)"/>
     <use xlink:href="#DejaVuSans-20" transform="translate(127.148438 0.015625)"/>
     <use xlink:href="#DejaVuSans-20" transform="translate(158.935547 0.015625)"/>
     <use xlink:href="#DejaVuSans-20" transform="translate(190.722656 0.015625)"/>
     <use xlink:href="#DejaVuSans-20" transform="translate(222.509766 0.015625)"/>
     <use xlink:href="#DejaVuSans-20" transform="translate(254.296875 0.015625)"/>
     <use xlink:href="#DejaVuSans-20" transform="translate(286.083984 0.015625)"/>
     <use xlink:href="#DejaVuSans-20" transform="translate(317.871094 0.015625)"/>
     <use xlink:href="#DejaVuSans-20" transform="translate(349.658203 0.015625)"/>
     <use xlink:href="#DejaVuSans-Oblique-43" transform="translate(381.445312 0.015625)"/>
     <use xlink:href="#DejaVuSans-Oblique-49" transform="translate(451.269531 0.015625)"/>
     <use xlink:href="#DejaVuSans-39" transform="translate(480.761719 -16.390625) scale(0.7)"/>
     <use xlink:href="#DejaVuSans-34" transform="translate(525.297852 -16.390625) scale(0.7)"/>
     <use xlink:href="#DejaVuSans-25" transform="translate(569.833984 -16.390625) scale(0.7)"/>
     <use xlink:href="#DejaVuSans-5b" transform="translate(639.082031 0.015625)"/>
     <use xlink:href="#DejaVuSans-30" transform="translate(678.095703 0.015625)"/>
     <use xlink:href="#DejaVuSans-2e" transform="translate(741.71875 0.015625)"/>
     <use xlink:href="#DejaVuSans-32" transform="translate(768.005859 0.015625)"/>
     <use xlink:href="#DejaVuSans-34" transform="translate(831.628906 0.015625)"/>
     <use xlink:href="#DejaVuSans-2c" transform="translate(895.251953 0.015625)"/>
     <use xlink:href="#DejaVuSans-20" transform="translate(927.039062 0.015625)"/>
     <use xlink:href="#DejaVuSans-30" transform="translate(958.826172 0.015625)"/>
     <use xlink:href="#DejaVuSans-2e" transform="translate(1022.449219 0.015625)"/>
     <use xlink:href="#DejaVuSans-35" transform="translate(1054.236328 0.015625)"/>
     <use xlink:href="#DejaVuSans-38" transform="translate(1117.859375 0.015625)"/>
     <use xlink:href="#DejaVuSans-5d" transform="translate(1181.482422 0.015625)"/>
    </g>
   </g>
   <g id="legend_1">
    <g id="line2d_35">
     <path d="M 74.013125 97.260125 
L 86.013125 97.260125 
L 98.013125 97.260125 
" style="fill: none; stroke: #fa7c17; stroke-width: 1.5; stroke-linecap: round"/>
    </g>
    <g id="patch_7">
     <path d="M 74.013125 101.460125 
L 98.013125 101.460125 
L 98.013125 93.060125 
L 74.013125 93.060125 
z
" style="fill: #fa7c17; fill-opacity: 0.25; stroke: #fa7c17; stroke-opacity: 0.25; stroke-linejoin: miter"/>
    </g>
    <g id="text_19">
     <!-- Posterior mean -->
     <g style="fill: #262626" transform="translate(107.613125 101.460125) scale(0.12 -0.12)">
      <defs>
       <path id="DejaVuSans-50" d="M 1259 4147 
L 1259 2394 
L 2053 2394 
Q 2494 2394 2734 2622 
Q 2975 2850 2975 3272 
Q 2975 3691 2734 3919 
Q 2494 4147 2053 4147 
L 1259 4147 
z
M 628 4666 
L 2053 4666 
Q 2838 4666 3239 4311 
Q 3641 3956 3641 3272 
Q 3641 2581 3239 2228 
Q 2838 1875 2053 1875 
L 1259 1875 
L 1259 0 
L 628 0 
L 628 4666 
z
" transform="scale(0.015625)"/>
       <path id="DejaVuSans-6d" d="M 3328 2828 
Q 3544 3216 3844 3400 
Q 4144 3584 4550 3584 
Q 5097 3584 5394 3201 
Q 5691 2819 5691 2113 
L 5691 0 
L 5113 0 
L 5113 2094 
Q 5113 2597 4934 2840 
Q 4756 3084 4391 3084 
Q 3944 3084 3684 2787 
Q 3425 2491 3425 1978 
L 3425 0 
L 2847 0 
L 2847 2094 
Q 2847 2600 2669 2842 
Q 2491 3084 2119 3084 
Q 1678 3084 1418 2786 
Q 1159 2488 1159 1978 
L 1159 0 
L 581 0 
L 581 3500 
L 1159 3500 
L 1159 2956 
Q 1356 3278 1631 3431 
Q 1906 3584 2284 3584 
Q 2666 3584 2933 3390 
Q 3200 3197 3328 2828 
z
" transform="scale(0.015625)"/>
      </defs>
      <use xlink:href="#DejaVuSans-50"/>
      <use xlink:href="#DejaVuSans-6f" x="56.677734"/>
      <use xlink:href="#DejaVuSans-73" x="117.859375"/>
      <use xlink:href="#DejaVuSans-74" x="169.958984"/>
      <use xlink:href="#DejaVuSans-65" x="209.167969"/>
      <use xlink:href="#DejaVuSans-72" x="270.691406"/>
      <use xlink:href="#DejaVuSans-69" x="311.804688"/>
      <use xlink:href="#DejaVuSans-6f" x="339.587891"/>
      <use xlink:href="#DejaVuSans-72" x="400.769531"/>
      <use xlink:href="#DejaVuSans-20" x="441.882812"/>
      <use xlink:href="#DejaVuSans-6d" x="473.669922"/>
      <use xlink:href="#DejaVuSans-65" x="571.082031"/>
      <use xlink:href="#DejaVuSans-61" x="632.605469"/>
      <use xlink:href="#DejaVuSans-6e" x="693.884766"/>
     </g>
    </g>
   </g>
  </g>
 </g>
 <defs>
  <clipPath id="p04e9027a42">
   <rect x="63.213125" y="81.542" width="455.331743" height="229.690958"/>
  </clipPath>
 </defs>
</svg>
