<?xml version="1.0" encoding="utf-8" standalone="no"?>
<!DOCTYPE svg PUBLIC "-//W3C//DTD SVG 1.1//EN"
  "http://www.w3.org/Graphics/SVG/1.1/DTD/svg11.dtd">
<svg xmlns:xlink="http://www.w3.org/1999/xlink" width="526.746263pt" height="353.99952pt" viewBox="0 0 526.746263 353.99952" xmlns="http://www.w3.org/2000/svg" version="1.1">
 <metadata>
  <rdf:RDF xmlns:dc="http://purl.org/dc/elements/1.1/" xmlns:cc="http://creativecommons.org/ns#" xmlns:rdf="http://www.w3.org/1999/02/22-rdf-syntax-ns#">
   <cc:Work>
    <dc:type rdf:resource="http://purl.org/dc/dcmitype/StillImage"/>
    <dc:date>2022-11-03T10:30:22.481251</dc:date>
    <dc:format>image/svg+xml</dc:format>
    <dc:creator>
     <cc:Agent>
      <dc:title>Matplotlib v3.6.2, https://matplotlib.org/</dc:title>
     </cc:Agent>
    </dc:creator>
   </cc:Work>
  </rdf:RDF>
 </metadata>
 <defs>
  <style type="text/css">*{stroke-linejoin: round; stroke-linecap: butt}</style>
 </defs>
 <g id="figure_1">
  <g id="patch_1">
   <path d="M 0 353.99952 
L 526.746263 353.99952 
L 526.746263 0 
L 0 0 
z
" style="fill: #ffffff"/>
  </g>
  <g id="axes_1">
   <g id="patch_2">
    <path d="M 63.213125 311.232957 
L 518.544868 311.232957 
L 518.544868 43.277 
L 63.213125 43.277 
z
" style="fill: #eeeeee"/>
   </g>
   <g id="matplotlib.axis_1">
    <g id="xtick_1">
     <g id="line2d_1">
      <path d="M 69.291804 311.232957 
L 69.291804 43.277 
" clip-path="url(#p03561ee633)" style="fill: none; stroke: #ffffff; stroke-width: 0.8; stroke-linecap: round"/>
     </g>
     <g id="line2d_2"/>
     <g id="text_1">
      <!-- −1.00 -->
      <g style="fill: #262626" transform="translate(47.840085 325.37077) scale(0.14 -0.14)">
       <defs>
        <path id="DejaVuSans-2212" d="M 678 2272 
L 4684 2272 
L 4684 1741 
L 678 1741 
L 678 2272 
z
" transform="scale(0.015625)"/>
        <path id="DejaVuSans-31" d="M 794 531 
L 1825 531 
L 1825 4091 
L 703 3866 
L 703 4441 
L 1819 4666 
L 2450 4666 
L 2450 531 
L 3481 531 
L 3481 0 
L 794 0 
L 794 531 
z
" transform="scale(0.015625)"/>
        <path id="DejaVuSans-2e" d="M 684 794 
L 1344 794 
L 1344 0 
L 684 0 
L 684 794 
z
" transform="scale(0.015625)"/>
        <path id="DejaVuSans-30" d="M 2034 4250 
Q 1547 4250 1301 3770 
Q 1056 3291 1056 2328 
Q 1056 1369 1301 889 
Q 1547 409 2034 409 
Q 2525 409 2770 889 
Q 3016 1369 3016 2328 
Q 3016 3291 2770 3770 
Q 2525 4250 2034 4250 
z
M 2034 4750 
Q 2819 4750 3233 4129 
Q 3647 3509 3647 2328 
Q 3647 1150 3233 529 
Q 2819 -91 2034 -91 
Q 1250 -91 836 529 
Q 422 1150 422 2328 
Q 422 3509 836 4129 
Q 1250 4750 2034 4750 
z
" transform="scale(0.015625)"/>
       </defs>
       <use xlink:href="#DejaVuSans-2212"/>
       <use xlink:href="#DejaVuSans-31" x="83.789062"/>
       <use xlink:href="#DejaVuSans-2e" x="147.412109"/>
       <use xlink:href="#DejaVuSans-30" x="179.199219"/>
       <use xlink:href="#DejaVuSans-30" x="242.822266"/>
      </g>
     </g>
    </g>
    <g id="xtick_2">
     <g id="line2d_3">
      <path d="M 123.625369 311.232957 
L 123.625369 43.277 
" clip-path="url(#p03561ee633)" style="fill: none; stroke: #ffffff; stroke-width: 0.8; stroke-linecap: round"/>
     </g>
     <g id="line2d_4"/>
     <g id="text_2">
      <!-- −0.75 -->
      <g style="fill: #262626" transform="translate(102.173651 325.37077) scale(0.14 -0.14)">
       <defs>
        <path id="DejaVuSans-37" d="M 525 4666 
L 3525 4666 
L 3525 4397 
L 1831 0 
L 1172 0 
L 2766 4134 
L 525 4134 
L 525 4666 
z
" transform="scale(0.015625)"/>
        <path id="DejaVuSans-35" d="M 691 4666 
L 3169 4666 
L 3169 4134 
L 1269 4134 
L 1269 2991 
Q 1406 3038 1543 3061 
Q 1681 3084 1819 3084 
Q 2600 3084 3056 2656 
Q 3513 2228 3513 1497 
Q 3513 744 3044 326 
Q 2575 -91 1722 -91 
Q 1428 -91 1123 -41 
Q 819 9 494 109 
L 494 744 
Q 775 591 1075 516 
Q 1375 441 1709 441 
Q 2250 441 2565 725 
Q 2881 1009 2881 1497 
Q 2881 1984 2565 2268 
Q 2250 2553 1709 2553 
Q 1456 2553 1204 2497 
Q 953 2441 691 2322 
L 691 4666 
z
" transform="scale(0.015625)"/>
       </defs>
       <use xlink:href="#DejaVuSans-2212"/>
       <use xlink:href="#DejaVuSans-30" x="83.789062"/>
       <use xlink:href="#DejaVuSans-2e" x="147.412109"/>
       <use xlink:href="#DejaVuSans-37" x="179.199219"/>
       <use xlink:href="#DejaVuSans-35" x="242.822266"/>
      </g>
     </g>
    </g>
    <g id="xtick_3">
     <g id="line2d_5">
      <path d="M 177.958935 311.232957 
L 177.958935 43.277 
" clip-path="url(#p03561ee633)" style="fill: none; stroke: #ffffff; stroke-width: 0.8; stroke-linecap: round"/>
     </g>
     <g id="line2d_6"/>
     <g id="text_3">
      <!-- −0.50 -->
      <g style="fill: #262626" transform="translate(156.507216 325.37077) scale(0.14 -0.14)">
       <use xlink:href="#DejaVuSans-2212"/>
       <use xlink:href="#DejaVuSans-30" x="83.789062"/>
       <use xlink:href="#DejaVuSans-2e" x="147.412109"/>
       <use xlink:href="#DejaVuSans-35" x="179.199219"/>
       <use xlink:href="#DejaVuSans-30" x="242.822266"/>
      </g>
     </g>
    </g>
    <g id="xtick_4">
     <g id="line2d_7">
      <path d="M 232.2925 311.232957 
L 232.2925 43.277 
" clip-path="url(#p03561ee633)" style="fill: none; stroke: #ffffff; stroke-width: 0.8; stroke-linecap: round"/>
     </g>
     <g id="line2d_8"/>
     <g id="text_4">
      <!-- −0.25 -->
      <g style="fill: #262626" transform="translate(210.840781 325.37077) scale(0.14 -0.14)">
       <defs>
        <path id="DejaVuSans-32" d="M 1228 531 
L 3431 531 
L 3431 0 
L 469 0 
L 469 531 
Q 828 903 1448 1529 
Q 2069 2156 2228 2338 
Q 2531 2678 2651 2914 
Q 2772 3150 2772 3378 
Q 2772 3750 2511 3984 
Q 2250 4219 1831 4219 
Q 1534 4219 1204 4116 
Q 875 4013 500 3803 
L 500 4441 
Q 881 4594 1212 4672 
Q 1544 4750 1819 4750 
Q 2544 4750 2975 4387 
Q 3406 4025 3406 3419 
Q 3406 3131 3298 2873 
Q 3191 2616 2906 2266 
Q 2828 2175 2409 1742 
Q 1991 1309 1228 531 
z
" transform="scale(0.015625)"/>
       </defs>
       <use xlink:href="#DejaVuSans-2212"/>
       <use xlink:href="#DejaVuSans-30" x="83.789062"/>
       <use xlink:href="#DejaVuSans-2e" x="147.412109"/>
       <use xlink:href="#DejaVuSans-32" x="179.199219"/>
       <use xlink:href="#DejaVuSans-35" x="242.822266"/>
      </g>
     </g>
    </g>
    <g id="xtick_5">
     <g id="line2d_9">
      <path d="M 286.626065 311.232957 
L 286.626065 43.277 
" clip-path="url(#p03561ee633)" style="fill: none; stroke: #ffffff; stroke-width: 0.8; stroke-linecap: round"/>
     </g>
     <g id="line2d_10"/>
     <g id="text_5">
      <!-- 0.00 -->
      <g style="fill: #262626" transform="translate(271.040128 325.37077) scale(0.14 -0.14)">
       <use xlink:href="#DejaVuSans-30"/>
       <use xlink:href="#DejaVuSans-2e" x="63.623047"/>
       <use xlink:href="#DejaVuSans-30" x="95.410156"/>
       <use xlink:href="#DejaVuSans-30" x="159.033203"/>
      </g>
     </g>
    </g>
    <g id="xtick_6">
     <g id="line2d_11">
      <path d="M 340.95963 311.232957 
L 340.95963 43.277 
" clip-path="url(#p03561ee633)" style="fill: none; stroke: #ffffff; stroke-width: 0.8; stroke-linecap: round"/>
     </g>
     <g id="line2d_12"/>
     <g id="text_6">
      <!-- 0.25 -->
      <g style="fill: #262626" transform="translate(325.373693 325.37077) scale(0.14 -0.14)">
       <use xlink:href="#DejaVuSans-30"/>
       <use xlink:href="#DejaVuSans-2e" x="63.623047"/>
       <use xlink:href="#DejaVuSans-32" x="95.410156"/>
       <use xlink:href="#DejaVuSans-35" x="159.033203"/>
      </g>
     </g>
    </g>
    <g id="xtick_7">
     <g id="line2d_13">
      <path d="M 395.293195 311.232957 
L 395.293195 43.277 
" clip-path="url(#p03561ee633)" style="fill: none; stroke: #ffffff; stroke-width: 0.8; stroke-linecap: round"/>
     </g>
     <g id="line2d_14"/>
     <g id="text_7">
      <!-- 0.50 -->
      <g style="fill: #262626" transform="translate(379.707258 325.37077) scale(0.14 -0.14)">
       <use xlink:href="#DejaVuSans-30"/>
       <use xlink:href="#DejaVuSans-2e" x="63.623047"/>
       <use xlink:href="#DejaVuSans-35" x="95.410156"/>
       <use xlink:href="#DejaVuSans-30" x="159.033203"/>
      </g>
     </g>
    </g>
    <g id="xtick_8">
     <g id="line2d_15">
      <path d="M 449.626761 311.232957 
L 449.626761 43.277 
" clip-path="url(#p03561ee633)" style="fill: none; stroke: #ffffff; stroke-width: 0.8; stroke-linecap: round"/>
     </g>
     <g id="line2d_16"/>
     <g id="text_8">
      <!-- 0.75 -->
      <g style="fill: #262626" transform="translate(434.040823 325.37077) scale(0.14 -0.14)">
       <use xlink:href="#DejaVuSans-30"/>
       <use xlink:href="#DejaVuSans-2e" x="63.623047"/>
       <use xlink:href="#DejaVuSans-37" x="95.410156"/>
       <use xlink:href="#DejaVuSans-35" x="159.033203"/>
      </g>
     </g>
    </g>
    <g id="xtick_9">
     <g id="line2d_17">
      <path d="M 503.960326 311.232957 
L 503.960326 43.277 
" clip-path="url(#p03561ee633)" style="fill: none; stroke: #ffffff; stroke-width: 0.8; stroke-linecap: round"/>
     </g>
     <g id="line2d_18"/>
     <g id="text_9">
      <!-- 1.00 -->
      <g style="fill: #262626" transform="translate(488.374388 325.37077) scale(0.14 -0.14)">
       <use xlink:href="#DejaVuSans-31"/>
       <use xlink:href="#DejaVuSans-2e" x="63.623047"/>
       <use xlink:href="#DejaVuSans-30" x="95.410156"/>
       <use xlink:href="#DejaVuSans-30" x="159.033203"/>
      </g>
     </g>
    </g>
    <g id="text_10">
     <!-- x -->
     <g style="fill: #262626" transform="translate(286.439934 343.679989) scale(0.15 -0.15)">
      <defs>
       <path id="DejaVuSans-78" d="M 3513 3500 
L 2247 1797 
L 3578 0 
L 2900 0 
L 1881 1375 
L 863 0 
L 184 0 
L 1544 1831 
L 300 3500 
L 978 3500 
L 1906 2253 
L 2834 3500 
L 3513 3500 
z
" transform="scale(0.015625)"/>
      </defs>
      <use xlink:href="#DejaVuSans-78"/>
     </g>
    </g>
   </g>
   <g id="matplotlib.axis_2">
    <g id="ytick_1">
     <g id="line2d_19">
      <path d="M 63.213125 287.933656 
L 518.544868 287.933656 
" clip-path="url(#p03561ee633)" style="fill: none; stroke: #ffffff; stroke-width: 0.8; stroke-linecap: round"/>
     </g>
     <g id="line2d_20"/>
     <g id="text_11">
      <!-- −1.0 -->
      <g style="fill: #262626" transform="translate(25.717188 293.252562) scale(0.14 -0.14)">
       <use xlink:href="#DejaVuSans-2212"/>
       <use xlink:href="#DejaVuSans-31" x="83.789062"/>
       <use xlink:href="#DejaVuSans-2e" x="147.412109"/>
       <use xlink:href="#DejaVuSans-30" x="179.199219"/>
      </g>
     </g>
    </g>
    <g id="ytick_2">
     <g id="line2d_21">
      <path d="M 63.213125 242.792281 
L 518.544868 242.792281 
" clip-path="url(#p03561ee633)" style="fill: none; stroke: #ffffff; stroke-width: 0.8; stroke-linecap: round"/>
     </g>
     <g id="line2d_22"/>
     <g id="text_12">
      <!-- −0.5 -->
      <g style="fill: #262626" transform="translate(25.717188 248.111187) scale(0.14 -0.14)">
       <use xlink:href="#DejaVuSans-2212"/>
       <use xlink:href="#DejaVuSans-30" x="83.789062"/>
       <use xlink:href="#DejaVuSans-2e" x="147.412109"/>
       <use xlink:href="#DejaVuSans-35" x="179.199219"/>
      </g>
     </g>
    </g>
    <g id="ytick_3">
     <g id="line2d_23">
      <path d="M 63.213125 197.650906 
L 518.544868 197.650906 
" clip-path="url(#p03561ee633)" style="fill: none; stroke: #ffffff; stroke-width: 0.8; stroke-linecap: round"/>
     </g>
     <g id="line2d_24"/>
     <g id="text_13">
      <!-- 0.0 -->
      <g style="fill: #262626" transform="translate(37.44875 202.969812) scale(0.14 -0.14)">
       <use xlink:href="#DejaVuSans-30"/>
       <use xlink:href="#DejaVuSans-2e" x="63.623047"/>
       <use xlink:href="#DejaVuSans-30" x="95.410156"/>
      </g>
     </g>
    </g>
    <g id="ytick_4">
     <g id="line2d_25">
      <path d="M 63.213125 152.509531 
L 518.544868 152.509531 
" clip-path="url(#p03561ee633)" style="fill: none; stroke: #ffffff; stroke-width: 0.8; stroke-linecap: round"/>
     </g>
     <g id="line2d_26"/>
     <g id="text_14">
      <!-- 0.5 -->
      <g style="fill: #262626" transform="translate(37.44875 157.828438) scale(0.14 -0.14)">
       <use xlink:href="#DejaVuSans-30"/>
       <use xlink:href="#DejaVuSans-2e" x="63.623047"/>
       <use xlink:href="#DejaVuSans-35" x="95.410156"/>
      </g>
     </g>
    </g>
    <g id="ytick_5">
     <g id="line2d_27">
      <path d="M 63.213125 107.368157 
L 518.544868 107.368157 
" clip-path="url(#p03561ee633)" style="fill: none; stroke: #ffffff; stroke-width: 0.8; stroke-linecap: round"/>
     </g>
     <g id="line2d_28"/>
     <g id="text_15">
      <!-- 1.0 -->
      <g style="fill: #262626" transform="translate(37.44875 112.687063) scale(0.14 -0.14)">
       <use xlink:href="#DejaVuSans-31"/>
       <use xlink:href="#DejaVuSans-2e" x="63.623047"/>
       <use xlink:href="#DejaVuSans-30" x="95.410156"/>
      </g>
     </g>
    </g>
    <g id="ytick_6">
     <g id="line2d_29">
      <path d="M 63.213125 62.226782 
L 518.544868 62.226782 
" clip-path="url(#p03561ee633)" style="fill: none; stroke: #ffffff; stroke-width: 0.8; stroke-linecap: round"/>
     </g>
     <g id="line2d_30"/>
     <g id="text_16">
      <!-- 1.5 -->
      <g style="fill: #262626" transform="translate(37.44875 67.545688) scale(0.14 -0.14)">
       <use xlink:href="#DejaVuSans-31"/>
       <use xlink:href="#DejaVuSans-2e" x="63.623047"/>
       <use xlink:href="#DejaVuSans-35" x="95.410156"/>
      </g>
     </g>
    </g>
    <g id="text_17">
     <!-- y -->
     <g style="fill: #262626" transform="translate(18.597656 181.694041) rotate(-90) scale(0.15 -0.15)">
      <defs>
       <path id="DejaVuSans-79" d="M 2059 -325 
Q 1816 -950 1584 -1140 
Q 1353 -1331 966 -1331 
L 506 -1331 
L 506 -850 
L 844 -850 
Q 1081 -850 1212 -737 
Q 1344 -625 1503 -206 
L 1606 56 
L 191 3500 
L 800 3500 
L 1894 763 
L 2988 3500 
L 3597 3500 
L 2059 -325 
z
" transform="scale(0.015625)"/>
      </defs>
      <use xlink:href="#DejaVuSans-79"/>
     </g>
    </g>
   </g>
   <g id="PathCollection_1">
    <defs>
     <path id="mfb56348a23" d="M 0 3 
C 0.795609 3 1.55874 2.683901 2.12132 2.12132 
C 2.683901 1.55874 3 0.795609 3 0 
C 3 -0.795609 2.683901 -1.55874 2.12132 -2.12132 
C 1.55874 -2.683901 0.795609 -3 0 -3 
C -0.795609 -3 -1.55874 -2.683901 -2.12132 -2.12132 
C -2.683901 -1.55874 -3 -0.795609 -3 0 
C -3 0.795609 -2.683901 1.55874 -2.12132 2.12132 
C -1.55874 2.683901 -0.795609 3 0 3 
z
" style="stroke: #ffffff; stroke-width: 0.48"/>
    </defs>
    <g clip-path="url(#p03561ee633)">
     <use xlink:href="#mfb56348a23" x="83.910022" y="205.949622" style="stroke: #ffffff; stroke-width: 0.48"/>
     <use xlink:href="#mfb56348a23" x="84.336022" y="232.198805" style="stroke: #ffffff; stroke-width: 0.48"/>
     <use xlink:href="#mfb56348a23" x="84.69857" y="214.063051" style="stroke: #ffffff; stroke-width: 0.48"/>
     <use xlink:href="#mfb56348a23" x="89.412792" y="223.674453" style="stroke: #ffffff; stroke-width: 0.48"/>
     <use xlink:href="#mfb56348a23" x="94.835298" y="235.642837" style="stroke: #ffffff; stroke-width: 0.48"/>
     <use xlink:href="#mfb56348a23" x="94.920755" y="247.752562" style="stroke: #ffffff; stroke-width: 0.48"/>
     <use xlink:href="#mfb56348a23" x="105.526504" y="248.771024" style="stroke: #ffffff; stroke-width: 0.48"/>
     <use xlink:href="#mfb56348a23" x="107.174569" y="241.331776" style="stroke: #ffffff; stroke-width: 0.48"/>
     <use xlink:href="#mfb56348a23" x="112.222407" y="241.417827" style="stroke: #ffffff; stroke-width: 0.48"/>
     <use xlink:href="#mfb56348a23" x="114.768501" y="261.548325" style="stroke: #ffffff; stroke-width: 0.48"/>
     <use xlink:href="#mfb56348a23" x="117.423734" y="264.231843" style="stroke: #ffffff; stroke-width: 0.48"/>
     <use xlink:href="#mfb56348a23" x="125.295493" y="256.181536" style="stroke: #ffffff; stroke-width: 0.48"/>
     <use xlink:href="#mfb56348a23" x="141.833089" y="272.836402" style="stroke: #ffffff; stroke-width: 0.48"/>
     <use xlink:href="#mfb56348a23" x="141.9756" y="287.843107" style="stroke: #ffffff; stroke-width: 0.48"/>
     <use xlink:href="#mfb56348a23" x="145.162711" y="296.799559" style="stroke: #ffffff; stroke-width: 0.48"/>
     <use xlink:href="#mfb56348a23" x="145.509225" y="281.511162" style="stroke: #ffffff; stroke-width: 0.48"/>
     <use xlink:href="#mfb56348a23" x="147.059173" y="287.389283" style="stroke: #ffffff; stroke-width: 0.48"/>
     <use xlink:href="#mfb56348a23" x="147.299032" y="278.2344" style="stroke: #ffffff; stroke-width: 0.48"/>
     <use xlink:href="#mfb56348a23" x="149.509041" y="299.053141" style="stroke: #ffffff; stroke-width: 0.48"/>
     <use xlink:href="#mfb56348a23" x="159.417963" y="275.154609" style="stroke: #ffffff; stroke-width: 0.48"/>
     <use xlink:href="#mfb56348a23" x="163.564673" y="278.818994" style="stroke: #ffffff; stroke-width: 0.48"/>
     <use xlink:href="#mfb56348a23" x="168.797623" y="278.13366" style="stroke: #ffffff; stroke-width: 0.48"/>
     <use xlink:href="#mfb56348a23" x="170.455346" y="266.057936" style="stroke: #ffffff; stroke-width: 0.48"/>
     <use xlink:href="#mfb56348a23" x="172.701312" y="271.139187" style="stroke: #ffffff; stroke-width: 0.48"/>
     <use xlink:href="#mfb56348a23" x="188.833339" y="278.972925" style="stroke: #ffffff; stroke-width: 0.48"/>
     <use xlink:href="#mfb56348a23" x="194.379694" y="292.895593" style="stroke: #ffffff; stroke-width: 0.48"/>
     <use xlink:href="#mfb56348a23" x="195.102613" y="285.767545" style="stroke: #ffffff; stroke-width: 0.48"/>
     <use xlink:href="#mfb56348a23" x="203.349595" y="279.842904" style="stroke: #ffffff; stroke-width: 0.48"/>
     <use xlink:href="#mfb56348a23" x="205.405779" y="288.39989" style="stroke: #ffffff; stroke-width: 0.48"/>
     <use xlink:href="#mfb56348a23" x="208.282416" y="282.260916" style="stroke: #ffffff; stroke-width: 0.48"/>
     <use xlink:href="#mfb56348a23" x="208.871219" y="291.687328" style="stroke: #ffffff; stroke-width: 0.48"/>
     <use xlink:href="#mfb56348a23" x="210.295392" y="267.7018" style="stroke: #ffffff; stroke-width: 0.48"/>
     <use xlink:href="#mfb56348a23" x="211.069273" y="268.543123" style="stroke: #ffffff; stroke-width: 0.48"/>
     <use xlink:href="#mfb56348a23" x="211.748993" y="263.604874" style="stroke: #ffffff; stroke-width: 0.48"/>
     <use xlink:href="#mfb56348a23" x="216.562155" y="269.312259" style="stroke: #ffffff; stroke-width: 0.48"/>
     <use xlink:href="#mfb56348a23" x="230.422528" y="260.456571" style="stroke: #ffffff; stroke-width: 0.48"/>
     <use xlink:href="#mfb56348a23" x="235.037652" y="265.331655" style="stroke: #ffffff; stroke-width: 0.48"/>
     <use xlink:href="#mfb56348a23" x="239.493093" y="238.005477" style="stroke: #ffffff; stroke-width: 0.48"/>
     <use xlink:href="#mfb56348a23" x="243.175218" y="243.971303" style="stroke: #ffffff; stroke-width: 0.48"/>
     <use xlink:href="#mfb56348a23" x="245.068273" y="250.893154" style="stroke: #ffffff; stroke-width: 0.48"/>
     <use xlink:href="#mfb56348a23" x="249.100659" y="249.531336" style="stroke: #ffffff; stroke-width: 0.48"/>
     <use xlink:href="#mfb56348a23" x="258.305684" y="231.528783" style="stroke: #ffffff; stroke-width: 0.48"/>
     <use xlink:href="#mfb56348a23" x="262.182011" y="221.135533" style="stroke: #ffffff; stroke-width: 0.48"/>
     <use xlink:href="#mfb56348a23" x="266.093358" y="231.953643" style="stroke: #ffffff; stroke-width: 0.48"/>
     <use xlink:href="#mfb56348a23" x="266.798071" y="239.426871" style="stroke: #ffffff; stroke-width: 0.48"/>
     <use xlink:href="#mfb56348a23" x="269.087997" y="213.360098" style="stroke: #ffffff; stroke-width: 0.48"/>
     <use xlink:href="#mfb56348a23" x="281.112906" y="202.081744" style="stroke: #ffffff; stroke-width: 0.48"/>
     <use xlink:href="#mfb56348a23" x="284.936083" y="207.720173" style="stroke: #ffffff; stroke-width: 0.48"/>
     <use xlink:href="#mfb56348a23" x="286.235929" y="209.373499" style="stroke: #ffffff; stroke-width: 0.48"/>
     <use xlink:href="#mfb56348a23" x="289.454876" y="206.404754" style="stroke: #ffffff; stroke-width: 0.48"/>
     <use xlink:href="#mfb56348a23" x="289.523467" y="209.825723" style="stroke: #ffffff; stroke-width: 0.48"/>
     <use xlink:href="#mfb56348a23" x="299.076053" y="186.730679" style="stroke: #ffffff; stroke-width: 0.48"/>
     <use xlink:href="#mfb56348a23" x="301.144193" y="188.794573" style="stroke: #ffffff; stroke-width: 0.48"/>
     <use xlink:href="#mfb56348a23" x="304.354028" y="169.643089" style="stroke: #ffffff; stroke-width: 0.48"/>
     <use xlink:href="#mfb56348a23" x="310.233288" y="165.021785" style="stroke: #ffffff; stroke-width: 0.48"/>
     <use xlink:href="#mfb56348a23" x="310.81556" y="168.655194" style="stroke: #ffffff; stroke-width: 0.48"/>
     <use xlink:href="#mfb56348a23" x="316.333421" y="153.235221" style="stroke: #ffffff; stroke-width: 0.48"/>
     <use xlink:href="#mfb56348a23" x="326.15288" y="145.771053" style="stroke: #ffffff; stroke-width: 0.48"/>
     <use xlink:href="#mfb56348a23" x="329.473717" y="136.730137" style="stroke: #ffffff; stroke-width: 0.48"/>
     <use xlink:href="#mfb56348a23" x="345.717135" y="114.814918" style="stroke: #ffffff; stroke-width: 0.48"/>
     <use xlink:href="#mfb56348a23" x="345.912491" y="119.798669" style="stroke: #ffffff; stroke-width: 0.48"/>
     <use xlink:href="#mfb56348a23" x="348.40895" y="138.516368" style="stroke: #ffffff; stroke-width: 0.48"/>
     <use xlink:href="#mfb56348a23" x="350.254007" y="138.960923" style="stroke: #ffffff; stroke-width: 0.48"/>
     <use xlink:href="#mfb56348a23" x="350.642973" y="125.834043" style="stroke: #ffffff; stroke-width: 0.48"/>
     <use xlink:href="#mfb56348a23" x="361.213638" y="128.73949" style="stroke: #ffffff; stroke-width: 0.48"/>
     <use xlink:href="#mfb56348a23" x="363.251157" y="127.728388" style="stroke: #ffffff; stroke-width: 0.48"/>
     <use xlink:href="#mfb56348a23" x="365.881418" y="110.098443" style="stroke: #ffffff; stroke-width: 0.48"/>
     <use xlink:href="#mfb56348a23" x="366.74208" y="141.06353" style="stroke: #ffffff; stroke-width: 0.48"/>
     <use xlink:href="#mfb56348a23" x="370.659001" y="113.647594" style="stroke: #ffffff; stroke-width: 0.48"/>
     <use xlink:href="#mfb56348a23" x="377.968914" y="108.590105" style="stroke: #ffffff; stroke-width: 0.48"/>
     <use xlink:href="#mfb56348a23" x="382.373811" y="105.611852" style="stroke: #ffffff; stroke-width: 0.48"/>
     <use xlink:href="#mfb56348a23" x="384.627721" y="104.821356" style="stroke: #ffffff; stroke-width: 0.48"/>
     <use xlink:href="#mfb56348a23" x="384.895427" y="112.881737" style="stroke: #ffffff; stroke-width: 0.48"/>
     <use xlink:href="#mfb56348a23" x="385.076865" y="118.579663" style="stroke: #ffffff; stroke-width: 0.48"/>
     <use xlink:href="#mfb56348a23" x="392.383214" y="100.86745" style="stroke: #ffffff; stroke-width: 0.48"/>
     <use xlink:href="#mfb56348a23" x="408.505902" y="66.431698" style="stroke: #ffffff; stroke-width: 0.48"/>
     <use xlink:href="#mfb56348a23" x="414.78928" y="67.727354" style="stroke: #ffffff; stroke-width: 0.48"/>
     <use xlink:href="#mfb56348a23" x="418.379741" y="80.056896" style="stroke: #ffffff; stroke-width: 0.48"/>
     <use xlink:href="#mfb56348a23" x="423.312125" y="71.529538" style="stroke: #ffffff; stroke-width: 0.48"/>
     <use xlink:href="#mfb56348a23" x="424.220592" y="75.678182" style="stroke: #ffffff; stroke-width: 0.48"/>
     <use xlink:href="#mfb56348a23" x="427.130787" y="67.408755" style="stroke: #ffffff; stroke-width: 0.48"/>
     <use xlink:href="#mfb56348a23" x="428.394188" y="74.485543" style="stroke: #ffffff; stroke-width: 0.48"/>
     <use xlink:href="#mfb56348a23" x="431.732798" y="84.697341" style="stroke: #ffffff; stroke-width: 0.48"/>
     <use xlink:href="#mfb56348a23" x="432.894093" y="64.01747" style="stroke: #ffffff; stroke-width: 0.48"/>
     <use xlink:href="#mfb56348a23" x="433.879567" y="63.93858" style="stroke: #ffffff; stroke-width: 0.48"/>
     <use xlink:href="#mfb56348a23" x="438.591916" y="71.691514" style="stroke: #ffffff; stroke-width: 0.48"/>
     <use xlink:href="#mfb56348a23" x="441.61939" y="75.28225" style="stroke: #ffffff; stroke-width: 0.48"/>
     <use xlink:href="#mfb56348a23" x="445.959405" y="76.328712" style="stroke: #ffffff; stroke-width: 0.48"/>
     <use xlink:href="#mfb56348a23" x="454.085761" y="84.235446" style="stroke: #ffffff; stroke-width: 0.48"/>
     <use xlink:href="#mfb56348a23" x="454.160468" y="79.939175" style="stroke: #ffffff; stroke-width: 0.48"/>
     <use xlink:href="#mfb56348a23" x="464.439127" y="87.439302" style="stroke: #ffffff; stroke-width: 0.48"/>
     <use xlink:href="#mfb56348a23" x="464.787074" y="101.957468" style="stroke: #ffffff; stroke-width: 0.48"/>
     <use xlink:href="#mfb56348a23" x="477.548688" y="114.886097" style="stroke: #ffffff; stroke-width: 0.48"/>
     <use xlink:href="#mfb56348a23" x="480.628972" y="109.148458" style="stroke: #ffffff; stroke-width: 0.48"/>
     <use xlink:href="#mfb56348a23" x="480.649141" y="111.245931" style="stroke: #ffffff; stroke-width: 0.48"/>
     <use xlink:href="#mfb56348a23" x="483.017451" y="118.765139" style="stroke: #ffffff; stroke-width: 0.48"/>
     <use xlink:href="#mfb56348a23" x="489.376035" y="130.060399" style="stroke: #ffffff; stroke-width: 0.48"/>
     <use xlink:href="#mfb56348a23" x="493.102116" y="115.732794" style="stroke: #ffffff; stroke-width: 0.48"/>
     <use xlink:href="#mfb56348a23" x="496.132545" y="125.466337" style="stroke: #ffffff; stroke-width: 0.48"/>
     <use xlink:href="#mfb56348a23" x="497.847971" y="130.860602" style="stroke: #ffffff; stroke-width: 0.48"/>
    </g>
   </g>
   <g id="PolyCollection_1">
    <defs>
     <path id="m5033403a07" d="M 83.910022 -144.307819 
L 83.910022 -126.541215 
L 85.990113 -124.209539 
L 88.070203 -121.887281 
L 90.150293 -119.614969 
L 92.230383 -117.283054 
L 94.310473 -115.02233 
L 96.390564 -112.659484 
L 98.470654 -110.236325 
L 100.550744 -107.831894 
L 102.630834 -105.496365 
L 104.710924 -103.018957 
L 106.791015 -100.615985 
L 108.871105 -98.341875 
L 110.951195 -96.082634 
L 113.031285 -93.892828 
L 115.111375 -91.75629 
L 117.191466 -89.670035 
L 119.271556 -87.693087 
L 121.351646 -85.83091 
L 123.431736 -84.004897 
L 125.511826 -82.208745 
L 127.591917 -80.516532 
L 129.672007 -78.965625 
L 131.752097 -77.497482 
L 133.832187 -76.10327 
L 135.912277 -74.849696 
L 137.992367 -73.613107 
L 140.072458 -72.492555 
L 142.152548 -71.39324 
L 144.232638 -70.404033 
L 146.312728 -69.511456 
L 148.392818 -68.681539 
L 150.472909 -67.925135 
L 152.552999 -67.24863 
L 154.633089 -66.641905 
L 156.713179 -66.089336 
L 158.793269 -65.56708 
L 160.87336 -65.099917 
L 162.95345 -64.754773 
L 165.03354 -64.475872 
L 167.11363 -64.18938 
L 169.19372 -63.950196 
L 171.273811 -63.814452 
L 173.353901 -63.682217 
L 175.433991 -63.633602 
L 177.514081 -63.66302 
L 179.594171 -63.731252 
L 181.674262 -63.888393 
L 183.754352 -64.08692 
L 185.834442 -64.423915 
L 187.914532 -64.830638 
L 189.994622 -65.341679 
L 192.074713 -65.922306 
L 194.154803 -66.518151 
L 196.234893 -67.263648 
L 198.314983 -68.064639 
L 200.395073 -68.952552 
L 202.475163 -69.917382 
L 204.555254 -70.973165 
L 206.635344 -72.084073 
L 208.715434 -73.310135 
L 210.795524 -74.582171 
L 212.875614 -75.904097 
L 214.955705 -77.259707 
L 217.035795 -78.735195 
L 219.115885 -80.30703 
L 221.195975 -81.876086 
L 223.276065 -83.514322 
L 225.356156 -85.235072 
L 227.436246 -86.979287 
L 229.516336 -88.761534 
L 231.596426 -90.634704 
L 233.676516 -92.508059 
L 235.756607 -94.405446 
L 237.836697 -96.357944 
L 239.916787 -98.316831 
L 241.996877 -100.319305 
L 244.076967 -102.369031 
L 246.157058 -104.477849 
L 248.237148 -106.582687 
L 250.317238 -108.749618 
L 252.397328 -110.925919 
L 254.477418 -113.086441 
L 256.557509 -115.281393 
L 258.637599 -117.463155 
L 260.717689 -119.725935 
L 262.797779 -121.957915 
L 264.877869 -124.207203 
L 266.957959 -126.525306 
L 269.03805 -128.828941 
L 271.11814 -131.126034 
L 273.19823 -133.488278 
L 275.27832 -135.814273 
L 277.35841 -138.218742 
L 279.438501 -140.614287 
L 281.518591 -143.05088 
L 283.598681 -145.482935 
L 285.678771 -147.939987 
L 287.758861 -150.413013 
L 289.838952 -152.908084 
L 291.919042 -155.420318 
L 293.999132 -157.925563 
L 296.079222 -160.458135 
L 298.159312 -162.971792 
L 300.239403 -165.453808 
L 302.319493 -167.957949 
L 304.399583 -170.515543 
L 306.479673 -173.050211 
L 308.559763 -175.569482 
L 310.639854 -178.059719 
L 312.719944 -180.539472 
L 314.800034 -183.017221 
L 316.880124 -185.419342 
L 318.960214 -187.827549 
L 321.040305 -190.203794 
L 323.120395 -192.60241 
L 325.200485 -194.889301 
L 327.280575 -197.227832 
L 329.360665 -199.495883 
L 331.440756 -201.728421 
L 333.520846 -203.904651 
L 335.600936 -206.09082 
L 337.681026 -208.19657 
L 339.761116 -210.269277 
L 341.841206 -212.277159 
L 343.921297 -214.254521 
L 346.001387 -216.102908 
L 348.081477 -217.989054 
L 350.161567 -219.762351 
L 352.241657 -221.492739 
L 354.321748 -223.184282 
L 356.401838 -224.826688 
L 358.481928 -226.414713 
L 360.562018 -227.923265 
L 362.642108 -229.383511 
L 364.722199 -230.747934 
L 366.802289 -232.082514 
L 368.882379 -233.370322 
L 370.962469 -234.620988 
L 373.042559 -235.744866 
L 375.12265 -236.795875 
L 377.20274 -237.714148 
L 379.28283 -238.633949 
L 381.36292 -239.378613 
L 383.44301 -240.112312 
L 385.523101 -240.65905 
L 387.603191 -241.209638 
L 389.683281 -241.678364 
L 391.763371 -241.932352 
L 393.843461 -242.103114 
L 395.923552 -274.802038 
L 398.003642 -275.557235 
L 400.083732 -276.232238 
L 402.163822 -276.922275 
L 404.243912 -277.502714 
L 406.324002 -278.041125 
L 408.404093 -278.464765 
L 410.484183 -278.906037 
L 412.564273 -279.138661 
L 414.644363 -279.343081 
L 416.724453 -279.357711 
L 418.804544 -279.30771 
L 420.884634 -279.228129 
L 422.964724 -278.948678 
L 425.044814 -278.654568 
L 427.124904 -278.176839 
L 429.204995 -277.588273 
L 431.285085 -276.835452 
L 433.365175 -275.963204 
L 435.445265 -274.99968 
L 437.525355 -273.774207 
L 439.605446 -272.439009 
L 441.685536 -271.147592 
L 443.765626 -269.579784 
L 445.845716 -268.136184 
L 447.925806 -266.493453 
L 450.005897 -264.90869 
L 452.085987 -263.219577 
L 454.166077 -261.501013 
L 456.246167 -259.735094 
L 458.326257 -257.899872 
L 460.406348 -256.108177 
L 462.486438 -254.302214 
L 464.566528 -252.444834 
L 466.646618 -250.611095 
L 468.726708 -248.677107 
L 470.806798 -246.814131 
L 472.886889 -244.912625 
L 474.966979 -243.017002 
L 477.047069 -241.048863 
L 479.127159 -239.052501 
L 481.207249 -236.967443 
L 483.28734 -234.658411 
L 485.36743 -232.228214 
L 487.44752 -229.693235 
L 489.52761 -226.719917 
L 491.6077 -223.604168 
L 493.687791 -220.320178 
L 495.767881 -217.012165 
L 497.847971 -213.256063 
L 497.847971 -233.16198 
L 497.847971 -233.16198 
L 495.767881 -234.601787 
L 493.687791 -236.113623 
L 491.6077 -237.726741 
L 489.52761 -239.630707 
L 487.44752 -241.544393 
L 485.36743 -243.597966 
L 483.28734 -245.790792 
L 481.207249 -247.955559 
L 479.127159 -250.134711 
L 477.047069 -252.443616 
L 474.966979 -254.605551 
L 472.886889 -256.883355 
L 470.806798 -259.009461 
L 468.726708 -261.055674 
L 466.646618 -263.046091 
L 464.566528 -264.937712 
L 462.486438 -266.754507 
L 460.406348 -268.556401 
L 458.326257 -270.24812 
L 456.246167 -271.803582 
L 454.166077 -273.305149 
L 452.085987 -274.751988 
L 450.005897 -276.04563 
L 447.925806 -277.375254 
L 445.845716 -278.702942 
L 443.765626 -279.923912 
L 441.685536 -281.049994 
L 439.605446 -282.087597 
L 437.525355 -283.130635 
L 435.445265 -284.181819 
L 433.365175 -285.197577 
L 431.285085 -286.182616 
L 429.204995 -287.233573 
L 427.124904 -288.292672 
L 425.044814 -289.383356 
L 422.964724 -290.402372 
L 420.884634 -291.310417 
L 418.804544 -292.362388 
L 416.724453 -293.349342 
L 414.644363 -294.174561 
L 412.564273 -294.990126 
L 410.484183 -295.713675 
L 408.404093 -296.403295 
L 406.324002 -296.972248 
L 404.243912 -297.508598 
L 402.163822 -297.986618 
L 400.083732 -298.242804 
L 398.003642 -298.427628 
L 395.923552 -298.542704 
L 393.843461 -255.896802 
L 391.763371 -255.141117 
L 389.683281 -254.35064 
L 387.603191 -253.426066 
L 385.523101 -252.442893 
L 383.44301 -251.408251 
L 381.36292 -250.336424 
L 379.28283 -249.171588 
L 377.20274 -247.946275 
L 375.12265 -246.744839 
L 373.042559 -245.40564 
L 370.962469 -244.122796 
L 368.882379 -242.668649 
L 366.802289 -241.26628 
L 364.722199 -239.729779 
L 362.642108 -238.142016 
L 360.562018 -236.502781 
L 358.481928 -234.796622 
L 356.401838 -233.034101 
L 354.321748 -231.209936 
L 352.241657 -229.411743 
L 350.161567 -227.588696 
L 348.081477 -225.73408 
L 346.001387 -223.76439 
L 343.921297 -221.832407 
L 341.841206 -219.773613 
L 339.761116 -217.746601 
L 337.681026 -215.668417 
L 335.600936 -213.590849 
L 333.520846 -211.456078 
L 331.440756 -209.340238 
L 329.360665 -207.125222 
L 327.280575 -204.951511 
L 325.200485 -202.691474 
L 323.120395 -200.464037 
L 321.040305 -198.176975 
L 318.960214 -195.872906 
L 316.880124 -193.53386 
L 314.800034 -191.220483 
L 312.719944 -188.876708 
L 310.639854 -186.482894 
L 308.559763 -184.108657 
L 306.479673 -181.712971 
L 304.399583 -179.263853 
L 302.319493 -176.839736 
L 300.239403 -174.421928 
L 298.159312 -171.964902 
L 296.079222 -169.499271 
L 293.999132 -167.033747 
L 291.919042 -164.547197 
L 289.838952 -162.049713 
L 287.758861 -159.589507 
L 285.678771 -157.091583 
L 283.598681 -154.564567 
L 281.518591 -152.061664 
L 279.438501 -149.558209 
L 277.35841 -147.068077 
L 275.27832 -144.622259 
L 273.19823 -142.151691 
L 271.11814 -139.676487 
L 269.03805 -137.224129 
L 266.957959 -134.819136 
L 264.877869 -132.415727 
L 262.797779 -130.00948 
L 260.717689 -127.660609 
L 258.637599 -125.329309 
L 256.557509 -123.033046 
L 254.477418 -120.815276 
L 252.397328 -118.624132 
L 250.317238 -116.419932 
L 248.237148 -114.309145 
L 246.157058 -112.230076 
L 244.076967 -110.180866 
L 241.996877 -108.11384 
L 239.916787 -106.16893 
L 237.836697 -104.246447 
L 235.756607 -102.389124 
L 233.676516 -100.579836 
L 231.596426 -98.778666 
L 229.516336 -97.065301 
L 227.436246 -95.414714 
L 225.356156 -93.789836 
L 223.276065 -92.218251 
L 221.195975 -90.649002 
L 219.115885 -89.16312 
L 217.035795 -87.778177 
L 214.955705 -86.426057 
L 212.875614 -85.061631 
L 210.795524 -83.730821 
L 208.715434 -82.535057 
L 206.635344 -81.338559 
L 204.555254 -80.20384 
L 202.475163 -79.2063 
L 200.395073 -78.245937 
L 198.314983 -77.330481 
L 196.234893 -76.437534 
L 194.154803 -75.647684 
L 192.074713 -74.90355 
L 189.994622 -74.217504 
L 187.914532 -73.606592 
L 185.834442 -73.07186 
L 183.754352 -72.624582 
L 181.674262 -72.271064 
L 179.594171 -72.000239 
L 177.514081 -71.80032 
L 175.433991 -71.683029 
L 173.353901 -71.619006 
L 171.273811 -71.665352 
L 169.19372 -71.800517 
L 167.11363 -72.058069 
L 165.03354 -72.45689 
L 162.95345 -72.905564 
L 160.87336 -73.327217 
L 158.793269 -73.884269 
L 156.713179 -74.503337 
L 154.633089 -75.227963 
L 152.552999 -76.034468 
L 150.472909 -76.949215 
L 148.392818 -77.96235 
L 146.312728 -78.966157 
L 144.232638 -80.081106 
L 142.152548 -81.322739 
L 140.072458 -82.516968 
L 137.992367 -83.83591 
L 135.912277 -85.208739 
L 133.832187 -86.636076 
L 131.752097 -88.11979 
L 129.672007 -89.685118 
L 127.591917 -91.269616 
L 125.511826 -92.867848 
L 123.431736 -94.583062 
L 121.351646 -96.317735 
L 119.271556 -98.107118 
L 117.191466 -99.989606 
L 115.111375 -102.018253 
L 113.031285 -104.176269 
L 110.951195 -106.272077 
L 108.871105 -108.472536 
L 106.791015 -110.766245 
L 104.710924 -113.113004 
L 102.630834 -115.542904 
L 100.550744 -118.175155 
L 98.470654 -120.837641 
L 96.390564 -123.733516 
L 94.310473 -126.730735 
L 92.230383 -129.812817 
L 90.150293 -133.131914 
L 88.070203 -136.601547 
L 85.990113 -140.370436 
L 83.910022 -144.307819 
z
" style="stroke: #fa7c17; stroke-opacity: 0.25"/>
    </defs>
    <g clip-path="url(#p03561ee633)">
     <use xlink:href="#m5033403a07" x="0" y="353.99952" style="fill: #fa7c17; fill-opacity: 0.25; stroke: #fa7c17; stroke-opacity: 0.25"/>
    </g>
   </g>
   <g id="PolyCollection_2">
    <defs>
     <path id="m2835446711" d="M 83.910022 -138.458228 
L 83.910022 -132.497509 
L 85.990113 -129.674953 
L 88.070203 -126.976224 
L 90.150293 -124.281108 
L 92.230383 -121.583276 
L 94.310473 -118.943494 
L 96.390564 -116.330708 
L 98.470654 -113.797623 
L 100.550744 -111.277307 
L 102.630834 -108.811924 
L 104.710924 -106.426071 
L 106.791015 -104.099019 
L 108.871105 -101.780646 
L 110.951195 -99.55838 
L 113.031285 -97.381998 
L 115.111375 -95.299919 
L 117.191466 -93.262878 
L 119.271556 -91.301001 
L 121.351646 -89.436456 
L 123.431736 -87.62014 
L 125.511826 -85.892301 
L 127.591917 -84.215562 
L 129.672007 -82.628203 
L 131.752097 -81.128708 
L 133.832187 -79.68283 
L 135.912277 -78.324231 
L 137.992367 -77.034347 
L 140.072458 -75.832196 
L 142.152548 -74.710413 
L 144.232638 -73.639836 
L 146.312728 -72.655471 
L 148.392818 -71.733369 
L 150.472909 -70.88738 
L 152.552999 -70.111919 
L 154.633089 -69.432407 
L 156.713179 -68.808297 
L 158.793269 -68.272523 
L 160.87336 -67.782677 
L 162.95345 -67.356914 
L 165.03354 -66.988023 
L 167.11363 -66.729309 
L 169.19372 -66.522491 
L 171.273811 -66.386304 
L 173.353901 -66.333103 
L 175.433991 -66.33806 
L 177.514081 -66.422964 
L 179.594171 -66.580801 
L 181.674262 -66.770402 
L 183.754352 -67.049288 
L 185.834442 -67.41256 
L 187.914532 -67.850929 
L 189.994622 -68.368615 
L 192.074713 -68.951331 
L 194.154803 -69.609921 
L 196.234893 -70.3703 
L 198.314983 -71.182789 
L 200.395073 -72.074815 
L 202.475163 -73.047789 
L 204.555254 -74.09639 
L 206.635344 -75.207771 
L 208.715434 -76.391603 
L 210.795524 -77.626049 
L 212.875614 -78.90459 
L 214.955705 -80.282597 
L 217.035795 -81.721214 
L 219.115885 -83.217922 
L 221.195975 -84.770974 
L 223.276065 -86.362938 
L 225.356156 -88.039483 
L 227.436246 -89.724294 
L 229.516336 -91.460044 
L 231.596426 -93.271344 
L 233.676516 -95.13448 
L 235.756607 -97.031067 
L 237.836697 -98.94815 
L 239.916787 -100.946815 
L 241.996877 -102.968907 
L 244.076967 -105.015298 
L 246.157058 -107.081768 
L 248.237148 -109.20591 
L 250.317238 -111.34991 
L 252.397328 -113.520154 
L 254.477418 -115.725462 
L 256.557509 -117.942486 
L 258.637599 -120.190598 
L 260.717689 -122.443849 
L 262.797779 -124.748165 
L 264.877869 -127.065371 
L 266.957959 -129.405319 
L 269.03805 -131.772969 
L 271.11814 -134.131858 
L 273.19823 -136.522881 
L 275.27832 -138.951119 
L 277.35841 -141.369576 
L 279.438501 -143.795336 
L 281.518591 -146.223439 
L 283.598681 -148.668624 
L 285.678771 -151.11888 
L 287.758861 -153.577437 
L 289.838952 -156.053489 
L 291.919042 -158.541059 
L 293.999132 -161.045688 
L 296.079222 -163.531562 
L 298.159312 -166.024003 
L 300.239403 -168.533567 
L 302.319493 -171.017749 
L 304.399583 -173.479255 
L 306.479673 -175.920942 
L 308.559763 -178.377157 
L 310.639854 -180.827217 
L 312.719944 -183.259387 
L 314.800034 -185.659668 
L 316.880124 -188.057993 
L 318.960214 -190.438675 
L 321.040305 -192.78219 
L 323.120395 -195.119839 
L 325.200485 -197.41113 
L 327.280575 -199.676888 
L 329.360665 -201.922721 
L 331.440756 -204.123828 
L 333.520846 -206.297669 
L 335.600936 -208.438835 
L 337.681026 -210.55847 
L 339.761116 -212.613203 
L 341.841206 -214.64275 
L 343.921297 -216.603446 
L 346.001387 -218.52486 
L 348.081477 -220.399799 
L 350.161567 -222.236297 
L 352.241657 -224.017455 
L 354.321748 -225.78117 
L 356.401838 -227.46134 
L 358.481928 -229.08722 
L 360.562018 -230.657344 
L 362.642108 -232.147997 
L 364.722199 -233.612026 
L 366.802289 -235.011194 
L 368.882379 -236.361577 
L 370.962469 -237.632249 
L 373.042559 -238.812425 
L 375.12265 -239.960164 
L 377.20274 -241.021616 
L 379.28283 -241.990739 
L 381.36292 -242.894473 
L 383.44301 -243.70549 
L 385.523101 -244.430809 
L 387.603191 -245.129654 
L 389.683281 -245.724286 
L 391.763371 -246.20857 
L 393.843461 -246.650786 
L 395.923552 -282.398411 
L 398.003642 -282.879861 
L 400.083732 -283.283487 
L 402.163822 -283.635684 
L 404.243912 -283.908286 
L 406.324002 -284.070858 
L 408.404093 -284.172748 
L 410.484183 -284.201002 
L 412.564273 -284.147395 
L 414.644363 -284.049084 
L 416.724453 -283.855908 
L 418.804544 -283.562118 
L 420.884634 -283.14462 
L 422.964724 -282.655064 
L 425.044814 -282.114227 
L 427.124904 -281.458005 
L 429.204995 -280.711183 
L 431.285085 -279.918827 
L 433.365175 -278.965001 
L 435.445265 -277.949698 
L 437.525355 -276.842944 
L 439.605446 -275.621039 
L 441.685536 -274.362581 
L 443.765626 -273.070323 
L 445.845716 -271.696815 
L 447.925806 -270.222958 
L 450.005897 -268.684647 
L 452.085987 -267.131697 
L 454.166077 -265.527327 
L 456.246167 -263.853272 
L 458.326257 -262.145808 
L 460.406348 -260.387556 
L 462.486438 -258.601672 
L 464.566528 -256.778338 
L 466.646618 -254.911928 
L 468.726708 -253.006477 
L 470.806798 -251.060738 
L 472.886889 -249.075908 
L 474.966979 -247.028018 
L 477.047069 -244.924184 
L 479.127159 -242.763117 
L 481.207249 -240.521075 
L 483.28734 -238.252976 
L 485.36743 -235.921923 
L 487.44752 -233.568761 
L 489.52761 -231.022549 
L 491.6077 -228.401516 
L 493.687791 -225.669187 
L 495.767881 -222.833282 
L 497.847971 -219.961052 
L 497.847971 -226.753343 
L 497.847971 -226.753343 
L 495.767881 -228.928214 
L 493.687791 -231.044534 
L 491.6077 -233.224132 
L 489.52761 -235.429524 
L 487.44752 -237.639263 
L 485.36743 -239.884194 
L 483.28734 -242.154675 
L 481.207249 -244.376557 
L 479.127159 -246.620506 
L 477.047069 -248.82602 
L 474.966979 -250.971299 
L 472.886889 -253.074522 
L 470.806798 -255.135458 
L 468.726708 -257.140325 
L 466.646618 -259.110021 
L 464.566528 -261.006976 
L 462.486438 -262.835804 
L 460.406348 -264.612751 
L 458.326257 -266.303855 
L 456.246167 -267.941395 
L 454.166077 -269.529194 
L 452.085987 -271.048872 
L 450.005897 -272.508581 
L 447.925806 -273.849164 
L 445.845716 -275.175344 
L 443.765626 -276.449075 
L 441.685536 -277.700812 
L 439.605446 -278.832871 
L 437.525355 -279.960638 
L 435.445265 -281.015573 
L 433.365175 -282.05888 
L 431.285085 -283.009512 
L 429.204995 -283.907626 
L 427.124904 -284.759665 
L 425.044814 -285.584514 
L 422.964724 -286.403566 
L 420.884634 -287.164736 
L 418.804544 -287.877147 
L 416.724453 -288.490232 
L 414.644363 -289.05767 
L 412.564273 -289.538472 
L 410.484183 -289.918367 
L 408.404093 -290.24614 
L 406.324002 -290.523398 
L 404.243912 -290.688996 
L 402.163822 -290.778171 
L 400.083732 -290.755367 
L 398.003642 -290.650891 
L 395.923552 -290.494256 
L 393.843461 -251.433406 
L 391.763371 -250.821565 
L 389.683281 -250.139573 
L 387.603191 -249.387392 
L 385.523101 -248.567668 
L 383.44301 -247.679647 
L 381.36292 -246.717456 
L 379.28283 -245.690724 
L 377.20274 -244.590931 
L 375.12265 -243.449069 
L 373.042559 -242.213652 
L 370.962469 -240.935868 
L 368.882379 -239.577799 
L 366.802289 -238.183848 
L 364.722199 -236.735878 
L 362.642108 -235.218837 
L 360.562018 -233.657741 
L 358.481928 -232.032407 
L 356.401838 -230.333215 
L 354.321748 -228.601529 
L 352.241657 -226.80965 
L 350.161567 -224.975303 
L 348.081477 -223.101013 
L 346.001387 -221.187835 
L 343.921297 -219.232617 
L 341.841206 -217.25781 
L 339.761116 -215.233892 
L 337.681026 -213.183898 
L 335.600936 -211.091658 
L 333.520846 -208.956321 
L 331.440756 -206.771941 
L 329.360665 -204.590439 
L 327.280575 -202.385072 
L 325.200485 -200.161645 
L 323.120395 -197.8728 
L 321.040305 -195.573805 
L 318.960214 -193.240181 
L 316.880124 -190.917783 
L 314.800034 -188.559173 
L 312.719944 -186.18284 
L 310.639854 -183.785634 
L 308.559763 -181.366148 
L 306.479673 -178.949921 
L 304.399583 -176.502399 
L 302.319493 -174.075778 
L 300.239403 -171.630484 
L 298.159312 -169.158176 
L 296.079222 -166.682394 
L 293.999132 -164.187454 
L 291.919042 -161.693755 
L 289.838952 -159.210797 
L 287.758861 -156.719893 
L 285.678771 -154.240785 
L 283.598681 -151.759133 
L 281.518591 -149.295158 
L 279.438501 -146.82341 
L 277.35841 -144.336636 
L 275.27832 -141.897863 
L 273.19823 -139.458082 
L 271.11814 -137.026168 
L 269.03805 -134.60722 
L 266.957959 -132.192625 
L 264.877869 -129.819563 
L 262.797779 -127.449107 
L 260.717689 -125.116149 
L 258.637599 -122.808738 
L 256.557509 -120.547838 
L 254.477418 -118.29858 
L 252.397328 -116.094937 
L 250.317238 -113.920455 
L 248.237148 -111.786152 
L 246.157058 -109.661329 
L 244.076967 -107.586091 
L 241.996877 -105.554075 
L 239.916787 -103.574545 
L 237.836697 -101.647108 
L 235.756607 -99.747575 
L 233.676516 -97.875089 
L 231.596426 -96.055937 
L 229.516336 -94.28884 
L 227.436246 -92.586991 
L 225.356156 -90.912265 
L 223.276065 -89.298089 
L 221.195975 -87.728784 
L 219.115885 -86.219873 
L 217.035795 -84.751546 
L 214.955705 -83.357446 
L 212.875614 -82.041204 
L 210.795524 -80.74952 
L 208.715434 -79.531388 
L 206.635344 -78.386667 
L 204.555254 -77.269043 
L 202.475163 -76.214839 
L 200.395073 -75.237135 
L 198.314983 -74.320671 
L 196.234893 -73.483421 
L 194.154803 -72.719456 
L 192.074713 -72.028613 
L 189.994622 -71.373985 
L 187.914532 -70.830057 
L 185.834442 -70.364636 
L 183.754352 -69.937899 
L 181.674262 -69.634425 
L 179.594171 -69.389003 
L 177.514081 -69.207782 
L 175.433991 -69.123699 
L 173.353901 -69.089195 
L 171.273811 -69.148122 
L 169.19372 -69.297263 
L 167.11363 -69.498359 
L 165.03354 -69.790926 
L 162.95345 -70.150656 
L 160.87336 -70.59234 
L 158.793269 -71.129178 
L 156.713179 -71.751869 
L 154.633089 -72.436254 
L 152.552999 -73.179269 
L 150.472909 -74.007891 
L 148.392818 -74.897146 
L 146.312728 -75.875375 
L 144.232638 -76.908439 
L 142.152548 -78.015511 
L 140.072458 -79.215235 
L 137.992367 -80.472764 
L 135.912277 -81.791787 
L 133.832187 -83.167118 
L 131.752097 -84.630258 
L 129.672007 -86.153181 
L 127.591917 -87.737598 
L 125.511826 -89.390541 
L 123.431736 -91.122018 
L 121.351646 -92.906389 
L 119.271556 -94.774342 
L 117.191466 -96.688053 
L 115.111375 -98.687688 
L 113.031285 -100.782817 
L 110.951195 -102.897731 
L 108.871105 -105.098308 
L 106.791015 -107.388992 
L 104.710924 -109.757919 
L 102.630834 -112.190901 
L 100.550744 -114.721353 
L 98.470654 -117.354177 
L 96.390564 -120.079991 
L 94.310473 -122.85532 
L 92.230383 -125.759054 
L 90.150293 -128.798054 
L 88.070203 -131.945745 
L 85.990113 -135.153682 
L 83.910022 -138.458228 
z
" style="stroke: #fa7c17; stroke-opacity: 0.5"/>
    </defs>
    <g clip-path="url(#p03561ee633)">
     <use xlink:href="#m2835446711" x="0" y="353.99952" style="fill: #fa7c17; fill-opacity: 0.5; stroke: #fa7c17; stroke-opacity: 0.5"/>
    </g>
   </g>
   <g id="line2d_31">
    <path d="M 83.910022 227.458305 
L 102.630834 248.503155 
L 106.791015 253.383535 
L 113.031285 260.106692 
L 117.191466 264.329485 
L 121.351646 268.16861 
L 125.511826 271.790775 
L 129.672007 275.033895 
L 133.832187 277.89625 
L 137.992367 280.386413 
L 142.152548 282.60628 
L 146.312728 284.488064 
L 150.472909 286.074385 
L 154.633089 287.357615 
L 158.793269 288.43244 
L 160.87336 288.899603 
L 165.03354 289.523648 
L 169.19372 290.049324 
L 175.433991 290.365918 
L 179.594171 290.268268 
L 183.754352 289.9126 
L 187.914532 289.168882 
L 192.074713 288.077214 
L 194.154803 287.481369 
L 198.314983 285.934881 
L 202.475163 284.082138 
L 206.635344 281.915447 
L 210.795524 279.417349 
L 214.955705 276.739813 
L 219.115885 273.69249 
L 223.276065 270.485198 
L 229.516336 265.237986 
L 237.836697 257.641576 
L 244.076967 251.630489 
L 252.397328 243.073601 
L 260.717689 234.273585 
L 266.957959 227.474214 
L 275.27832 218.185247 
L 285.678771 206.059533 
L 296.079222 193.541385 
L 314.800034 170.982299 
L 325.200485 159.110219 
L 329.360665 154.503637 
L 335.600936 147.9087 
L 341.841206 141.722361 
L 346.001387 137.896612 
L 350.161567 134.237169 
L 356.401838 129.172832 
L 360.562018 126.076255 
L 364.722199 123.251586 
L 370.962469 119.378532 
L 375.12265 117.203645 
L 379.28283 115.365571 
L 383.44301 113.887208 
L 389.683281 112.321156 
L 393.843461 111.896406 
L 395.923552 79.197482 
L 400.083732 77.767282 
L 404.243912 76.496806 
L 408.404093 75.534755 
L 410.484183 75.093483 
L 414.644363 74.656439 
L 418.804544 74.69181 
L 420.884634 74.771391 
L 425.044814 75.344952 
L 429.204995 76.411247 
L 431.285085 77.164068 
L 435.445265 78.99984 
L 439.605446 81.560511 
L 441.685536 82.851928 
L 452.085987 90.779943 
L 456.246167 94.264426 
L 472.886889 109.086895 
L 477.047069 112.950657 
L 481.207249 117.032077 
L 485.36743 121.771306 
L 487.44752 124.306285 
L 491.6077 130.395352 
L 495.767881 136.987355 
L 497.847971 140.743457 
L 497.847971 140.743457 
" clip-path="url(#p03561ee633)" style="fill: none; stroke: #fa7c17; stroke-opacity: 0; stroke-width: 1.5; stroke-linecap: round"/>
   </g>
   <g id="line2d_32">
    <path d="M 83.910022 209.691701 
L 88.070203 217.397973 
L 92.230383 224.186703 
L 96.390564 230.266004 
L 98.470654 233.161879 
L 102.630834 238.456616 
L 106.791015 243.233275 
L 110.951195 247.727443 
L 117.191466 254.009914 
L 121.351646 257.681785 
L 125.511826 261.131672 
L 131.752097 265.87973 
L 135.912277 268.790781 
L 140.072458 271.482552 
L 146.312728 275.033363 
L 152.552999 277.965052 
L 156.713179 279.496183 
L 160.87336 280.672303 
L 167.11363 281.941451 
L 169.19372 282.199003 
L 173.353901 282.380514 
L 177.514081 282.1992 
L 181.674262 281.728456 
L 185.834442 280.92766 
L 189.994622 279.782016 
L 194.154803 278.351836 
L 198.314983 276.669039 
L 202.475163 274.79322 
L 204.555254 273.79568 
L 210.795524 270.268699 
L 219.115885 264.8364 
L 223.276065 261.781269 
L 229.516336 256.934219 
L 233.676516 253.419684 
L 237.836697 249.753073 
L 241.996877 245.88568 
L 250.317238 237.579588 
L 258.637599 228.670211 
L 266.957959 219.180384 
L 273.19823 211.847829 
L 291.919042 189.452323 
L 302.319493 177.159784 
L 314.800034 162.779037 
L 327.280575 149.048009 
L 337.681026 138.331103 
L 343.921297 132.167113 
L 352.241657 124.587777 
L 360.562018 117.496739 
L 364.722199 114.269741 
L 368.882379 111.330871 
L 370.962469 109.876724 
L 379.28283 104.827932 
L 383.44301 102.591269 
L 387.603191 100.573454 
L 389.683281 99.64888 
L 393.843461 98.102718 
L 395.923552 55.456816 
L 400.083732 55.756716 
L 402.163822 56.012902 
L 406.324002 57.027272 
L 408.404093 57.596225 
L 412.564273 59.009394 
L 416.724453 60.650178 
L 427.124904 65.706848 
L 433.365175 68.801943 
L 441.685536 72.949526 
L 445.845716 75.296578 
L 454.166077 80.694371 
L 458.326257 83.7514 
L 462.486438 87.245013 
L 466.646618 90.953429 
L 470.806798 94.990059 
L 474.966979 99.393969 
L 479.127159 103.864809 
L 487.44752 112.455127 
L 491.6077 116.272779 
L 495.767881 119.397733 
L 497.847971 120.83754 
L 497.847971 120.83754 
" clip-path="url(#p03561ee633)" style="fill: none; stroke: #fa7c17; stroke-opacity: 0; stroke-width: 1.5; stroke-linecap: round"/>
   </g>
   <g id="line2d_33">
    <path d="M 83.910022 221.502011 
L 88.070203 227.023296 
L 96.390564 237.668812 
L 102.630834 245.187596 
L 108.871105 252.218874 
L 113.031285 256.617522 
L 117.191466 260.736642 
L 121.351646 264.563064 
L 125.511826 268.107219 
L 129.672007 271.371317 
L 133.832187 274.31669 
L 137.992367 276.965173 
L 142.152548 279.289107 
L 146.312728 281.344049 
L 150.472909 283.11214 
L 154.633089 284.567113 
L 158.793269 285.726997 
L 162.95345 286.642606 
L 167.11363 287.270211 
L 171.273811 287.613216 
L 175.433991 287.66146 
L 179.594171 287.418719 
L 183.754352 286.950232 
L 187.914532 286.148591 
L 192.074713 285.048189 
L 196.234893 283.62922 
L 200.395073 281.924705 
L 204.555254 279.90313 
L 208.715434 277.607917 
L 212.875614 275.09493 
L 217.035795 272.278306 
L 221.195975 269.228546 
L 225.356156 265.960037 
L 229.516336 262.539476 
L 235.756607 256.968453 
L 239.916787 253.052705 
L 246.157058 246.917752 
L 254.477418 238.274058 
L 262.797779 229.251355 
L 271.11814 219.867662 
L 281.518591 207.776081 
L 293.999132 192.953832 
L 312.719944 170.740133 
L 323.120395 158.879681 
L 331.440756 149.875692 
L 337.681026 143.44105 
L 343.921297 137.396074 
L 350.161567 131.763223 
L 356.401838 126.53818 
L 360.562018 123.342176 
L 366.802289 118.988326 
L 370.962469 116.367271 
L 375.12265 114.039356 
L 379.28283 112.008781 
L 383.44301 110.29403 
L 387.603191 108.869866 
L 391.763371 107.79095 
L 393.843461 107.348734 
L 395.923552 71.601109 
L 400.083732 70.716033 
L 404.243912 70.091234 
L 408.404093 69.826772 
L 412.564273 69.852125 
L 416.724453 70.143612 
L 418.804544 70.437402 
L 422.964724 71.344456 
L 425.044814 71.885293 
L 429.204995 73.288337 
L 431.285085 74.080693 
L 435.445265 76.049822 
L 439.605446 78.378481 
L 443.765626 80.929197 
L 447.925806 83.776562 
L 454.166077 88.472193 
L 460.406348 93.611964 
L 466.646618 99.087592 
L 472.886889 104.923612 
L 477.047069 109.075336 
L 481.207249 113.478445 
L 487.44752 120.430759 
L 491.6077 125.598004 
L 495.767881 131.166238 
L 497.847971 134.038468 
L 497.847971 134.038468 
" clip-path="url(#p03561ee633)" style="fill: none; stroke: #fa7c17; stroke-opacity: 0; stroke-width: 1.5; stroke-linecap: round"/>
   </g>
   <g id="line2d_34">
    <path d="M 83.910022 215.541292 
L 88.070203 222.053775 
L 92.230383 228.240466 
L 96.390564 233.919529 
L 100.550744 239.278167 
L 104.710924 244.241601 
L 108.871105 248.901212 
L 113.031285 253.216703 
L 117.191466 257.311467 
L 121.351646 261.093131 
L 125.511826 264.608979 
L 129.672007 267.846339 
L 133.832187 270.832402 
L 137.992367 273.526756 
L 142.152548 275.984009 
L 146.312728 278.124145 
L 150.472909 279.991629 
L 154.633089 281.563266 
L 158.793269 282.870342 
L 162.95345 283.848864 
L 167.11363 284.501161 
L 171.273811 284.851398 
L 175.433991 284.875821 
L 179.594171 284.610517 
L 183.754352 284.061621 
L 187.914532 283.169463 
L 192.074713 281.970907 
L 196.234893 280.516099 
L 200.395073 278.762385 
L 204.555254 276.730477 
L 208.715434 274.468132 
L 212.875614 271.958316 
L 217.035795 269.247974 
L 221.195975 266.270736 
L 225.356156 263.087255 
L 231.596426 257.943583 
L 237.836697 252.352412 
L 241.996877 248.445445 
L 248.237148 242.213368 
L 254.477418 235.70094 
L 262.797779 226.550413 
L 273.19823 214.541438 
L 285.678771 199.758735 
L 308.559763 172.633372 
L 316.880124 163.081737 
L 327.280575 151.614448 
L 335.600936 142.907862 
L 341.841206 136.74171 
L 348.081477 130.898507 
L 354.321748 125.397991 
L 360.562018 120.341779 
L 364.722199 117.263642 
L 368.882379 114.421721 
L 373.042559 111.785868 
L 377.20274 109.408589 
L 381.36292 107.282064 
L 385.523101 105.431852 
L 389.683281 103.859947 
L 393.843461 102.566114 
L 395.923552 63.505264 
L 400.083732 63.244153 
L 402.163822 63.221349 
L 406.324002 63.476122 
L 410.484183 64.081153 
L 414.644363 64.94185 
L 418.804544 66.122373 
L 422.964724 67.595954 
L 431.285085 70.990008 
L 435.445265 72.983947 
L 439.605446 75.166649 
L 443.765626 77.550445 
L 450.005897 81.490939 
L 454.166077 84.470326 
L 458.326257 87.695665 
L 462.486438 91.163716 
L 466.646618 94.889499 
L 472.886889 100.924998 
L 479.127159 107.379014 
L 493.687791 122.954986 
L 497.847971 127.246177 
L 497.847971 127.246177 
" clip-path="url(#p03561ee633)" style="fill: none; stroke: #fa7c17; stroke-opacity: 0; stroke-width: 1.5; stroke-linecap: round"/>
   </g>
   <g id="line2d_35">
    <path d="M 83.910022 218.552263 
L 90.150293 227.468716 
L 96.390564 235.785614 
L 100.550744 241.003042 
L 106.791015 248.325592 
L 110.951195 252.835618 
L 115.111375 257.044725 
L 119.271556 260.975692 
L 123.431736 264.623052 
L 127.591917 267.999109 
L 131.752097 271.113815 
L 135.912277 273.95107 
L 140.072458 276.485044 
L 144.232638 278.702559 
L 148.392818 280.689972 
L 152.552999 282.350755 
L 156.713179 283.716108 
L 160.87336 284.813308 
L 165.03354 285.615213 
L 169.19372 286.105451 
L 173.353901 286.319397 
L 177.514081 286.211433 
L 181.674262 285.832331 
L 185.834442 285.145634 
L 189.994622 284.154621 
L 194.154803 282.857758 
L 198.314983 281.280138 
L 202.475163 279.399912 
L 206.635344 277.26529 
L 210.795524 274.830478 
L 214.955705 272.173313 
L 219.115885 269.261876 
L 223.276065 266.155799 
L 227.436246 262.855979 
L 231.596426 259.325549 
L 237.836697 253.694982 
L 244.076967 247.687071 
L 252.397328 239.192691 
L 260.717689 230.184254 
L 269.03805 220.78337 
L 279.438501 208.671549 
L 296.079222 188.859987 
L 308.559763 174.09915 
L 318.960214 162.152426 
L 327.280575 152.976263 
L 335.600936 144.249385 
L 341.841206 138.038794 
L 348.081477 132.221911 
L 354.321748 126.794253 
L 358.481928 123.426419 
L 362.642108 120.284263 
L 366.802289 117.384349 
L 370.962469 114.709163 
L 375.12265 112.328425 
L 379.28283 110.171346 
L 383.44301 108.286932 
L 387.603191 106.730754 
L 391.763371 105.445059 
L 393.843461 104.938189 
L 395.923552 67.623082 
L 400.083732 67.019854 
L 404.243912 66.708441 
L 406.324002 66.698702 
L 410.484183 66.946996 
L 414.644363 67.475022 
L 418.804544 68.285354 
L 422.964724 69.373264 
L 427.124904 70.794413 
L 431.285085 72.562275 
L 435.445265 74.510326 
L 439.605446 76.735617 
L 443.765626 79.214915 
L 447.925806 81.93696 
L 452.085987 84.871149 
L 456.246167 88.06379 
L 460.406348 91.477998 
L 466.646618 97.009583 
L 470.806798 100.928281 
L 477.047069 107.162117 
L 485.36743 116.068975 
L 493.687791 125.586351 
L 497.847971 130.610958 
L 497.847971 130.610958 
" clip-path="url(#p03561ee633)" style="fill: none; stroke: #000000; stroke-width: 1.5; stroke-linecap: round"/>
   </g>
   <g id="line2d_36">
    <path d="M 395.293195 311.232957 
L 395.293195 43.277 
" clip-path="url(#p03561ee633)" style="fill: none; stroke: #ff0000; stroke-width: 3; stroke-linecap: round"/>
   </g>
   <g id="patch_3">
    <path d="M 63.213125 311.232957 
L 63.213125 43.277 
" style="fill: none"/>
   </g>
   <g id="patch_4">
    <path d="M 518.544868 311.232957 
L 518.544868 43.277 
" style="fill: none"/>
   </g>
   <g id="patch_5">
    <path d="M 63.213125 311.232957 
L 518.544868 311.232957 
" style="fill: none"/>
   </g>
   <g id="patch_6">
    <path d="M 63.213125 43.277 
L 518.544868 43.277 
" style="fill: none"/>
   </g>
   <g id="text_18">
    <!-- $R^2$ on all data = 0.987 -->
    <g style="fill: #262626" transform="translate(201.278997 19.3575) scale(0.16 -0.16)">
     <defs>
      <path id="DejaVuSans-Oblique-52" d="M 1613 4147 
L 1294 2491 
L 2106 2491 
Q 2584 2491 2879 2755 
Q 3175 3019 3175 3444 
Q 3175 3784 2976 3965 
Q 2778 4147 2406 4147 
L 1613 4147 
z
M 2772 2241 
Q 2972 2194 3105 2009 
Q 3238 1825 3413 1275 
L 3809 0 
L 3144 0 
L 2778 1197 
Q 2638 1659 2453 1815 
Q 2269 1972 1888 1972 
L 1191 1972 
L 806 0 
L 172 0 
L 1081 4666 
L 2503 4666 
Q 3150 4666 3495 4373 
Q 3841 4081 3841 3531 
Q 3841 3044 3547 2687 
Q 3253 2331 2772 2241 
z
" transform="scale(0.015625)"/>
      <path id="DejaVuSans-20" transform="scale(0.015625)"/>
      <path id="DejaVuSans-6f" d="M 1959 3097 
Q 1497 3097 1228 2736 
Q 959 2375 959 1747 
Q 959 1119 1226 758 
Q 1494 397 1959 397 
Q 2419 397 2687 759 
Q 2956 1122 2956 1747 
Q 2956 2369 2687 2733 
Q 2419 3097 1959 3097 
z
M 1959 3584 
Q 2709 3584 3137 3096 
Q 3566 2609 3566 1747 
Q 3566 888 3137 398 
Q 2709 -91 1959 -91 
Q 1206 -91 779 398 
Q 353 888 353 1747 
Q 353 2609 779 3096 
Q 1206 3584 1959 3584 
z
" transform="scale(0.015625)"/>
      <path id="DejaVuSans-6e" d="M 3513 2113 
L 3513 0 
L 2938 0 
L 2938 2094 
Q 2938 2591 2744 2837 
Q 2550 3084 2163 3084 
Q 1697 3084 1428 2787 
Q 1159 2491 1159 1978 
L 1159 0 
L 581 0 
L 581 3500 
L 1159 3500 
L 1159 2956 
Q 1366 3272 1645 3428 
Q 1925 3584 2291 3584 
Q 2894 3584 3203 3211 
Q 3513 2838 3513 2113 
z
" transform="scale(0.015625)"/>
      <path id="DejaVuSans-61" d="M 2194 1759 
Q 1497 1759 1228 1600 
Q 959 1441 959 1056 
Q 959 750 1161 570 
Q 1363 391 1709 391 
Q 2188 391 2477 730 
Q 2766 1069 2766 1631 
L 2766 1759 
L 2194 1759 
z
M 3341 1997 
L 3341 0 
L 2766 0 
L 2766 531 
Q 2569 213 2275 61 
Q 1981 -91 1556 -91 
Q 1019 -91 701 211 
Q 384 513 384 1019 
Q 384 1609 779 1909 
Q 1175 2209 1959 2209 
L 2766 2209 
L 2766 2266 
Q 2766 2663 2505 2880 
Q 2244 3097 1772 3097 
Q 1472 3097 1187 3025 
Q 903 2953 641 2809 
L 641 3341 
Q 956 3463 1253 3523 
Q 1550 3584 1831 3584 
Q 2591 3584 2966 3190 
Q 3341 2797 3341 1997 
z
" transform="scale(0.015625)"/>
      <path id="DejaVuSans-6c" d="M 603 4863 
L 1178 4863 
L 1178 0 
L 603 0 
L 603 4863 
z
" transform="scale(0.015625)"/>
      <path id="DejaVuSans-64" d="M 2906 2969 
L 2906 4863 
L 3481 4863 
L 3481 0 
L 2906 0 
L 2906 525 
Q 2725 213 2448 61 
Q 2172 -91 1784 -91 
Q 1150 -91 751 415 
Q 353 922 353 1747 
Q 353 2572 751 3078 
Q 1150 3584 1784 3584 
Q 2172 3584 2448 3432 
Q 2725 3281 2906 2969 
z
M 947 1747 
Q 947 1113 1208 752 
Q 1469 391 1925 391 
Q 2381 391 2643 752 
Q 2906 1113 2906 1747 
Q 2906 2381 2643 2742 
Q 2381 3103 1925 3103 
Q 1469 3103 1208 2742 
Q 947 2381 947 1747 
z
" transform="scale(0.015625)"/>
      <path id="DejaVuSans-74" d="M 1172 4494 
L 1172 3500 
L 2356 3500 
L 2356 3053 
L 1172 3053 
L 1172 1153 
Q 1172 725 1289 603 
Q 1406 481 1766 481 
L 2356 481 
L 2356 0 
L 1766 0 
Q 1100 0 847 248 
Q 594 497 594 1153 
L 594 3053 
L 172 3053 
L 172 3500 
L 594 3500 
L 594 4494 
L 1172 4494 
z
" transform="scale(0.015625)"/>
      <path id="DejaVuSans-3d" d="M 678 2906 
L 4684 2906 
L 4684 2381 
L 678 2381 
L 678 2906 
z
M 678 1631 
L 4684 1631 
L 4684 1100 
L 678 1100 
L 678 1631 
z
" transform="scale(0.015625)"/>
      <path id="DejaVuSans-39" d="M 703 97 
L 703 672 
Q 941 559 1184 500 
Q 1428 441 1663 441 
Q 2288 441 2617 861 
Q 2947 1281 2994 2138 
Q 2813 1869 2534 1725 
Q 2256 1581 1919 1581 
Q 1219 1581 811 2004 
Q 403 2428 403 3163 
Q 403 3881 828 4315 
Q 1253 4750 1959 4750 
Q 2769 4750 3195 4129 
Q 3622 3509 3622 2328 
Q 3622 1225 3098 567 
Q 2575 -91 1691 -91 
Q 1453 -91 1209 -44 
Q 966 3 703 97 
z
M 1959 2075 
Q 2384 2075 2632 2365 
Q 2881 2656 2881 3163 
Q 2881 3666 2632 3958 
Q 2384 4250 1959 4250 
Q 1534 4250 1286 3958 
Q 1038 3666 1038 3163 
Q 1038 2656 1286 2365 
Q 1534 2075 1959 2075 
z
" transform="scale(0.015625)"/>
      <path id="DejaVuSans-38" d="M 2034 2216 
Q 1584 2216 1326 1975 
Q 1069 1734 1069 1313 
Q 1069 891 1326 650 
Q 1584 409 2034 409 
Q 2484 409 2743 651 
Q 3003 894 3003 1313 
Q 3003 1734 2745 1975 
Q 2488 2216 2034 2216 
z
M 1403 2484 
Q 997 2584 770 2862 
Q 544 3141 544 3541 
Q 544 4100 942 4425 
Q 1341 4750 2034 4750 
Q 2731 4750 3128 4425 
Q 3525 4100 3525 3541 
Q 3525 3141 3298 2862 
Q 3072 2584 2669 2484 
Q 3125 2378 3379 2068 
Q 3634 1759 3634 1313 
Q 3634 634 3220 271 
Q 2806 -91 2034 -91 
Q 1263 -91 848 271 
Q 434 634 434 1313 
Q 434 1759 690 2068 
Q 947 2378 1403 2484 
z
M 1172 3481 
Q 1172 3119 1398 2916 
Q 1625 2713 2034 2713 
Q 2441 2713 2670 2916 
Q 2900 3119 2900 3481 
Q 2900 3844 2670 4047 
Q 2441 4250 2034 4250 
Q 1625 4250 1398 4047 
Q 1172 3844 1172 3481 
z
" transform="scale(0.015625)"/>
     </defs>
     <use xlink:href="#DejaVuSans-Oblique-52" transform="translate(0 0.765625)"/>
     <use xlink:href="#DejaVuSans-32" transform="translate(76.499193 39.046875) scale(0.7)"/>
     <use xlink:href="#DejaVuSans-20" transform="translate(123.769701 0.765625)"/>
     <use xlink:href="#DejaVuSans-6f" transform="translate(155.55681 0.765625)"/>
     <use xlink:href="#DejaVuSans-6e" transform="translate(216.738451 0.765625)"/>
     <use xlink:href="#DejaVuSans-20" transform="translate(280.117357 0.765625)"/>
     <use xlink:href="#DejaVuSans-61" transform="translate(311.904466 0.765625)"/>
     <use xlink:href="#DejaVuSans-6c" transform="translate(373.183763 0.765625)"/>
     <use xlink:href="#DejaVuSans-6c" transform="translate(400.966966 0.765625)"/>
     <use xlink:href="#DejaVuSans-20" transform="translate(428.750169 0.765625)"/>
     <use xlink:href="#DejaVuSans-64" transform="translate(460.537279 0.765625)"/>
     <use xlink:href="#DejaVuSans-61" transform="translate(524.013841 0.765625)"/>
     <use xlink:href="#DejaVuSans-74" transform="translate(585.293138 0.765625)"/>
     <use xlink:href="#DejaVuSans-61" transform="translate(624.502122 0.765625)"/>
     <use xlink:href="#DejaVuSans-20" transform="translate(685.781419 0.765625)"/>
     <use xlink:href="#DejaVuSans-3d" transform="translate(717.568529 0.765625)"/>
     <use xlink:href="#DejaVuSans-20" transform="translate(801.357591 0.765625)"/>
     <use xlink:href="#DejaVuSans-30" transform="translate(833.144701 0.765625)"/>
     <use xlink:href="#DejaVuSans-2e" transform="translate(896.767747 0.765625)"/>
     <use xlink:href="#DejaVuSans-39" transform="translate(928.554857 0.765625)"/>
     <use xlink:href="#DejaVuSans-38" transform="translate(992.177904 0.765625)"/>
     <use xlink:href="#DejaVuSans-37" transform="translate(1055.800951 0.765625)"/>
    </g>
    <!-- Discontinuity at threshold = 0.41, $CI_{94\%}$[0.24, 0.60] -->
    <g style="fill: #262626" transform="translate(85.518997 37.277) scale(0.16 -0.16)">
     <defs>
      <path id="DejaVuSans-44" d="M 1259 4147 
L 1259 519 
L 2022 519 
Q 2988 519 3436 956 
Q 3884 1394 3884 2338 
Q 3884 3275 3436 3711 
Q 2988 4147 2022 4147 
L 1259 4147 
z
M 628 4666 
L 1925 4666 
Q 3281 4666 3915 4102 
Q 4550 3538 4550 2338 
Q 4550 1131 3912 565 
Q 3275 0 1925 0 
L 628 0 
L 628 4666 
z
" transform="scale(0.015625)"/>
      <path id="DejaVuSans-69" d="M 603 3500 
L 1178 3500 
L 1178 0 
L 603 0 
L 603 3500 
z
M 603 4863 
L 1178 4863 
L 1178 4134 
L 603 4134 
L 603 4863 
z
" transform="scale(0.015625)"/>
      <path id="DejaVuSans-73" d="M 2834 3397 
L 2834 2853 
Q 2591 2978 2328 3040 
Q 2066 3103 1784 3103 
Q 1356 3103 1142 2972 
Q 928 2841 928 2578 
Q 928 2378 1081 2264 
Q 1234 2150 1697 2047 
L 1894 2003 
Q 2506 1872 2764 1633 
Q 3022 1394 3022 966 
Q 3022 478 2636 193 
Q 2250 -91 1575 -91 
Q 1294 -91 989 -36 
Q 684 19 347 128 
L 347 722 
Q 666 556 975 473 
Q 1284 391 1588 391 
Q 1994 391 2212 530 
Q 2431 669 2431 922 
Q 2431 1156 2273 1281 
Q 2116 1406 1581 1522 
L 1381 1569 
Q 847 1681 609 1914 
Q 372 2147 372 2553 
Q 372 3047 722 3315 
Q 1072 3584 1716 3584 
Q 2034 3584 2315 3537 
Q 2597 3491 2834 3397 
z
" transform="scale(0.015625)"/>
      <path id="DejaVuSans-63" d="M 3122 3366 
L 3122 2828 
Q 2878 2963 2633 3030 
Q 2388 3097 2138 3097 
Q 1578 3097 1268 2742 
Q 959 2388 959 1747 
Q 959 1106 1268 751 
Q 1578 397 2138 397 
Q 2388 397 2633 464 
Q 2878 531 3122 666 
L 3122 134 
Q 2881 22 2623 -34 
Q 2366 -91 2075 -91 
Q 1284 -91 818 406 
Q 353 903 353 1747 
Q 353 2603 823 3093 
Q 1294 3584 2113 3584 
Q 2378 3584 2631 3529 
Q 2884 3475 3122 3366 
z
" transform="scale(0.015625)"/>
      <path id="DejaVuSans-75" d="M 544 1381 
L 544 3500 
L 1119 3500 
L 1119 1403 
Q 1119 906 1312 657 
Q 1506 409 1894 409 
Q 2359 409 2629 706 
Q 2900 1003 2900 1516 
L 2900 3500 
L 3475 3500 
L 3475 0 
L 2900 0 
L 2900 538 
Q 2691 219 2414 64 
Q 2138 -91 1772 -91 
Q 1169 -91 856 284 
Q 544 659 544 1381 
z
M 1991 3584 
L 1991 3584 
z
" transform="scale(0.015625)"/>
      <path id="DejaVuSans-68" d="M 3513 2113 
L 3513 0 
L 2938 0 
L 2938 2094 
Q 2938 2591 2744 2837 
Q 2550 3084 2163 3084 
Q 1697 3084 1428 2787 
Q 1159 2491 1159 1978 
L 1159 0 
L 581 0 
L 581 4863 
L 1159 4863 
L 1159 2956 
Q 1366 3272 1645 3428 
Q 1925 3584 2291 3584 
Q 2894 3584 3203 3211 
Q 3513 2838 3513 2113 
z
" transform="scale(0.015625)"/>
      <path id="DejaVuSans-72" d="M 2631 2963 
Q 2534 3019 2420 3045 
Q 2306 3072 2169 3072 
Q 1681 3072 1420 2755 
Q 1159 2438 1159 1844 
L 1159 0 
L 581 0 
L 581 3500 
L 1159 3500 
L 1159 2956 
Q 1341 3275 1631 3429 
Q 1922 3584 2338 3584 
Q 2397 3584 2469 3576 
Q 2541 3569 2628 3553 
L 2631 2963 
z
" transform="scale(0.015625)"/>
      <path id="DejaVuSans-65" d="M 3597 1894 
L 3597 1613 
L 953 1613 
Q 991 1019 1311 708 
Q 1631 397 2203 397 
Q 2534 397 2845 478 
Q 3156 559 3463 722 
L 3463 178 
Q 3153 47 2828 -22 
Q 2503 -91 2169 -91 
Q 1331 -91 842 396 
Q 353 884 353 1716 
Q 353 2575 817 3079 
Q 1281 3584 2069 3584 
Q 2775 3584 3186 3129 
Q 3597 2675 3597 1894 
z
M 3022 2063 
Q 3016 2534 2758 2815 
Q 2500 3097 2075 3097 
Q 1594 3097 1305 2825 
Q 1016 2553 972 2059 
L 3022 2063 
z
" transform="scale(0.015625)"/>
      <path id="DejaVuSans-34" d="M 2419 4116 
L 825 1625 
L 2419 1625 
L 2419 4116 
z
M 2253 4666 
L 3047 4666 
L 3047 1625 
L 3713 1625 
L 3713 1100 
L 3047 1100 
L 3047 0 
L 2419 0 
L 2419 1100 
L 313 1100 
L 313 1709 
L 2253 4666 
z
" transform="scale(0.015625)"/>
      <path id="DejaVuSans-2c" d="M 750 794 
L 1409 794 
L 1409 256 
L 897 -744 
L 494 -744 
L 750 256 
L 750 794 
z
" transform="scale(0.015625)"/>
      <path id="DejaVuSans-Oblique-43" d="M 4447 4306 
L 4319 3641 
Q 4019 3944 3683 4091 
Q 3347 4238 2956 4238 
Q 2422 4238 2017 3981 
Q 1613 3725 1319 3200 
Q 1131 2863 1032 2486 
Q 934 2109 934 1728 
Q 934 1091 1264 756 
Q 1594 422 2222 422 
Q 2656 422 3056 561 
Q 3456 700 3834 978 
L 3688 231 
Q 3316 72 2936 -9 
Q 2556 -91 2175 -91 
Q 1278 -91 773 396 
Q 269 884 269 1753 
Q 269 2309 461 2846 
Q 653 3384 1013 3828 
Q 1394 4300 1883 4525 
Q 2372 4750 3022 4750 
Q 3422 4750 3780 4639 
Q 4138 4528 4447 4306 
z
" transform="scale(0.015625)"/>
      <path id="DejaVuSans-Oblique-49" d="M 1081 4666 
L 1716 4666 
L 806 0 
L 172 0 
L 1081 4666 
z
" transform="scale(0.015625)"/>
      <path id="DejaVuSans-25" d="M 4653 2053 
Q 4381 2053 4226 1822 
Q 4072 1591 4072 1178 
Q 4072 772 4226 539 
Q 4381 306 4653 306 
Q 4919 306 5073 539 
Q 5228 772 5228 1178 
Q 5228 1588 5073 1820 
Q 4919 2053 4653 2053 
z
M 4653 2450 
Q 5147 2450 5437 2106 
Q 5728 1763 5728 1178 
Q 5728 594 5436 251 
Q 5144 -91 4653 -91 
Q 4153 -91 3862 251 
Q 3572 594 3572 1178 
Q 3572 1766 3864 2108 
Q 4156 2450 4653 2450 
z
M 1428 4353 
Q 1159 4353 1004 4120 
Q 850 3888 850 3481 
Q 850 3069 1003 2837 
Q 1156 2606 1428 2606 
Q 1700 2606 1854 2837 
Q 2009 3069 2009 3481 
Q 2009 3884 1853 4118 
Q 1697 4353 1428 4353 
z
M 4250 4750 
L 4750 4750 
L 1831 -91 
L 1331 -91 
L 4250 4750 
z
M 1428 4750 
Q 1922 4750 2215 4408 
Q 2509 4066 2509 3481 
Q 2509 2891 2217 2550 
Q 1925 2209 1428 2209 
Q 931 2209 642 2551 
Q 353 2894 353 3481 
Q 353 4063 643 4406 
Q 934 4750 1428 4750 
z
" transform="scale(0.015625)"/>
      <path id="DejaVuSans-5b" d="M 550 4863 
L 1875 4863 
L 1875 4416 
L 1125 4416 
L 1125 -397 
L 1875 -397 
L 1875 -844 
L 550 -844 
L 550 4863 
z
" transform="scale(0.015625)"/>
      <path id="DejaVuSans-36" d="M 2113 2584 
Q 1688 2584 1439 2293 
Q 1191 2003 1191 1497 
Q 1191 994 1439 701 
Q 1688 409 2113 409 
Q 2538 409 2786 701 
Q 3034 994 3034 1497 
Q 3034 2003 2786 2293 
Q 2538 2584 2113 2584 
z
M 3366 4563 
L 3366 3988 
Q 3128 4100 2886 4159 
Q 2644 4219 2406 4219 
Q 1781 4219 1451 3797 
Q 1122 3375 1075 2522 
Q 1259 2794 1537 2939 
Q 1816 3084 2150 3084 
Q 2853 3084 3261 2657 
Q 3669 2231 3669 1497 
Q 3669 778 3244 343 
Q 2819 -91 2113 -91 
Q 1303 -91 875 529 
Q 447 1150 447 2328 
Q 447 3434 972 4092 
Q 1497 4750 2381 4750 
Q 2619 4750 2861 4703 
Q 3103 4656 3366 4563 
z
" transform="scale(0.015625)"/>
      <path id="DejaVuSans-5d" d="M 1947 4863 
L 1947 -844 
L 622 -844 
L 622 -397 
L 1369 -397 
L 1369 4416 
L 622 4416 
L 622 4863 
L 1947 4863 
z
" transform="scale(0.015625)"/>
     </defs>
     <use xlink:href="#DejaVuSans-44" transform="translate(0 0.015625)"/>
     <use xlink:href="#DejaVuSans-69" transform="translate(77.001953 0.015625)"/>
     <use xlink:href="#DejaVuSans-73" transform="translate(104.785156 0.015625)"/>
     <use xlink:href="#DejaVuSans-63" transform="translate(156.884766 0.015625)"/>
     <use xlink:href="#DejaVuSans-6f" transform="translate(211.865234 0.015625)"/>
     <use xlink:href="#DejaVuSans-6e" transform="translate(273.046875 0.015625)"/>
     <use xlink:href="#DejaVuSans-74" transform="translate(336.425781 0.015625)"/>
     <use xlink:href="#DejaVuSans-69" transform="translate(375.634766 0.015625)"/>
     <use xlink:href="#DejaVuSans-6e" transform="translate(403.417969 0.015625)"/>
     <use xlink:href="#DejaVuSans-75" transform="translate(466.796875 0.015625)"/>
     <use xlink:href="#DejaVuSans-69" transform="translate(530.175781 0.015625)"/>
     <use xlink:href="#DejaVuSans-74" transform="translate(557.958984 0.015625)"/>
     <use xlink:href="#DejaVuSans-79" transform="translate(597.167969 0.015625)"/>
     <use xlink:href="#DejaVuSans-20" transform="translate(656.347656 0.015625)"/>
     <use xlink:href="#DejaVuSans-61" transform="translate(688.134766 0.015625)"/>
     <use xlink:href="#DejaVuSans-74" transform="translate(749.414062 0.015625)"/>
     <use xlink:href="#DejaVuSans-20" transform="translate(788.623047 0.015625)"/>
     <use xlink:href="#DejaVuSans-74" transform="translate(820.410156 0.015625)"/>
     <use xlink:href="#DejaVuSans-68" transform="translate(859.619141 0.015625)"/>
     <use xlink:href="#DejaVuSans-72" transform="translate(922.998047 0.015625)"/>
     <use xlink:href="#DejaVuSans-65" transform="translate(964.111328 0.015625)"/>
     <use xlink:href="#DejaVuSans-73" transform="translate(1025.634766 0.015625)"/>
     <use xlink:href="#DejaVuSans-68" transform="translate(1077.734375 0.015625)"/>
     <use xlink:href="#DejaVuSans-6f" transform="translate(1141.113281 0.015625)"/>
     <use xlink:href="#DejaVuSans-6c" transform="translate(1202.294922 0.015625)"/>
     <use xlink:href="#DejaVuSans-64" transform="translate(1230.078125 0.015625)"/>
     <use xlink:href="#DejaVuSans-20" transform="translate(1293.554688 0.015625)"/>
     <use xlink:href="#DejaVuSans-3d" transform="translate(1325.341797 0.015625)"/>
     <use xlink:href="#DejaVuSans-20" transform="translate(1409.130859 0.015625)"/>
     <use xlink:href="#DejaVuSans-30" transform="translate(1440.917969 0.015625)"/>
     <use xlink:href="#DejaVuSans-2e" transform="translate(1504.541016 0.015625)"/>
     <use xlink:href="#DejaVuSans-34" transform="translate(1536.328125 0.015625)"/>
     <use xlink:href="#DejaVuSans-31" transform="translate(1599.951172 0.015625)"/>
     <use xlink:href="#DejaVuSans-2c" transform="translate(1663.574219 0.015625)"/>
     <use xlink:href="#DejaVuSans-20" transform="translate(1695.361328 0.015625)"/>
     <use xlink:href="#DejaVuSans-Oblique-43" transform="translate(1727.148438 0.015625)"/>
     <use xlink:href="#DejaVuSans-Oblique-49" transform="translate(1796.972656 0.015625)"/>
     <use xlink:href="#DejaVuSans-39" transform="translate(1826.464844 -16.390625) scale(0.7)"/>
     <use xlink:href="#DejaVuSans-34" transform="translate(1871.000977 -16.390625) scale(0.7)"/>
     <use xlink:href="#DejaVuSans-25" transform="translate(1915.537109 -16.390625) scale(0.7)"/>
     <use xlink:href="#DejaVuSans-5b" transform="translate(1984.785156 0.015625)"/>
     <use xlink:href="#DejaVuSans-30" transform="translate(2023.798828 0.015625)"/>
     <use xlink:href="#DejaVuSans-2e" transform="translate(2087.421875 0.015625)"/>
     <use xlink:href="#DejaVuSans-32" transform="translate(2113.708984 0.015625)"/>
     <use xlink:href="#DejaVuSans-34" transform="translate(2177.332031 0.015625)"/>
     <use xlink:href="#DejaVuSans-2c" transform="translate(2240.955078 0.015625)"/>
     <use xlink:href="#DejaVuSans-20" transform="translate(2272.742188 0.015625)"/>
     <use xlink:href="#DejaVuSans-30" transform="translate(2304.529297 0.015625)"/>
     <use xlink:href="#DejaVuSans-2e" transform="translate(2368.152344 0.015625)"/>
     <use xlink:href="#DejaVuSans-36" transform="translate(2399.939453 0.015625)"/>
     <use xlink:href="#DejaVuSans-30" transform="translate(2463.5625 0.015625)"/>
     <use xlink:href="#DejaVuSans-5d" transform="translate(2527.185547 0.015625)"/>
    </g>
   </g>
   <g id="legend_1">
    <g id="line2d_37">
     <path d="M 74.013125 58.995125 
L 86.013125 58.995125 
L 98.013125 58.995125 
" style="fill: none; stroke: #ff0000; stroke-width: 3; stroke-linecap: round"/>
    </g>
    <g id="text_19">
     <!-- treatment threshold -->
     <g style="fill: #262626" transform="translate(107.613125 63.195125) scale(0.12 -0.12)">
      <defs>
       <path id="DejaVuSans-6d" d="M 3328 2828 
Q 3544 3216 3844 3400 
Q 4144 3584 4550 3584 
Q 5097 3584 5394 3201 
Q 5691 2819 5691 2113 
L 5691 0 
L 5113 0 
L 5113 2094 
Q 5113 2597 4934 2840 
Q 4756 3084 4391 3084 
Q 3944 3084 3684 2787 
Q 3425 2491 3425 1978 
L 3425 0 
L 2847 0 
L 2847 2094 
Q 2847 2600 2669 2842 
Q 2491 3084 2119 3084 
Q 1678 3084 1418 2786 
Q 1159 2488 1159 1978 
L 1159 0 
L 581 0 
L 581 3500 
L 1159 3500 
L 1159 2956 
Q 1356 3278 1631 3431 
Q 1906 3584 2284 3584 
Q 2666 3584 2933 3390 
Q 3200 3197 3328 2828 
z
" transform="scale(0.015625)"/>
      </defs>
      <use xlink:href="#DejaVuSans-74"/>
      <use xlink:href="#DejaVuSans-72" x="39.208984"/>
      <use xlink:href="#DejaVuSans-65" x="78.072266"/>
      <use xlink:href="#DejaVuSans-61" x="139.595703"/>
      <use xlink:href="#DejaVuSans-74" x="200.875"/>
      <use xlink:href="#DejaVuSans-6d" x="240.083984"/>
      <use xlink:href="#DejaVuSans-65" x="337.496094"/>
      <use xlink:href="#DejaVuSans-6e" x="399.019531"/>
      <use xlink:href="#DejaVuSans-74" x="462.398438"/>
      <use xlink:href="#DejaVuSans-20" x="501.607422"/>
      <use xlink:href="#DejaVuSans-74" x="533.394531"/>
      <use xlink:href="#DejaVuSans-68" x="572.603516"/>
      <use xlink:href="#DejaVuSans-72" x="635.982422"/>
      <use xlink:href="#DejaVuSans-65" x="674.845703"/>
      <use xlink:href="#DejaVuSans-73" x="736.369141"/>
      <use xlink:href="#DejaVuSans-68" x="788.46875"/>
      <use xlink:href="#DejaVuSans-6f" x="851.847656"/>
      <use xlink:href="#DejaVuSans-6c" x="913.029297"/>
      <use xlink:href="#DejaVuSans-64" x="940.8125"/>
     </g>
    </g>
   </g>
  </g>
 </g>
 <defs>
  <clipPath id="p03561ee633">
   <rect x="63.213125" y="43.277" width="455.331743" height="267.955957"/>
  </clipPath>
 </defs>
</svg>
