<?xml version="1.0" encoding="utf-8" standalone="no"?>
<!DOCTYPE svg PUBLIC "-//W3C//DTD SVG 1.1//EN"
  "http://www.w3.org/Graphics/SVG/1.1/DTD/svg11.dtd">
<svg xmlns:xlink="http://www.w3.org/1999/xlink" width="526.746263pt" height="353.99952pt" viewBox="0 0 526.746263 353.99952" xmlns="http://www.w3.org/2000/svg" version="1.1">
 <metadata>
  <rdf:RDF xmlns:dc="http://purl.org/dc/elements/1.1/" xmlns:cc="http://creativecommons.org/ns#" xmlns:rdf="http://www.w3.org/1999/02/22-rdf-syntax-ns#">
   <cc:Work>
    <dc:type rdf:resource="http://purl.org/dc/dcmitype/StillImage"/>
    <dc:date>2022-10-29T14:36:55.084296</dc:date>
    <dc:format>image/svg+xml</dc:format>
    <dc:creator>
     <cc:Agent>
      <dc:title>Matplotlib v3.6.1, https://matplotlib.org/</dc:title>
     </cc:Agent>
    </dc:creator>
   </cc:Work>
  </rdf:RDF>
 </metadata>
 <defs>
  <style type="text/css">*{stroke-linejoin: round; stroke-linecap: butt}</style>
 </defs>
 <g id="figure_1">
  <g id="patch_1">
   <path d="M 0 353.99952 
L 526.746263 353.99952 
L 526.746263 0 
L 0 0 
z
" style="fill: #ffffff"/>
  </g>
  <g id="axes_1">
   <g id="patch_2">
    <path d="M 63.165586 311.304146 
L 518.650415 311.304146 
L 518.650415 25.286312 
L 63.165586 25.286312 
z
" style="fill: #eeeeee"/>
   </g>
   <g id="matplotlib.axis_1">
    <g id="xtick_1">
     <g id="line2d_1">
      <path d="M 69.246309 311.304146 
L 69.246309 25.286312 
" clip-path="url(#pe42b2a7a82)" style="fill: none; stroke: #ffffff; stroke-width: 0.8; stroke-linecap: round"/>
     </g>
     <g id="line2d_2"/>
     <g id="text_1">
      <!-- −1.00 -->
      <g style="fill: #262626" transform="translate(47.79459 325.441958) scale(0.14 -0.14)">
       <defs>
        <path id="DejaVuSans-2212" d="M 678 2272 
L 4684 2272 
L 4684 1741 
L 678 1741 
L 678 2272 
z
" transform="scale(0.015625)"/>
        <path id="DejaVuSans-31" d="M 794 531 
L 1825 531 
L 1825 4091 
L 703 3866 
L 703 4441 
L 1819 4666 
L 2450 4666 
L 2450 531 
L 3481 531 
L 3481 0 
L 794 0 
L 794 531 
z
" transform="scale(0.015625)"/>
        <path id="DejaVuSans-2e" d="M 684 794 
L 1344 794 
L 1344 0 
L 684 0 
L 684 794 
z
" transform="scale(0.015625)"/>
        <path id="DejaVuSans-30" d="M 2034 4250 
Q 1547 4250 1301 3770 
Q 1056 3291 1056 2328 
Q 1056 1369 1301 889 
Q 1547 409 2034 409 
Q 2525 409 2770 889 
Q 3016 1369 3016 2328 
Q 3016 3291 2770 3770 
Q 2525 4250 2034 4250 
z
M 2034 4750 
Q 2819 4750 3233 4129 
Q 3647 3509 3647 2328 
Q 3647 1150 3233 529 
Q 2819 -91 2034 -91 
Q 1250 -91 836 529 
Q 422 1150 422 2328 
Q 422 3509 836 4129 
Q 1250 4750 2034 4750 
z
" transform="scale(0.015625)"/>
       </defs>
       <use xlink:href="#DejaVuSans-2212"/>
       <use xlink:href="#DejaVuSans-31" x="83.789062"/>
       <use xlink:href="#DejaVuSans-2e" x="147.412109"/>
       <use xlink:href="#DejaVuSans-30" x="179.199219"/>
       <use xlink:href="#DejaVuSans-30" x="242.822266"/>
      </g>
     </g>
    </g>
    <g id="xtick_2">
     <g id="line2d_3">
      <path d="M 123.598142 311.304146 
L 123.598142 25.286312 
" clip-path="url(#pe42b2a7a82)" style="fill: none; stroke: #ffffff; stroke-width: 0.8; stroke-linecap: round"/>
     </g>
     <g id="line2d_4"/>
     <g id="text_2">
      <!-- −0.75 -->
      <g style="fill: #262626" transform="translate(102.146423 325.441958) scale(0.14 -0.14)">
       <defs>
        <path id="DejaVuSans-37" d="M 525 4666 
L 3525 4666 
L 3525 4397 
L 1831 0 
L 1172 0 
L 2766 4134 
L 525 4134 
L 525 4666 
z
" transform="scale(0.015625)"/>
        <path id="DejaVuSans-35" d="M 691 4666 
L 3169 4666 
L 3169 4134 
L 1269 4134 
L 1269 2991 
Q 1406 3038 1543 3061 
Q 1681 3084 1819 3084 
Q 2600 3084 3056 2656 
Q 3513 2228 3513 1497 
Q 3513 744 3044 326 
Q 2575 -91 1722 -91 
Q 1428 -91 1123 -41 
Q 819 9 494 109 
L 494 744 
Q 775 591 1075 516 
Q 1375 441 1709 441 
Q 2250 441 2565 725 
Q 2881 1009 2881 1497 
Q 2881 1984 2565 2268 
Q 2250 2553 1709 2553 
Q 1456 2553 1204 2497 
Q 953 2441 691 2322 
L 691 4666 
z
" transform="scale(0.015625)"/>
       </defs>
       <use xlink:href="#DejaVuSans-2212"/>
       <use xlink:href="#DejaVuSans-30" x="83.789062"/>
       <use xlink:href="#DejaVuSans-2e" x="147.412109"/>
       <use xlink:href="#DejaVuSans-37" x="179.199219"/>
       <use xlink:href="#DejaVuSans-35" x="242.822266"/>
      </g>
     </g>
    </g>
    <g id="xtick_3">
     <g id="line2d_5">
      <path d="M 177.949974 311.304146 
L 177.949974 25.286312 
" clip-path="url(#pe42b2a7a82)" style="fill: none; stroke: #ffffff; stroke-width: 0.8; stroke-linecap: round"/>
     </g>
     <g id="line2d_6"/>
     <g id="text_3">
      <!-- −0.50 -->
      <g style="fill: #262626" transform="translate(156.498255 325.441958) scale(0.14 -0.14)">
       <use xlink:href="#DejaVuSans-2212"/>
       <use xlink:href="#DejaVuSans-30" x="83.789062"/>
       <use xlink:href="#DejaVuSans-2e" x="147.412109"/>
       <use xlink:href="#DejaVuSans-35" x="179.199219"/>
       <use xlink:href="#DejaVuSans-30" x="242.822266"/>
      </g>
     </g>
    </g>
    <g id="xtick_4">
     <g id="line2d_7">
      <path d="M 232.301807 311.304146 
L 232.301807 25.286312 
" clip-path="url(#pe42b2a7a82)" style="fill: none; stroke: #ffffff; stroke-width: 0.8; stroke-linecap: round"/>
     </g>
     <g id="line2d_8"/>
     <g id="text_4">
      <!-- −0.25 -->
      <g style="fill: #262626" transform="translate(210.850088 325.441958) scale(0.14 -0.14)">
       <defs>
        <path id="DejaVuSans-32" d="M 1228 531 
L 3431 531 
L 3431 0 
L 469 0 
L 469 531 
Q 828 903 1448 1529 
Q 2069 2156 2228 2338 
Q 2531 2678 2651 2914 
Q 2772 3150 2772 3378 
Q 2772 3750 2511 3984 
Q 2250 4219 1831 4219 
Q 1534 4219 1204 4116 
Q 875 4013 500 3803 
L 500 4441 
Q 881 4594 1212 4672 
Q 1544 4750 1819 4750 
Q 2544 4750 2975 4387 
Q 3406 4025 3406 3419 
Q 3406 3131 3298 2873 
Q 3191 2616 2906 2266 
Q 2828 2175 2409 1742 
Q 1991 1309 1228 531 
z
" transform="scale(0.015625)"/>
       </defs>
       <use xlink:href="#DejaVuSans-2212"/>
       <use xlink:href="#DejaVuSans-30" x="83.789062"/>
       <use xlink:href="#DejaVuSans-2e" x="147.412109"/>
       <use xlink:href="#DejaVuSans-32" x="179.199219"/>
       <use xlink:href="#DejaVuSans-35" x="242.822266"/>
      </g>
     </g>
    </g>
    <g id="xtick_5">
     <g id="line2d_9">
      <path d="M 286.653639 311.304146 
L 286.653639 25.286312 
" clip-path="url(#pe42b2a7a82)" style="fill: none; stroke: #ffffff; stroke-width: 0.8; stroke-linecap: round"/>
     </g>
     <g id="line2d_10"/>
     <g id="text_5">
      <!-- 0.00 -->
      <g style="fill: #262626" transform="translate(271.067702 325.441958) scale(0.14 -0.14)">
       <use xlink:href="#DejaVuSans-30"/>
       <use xlink:href="#DejaVuSans-2e" x="63.623047"/>
       <use xlink:href="#DejaVuSans-30" x="95.410156"/>
       <use xlink:href="#DejaVuSans-30" x="159.033203"/>
      </g>
     </g>
    </g>
    <g id="xtick_6">
     <g id="line2d_11">
      <path d="M 341.005472 311.304146 
L 341.005472 25.286312 
" clip-path="url(#pe42b2a7a82)" style="fill: none; stroke: #ffffff; stroke-width: 0.8; stroke-linecap: round"/>
     </g>
     <g id="line2d_12"/>
     <g id="text_6">
      <!-- 0.25 -->
      <g style="fill: #262626" transform="translate(325.419534 325.441958) scale(0.14 -0.14)">
       <use xlink:href="#DejaVuSans-30"/>
       <use xlink:href="#DejaVuSans-2e" x="63.623047"/>
       <use xlink:href="#DejaVuSans-32" x="95.410156"/>
       <use xlink:href="#DejaVuSans-35" x="159.033203"/>
      </g>
     </g>
    </g>
    <g id="xtick_7">
     <g id="line2d_13">
      <path d="M 395.357304 311.304146 
L 395.357304 25.286312 
" clip-path="url(#pe42b2a7a82)" style="fill: none; stroke: #ffffff; stroke-width: 0.8; stroke-linecap: round"/>
     </g>
     <g id="line2d_14"/>
     <g id="text_7">
      <!-- 0.50 -->
      <g style="fill: #262626" transform="translate(379.771366 325.441958) scale(0.14 -0.14)">
       <use xlink:href="#DejaVuSans-30"/>
       <use xlink:href="#DejaVuSans-2e" x="63.623047"/>
       <use xlink:href="#DejaVuSans-35" x="95.410156"/>
       <use xlink:href="#DejaVuSans-30" x="159.033203"/>
      </g>
     </g>
    </g>
    <g id="xtick_8">
     <g id="line2d_15">
      <path d="M 449.709136 311.304146 
L 449.709136 25.286312 
" clip-path="url(#pe42b2a7a82)" style="fill: none; stroke: #ffffff; stroke-width: 0.8; stroke-linecap: round"/>
     </g>
     <g id="line2d_16"/>
     <g id="text_8">
      <!-- 0.75 -->
      <g style="fill: #262626" transform="translate(434.123199 325.441958) scale(0.14 -0.14)">
       <use xlink:href="#DejaVuSans-30"/>
       <use xlink:href="#DejaVuSans-2e" x="63.623047"/>
       <use xlink:href="#DejaVuSans-37" x="95.410156"/>
       <use xlink:href="#DejaVuSans-35" x="159.033203"/>
      </g>
     </g>
    </g>
    <g id="xtick_9">
     <g id="line2d_17">
      <path d="M 504.060969 311.304146 
L 504.060969 25.286312 
" clip-path="url(#pe42b2a7a82)" style="fill: none; stroke: #ffffff; stroke-width: 0.8; stroke-linecap: round"/>
     </g>
     <g id="line2d_18"/>
     <g id="text_9">
      <!-- 1.00 -->
      <g style="fill: #262626" transform="translate(488.475031 325.441958) scale(0.14 -0.14)">
       <use xlink:href="#DejaVuSans-31"/>
       <use xlink:href="#DejaVuSans-2e" x="63.623047"/>
       <use xlink:href="#DejaVuSans-30" x="95.410156"/>
       <use xlink:href="#DejaVuSans-30" x="159.033203"/>
      </g>
     </g>
    </g>
    <g id="text_10">
     <!-- x -->
     <g style="fill: #262626" transform="translate(286.468938 343.751177) scale(0.15 -0.15)">
      <defs>
       <path id="DejaVuSans-78" d="M 3513 3500 
L 2247 1797 
L 3578 0 
L 2900 0 
L 1881 1375 
L 863 0 
L 184 0 
L 1544 1831 
L 300 3500 
L 978 3500 
L 1906 2253 
L 2834 3500 
L 3513 3500 
z
" transform="scale(0.015625)"/>
      </defs>
      <use xlink:href="#DejaVuSans-78"/>
     </g>
    </g>
   </g>
   <g id="matplotlib.axis_2">
    <g id="ytick_1">
     <g id="line2d_19">
      <path d="M 63.165586 281.087279 
L 518.650415 281.087279 
" clip-path="url(#pe42b2a7a82)" style="fill: none; stroke: #ffffff; stroke-width: 0.8; stroke-linecap: round"/>
     </g>
     <g id="line2d_20"/>
     <g id="text_11">
      <!-- −1.0 -->
      <g style="fill: #262626" transform="translate(25.669649 286.406185) scale(0.14 -0.14)">
       <use xlink:href="#DejaVuSans-2212"/>
       <use xlink:href="#DejaVuSans-31" x="83.789062"/>
       <use xlink:href="#DejaVuSans-2e" x="147.412109"/>
       <use xlink:href="#DejaVuSans-30" x="179.199219"/>
      </g>
     </g>
    </g>
    <g id="ytick_2">
     <g id="line2d_21">
      <path d="M 63.165586 235.337632 
L 518.650415 235.337632 
" clip-path="url(#pe42b2a7a82)" style="fill: none; stroke: #ffffff; stroke-width: 0.8; stroke-linecap: round"/>
     </g>
     <g id="line2d_22"/>
     <g id="text_12">
      <!-- −0.5 -->
      <g style="fill: #262626" transform="translate(25.669649 240.656538) scale(0.14 -0.14)">
       <use xlink:href="#DejaVuSans-2212"/>
       <use xlink:href="#DejaVuSans-30" x="83.789062"/>
       <use xlink:href="#DejaVuSans-2e" x="147.412109"/>
       <use xlink:href="#DejaVuSans-35" x="179.199219"/>
      </g>
     </g>
    </g>
    <g id="ytick_3">
     <g id="line2d_23">
      <path d="M 63.165586 189.587985 
L 518.650415 189.587985 
" clip-path="url(#pe42b2a7a82)" style="fill: none; stroke: #ffffff; stroke-width: 0.8; stroke-linecap: round"/>
     </g>
     <g id="line2d_24"/>
     <g id="text_13">
      <!-- 0.0 -->
      <g style="fill: #262626" transform="translate(37.401211 194.906892) scale(0.14 -0.14)">
       <use xlink:href="#DejaVuSans-30"/>
       <use xlink:href="#DejaVuSans-2e" x="63.623047"/>
       <use xlink:href="#DejaVuSans-30" x="95.410156"/>
      </g>
     </g>
    </g>
    <g id="ytick_4">
     <g id="line2d_25">
      <path d="M 63.165586 143.838339 
L 518.650415 143.838339 
" clip-path="url(#pe42b2a7a82)" style="fill: none; stroke: #ffffff; stroke-width: 0.8; stroke-linecap: round"/>
     </g>
     <g id="line2d_26"/>
     <g id="text_14">
      <!-- 0.5 -->
      <g style="fill: #262626" transform="translate(37.401211 149.157245) scale(0.14 -0.14)">
       <use xlink:href="#DejaVuSans-30"/>
       <use xlink:href="#DejaVuSans-2e" x="63.623047"/>
       <use xlink:href="#DejaVuSans-35" x="95.410156"/>
      </g>
     </g>
    </g>
    <g id="ytick_5">
     <g id="line2d_27">
      <path d="M 63.165586 98.088692 
L 518.650415 98.088692 
" clip-path="url(#pe42b2a7a82)" style="fill: none; stroke: #ffffff; stroke-width: 0.8; stroke-linecap: round"/>
     </g>
     <g id="line2d_28"/>
     <g id="text_15">
      <!-- 1.0 -->
      <g style="fill: #262626" transform="translate(37.401211 103.407599) scale(0.14 -0.14)">
       <use xlink:href="#DejaVuSans-31"/>
       <use xlink:href="#DejaVuSans-2e" x="63.623047"/>
       <use xlink:href="#DejaVuSans-30" x="95.410156"/>
      </g>
     </g>
    </g>
    <g id="ytick_6">
     <g id="line2d_29">
      <path d="M 63.165586 52.339046 
L 518.650415 52.339046 
" clip-path="url(#pe42b2a7a82)" style="fill: none; stroke: #ffffff; stroke-width: 0.8; stroke-linecap: round"/>
     </g>
     <g id="line2d_30"/>
     <g id="text_16">
      <!-- 1.5 -->
      <g style="fill: #262626" transform="translate(37.401211 57.657952) scale(0.14 -0.14)">
       <use xlink:href="#DejaVuSans-31"/>
       <use xlink:href="#DejaVuSans-2e" x="63.623047"/>
       <use xlink:href="#DejaVuSans-35" x="95.410156"/>
      </g>
     </g>
    </g>
    <g id="text_17">
     <!-- y -->
     <g style="fill: #262626" transform="translate(18.550118 172.734291) rotate(-90) scale(0.15 -0.15)">
      <defs>
       <path id="DejaVuSans-79" d="M 2059 -325 
Q 1816 -950 1584 -1140 
Q 1353 -1331 966 -1331 
L 506 -1331 
L 506 -850 
L 844 -850 
Q 1081 -850 1212 -737 
Q 1344 -625 1503 -206 
L 1606 56 
L 191 3500 
L 800 3500 
L 1894 763 
L 2988 3500 
L 3597 3500 
L 2059 -325 
z
" transform="scale(0.015625)"/>
      </defs>
      <use xlink:href="#DejaVuSans-79"/>
     </g>
    </g>
   </g>
   <g id="PathCollection_1">
    <defs>
     <path id="m8e7be321c0" d="M 0 3 
C 0.795609 3 1.55874 2.683901 2.12132 2.12132 
C 2.683901 1.55874 3 0.795609 3 0 
C 3 -0.795609 2.683901 -1.55874 2.12132 -2.12132 
C 1.55874 -2.683901 0.795609 -3 0 -3 
C -0.795609 -3 -1.55874 -2.683901 -2.12132 -2.12132 
C -2.683901 -1.55874 -3 -0.795609 -3 0 
C -3 0.795609 -2.683901 1.55874 -2.12132 2.12132 
C -1.55874 2.683901 -0.795609 3 0 3 
z
" style="stroke: #ffffff; stroke-width: 0.48"/>
    </defs>
    <g clip-path="url(#pe42b2a7a82)">
     <use xlink:href="#m8e7be321c0" x="83.869442" y="197.998525" style="stroke: #ffffff; stroke-width: 0.48"/>
     <use xlink:href="#m8e7be321c0" x="84.295585" y="224.601411" style="stroke: #ffffff; stroke-width: 0.48"/>
     <use xlink:href="#m8e7be321c0" x="84.658255" y="206.221281" style="stroke: #ffffff; stroke-width: 0.48"/>
     <use xlink:href="#m8e7be321c0" x="89.374062" y="215.962195" style="stroke: #ffffff; stroke-width: 0.48"/>
     <use xlink:href="#m8e7be321c0" x="94.798391" y="228.091851" style="stroke: #ffffff; stroke-width: 0.48"/>
     <use xlink:href="#m8e7be321c0" x="94.883876" y="240.364752" style="stroke: #ffffff; stroke-width: 0.48"/>
     <use xlink:href="#m8e7be321c0" x="105.493191" y="241.396938" style="stroke: #ffffff; stroke-width: 0.48"/>
     <use xlink:href="#m8e7be321c0" x="107.141811" y="233.857447" style="stroke: #ffffff; stroke-width: 0.48"/>
     <use xlink:href="#m8e7be321c0" x="112.191346" y="233.944658" style="stroke: #ffffff; stroke-width: 0.48"/>
     <use xlink:href="#m8e7be321c0" x="114.738296" y="254.34641" style="stroke: #ffffff; stroke-width: 0.48"/>
     <use xlink:href="#m8e7be321c0" x="117.394421" y="257.066088" style="stroke: #ffffff; stroke-width: 0.48"/>
     <use xlink:href="#m8e7be321c0" x="125.268827" y="248.907304" style="stroke: #ffffff; stroke-width: 0.48"/>
     <use xlink:href="#m8e7be321c0" x="141.811983" y="265.786593" style="stroke: #ffffff; stroke-width: 0.48"/>
     <use xlink:href="#m8e7be321c0" x="141.954542" y="280.995509" style="stroke: #ffffff; stroke-width: 0.48"/>
     <use xlink:href="#m8e7be321c0" x="145.142724" y="290.072648" style="stroke: #ffffff; stroke-width: 0.48"/>
     <use xlink:href="#m8e7be321c0" x="145.489355" y="274.578243" style="stroke: #ffffff; stroke-width: 0.48"/>
     <use xlink:href="#m8e7be321c0" x="147.039824" y="280.535571" style="stroke: #ffffff; stroke-width: 0.48"/>
     <use xlink:href="#m8e7be321c0" x="147.279763" y="271.257327" style="stroke: #ffffff; stroke-width: 0.48"/>
     <use xlink:href="#m8e7be321c0" x="149.490515" y="292.356597" style="stroke: #ffffff; stroke-width: 0.48"/>
     <use xlink:href="#m8e7be321c0" x="159.402769" y="268.136037" style="stroke: #ffffff; stroke-width: 0.48"/>
     <use xlink:href="#m8e7be321c0" x="163.550873" y="271.849798" style="stroke: #ffffff; stroke-width: 0.48"/>
     <use xlink:href="#m8e7be321c0" x="168.785583" y="271.15523" style="stroke: #ffffff; stroke-width: 0.48"/>
     <use xlink:href="#m8e7be321c0" x="170.443863" y="258.916788" style="stroke: #ffffff; stroke-width: 0.48"/>
     <use xlink:href="#m8e7be321c0" x="172.690584" y="264.066507" style="stroke: #ffffff; stroke-width: 0.48"/>
     <use xlink:href="#m8e7be321c0" x="188.828035" y="272.005804" style="stroke: #ffffff; stroke-width: 0.48"/>
     <use xlink:href="#m8e7be321c0" x="194.376254" y="286.116077" style="stroke: #ffffff; stroke-width: 0.48"/>
     <use xlink:href="#m8e7be321c0" x="195.099416" y="278.89198" style="stroke: #ffffff; stroke-width: 0.48"/>
     <use xlink:href="#m8e7be321c0" x="203.349171" y="272.887505" style="stroke: #ffffff; stroke-width: 0.48"/>
     <use xlink:href="#m8e7be321c0" x="205.406046" y="281.559796" style="stroke: #ffffff; stroke-width: 0.48"/>
     <use xlink:href="#m8e7be321c0" x="208.283651" y="275.3381" style="stroke: #ffffff; stroke-width: 0.48"/>
     <use xlink:href="#m8e7be321c0" x="208.872651" y="284.89153" style="stroke: #ffffff; stroke-width: 0.48"/>
     <use xlink:href="#m8e7be321c0" x="210.297304" y="260.582802" style="stroke: #ffffff; stroke-width: 0.48"/>
     <use xlink:href="#m8e7be321c0" x="211.071445" y="261.435462" style="stroke: #ffffff; stroke-width: 0.48"/>
     <use xlink:href="#m8e7be321c0" x="211.751393" y="256.430671" style="stroke: #ffffff; stroke-width: 0.48"/>
     <use xlink:href="#m8e7be321c0" x="216.566173" y="262.214961" style="stroke: #ffffff; stroke-width: 0.48"/>
     <use xlink:href="#m8e7be321c0" x="230.431206" y="253.239945" style="stroke: #ffffff; stroke-width: 0.48"/>
     <use xlink:href="#m8e7be321c0" x="235.047881" y="258.18072" style="stroke: #ffffff; stroke-width: 0.48"/>
     <use xlink:href="#m8e7be321c0" x="239.504821" y="230.486327" style="stroke: #ffffff; stroke-width: 0.48"/>
     <use xlink:href="#m8e7be321c0" x="243.188183" y="236.532541" style="stroke: #ffffff; stroke-width: 0.48"/>
     <use xlink:href="#m8e7be321c0" x="245.081875" y="243.547663" style="stroke: #ffffff; stroke-width: 0.48"/>
     <use xlink:href="#m8e7be321c0" x="249.115617" y="242.167494" style="stroke: #ffffff; stroke-width: 0.48"/>
     <use xlink:href="#m8e7be321c0" x="258.323737" y="223.92236" style="stroke: #ffffff; stroke-width: 0.48"/>
     <use xlink:href="#m8e7be321c0" x="262.201367" y="213.389064" style="stroke: #ffffff; stroke-width: 0.48"/>
     <use xlink:href="#m8e7be321c0" x="266.114029" y="224.352945" style="stroke: #ffffff; stroke-width: 0.48"/>
     <use xlink:href="#m8e7be321c0" x="266.818979" y="231.926873" style="stroke: #ffffff; stroke-width: 0.48"/>
     <use xlink:href="#m8e7be321c0" x="269.109674" y="205.508856" style="stroke: #ffffff; stroke-width: 0.48"/>
     <use xlink:href="#m8e7be321c0" x="281.138627" y="194.078528" style="stroke: #ffffff; stroke-width: 0.48"/>
     <use xlink:href="#m8e7be321c0" x="284.963089" y="199.792934" style="stroke: #ffffff; stroke-width: 0.48"/>
     <use xlink:href="#m8e7be321c0" x="286.263372" y="201.468538" style="stroke: #ffffff; stroke-width: 0.48"/>
     <use xlink:href="#m8e7be321c0" x="289.483401" y="198.45979" style="stroke: #ffffff; stroke-width: 0.48"/>
     <use xlink:href="#m8e7be321c0" x="289.552015" y="201.926856" style="stroke: #ffffff; stroke-width: 0.48"/>
     <use xlink:href="#m8e7be321c0" x="299.107812" y="178.52061" style="stroke: #ffffff; stroke-width: 0.48"/>
     <use xlink:href="#m8e7be321c0" x="301.176648" y="180.612315" style="stroke: #ffffff; stroke-width: 0.48"/>
     <use xlink:href="#m8e7be321c0" x="304.387563" y="161.202769" style="stroke: #ffffff; stroke-width: 0.48"/>
     <use xlink:href="#m8e7be321c0" x="310.268798" y="156.519192" style="stroke: #ffffff; stroke-width: 0.48"/>
     <use xlink:href="#m8e7be321c0" x="310.851267" y="160.201562" style="stroke: #ffffff; stroke-width: 0.48"/>
     <use xlink:href="#m8e7be321c0" x="316.370983" y="144.573807" style="stroke: #ffffff; stroke-width: 0.48"/>
     <use xlink:href="#m8e7be321c0" x="326.193743" y="137.009061" style="stroke: #ffffff; stroke-width: 0.48"/>
     <use xlink:href="#m8e7be321c0" x="329.515697" y="127.84632" style="stroke: #ffffff; stroke-width: 0.48"/>
     <use xlink:href="#m8e7be321c0" x="345.764575" y="105.635797" style="stroke: #ffffff; stroke-width: 0.48"/>
     <use xlink:href="#m8e7be321c0" x="345.959998" y="110.686704" style="stroke: #ffffff; stroke-width: 0.48"/>
     <use xlink:href="#m8e7be321c0" x="348.457296" y="129.65662" style="stroke: #ffffff; stroke-width: 0.48"/>
     <use xlink:href="#m8e7be321c0" x="350.302973" y="130.107165" style="stroke: #ffffff; stroke-width: 0.48"/>
     <use xlink:href="#m8e7be321c0" x="350.69207" y="116.803404" style="stroke: #ffffff; stroke-width: 0.48"/>
     <use xlink:href="#m8e7be321c0" x="361.266289" y="119.748" style="stroke: #ffffff; stroke-width: 0.48"/>
     <use xlink:href="#m8e7be321c0" x="363.304493" y="118.723274" style="stroke: #ffffff; stroke-width: 0.48"/>
     <use xlink:href="#m8e7be321c0" x="365.935638" y="100.855769" style="stroke: #ffffff; stroke-width: 0.48"/>
     <use xlink:href="#m8e7be321c0" x="366.796589" y="132.238105" style="stroke: #ffffff; stroke-width: 0.48"/>
     <use xlink:href="#m8e7be321c0" x="370.714828" y="104.452744" style="stroke: #ffffff; stroke-width: 0.48"/>
     <use xlink:href="#m8e7be321c0" x="378.027198" y="99.327107" style="stroke: #ffffff; stroke-width: 0.48"/>
     <use xlink:href="#m8e7be321c0" x="382.433576" y="96.308722" style="stroke: #ffffff; stroke-width: 0.48"/>
     <use xlink:href="#m8e7be321c0" x="384.688244" y="95.507574" style="stroke: #ffffff; stroke-width: 0.48"/>
     <use xlink:href="#m8e7be321c0" x="384.95604" y="103.676567" style="stroke: #ffffff; stroke-width: 0.48"/>
     <use xlink:href="#m8e7be321c0" x="385.137539" y="109.451272" style="stroke: #ffffff; stroke-width: 0.48"/>
     <use xlink:href="#m8e7be321c0" x="392.446344" y="91.50039" style="stroke: #ffffff; stroke-width: 0.48"/>
     <use xlink:href="#m8e7be321c0" x="408.574453" y="56.600623" style="stroke: #ffffff; stroke-width: 0.48"/>
     <use xlink:href="#m8e7be321c0" x="414.859943" y="57.913737" style="stroke: #ffffff; stroke-width: 0.48"/>
     <use xlink:href="#m8e7be321c0" x="418.451612" y="70.409417" style="stroke: #ffffff; stroke-width: 0.48"/>
     <use xlink:href="#m8e7be321c0" x="423.385654" y="61.767155" style="stroke: #ffffff; stroke-width: 0.48"/>
     <use xlink:href="#m8e7be321c0" x="424.294426" y="65.971702" style="stroke: #ffffff; stroke-width: 0.48"/>
     <use xlink:href="#m8e7be321c0" x="427.2056" y="57.590845" style="stroke: #ffffff; stroke-width: 0.48"/>
     <use xlink:href="#m8e7be321c0" x="428.469425" y="64.762991" style="stroke: #ffffff; stroke-width: 0.48"/>
     <use xlink:href="#m8e7be321c0" x="431.809158" y="75.112392" style="stroke: #ffffff; stroke-width: 0.48"/>
     <use xlink:href="#m8e7be321c0" x="432.970843" y="54.153863" style="stroke: #ffffff; stroke-width: 0.48"/>
     <use xlink:href="#m8e7be321c0" x="433.956648" y="54.07391" style="stroke: #ffffff; stroke-width: 0.48"/>
     <use xlink:href="#m8e7be321c0" x="438.670582" y="61.931313" style="stroke: #ffffff; stroke-width: 0.48"/>
     <use xlink:href="#m8e7be321c0" x="441.699074" y="65.570434" style="stroke: #ffffff; stroke-width: 0.48"/>
     <use xlink:href="#m8e7be321c0" x="446.040547" y="66.630997" style="stroke: #ffffff; stroke-width: 0.48"/>
     <use xlink:href="#m8e7be321c0" x="454.169636" y="74.644272" style="stroke: #ffffff; stroke-width: 0.48"/>
     <use xlink:href="#m8e7be321c0" x="454.244368" y="70.29011" style="stroke: #ffffff; stroke-width: 0.48"/>
     <use xlink:href="#m8e7be321c0" x="464.526483" y="77.8913" style="stroke: #ffffff; stroke-width: 0.48"/>
     <use xlink:href="#m8e7be321c0" x="464.874547" y="92.605095" style="stroke: #ffffff; stroke-width: 0.48"/>
     <use xlink:href="#m8e7be321c0" x="477.640451" y="105.707936" style="stroke: #ffffff; stroke-width: 0.48"/>
     <use xlink:href="#m8e7be321c0" x="480.721771" y="99.892983" style="stroke: #ffffff; stroke-width: 0.48"/>
     <use xlink:href="#m8e7be321c0" x="480.741946" y="102.018719" style="stroke: #ffffff; stroke-width: 0.48"/>
     <use xlink:href="#m8e7be321c0" x="483.111053" y="109.639247" style="stroke: #ffffff; stroke-width: 0.48"/>
     <use xlink:href="#m8e7be321c0" x="489.471775" y="121.086708" style="stroke: #ffffff; stroke-width: 0.48"/>
     <use xlink:href="#m8e7be321c0" x="493.199109" y="106.566042" style="stroke: #ffffff; stroke-width: 0.48"/>
     <use xlink:href="#m8e7be321c0" x="496.230556" y="116.430742" style="stroke: #ffffff; stroke-width: 0.48"/>
     <use xlink:href="#m8e7be321c0" x="497.946559" y="121.897694" style="stroke: #ffffff; stroke-width: 0.48"/>
    </g>
   </g>
   <g id="PolyCollection_1">
    <defs>
     <path id="m6eef8b1dd2" d="M 83.869442 -163.595991 
L 83.869442 -123.885892 
L 85.950232 -120.727467 
L 88.031021 -118.137665 
L 90.111811 -114.840888 
L 92.1926 -112.225489 
L 94.27339 -109.333171 
L 96.354179 -107.289011 
L 98.434969 -104.700621 
L 100.515758 -102.277708 
L 102.596548 -99.705351 
L 104.677338 -96.601071 
L 106.758127 -94.855015 
L 108.838917 -92.057383 
L 110.919706 -89.111922 
L 113.000496 -86.738727 
L 115.081285 -86.325825 
L 117.162075 -83.70147 
L 119.242864 -81.384711 
L 121.323654 -79.893901 
L 123.404443 -77.185905 
L 125.485233 -75.712176 
L 127.566022 -74.643283 
L 129.646812 -73.020356 
L 131.727601 -71.508117 
L 133.808391 -69.887293 
L 135.889181 -68.372025 
L 137.96997 -67.331526 
L 140.05076 -66.48365 
L 142.131549 -65.031863 
L 144.212339 -64.116277 
L 146.293128 -63.225663 
L 148.373918 -61.801627 
L 150.454707 -61.103612 
L 152.535497 -60.621708 
L 154.616286 -60.274064 
L 156.697076 -58.91392 
L 158.777865 -58.003507 
L 160.858655 -58.001767 
L 162.939444 -57.977141 
L 165.020234 -56.890295 
L 167.101023 -56.720586 
L 169.181813 -57.345839 
L 171.262603 -56.777849 
L 173.343392 -56.928586 
L 175.424182 -56.828577 
L 177.504971 -55.696185 
L 179.585761 -57.698601 
L 181.66655 -56.98054 
L 183.74734 -57.341107 
L 185.828129 -57.799029 
L 187.908919 -57.776356 
L 189.989708 -58.434023 
L 192.070498 -58.716363 
L 194.151287 -60.111771 
L 196.232077 -61.354847 
L 198.312866 -61.618583 
L 200.393656 -62.842547 
L 202.474446 -62.866271 
L 204.555235 -64.0714 
L 206.636025 -65.211263 
L 208.716814 -66.221985 
L 210.797604 -68.279952 
L 212.878393 -69.12952 
L 214.959183 -71.060053 
L 217.039972 -71.760792 
L 219.120762 -73.51007 
L 221.201551 -74.91735 
L 223.282341 -76.248058 
L 225.36313 -77.914323 
L 227.44392 -79.822866 
L 229.524709 -81.774782 
L 231.605499 -83.450451 
L 233.686288 -85.738149 
L 235.767078 -86.453703 
L 237.847868 -89.331019 
L 239.928657 -90.973162 
L 242.009447 -93.245378 
L 244.090236 -95.798794 
L 246.171026 -97.116095 
L 248.251815 -99.63083 
L 250.332605 -101.609781 
L 252.413394 -103.332932 
L 254.494184 -106.092883 
L 256.574973 -108.422302 
L 258.655763 -110.453581 
L 260.736552 -112.872149 
L 262.817342 -114.757317 
L 264.898131 -117.404949 
L 266.978921 -118.817852 
L 269.059711 -122.89221 
L 271.1405 -123.63513 
L 273.22129 -127.841079 
L 275.302079 -129.583541 
L 277.382869 -131.65686 
L 279.463658 -134.86495 
L 281.544448 -136.650905 
L 283.625237 -139.892039 
L 285.706027 -141.432116 
L 287.786816 -144.377581 
L 289.867606 -147.199591 
L 291.948395 -149.813486 
L 294.029185 -151.996023 
L 296.109974 -154.505068 
L 298.190764 -157.673268 
L 300.271553 -159.821687 
L 302.352343 -162.279551 
L 304.433133 -165.047715 
L 306.513922 -167.931876 
L 308.594712 -169.683926 
L 310.675501 -173.236053 
L 312.756291 -174.906971 
L 314.83708 -178.001052 
L 316.91787 -180.991229 
L 318.998659 -182.46147 
L 321.079449 -184.806434 
L 323.160238 -187.759009 
L 325.241028 -190.865323 
L 327.321817 -192.960602 
L 329.402607 -194.484681 
L 331.483396 -197.352771 
L 333.564186 -199.651923 
L 335.644976 -200.720975 
L 337.725765 -203.400681 
L 339.806555 -205.669977 
L 341.887344 -207.961362 
L 343.968134 -209.409515 
L 346.048923 -210.938155 
L 348.129713 -213.247226 
L 350.210502 -215.028396 
L 352.291292 -217.482634 
L 354.372081 -218.881665 
L 356.452871 -220.101174 
L 358.53366 -222.700332 
L 360.61445 -223.714774 
L 362.695239 -224.60499 
L 364.776029 -226.608378 
L 366.856819 -227.894285 
L 368.937608 -229.325496 
L 371.018398 -229.893181 
L 373.099187 -230.932517 
L 375.179977 -231.286999 
L 377.260766 -233.124 
L 379.341556 -233.609752 
L 381.422345 -233.937627 
L 383.503135 -235.32686 
L 385.583924 -236.275482 
L 387.664714 -235.736494 
L 389.745503 -236.466505 
L 391.826293 -236.497432 
L 393.907082 -236.783909 
L 395.987872 -273.998507 
L 398.068661 -273.341788 
L 400.149451 -274.672021 
L 402.230241 -275.155558 
L 404.31103 -275.399105 
L 406.39182 -275.389283 
L 408.472609 -276.675113 
L 410.553399 -276.86462 
L 412.634188 -277.126031 
L 414.714978 -275.754308 
L 416.795767 -276.347199 
L 418.876557 -276.412343 
L 420.957346 -276.276221 
L 423.038136 -275.734345 
L 425.118925 -274.862522 
L 427.199715 -274.47467 
L 429.280504 -273.825533 
L 431.361294 -273.717063 
L 433.442084 -272.592367 
L 435.522873 -270.56688 
L 437.603663 -270.438849 
L 439.684452 -268.905985 
L 441.765242 -267.616414 
L 443.846031 -266.626614 
L 445.926821 -264.784416 
L 448.00761 -263.460358 
L 450.0884 -261.861681 
L 452.169189 -260.710863 
L 454.249979 -259.377225 
L 456.330768 -257.341037 
L 458.411558 -255.665849 
L 460.492347 -253.152031 
L 462.573137 -251.473265 
L 464.653926 -250.139279 
L 466.734716 -247.846129 
L 468.815506 -245.489254 
L 470.896295 -244.345182 
L 472.977085 -242.070068 
L 475.057874 -239.543607 
L 477.138664 -237.803579 
L 479.219453 -235.932973 
L 481.300243 -233.266447 
L 483.381032 -230.568251 
L 485.461822 -228.404459 
L 487.542611 -225.82441 
L 489.623401 -223.211902 
L 491.70419 -220.611868 
L 493.78498 -217.977263 
L 495.865769 -214.42522 
L 497.946559 -211.565654 
L 497.946559 -252.704508 
L 497.946559 -252.704508 
L 495.865769 -254.436412 
L 493.78498 -257.124957 
L 491.70419 -259.248043 
L 489.623401 -261.251347 
L 487.542611 -263.765142 
L 485.461822 -264.78693 
L 483.381032 -268.345695 
L 481.300243 -269.950526 
L 479.219453 -273.187436 
L 477.138664 -275.246944 
L 475.057874 -277.226816 
L 472.977085 -279.28776 
L 470.896295 -281.486575 
L 468.815506 -284.044687 
L 466.734716 -285.197048 
L 464.653926 -287.385706 
L 462.573137 -289.932676 
L 460.492347 -290.887102 
L 458.411558 -292.360576 
L 456.330768 -295.059534 
L 454.249979 -296.388939 
L 452.169189 -298.315724 
L 450.0884 -299.326831 
L 448.00761 -300.92351 
L 445.926821 -302.092437 
L 443.846031 -304.07688 
L 441.765242 -304.466629 
L 439.684452 -306.744165 
L 437.603663 -306.953712 
L 435.522873 -307.751512 
L 433.442084 -308.965774 
L 431.361294 -309.993229 
L 429.280504 -311.008128 
L 427.199715 -311.490713 
L 425.118925 -311.544432 
L 423.038136 -312.443294 
L 420.957346 -313.212494 
L 418.876557 -314.315586 
L 416.795767 -314.626756 
L 414.714978 -314.071797 
L 412.634188 -315.69807 
L 410.553399 -314.637471 
L 408.472609 -314.737091 
L 406.39182 -315.712398 
L 404.31103 -315.016152 
L 402.230241 -314.127008 
L 400.149451 -314.718999 
L 398.068661 -315.007595 
L 395.987872 -314.335968 
L 393.907082 -275.613065 
L 391.826293 -275.399446 
L 389.745503 -275.332698 
L 387.664714 -273.780631 
L 385.583924 -273.614199 
L 383.503135 -273.392078 
L 381.422345 -271.41057 
L 379.341556 -271.991339 
L 377.260766 -270.159498 
L 375.179977 -269.242471 
L 373.099187 -267.651452 
L 371.018398 -266.971804 
L 368.937608 -265.290416 
L 366.856819 -264.749766 
L 364.776029 -263.478707 
L 362.695239 -261.288324 
L 360.61445 -260.061035 
L 358.53366 -259.384118 
L 356.452871 -256.350411 
L 354.372081 -255.929515 
L 352.291292 -253.425285 
L 350.210502 -252.575095 
L 348.129713 -249.977651 
L 346.048923 -248.659084 
L 343.968134 -246.208532 
L 341.887344 -243.666389 
L 339.806555 -242.296118 
L 337.725765 -240.341003 
L 335.644976 -237.876855 
L 333.564186 -235.985403 
L 331.483396 -233.787642 
L 329.402607 -231.137484 
L 327.321817 -228.929013 
L 325.241028 -226.114492 
L 323.160238 -223.624649 
L 321.079449 -221.027513 
L 318.998659 -219.018865 
L 316.91787 -215.916225 
L 314.83708 -213.962709 
L 312.756291 -212.209216 
L 310.675501 -209.504246 
L 308.594712 -207.286155 
L 306.513922 -204.986096 
L 304.433133 -202.251312 
L 302.352343 -199.132741 
L 300.271553 -196.510972 
L 298.190764 -193.789919 
L 296.109974 -191.391182 
L 294.029185 -188.86354 
L 291.948395 -185.934942 
L 289.867606 -183.74643 
L 287.786816 -181.181879 
L 285.706027 -178.733657 
L 283.625237 -176.493033 
L 281.544448 -173.474871 
L 279.463658 -171.109052 
L 277.382869 -168.447854 
L 275.302079 -165.59323 
L 273.22129 -163.267186 
L 271.1405 -161.276387 
L 269.059711 -158.314917 
L 266.978921 -155.918796 
L 264.898131 -154.260191 
L 262.817342 -151.549251 
L 260.736552 -148.700455 
L 258.655763 -146.853559 
L 256.574973 -144.813187 
L 254.494184 -142.196956 
L 252.413394 -139.894361 
L 250.332605 -137.766263 
L 248.251815 -136.090333 
L 246.171026 -133.392398 
L 244.090236 -130.8717 
L 242.009447 -129.326224 
L 239.928657 -126.929616 
L 237.847868 -125.369515 
L 235.767078 -123.667172 
L 233.686288 -122.015706 
L 231.605499 -119.54574 
L 229.524709 -118.635204 
L 227.44392 -115.680628 
L 225.36313 -114.193287 
L 223.282341 -112.712129 
L 221.201551 -111.979814 
L 219.120762 -109.835511 
L 217.039972 -108.714555 
L 214.959183 -107.475629 
L 212.878393 -106.589523 
L 210.797604 -104.708111 
L 208.716814 -103.56251 
L 206.636025 -101.73791 
L 204.555235 -101.839958 
L 202.474446 -100.114412 
L 200.393656 -99.69082 
L 198.312866 -98.038658 
L 196.232077 -97.475701 
L 194.151287 -96.425031 
L 192.070498 -95.604502 
L 189.989708 -95.859544 
L 187.908919 -94.566051 
L 185.828129 -94.689427 
L 183.74734 -94.487383 
L 181.66655 -93.424484 
L 179.585761 -93.985722 
L 177.504971 -93.419187 
L 175.424182 -92.971865 
L 173.343392 -92.872136 
L 171.262603 -93.343246 
L 169.181813 -93.838194 
L 167.101023 -94.022964 
L 165.020234 -94.066904 
L 162.939444 -94.151909 
L 160.858655 -94.939312 
L 158.777865 -95.224143 
L 156.697076 -95.018105 
L 154.616286 -96.415859 
L 152.535497 -97.12233 
L 150.454707 -97.96757 
L 148.373918 -98.665767 
L 146.293128 -99.218836 
L 144.212339 -100.834531 
L 142.131549 -101.097584 
L 140.05076 -102.969284 
L 137.96997 -104.38959 
L 135.889181 -105.329662 
L 133.808391 -106.690943 
L 131.727601 -108.978798 
L 129.646812 -110.145477 
L 127.566022 -110.963401 
L 125.485233 -113.112361 
L 123.404443 -114.716478 
L 121.323654 -116.520298 
L 119.242864 -118.594311 
L 117.162075 -120.915981 
L 115.081285 -121.730205 
L 113.000496 -124.737286 
L 110.919706 -127.029807 
L 108.838917 -129.339624 
L 106.758127 -131.429721 
L 104.677338 -134.363948 
L 102.596548 -136.191154 
L 100.515758 -138.78464 
L 98.434969 -141.447159 
L 96.354179 -144.60395 
L 94.27339 -147.176519 
L 92.1926 -150.898865 
L 90.111811 -153.618413 
L 88.031021 -155.894024 
L 85.950232 -159.750195 
L 83.869442 -163.595991 
z
" style="stroke: #fa7c17; stroke-opacity: 0.25"/>
    </defs>
    <g clip-path="url(#pe42b2a7a82)">
     <use xlink:href="#m6eef8b1dd2" x="0" y="353.99952" style="fill: #fa7c17; fill-opacity: 0.25; stroke: #fa7c17; stroke-opacity: 0.25"/>
    </g>
   </g>
   <g id="PolyCollection_2">
    <defs>
     <path id="m31a83587a5" d="M 83.869442 -150.302477 
L 83.869442 -136.976832 
L 85.950232 -133.55155 
L 88.031021 -130.790274 
L 90.111811 -127.730339 
L 92.1926 -124.741829 
L 94.27339 -122.261747 
L 96.354179 -119.771159 
L 98.434969 -116.679779 
L 100.515758 -114.373852 
L 102.596548 -111.704329 
L 104.677338 -109.141791 
L 106.758127 -106.781395 
L 108.838917 -104.090628 
L 110.919706 -101.822934 
L 113.000496 -99.75022 
L 115.081285 -97.881522 
L 117.162075 -95.87692 
L 119.242864 -93.949589 
L 121.323654 -91.900453 
L 123.404443 -90.063898 
L 125.485233 -88.036062 
L 127.566022 -86.460215 
L 129.646812 -84.85882 
L 131.727601 -83.74307 
L 133.808391 -82.024033 
L 135.889181 -80.532381 
L 137.96997 -79.463358 
L 140.05076 -78.700873 
L 142.131549 -76.89032 
L 144.212339 -75.923774 
L 146.293128 -75.39119 
L 148.373918 -73.744965 
L 150.454707 -73.326656 
L 152.535497 -72.683716 
L 154.616286 -71.885669 
L 156.697076 -70.827745 
L 158.777865 -70.371274 
L 160.858655 -70.10521 
L 162.939444 -70.115198 
L 165.020234 -69.221763 
L 167.101023 -68.720336 
L 169.181813 -68.930585 
L 171.262603 -68.83167 
L 173.343392 -68.712156 
L 175.424182 -68.510973 
L 177.504971 -68.649811 
L 179.585761 -68.991058 
L 181.66655 -68.982147 
L 183.74734 -69.307359 
L 185.828129 -69.635052 
L 187.908919 -70.034472 
L 189.989708 -70.979139 
L 192.070498 -71.517489 
L 194.151287 -72.354123 
L 196.232077 -72.980036 
L 198.312866 -73.434697 
L 200.393656 -74.620178 
L 202.474446 -75.633383 
L 204.555235 -76.561878 
L 206.636025 -77.535119 
L 208.716814 -78.695101 
L 210.797604 -79.906689 
L 212.878393 -81.344671 
L 214.959183 -82.684113 
L 217.039972 -83.876113 
L 219.120762 -85.797846 
L 221.201551 -87.335144 
L 223.282341 -88.666961 
L 225.36313 -90.316908 
L 227.44392 -91.830176 
L 229.524709 -93.378875 
L 231.605499 -95.487101 
L 233.686288 -97.536356 
L 235.767078 -99.346789 
L 237.847868 -101.060664 
L 239.928657 -103.267092 
L 242.009447 -105.3317 
L 244.090236 -107.260664 
L 246.171026 -109.10115 
L 248.251815 -111.358034 
L 250.332605 -113.606269 
L 252.413394 -115.61922 
L 254.494184 -117.916207 
L 256.574973 -120.501156 
L 258.655763 -122.296757 
L 260.736552 -124.811832 
L 262.817342 -126.833771 
L 264.898131 -129.094393 
L 266.978921 -131.605637 
L 269.059711 -134.287837 
L 271.1405 -136.350485 
L 273.22129 -139.147299 
L 275.302079 -141.497968 
L 277.382869 -144.021128 
L 279.463658 -146.586595 
L 281.544448 -149.373359 
L 283.625237 -151.283713 
L 285.706027 -153.806835 
L 287.786816 -156.444956 
L 289.867606 -159.21629 
L 291.948395 -161.402334 
L 294.029185 -164.148612 
L 296.109974 -166.887718 
L 298.190764 -169.169609 
L 300.271553 -172.260643 
L 302.352343 -174.277885 
L 304.433133 -177.336729 
L 306.513922 -179.650002 
L 308.594712 -181.950011 
L 310.675501 -184.841838 
L 312.756291 -187.174645 
L 314.83708 -189.571477 
L 316.91787 -192.604146 
L 318.998659 -194.479913 
L 321.079449 -197.309798 
L 323.160238 -199.630251 
L 325.241028 -201.893227 
L 327.321817 -204.245399 
L 329.402607 -206.710394 
L 331.483396 -208.700543 
L 333.564186 -211.131877 
L 335.644976 -213.02877 
L 337.725765 -215.376843 
L 339.806555 -217.794879 
L 341.887344 -219.537159 
L 343.968134 -221.448203 
L 346.048923 -223.822421 
L 348.129713 -225.616309 
L 350.210502 -227.327022 
L 352.291292 -229.351793 
L 354.372081 -231.053656 
L 356.452871 -232.514156 
L 358.53366 -234.158656 
L 360.61445 -235.719025 
L 362.695239 -237.459814 
L 364.776029 -238.744448 
L 366.856819 -240.012725 
L 368.937608 -241.33491 
L 371.018398 -242.019635 
L 373.099187 -243.423873 
L 375.179977 -244.16523 
L 377.260766 -245.511877 
L 379.341556 -246.635877 
L 381.422345 -246.606176 
L 383.503135 -247.782594 
L 385.583924 -248.477025 
L 387.664714 -248.361619 
L 389.745503 -249.175026 
L 391.826293 -249.317622 
L 393.907082 -249.053158 
L 395.987872 -286.361465 
L 398.068661 -287.055061 
L 400.149451 -287.652236 
L 402.230241 -288.051452 
L 404.31103 -288.630513 
L 406.39182 -288.941458 
L 408.472609 -289.133525 
L 410.553399 -289.374647 
L 412.634188 -289.17725 
L 414.714978 -288.955958 
L 416.795767 -288.910996 
L 418.876557 -288.985085 
L 420.957346 -288.187385 
L 423.038136 -287.66032 
L 425.118925 -287.300568 
L 427.199715 -286.620674 
L 429.280504 -286.180531 
L 431.361294 -285.316815 
L 433.442084 -284.151608 
L 435.522873 -283.21234 
L 437.603663 -282.450943 
L 439.684452 -281.116959 
L 441.765242 -279.622082 
L 443.846031 -278.728922 
L 445.926821 -277.492696 
L 448.00761 -275.568087 
L 450.0884 -274.288991 
L 452.169189 -272.639009 
L 454.249979 -271.169044 
L 456.330768 -269.466318 
L 458.411558 -267.777865 
L 460.492347 -265.910715 
L 462.573137 -263.875809 
L 464.653926 -262.259673 
L 466.734716 -260.307796 
L 468.815506 -258.578063 
L 470.896295 -256.376133 
L 472.977085 -254.135672 
L 475.057874 -252.154769 
L 477.138664 -249.814313 
L 479.219453 -247.485069 
L 481.300243 -245.74464 
L 483.381032 -242.943942 
L 485.461822 -240.622506 
L 487.542611 -238.14997 
L 489.623401 -235.765263 
L 491.70419 -233.327634 
L 493.78498 -230.74481 
L 495.865769 -228.039559 
L 497.946559 -225.569824 
L 497.946559 -239.230798 
L 497.946559 -239.230798 
L 495.865769 -241.401435 
L 493.78498 -244.228248 
L 491.70419 -246.481863 
L 489.623401 -248.774509 
L 487.542611 -251.07439 
L 485.461822 -253.756932 
L 483.381032 -256.003475 
L 481.300243 -258.357137 
L 479.219453 -260.601929 
L 477.138664 -262.520324 
L 475.057874 -265.176295 
L 472.977085 -266.979404 
L 470.896295 -269.134063 
L 468.815506 -271.305547 
L 466.734716 -273.122117 
L 464.653926 -274.791207 
L 462.573137 -277.262698 
L 460.492347 -278.783047 
L 458.411558 -280.528368 
L 456.330768 -282.564105 
L 454.249979 -284.198239 
L 452.169189 -285.965183 
L 450.0884 -286.977015 
L 448.00761 -288.468854 
L 445.926821 -289.814544 
L 443.846031 -291.43998 
L 441.765242 -292.22148 
L 439.684452 -293.724826 
L 437.603663 -295.206356 
L 435.522873 -295.523831 
L 433.442084 -297.006916 
L 431.361294 -297.597515 
L 429.280504 -298.9197 
L 427.199715 -299.292446 
L 425.118925 -300.064425 
L 423.038136 -300.205795 
L 420.957346 -301.069416 
L 418.876557 -301.72988 
L 416.795767 -301.784122 
L 414.714978 -302.454627 
L 412.634188 -302.157609 
L 410.553399 -301.974458 
L 408.472609 -302.045995 
L 406.39182 -302.312943 
L 404.31103 -301.52867 
L 402.230241 -301.367058 
L 400.149451 -301.264496 
L 398.068661 -301.11972 
L 395.987872 -299.91751 
L 393.907082 -262.600627 
L 391.826293 -262.421289 
L 389.745503 -262.191783 
L 387.664714 -261.329415 
L 385.583924 -261.195004 
L 383.503135 -260.599226 
L 381.422345 -259.638135 
L 379.341556 -259.176573 
L 377.260766 -258.12693 
L 375.179977 -257.528085 
L 373.099187 -256.129417 
L 371.018398 -254.969434 
L 368.937608 -253.410795 
L 366.856819 -252.470279 
L 364.776029 -251.772762 
L 362.695239 -249.86146 
L 360.61445 -248.196675 
L 358.53366 -246.879826 
L 356.452871 -245.037299 
L 354.372081 -243.572958 
L 352.291292 -242.011958 
L 350.210502 -239.765048 
L 348.129713 -238.183536 
L 346.048923 -236.037149 
L 343.968134 -233.752895 
L 341.887344 -231.949983 
L 339.806555 -230.033768 
L 337.725765 -227.691467 
L 335.644976 -225.494705 
L 333.564186 -223.753743 
L 331.483396 -221.14183 
L 329.402607 -218.946472 
L 327.321817 -216.68405 
L 325.241028 -214.508966 
L 323.160238 -211.624564 
L 321.079449 -209.668052 
L 318.998659 -207.139873 
L 316.91787 -204.590366 
L 314.83708 -202.201628 
L 312.756291 -199.757315 
L 310.675501 -197.236942 
L 308.594712 -194.805224 
L 306.513922 -192.369067 
L 304.433133 -189.965447 
L 302.352343 -187.03442 
L 300.271553 -184.263888 
L 298.190764 -181.799665 
L 296.109974 -179.271086 
L 294.029185 -176.854491 
L 291.948395 -174.141249 
L 289.867606 -171.567049 
L 287.786816 -169.272085 
L 285.706027 -166.517674 
L 283.625237 -163.908338 
L 281.544448 -161.378527 
L 279.463658 -159.071704 
L 277.382869 -156.415063 
L 275.302079 -154.084391 
L 273.22129 -151.133572 
L 271.1405 -148.766402 
L 269.059711 -146.815528 
L 266.978921 -144.021727 
L 264.898131 -141.646437 
L 262.817342 -139.330809 
L 260.736552 -137.27469 
L 258.655763 -134.631692 
L 256.574973 -132.79629 
L 254.494184 -130.018663 
L 252.413394 -128.072771 
L 250.332605 -125.783716 
L 248.251815 -123.822695 
L 246.171026 -121.487882 
L 244.090236 -119.475607 
L 242.009447 -117.785093 
L 239.928657 -115.854402 
L 237.847868 -113.502463 
L 235.767078 -111.742981 
L 233.686288 -109.709207 
L 231.605499 -108.295169 
L 229.524709 -105.89066 
L 227.44392 -104.323495 
L 225.36313 -102.832684 
L 223.282341 -100.815744 
L 221.201551 -99.496836 
L 219.120762 -98.394491 
L 217.039972 -96.720677 
L 214.959183 -95.459295 
L 212.878393 -94.182772 
L 210.797604 -92.465407 
L 208.716814 -91.579086 
L 206.636025 -90.328585 
L 204.555235 -89.229535 
L 202.474446 -88.223601 
L 200.393656 -87.34315 
L 198.312866 -86.178369 
L 196.232077 -85.308986 
L 194.151287 -84.565421 
L 192.070498 -83.866617 
L 189.989708 -83.33981 
L 187.908919 -82.666423 
L 185.828129 -82.266784 
L 183.74734 -82.023985 
L 181.66655 -81.875957 
L 179.585761 -81.687257 
L 177.504971 -81.298812 
L 175.424182 -81.163132 
L 173.343392 -81.073689 
L 171.262603 -81.074146 
L 169.181813 -81.42844 
L 167.101023 -81.753573 
L 165.020234 -81.755701 
L 162.939444 -82.316534 
L 160.858655 -82.344792 
L 158.777865 -83.113679 
L 156.697076 -83.199782 
L 154.616286 -84.46305 
L 152.535497 -85.144834 
L 150.454707 -85.991061 
L 148.373918 -86.508052 
L 146.293128 -87.685578 
L 144.212339 -88.689916 
L 142.131549 -89.11493 
L 140.05076 -91.11834 
L 137.96997 -92.171313 
L 135.889181 -93.367162 
L 133.808391 -94.845588 
L 131.727601 -96.44697 
L 129.646812 -97.935015 
L 127.566022 -99.012365 
L 125.485233 -101.022638 
L 123.404443 -102.433222 
L 121.323654 -104.592342 
L 119.242864 -106.522136 
L 117.162075 -108.447358 
L 115.081285 -110.025513 
L 113.000496 -112.684626 
L 110.919706 -114.97495 
L 108.838917 -116.799406 
L 106.758127 -119.33397 
L 104.677338 -121.726456 
L 102.596548 -124.103566 
L 100.515758 -126.85303 
L 98.434969 -129.516493 
L 96.354179 -132.477135 
L 94.27339 -135.259599 
L 92.1926 -137.882336 
L 90.111811 -140.857207 
L 88.031021 -143.690928 
L 85.950232 -146.568607 
L 83.869442 -150.302477 
z
" style="stroke: #fa7c17; stroke-opacity: 0.5"/>
    </defs>
    <g clip-path="url(#pe42b2a7a82)">
     <use xlink:href="#m31a83587a5" x="0" y="353.99952" style="fill: #fa7c17; fill-opacity: 0.5; stroke: #fa7c17; stroke-opacity: 0.5"/>
    </g>
   </g>
   <g id="PolyCollection_3">
    <defs>
     <path id="m155f96dd1e" d="M 395.987872 -275.574294 
L 395.987872 -236.388306 
L 398.068661 -236.025041 
L 400.149451 -236.306731 
L 402.230241 -235.611593 
L 404.31103 -235.294326 
L 406.39182 -233.21602 
L 408.472609 -233.561649 
L 410.553399 -231.718903 
L 412.634188 -230.601714 
L 414.714978 -229.72478 
L 416.795767 -229.278907 
L 418.876557 -226.908295 
L 420.957346 -225.270094 
L 423.038136 -223.449214 
L 425.118925 -221.269603 
L 427.199715 -219.90965 
L 429.280504 -218.515752 
L 431.361294 -216.357016 
L 433.442084 -213.086866 
L 435.522873 -211.893164 
L 437.603663 -208.966207 
L 439.684452 -206.422137 
L 441.765242 -204.387461 
L 443.846031 -201.176031 
L 445.926821 -199.625158 
L 448.00761 -196.167974 
L 450.0884 -193.007294 
L 452.169189 -191.756958 
L 454.249979 -186.914315 
L 456.330768 -185.689275 
L 458.411558 -182.872153 
L 460.492347 -178.828822 
L 462.573137 -176.38323 
L 464.653926 -174.300619 
L 466.734716 -170.598313 
L 468.815506 -169.075453 
L 470.896295 -166.187825 
L 472.977085 -161.973773 
L 475.057874 -158.149082 
L 477.138664 -154.51293 
L 479.219453 -152.743639 
L 481.300243 -148.956283 
L 483.381032 -146.882601 
L 485.461822 -145.019889 
L 487.542611 -142.08045 
L 489.623401 -138.031714 
L 491.70419 -134.432649 
L 493.78498 -132.493629 
L 495.865769 -129.759707 
L 497.946559 -126.734518 
L 497.946559 -192.696767 
L 497.946559 -192.696767 
L 495.865769 -196.927339 
L 493.78498 -201.078693 
L 491.70419 -203.950499 
L 489.623401 -207.198132 
L 487.542611 -210.334146 
L 485.461822 -212.617673 
L 483.381032 -216.372307 
L 481.300243 -220.002531 
L 479.219453 -222.986492 
L 477.138664 -224.839415 
L 475.057874 -228.14834 
L 472.977085 -230.407015 
L 470.896295 -233.547088 
L 468.815506 -235.472397 
L 466.734716 -239.075038 
L 464.653926 -241.40824 
L 462.573137 -243.390105 
L 460.492347 -245.412887 
L 458.411558 -248.509383 
L 456.330768 -248.844049 
L 454.249979 -251.979162 
L 452.169189 -254.220147 
L 450.0884 -255.413874 
L 448.00761 -256.985029 
L 445.926821 -258.217655 
L 443.846031 -261.086853 
L 441.765242 -262.471503 
L 439.684452 -263.760583 
L 437.603663 -264.910927 
L 435.522873 -266.009908 
L 433.442084 -266.098843 
L 431.361294 -268.212221 
L 429.280504 -269.901421 
L 427.199715 -270.497508 
L 425.118925 -271.001389 
L 423.038136 -271.961045 
L 420.957346 -273.156892 
L 418.876557 -273.141997 
L 416.795767 -273.107246 
L 414.714978 -272.817585 
L 412.634188 -273.879645 
L 410.553399 -275.518572 
L 408.472609 -275.591349 
L 406.39182 -276.312634 
L 404.31103 -274.973991 
L 402.230241 -275.627761 
L 400.149451 -276.063376 
L 398.068661 -275.478489 
L 395.987872 -275.574294 
z
" style="stroke: #328c06; stroke-opacity: 0.25"/>
    </defs>
    <g clip-path="url(#pe42b2a7a82)">
     <use xlink:href="#m155f96dd1e" x="0" y="353.99952" style="fill: #328c06; fill-opacity: 0.25; stroke: #328c06; stroke-opacity: 0.25"/>
    </g>
   </g>
   <g id="PolyCollection_4">
    <defs>
     <path id="m553d735e81" d="M 395.987872 -262.866576 
L 395.987872 -249.39168 
L 398.068661 -249.203022 
L 400.149451 -249.158473 
L 402.230241 -249.105115 
L 404.31103 -248.751533 
L 406.39182 -247.983839 
L 408.472609 -247.526438 
L 410.553399 -246.958462 
L 412.634188 -245.466019 
L 414.714978 -244.949963 
L 416.795767 -243.45096 
L 418.876557 -242.648786 
L 420.957346 -241.183061 
L 423.038136 -240.016678 
L 425.118925 -238.378551 
L 427.199715 -236.638062 
L 429.280504 -235.379884 
L 431.361294 -234.009488 
L 433.442084 -231.859188 
L 435.522873 -229.580549 
L 437.603663 -228.080721 
L 439.684452 -225.877612 
L 441.765242 -223.808966 
L 443.846031 -221.713011 
L 445.926821 -219.520526 
L 448.00761 -217.300555 
L 450.0884 -215.113291 
L 452.169189 -212.791939 
L 454.249979 -210.305703 
L 456.330768 -207.894505 
L 458.411558 -205.020904 
L 460.492347 -202.534068 
L 462.573137 -199.96767 
L 464.653926 -197.323138 
L 466.734716 -194.771586 
L 468.815506 -191.586454 
L 470.896295 -188.929209 
L 472.977085 -185.628416 
L 475.057874 -182.858866 
L 477.138664 -180.585018 
L 479.219453 -177.177665 
L 481.300243 -174.28457 
L 483.381032 -171.151913 
L 485.461822 -167.93947 
L 487.542611 -165.132133 
L 489.623401 -162.086949 
L 491.70419 -158.532622 
L 493.78498 -155.934173 
L 495.865769 -152.306391 
L 497.946559 -149.058879 
L 497.946559 -172.843995 
L 497.946559 -172.843995 
L 495.865769 -176.114528 
L 493.78498 -179.410318 
L 491.70419 -182.772451 
L 489.623401 -185.740071 
L 487.542611 -188.643678 
L 485.461822 -192.624009 
L 483.381032 -195.217288 
L 481.300243 -197.884056 
L 479.219453 -201.169678 
L 477.138664 -204.247678 
L 475.057874 -207.319783 
L 472.977085 -209.437661 
L 470.896295 -212.534437 
L 468.815506 -214.916142 
L 466.734716 -217.835789 
L 464.653926 -220.341818 
L 462.573137 -222.975397 
L 460.492347 -225.247391 
L 458.411558 -227.911195 
L 456.330768 -229.482114 
L 454.249979 -232.155723 
L 452.169189 -234.433851 
L 450.0884 -236.450986 
L 448.00761 -238.212665 
L 445.926821 -240.801722 
L 443.846031 -242.263914 
L 441.765242 -243.78745 
L 439.684452 -245.378845 
L 437.603663 -247.129314 
L 435.522873 -248.781288 
L 433.442084 -250.269327 
L 431.361294 -251.506451 
L 429.280504 -253.122421 
L 427.199715 -254.189917 
L 425.118925 -255.237632 
L 423.038136 -256.303116 
L 420.957346 -257.391108 
L 418.876557 -258.431496 
L 416.795767 -259.060956 
L 414.714978 -259.753655 
L 412.634188 -260.315732 
L 410.553399 -261.174244 
L 408.472609 -261.574628 
L 406.39182 -262.368953 
L 404.31103 -262.686038 
L 402.230241 -262.629868 
L 400.149451 -263.08169 
L 398.068661 -262.668335 
L 395.987872 -262.866576 
z
" style="stroke: #328c06; stroke-opacity: 0.5"/>
    </defs>
    <g clip-path="url(#pe42b2a7a82)">
     <use xlink:href="#m553d735e81" x="0" y="353.99952" style="fill: #328c06; fill-opacity: 0.5; stroke: #328c06; stroke-opacity: 0.5"/>
    </g>
   </g>
   <g id="line2d_31">
    <path d="M 83.869442 230.113628 
L 85.950232 233.272053 
L 88.031021 235.861855 
L 90.111811 239.158632 
L 92.1926 241.774031 
L 94.27339 244.666349 
L 96.354179 246.710509 
L 100.515758 251.721812 
L 102.596548 254.294169 
L 104.677338 257.398449 
L 106.758127 259.144505 
L 110.919706 264.887598 
L 113.000496 267.260793 
L 115.081285 267.673695 
L 117.162075 270.29805 
L 119.242864 272.614809 
L 121.323654 274.105619 
L 123.404443 276.813615 
L 125.485233 278.287344 
L 127.566022 279.356237 
L 133.808391 284.112227 
L 135.889181 285.627495 
L 137.96997 286.667994 
L 140.05076 287.51587 
L 142.131549 288.967657 
L 146.293128 290.773857 
L 148.373918 292.197893 
L 150.454707 292.895908 
L 152.535497 293.377812 
L 154.616286 293.725456 
L 156.697076 295.0856 
L 158.777865 295.996013 
L 162.939444 296.022379 
L 165.020234 297.109225 
L 167.101023 297.278934 
L 169.181813 296.653681 
L 171.262603 297.221671 
L 173.343392 297.070934 
L 175.424182 297.170943 
L 177.504971 298.303335 
L 179.585761 296.300919 
L 181.66655 297.01898 
L 185.828129 296.200491 
L 187.908919 296.223164 
L 189.989708 295.565497 
L 192.070498 295.283157 
L 194.151287 293.887749 
L 196.232077 292.644673 
L 198.312866 292.380937 
L 200.393656 291.156973 
L 202.474446 291.133249 
L 206.636025 288.788257 
L 208.716814 287.777535 
L 210.797604 285.719568 
L 212.878393 284.87 
L 214.959183 282.939467 
L 217.039972 282.238728 
L 219.120762 280.48945 
L 223.282341 277.751462 
L 225.36313 276.085197 
L 229.524709 272.224738 
L 231.605499 270.549069 
L 233.686288 268.261371 
L 235.767078 267.545817 
L 237.847868 264.668501 
L 239.928657 263.026358 
L 242.009447 260.754142 
L 244.090236 258.200726 
L 246.171026 256.883425 
L 248.251815 254.36869 
L 250.332605 252.389739 
L 252.413394 250.666588 
L 254.494184 247.906637 
L 256.574973 245.577218 
L 258.655763 243.545939 
L 260.736552 241.127371 
L 262.817342 239.242203 
L 264.898131 236.594571 
L 266.978921 235.181668 
L 269.059711 231.10731 
L 271.1405 230.36439 
L 273.22129 226.158441 
L 275.302079 224.415979 
L 277.382869 222.34266 
L 279.463658 219.13457 
L 281.544448 217.348615 
L 283.625237 214.107481 
L 285.706027 212.567404 
L 289.867606 206.799929 
L 291.948395 204.186034 
L 294.029185 202.003497 
L 296.109974 199.494452 
L 298.190764 196.326252 
L 300.271553 194.177833 
L 302.352343 191.719969 
L 306.513922 186.067644 
L 308.594712 184.315594 
L 310.675501 180.763467 
L 312.756291 179.092549 
L 316.91787 173.008291 
L 318.998659 171.53805 
L 321.079449 169.193086 
L 325.241028 163.134197 
L 327.321817 161.038918 
L 329.402607 159.514839 
L 331.483396 156.646749 
L 333.564186 154.347597 
L 335.644976 153.278545 
L 337.725765 150.598839 
L 341.887344 146.038158 
L 346.048923 143.061365 
L 348.129713 140.752294 
L 350.210502 138.971124 
L 352.291292 136.516886 
L 354.372081 135.117855 
L 356.452871 133.898346 
L 358.53366 131.299188 
L 360.61445 130.284746 
L 362.695239 129.39453 
L 364.776029 127.391142 
L 366.856819 126.105235 
L 368.937608 124.674024 
L 371.018398 124.106339 
L 373.099187 123.067003 
L 375.179977 122.712521 
L 377.260766 120.87552 
L 379.341556 120.389768 
L 381.422345 120.061893 
L 383.503135 118.67266 
L 385.583924 117.724038 
L 387.664714 118.263026 
L 389.745503 117.533015 
L 391.826293 117.502088 
L 393.907082 117.215611 
L 395.987872 80.001013 
L 398.068661 80.657732 
L 400.149451 79.327499 
L 402.230241 78.843962 
L 404.31103 78.600415 
L 406.39182 78.610237 
L 408.472609 77.324407 
L 412.634188 76.873489 
L 414.714978 78.245212 
L 416.795767 77.652321 
L 418.876557 77.587177 
L 420.957346 77.723299 
L 423.038136 78.265175 
L 425.118925 79.136998 
L 427.199715 79.52485 
L 429.280504 80.173987 
L 431.361294 80.282457 
L 433.442084 81.407153 
L 435.522873 83.43264 
L 437.603663 83.560671 
L 439.684452 85.093535 
L 441.765242 86.383106 
L 443.846031 87.372906 
L 445.926821 89.215104 
L 448.00761 90.539162 
L 450.0884 92.137839 
L 452.169189 93.288657 
L 454.249979 94.622295 
L 456.330768 96.658483 
L 458.411558 98.333671 
L 460.492347 100.847489 
L 462.573137 102.526255 
L 464.653926 103.860241 
L 468.815506 108.510266 
L 470.896295 109.654338 
L 472.977085 111.929452 
L 475.057874 114.455913 
L 479.219453 118.066547 
L 483.381032 123.431269 
L 485.461822 125.595061 
L 493.78498 136.022257 
L 495.865769 139.5743 
L 497.946559 142.433866 
L 497.946559 142.433866 
" clip-path="url(#pe42b2a7a82)" style="fill: none; stroke: #fa7c17; stroke-opacity: 0; stroke-width: 1.5; stroke-linecap: round"/>
   </g>
   <g id="line2d_32">
    <path d="M 83.869442 190.403529 
L 88.031021 198.105496 
L 90.111811 200.381107 
L 92.1926 203.100655 
L 94.27339 206.823001 
L 96.354179 209.39557 
L 98.434969 212.552361 
L 102.596548 217.808366 
L 104.677338 219.635572 
L 106.758127 222.569799 
L 108.838917 224.659896 
L 113.000496 229.262234 
L 115.081285 232.269315 
L 117.162075 233.083539 
L 119.242864 235.405209 
L 121.323654 237.479222 
L 123.404443 239.283042 
L 125.485233 240.887159 
L 127.566022 243.036119 
L 129.646812 243.854043 
L 131.727601 245.020722 
L 133.808391 247.308577 
L 135.889181 248.669858 
L 137.96997 249.60993 
L 140.05076 251.030236 
L 142.131549 252.901936 
L 144.212339 253.164989 
L 146.293128 254.780684 
L 148.373918 255.333753 
L 150.454707 256.03195 
L 152.535497 256.87719 
L 154.616286 257.583661 
L 156.697076 258.981415 
L 158.777865 258.775377 
L 160.858655 259.060208 
L 162.939444 259.847611 
L 169.181813 260.161326 
L 173.343392 261.127384 
L 175.424182 261.027655 
L 177.504971 260.580333 
L 179.585761 260.013798 
L 181.66655 260.575036 
L 183.74734 259.512137 
L 185.828129 259.310093 
L 187.908919 259.433469 
L 189.989708 258.139976 
L 192.070498 258.395018 
L 194.151287 257.574489 
L 196.232077 256.523819 
L 198.312866 255.960862 
L 200.393656 254.3087 
L 202.474446 253.885108 
L 204.555235 252.159562 
L 206.636025 252.26161 
L 208.716814 250.43701 
L 210.797604 249.291409 
L 212.878393 247.409997 
L 214.959183 246.523891 
L 219.120762 244.164009 
L 221.201551 242.019706 
L 223.282341 241.287391 
L 227.44392 238.318892 
L 229.524709 235.364316 
L 231.605499 234.45378 
L 233.686288 231.983814 
L 239.928657 227.069904 
L 242.009447 224.673296 
L 244.090236 223.12782 
L 246.171026 220.607122 
L 248.251815 217.909187 
L 250.332605 216.233257 
L 252.413394 214.105159 
L 254.494184 211.802564 
L 256.574973 209.186333 
L 258.655763 207.145961 
L 260.736552 205.299065 
L 264.898131 199.739329 
L 266.978921 198.080724 
L 269.059711 195.684603 
L 271.1405 192.723133 
L 273.22129 190.732334 
L 275.302079 188.40629 
L 277.382869 185.551666 
L 279.463658 182.890468 
L 281.544448 180.524649 
L 283.625237 177.506487 
L 285.706027 175.265863 
L 291.948395 168.064578 
L 294.029185 165.13598 
L 302.352343 154.866779 
L 304.433133 151.748208 
L 306.513922 149.013424 
L 310.675501 144.495274 
L 312.756291 141.790304 
L 314.83708 140.036811 
L 316.91787 138.083295 
L 318.998659 134.980655 
L 321.079449 132.972007 
L 327.321817 125.070507 
L 329.402607 122.862036 
L 331.483396 120.211878 
L 333.564186 118.014117 
L 335.644976 116.122665 
L 337.725765 113.658517 
L 339.806555 111.703402 
L 341.887344 110.333131 
L 346.048923 105.340436 
L 348.129713 104.021869 
L 350.210502 101.424425 
L 352.291292 100.574235 
L 354.372081 98.070005 
L 356.452871 97.649109 
L 358.53366 94.615402 
L 360.61445 93.938485 
L 362.695239 92.711196 
L 364.776029 90.520813 
L 366.856819 89.249754 
L 368.937608 88.709104 
L 371.018398 87.027716 
L 373.099187 86.348068 
L 375.179977 84.757049 
L 377.260766 83.840022 
L 379.341556 82.008181 
L 381.422345 82.58895 
L 383.503135 80.607442 
L 387.664714 80.218889 
L 389.745503 78.666822 
L 391.826293 78.600074 
L 393.907082 78.386455 
L 395.987872 39.663552 
L 398.068661 38.991925 
L 400.149451 39.280521 
L 402.230241 39.872512 
L 404.31103 38.983368 
L 406.39182 38.287122 
L 408.472609 39.262429 
L 410.553399 39.362049 
L 412.634188 38.30145 
L 414.714978 39.927723 
L 416.795767 39.372764 
L 418.876557 39.683934 
L 420.957346 40.787026 
L 423.038136 41.556226 
L 425.118925 42.455088 
L 427.199715 42.508807 
L 429.280504 42.991392 
L 433.442084 45.033746 
L 435.522873 46.248008 
L 437.603663 47.045808 
L 439.684452 47.255355 
L 441.765242 49.532891 
L 443.846031 49.92264 
L 445.926821 51.907083 
L 448.00761 53.07601 
L 450.0884 54.672689 
L 452.169189 55.683796 
L 454.249979 57.610581 
L 456.330768 58.939986 
L 458.411558 61.638944 
L 460.492347 63.112418 
L 462.573137 64.066844 
L 464.653926 66.613814 
L 466.734716 68.802472 
L 468.815506 69.954833 
L 470.896295 72.512945 
L 475.057874 76.772704 
L 479.219453 80.812084 
L 481.300243 84.048994 
L 483.381032 85.653825 
L 485.461822 89.21259 
L 487.542611 90.234378 
L 489.623401 92.748173 
L 493.78498 96.874563 
L 495.865769 99.563108 
L 497.946559 101.295012 
L 497.946559 101.295012 
" clip-path="url(#pe42b2a7a82)" style="fill: none; stroke: #fa7c17; stroke-opacity: 0; stroke-width: 1.5; stroke-linecap: round"/>
   </g>
   <g id="line2d_33">
    <path d="M 83.869442 217.022688 
L 85.950232 220.44797 
L 88.031021 223.209246 
L 92.1926 229.257691 
L 96.354179 234.228361 
L 98.434969 237.319741 
L 100.515758 239.625668 
L 104.677338 244.857729 
L 106.758127 247.218125 
L 108.838917 249.908892 
L 110.919706 252.176586 
L 113.000496 254.2493 
L 117.162075 258.1226 
L 125.485233 265.963458 
L 129.646812 269.1407 
L 131.727601 270.25645 
L 133.808391 271.975487 
L 135.889181 273.467139 
L 137.96997 274.536162 
L 140.05076 275.298647 
L 142.131549 277.1092 
L 144.212339 278.075746 
L 146.293128 278.60833 
L 148.373918 280.254555 
L 150.454707 280.672864 
L 152.535497 281.315804 
L 154.616286 282.113851 
L 156.697076 283.171775 
L 158.777865 283.628246 
L 160.858655 283.89431 
L 162.939444 283.884322 
L 165.020234 284.777757 
L 167.101023 285.279184 
L 169.181813 285.068935 
L 173.343392 285.287364 
L 175.424182 285.488547 
L 177.504971 285.349709 
L 179.585761 285.008462 
L 181.66655 285.017373 
L 187.908919 283.965048 
L 189.989708 283.020381 
L 192.070498 282.482031 
L 194.151287 281.645397 
L 196.232077 281.019484 
L 198.312866 280.564823 
L 200.393656 279.379342 
L 204.555235 277.437642 
L 206.636025 276.464401 
L 210.797604 274.092831 
L 214.959183 271.315407 
L 217.039972 270.123407 
L 219.120762 268.201674 
L 221.201551 266.664376 
L 223.282341 265.332559 
L 227.44392 262.169344 
L 229.524709 260.620645 
L 233.686288 256.463164 
L 237.847868 252.938856 
L 242.009447 248.66782 
L 246.171026 244.89837 
L 250.332605 240.393251 
L 252.413394 238.3803 
L 254.494184 236.083313 
L 256.574973 233.498364 
L 258.655763 231.702763 
L 260.736552 229.187688 
L 262.817342 227.165749 
L 264.898131 224.905127 
L 269.059711 219.711683 
L 271.1405 217.649035 
L 273.22129 214.852221 
L 275.302079 212.501552 
L 279.463658 207.412925 
L 281.544448 204.626161 
L 283.625237 202.715807 
L 287.786816 197.554564 
L 289.867606 194.78323 
L 291.948395 192.597186 
L 296.109974 187.111802 
L 298.190764 184.829911 
L 300.271553 181.738877 
L 302.352343 179.721635 
L 304.433133 176.662791 
L 308.594712 172.049509 
L 310.675501 169.157682 
L 314.83708 164.428043 
L 316.91787 161.395374 
L 318.998659 159.519607 
L 321.079449 156.689722 
L 329.402607 147.289126 
L 331.483396 145.298977 
L 333.564186 142.867643 
L 335.644976 140.97075 
L 339.806555 136.204641 
L 341.887344 134.462361 
L 343.968134 132.551317 
L 346.048923 130.177099 
L 350.210502 126.672498 
L 352.291292 124.647727 
L 354.372081 122.945864 
L 356.452871 121.485364 
L 362.695239 116.539706 
L 368.937608 112.66461 
L 371.018398 111.979885 
L 373.099187 110.575647 
L 375.179977 109.83429 
L 377.260766 108.487643 
L 379.341556 107.363643 
L 381.422345 107.393344 
L 383.503135 106.216926 
L 385.583924 105.522495 
L 387.664714 105.637901 
L 389.745503 104.824494 
L 391.826293 104.681898 
L 393.907082 104.946362 
L 395.987872 67.638055 
L 400.149451 66.347284 
L 402.230241 65.948068 
L 404.31103 65.369007 
L 406.39182 65.058062 
L 410.553399 64.624873 
L 414.714978 65.043562 
L 416.795767 65.088524 
L 418.876557 65.014435 
L 420.957346 65.812135 
L 423.038136 66.3392 
L 425.118925 66.698952 
L 427.199715 67.378846 
L 429.280504 67.818989 
L 431.361294 68.682705 
L 433.442084 69.847912 
L 435.522873 70.78718 
L 437.603663 71.548577 
L 439.684452 72.882561 
L 441.765242 74.377438 
L 443.846031 75.270598 
L 445.926821 76.506824 
L 448.00761 78.431433 
L 450.0884 79.710529 
L 452.169189 81.360511 
L 454.249979 82.830476 
L 458.411558 86.221655 
L 460.492347 88.088805 
L 462.573137 90.123711 
L 464.653926 91.739847 
L 466.734716 93.691724 
L 468.815506 95.421457 
L 472.977085 99.863848 
L 475.057874 101.844751 
L 479.219453 106.514451 
L 481.300243 108.25488 
L 483.381032 111.055578 
L 487.542611 115.84955 
L 491.70419 120.671886 
L 497.946559 128.429696 
L 497.946559 128.429696 
" clip-path="url(#pe42b2a7a82)" style="fill: none; stroke: #fa7c17; stroke-opacity: 0; stroke-width: 1.5; stroke-linecap: round"/>
   </g>
   <g id="line2d_34">
    <path d="M 83.869442 203.697043 
L 85.950232 207.430913 
L 92.1926 216.117184 
L 96.354179 221.522385 
L 98.434969 224.483027 
L 102.596548 229.895954 
L 106.758127 234.66555 
L 108.838917 237.200114 
L 110.919706 239.02457 
L 113.000496 241.314894 
L 115.081285 243.974007 
L 117.162075 245.552162 
L 121.323654 249.407178 
L 123.404443 251.566298 
L 125.485233 252.976882 
L 127.566022 254.987155 
L 129.646812 256.064505 
L 135.889181 260.632358 
L 137.96997 261.828207 
L 140.05076 262.88118 
L 142.131549 264.88459 
L 144.212339 265.309604 
L 146.293128 266.313942 
L 148.373918 267.491468 
L 150.454707 268.008459 
L 152.535497 268.854686 
L 154.616286 269.53647 
L 156.697076 270.799738 
L 158.777865 270.885841 
L 160.858655 271.654728 
L 162.939444 271.682986 
L 165.020234 272.243819 
L 167.101023 272.245947 
L 171.262603 272.925374 
L 175.424182 272.836388 
L 177.504971 272.700708 
L 179.585761 272.312263 
L 185.828129 271.732736 
L 187.908919 271.333097 
L 189.989708 270.65971 
L 192.070498 270.132903 
L 196.232077 268.690534 
L 198.312866 267.821151 
L 200.393656 266.65637 
L 202.474446 265.775919 
L 206.636025 263.670935 
L 208.716814 262.420434 
L 210.797604 261.534113 
L 212.878393 259.816748 
L 217.039972 257.278843 
L 219.120762 255.605029 
L 221.201551 254.502684 
L 223.282341 253.183776 
L 225.36313 251.166836 
L 229.524709 248.10886 
L 231.605499 245.704351 
L 233.686288 244.290313 
L 235.767078 242.256539 
L 237.847868 240.497057 
L 239.928657 238.145118 
L 242.009447 236.214427 
L 244.090236 234.523913 
L 246.171026 232.511638 
L 248.251815 230.176825 
L 250.332605 228.215804 
L 252.413394 225.926749 
L 254.494184 223.980857 
L 256.574973 221.20323 
L 258.655763 219.367828 
L 260.736552 216.72483 
L 262.817342 214.668711 
L 266.978921 209.977793 
L 269.059711 207.183992 
L 271.1405 205.233118 
L 273.22129 202.865948 
L 275.302079 199.915129 
L 277.382869 197.584457 
L 279.463658 194.927816 
L 281.544448 192.620993 
L 285.706027 187.481846 
L 287.786816 184.727435 
L 289.867606 182.432471 
L 302.352343 166.9651 
L 304.433133 164.034073 
L 310.675501 156.762578 
L 314.83708 151.797892 
L 318.998659 146.859647 
L 321.079449 144.331468 
L 323.160238 142.374956 
L 325.241028 139.490554 
L 331.483396 132.85769 
L 333.564186 130.245777 
L 335.644976 128.504815 
L 341.887344 122.049537 
L 343.968134 120.246625 
L 348.129713 115.815984 
L 350.210502 114.234472 
L 352.291292 111.987562 
L 356.452871 108.962221 
L 358.53366 107.119694 
L 360.61445 105.802845 
L 362.695239 104.13806 
L 364.776029 102.226758 
L 366.856819 101.529241 
L 368.937608 100.588725 
L 371.018398 99.030086 
L 373.099187 97.870103 
L 375.179977 96.471435 
L 377.260766 95.87259 
L 379.341556 94.822947 
L 381.422345 94.361385 
L 383.503135 93.400294 
L 385.583924 92.804516 
L 387.664714 92.670105 
L 389.745503 91.807737 
L 393.907082 91.398893 
L 395.987872 54.08201 
L 398.068661 52.8798 
L 404.31103 52.47085 
L 406.39182 51.686577 
L 408.472609 51.953525 
L 410.553399 52.025062 
L 412.634188 51.841911 
L 414.714978 51.544893 
L 416.795767 52.215398 
L 418.876557 52.26964 
L 420.957346 52.930104 
L 423.038136 53.793725 
L 425.118925 53.935095 
L 427.199715 54.707074 
L 429.280504 55.07982 
L 431.361294 56.402005 
L 433.442084 56.992604 
L 435.522873 58.475689 
L 437.603663 58.793164 
L 441.765242 61.77804 
L 443.846031 62.55954 
L 445.926821 64.184976 
L 448.00761 65.530666 
L 450.0884 67.022505 
L 452.169189 68.034337 
L 462.573137 76.736822 
L 464.653926 79.208313 
L 466.734716 80.877403 
L 468.815506 82.693973 
L 472.977085 87.020116 
L 475.057874 88.823225 
L 477.138664 91.479196 
L 479.219453 93.397591 
L 485.461822 100.242588 
L 487.542611 102.92513 
L 493.78498 109.771272 
L 495.865769 112.598085 
L 497.946559 114.768722 
L 497.946559 114.768722 
" clip-path="url(#pe42b2a7a82)" style="fill: none; stroke: #fa7c17; stroke-opacity: 0; stroke-width: 1.5; stroke-linecap: round"/>
   </g>
   <g id="line2d_35">
    <path d="M 83.869442 210.309648 
L 85.950232 214.033277 
L 88.031021 216.72218 
L 92.1926 222.578843 
L 96.354179 227.997118 
L 98.434969 230.879826 
L 102.596548 236.082879 
L 110.919706 245.928579 
L 113.000496 247.623642 
L 115.081285 249.819399 
L 121.323654 255.749139 
L 123.404443 257.481868 
L 127.566022 261.319339 
L 131.727601 263.945315 
L 135.889181 267.061411 
L 137.96997 268.297216 
L 140.05076 269.375484 
L 142.131549 270.969202 
L 144.212339 271.823732 
L 146.293128 272.47867 
L 148.373918 273.7738 
L 152.535497 275.087469 
L 154.616286 275.72024 
L 156.697076 276.63815 
L 158.777865 277.300271 
L 160.858655 277.768359 
L 162.939444 277.722157 
L 165.020234 278.617717 
L 169.181813 278.956562 
L 171.262603 279.057237 
L 173.343392 279.40329 
L 177.504971 278.703498 
L 179.585761 278.73131 
L 183.74734 278.404612 
L 185.828129 277.91211 
L 187.908919 277.555066 
L 189.989708 276.7393 
L 192.070498 276.549429 
L 194.151287 275.542819 
L 196.232077 274.667454 
L 198.312866 274.109029 
L 200.393656 273.210655 
L 202.474446 272.151953 
L 204.555235 271.2462 
L 206.636025 270.006721 
L 208.716814 269.104122 
L 210.797604 267.565201 
L 212.878393 266.376038 
L 214.959183 264.981936 
L 217.039972 263.750597 
L 219.120762 262.079291 
L 223.282341 259.346211 
L 227.44392 255.836597 
L 229.524709 254.263271 
L 231.605499 252.061924 
L 233.686288 250.288268 
L 235.767078 248.249423 
L 237.847868 246.493091 
L 242.009447 242.584209 
L 246.171026 238.793402 
L 250.332605 234.339059 
L 254.494184 230.209073 
L 256.574973 227.179976 
L 258.655763 225.613923 
L 260.736552 223.074677 
L 266.978921 216.312621 
L 269.059711 213.335757 
L 271.1405 211.711255 
L 273.22129 208.691185 
L 277.382869 203.73538 
L 281.544448 198.665452 
L 283.625237 196.337116 
L 285.706027 193.510157 
L 291.948395 186.189543 
L 296.109974 180.843559 
L 306.513922 167.927012 
L 316.91787 155.25543 
L 318.998659 153.046587 
L 321.079449 150.57253 
L 323.160238 148.475293 
L 325.241028 145.831846 
L 329.402607 141.178803 
L 331.483396 139.084201 
L 333.564186 136.720834 
L 337.725765 132.408499 
L 339.806555 130.259935 
L 341.887344 128.289425 
L 346.048923 124.024095 
L 348.129713 122.124002 
L 350.210502 120.487149 
L 352.291292 118.320081 
L 354.372081 116.415269 
L 356.452871 115.302538 
L 362.695239 110.318487 
L 364.776029 108.816643 
L 366.856819 108.018765 
L 368.937608 106.472507 
L 371.018398 105.477596 
L 373.099187 104.072193 
L 375.179977 103.34276 
L 379.341556 101.141552 
L 381.422345 100.872912 
L 383.503135 99.589751 
L 385.583924 99.238015 
L 387.664714 99.196734 
L 389.745503 98.56095 
L 391.826293 98.247992 
L 393.907082 98.195522 
L 395.987872 60.884462 
L 400.149451 59.383384 
L 402.230241 59.026926 
L 404.31103 58.803989 
L 406.39182 58.233545 
L 412.634188 58.18094 
L 416.795767 58.611318 
L 418.876557 58.468857 
L 420.957346 59.467368 
L 423.038136 59.944643 
L 425.118925 60.588228 
L 429.280504 61.591046 
L 431.361294 62.413646 
L 433.442084 63.575259 
L 435.522873 64.880435 
L 437.603663 65.301359 
L 439.684452 66.863173 
L 441.765242 68.038562 
L 443.846031 69.032191 
L 445.926821 70.248499 
L 448.00761 72.036856 
L 450.0884 73.472988 
L 452.169189 74.665206 
L 454.249979 76.415083 
L 456.330768 77.797114 
L 460.492347 81.85453 
L 462.573137 83.309336 
L 464.653926 85.461072 
L 468.815506 89.050129 
L 475.057874 95.261905 
L 477.138664 97.942266 
L 479.219453 100.008132 
L 481.300243 101.909262 
L 483.381032 104.469417 
L 485.461822 106.562808 
L 487.542611 109.422962 
L 493.78498 116.669629 
L 495.865769 119.364351 
L 497.946559 121.689747 
L 497.946559 121.689747 
" clip-path="url(#pe42b2a7a82)" style="fill: none; stroke: #000000; stroke-width: 1.5; stroke-linecap: round"/>
   </g>
   <g id="line2d_36">
    <path d="M 395.987872 117.611214 
L 398.068661 117.974479 
L 400.149451 117.692789 
L 402.230241 118.387927 
L 404.31103 118.705194 
L 406.39182 120.7835 
L 408.472609 120.437871 
L 410.553399 122.280617 
L 412.634188 123.397806 
L 414.714978 124.27474 
L 416.795767 124.720613 
L 418.876557 127.091225 
L 420.957346 128.729426 
L 423.038136 130.550306 
L 425.118925 132.729917 
L 427.199715 134.08987 
L 429.280504 135.483768 
L 431.361294 137.642504 
L 433.442084 140.912654 
L 435.522873 142.106356 
L 437.603663 145.033313 
L 439.684452 147.577383 
L 441.765242 149.612059 
L 443.846031 152.823489 
L 445.926821 154.374362 
L 448.00761 157.831546 
L 450.0884 160.992226 
L 452.169189 162.242562 
L 454.249979 167.085205 
L 456.330768 168.310245 
L 458.411558 171.127367 
L 460.492347 175.170698 
L 462.573137 177.61629 
L 464.653926 179.698901 
L 466.734716 183.401207 
L 468.815506 184.924067 
L 470.896295 187.811695 
L 472.977085 192.025747 
L 475.057874 195.850438 
L 477.138664 199.48659 
L 479.219453 201.255881 
L 481.300243 205.043237 
L 483.381032 207.116919 
L 485.461822 208.979631 
L 487.542611 211.91907 
L 489.623401 215.967806 
L 491.70419 219.566871 
L 493.78498 221.505891 
L 495.865769 224.239813 
L 497.946559 227.265002 
" clip-path="url(#pe42b2a7a82)" style="fill: none; stroke: #328c06; stroke-opacity: 0; stroke-width: 1.5; stroke-linecap: round"/>
   </g>
   <g id="line2d_37">
    <path d="M 395.987872 78.425226 
L 398.068661 78.521031 
L 400.149451 77.936144 
L 402.230241 78.371759 
L 404.31103 79.025529 
L 406.39182 77.686886 
L 408.472609 78.408171 
L 410.553399 78.480948 
L 412.634188 80.119875 
L 414.714978 81.181935 
L 416.795767 80.892274 
L 418.876557 80.857523 
L 420.957346 80.842628 
L 423.038136 82.038475 
L 425.118925 82.998131 
L 427.199715 83.502012 
L 429.280504 84.098099 
L 431.361294 85.787299 
L 433.442084 87.900677 
L 435.522873 87.989612 
L 437.603663 89.088593 
L 439.684452 90.238937 
L 441.765242 91.528017 
L 443.846031 92.912667 
L 445.926821 95.781865 
L 448.00761 97.014491 
L 450.0884 98.585646 
L 452.169189 99.779373 
L 454.249979 102.020358 
L 456.330768 105.155471 
L 458.411558 105.490137 
L 460.492347 108.586633 
L 462.573137 110.609415 
L 464.653926 112.59128 
L 466.734716 114.924482 
L 468.815506 118.527123 
L 470.896295 120.452432 
L 472.977085 123.592505 
L 475.057874 125.85118 
L 477.138664 129.160105 
L 479.219453 131.013028 
L 481.300243 133.996989 
L 483.381032 137.627213 
L 485.461822 141.381847 
L 487.542611 143.665374 
L 489.623401 146.801388 
L 491.70419 150.049021 
L 493.78498 152.920827 
L 495.865769 157.072181 
L 497.946559 161.302753 
" clip-path="url(#pe42b2a7a82)" style="fill: none; stroke: #328c06; stroke-opacity: 0; stroke-width: 1.5; stroke-linecap: round"/>
   </g>
   <g id="line2d_38">
    <path d="M 395.987872 104.60784 
L 398.068661 104.796498 
L 400.149451 104.841047 
L 402.230241 104.894405 
L 404.31103 105.247987 
L 406.39182 106.015681 
L 408.472609 106.473082 
L 410.553399 107.041058 
L 412.634188 108.533501 
L 414.714978 109.049557 
L 416.795767 110.54856 
L 418.876557 111.350734 
L 420.957346 112.816459 
L 423.038136 113.982842 
L 425.118925 115.620969 
L 427.199715 117.361458 
L 429.280504 118.619636 
L 431.361294 119.990032 
L 433.442084 122.140332 
L 435.522873 124.418971 
L 437.603663 125.918799 
L 439.684452 128.121908 
L 441.765242 130.190554 
L 443.846031 132.286509 
L 445.926821 134.478994 
L 448.00761 136.698965 
L 450.0884 138.886229 
L 452.169189 141.207581 
L 454.249979 143.693817 
L 456.330768 146.105015 
L 458.411558 148.978616 
L 460.492347 151.465452 
L 462.573137 154.03185 
L 464.653926 156.676382 
L 466.734716 159.227934 
L 468.815506 162.413066 
L 470.896295 165.070311 
L 472.977085 168.371104 
L 475.057874 171.140654 
L 477.138664 173.414502 
L 479.219453 176.821855 
L 481.300243 179.71495 
L 483.381032 182.847607 
L 485.461822 186.06005 
L 487.542611 188.867387 
L 489.623401 191.912571 
L 491.70419 195.466898 
L 493.78498 198.065347 
L 495.865769 201.693129 
L 497.946559 204.940641 
" clip-path="url(#pe42b2a7a82)" style="fill: none; stroke: #328c06; stroke-opacity: 0; stroke-width: 1.5; stroke-linecap: round"/>
   </g>
   <g id="line2d_39">
    <path d="M 395.987872 91.132944 
L 398.068661 91.331185 
L 400.149451 90.91783 
L 402.230241 91.369652 
L 404.31103 91.313482 
L 406.39182 91.630567 
L 408.472609 92.424892 
L 410.553399 92.825276 
L 412.634188 93.683788 
L 414.714978 94.245865 
L 416.795767 94.938564 
L 418.876557 95.568024 
L 420.957346 96.608412 
L 423.038136 97.696404 
L 425.118925 98.761888 
L 427.199715 99.809603 
L 429.280504 100.877099 
L 431.361294 102.493069 
L 433.442084 103.730193 
L 435.522873 105.218232 
L 437.603663 106.870206 
L 439.684452 108.620675 
L 441.765242 110.21207 
L 443.846031 111.735606 
L 445.926821 113.197798 
L 448.00761 115.786855 
L 450.0884 117.548534 
L 452.169189 119.565669 
L 454.249979 121.843797 
L 456.330768 124.517406 
L 458.411558 126.088325 
L 460.492347 128.752129 
L 462.573137 131.024123 
L 464.653926 133.657702 
L 466.734716 136.163731 
L 468.815506 139.083378 
L 470.896295 141.465083 
L 472.977085 144.561859 
L 475.057874 146.679737 
L 477.138664 149.751842 
L 479.219453 152.829842 
L 481.300243 156.115464 
L 483.381032 158.782232 
L 485.461822 161.375511 
L 487.542611 165.355842 
L 489.623401 168.259449 
L 491.70419 171.227069 
L 493.78498 174.589202 
L 495.865769 177.884992 
L 497.946559 181.155525 
" clip-path="url(#pe42b2a7a82)" style="fill: none; stroke: #328c06; stroke-opacity: 0; stroke-width: 1.5; stroke-linecap: round"/>
   </g>
   <g id="line2d_40">
    <path d="M 395.987872 97.849633 
L 398.068661 98.017948 
L 400.149451 97.623602 
L 402.230241 98.174251 
L 404.31103 98.423957 
L 406.39182 98.605544 
L 408.472609 99.336764 
L 410.553399 100.036475 
L 412.634188 100.775945 
L 414.714978 101.580428 
L 416.795767 102.814367 
L 418.876557 103.605819 
L 420.957346 104.522439 
L 423.038136 105.925832 
L 425.118925 106.995523 
L 427.199715 108.756999 
L 429.280504 109.46183 
L 431.361294 111.321513 
L 433.442084 112.842507 
L 435.522873 114.54672 
L 437.603663 116.075422 
L 439.684452 118.191892 
L 441.765242 119.959957 
L 443.846031 122.002841 
L 445.926821 123.641834 
L 448.00761 126.060514 
L 450.0884 127.844025 
L 452.169189 130.531184 
L 454.249979 132.809094 
L 456.330768 135.369693 
L 458.411558 137.391188 
L 460.492347 140.398179 
L 462.573137 142.53567 
L 464.653926 144.883546 
L 466.734716 147.640821 
L 468.815506 150.80857 
L 470.896295 153.462824 
L 472.977085 156.252621 
L 475.057874 158.479781 
L 477.138664 161.675984 
L 479.219453 164.820926 
L 481.300243 167.962114 
L 483.381032 170.889106 
L 485.461822 173.582 
L 487.542611 177.111306 
L 489.623401 180.574686 
L 491.70419 182.878894 
L 493.78498 186.313584 
L 495.865769 189.929898 
L 497.946559 193.028539 
" clip-path="url(#pe42b2a7a82)" style="fill: none; stroke: #000000; stroke-width: 1.5; stroke-linecap: round"/>
   </g>
   <g id="line2d_41">
    <path d="M 395.357304 311.304146 
L 395.357304 25.286312 
" clip-path="url(#pe42b2a7a82)" style="fill: none; stroke: #ff0000; stroke-width: 3; stroke-linecap: round"/>
   </g>
   <g id="patch_3">
    <path d="M 63.165586 311.304146 
L 63.165586 25.286312 
" style="fill: none"/>
   </g>
   <g id="patch_4">
    <path d="M 518.650415 311.304146 
L 518.650415 25.286312 
" style="fill: none"/>
   </g>
   <g id="patch_5">
    <path d="M 63.165586 311.304146 
L 518.650415 311.304146 
" style="fill: none"/>
   </g>
   <g id="patch_6">
    <path d="M 63.165586 25.286312 
L 518.650415 25.286312 
" style="fill: none"/>
   </g>
   <g id="text_18">
    <!-- $R^2$ on all data = 0.987 -->
    <g style="fill: #262626" transform="translate(201.308001 19.286312) scale(0.16 -0.16)">
     <defs>
      <path id="DejaVuSans-Oblique-52" d="M 1613 4147 
L 1294 2491 
L 2106 2491 
Q 2584 2491 2879 2755 
Q 3175 3019 3175 3444 
Q 3175 3784 2976 3965 
Q 2778 4147 2406 4147 
L 1613 4147 
z
M 2772 2241 
Q 2972 2194 3105 2009 
Q 3238 1825 3413 1275 
L 3809 0 
L 3144 0 
L 2778 1197 
Q 2638 1659 2453 1815 
Q 2269 1972 1888 1972 
L 1191 1972 
L 806 0 
L 172 0 
L 1081 4666 
L 2503 4666 
Q 3150 4666 3495 4373 
Q 3841 4081 3841 3531 
Q 3841 3044 3547 2687 
Q 3253 2331 2772 2241 
z
" transform="scale(0.015625)"/>
      <path id="DejaVuSans-20" transform="scale(0.015625)"/>
      <path id="DejaVuSans-6f" d="M 1959 3097 
Q 1497 3097 1228 2736 
Q 959 2375 959 1747 
Q 959 1119 1226 758 
Q 1494 397 1959 397 
Q 2419 397 2687 759 
Q 2956 1122 2956 1747 
Q 2956 2369 2687 2733 
Q 2419 3097 1959 3097 
z
M 1959 3584 
Q 2709 3584 3137 3096 
Q 3566 2609 3566 1747 
Q 3566 888 3137 398 
Q 2709 -91 1959 -91 
Q 1206 -91 779 398 
Q 353 888 353 1747 
Q 353 2609 779 3096 
Q 1206 3584 1959 3584 
z
" transform="scale(0.015625)"/>
      <path id="DejaVuSans-6e" d="M 3513 2113 
L 3513 0 
L 2938 0 
L 2938 2094 
Q 2938 2591 2744 2837 
Q 2550 3084 2163 3084 
Q 1697 3084 1428 2787 
Q 1159 2491 1159 1978 
L 1159 0 
L 581 0 
L 581 3500 
L 1159 3500 
L 1159 2956 
Q 1366 3272 1645 3428 
Q 1925 3584 2291 3584 
Q 2894 3584 3203 3211 
Q 3513 2838 3513 2113 
z
" transform="scale(0.015625)"/>
      <path id="DejaVuSans-61" d="M 2194 1759 
Q 1497 1759 1228 1600 
Q 959 1441 959 1056 
Q 959 750 1161 570 
Q 1363 391 1709 391 
Q 2188 391 2477 730 
Q 2766 1069 2766 1631 
L 2766 1759 
L 2194 1759 
z
M 3341 1997 
L 3341 0 
L 2766 0 
L 2766 531 
Q 2569 213 2275 61 
Q 1981 -91 1556 -91 
Q 1019 -91 701 211 
Q 384 513 384 1019 
Q 384 1609 779 1909 
Q 1175 2209 1959 2209 
L 2766 2209 
L 2766 2266 
Q 2766 2663 2505 2880 
Q 2244 3097 1772 3097 
Q 1472 3097 1187 3025 
Q 903 2953 641 2809 
L 641 3341 
Q 956 3463 1253 3523 
Q 1550 3584 1831 3584 
Q 2591 3584 2966 3190 
Q 3341 2797 3341 1997 
z
" transform="scale(0.015625)"/>
      <path id="DejaVuSans-6c" d="M 603 4863 
L 1178 4863 
L 1178 0 
L 603 0 
L 603 4863 
z
" transform="scale(0.015625)"/>
      <path id="DejaVuSans-64" d="M 2906 2969 
L 2906 4863 
L 3481 4863 
L 3481 0 
L 2906 0 
L 2906 525 
Q 2725 213 2448 61 
Q 2172 -91 1784 -91 
Q 1150 -91 751 415 
Q 353 922 353 1747 
Q 353 2572 751 3078 
Q 1150 3584 1784 3584 
Q 2172 3584 2448 3432 
Q 2725 3281 2906 2969 
z
M 947 1747 
Q 947 1113 1208 752 
Q 1469 391 1925 391 
Q 2381 391 2643 752 
Q 2906 1113 2906 1747 
Q 2906 2381 2643 2742 
Q 2381 3103 1925 3103 
Q 1469 3103 1208 2742 
Q 947 2381 947 1747 
z
" transform="scale(0.015625)"/>
      <path id="DejaVuSans-74" d="M 1172 4494 
L 1172 3500 
L 2356 3500 
L 2356 3053 
L 1172 3053 
L 1172 1153 
Q 1172 725 1289 603 
Q 1406 481 1766 481 
L 2356 481 
L 2356 0 
L 1766 0 
Q 1100 0 847 248 
Q 594 497 594 1153 
L 594 3053 
L 172 3053 
L 172 3500 
L 594 3500 
L 594 4494 
L 1172 4494 
z
" transform="scale(0.015625)"/>
      <path id="DejaVuSans-3d" d="M 678 2906 
L 4684 2906 
L 4684 2381 
L 678 2381 
L 678 2906 
z
M 678 1631 
L 4684 1631 
L 4684 1100 
L 678 1100 
L 678 1631 
z
" transform="scale(0.015625)"/>
      <path id="DejaVuSans-39" d="M 703 97 
L 703 672 
Q 941 559 1184 500 
Q 1428 441 1663 441 
Q 2288 441 2617 861 
Q 2947 1281 2994 2138 
Q 2813 1869 2534 1725 
Q 2256 1581 1919 1581 
Q 1219 1581 811 2004 
Q 403 2428 403 3163 
Q 403 3881 828 4315 
Q 1253 4750 1959 4750 
Q 2769 4750 3195 4129 
Q 3622 3509 3622 2328 
Q 3622 1225 3098 567 
Q 2575 -91 1691 -91 
Q 1453 -91 1209 -44 
Q 966 3 703 97 
z
M 1959 2075 
Q 2384 2075 2632 2365 
Q 2881 2656 2881 3163 
Q 2881 3666 2632 3958 
Q 2384 4250 1959 4250 
Q 1534 4250 1286 3958 
Q 1038 3666 1038 3163 
Q 1038 2656 1286 2365 
Q 1534 2075 1959 2075 
z
" transform="scale(0.015625)"/>
      <path id="DejaVuSans-38" d="M 2034 2216 
Q 1584 2216 1326 1975 
Q 1069 1734 1069 1313 
Q 1069 891 1326 650 
Q 1584 409 2034 409 
Q 2484 409 2743 651 
Q 3003 894 3003 1313 
Q 3003 1734 2745 1975 
Q 2488 2216 2034 2216 
z
M 1403 2484 
Q 997 2584 770 2862 
Q 544 3141 544 3541 
Q 544 4100 942 4425 
Q 1341 4750 2034 4750 
Q 2731 4750 3128 4425 
Q 3525 4100 3525 3541 
Q 3525 3141 3298 2862 
Q 3072 2584 2669 2484 
Q 3125 2378 3379 2068 
Q 3634 1759 3634 1313 
Q 3634 634 3220 271 
Q 2806 -91 2034 -91 
Q 1263 -91 848 271 
Q 434 634 434 1313 
Q 434 1759 690 2068 
Q 947 2378 1403 2484 
z
M 1172 3481 
Q 1172 3119 1398 2916 
Q 1625 2713 2034 2713 
Q 2441 2713 2670 2916 
Q 2900 3119 2900 3481 
Q 2900 3844 2670 4047 
Q 2441 4250 2034 4250 
Q 1625 4250 1398 4047 
Q 1172 3844 1172 3481 
z
" transform="scale(0.015625)"/>
     </defs>
     <use xlink:href="#DejaVuSans-Oblique-52" transform="translate(0 0.765625)"/>
     <use xlink:href="#DejaVuSans-32" transform="translate(76.499193 39.046875) scale(0.7)"/>
     <use xlink:href="#DejaVuSans-20" transform="translate(123.769701 0.765625)"/>
     <use xlink:href="#DejaVuSans-6f" transform="translate(155.55681 0.765625)"/>
     <use xlink:href="#DejaVuSans-6e" transform="translate(216.738451 0.765625)"/>
     <use xlink:href="#DejaVuSans-20" transform="translate(280.117357 0.765625)"/>
     <use xlink:href="#DejaVuSans-61" transform="translate(311.904466 0.765625)"/>
     <use xlink:href="#DejaVuSans-6c" transform="translate(373.183763 0.765625)"/>
     <use xlink:href="#DejaVuSans-6c" transform="translate(400.966966 0.765625)"/>
     <use xlink:href="#DejaVuSans-20" transform="translate(428.750169 0.765625)"/>
     <use xlink:href="#DejaVuSans-64" transform="translate(460.537279 0.765625)"/>
     <use xlink:href="#DejaVuSans-61" transform="translate(524.013841 0.765625)"/>
     <use xlink:href="#DejaVuSans-74" transform="translate(585.293138 0.765625)"/>
     <use xlink:href="#DejaVuSans-61" transform="translate(624.502122 0.765625)"/>
     <use xlink:href="#DejaVuSans-20" transform="translate(685.781419 0.765625)"/>
     <use xlink:href="#DejaVuSans-3d" transform="translate(717.568529 0.765625)"/>
     <use xlink:href="#DejaVuSans-20" transform="translate(801.357591 0.765625)"/>
     <use xlink:href="#DejaVuSans-30" transform="translate(833.144701 0.765625)"/>
     <use xlink:href="#DejaVuSans-2e" transform="translate(896.767747 0.765625)"/>
     <use xlink:href="#DejaVuSans-39" transform="translate(928.554857 0.765625)"/>
     <use xlink:href="#DejaVuSans-38" transform="translate(992.177904 0.765625)"/>
     <use xlink:href="#DejaVuSans-37" transform="translate(1055.800951 0.765625)"/>
    </g>
   </g>
   <g id="legend_1">
    <g id="line2d_42">
     <path d="M 73.965586 41.004437 
L 85.965586 41.004437 
L 97.965586 41.004437 
" style="fill: none; stroke: #ff0000; stroke-width: 3; stroke-linecap: round"/>
    </g>
    <g id="text_19">
     <!-- treatment threshold -->
     <g style="fill: #262626" transform="translate(107.565586 45.204437) scale(0.12 -0.12)">
      <defs>
       <path id="DejaVuSans-72" d="M 2631 2963 
Q 2534 3019 2420 3045 
Q 2306 3072 2169 3072 
Q 1681 3072 1420 2755 
Q 1159 2438 1159 1844 
L 1159 0 
L 581 0 
L 581 3500 
L 1159 3500 
L 1159 2956 
Q 1341 3275 1631 3429 
Q 1922 3584 2338 3584 
Q 2397 3584 2469 3576 
Q 2541 3569 2628 3553 
L 2631 2963 
z
" transform="scale(0.015625)"/>
       <path id="DejaVuSans-65" d="M 3597 1894 
L 3597 1613 
L 953 1613 
Q 991 1019 1311 708 
Q 1631 397 2203 397 
Q 2534 397 2845 478 
Q 3156 559 3463 722 
L 3463 178 
Q 3153 47 2828 -22 
Q 2503 -91 2169 -91 
Q 1331 -91 842 396 
Q 353 884 353 1716 
Q 353 2575 817 3079 
Q 1281 3584 2069 3584 
Q 2775 3584 3186 3129 
Q 3597 2675 3597 1894 
z
M 3022 2063 
Q 3016 2534 2758 2815 
Q 2500 3097 2075 3097 
Q 1594 3097 1305 2825 
Q 1016 2553 972 2059 
L 3022 2063 
z
" transform="scale(0.015625)"/>
       <path id="DejaVuSans-6d" d="M 3328 2828 
Q 3544 3216 3844 3400 
Q 4144 3584 4550 3584 
Q 5097 3584 5394 3201 
Q 5691 2819 5691 2113 
L 5691 0 
L 5113 0 
L 5113 2094 
Q 5113 2597 4934 2840 
Q 4756 3084 4391 3084 
Q 3944 3084 3684 2787 
Q 3425 2491 3425 1978 
L 3425 0 
L 2847 0 
L 2847 2094 
Q 2847 2600 2669 2842 
Q 2491 3084 2119 3084 
Q 1678 3084 1418 2786 
Q 1159 2488 1159 1978 
L 1159 0 
L 581 0 
L 581 3500 
L 1159 3500 
L 1159 2956 
Q 1356 3278 1631 3431 
Q 1906 3584 2284 3584 
Q 2666 3584 2933 3390 
Q 3200 3197 3328 2828 
z
" transform="scale(0.015625)"/>
       <path id="DejaVuSans-68" d="M 3513 2113 
L 3513 0 
L 2938 0 
L 2938 2094 
Q 2938 2591 2744 2837 
Q 2550 3084 2163 3084 
Q 1697 3084 1428 2787 
Q 1159 2491 1159 1978 
L 1159 0 
L 581 0 
L 581 4863 
L 1159 4863 
L 1159 2956 
Q 1366 3272 1645 3428 
Q 1925 3584 2291 3584 
Q 2894 3584 3203 3211 
Q 3513 2838 3513 2113 
z
" transform="scale(0.015625)"/>
       <path id="DejaVuSans-73" d="M 2834 3397 
L 2834 2853 
Q 2591 2978 2328 3040 
Q 2066 3103 1784 3103 
Q 1356 3103 1142 2972 
Q 928 2841 928 2578 
Q 928 2378 1081 2264 
Q 1234 2150 1697 2047 
L 1894 2003 
Q 2506 1872 2764 1633 
Q 3022 1394 3022 966 
Q 3022 478 2636 193 
Q 2250 -91 1575 -91 
Q 1294 -91 989 -36 
Q 684 19 347 128 
L 347 722 
Q 666 556 975 473 
Q 1284 391 1588 391 
Q 1994 391 2212 530 
Q 2431 669 2431 922 
Q 2431 1156 2273 1281 
Q 2116 1406 1581 1522 
L 1381 1569 
Q 847 1681 609 1914 
Q 372 2147 372 2553 
Q 372 3047 722 3315 
Q 1072 3584 1716 3584 
Q 2034 3584 2315 3537 
Q 2597 3491 2834 3397 
z
" transform="scale(0.015625)"/>
      </defs>
      <use xlink:href="#DejaVuSans-74"/>
      <use xlink:href="#DejaVuSans-72" x="39.208984"/>
      <use xlink:href="#DejaVuSans-65" x="78.072266"/>
      <use xlink:href="#DejaVuSans-61" x="139.595703"/>
      <use xlink:href="#DejaVuSans-74" x="200.875"/>
      <use xlink:href="#DejaVuSans-6d" x="240.083984"/>
      <use xlink:href="#DejaVuSans-65" x="337.496094"/>
      <use xlink:href="#DejaVuSans-6e" x="399.019531"/>
      <use xlink:href="#DejaVuSans-74" x="462.398438"/>
      <use xlink:href="#DejaVuSans-20" x="501.607422"/>
      <use xlink:href="#DejaVuSans-74" x="533.394531"/>
      <use xlink:href="#DejaVuSans-68" x="572.603516"/>
      <use xlink:href="#DejaVuSans-72" x="635.982422"/>
      <use xlink:href="#DejaVuSans-65" x="674.845703"/>
      <use xlink:href="#DejaVuSans-73" x="736.369141"/>
      <use xlink:href="#DejaVuSans-68" x="788.46875"/>
      <use xlink:href="#DejaVuSans-6f" x="851.847656"/>
      <use xlink:href="#DejaVuSans-6c" x="913.029297"/>
      <use xlink:href="#DejaVuSans-64" x="940.8125"/>
     </g>
    </g>
   </g>
  </g>
 </g>
 <defs>
  <clipPath id="pe42b2a7a82">
   <rect x="63.165586" y="25.286312" width="455.484828" height="286.017834"/>
  </clipPath>
 </defs>
</svg>
