<?xml version="1.0" encoding="utf-8" standalone="no"?>
<!DOCTYPE svg PUBLIC "-//W3C//DTD SVG 1.1//EN"
  "http://www.w3.org/Graphics/SVG/1.1/DTD/svg11.dtd">
<svg xmlns:xlink="http://www.w3.org/1999/xlink" width="512.349954pt" height="584.39952pt" viewBox="0 0 512.349954 584.39952" xmlns="http://www.w3.org/2000/svg" version="1.1">
 <metadata>
  <rdf:RDF xmlns:dc="http://purl.org/dc/elements/1.1/" xmlns:cc="http://creativecommons.org/ns#" xmlns:rdf="http://www.w3.org/1999/02/22-rdf-syntax-ns#">
   <cc:Work>
    <dc:type rdf:resource="http://purl.org/dc/dcmitype/StillImage"/>
    <dc:date>2022-10-29T15:24:38.672396</dc:date>
    <dc:format>image/svg+xml</dc:format>
    <dc:creator>
     <cc:Agent>
      <dc:title>Matplotlib v3.6.1, https://matplotlib.org/</dc:title>
     </cc:Agent>
    </dc:creator>
   </cc:Work>
  </rdf:RDF>
 </metadata>
 <defs>
  <style type="text/css">*{stroke-linejoin: round; stroke-linecap: butt}</style>
 </defs>
 <g id="figure_1">
  <g id="patch_1">
   <path d="M 0 584.39952 
L 512.349954 584.39952 
L 512.349954 0 
L 0 0 
z
" style="fill: #ffffff"/>
  </g>
  <g id="axes_1">
   <g id="patch_2">
    <path d="M 63.164229 271.459361 
L 503.77536 271.459361 
L 503.77536 25.314378 
L 63.164229 25.314378 
z
" style="fill: #eeeeee"/>
   </g>
   <g id="matplotlib.axis_1">
    <g id="xtick_1">
     <g id="line2d_1">
      <path d="M 69.046388 271.459361 
L 69.046388 25.314378 
" clip-path="url(#pb9da49e87d)" style="fill: none; stroke: #ffffff; stroke-width: 0.8; stroke-linecap: round"/>
     </g>
     <g id="line2d_2"/>
    </g>
    <g id="xtick_2">
     <g id="line2d_3">
      <path d="M 121.62338 271.459361 
L 121.62338 25.314378 
" clip-path="url(#pb9da49e87d)" style="fill: none; stroke: #ffffff; stroke-width: 0.8; stroke-linecap: round"/>
     </g>
     <g id="line2d_4"/>
    </g>
    <g id="xtick_3">
     <g id="line2d_5">
      <path d="M 174.200373 271.459361 
L 174.200373 25.314378 
" clip-path="url(#pb9da49e87d)" style="fill: none; stroke: #ffffff; stroke-width: 0.8; stroke-linecap: round"/>
     </g>
     <g id="line2d_6"/>
    </g>
    <g id="xtick_4">
     <g id="line2d_7">
      <path d="M 226.777365 271.459361 
L 226.777365 25.314378 
" clip-path="url(#pb9da49e87d)" style="fill: none; stroke: #ffffff; stroke-width: 0.8; stroke-linecap: round"/>
     </g>
     <g id="line2d_8"/>
    </g>
    <g id="xtick_5">
     <g id="line2d_9">
      <path d="M 279.354358 271.459361 
L 279.354358 25.314378 
" clip-path="url(#pb9da49e87d)" style="fill: none; stroke: #ffffff; stroke-width: 0.8; stroke-linecap: round"/>
     </g>
     <g id="line2d_10"/>
    </g>
    <g id="xtick_6">
     <g id="line2d_11">
      <path d="M 331.93135 271.459361 
L 331.93135 25.314378 
" clip-path="url(#pb9da49e87d)" style="fill: none; stroke: #ffffff; stroke-width: 0.8; stroke-linecap: round"/>
     </g>
     <g id="line2d_12"/>
    </g>
    <g id="xtick_7">
     <g id="line2d_13">
      <path d="M 384.508342 271.459361 
L 384.508342 25.314378 
" clip-path="url(#pb9da49e87d)" style="fill: none; stroke: #ffffff; stroke-width: 0.8; stroke-linecap: round"/>
     </g>
     <g id="line2d_14"/>
    </g>
    <g id="xtick_8">
     <g id="line2d_15">
      <path d="M 437.085335 271.459361 
L 437.085335 25.314378 
" clip-path="url(#pb9da49e87d)" style="fill: none; stroke: #ffffff; stroke-width: 0.8; stroke-linecap: round"/>
     </g>
     <g id="line2d_16"/>
    </g>
    <g id="xtick_9">
     <g id="line2d_17">
      <path d="M 489.662327 271.459361 
L 489.662327 25.314378 
" clip-path="url(#pb9da49e87d)" style="fill: none; stroke: #ffffff; stroke-width: 0.8; stroke-linecap: round"/>
     </g>
     <g id="line2d_18"/>
    </g>
   </g>
   <g id="matplotlib.axis_2">
    <g id="ytick_1">
     <g id="line2d_19">
      <path d="M 63.164229 249.688082 
L 503.77536 249.688082 
" clip-path="url(#pb9da49e87d)" style="fill: none; stroke: #ffffff; stroke-width: 0.8; stroke-linecap: round"/>
     </g>
     <g id="line2d_20"/>
     <g id="text_1">
      <!-- −1.0 -->
      <g style="fill: #262626" transform="translate(25.668291 255.006989) scale(0.14 -0.14)">
       <defs>
        <path id="DejaVuSans-2212" d="M 678 2272 
L 4684 2272 
L 4684 1741 
L 678 1741 
L 678 2272 
z
" transform="scale(0.015625)"/>
        <path id="DejaVuSans-31" d="M 794 531 
L 1825 531 
L 1825 4091 
L 703 3866 
L 703 4441 
L 1819 4666 
L 2450 4666 
L 2450 531 
L 3481 531 
L 3481 0 
L 794 0 
L 794 531 
z
" transform="scale(0.015625)"/>
        <path id="DejaVuSans-2e" d="M 684 794 
L 1344 794 
L 1344 0 
L 684 0 
L 684 794 
z
" transform="scale(0.015625)"/>
        <path id="DejaVuSans-30" d="M 2034 4250 
Q 1547 4250 1301 3770 
Q 1056 3291 1056 2328 
Q 1056 1369 1301 889 
Q 1547 409 2034 409 
Q 2525 409 2770 889 
Q 3016 1369 3016 2328 
Q 3016 3291 2770 3770 
Q 2525 4250 2034 4250 
z
M 2034 4750 
Q 2819 4750 3233 4129 
Q 3647 3509 3647 2328 
Q 3647 1150 3233 529 
Q 2819 -91 2034 -91 
Q 1250 -91 836 529 
Q 422 1150 422 2328 
Q 422 3509 836 4129 
Q 1250 4750 2034 4750 
z
" transform="scale(0.015625)"/>
       </defs>
       <use xlink:href="#DejaVuSans-2212"/>
       <use xlink:href="#DejaVuSans-31" x="83.789062"/>
       <use xlink:href="#DejaVuSans-2e" x="147.412109"/>
       <use xlink:href="#DejaVuSans-30" x="179.199219"/>
      </g>
     </g>
    </g>
    <g id="ytick_2">
     <g id="line2d_21">
      <path d="M 63.164229 206.725185 
L 503.77536 206.725185 
" clip-path="url(#pb9da49e87d)" style="fill: none; stroke: #ffffff; stroke-width: 0.8; stroke-linecap: round"/>
     </g>
     <g id="line2d_22"/>
     <g id="text_2">
      <!-- −0.5 -->
      <g style="fill: #262626" transform="translate(25.668291 212.044092) scale(0.14 -0.14)">
       <defs>
        <path id="DejaVuSans-35" d="M 691 4666 
L 3169 4666 
L 3169 4134 
L 1269 4134 
L 1269 2991 
Q 1406 3038 1543 3061 
Q 1681 3084 1819 3084 
Q 2600 3084 3056 2656 
Q 3513 2228 3513 1497 
Q 3513 744 3044 326 
Q 2575 -91 1722 -91 
Q 1428 -91 1123 -41 
Q 819 9 494 109 
L 494 744 
Q 775 591 1075 516 
Q 1375 441 1709 441 
Q 2250 441 2565 725 
Q 2881 1009 2881 1497 
Q 2881 1984 2565 2268 
Q 2250 2553 1709 2553 
Q 1456 2553 1204 2497 
Q 953 2441 691 2322 
L 691 4666 
z
" transform="scale(0.015625)"/>
       </defs>
       <use xlink:href="#DejaVuSans-2212"/>
       <use xlink:href="#DejaVuSans-30" x="83.789062"/>
       <use xlink:href="#DejaVuSans-2e" x="147.412109"/>
       <use xlink:href="#DejaVuSans-35" x="179.199219"/>
      </g>
     </g>
    </g>
    <g id="ytick_3">
     <g id="line2d_23">
      <path d="M 63.164229 163.762288 
L 503.77536 163.762288 
" clip-path="url(#pb9da49e87d)" style="fill: none; stroke: #ffffff; stroke-width: 0.8; stroke-linecap: round"/>
     </g>
     <g id="line2d_24"/>
     <g id="text_3">
      <!-- 0.0 -->
      <g style="fill: #262626" transform="translate(37.399854 169.081195) scale(0.14 -0.14)">
       <use xlink:href="#DejaVuSans-30"/>
       <use xlink:href="#DejaVuSans-2e" x="63.623047"/>
       <use xlink:href="#DejaVuSans-30" x="95.410156"/>
      </g>
     </g>
    </g>
    <g id="ytick_4">
     <g id="line2d_25">
      <path d="M 63.164229 120.799391 
L 503.77536 120.799391 
" clip-path="url(#pb9da49e87d)" style="fill: none; stroke: #ffffff; stroke-width: 0.8; stroke-linecap: round"/>
     </g>
     <g id="line2d_26"/>
     <g id="text_4">
      <!-- 0.5 -->
      <g style="fill: #262626" transform="translate(37.399854 126.118298) scale(0.14 -0.14)">
       <use xlink:href="#DejaVuSans-30"/>
       <use xlink:href="#DejaVuSans-2e" x="63.623047"/>
       <use xlink:href="#DejaVuSans-35" x="95.410156"/>
      </g>
     </g>
    </g>
    <g id="ytick_5">
     <g id="line2d_27">
      <path d="M 63.164229 77.836495 
L 503.77536 77.836495 
" clip-path="url(#pb9da49e87d)" style="fill: none; stroke: #ffffff; stroke-width: 0.8; stroke-linecap: round"/>
     </g>
     <g id="line2d_28"/>
     <g id="text_5">
      <!-- 1.0 -->
      <g style="fill: #262626" transform="translate(37.399854 83.155401) scale(0.14 -0.14)">
       <use xlink:href="#DejaVuSans-31"/>
       <use xlink:href="#DejaVuSans-2e" x="63.623047"/>
       <use xlink:href="#DejaVuSans-30" x="95.410156"/>
      </g>
     </g>
    </g>
    <g id="ytick_6">
     <g id="line2d_29">
      <path d="M 63.164229 34.873598 
L 503.77536 34.873598 
" clip-path="url(#pb9da49e87d)" style="fill: none; stroke: #ffffff; stroke-width: 0.8; stroke-linecap: round"/>
     </g>
     <g id="line2d_30"/>
     <g id="text_6">
      <!-- 1.5 -->
      <g style="fill: #262626" transform="translate(37.399854 40.192504) scale(0.14 -0.14)">
       <use xlink:href="#DejaVuSans-31"/>
       <use xlink:href="#DejaVuSans-2e" x="63.623047"/>
       <use xlink:href="#DejaVuSans-35" x="95.410156"/>
      </g>
     </g>
    </g>
    <g id="text_7">
     <!-- y -->
     <g style="fill: #262626" transform="translate(18.54876 152.825932) rotate(-90) scale(0.15 -0.15)">
      <defs>
       <path id="DejaVuSans-79" d="M 2059 -325 
Q 1816 -950 1584 -1140 
Q 1353 -1331 966 -1331 
L 506 -1331 
L 506 -850 
L 844 -850 
Q 1081 -850 1212 -737 
Q 1344 -625 1503 -206 
L 1606 56 
L 191 3500 
L 800 3500 
L 1894 763 
L 2988 3500 
L 3597 3500 
L 2059 -325 
z
" transform="scale(0.015625)"/>
      </defs>
      <use xlink:href="#DejaVuSans-79"/>
     </g>
    </g>
   </g>
   <g id="PathCollection_1">
    <defs>
     <path id="maff7a0972e" d="M 0 3 
C 0.795609 3 1.55874 2.683901 2.12132 2.12132 
C 2.683901 1.55874 3 0.795609 3 0 
C 3 -0.795609 2.683901 -1.55874 2.12132 -2.12132 
C 1.55874 -2.683901 0.795609 -3 0 -3 
C -0.795609 -3 -1.55874 -2.683901 -2.12132 -2.12132 
C -2.683901 -1.55874 -3 -0.795609 -3 0 
C -3 0.795609 -2.683901 1.55874 -2.12132 2.12132 
C -1.55874 2.683901 -0.795609 3 0 3 
z
" style="stroke: #ffffff; stroke-width: 0.48"/>
    </defs>
    <g clip-path="url(#pb9da49e87d)">
     <use xlink:href="#maff7a0972e" x="83.192008" y="171.660516" style="stroke: #ffffff; stroke-width: 0.48"/>
     <use xlink:href="#maff7a0972e" x="83.604235" y="196.64294" style="stroke: #ffffff; stroke-width: 0.48"/>
     <use xlink:href="#maff7a0972e" x="83.955062" y="179.382399" style="stroke: #ffffff; stroke-width: 0.48"/>
     <use xlink:href="#maff7a0972e" x="88.516876" y="188.529965" style="stroke: #ffffff; stroke-width: 0.48"/>
     <use xlink:href="#maff7a0972e" x="93.764076" y="199.920767" style="stroke: #ffffff; stroke-width: 0.48"/>
     <use xlink:href="#maff7a0972e" x="93.846769" y="211.446088" style="stroke: #ffffff; stroke-width: 0.48"/>
     <use xlink:href="#maff7a0972e" x="104.109641" y="212.4154" style="stroke: #ffffff; stroke-width: 0.48"/>
     <use xlink:href="#maff7a0972e" x="105.704425" y="205.335163" style="stroke: #ffffff; stroke-width: 0.48"/>
     <use xlink:href="#maff7a0972e" x="110.589069" y="205.417061" style="stroke: #ffffff; stroke-width: 0.48"/>
     <use xlink:href="#maff7a0972e" x="113.05285" y="224.576081" style="stroke: #ffffff; stroke-width: 0.48"/>
     <use xlink:href="#maff7a0972e" x="115.62224" y="227.130095" style="stroke: #ffffff; stroke-width: 0.48"/>
     <use xlink:href="#maff7a0972e" x="123.23951" y="219.468288" style="stroke: #ffffff; stroke-width: 0.48"/>
     <use xlink:href="#maff7a0972e" x="139.242455" y="235.319407" style="stroke: #ffffff; stroke-width: 0.48"/>
     <use xlink:href="#maff7a0972e" x="139.380358" y="249.601903" style="stroke: #ffffff; stroke-width: 0.48"/>
     <use xlink:href="#maff7a0972e" x="142.464432" y="258.126126" style="stroke: #ffffff; stroke-width: 0.48"/>
     <use xlink:href="#maff7a0972e" x="142.799744" y="243.575532" style="stroke: #ffffff; stroke-width: 0.48"/>
     <use xlink:href="#maff7a0972e" x="144.299582" y="249.169981" style="stroke: #ffffff; stroke-width: 0.48"/>
     <use xlink:href="#maff7a0972e" x="144.531687" y="240.456903" style="stroke: #ffffff; stroke-width: 0.48"/>
     <use xlink:href="#maff7a0972e" x="146.670248" y="260.270953" style="stroke: #ffffff; stroke-width: 0.48"/>
     <use xlink:href="#maff7a0972e" x="156.25882" y="237.52574" style="stroke: #ffffff; stroke-width: 0.48"/>
     <use xlink:href="#maff7a0972e" x="160.271469" y="241.013285" style="stroke: #ffffff; stroke-width: 0.48"/>
     <use xlink:href="#maff7a0972e" x="165.335241" y="240.361025" style="stroke: #ffffff; stroke-width: 0.48"/>
     <use xlink:href="#maff7a0972e" x="166.939371" y="228.868063" style="stroke: #ffffff; stroke-width: 0.48"/>
     <use xlink:href="#maff7a0972e" x="169.112726" y="233.704098" style="stroke: #ffffff; stroke-width: 0.48"/>
     <use xlink:href="#maff7a0972e" x="184.723214" y="241.159788" style="stroke: #ffffff; stroke-width: 0.48"/>
     <use xlink:href="#maff7a0972e" x="190.090258" y="254.410562" style="stroke: #ffffff; stroke-width: 0.48"/>
     <use xlink:href="#maff7a0972e" x="190.789806" y="247.626506" style="stroke: #ffffff; stroke-width: 0.48"/>
     <use xlink:href="#maff7a0972e" x="198.770168" y="241.987782" style="stroke: #ffffff; stroke-width: 0.48"/>
     <use xlink:href="#maff7a0972e" x="200.759876" y="250.131817" style="stroke: #ffffff; stroke-width: 0.48"/>
     <use xlink:href="#maff7a0972e" x="203.543514" y="244.289104" style="stroke: #ffffff; stroke-width: 0.48"/>
     <use xlink:href="#maff7a0972e" x="204.113281" y="253.260606" style="stroke: #ffffff; stroke-width: 0.48"/>
     <use xlink:href="#maff7a0972e" x="205.491411" y="230.432595" style="stroke: #ffffff; stroke-width: 0.48"/>
     <use xlink:href="#maff7a0972e" x="206.240273" y="231.233317" style="stroke: #ffffff; stroke-width: 0.48"/>
     <use xlink:href="#maff7a0972e" x="206.898018" y="226.533383" style="stroke: #ffffff; stroke-width: 0.48"/>
     <use xlink:href="#maff7a0972e" x="211.555573" y="231.965335" style="stroke: #ffffff; stroke-width: 0.48"/>
     <use xlink:href="#maff7a0972e" x="224.967848" y="223.537014" style="stroke: #ffffff; stroke-width: 0.48"/>
     <use xlink:href="#maff7a0972e" x="229.433768" y="228.176831" style="stroke: #ffffff; stroke-width: 0.48"/>
     <use xlink:href="#maff7a0972e" x="233.745168" y="202.169388" style="stroke: #ffffff; stroke-width: 0.48"/>
     <use xlink:href="#maff7a0972e" x="237.308251" y="207.847309" style="stroke: #ffffff; stroke-width: 0.48"/>
     <use xlink:href="#maff7a0972e" x="239.140105" y="214.435118" style="stroke: #ffffff; stroke-width: 0.48"/>
     <use xlink:href="#maff7a0972e" x="243.042126" y="213.13902" style="stroke: #ffffff; stroke-width: 0.48"/>
     <use xlink:href="#maff7a0972e" x="251.949558" y="196.005252" style="stroke: #ffffff; stroke-width: 0.48"/>
     <use xlink:href="#maff7a0972e" x="255.700566" y="186.113571" style="stroke: #ffffff; stroke-width: 0.48"/>
     <use xlink:href="#maff7a0972e" x="259.485462" y="196.409609" style="stroke: #ffffff; stroke-width: 0.48"/>
     <use xlink:href="#maff7a0972e" x="260.167391" y="203.522186" style="stroke: #ffffff; stroke-width: 0.48"/>
     <use xlink:href="#maff7a0972e" x="262.383285" y="178.71337" style="stroke: #ffffff; stroke-width: 0.48"/>
     <use xlink:href="#maff7a0972e" x="274.019436" y="167.979299" style="stroke: #ffffff; stroke-width: 0.48"/>
     <use xlink:href="#maff7a0972e" x="277.719012" y="173.345622" style="stroke: #ffffff; stroke-width: 0.48"/>
     <use xlink:href="#maff7a0972e" x="278.976834" y="174.91916" style="stroke: #ffffff; stroke-width: 0.48"/>
     <use xlink:href="#maff7a0972e" x="282.091715" y="172.093684" style="stroke: #ffffff; stroke-width: 0.48"/>
     <use xlink:href="#maff7a0972e" x="282.158089" y="175.349561" style="stroke: #ffffff; stroke-width: 0.48"/>
     <use xlink:href="#maff7a0972e" x="291.401844" y="153.369061" style="stroke: #ffffff; stroke-width: 0.48"/>
     <use xlink:href="#maff7a0972e" x="293.403123" y="155.333353" style="stroke: #ffffff; stroke-width: 0.48"/>
     <use xlink:href="#maff7a0972e" x="296.509186" y="137.106101" style="stroke: #ffffff; stroke-width: 0.48"/>
     <use xlink:href="#maff7a0972e" x="302.198372" y="132.707816" style="stroke: #ffffff; stroke-width: 0.48"/>
     <use xlink:href="#maff7a0972e" x="302.76182" y="136.165881" style="stroke: #ffffff; stroke-width: 0.48"/>
     <use xlink:href="#maff7a0972e" x="308.101292" y="121.49006" style="stroke: #ffffff; stroke-width: 0.48"/>
     <use xlink:href="#maff7a0972e" x="317.603294" y="114.386106" style="stroke: #ffffff; stroke-width: 0.48"/>
     <use xlink:href="#maff7a0972e" x="320.81677" y="105.781495" style="stroke: #ffffff; stroke-width: 0.48"/>
     <use xlink:href="#maff7a0972e" x="336.535047" y="84.923882" style="stroke: #ffffff; stroke-width: 0.48"/>
     <use xlink:href="#maff7a0972e" x="336.724088" y="89.667123" style="stroke: #ffffff; stroke-width: 0.48"/>
     <use xlink:href="#maff7a0972e" x="339.139838" y="107.481525" style="stroke: #ffffff; stroke-width: 0.48"/>
     <use xlink:href="#maff7a0972e" x="340.925245" y="107.904625" style="stroke: #ffffff; stroke-width: 0.48"/>
     <use xlink:href="#maff7a0972e" x="341.301636" y="95.411236" style="stroke: #ffffff; stroke-width: 0.48"/>
     <use xlink:href="#maff7a0972e" x="351.530558" y="98.176468" style="stroke: #ffffff; stroke-width: 0.48"/>
     <use xlink:href="#maff7a0972e" x="353.502205" y="97.214161" style="stroke: #ffffff; stroke-width: 0.48"/>
     <use xlink:href="#maff7a0972e" x="356.047431" y="80.43502" style="stroke: #ffffff; stroke-width: 0.48"/>
     <use xlink:href="#maff7a0972e" x="356.880268" y="109.905763" style="stroke: #ffffff; stroke-width: 0.48"/>
     <use xlink:href="#maff7a0972e" x="360.670558" y="83.812893" style="stroke: #ffffff; stroke-width: 0.48"/>
     <use xlink:href="#maff7a0972e" x="367.744145" y="78.999473" style="stroke: #ffffff; stroke-width: 0.48"/>
     <use xlink:href="#maff7a0972e" x="372.006634" y="76.164948" style="stroke: #ffffff; stroke-width: 0.48"/>
     <use xlink:href="#maff7a0972e" x="374.187677" y="75.4126" style="stroke: #ffffff; stroke-width: 0.48"/>
     <use xlink:href="#maff7a0972e" x="374.446728" y="83.083995" style="stroke: #ffffff; stroke-width: 0.48"/>
     <use xlink:href="#maff7a0972e" x="374.6223" y="88.506945" style="stroke: #ffffff; stroke-width: 0.48"/>
     <use xlink:href="#maff7a0972e" x="381.692439" y="71.649506" style="stroke: #ffffff; stroke-width: 0.48"/>
     <use xlink:href="#maff7a0972e" x="397.29389" y="38.875589" style="stroke: #ffffff; stroke-width: 0.48"/>
     <use xlink:href="#maff7a0972e" x="403.374129" y="40.108717" style="stroke: #ffffff; stroke-width: 0.48"/>
     <use xlink:href="#maff7a0972e" x="406.848514" y="51.843248" style="stroke: #ffffff; stroke-width: 0.48"/>
     <use xlink:href="#maff7a0972e" x="411.621436" y="43.727412" style="stroke: #ffffff; stroke-width: 0.48"/>
     <use xlink:href="#maff7a0972e" x="412.500533" y="47.675847" style="stroke: #ffffff; stroke-width: 0.48"/>
     <use xlink:href="#maff7a0972e" x="415.316643" y="39.805493" style="stroke: #ffffff; stroke-width: 0.48"/>
     <use xlink:href="#maff7a0972e" x="416.539199" y="46.540763" style="stroke: #ffffff; stroke-width: 0.48"/>
     <use xlink:href="#maff7a0972e" x="419.769874" y="56.25975" style="stroke: #ffffff; stroke-width: 0.48"/>
     <use xlink:href="#maff7a0972e" x="420.893625" y="36.577869" style="stroke: #ffffff; stroke-width: 0.48"/>
     <use xlink:href="#maff7a0972e" x="421.847239" y="36.502786" style="stroke: #ffffff; stroke-width: 0.48"/>
     <use xlink:href="#maff7a0972e" x="426.40724" y="43.881571" style="stroke: #ffffff; stroke-width: 0.48"/>
     <use xlink:href="#maff7a0972e" x="429.336838" y="47.299022" style="stroke: #ffffff; stroke-width: 0.48"/>
     <use xlink:href="#maff7a0972e" x="433.536542" y="48.294983" style="stroke: #ffffff; stroke-width: 0.48"/>
     <use xlink:href="#maff7a0972e" x="441.400179" y="55.820145" style="stroke: #ffffff; stroke-width: 0.48"/>
     <use xlink:href="#maff7a0972e" x="441.47247" y="51.731208" style="stroke: #ffffff; stroke-width: 0.48"/>
     <use xlink:href="#maff7a0972e" x="451.418826" y="58.869387" style="stroke: #ffffff; stroke-width: 0.48"/>
     <use xlink:href="#maff7a0972e" x="451.755524" y="72.68692" style="stroke: #ffffff; stroke-width: 0.48"/>
     <use xlink:href="#maff7a0972e" x="464.104562" y="84.991627" style="stroke: #ffffff; stroke-width: 0.48"/>
     <use xlink:href="#maff7a0972e" x="467.085262" y="79.53088" style="stroke: #ffffff; stroke-width: 0.48"/>
     <use xlink:href="#maff7a0972e" x="467.104779" y="81.527131" style="stroke: #ffffff; stroke-width: 0.48"/>
     <use xlink:href="#maff7a0972e" x="469.396523" y="88.68347" style="stroke: #ffffff; stroke-width: 0.48"/>
     <use xlink:href="#maff7a0972e" x="475.549538" y="99.433632" style="stroke: #ffffff; stroke-width: 0.48"/>
     <use xlink:href="#maff7a0972e" x="479.155157" y="85.797463" style="stroke: #ffffff; stroke-width: 0.48"/>
     <use xlink:href="#maff7a0972e" x="482.087614" y="95.061275" style="stroke: #ffffff; stroke-width: 0.48"/>
     <use xlink:href="#maff7a0972e" x="483.747581" y="100.195218" style="stroke: #ffffff; stroke-width: 0.48"/>
    </g>
   </g>
   <g id="PolyCollection_1">
    <defs>
     <path id="m989eef56f4" d="M 384.711318 -544.219067 
L 384.711318 -509.27078 
L 385.112275 -509.345962 
L 385.513231 -509.417964 
L 385.914188 -509.486777 
L 386.315144 -509.552401 
L 386.716101 -509.614845 
L 387.117058 -509.674116 
L 387.518014 -509.730221 
L 387.918971 -509.783168 
L 388.319927 -509.832965 
L 388.720884 -509.87962 
L 389.12184 -509.92314 
L 389.522797 -509.963532 
L 389.923753 -510.000805 
L 390.32471 -510.034966 
L 390.725666 -510.066023 
L 391.126623 -510.093982 
L 391.527579 -510.118853 
L 391.928536 -510.140642 
L 392.329492 -510.159358 
L 392.730449 -510.175007 
L 393.131405 -510.187598 
L 393.532362 -510.197138 
L 393.933319 -510.203634 
L 394.334275 -510.207095 
L 394.735232 -510.207528 
L 395.136188 -510.20494 
L 395.537145 -510.19934 
L 395.938101 -510.190734 
L 396.339058 -510.179132 
L 396.740014 -510.164539 
L 397.140971 -510.146964 
L 397.541927 -510.126414 
L 397.942884 -510.102898 
L 398.34384 -510.076422 
L 398.744797 -510.046994 
L 399.145753 -510.014623 
L 399.54671 -509.979315 
L 399.947666 -509.941078 
L 400.348623 -509.89992 
L 400.74958 -509.855849 
L 401.150536 -509.808872 
L 401.551493 -509.758996 
L 401.952449 -509.70623 
L 402.353406 -509.650581 
L 402.754362 -509.592056 
L 403.155319 -509.530664 
L 403.556275 -509.466412 
L 403.957232 -509.399307 
L 404.358188 -509.329358 
L 404.759145 -509.256571 
L 405.160101 -509.180955 
L 405.561058 -509.102517 
L 405.962014 -509.021265 
L 406.362971 -508.937206 
L 406.763928 -508.850348 
L 407.164884 -508.760698 
L 407.565841 -508.668265 
L 407.966797 -508.573056 
L 408.367754 -508.475078 
L 408.76871 -508.37434 
L 409.169667 -508.270848 
L 409.570623 -508.164611 
L 409.97158 -508.055636 
L 410.372536 -507.94393 
L 410.773493 -507.829502 
L 411.174449 -507.712359 
L 411.575406 -507.592508 
L 411.976362 -507.469958 
L 412.377319 -507.344715 
L 412.778275 -507.216788 
L 413.179232 -507.086185 
L 413.580189 -506.952912 
L 413.981145 -506.816977 
L 414.382102 -506.678388 
L 414.783058 -506.537153 
L 415.184015 -506.39328 
L 415.584971 -506.246775 
L 415.985928 -506.097647 
L 416.386884 -505.945903 
L 416.787841 -505.791551 
L 417.188797 -505.634599 
L 417.589754 -505.475053 
L 417.99071 -505.312923 
L 418.391667 -505.148214 
L 418.792623 -504.980936 
L 419.19358 -504.811095 
L 419.594536 -504.6387 
L 419.995493 -504.463757 
L 420.39645 -504.286276 
L 420.797406 -504.106262 
L 421.198363 -503.923724 
L 421.599319 -503.73867 
L 422.000276 -503.551106 
L 422.401232 -503.361042 
L 422.802189 -503.168483 
L 423.203145 -502.973439 
L 423.604102 -502.775916 
L 424.005058 -502.575923 
L 424.406015 -502.373466 
L 424.806971 -502.168554 
L 425.207928 -501.961195 
L 425.608884 -501.751395 
L 426.009841 -501.539162 
L 426.410797 -501.324504 
L 426.811754 -501.107429 
L 427.212711 -500.887945 
L 427.613667 -500.666058 
L 428.014624 -500.441777 
L 428.41558 -500.21511 
L 428.816537 -499.986063 
L 429.217493 -499.754644 
L 429.61845 -499.520862 
L 430.019406 -499.284724 
L 430.420363 -499.046236 
L 430.821319 -498.805408 
L 431.222276 -498.562247 
L 431.623232 -498.31676 
L 432.024189 -498.068955 
L 432.425145 -497.818839 
L 432.826102 -497.566421 
L 433.227058 -497.311707 
L 433.628015 -497.054706 
L 434.028972 -496.795425 
L 434.429928 -496.533872 
L 434.830885 -496.270054 
L 435.231841 -496.003979 
L 435.632798 -495.735655 
L 436.033754 -495.465089 
L 436.434711 -495.192289 
L 436.835667 -494.917262 
L 437.236624 -494.640017 
L 437.63758 -494.36056 
L 438.038537 -494.0789 
L 438.439493 -493.795044 
L 438.84045 -493.509 
L 439.241406 -493.220775 
L 439.642363 -492.930377 
L 440.04332 -492.637814 
L 440.444276 -492.343092 
L 440.845233 -492.046221 
L 441.246189 -491.747207 
L 441.647146 -491.446059 
L 442.048102 -491.142783 
L 442.449059 -490.837388 
L 442.850015 -490.52988 
L 443.250972 -490.220269 
L 443.651928 -489.90856 
L 444.052885 -489.594763 
L 444.453841 -489.278884 
L 444.854798 -488.960932 
L 445.255754 -488.640913 
L 445.656711 -488.318836 
L 446.057667 -487.994707 
L 446.458624 -487.668536 
L 446.859581 -487.340329 
L 447.260537 -487.010094 
L 447.661494 -486.677839 
L 448.06245 -486.343571 
L 448.463407 -486.007298 
L 448.864363 -485.669027 
L 449.26532 -485.328767 
L 449.666276 -484.986524 
L 450.067233 -484.642307 
L 450.468189 -484.296123 
L 450.869146 -483.94798 
L 451.270102 -483.597885 
L 451.671059 -483.245846 
L 452.072015 -482.891871 
L 452.472972 -482.535967 
L 452.873928 -482.178142 
L 453.274885 -481.818403 
L 453.675842 -481.456759 
L 454.076798 -481.093216 
L 454.477755 -480.727783 
L 454.878711 -480.360467 
L 455.279668 -479.991276 
L 455.680624 -479.620217 
L 456.081581 -479.247298 
L 456.482537 -478.872526 
L 456.883494 -478.49591 
L 457.28445 -478.117456 
L 457.685407 -477.737174 
L 458.086363 -477.355069 
L 458.48732 -476.97115 
L 458.888276 -476.585424 
L 459.289233 -476.1979 
L 459.690189 -475.808584 
L 460.091146 -475.417484 
L 460.492103 -475.024609 
L 460.893059 -474.629965 
L 461.294016 -474.23356 
L 461.694972 -473.835402 
L 462.095929 -473.435498 
L 462.496885 -473.033857 
L 462.897842 -472.630485 
L 463.298798 -472.225391 
L 463.699755 -471.818582 
L 464.100711 -471.410065 
L 464.501668 -470.999849 
L 464.902624 -470.587941 
L 465.303581 -470.174348 
L 465.704537 -469.759078 
L 466.105494 -469.342139 
L 466.50645 -468.923539 
L 466.907407 -468.503284 
L 467.308364 -468.081384 
L 467.70932 -467.657844 
L 468.110277 -467.232674 
L 468.511233 -466.805881 
L 468.91219 -466.377471 
L 469.313146 -465.947454 
L 469.714103 -465.515836 
L 470.115059 -465.082625 
L 470.516016 -464.647829 
L 470.916972 -464.211455 
L 471.317929 -463.773511 
L 471.718885 -463.334006 
L 472.119842 -462.892945 
L 472.520798 -462.450337 
L 472.921755 -462.00619 
L 473.322712 -461.560512 
L 473.723668 -461.113309 
L 474.124625 -460.664589 
L 474.525581 -460.214361 
L 474.926538 -459.762631 
L 475.327494 -459.309408 
L 475.728451 -458.854699 
L 476.129407 -458.398512 
L 476.530364 -457.940854 
L 476.93132 -457.481732 
L 477.332277 -457.021156 
L 477.733233 -456.559131 
L 478.13419 -456.095667 
L 478.535146 -455.630769 
L 478.936103 -455.164447 
L 479.337059 -454.696708 
L 479.738016 -454.227559 
L 480.138973 -453.757008 
L 480.539929 -453.285063 
L 480.940886 -452.811731 
L 481.341842 -452.33702 
L 481.742799 -451.860937 
L 482.143755 -451.383491 
L 482.544712 -450.904688 
L 482.945668 -450.424537 
L 483.346625 -449.943045 
L 483.747581 -449.460219 
L 483.747581 -484.408507 
L 483.747581 -484.408507 
L 483.346625 -484.891332 
L 482.945668 -485.372824 
L 482.544712 -485.852975 
L 482.143755 -486.331778 
L 481.742799 -486.809224 
L 481.341842 -487.285307 
L 480.940886 -487.760018 
L 480.539929 -488.23335 
L 480.138973 -488.705296 
L 479.738016 -489.175846 
L 479.337059 -489.644995 
L 478.936103 -490.112735 
L 478.535146 -490.579057 
L 478.13419 -491.043954 
L 477.733233 -491.507419 
L 477.332277 -491.969443 
L 476.93132 -492.43002 
L 476.530364 -492.889141 
L 476.129407 -493.346799 
L 475.728451 -493.802987 
L 475.327494 -494.257696 
L 474.926538 -494.710919 
L 474.525581 -495.162648 
L 474.124625 -495.612877 
L 473.723668 -496.061596 
L 473.322712 -496.508799 
L 472.921755 -496.954478 
L 472.520798 -497.398625 
L 472.119842 -497.841232 
L 471.718885 -498.282293 
L 471.317929 -498.721799 
L 470.916972 -499.159742 
L 470.516016 -499.596116 
L 470.115059 -500.030912 
L 469.714103 -500.464123 
L 469.313146 -500.895741 
L 468.91219 -501.325758 
L 468.511233 -501.754168 
L 468.110277 -502.180962 
L 467.70932 -502.606132 
L 467.308364 -503.029671 
L 466.907407 -503.451572 
L 466.50645 -503.871826 
L 466.105494 -504.290426 
L 465.704537 -504.707365 
L 465.303581 -505.122635 
L 464.902624 -505.536228 
L 464.501668 -505.948136 
L 464.100711 -506.358353 
L 463.699755 -506.766869 
L 463.298798 -507.173679 
L 462.897842 -507.578773 
L 462.496885 -507.982144 
L 462.095929 -508.383786 
L 461.694972 -508.783689 
L 461.294016 -509.181847 
L 460.893059 -509.578252 
L 460.492103 -509.972896 
L 460.091146 -510.365772 
L 459.690189 -510.756871 
L 459.289233 -511.146187 
L 458.888276 -511.533712 
L 458.48732 -511.919437 
L 458.086363 -512.303356 
L 457.685407 -512.685461 
L 457.28445 -513.065744 
L 456.883494 -513.444197 
L 456.482537 -513.820813 
L 456.081581 -514.195585 
L 455.680624 -514.568504 
L 455.279668 -514.939563 
L 454.878711 -515.308755 
L 454.477755 -515.676071 
L 454.076798 -516.041504 
L 453.675842 -516.405046 
L 453.274885 -516.766691 
L 452.873928 -517.126429 
L 452.472972 -517.484254 
L 452.072015 -517.840158 
L 451.671059 -518.194134 
L 451.270102 -518.546173 
L 450.869146 -518.896267 
L 450.468189 -519.244411 
L 450.067233 -519.590595 
L 449.666276 -519.934812 
L 449.26532 -520.277054 
L 448.864363 -520.617315 
L 448.463407 -520.955585 
L 448.06245 -521.291858 
L 447.661494 -521.626126 
L 447.260537 -521.958381 
L 446.859581 -522.288616 
L 446.458624 -522.616823 
L 446.057667 -522.942995 
L 445.656711 -523.267123 
L 445.255754 -523.5892 
L 444.854798 -523.909219 
L 444.453841 -524.227171 
L 444.052885 -524.54305 
L 443.651928 -524.856848 
L 443.250972 -525.168556 
L 442.850015 -525.478168 
L 442.449059 -525.785675 
L 442.048102 -526.09107 
L 441.647146 -526.394346 
L 441.246189 -526.695495 
L 440.845233 -526.994509 
L 440.444276 -527.29138 
L 440.04332 -527.586101 
L 439.642363 -527.878664 
L 439.241406 -528.169062 
L 438.84045 -528.457287 
L 438.439493 -528.743332 
L 438.038537 -529.027188 
L 437.63758 -529.308848 
L 437.236624 -529.588304 
L 436.835667 -529.86555 
L 436.434711 -530.140576 
L 436.033754 -530.413376 
L 435.632798 -530.683942 
L 435.231841 -530.952266 
L 434.830885 -531.218341 
L 434.429928 -531.482159 
L 434.028972 -531.743712 
L 433.628015 -532.002993 
L 433.227058 -532.259994 
L 432.826102 -532.514708 
L 432.425145 -532.767126 
L 432.024189 -533.017242 
L 431.623232 -533.265047 
L 431.222276 -533.510534 
L 430.821319 -533.753696 
L 430.420363 -533.994524 
L 430.019406 -534.233011 
L 429.61845 -534.469149 
L 429.217493 -534.702932 
L 428.816537 -534.93435 
L 428.41558 -535.163397 
L 428.014624 -535.390065 
L 427.613667 -535.614346 
L 427.212711 -535.836232 
L 426.811754 -536.055717 
L 426.410797 -536.272792 
L 426.009841 -536.487449 
L 425.608884 -536.699682 
L 425.207928 -536.909482 
L 424.806971 -537.116842 
L 424.406015 -537.321754 
L 424.005058 -537.52421 
L 423.604102 -537.724204 
L 423.203145 -537.921726 
L 422.802189 -538.116771 
L 422.401232 -538.309329 
L 422.000276 -538.499394 
L 421.599319 -538.686957 
L 421.198363 -538.872011 
L 420.797406 -539.054549 
L 420.39645 -539.234563 
L 419.995493 -539.412045 
L 419.594536 -539.586987 
L 419.19358 -539.759383 
L 418.792623 -539.929223 
L 418.391667 -540.096502 
L 417.99071 -540.26121 
L 417.589754 -540.423341 
L 417.188797 -540.582886 
L 416.787841 -540.739839 
L 416.386884 -540.894191 
L 415.985928 -541.045934 
L 415.584971 -541.195063 
L 415.184015 -541.341567 
L 414.783058 -541.485441 
L 414.382102 -541.626676 
L 413.981145 -541.765264 
L 413.580189 -541.901199 
L 413.179232 -542.034472 
L 412.778275 -542.165076 
L 412.377319 -542.293003 
L 411.976362 -542.418245 
L 411.575406 -542.540796 
L 411.174449 -542.660646 
L 410.773493 -542.777789 
L 410.372536 -542.892217 
L 409.97158 -543.003923 
L 409.570623 -543.112898 
L 409.169667 -543.219135 
L 408.76871 -543.322627 
L 408.367754 -543.423366 
L 407.966797 -543.521343 
L 407.565841 -543.616552 
L 407.164884 -543.708986 
L 406.763928 -543.798635 
L 406.362971 -543.885493 
L 405.962014 -543.969552 
L 405.561058 -544.050804 
L 405.160101 -544.129242 
L 404.759145 -544.204859 
L 404.358188 -544.277645 
L 403.957232 -544.347595 
L 403.556275 -544.414699 
L 403.155319 -544.478952 
L 402.754362 -544.540344 
L 402.353406 -544.598868 
L 401.952449 -544.654517 
L 401.551493 -544.707283 
L 401.150536 -544.757159 
L 400.74958 -544.804136 
L 400.348623 -544.848208 
L 399.947666 -544.889365 
L 399.54671 -544.927602 
L 399.145753 -544.96291 
L 398.744797 -544.995282 
L 398.34384 -545.024709 
L 397.942884 -545.051185 
L 397.541927 -545.074702 
L 397.140971 -545.095251 
L 396.740014 -545.112826 
L 396.339058 -545.127419 
L 395.938101 -545.139022 
L 395.537145 -545.147627 
L 395.136188 -545.153228 
L 394.735232 -545.155815 
L 394.334275 -545.155382 
L 393.933319 -545.151921 
L 393.532362 -545.145425 
L 393.131405 -545.135885 
L 392.730449 -545.123295 
L 392.329492 -545.107645 
L 391.928536 -545.08893 
L 391.527579 -545.067141 
L 391.126623 -545.04227 
L 390.725666 -545.01431 
L 390.32471 -544.983253 
L 389.923753 -544.949093 
L 389.522797 -544.91182 
L 389.12184 -544.871427 
L 388.720884 -544.827907 
L 388.319927 -544.781253 
L 387.918971 -544.731456 
L 387.518014 -544.678508 
L 387.117058 -544.622403 
L 386.716101 -544.563132 
L 386.315144 -544.500689 
L 385.914188 -544.435064 
L 385.513231 -544.366252 
L 385.112275 -544.294249 
L 384.711318 -544.219067 
z
" style="stroke: #2a2eec; stroke-opacity: 0.25"/>
    </defs>
    <g clip-path="url(#pb9da49e87d)">
     <use xlink:href="#m989eef56f4" x="0" y="584.39952" style="fill: #2a2eec; fill-opacity: 0.25; stroke: #2a2eec; stroke-opacity: 0.25"/>
    </g>
   </g>
   <g id="line2d_31">
    <path d="M 83.192008 183.700508 
L 88.003486 190.501208 
L 92.814964 196.933922 
L 97.626443 202.996585 
L 102.437921 208.687132 
L 106.848443 213.574811 
L 111.258965 218.146485 
L 115.669487 222.400563 
L 120.080008 226.335456 
L 124.089574 229.634314 
L 128.099139 232.666874 
L 132.108704 235.43194 
L 136.11827 237.928319 
L 140.127835 240.154815 
L 144.1374 242.110233 
L 147.746009 243.637351 
L 151.354618 244.943058 
L 154.963227 246.026483 
L 158.571835 246.886755 
L 162.180444 247.523002 
L 165.789053 247.934355 
L 169.397662 248.119942 
L 173.00627 248.078891 
L 176.614879 247.810334 
L 180.223488 247.313397 
L 183.832097 246.58721 
L 187.440706 245.630903 
L 191.049314 244.444017 
L 194.657923 243.031428 
L 198.667488 241.207628 
L 202.677054 239.127687 
L 206.686619 236.803499 
L 211.097141 233.978982 
L 215.507663 230.88915 
L 220.319141 227.234433 
L 225.130619 223.303361 
L 230.343054 218.756678 
L 235.956446 213.554481 
L 241.970794 207.665039 
L 248.386098 201.067289 
L 255.603316 193.314758 
L 263.622446 184.372311 
L 273.646359 172.848444 
L 310.133404 130.549113 
L 317.751578 122.237156 
L 324.567839 115.116925 
L 330.582187 109.134689 
L 336.195578 103.844856 
L 341.408013 99.217915 
L 346.620448 94.894106 
L 351.431926 91.196103 
L 355.842448 88.072831 
L 360.25297 85.221965 
L 364.262535 82.880891 
L 368.272101 80.791639 
L 372.281666 78.966922 
L 375.890275 77.56136 
L 379.498883 76.389632 
L 383.107492 75.461007 
L 384.310362 75.207089 
L 384.711318 40.180453 
L 387.918971 39.668064 
L 391.126623 39.35725 
L 394.735232 39.243705 
L 398.34384 39.374811 
L 401.952449 39.745003 
L 405.561058 40.348716 
L 409.169667 41.180385 
L 412.778275 42.234444 
L 416.386884 43.505329 
L 420.39645 45.164957 
L 424.406015 47.077766 
L 428.41558 49.236123 
L 432.425145 51.632394 
L 436.835667 54.53397 
L 441.246189 57.704025 
L 446.057667 61.456525 
L 450.869146 65.503253 
L 455.680624 69.831016 
L 460.893059 74.821268 
L 466.105494 80.109094 
L 471.718885 86.117227 
L 477.733233 92.892101 
L 483.747581 99.991013 
L 483.747581 99.991013 
" clip-path="url(#pb9da49e87d)" style="fill: none; stroke: #000000; stroke-width: 1.5; stroke-linecap: round"/>
   </g>
   <g id="line2d_32">
    <path d="M 384.711318 75.12874 
L 387.918971 74.616352 
L 391.126623 74.305538 
L 394.735232 74.191992 
L 398.34384 74.323098 
L 401.952449 74.69329 
L 405.561058 75.297003 
L 409.169667 76.128672 
L 412.778275 77.182732 
L 416.386884 78.453617 
L 420.39645 80.113244 
L 424.406015 82.026054 
L 428.41558 84.18441 
L 432.425145 86.580681 
L 436.835667 89.482258 
L 441.246189 92.652313 
L 446.057667 96.404813 
L 450.869146 100.45154 
L 455.680624 104.779303 
L 460.893059 109.769555 
L 466.105494 115.057381 
L 471.718885 121.065514 
L 477.733233 127.840389 
L 483.747581 134.939301 
L 483.747581 134.939301 
" clip-path="url(#pb9da49e87d)" style="fill: none; stroke-dasharray: 1.5,2.475; stroke-dashoffset: 0; stroke: #000000; stroke-width: 1.5"/>
   </g>
   <g id="line2d_33">
    <path d="M 384.508342 271.459361 
L 384.508342 25.314378 
" clip-path="url(#pb9da49e87d)" style="fill: none; stroke: #ff0000; stroke-width: 3; stroke-linecap: round"/>
   </g>
   <g id="patch_3">
    <path d="M 63.164229 271.459361 
L 63.164229 25.314378 
" style="fill: none"/>
   </g>
   <g id="patch_4">
    <path d="M 503.77536 271.459361 
L 503.77536 25.314378 
" style="fill: none"/>
   </g>
   <g id="patch_5">
    <path d="M 63.164229 271.459361 
L 503.77536 271.459361 
" style="fill: none"/>
   </g>
   <g id="patch_6">
    <path d="M 63.164229 25.314378 
L 503.77536 25.314378 
" style="fill: none"/>
   </g>
   <g id="text_8">
    <!-- $R^2$ on all data = 0.987 -->
    <g style="fill: #262626" transform="translate(193.869794 19.314378) scale(0.16 -0.16)">
     <defs>
      <path id="DejaVuSans-Oblique-52" d="M 1613 4147 
L 1294 2491 
L 2106 2491 
Q 2584 2491 2879 2755 
Q 3175 3019 3175 3444 
Q 3175 3784 2976 3965 
Q 2778 4147 2406 4147 
L 1613 4147 
z
M 2772 2241 
Q 2972 2194 3105 2009 
Q 3238 1825 3413 1275 
L 3809 0 
L 3144 0 
L 2778 1197 
Q 2638 1659 2453 1815 
Q 2269 1972 1888 1972 
L 1191 1972 
L 806 0 
L 172 0 
L 1081 4666 
L 2503 4666 
Q 3150 4666 3495 4373 
Q 3841 4081 3841 3531 
Q 3841 3044 3547 2687 
Q 3253 2331 2772 2241 
z
" transform="scale(0.015625)"/>
      <path id="DejaVuSans-32" d="M 1228 531 
L 3431 531 
L 3431 0 
L 469 0 
L 469 531 
Q 828 903 1448 1529 
Q 2069 2156 2228 2338 
Q 2531 2678 2651 2914 
Q 2772 3150 2772 3378 
Q 2772 3750 2511 3984 
Q 2250 4219 1831 4219 
Q 1534 4219 1204 4116 
Q 875 4013 500 3803 
L 500 4441 
Q 881 4594 1212 4672 
Q 1544 4750 1819 4750 
Q 2544 4750 2975 4387 
Q 3406 4025 3406 3419 
Q 3406 3131 3298 2873 
Q 3191 2616 2906 2266 
Q 2828 2175 2409 1742 
Q 1991 1309 1228 531 
z
" transform="scale(0.015625)"/>
      <path id="DejaVuSans-20" transform="scale(0.015625)"/>
      <path id="DejaVuSans-6f" d="M 1959 3097 
Q 1497 3097 1228 2736 
Q 959 2375 959 1747 
Q 959 1119 1226 758 
Q 1494 397 1959 397 
Q 2419 397 2687 759 
Q 2956 1122 2956 1747 
Q 2956 2369 2687 2733 
Q 2419 3097 1959 3097 
z
M 1959 3584 
Q 2709 3584 3137 3096 
Q 3566 2609 3566 1747 
Q 3566 888 3137 398 
Q 2709 -91 1959 -91 
Q 1206 -91 779 398 
Q 353 888 353 1747 
Q 353 2609 779 3096 
Q 1206 3584 1959 3584 
z
" transform="scale(0.015625)"/>
      <path id="DejaVuSans-6e" d="M 3513 2113 
L 3513 0 
L 2938 0 
L 2938 2094 
Q 2938 2591 2744 2837 
Q 2550 3084 2163 3084 
Q 1697 3084 1428 2787 
Q 1159 2491 1159 1978 
L 1159 0 
L 581 0 
L 581 3500 
L 1159 3500 
L 1159 2956 
Q 1366 3272 1645 3428 
Q 1925 3584 2291 3584 
Q 2894 3584 3203 3211 
Q 3513 2838 3513 2113 
z
" transform="scale(0.015625)"/>
      <path id="DejaVuSans-61" d="M 2194 1759 
Q 1497 1759 1228 1600 
Q 959 1441 959 1056 
Q 959 750 1161 570 
Q 1363 391 1709 391 
Q 2188 391 2477 730 
Q 2766 1069 2766 1631 
L 2766 1759 
L 2194 1759 
z
M 3341 1997 
L 3341 0 
L 2766 0 
L 2766 531 
Q 2569 213 2275 61 
Q 1981 -91 1556 -91 
Q 1019 -91 701 211 
Q 384 513 384 1019 
Q 384 1609 779 1909 
Q 1175 2209 1959 2209 
L 2766 2209 
L 2766 2266 
Q 2766 2663 2505 2880 
Q 2244 3097 1772 3097 
Q 1472 3097 1187 3025 
Q 903 2953 641 2809 
L 641 3341 
Q 956 3463 1253 3523 
Q 1550 3584 1831 3584 
Q 2591 3584 2966 3190 
Q 3341 2797 3341 1997 
z
" transform="scale(0.015625)"/>
      <path id="DejaVuSans-6c" d="M 603 4863 
L 1178 4863 
L 1178 0 
L 603 0 
L 603 4863 
z
" transform="scale(0.015625)"/>
      <path id="DejaVuSans-64" d="M 2906 2969 
L 2906 4863 
L 3481 4863 
L 3481 0 
L 2906 0 
L 2906 525 
Q 2725 213 2448 61 
Q 2172 -91 1784 -91 
Q 1150 -91 751 415 
Q 353 922 353 1747 
Q 353 2572 751 3078 
Q 1150 3584 1784 3584 
Q 2172 3584 2448 3432 
Q 2725 3281 2906 2969 
z
M 947 1747 
Q 947 1113 1208 752 
Q 1469 391 1925 391 
Q 2381 391 2643 752 
Q 2906 1113 2906 1747 
Q 2906 2381 2643 2742 
Q 2381 3103 1925 3103 
Q 1469 3103 1208 2742 
Q 947 2381 947 1747 
z
" transform="scale(0.015625)"/>
      <path id="DejaVuSans-74" d="M 1172 4494 
L 1172 3500 
L 2356 3500 
L 2356 3053 
L 1172 3053 
L 1172 1153 
Q 1172 725 1289 603 
Q 1406 481 1766 481 
L 2356 481 
L 2356 0 
L 1766 0 
Q 1100 0 847 248 
Q 594 497 594 1153 
L 594 3053 
L 172 3053 
L 172 3500 
L 594 3500 
L 594 4494 
L 1172 4494 
z
" transform="scale(0.015625)"/>
      <path id="DejaVuSans-3d" d="M 678 2906 
L 4684 2906 
L 4684 2381 
L 678 2381 
L 678 2906 
z
M 678 1631 
L 4684 1631 
L 4684 1100 
L 678 1100 
L 678 1631 
z
" transform="scale(0.015625)"/>
      <path id="DejaVuSans-39" d="M 703 97 
L 703 672 
Q 941 559 1184 500 
Q 1428 441 1663 441 
Q 2288 441 2617 861 
Q 2947 1281 2994 2138 
Q 2813 1869 2534 1725 
Q 2256 1581 1919 1581 
Q 1219 1581 811 2004 
Q 403 2428 403 3163 
Q 403 3881 828 4315 
Q 1253 4750 1959 4750 
Q 2769 4750 3195 4129 
Q 3622 3509 3622 2328 
Q 3622 1225 3098 567 
Q 2575 -91 1691 -91 
Q 1453 -91 1209 -44 
Q 966 3 703 97 
z
M 1959 2075 
Q 2384 2075 2632 2365 
Q 2881 2656 2881 3163 
Q 2881 3666 2632 3958 
Q 2384 4250 1959 4250 
Q 1534 4250 1286 3958 
Q 1038 3666 1038 3163 
Q 1038 2656 1286 2365 
Q 1534 2075 1959 2075 
z
" transform="scale(0.015625)"/>
      <path id="DejaVuSans-38" d="M 2034 2216 
Q 1584 2216 1326 1975 
Q 1069 1734 1069 1313 
Q 1069 891 1326 650 
Q 1584 409 2034 409 
Q 2484 409 2743 651 
Q 3003 894 3003 1313 
Q 3003 1734 2745 1975 
Q 2488 2216 2034 2216 
z
M 1403 2484 
Q 997 2584 770 2862 
Q 544 3141 544 3541 
Q 544 4100 942 4425 
Q 1341 4750 2034 4750 
Q 2731 4750 3128 4425 
Q 3525 4100 3525 3541 
Q 3525 3141 3298 2862 
Q 3072 2584 2669 2484 
Q 3125 2378 3379 2068 
Q 3634 1759 3634 1313 
Q 3634 634 3220 271 
Q 2806 -91 2034 -91 
Q 1263 -91 848 271 
Q 434 634 434 1313 
Q 434 1759 690 2068 
Q 947 2378 1403 2484 
z
M 1172 3481 
Q 1172 3119 1398 2916 
Q 1625 2713 2034 2713 
Q 2441 2713 2670 2916 
Q 2900 3119 2900 3481 
Q 2900 3844 2670 4047 
Q 2441 4250 2034 4250 
Q 1625 4250 1398 4047 
Q 1172 3844 1172 3481 
z
" transform="scale(0.015625)"/>
      <path id="DejaVuSans-37" d="M 525 4666 
L 3525 4666 
L 3525 4397 
L 1831 0 
L 1172 0 
L 2766 4134 
L 525 4134 
L 525 4666 
z
" transform="scale(0.015625)"/>
     </defs>
     <use xlink:href="#DejaVuSans-Oblique-52" transform="translate(0 0.765625)"/>
     <use xlink:href="#DejaVuSans-32" transform="translate(76.499193 39.046875) scale(0.7)"/>
     <use xlink:href="#DejaVuSans-20" transform="translate(123.769701 0.765625)"/>
     <use xlink:href="#DejaVuSans-6f" transform="translate(155.55681 0.765625)"/>
     <use xlink:href="#DejaVuSans-6e" transform="translate(216.738451 0.765625)"/>
     <use xlink:href="#DejaVuSans-20" transform="translate(280.117357 0.765625)"/>
     <use xlink:href="#DejaVuSans-61" transform="translate(311.904466 0.765625)"/>
     <use xlink:href="#DejaVuSans-6c" transform="translate(373.183763 0.765625)"/>
     <use xlink:href="#DejaVuSans-6c" transform="translate(400.966966 0.765625)"/>
     <use xlink:href="#DejaVuSans-20" transform="translate(428.750169 0.765625)"/>
     <use xlink:href="#DejaVuSans-64" transform="translate(460.537279 0.765625)"/>
     <use xlink:href="#DejaVuSans-61" transform="translate(524.013841 0.765625)"/>
     <use xlink:href="#DejaVuSans-74" transform="translate(585.293138 0.765625)"/>
     <use xlink:href="#DejaVuSans-61" transform="translate(624.502122 0.765625)"/>
     <use xlink:href="#DejaVuSans-20" transform="translate(685.781419 0.765625)"/>
     <use xlink:href="#DejaVuSans-3d" transform="translate(717.568529 0.765625)"/>
     <use xlink:href="#DejaVuSans-20" transform="translate(801.357591 0.765625)"/>
     <use xlink:href="#DejaVuSans-30" transform="translate(833.144701 0.765625)"/>
     <use xlink:href="#DejaVuSans-2e" transform="translate(896.767747 0.765625)"/>
     <use xlink:href="#DejaVuSans-39" transform="translate(928.554857 0.765625)"/>
     <use xlink:href="#DejaVuSans-38" transform="translate(992.177904 0.765625)"/>
     <use xlink:href="#DejaVuSans-37" transform="translate(1055.800951 0.765625)"/>
    </g>
   </g>
   <g id="legend_1">
    <g id="line2d_34">
     <path d="M 73.964229 41.032503 
L 85.964229 41.032503 
L 97.964229 41.032503 
" style="fill: none; stroke: #000000; stroke-width: 1.5; stroke-linecap: round"/>
    </g>
    <g id="text_9">
     <!-- model fit -->
     <g style="fill: #262626" transform="translate(107.564229 45.232503) scale(0.12 -0.12)">
      <defs>
       <path id="DejaVuSans-6d" d="M 3328 2828 
Q 3544 3216 3844 3400 
Q 4144 3584 4550 3584 
Q 5097 3584 5394 3201 
Q 5691 2819 5691 2113 
L 5691 0 
L 5113 0 
L 5113 2094 
Q 5113 2597 4934 2840 
Q 4756 3084 4391 3084 
Q 3944 3084 3684 2787 
Q 3425 2491 3425 1978 
L 3425 0 
L 2847 0 
L 2847 2094 
Q 2847 2600 2669 2842 
Q 2491 3084 2119 3084 
Q 1678 3084 1418 2786 
Q 1159 2488 1159 1978 
L 1159 0 
L 581 0 
L 581 3500 
L 1159 3500 
L 1159 2956 
Q 1356 3278 1631 3431 
Q 1906 3584 2284 3584 
Q 2666 3584 2933 3390 
Q 3200 3197 3328 2828 
z
" transform="scale(0.015625)"/>
       <path id="DejaVuSans-65" d="M 3597 1894 
L 3597 1613 
L 953 1613 
Q 991 1019 1311 708 
Q 1631 397 2203 397 
Q 2534 397 2845 478 
Q 3156 559 3463 722 
L 3463 178 
Q 3153 47 2828 -22 
Q 2503 -91 2169 -91 
Q 1331 -91 842 396 
Q 353 884 353 1716 
Q 353 2575 817 3079 
Q 1281 3584 2069 3584 
Q 2775 3584 3186 3129 
Q 3597 2675 3597 1894 
z
M 3022 2063 
Q 3016 2534 2758 2815 
Q 2500 3097 2075 3097 
Q 1594 3097 1305 2825 
Q 1016 2553 972 2059 
L 3022 2063 
z
" transform="scale(0.015625)"/>
       <path id="DejaVuSans-66" d="M 2375 4863 
L 2375 4384 
L 1825 4384 
Q 1516 4384 1395 4259 
Q 1275 4134 1275 3809 
L 1275 3500 
L 2222 3500 
L 2222 3053 
L 1275 3053 
L 1275 0 
L 697 0 
L 697 3053 
L 147 3053 
L 147 3500 
L 697 3500 
L 697 3744 
Q 697 4328 969 4595 
Q 1241 4863 1831 4863 
L 2375 4863 
z
" transform="scale(0.015625)"/>
       <path id="DejaVuSans-69" d="M 603 3500 
L 1178 3500 
L 1178 0 
L 603 0 
L 603 3500 
z
M 603 4863 
L 1178 4863 
L 1178 4134 
L 603 4134 
L 603 4863 
z
" transform="scale(0.015625)"/>
      </defs>
      <use xlink:href="#DejaVuSans-6d"/>
      <use xlink:href="#DejaVuSans-6f" x="97.412109"/>
      <use xlink:href="#DejaVuSans-64" x="158.59375"/>
      <use xlink:href="#DejaVuSans-65" x="222.070312"/>
      <use xlink:href="#DejaVuSans-6c" x="283.59375"/>
      <use xlink:href="#DejaVuSans-20" x="311.376953"/>
      <use xlink:href="#DejaVuSans-66" x="343.164062"/>
      <use xlink:href="#DejaVuSans-69" x="378.369141"/>
      <use xlink:href="#DejaVuSans-74" x="406.152344"/>
     </g>
    </g>
    <g id="line2d_35">
     <path d="M 73.964229 58.646253 
L 85.964229 58.646253 
L 97.964229 58.646253 
" style="fill: none; stroke-dasharray: 1.5,2.475; stroke-dashoffset: 0; stroke: #000000; stroke-width: 1.5"/>
    </g>
    <g id="text_10">
     <!-- counterfactual -->
     <g style="fill: #262626" transform="translate(107.564229 62.846253) scale(0.12 -0.12)">
      <defs>
       <path id="DejaVuSans-63" d="M 3122 3366 
L 3122 2828 
Q 2878 2963 2633 3030 
Q 2388 3097 2138 3097 
Q 1578 3097 1268 2742 
Q 959 2388 959 1747 
Q 959 1106 1268 751 
Q 1578 397 2138 397 
Q 2388 397 2633 464 
Q 2878 531 3122 666 
L 3122 134 
Q 2881 22 2623 -34 
Q 2366 -91 2075 -91 
Q 1284 -91 818 406 
Q 353 903 353 1747 
Q 353 2603 823 3093 
Q 1294 3584 2113 3584 
Q 2378 3584 2631 3529 
Q 2884 3475 3122 3366 
z
" transform="scale(0.015625)"/>
       <path id="DejaVuSans-75" d="M 544 1381 
L 544 3500 
L 1119 3500 
L 1119 1403 
Q 1119 906 1312 657 
Q 1506 409 1894 409 
Q 2359 409 2629 706 
Q 2900 1003 2900 1516 
L 2900 3500 
L 3475 3500 
L 3475 0 
L 2900 0 
L 2900 538 
Q 2691 219 2414 64 
Q 2138 -91 1772 -91 
Q 1169 -91 856 284 
Q 544 659 544 1381 
z
M 1991 3584 
L 1991 3584 
z
" transform="scale(0.015625)"/>
       <path id="DejaVuSans-72" d="M 2631 2963 
Q 2534 3019 2420 3045 
Q 2306 3072 2169 3072 
Q 1681 3072 1420 2755 
Q 1159 2438 1159 1844 
L 1159 0 
L 581 0 
L 581 3500 
L 1159 3500 
L 1159 2956 
Q 1341 3275 1631 3429 
Q 1922 3584 2338 3584 
Q 2397 3584 2469 3576 
Q 2541 3569 2628 3553 
L 2631 2963 
z
" transform="scale(0.015625)"/>
      </defs>
      <use xlink:href="#DejaVuSans-63"/>
      <use xlink:href="#DejaVuSans-6f" x="54.980469"/>
      <use xlink:href="#DejaVuSans-75" x="116.162109"/>
      <use xlink:href="#DejaVuSans-6e" x="179.541016"/>
      <use xlink:href="#DejaVuSans-74" x="242.919922"/>
      <use xlink:href="#DejaVuSans-65" x="282.128906"/>
      <use xlink:href="#DejaVuSans-72" x="343.652344"/>
      <use xlink:href="#DejaVuSans-66" x="384.765625"/>
      <use xlink:href="#DejaVuSans-61" x="419.970703"/>
      <use xlink:href="#DejaVuSans-63" x="481.25"/>
      <use xlink:href="#DejaVuSans-74" x="536.230469"/>
      <use xlink:href="#DejaVuSans-75" x="575.439453"/>
      <use xlink:href="#DejaVuSans-61" x="638.818359"/>
      <use xlink:href="#DejaVuSans-6c" x="700.097656"/>
     </g>
    </g>
    <g id="patch_7">
     <path d="M 73.964229 80.460003 
L 97.964229 80.460003 
L 97.964229 72.060003 
L 73.964229 72.060003 
z
" style="fill: #2a2eec; fill-opacity: 0.25; stroke: #2a2eec; stroke-opacity: 0.25; stroke-linejoin: miter"/>
    </g>
    <g id="text_11">
     <!-- inferred causal impact -->
     <g style="fill: #262626" transform="translate(107.564229 80.460003) scale(0.12 -0.12)">
      <defs>
       <path id="DejaVuSans-73" d="M 2834 3397 
L 2834 2853 
Q 2591 2978 2328 3040 
Q 2066 3103 1784 3103 
Q 1356 3103 1142 2972 
Q 928 2841 928 2578 
Q 928 2378 1081 2264 
Q 1234 2150 1697 2047 
L 1894 2003 
Q 2506 1872 2764 1633 
Q 3022 1394 3022 966 
Q 3022 478 2636 193 
Q 2250 -91 1575 -91 
Q 1294 -91 989 -36 
Q 684 19 347 128 
L 347 722 
Q 666 556 975 473 
Q 1284 391 1588 391 
Q 1994 391 2212 530 
Q 2431 669 2431 922 
Q 2431 1156 2273 1281 
Q 2116 1406 1581 1522 
L 1381 1569 
Q 847 1681 609 1914 
Q 372 2147 372 2553 
Q 372 3047 722 3315 
Q 1072 3584 1716 3584 
Q 2034 3584 2315 3537 
Q 2597 3491 2834 3397 
z
" transform="scale(0.015625)"/>
       <path id="DejaVuSans-70" d="M 1159 525 
L 1159 -1331 
L 581 -1331 
L 581 3500 
L 1159 3500 
L 1159 2969 
Q 1341 3281 1617 3432 
Q 1894 3584 2278 3584 
Q 2916 3584 3314 3078 
Q 3713 2572 3713 1747 
Q 3713 922 3314 415 
Q 2916 -91 2278 -91 
Q 1894 -91 1617 61 
Q 1341 213 1159 525 
z
M 3116 1747 
Q 3116 2381 2855 2742 
Q 2594 3103 2138 3103 
Q 1681 3103 1420 2742 
Q 1159 2381 1159 1747 
Q 1159 1113 1420 752 
Q 1681 391 2138 391 
Q 2594 391 2855 752 
Q 3116 1113 3116 1747 
z
" transform="scale(0.015625)"/>
      </defs>
      <use xlink:href="#DejaVuSans-69"/>
      <use xlink:href="#DejaVuSans-6e" x="27.783203"/>
      <use xlink:href="#DejaVuSans-66" x="91.162109"/>
      <use xlink:href="#DejaVuSans-65" x="126.367188"/>
      <use xlink:href="#DejaVuSans-72" x="187.890625"/>
      <use xlink:href="#DejaVuSans-72" x="227.253906"/>
      <use xlink:href="#DejaVuSans-65" x="266.117188"/>
      <use xlink:href="#DejaVuSans-64" x="327.640625"/>
      <use xlink:href="#DejaVuSans-20" x="391.117188"/>
      <use xlink:href="#DejaVuSans-63" x="422.904297"/>
      <use xlink:href="#DejaVuSans-61" x="477.884766"/>
      <use xlink:href="#DejaVuSans-75" x="539.164062"/>
      <use xlink:href="#DejaVuSans-73" x="602.542969"/>
      <use xlink:href="#DejaVuSans-61" x="654.642578"/>
      <use xlink:href="#DejaVuSans-6c" x="715.921875"/>
      <use xlink:href="#DejaVuSans-20" x="743.705078"/>
      <use xlink:href="#DejaVuSans-69" x="775.492188"/>
      <use xlink:href="#DejaVuSans-6d" x="803.275391"/>
      <use xlink:href="#DejaVuSans-70" x="900.6875"/>
      <use xlink:href="#DejaVuSans-61" x="964.164062"/>
      <use xlink:href="#DejaVuSans-63" x="1025.443359"/>
      <use xlink:href="#DejaVuSans-74" x="1080.423828"/>
     </g>
    </g>
    <g id="line2d_36">
     <path d="M 73.964229 93.873753 
L 85.964229 93.873753 
L 97.964229 93.873753 
" style="fill: none; stroke: #ff0000; stroke-width: 3; stroke-linecap: round"/>
    </g>
    <g id="text_12">
     <!-- treatment threshold -->
     <g style="fill: #262626" transform="translate(107.564229 98.073753) scale(0.12 -0.12)">
      <defs>
       <path id="DejaVuSans-68" d="M 3513 2113 
L 3513 0 
L 2938 0 
L 2938 2094 
Q 2938 2591 2744 2837 
Q 2550 3084 2163 3084 
Q 1697 3084 1428 2787 
Q 1159 2491 1159 1978 
L 1159 0 
L 581 0 
L 581 4863 
L 1159 4863 
L 1159 2956 
Q 1366 3272 1645 3428 
Q 1925 3584 2291 3584 
Q 2894 3584 3203 3211 
Q 3513 2838 3513 2113 
z
" transform="scale(0.015625)"/>
      </defs>
      <use xlink:href="#DejaVuSans-74"/>
      <use xlink:href="#DejaVuSans-72" x="39.208984"/>
      <use xlink:href="#DejaVuSans-65" x="78.072266"/>
      <use xlink:href="#DejaVuSans-61" x="139.595703"/>
      <use xlink:href="#DejaVuSans-74" x="200.875"/>
      <use xlink:href="#DejaVuSans-6d" x="240.083984"/>
      <use xlink:href="#DejaVuSans-65" x="337.496094"/>
      <use xlink:href="#DejaVuSans-6e" x="399.019531"/>
      <use xlink:href="#DejaVuSans-74" x="462.398438"/>
      <use xlink:href="#DejaVuSans-20" x="501.607422"/>
      <use xlink:href="#DejaVuSans-74" x="533.394531"/>
      <use xlink:href="#DejaVuSans-68" x="572.603516"/>
      <use xlink:href="#DejaVuSans-72" x="635.982422"/>
      <use xlink:href="#DejaVuSans-65" x="674.845703"/>
      <use xlink:href="#DejaVuSans-73" x="736.369141"/>
      <use xlink:href="#DejaVuSans-68" x="788.46875"/>
      <use xlink:href="#DejaVuSans-6f" x="851.847656"/>
      <use xlink:href="#DejaVuSans-6c" x="913.029297"/>
      <use xlink:href="#DejaVuSans-64" x="940.8125"/>
     </g>
    </g>
   </g>
  </g>
  <g id="axes_2">
   <g id="patch_8">
    <path d="M 63.164229 541.67608 
L 503.77536 541.67608 
L 503.77536 295.531097 
L 63.164229 295.531097 
z
" style="fill: #eeeeee"/>
   </g>
   <g id="matplotlib.axis_3">
    <g id="xtick_10">
     <g id="line2d_37">
      <path d="M 69.046388 541.67608 
L 69.046388 295.531097 
" clip-path="url(#pd032400607)" style="fill: none; stroke: #ffffff; stroke-width: 0.8; stroke-linecap: round"/>
     </g>
     <g id="line2d_38"/>
     <g id="text_13">
      <!-- −1.00 -->
      <g style="fill: #262626" transform="translate(47.594669 555.813892) scale(0.14 -0.14)">
       <use xlink:href="#DejaVuSans-2212"/>
       <use xlink:href="#DejaVuSans-31" x="83.789062"/>
       <use xlink:href="#DejaVuSans-2e" x="147.412109"/>
       <use xlink:href="#DejaVuSans-30" x="179.199219"/>
       <use xlink:href="#DejaVuSans-30" x="242.822266"/>
      </g>
     </g>
    </g>
    <g id="xtick_11">
     <g id="line2d_39">
      <path d="M 121.62338 541.67608 
L 121.62338 295.531097 
" clip-path="url(#pd032400607)" style="fill: none; stroke: #ffffff; stroke-width: 0.8; stroke-linecap: round"/>
     </g>
     <g id="line2d_40"/>
     <g id="text_14">
      <!-- −0.75 -->
      <g style="fill: #262626" transform="translate(100.171662 555.813892) scale(0.14 -0.14)">
       <use xlink:href="#DejaVuSans-2212"/>
       <use xlink:href="#DejaVuSans-30" x="83.789062"/>
       <use xlink:href="#DejaVuSans-2e" x="147.412109"/>
       <use xlink:href="#DejaVuSans-37" x="179.199219"/>
       <use xlink:href="#DejaVuSans-35" x="242.822266"/>
      </g>
     </g>
    </g>
    <g id="xtick_12">
     <g id="line2d_41">
      <path d="M 174.200373 541.67608 
L 174.200373 295.531097 
" clip-path="url(#pd032400607)" style="fill: none; stroke: #ffffff; stroke-width: 0.8; stroke-linecap: round"/>
     </g>
     <g id="line2d_42"/>
     <g id="text_15">
      <!-- −0.50 -->
      <g style="fill: #262626" transform="translate(152.748654 555.813892) scale(0.14 -0.14)">
       <use xlink:href="#DejaVuSans-2212"/>
       <use xlink:href="#DejaVuSans-30" x="83.789062"/>
       <use xlink:href="#DejaVuSans-2e" x="147.412109"/>
       <use xlink:href="#DejaVuSans-35" x="179.199219"/>
       <use xlink:href="#DejaVuSans-30" x="242.822266"/>
      </g>
     </g>
    </g>
    <g id="xtick_13">
     <g id="line2d_43">
      <path d="M 226.777365 541.67608 
L 226.777365 295.531097 
" clip-path="url(#pd032400607)" style="fill: none; stroke: #ffffff; stroke-width: 0.8; stroke-linecap: round"/>
     </g>
     <g id="line2d_44"/>
     <g id="text_16">
      <!-- −0.25 -->
      <g style="fill: #262626" transform="translate(205.325646 555.813892) scale(0.14 -0.14)">
       <use xlink:href="#DejaVuSans-2212"/>
       <use xlink:href="#DejaVuSans-30" x="83.789062"/>
       <use xlink:href="#DejaVuSans-2e" x="147.412109"/>
       <use xlink:href="#DejaVuSans-32" x="179.199219"/>
       <use xlink:href="#DejaVuSans-35" x="242.822266"/>
      </g>
     </g>
    </g>
    <g id="xtick_14">
     <g id="line2d_45">
      <path d="M 279.354358 541.67608 
L 279.354358 295.531097 
" clip-path="url(#pd032400607)" style="fill: none; stroke: #ffffff; stroke-width: 0.8; stroke-linecap: round"/>
     </g>
     <g id="line2d_46"/>
     <g id="text_17">
      <!-- 0.00 -->
      <g style="fill: #262626" transform="translate(263.76842 555.813892) scale(0.14 -0.14)">
       <use xlink:href="#DejaVuSans-30"/>
       <use xlink:href="#DejaVuSans-2e" x="63.623047"/>
       <use xlink:href="#DejaVuSans-30" x="95.410156"/>
       <use xlink:href="#DejaVuSans-30" x="159.033203"/>
      </g>
     </g>
    </g>
    <g id="xtick_15">
     <g id="line2d_47">
      <path d="M 331.93135 541.67608 
L 331.93135 295.531097 
" clip-path="url(#pd032400607)" style="fill: none; stroke: #ffffff; stroke-width: 0.8; stroke-linecap: round"/>
     </g>
     <g id="line2d_48"/>
     <g id="text_18">
      <!-- 0.25 -->
      <g style="fill: #262626" transform="translate(316.345413 555.813892) scale(0.14 -0.14)">
       <use xlink:href="#DejaVuSans-30"/>
       <use xlink:href="#DejaVuSans-2e" x="63.623047"/>
       <use xlink:href="#DejaVuSans-32" x="95.410156"/>
       <use xlink:href="#DejaVuSans-35" x="159.033203"/>
      </g>
     </g>
    </g>
    <g id="xtick_16">
     <g id="line2d_49">
      <path d="M 384.508342 541.67608 
L 384.508342 295.531097 
" clip-path="url(#pd032400607)" style="fill: none; stroke: #ffffff; stroke-width: 0.8; stroke-linecap: round"/>
     </g>
     <g id="line2d_50"/>
     <g id="text_19">
      <!-- 0.50 -->
      <g style="fill: #262626" transform="translate(368.922405 555.813892) scale(0.14 -0.14)">
       <use xlink:href="#DejaVuSans-30"/>
       <use xlink:href="#DejaVuSans-2e" x="63.623047"/>
       <use xlink:href="#DejaVuSans-35" x="95.410156"/>
       <use xlink:href="#DejaVuSans-30" x="159.033203"/>
      </g>
     </g>
    </g>
    <g id="xtick_17">
     <g id="line2d_51">
      <path d="M 437.085335 541.67608 
L 437.085335 295.531097 
" clip-path="url(#pd032400607)" style="fill: none; stroke: #ffffff; stroke-width: 0.8; stroke-linecap: round"/>
     </g>
     <g id="line2d_52"/>
     <g id="text_20">
      <!-- 0.75 -->
      <g style="fill: #262626" transform="translate(421.499397 555.813892) scale(0.14 -0.14)">
       <use xlink:href="#DejaVuSans-30"/>
       <use xlink:href="#DejaVuSans-2e" x="63.623047"/>
       <use xlink:href="#DejaVuSans-37" x="95.410156"/>
       <use xlink:href="#DejaVuSans-35" x="159.033203"/>
      </g>
     </g>
    </g>
    <g id="xtick_18">
     <g id="line2d_53">
      <path d="M 489.662327 541.67608 
L 489.662327 295.531097 
" clip-path="url(#pd032400607)" style="fill: none; stroke: #ffffff; stroke-width: 0.8; stroke-linecap: round"/>
     </g>
     <g id="line2d_54"/>
     <g id="text_21">
      <!-- 1.00 -->
      <g style="fill: #262626" transform="translate(474.07639 555.813892) scale(0.14 -0.14)">
       <use xlink:href="#DejaVuSans-31"/>
       <use xlink:href="#DejaVuSans-2e" x="63.623047"/>
       <use xlink:href="#DejaVuSans-30" x="95.410156"/>
       <use xlink:href="#DejaVuSans-30" x="159.033203"/>
      </g>
     </g>
    </g>
    <g id="text_22">
     <!-- x -->
     <g style="fill: #262626" transform="translate(279.030732 574.123111) scale(0.15 -0.15)">
      <defs>
       <path id="DejaVuSans-78" d="M 3513 3500 
L 2247 1797 
L 3578 0 
L 2900 0 
L 1881 1375 
L 863 0 
L 184 0 
L 1544 1831 
L 300 3500 
L 978 3500 
L 1906 2253 
L 2834 3500 
L 3513 3500 
z
" transform="scale(0.015625)"/>
      </defs>
      <use xlink:href="#DejaVuSans-78"/>
     </g>
    </g>
   </g>
   <g id="matplotlib.axis_4">
    <g id="ytick_7">
     <g id="line2d_55">
      <path d="M 63.164229 530.487671 
L 503.77536 530.487671 
" clip-path="url(#pd032400607)" style="fill: none; stroke: #ffffff; stroke-width: 0.8; stroke-linecap: round"/>
     </g>
     <g id="line2d_56"/>
     <g id="text_23">
      <!-- 0.0 -->
      <g style="fill: #262626" transform="translate(37.399854 535.806578) scale(0.14 -0.14)">
       <use xlink:href="#DejaVuSans-30"/>
       <use xlink:href="#DejaVuSans-2e" x="63.623047"/>
       <use xlink:href="#DejaVuSans-30" x="95.410156"/>
      </g>
     </g>
    </g>
    <g id="ytick_8">
     <g id="line2d_57">
      <path d="M 63.164229 475.470791 
L 503.77536 475.470791 
" clip-path="url(#pd032400607)" style="fill: none; stroke: #ffffff; stroke-width: 0.8; stroke-linecap: round"/>
     </g>
     <g id="line2d_58"/>
     <g id="text_24">
      <!-- 0.1 -->
      <g style="fill: #262626" transform="translate(37.399854 480.789697) scale(0.14 -0.14)">
       <use xlink:href="#DejaVuSans-30"/>
       <use xlink:href="#DejaVuSans-2e" x="63.623047"/>
       <use xlink:href="#DejaVuSans-31" x="95.410156"/>
      </g>
     </g>
    </g>
    <g id="ytick_9">
     <g id="line2d_59">
      <path d="M 63.164229 420.453911 
L 503.77536 420.453911 
" clip-path="url(#pd032400607)" style="fill: none; stroke: #ffffff; stroke-width: 0.8; stroke-linecap: round"/>
     </g>
     <g id="line2d_60"/>
     <g id="text_25">
      <!-- 0.2 -->
      <g style="fill: #262626" transform="translate(37.399854 425.772817) scale(0.14 -0.14)">
       <use xlink:href="#DejaVuSans-30"/>
       <use xlink:href="#DejaVuSans-2e" x="63.623047"/>
       <use xlink:href="#DejaVuSans-32" x="95.410156"/>
      </g>
     </g>
    </g>
    <g id="ytick_10">
     <g id="line2d_61">
      <path d="M 63.164229 365.437031 
L 503.77536 365.437031 
" clip-path="url(#pd032400607)" style="fill: none; stroke: #ffffff; stroke-width: 0.8; stroke-linecap: round"/>
     </g>
     <g id="line2d_62"/>
     <g id="text_26">
      <!-- 0.3 -->
      <g style="fill: #262626" transform="translate(37.399854 370.755937) scale(0.14 -0.14)">
       <defs>
        <path id="DejaVuSans-33" d="M 2597 2516 
Q 3050 2419 3304 2112 
Q 3559 1806 3559 1356 
Q 3559 666 3084 287 
Q 2609 -91 1734 -91 
Q 1441 -91 1130 -33 
Q 819 25 488 141 
L 488 750 
Q 750 597 1062 519 
Q 1375 441 1716 441 
Q 2309 441 2620 675 
Q 2931 909 2931 1356 
Q 2931 1769 2642 2001 
Q 2353 2234 1838 2234 
L 1294 2234 
L 1294 2753 
L 1863 2753 
Q 2328 2753 2575 2939 
Q 2822 3125 2822 3475 
Q 2822 3834 2567 4026 
Q 2313 4219 1838 4219 
Q 1578 4219 1281 4162 
Q 984 4106 628 3988 
L 628 4550 
Q 988 4650 1302 4700 
Q 1616 4750 1894 4750 
Q 2613 4750 3031 4423 
Q 3450 4097 3450 3541 
Q 3450 3153 3228 2886 
Q 3006 2619 2597 2516 
z
" transform="scale(0.015625)"/>
       </defs>
       <use xlink:href="#DejaVuSans-30"/>
       <use xlink:href="#DejaVuSans-2e" x="63.623047"/>
       <use xlink:href="#DejaVuSans-33" x="95.410156"/>
      </g>
     </g>
    </g>
    <g id="ytick_11">
     <g id="line2d_63">
      <path d="M 63.164229 310.420151 
L 503.77536 310.420151 
" clip-path="url(#pd032400607)" style="fill: none; stroke: #ffffff; stroke-width: 0.8; stroke-linecap: round"/>
     </g>
     <g id="line2d_64"/>
     <g id="text_27">
      <!-- 0.4 -->
      <g style="fill: #262626" transform="translate(37.399854 315.739057) scale(0.14 -0.14)">
       <defs>
        <path id="DejaVuSans-34" d="M 2419 4116 
L 825 1625 
L 2419 1625 
L 2419 4116 
z
M 2253 4666 
L 3047 4666 
L 3047 1625 
L 3713 1625 
L 3713 1100 
L 3047 1100 
L 3047 0 
L 2419 0 
L 2419 1100 
L 313 1100 
L 313 1709 
L 2253 4666 
z
" transform="scale(0.015625)"/>
       </defs>
       <use xlink:href="#DejaVuSans-30"/>
       <use xlink:href="#DejaVuSans-2e" x="63.623047"/>
       <use xlink:href="#DejaVuSans-34" x="95.410156"/>
      </g>
     </g>
    </g>
   </g>
   <g id="line2d_65">
    <path d="M 384.711318 306.719505 
L 483.747581 306.719505 
L 483.747581 306.719505 
" clip-path="url(#pd032400607)" style="fill: none; stroke: #000000; stroke-width: 1.5; stroke-linecap: round"/>
   </g>
   <g id="line2d_66">
    <path d="M 63.164229 530.487671 
L 503.77536 530.487671 
" clip-path="url(#pd032400607)" style="fill: none; stroke: #000000; stroke-width: 1.5; stroke-linecap: round"/>
   </g>
   <g id="line2d_67">
    <path d="M 384.508342 541.67608 
L 384.508342 295.531097 
" clip-path="url(#pd032400607)" style="fill: none; stroke: #ff0000; stroke-width: 3; stroke-linecap: round"/>
   </g>
   <g id="patch_9">
    <path d="M 63.164229 541.67608 
L 63.164229 295.531097 
" style="fill: none"/>
   </g>
   <g id="patch_10">
    <path d="M 503.77536 541.67608 
L 503.77536 295.531097 
" style="fill: none"/>
   </g>
   <g id="patch_11">
    <path d="M 63.164229 541.67608 
L 503.77536 541.67608 
" style="fill: none"/>
   </g>
   <g id="patch_12">
    <path d="M 63.164229 295.531097 
L 503.77536 295.531097 
" style="fill: none"/>
   </g>
   <g id="text_28">
    <!-- Causal impact -->
    <g style="fill: #262626" transform="translate(226.544794 289.531097) scale(0.16 -0.16)">
     <defs>
      <path id="DejaVuSans-43" d="M 4122 4306 
L 4122 3641 
Q 3803 3938 3442 4084 
Q 3081 4231 2675 4231 
Q 1875 4231 1450 3742 
Q 1025 3253 1025 2328 
Q 1025 1406 1450 917 
Q 1875 428 2675 428 
Q 3081 428 3442 575 
Q 3803 722 4122 1019 
L 4122 359 
Q 3791 134 3420 21 
Q 3050 -91 2638 -91 
Q 1578 -91 968 557 
Q 359 1206 359 2328 
Q 359 3453 968 4101 
Q 1578 4750 2638 4750 
Q 3056 4750 3426 4639 
Q 3797 4528 4122 4306 
z
" transform="scale(0.015625)"/>
     </defs>
     <use xlink:href="#DejaVuSans-43"/>
     <use xlink:href="#DejaVuSans-61" x="69.824219"/>
     <use xlink:href="#DejaVuSans-75" x="131.103516"/>
     <use xlink:href="#DejaVuSans-73" x="194.482422"/>
     <use xlink:href="#DejaVuSans-61" x="246.582031"/>
     <use xlink:href="#DejaVuSans-6c" x="307.861328"/>
     <use xlink:href="#DejaVuSans-20" x="335.644531"/>
     <use xlink:href="#DejaVuSans-69" x="367.431641"/>
     <use xlink:href="#DejaVuSans-6d" x="395.214844"/>
     <use xlink:href="#DejaVuSans-70" x="492.626953"/>
     <use xlink:href="#DejaVuSans-61" x="556.103516"/>
     <use xlink:href="#DejaVuSans-63" x="617.382812"/>
     <use xlink:href="#DejaVuSans-74" x="672.363281"/>
    </g>
   </g>
   <g id="legend_2">
    <g id="line2d_68">
     <path d="M 73.964229 311.249222 
L 85.964229 311.249222 
L 97.964229 311.249222 
" style="fill: none; stroke: #000000; stroke-width: 1.5; stroke-linecap: round"/>
    </g>
    <g id="text_29">
     <!-- causal impact -->
     <g style="fill: #262626" transform="translate(107.564229 315.449222) scale(0.12 -0.12)">
      <use xlink:href="#DejaVuSans-63"/>
      <use xlink:href="#DejaVuSans-61" x="54.980469"/>
      <use xlink:href="#DejaVuSans-75" x="116.259766"/>
      <use xlink:href="#DejaVuSans-73" x="179.638672"/>
      <use xlink:href="#DejaVuSans-61" x="231.738281"/>
      <use xlink:href="#DejaVuSans-6c" x="293.017578"/>
      <use xlink:href="#DejaVuSans-20" x="320.800781"/>
      <use xlink:href="#DejaVuSans-69" x="352.587891"/>
      <use xlink:href="#DejaVuSans-6d" x="380.371094"/>
      <use xlink:href="#DejaVuSans-70" x="477.783203"/>
      <use xlink:href="#DejaVuSans-61" x="541.259766"/>
      <use xlink:href="#DejaVuSans-63" x="602.539062"/>
      <use xlink:href="#DejaVuSans-74" x="657.519531"/>
     </g>
    </g>
    <g id="line2d_69">
     <path d="M 73.964229 328.862972 
L 85.964229 328.862972 
L 97.964229 328.862972 
" style="fill: none; stroke: #ff0000; stroke-width: 3; stroke-linecap: round"/>
    </g>
    <g id="text_30">
     <!-- treatment threshold -->
     <g style="fill: #262626" transform="translate(107.564229 333.062972) scale(0.12 -0.12)">
      <use xlink:href="#DejaVuSans-74"/>
      <use xlink:href="#DejaVuSans-72" x="39.208984"/>
      <use xlink:href="#DejaVuSans-65" x="78.072266"/>
      <use xlink:href="#DejaVuSans-61" x="139.595703"/>
      <use xlink:href="#DejaVuSans-74" x="200.875"/>
      <use xlink:href="#DejaVuSans-6d" x="240.083984"/>
      <use xlink:href="#DejaVuSans-65" x="337.496094"/>
      <use xlink:href="#DejaVuSans-6e" x="399.019531"/>
      <use xlink:href="#DejaVuSans-74" x="462.398438"/>
      <use xlink:href="#DejaVuSans-20" x="501.607422"/>
      <use xlink:href="#DejaVuSans-74" x="533.394531"/>
      <use xlink:href="#DejaVuSans-68" x="572.603516"/>
      <use xlink:href="#DejaVuSans-72" x="635.982422"/>
      <use xlink:href="#DejaVuSans-65" x="674.845703"/>
      <use xlink:href="#DejaVuSans-73" x="736.369141"/>
      <use xlink:href="#DejaVuSans-68" x="788.46875"/>
      <use xlink:href="#DejaVuSans-6f" x="851.847656"/>
      <use xlink:href="#DejaVuSans-6c" x="913.029297"/>
      <use xlink:href="#DejaVuSans-64" x="940.8125"/>
     </g>
    </g>
   </g>
  </g>
 </g>
 <defs>
  <clipPath id="pb9da49e87d">
   <rect x="63.164229" y="25.314378" width="440.611131" height="246.144983"/>
  </clipPath>
  <clipPath id="pd032400607">
   <rect x="63.164229" y="295.531097" width="440.611131" height="246.144983"/>
  </clipPath>
 </defs>
</svg>
