<?xml version="1.0" encoding="utf-8" standalone="no"?>
<!DOCTYPE svg PUBLIC "-//W3C//DTD SVG 1.1//EN"
  "http://www.w3.org/Graphics/SVG/1.1/DTD/svg11.dtd">
<svg xmlns:xlink="http://www.w3.org/1999/xlink" width="526.746263pt" height="353.99952pt" viewBox="0 0 526.746263 353.99952" xmlns="http://www.w3.org/2000/svg" version="1.1">
 <metadata>
  <rdf:RDF xmlns:dc="http://purl.org/dc/elements/1.1/" xmlns:cc="http://creativecommons.org/ns#" xmlns:rdf="http://www.w3.org/1999/02/22-rdf-syntax-ns#">
   <cc:Work>
    <dc:type rdf:resource="http://purl.org/dc/dcmitype/StillImage"/>
    <dc:date>2022-11-03T09:57:28.618304</dc:date>
    <dc:format>image/svg+xml</dc:format>
    <dc:creator>
     <cc:Agent>
      <dc:title>Matplotlib v3.6.2, https://matplotlib.org/</dc:title>
     </cc:Agent>
    </dc:creator>
   </cc:Work>
  </rdf:RDF>
 </metadata>
 <defs>
  <style type="text/css">*{stroke-linejoin: round; stroke-linecap: butt}</style>
 </defs>
 <g id="figure_1">
  <g id="patch_1">
   <path d="M 0 353.99952 
L 526.746263 353.99952 
L 526.746263 0 
L 0 0 
z
" style="fill: #ffffff"/>
  </g>
  <g id="axes_1">
   <g id="patch_2">
    <path d="M 63.213125 311.232957 
L 518.544868 311.232957 
L 518.544868 43.274 
L 63.213125 43.274 
z
" style="fill: #eeeeee"/>
   </g>
   <g id="matplotlib.axis_1">
    <g id="xtick_1">
     <g id="line2d_1">
      <path d="M 69.291804 311.232957 
L 69.291804 43.274 
" clip-path="url(#pd6105edc44)" style="fill: none; stroke: #ffffff; stroke-width: 0.8; stroke-linecap: round"/>
     </g>
     <g id="line2d_2"/>
     <g id="text_1">
      <!-- −1.00 -->
      <g style="fill: #262626" transform="translate(47.840085 325.37077) scale(0.14 -0.14)">
       <defs>
        <path id="DejaVuSans-2212" d="M 678 2272 
L 4684 2272 
L 4684 1741 
L 678 1741 
L 678 2272 
z
" transform="scale(0.015625)"/>
        <path id="DejaVuSans-31" d="M 794 531 
L 1825 531 
L 1825 4091 
L 703 3866 
L 703 4441 
L 1819 4666 
L 2450 4666 
L 2450 531 
L 3481 531 
L 3481 0 
L 794 0 
L 794 531 
z
" transform="scale(0.015625)"/>
        <path id="DejaVuSans-2e" d="M 684 794 
L 1344 794 
L 1344 0 
L 684 0 
L 684 794 
z
" transform="scale(0.015625)"/>
        <path id="DejaVuSans-30" d="M 2034 4250 
Q 1547 4250 1301 3770 
Q 1056 3291 1056 2328 
Q 1056 1369 1301 889 
Q 1547 409 2034 409 
Q 2525 409 2770 889 
Q 3016 1369 3016 2328 
Q 3016 3291 2770 3770 
Q 2525 4250 2034 4250 
z
M 2034 4750 
Q 2819 4750 3233 4129 
Q 3647 3509 3647 2328 
Q 3647 1150 3233 529 
Q 2819 -91 2034 -91 
Q 1250 -91 836 529 
Q 422 1150 422 2328 
Q 422 3509 836 4129 
Q 1250 4750 2034 4750 
z
" transform="scale(0.015625)"/>
       </defs>
       <use xlink:href="#DejaVuSans-2212"/>
       <use xlink:href="#DejaVuSans-31" x="83.789062"/>
       <use xlink:href="#DejaVuSans-2e" x="147.412109"/>
       <use xlink:href="#DejaVuSans-30" x="179.199219"/>
       <use xlink:href="#DejaVuSans-30" x="242.822266"/>
      </g>
     </g>
    </g>
    <g id="xtick_2">
     <g id="line2d_3">
      <path d="M 123.625369 311.232957 
L 123.625369 43.274 
" clip-path="url(#pd6105edc44)" style="fill: none; stroke: #ffffff; stroke-width: 0.8; stroke-linecap: round"/>
     </g>
     <g id="line2d_4"/>
     <g id="text_2">
      <!-- −0.75 -->
      <g style="fill: #262626" transform="translate(102.173651 325.37077) scale(0.14 -0.14)">
       <defs>
        <path id="DejaVuSans-37" d="M 525 4666 
L 3525 4666 
L 3525 4397 
L 1831 0 
L 1172 0 
L 2766 4134 
L 525 4134 
L 525 4666 
z
" transform="scale(0.015625)"/>
        <path id="DejaVuSans-35" d="M 691 4666 
L 3169 4666 
L 3169 4134 
L 1269 4134 
L 1269 2991 
Q 1406 3038 1543 3061 
Q 1681 3084 1819 3084 
Q 2600 3084 3056 2656 
Q 3513 2228 3513 1497 
Q 3513 744 3044 326 
Q 2575 -91 1722 -91 
Q 1428 -91 1123 -41 
Q 819 9 494 109 
L 494 744 
Q 775 591 1075 516 
Q 1375 441 1709 441 
Q 2250 441 2565 725 
Q 2881 1009 2881 1497 
Q 2881 1984 2565 2268 
Q 2250 2553 1709 2553 
Q 1456 2553 1204 2497 
Q 953 2441 691 2322 
L 691 4666 
z
" transform="scale(0.015625)"/>
       </defs>
       <use xlink:href="#DejaVuSans-2212"/>
       <use xlink:href="#DejaVuSans-30" x="83.789062"/>
       <use xlink:href="#DejaVuSans-2e" x="147.412109"/>
       <use xlink:href="#DejaVuSans-37" x="179.199219"/>
       <use xlink:href="#DejaVuSans-35" x="242.822266"/>
      </g>
     </g>
    </g>
    <g id="xtick_3">
     <g id="line2d_5">
      <path d="M 177.958935 311.232957 
L 177.958935 43.274 
" clip-path="url(#pd6105edc44)" style="fill: none; stroke: #ffffff; stroke-width: 0.8; stroke-linecap: round"/>
     </g>
     <g id="line2d_6"/>
     <g id="text_3">
      <!-- −0.50 -->
      <g style="fill: #262626" transform="translate(156.507216 325.37077) scale(0.14 -0.14)">
       <use xlink:href="#DejaVuSans-2212"/>
       <use xlink:href="#DejaVuSans-30" x="83.789062"/>
       <use xlink:href="#DejaVuSans-2e" x="147.412109"/>
       <use xlink:href="#DejaVuSans-35" x="179.199219"/>
       <use xlink:href="#DejaVuSans-30" x="242.822266"/>
      </g>
     </g>
    </g>
    <g id="xtick_4">
     <g id="line2d_7">
      <path d="M 232.2925 311.232957 
L 232.2925 43.274 
" clip-path="url(#pd6105edc44)" style="fill: none; stroke: #ffffff; stroke-width: 0.8; stroke-linecap: round"/>
     </g>
     <g id="line2d_8"/>
     <g id="text_4">
      <!-- −0.25 -->
      <g style="fill: #262626" transform="translate(210.840781 325.37077) scale(0.14 -0.14)">
       <defs>
        <path id="DejaVuSans-32" d="M 1228 531 
L 3431 531 
L 3431 0 
L 469 0 
L 469 531 
Q 828 903 1448 1529 
Q 2069 2156 2228 2338 
Q 2531 2678 2651 2914 
Q 2772 3150 2772 3378 
Q 2772 3750 2511 3984 
Q 2250 4219 1831 4219 
Q 1534 4219 1204 4116 
Q 875 4013 500 3803 
L 500 4441 
Q 881 4594 1212 4672 
Q 1544 4750 1819 4750 
Q 2544 4750 2975 4387 
Q 3406 4025 3406 3419 
Q 3406 3131 3298 2873 
Q 3191 2616 2906 2266 
Q 2828 2175 2409 1742 
Q 1991 1309 1228 531 
z
" transform="scale(0.015625)"/>
       </defs>
       <use xlink:href="#DejaVuSans-2212"/>
       <use xlink:href="#DejaVuSans-30" x="83.789062"/>
       <use xlink:href="#DejaVuSans-2e" x="147.412109"/>
       <use xlink:href="#DejaVuSans-32" x="179.199219"/>
       <use xlink:href="#DejaVuSans-35" x="242.822266"/>
      </g>
     </g>
    </g>
    <g id="xtick_5">
     <g id="line2d_9">
      <path d="M 286.626065 311.232957 
L 286.626065 43.274 
" clip-path="url(#pd6105edc44)" style="fill: none; stroke: #ffffff; stroke-width: 0.8; stroke-linecap: round"/>
     </g>
     <g id="line2d_10"/>
     <g id="text_5">
      <!-- 0.00 -->
      <g style="fill: #262626" transform="translate(271.040128 325.37077) scale(0.14 -0.14)">
       <use xlink:href="#DejaVuSans-30"/>
       <use xlink:href="#DejaVuSans-2e" x="63.623047"/>
       <use xlink:href="#DejaVuSans-30" x="95.410156"/>
       <use xlink:href="#DejaVuSans-30" x="159.033203"/>
      </g>
     </g>
    </g>
    <g id="xtick_6">
     <g id="line2d_11">
      <path d="M 340.95963 311.232957 
L 340.95963 43.274 
" clip-path="url(#pd6105edc44)" style="fill: none; stroke: #ffffff; stroke-width: 0.8; stroke-linecap: round"/>
     </g>
     <g id="line2d_12"/>
     <g id="text_6">
      <!-- 0.25 -->
      <g style="fill: #262626" transform="translate(325.373693 325.37077) scale(0.14 -0.14)">
       <use xlink:href="#DejaVuSans-30"/>
       <use xlink:href="#DejaVuSans-2e" x="63.623047"/>
       <use xlink:href="#DejaVuSans-32" x="95.410156"/>
       <use xlink:href="#DejaVuSans-35" x="159.033203"/>
      </g>
     </g>
    </g>
    <g id="xtick_7">
     <g id="line2d_13">
      <path d="M 395.293195 311.232957 
L 395.293195 43.274 
" clip-path="url(#pd6105edc44)" style="fill: none; stroke: #ffffff; stroke-width: 0.8; stroke-linecap: round"/>
     </g>
     <g id="line2d_14"/>
     <g id="text_7">
      <!-- 0.50 -->
      <g style="fill: #262626" transform="translate(379.707258 325.37077) scale(0.14 -0.14)">
       <use xlink:href="#DejaVuSans-30"/>
       <use xlink:href="#DejaVuSans-2e" x="63.623047"/>
       <use xlink:href="#DejaVuSans-35" x="95.410156"/>
       <use xlink:href="#DejaVuSans-30" x="159.033203"/>
      </g>
     </g>
    </g>
    <g id="xtick_8">
     <g id="line2d_15">
      <path d="M 449.626761 311.232957 
L 449.626761 43.274 
" clip-path="url(#pd6105edc44)" style="fill: none; stroke: #ffffff; stroke-width: 0.8; stroke-linecap: round"/>
     </g>
     <g id="line2d_16"/>
     <g id="text_8">
      <!-- 0.75 -->
      <g style="fill: #262626" transform="translate(434.040823 325.37077) scale(0.14 -0.14)">
       <use xlink:href="#DejaVuSans-30"/>
       <use xlink:href="#DejaVuSans-2e" x="63.623047"/>
       <use xlink:href="#DejaVuSans-37" x="95.410156"/>
       <use xlink:href="#DejaVuSans-35" x="159.033203"/>
      </g>
     </g>
    </g>
    <g id="xtick_9">
     <g id="line2d_17">
      <path d="M 503.960326 311.232957 
L 503.960326 43.274 
" clip-path="url(#pd6105edc44)" style="fill: none; stroke: #ffffff; stroke-width: 0.8; stroke-linecap: round"/>
     </g>
     <g id="line2d_18"/>
     <g id="text_9">
      <!-- 1.00 -->
      <g style="fill: #262626" transform="translate(488.374388 325.37077) scale(0.14 -0.14)">
       <use xlink:href="#DejaVuSans-31"/>
       <use xlink:href="#DejaVuSans-2e" x="63.623047"/>
       <use xlink:href="#DejaVuSans-30" x="95.410156"/>
       <use xlink:href="#DejaVuSans-30" x="159.033203"/>
      </g>
     </g>
    </g>
    <g id="text_10">
     <!-- x -->
     <g style="fill: #262626" transform="translate(286.439934 343.679989) scale(0.15 -0.15)">
      <defs>
       <path id="DejaVuSans-78" d="M 3513 3500 
L 2247 1797 
L 3578 0 
L 2900 0 
L 1881 1375 
L 863 0 
L 184 0 
L 1544 1831 
L 300 3500 
L 978 3500 
L 1906 2253 
L 2834 3500 
L 3513 3500 
z
" transform="scale(0.015625)"/>
      </defs>
      <use xlink:href="#DejaVuSans-78"/>
     </g>
    </g>
   </g>
   <g id="matplotlib.axis_2">
    <g id="ytick_1">
     <g id="line2d_19">
      <path d="M 63.213125 282.563234 
L 518.544868 282.563234 
" clip-path="url(#pd6105edc44)" style="fill: none; stroke: #ffffff; stroke-width: 0.8; stroke-linecap: round"/>
     </g>
     <g id="line2d_20"/>
     <g id="text_11">
      <!-- −1.0 -->
      <g style="fill: #262626" transform="translate(25.717188 287.88214) scale(0.14 -0.14)">
       <use xlink:href="#DejaVuSans-2212"/>
       <use xlink:href="#DejaVuSans-31" x="83.789062"/>
       <use xlink:href="#DejaVuSans-2e" x="147.412109"/>
       <use xlink:href="#DejaVuSans-30" x="179.199219"/>
      </g>
     </g>
    </g>
    <g id="ytick_2">
     <g id="line2d_21">
      <path d="M 63.213125 240.29761 
L 518.544868 240.29761 
" clip-path="url(#pd6105edc44)" style="fill: none; stroke: #ffffff; stroke-width: 0.8; stroke-linecap: round"/>
     </g>
     <g id="line2d_22"/>
     <g id="text_12">
      <!-- −0.5 -->
      <g style="fill: #262626" transform="translate(25.717188 245.616517) scale(0.14 -0.14)">
       <use xlink:href="#DejaVuSans-2212"/>
       <use xlink:href="#DejaVuSans-30" x="83.789062"/>
       <use xlink:href="#DejaVuSans-2e" x="147.412109"/>
       <use xlink:href="#DejaVuSans-35" x="179.199219"/>
      </g>
     </g>
    </g>
    <g id="ytick_3">
     <g id="line2d_23">
      <path d="M 63.213125 198.031987 
L 518.544868 198.031987 
" clip-path="url(#pd6105edc44)" style="fill: none; stroke: #ffffff; stroke-width: 0.8; stroke-linecap: round"/>
     </g>
     <g id="line2d_24"/>
     <g id="text_13">
      <!-- 0.0 -->
      <g style="fill: #262626" transform="translate(37.44875 203.350893) scale(0.14 -0.14)">
       <use xlink:href="#DejaVuSans-30"/>
       <use xlink:href="#DejaVuSans-2e" x="63.623047"/>
       <use xlink:href="#DejaVuSans-30" x="95.410156"/>
      </g>
     </g>
    </g>
    <g id="ytick_4">
     <g id="line2d_25">
      <path d="M 63.213125 155.766363 
L 518.544868 155.766363 
" clip-path="url(#pd6105edc44)" style="fill: none; stroke: #ffffff; stroke-width: 0.8; stroke-linecap: round"/>
     </g>
     <g id="line2d_26"/>
     <g id="text_14">
      <!-- 0.5 -->
      <g style="fill: #262626" transform="translate(37.44875 161.085269) scale(0.14 -0.14)">
       <use xlink:href="#DejaVuSans-30"/>
       <use xlink:href="#DejaVuSans-2e" x="63.623047"/>
       <use xlink:href="#DejaVuSans-35" x="95.410156"/>
      </g>
     </g>
    </g>
    <g id="ytick_5">
     <g id="line2d_27">
      <path d="M 63.213125 113.50074 
L 518.544868 113.50074 
" clip-path="url(#pd6105edc44)" style="fill: none; stroke: #ffffff; stroke-width: 0.8; stroke-linecap: round"/>
     </g>
     <g id="line2d_28"/>
     <g id="text_15">
      <!-- 1.0 -->
      <g style="fill: #262626" transform="translate(37.44875 118.819646) scale(0.14 -0.14)">
       <use xlink:href="#DejaVuSans-31"/>
       <use xlink:href="#DejaVuSans-2e" x="63.623047"/>
       <use xlink:href="#DejaVuSans-30" x="95.410156"/>
      </g>
     </g>
    </g>
    <g id="ytick_6">
     <g id="line2d_29">
      <path d="M 63.213125 71.235116 
L 518.544868 71.235116 
" clip-path="url(#pd6105edc44)" style="fill: none; stroke: #ffffff; stroke-width: 0.8; stroke-linecap: round"/>
     </g>
     <g id="line2d_30"/>
     <g id="text_16">
      <!-- 1.5 -->
      <g style="fill: #262626" transform="translate(37.44875 76.554022) scale(0.14 -0.14)">
       <use xlink:href="#DejaVuSans-31"/>
       <use xlink:href="#DejaVuSans-2e" x="63.623047"/>
       <use xlink:href="#DejaVuSans-35" x="95.410156"/>
      </g>
     </g>
    </g>
    <g id="text_17">
     <!-- y -->
     <g style="fill: #262626" transform="translate(18.597656 181.692541) rotate(-90) scale(0.15 -0.15)">
      <defs>
       <path id="DejaVuSans-79" d="M 2059 -325 
Q 1816 -950 1584 -1140 
Q 1353 -1331 966 -1331 
L 506 -1331 
L 506 -850 
L 844 -850 
Q 1081 -850 1212 -737 
Q 1344 -625 1503 -206 
L 1606 56 
L 191 3500 
L 800 3500 
L 1894 763 
L 2988 3500 
L 3597 3500 
L 2059 -325 
z
" transform="scale(0.015625)"/>
      </defs>
      <use xlink:href="#DejaVuSans-79"/>
     </g>
    </g>
   </g>
   <g id="PathCollection_1">
    <defs>
     <path id="md7f3e47f2e" d="M 0 3 
C 0.795609 3 1.55874 2.683901 2.12132 2.12132 
C 2.683901 1.55874 3 0.795609 3 0 
C 3 -0.795609 2.683901 -1.55874 2.12132 -2.12132 
C 1.55874 -2.683901 0.795609 -3 0 -3 
C -0.795609 -3 -1.55874 -2.683901 -2.12132 -2.12132 
C -2.683901 -1.55874 -3 -0.795609 -3 0 
C -3 0.795609 -2.683901 1.55874 -2.12132 2.12132 
C -1.55874 2.683901 -0.795609 3 0 3 
z
" style="stroke: #ffffff; stroke-width: 0.48"/>
    </defs>
    <g clip-path="url(#pd6105edc44)">
     <use xlink:href="#md7f3e47f2e" x="83.910022" y="205.802029" style="stroke: #ffffff; stroke-width: 0.48"/>
     <use xlink:href="#md7f3e47f2e" x="84.336022" y="230.378997" style="stroke: #ffffff; stroke-width: 0.48"/>
     <use xlink:href="#md7f3e47f2e" x="84.69857" y="213.398589" style="stroke: #ffffff; stroke-width: 0.48"/>
     <use xlink:href="#md7f3e47f2e" x="89.412792" y="222.397692" style="stroke: #ffffff; stroke-width: 0.48"/>
     <use xlink:href="#md7f3e47f2e" x="94.835298" y="233.603625" style="stroke: #ffffff; stroke-width: 0.48"/>
     <use xlink:href="#md7f3e47f2e" x="94.920755" y="244.941895" style="stroke: #ffffff; stroke-width: 0.48"/>
     <use xlink:href="#md7f3e47f2e" x="105.526504" y="245.895475" style="stroke: #ffffff; stroke-width: 0.48"/>
     <use xlink:href="#md7f3e47f2e" x="107.174569" y="238.930148" style="stroke: #ffffff; stroke-width: 0.48"/>
     <use xlink:href="#md7f3e47f2e" x="112.222407" y="239.010717" style="stroke: #ffffff; stroke-width: 0.48"/>
     <use xlink:href="#md7f3e47f2e" x="114.768501" y="257.858792" style="stroke: #ffffff; stroke-width: 0.48"/>
     <use xlink:href="#md7f3e47f2e" x="117.423734" y="260.371356" style="stroke: #ffffff; stroke-width: 0.48"/>
     <use xlink:href="#md7f3e47f2e" x="125.295493" y="252.833897" style="stroke: #ffffff; stroke-width: 0.48"/>
     <use xlink:href="#md7f3e47f2e" x="141.833089" y="268.427758" style="stroke: #ffffff; stroke-width: 0.48"/>
     <use xlink:href="#md7f3e47f2e" x="141.9756" y="282.478453" style="stroke: #ffffff; stroke-width: 0.48"/>
     <use xlink:href="#md7f3e47f2e" x="145.162711" y="290.864331" style="stroke: #ffffff; stroke-width: 0.48"/>
     <use xlink:href="#md7f3e47f2e" x="145.509225" y="276.549888" style="stroke: #ffffff; stroke-width: 0.48"/>
     <use xlink:href="#md7f3e47f2e" x="147.059173" y="282.053541" style="stroke: #ffffff; stroke-width: 0.48"/>
     <use xlink:href="#md7f3e47f2e" x="147.299032" y="273.481873" style="stroke: #ffffff; stroke-width: 0.48"/>
     <use xlink:href="#md7f3e47f2e" x="149.509041" y="292.974348" style="stroke: #ffffff; stroke-width: 0.48"/>
     <use xlink:href="#md7f3e47f2e" x="159.417963" y="270.598283" style="stroke: #ffffff; stroke-width: 0.48"/>
     <use xlink:href="#md7f3e47f2e" x="163.564673" y="274.029226" style="stroke: #ffffff; stroke-width: 0.48"/>
     <use xlink:href="#md7f3e47f2e" x="168.797623" y="273.387552" style="stroke: #ffffff; stroke-width: 0.48"/>
     <use xlink:href="#md7f3e47f2e" x="170.455346" y="262.081117" style="stroke: #ffffff; stroke-width: 0.48"/>
     <use xlink:href="#md7f3e47f2e" x="172.701312" y="266.838664" style="stroke: #ffffff; stroke-width: 0.48"/>
     <use xlink:href="#md7f3e47f2e" x="188.833339" y="274.173351" style="stroke: #ffffff; stroke-width: 0.48"/>
     <use xlink:href="#md7f3e47f2e" x="194.379694" y="287.209069" style="stroke: #ffffff; stroke-width: 0.48"/>
     <use xlink:href="#md7f3e47f2e" x="195.102613" y="280.535116" style="stroke: #ffffff; stroke-width: 0.48"/>
     <use xlink:href="#md7f3e47f2e" x="203.349595" y="274.987907" style="stroke: #ffffff; stroke-width: 0.48"/>
     <use xlink:href="#md7f3e47f2e" x="205.405779" y="282.999767" style="stroke: #ffffff; stroke-width: 0.48"/>
     <use xlink:href="#md7f3e47f2e" x="208.282416" y="277.251879" style="stroke: #ffffff; stroke-width: 0.48"/>
     <use xlink:href="#md7f3e47f2e" x="208.871219" y="286.077777" style="stroke: #ffffff; stroke-width: 0.48"/>
     <use xlink:href="#md7f3e47f2e" x="210.295392" y="263.620257" style="stroke: #ffffff; stroke-width: 0.48"/>
     <use xlink:href="#md7f3e47f2e" x="211.069273" y="264.407984" style="stroke: #ffffff; stroke-width: 0.48"/>
     <use xlink:href="#md7f3e47f2e" x="211.748993" y="259.784328" style="stroke: #ffffff; stroke-width: 0.48"/>
     <use xlink:href="#md7f3e47f2e" x="216.562155" y="265.128121" style="stroke: #ffffff; stroke-width: 0.48"/>
     <use xlink:href="#md7f3e47f2e" x="230.422528" y="256.836589" style="stroke: #ffffff; stroke-width: 0.48"/>
     <use xlink:href="#md7f3e47f2e" x="235.037652" y="261.401103" style="stroke: #ffffff; stroke-width: 0.48"/>
     <use xlink:href="#md7f3e47f2e" x="239.493093" y="235.815752" style="stroke: #ffffff; stroke-width: 0.48"/>
     <use xlink:href="#md7f3e47f2e" x="243.175218" y="241.401523" style="stroke: #ffffff; stroke-width: 0.48"/>
     <use xlink:href="#md7f3e47f2e" x="245.068273" y="247.882414" style="stroke: #ffffff; stroke-width: 0.48"/>
     <use xlink:href="#md7f3e47f2e" x="249.100659" y="246.607351" style="stroke: #ffffff; stroke-width: 0.48"/>
     <use xlink:href="#md7f3e47f2e" x="258.305684" y="229.751658" style="stroke: #ffffff; stroke-width: 0.48"/>
     <use xlink:href="#md7f3e47f2e" x="262.182011" y="220.020515" style="stroke: #ffffff; stroke-width: 0.48"/>
     <use xlink:href="#md7f3e47f2e" x="266.093358" y="230.149453" style="stroke: #ffffff; stroke-width: 0.48"/>
     <use xlink:href="#md7f3e47f2e" x="266.798071" y="237.146595" style="stroke: #ffffff; stroke-width: 0.48"/>
     <use xlink:href="#md7f3e47f2e" x="269.087997" y="212.740418" style="stroke: #ffffff; stroke-width: 0.48"/>
     <use xlink:href="#md7f3e47f2e" x="281.112906" y="202.180557" style="stroke: #ffffff; stroke-width: 0.48"/>
     <use xlink:href="#md7f3e47f2e" x="284.936083" y="207.459787" style="stroke: #ffffff; stroke-width: 0.48"/>
     <use xlink:href="#md7f3e47f2e" x="286.235929" y="209.007787" style="stroke: #ffffff; stroke-width: 0.48"/>
     <use xlink:href="#md7f3e47f2e" x="289.454876" y="206.228167" style="stroke: #ffffff; stroke-width: 0.48"/>
     <use xlink:href="#md7f3e47f2e" x="289.523467" y="209.431202" style="stroke: #ffffff; stroke-width: 0.48"/>
     <use xlink:href="#md7f3e47f2e" x="299.076053" y="187.807438" style="stroke: #ffffff; stroke-width: 0.48"/>
     <use xlink:href="#md7f3e47f2e" x="301.144193" y="189.739851" style="stroke: #ffffff; stroke-width: 0.48"/>
     <use xlink:href="#md7f3e47f2e" x="304.354028" y="171.80842" style="stroke: #ffffff; stroke-width: 0.48"/>
     <use xlink:href="#md7f3e47f2e" x="310.233288" y="167.481518" style="stroke: #ffffff; stroke-width: 0.48"/>
     <use xlink:href="#md7f3e47f2e" x="310.81556" y="170.88346" style="stroke: #ffffff; stroke-width: 0.48"/>
     <use xlink:href="#md7f3e47f2e" x="316.333421" y="156.445822" style="stroke: #ffffff; stroke-width: 0.48"/>
     <use xlink:href="#md7f3e47f2e" x="326.15288" y="149.457163" style="stroke: #ffffff; stroke-width: 0.48"/>
     <use xlink:href="#md7f3e47f2e" x="329.473717" y="140.992202" style="stroke: #ffffff; stroke-width: 0.48"/>
     <use xlink:href="#md7f3e47f2e" x="345.717135" y="120.473102" style="stroke: #ffffff; stroke-width: 0.48"/>
     <use xlink:href="#md7f3e47f2e" x="345.912491" y="125.139361" style="stroke: #ffffff; stroke-width: 0.48"/>
     <use xlink:href="#md7f3e47f2e" x="348.40895" y="142.664641" style="stroke: #ffffff; stroke-width: 0.48"/>
     <use xlink:href="#md7f3e47f2e" x="350.254007" y="143.080875" style="stroke: #ffffff; stroke-width: 0.48"/>
     <use xlink:href="#md7f3e47f2e" x="350.642973" y="130.790249" style="stroke: #ffffff; stroke-width: 0.48"/>
     <use xlink:href="#md7f3e47f2e" x="361.213638" y="133.510602" style="stroke: #ffffff; stroke-width: 0.48"/>
     <use xlink:href="#md7f3e47f2e" x="363.251157" y="132.563914" style="stroke: #ffffff; stroke-width: 0.48"/>
     <use xlink:href="#md7f3e47f2e" x="365.881418" y="116.057092" style="stroke: #ffffff; stroke-width: 0.48"/>
     <use xlink:href="#md7f3e47f2e" x="366.74208" y="145.049534" style="stroke: #ffffff; stroke-width: 0.48"/>
     <use xlink:href="#md7f3e47f2e" x="370.659001" y="119.380143" style="stroke: #ffffff; stroke-width: 0.48"/>
     <use xlink:href="#md7f3e47f2e" x="377.968914" y="114.644844" style="stroke: #ffffff; stroke-width: 0.48"/>
     <use xlink:href="#md7f3e47f2e" x="382.373811" y="111.856321" style="stroke: #ffffff; stroke-width: 0.48"/>
     <use xlink:href="#md7f3e47f2e" x="384.627721" y="111.116184" style="stroke: #ffffff; stroke-width: 0.48"/>
     <use xlink:href="#md7f3e47f2e" x="384.895427" y="118.663075" style="stroke: #ffffff; stroke-width: 0.48"/>
     <use xlink:href="#md7f3e47f2e" x="385.076865" y="123.998012" style="stroke: #ffffff; stroke-width: 0.48"/>
     <use xlink:href="#md7f3e47f2e" x="392.383214" y="107.414164" style="stroke: #ffffff; stroke-width: 0.48"/>
     <use xlink:href="#md7f3e47f2e" x="408.505902" y="75.172156" style="stroke: #ffffff; stroke-width: 0.48"/>
     <use xlink:href="#md7f3e47f2e" x="414.78928" y="76.385272" style="stroke: #ffffff; stroke-width: 0.48"/>
     <use xlink:href="#md7f3e47f2e" x="418.379741" y="87.929355" style="stroke: #ffffff; stroke-width: 0.48"/>
     <use xlink:href="#md7f3e47f2e" x="423.312125" y="79.945236" style="stroke: #ffffff; stroke-width: 0.48"/>
     <use xlink:href="#md7f3e47f2e" x="424.220592" y="83.829589" style="stroke: #ffffff; stroke-width: 0.48"/>
     <use xlink:href="#md7f3e47f2e" x="427.130787" y="76.086969" style="stroke: #ffffff; stroke-width: 0.48"/>
     <use xlink:href="#md7f3e47f2e" x="428.394188" y="82.712927" style="stroke: #ffffff; stroke-width: 0.48"/>
     <use xlink:href="#md7f3e47f2e" x="431.732798" y="92.274178" style="stroke: #ffffff; stroke-width: 0.48"/>
     <use xlink:href="#md7f3e47f2e" x="432.894093" y="72.911727" style="stroke: #ffffff; stroke-width: 0.48"/>
     <use xlink:href="#md7f3e47f2e" x="433.879567" y="72.837863" style="stroke: #ffffff; stroke-width: 0.48"/>
     <use xlink:href="#md7f3e47f2e" x="438.591916" y="80.096893" style="stroke: #ffffff; stroke-width: 0.48"/>
     <use xlink:href="#md7f3e47f2e" x="441.61939" y="83.45888" style="stroke: #ffffff; stroke-width: 0.48"/>
     <use xlink:href="#md7f3e47f2e" x="445.959405" y="84.438677" style="stroke: #ffffff; stroke-width: 0.48"/>
     <use xlink:href="#md7f3e47f2e" x="454.085761" y="91.841708" style="stroke: #ffffff; stroke-width: 0.48"/>
     <use xlink:href="#md7f3e47f2e" x="454.160468" y="87.819133" style="stroke: #ffffff; stroke-width: 0.48"/>
     <use xlink:href="#md7f3e47f2e" x="464.439127" y="94.841462" style="stroke: #ffffff; stroke-width: 0.48"/>
     <use xlink:href="#md7f3e47f2e" x="464.787074" y="108.434741" style="stroke: #ffffff; stroke-width: 0.48"/>
     <use xlink:href="#md7f3e47f2e" x="477.548688" y="120.539746" style="stroke: #ffffff; stroke-width: 0.48"/>
     <use xlink:href="#md7f3e47f2e" x="480.628972" y="115.167626" style="stroke: #ffffff; stroke-width: 0.48"/>
     <use xlink:href="#md7f3e47f2e" x="480.649141" y="117.131478" style="stroke: #ffffff; stroke-width: 0.48"/>
     <use xlink:href="#md7f3e47f2e" x="483.017451" y="124.171672" style="stroke: #ffffff; stroke-width: 0.48"/>
     <use xlink:href="#md7f3e47f2e" x="489.376035" y="134.747362" style="stroke: #ffffff; stroke-width: 0.48"/>
     <use xlink:href="#md7f3e47f2e" x="493.102116" y="121.332504" style="stroke: #ffffff; stroke-width: 0.48"/>
     <use xlink:href="#md7f3e47f2e" x="496.132545" y="130.445967" style="stroke: #ffffff; stroke-width: 0.48"/>
     <use xlink:href="#md7f3e47f2e" x="497.847971" y="135.496588" style="stroke: #ffffff; stroke-width: 0.48"/>
    </g>
   </g>
   <g id="PolyCollection_1">
    <defs>
     <path id="m45b3bd02dd" d="M 83.910022 -155.329609 
L 83.910022 -117.398227 
L 85.990113 -114.453183 
L 88.070203 -111.617988 
L 90.150293 -109.84913 
L 92.230383 -107.341761 
L 94.310473 -104.458658 
L 96.390564 -103.079421 
L 98.470654 -99.461562 
L 100.550744 -98.575314 
L 102.630834 -94.988354 
L 104.710924 -92.930661 
L 106.791015 -90.680174 
L 108.871105 -88.683039 
L 110.951195 -86.809212 
L 113.031285 -85.054803 
L 115.111375 -83.051821 
L 117.191466 -80.587552 
L 119.271556 -78.877133 
L 121.351646 -76.45215 
L 123.431736 -75.436097 
L 125.511826 -74.142259 
L 127.591917 -72.469827 
L 129.672007 -70.629153 
L 131.752097 -69.765205 
L 133.832187 -67.864254 
L 135.912277 -66.421301 
L 137.992367 -65.826756 
L 140.072458 -64.137894 
L 142.152548 -63.524231 
L 144.232638 -61.899073 
L 146.312728 -60.793923 
L 148.392818 -60.455898 
L 150.472909 -59.755159 
L 152.552999 -58.583893 
L 154.633089 -58.425644 
L 156.713179 -57.653464 
L 158.793269 -57.049544 
L 160.87336 -56.722794 
L 162.95345 -56.290638 
L 165.03354 -56.419712 
L 167.11363 -55.218462 
L 169.19372 -55.886545 
L 171.273811 -55.552924 
L 173.353901 -54.998108 
L 175.433991 -56.323163 
L 177.514081 -55.413957 
L 179.594171 -54.946515 
L 181.674262 -56.189552 
L 183.754352 -55.778582 
L 185.834442 -56.19009 
L 187.914532 -56.635227 
L 189.994622 -57.499868 
L 192.074713 -57.384974 
L 194.154803 -58.516881 
L 196.234893 -59.802352 
L 198.314983 -60.415358 
L 200.395073 -60.728214 
L 202.475163 -61.844153 
L 204.555254 -62.635742 
L 206.635344 -63.698379 
L 208.715434 -64.760782 
L 210.795524 -66.225488 
L 212.875614 -66.990707 
L 214.955705 -67.948547 
L 217.035795 -69.981942 
L 219.115885 -71.359384 
L 221.195975 -72.470052 
L 223.276065 -74.067326 
L 225.356156 -75.745939 
L 227.436246 -77.649533 
L 229.516336 -78.787957 
L 231.596426 -80.332556 
L 233.676516 -82.072346 
L 235.756607 -84.931917 
L 237.836697 -86.162974 
L 239.916787 -86.97676 
L 241.996877 -90.305471 
L 244.076967 -91.474166 
L 246.157058 -93.456636 
L 248.237148 -95.464379 
L 250.317238 -97.250849 
L 252.397328 -99.574743 
L 254.477418 -102.362175 
L 256.557509 -103.849899 
L 258.637599 -105.822223 
L 260.717689 -107.918136 
L 262.797779 -110.003754 
L 264.877869 -112.721579 
L 266.957959 -114.181434 
L 269.03805 -116.902746 
L 271.11814 -118.191662 
L 273.19823 -121.519769 
L 275.27832 -123.316011 
L 277.35841 -125.785668 
L 279.438501 -128.185909 
L 281.518591 -129.833979 
L 283.598681 -132.742632 
L 285.678771 -134.95491 
L 287.758861 -137.740217 
L 289.838952 -139.593365 
L 291.919042 -141.567765 
L 293.999132 -144.209452 
L 296.079222 -146.015422 
L 298.159312 -148.829472 
L 300.239403 -151.46388 
L 302.319493 -153.578249 
L 304.399583 -155.3126 
L 306.479673 -158.00815 
L 308.559763 -160.727131 
L 310.639854 -162.880692 
L 312.719944 -164.72406 
L 314.800034 -166.681268 
L 316.880124 -168.88386 
L 318.960214 -171.791829 
L 321.040305 -173.810796 
L 323.120395 -175.204192 
L 325.200485 -177.651797 
L 327.280575 -180.465227 
L 329.360665 -182.393871 
L 331.440756 -183.905996 
L 333.520846 -186.626352 
L 335.600936 -189.071895 
L 337.681026 -190.523913 
L 339.761116 -192.40892 
L 341.841206 -193.531486 
L 343.921297 -195.318666 
L 346.001387 -198.018545 
L 348.081477 -199.220427 
L 350.161567 -201.789013 
L 352.241657 -202.788951 
L 354.321748 -205.3456 
L 356.401838 -206.349138 
L 358.481928 -207.878291 
L 360.562018 -208.991486 
L 362.642108 -210.389017 
L 364.722199 -212.355513 
L 366.802289 -213.212321 
L 368.882379 -214.370941 
L 370.962469 -216.670723 
L 373.042559 -217.279376 
L 375.12265 -218.742398 
L 377.20274 -219.498591 
L 379.28283 -220.150223 
L 381.36292 -220.380264 
L 383.44301 -221.330539 
L 385.523101 -223.085471 
L 387.603191 -222.825817 
L 389.683281 -223.784233 
L 391.763371 -223.518239 
L 393.843461 -224.355897 
L 395.923552 -257.19513 
L 398.003642 -257.536437 
L 400.083732 -258.978734 
L 402.163822 -259.198505 
L 404.243912 -259.371923 
L 406.324002 -259.323008 
L 408.404093 -259.322838 
L 410.484183 -259.693535 
L 412.564273 -259.600602 
L 414.644363 -259.082902 
L 416.724453 -258.789915 
L 418.804544 -258.804913 
L 420.884634 -259.118108 
L 422.964724 -257.902195 
L 425.044814 -257.13775 
L 427.124904 -257.140892 
L 429.204995 -255.829841 
L 431.285085 -255.186463 
L 433.365175 -254.498482 
L 435.445265 -253.602577 
L 437.525355 -252.40067 
L 439.605446 -252.273125 
L 441.685536 -250.538703 
L 443.765626 -249.193199 
L 445.845716 -247.821027 
L 447.925806 -246.530215 
L 450.005897 -245.486476 
L 452.085987 -243.70297 
L 454.166077 -242.575053 
L 456.246167 -240.768467 
L 458.326257 -238.923809 
L 460.406348 -237.019689 
L 462.486438 -235.826893 
L 464.566528 -233.675508 
L 466.646618 -232.851738 
L 468.726708 -230.880754 
L 470.806798 -228.223982 
L 472.886889 -226.728872 
L 474.966979 -225.080305 
L 477.047069 -223.058556 
L 479.127159 -219.949796 
L 481.207249 -218.729815 
L 483.28734 -216.100356 
L 485.36743 -214.128871 
L 487.44752 -211.98228 
L 489.52761 -209.425317 
L 491.6077 -207.223783 
L 493.687791 -205.226667 
L 495.767881 -201.661948 
L 497.847971 -199.152338 
L 497.847971 -238.085527 
L 497.847971 -238.085527 
L 495.767881 -240.394892 
L 493.687791 -242.971691 
L 491.6077 -244.581161 
L 489.52761 -245.90205 
L 487.44752 -249.143498 
L 485.36743 -250.802865 
L 483.28734 -252.710551 
L 481.207249 -254.760676 
L 479.127159 -256.596921 
L 477.047069 -258.835157 
L 474.966979 -260.90229 
L 472.886889 -262.737869 
L 470.806798 -264.580422 
L 468.726708 -266.17108 
L 466.646618 -268.885158 
L 464.566528 -269.916776 
L 462.486438 -271.932432 
L 460.406348 -273.253796 
L 458.326257 -274.673634 
L 456.246167 -276.773743 
L 454.166077 -277.73957 
L 452.085987 -279.810087 
L 450.005897 -280.562619 
L 447.925806 -282.716412 
L 445.845716 -283.069104 
L 443.765626 -285.135115 
L 441.685536 -285.657341 
L 439.605446 -286.925099 
L 437.525355 -287.105247 
L 435.445265 -288.449069 
L 433.365175 -290.064103 
L 431.285085 -290.621329 
L 429.204995 -291.463174 
L 427.124904 -292.728688 
L 425.044814 -293.522856 
L 422.964724 -293.034975 
L 420.884634 -293.929227 
L 418.804544 -294.785289 
L 416.724453 -296.116018 
L 414.644363 -296.009345 
L 412.564273 -296.880725 
L 410.484183 -296.913505 
L 408.404093 -297.516272 
L 406.324002 -297.174508 
L 404.243912 -298.446507 
L 402.163822 -298.545567 
L 400.083732 -297.285943 
L 398.003642 -298.29624 
L 395.923552 -298.524216 
L 393.843461 -260.95574 
L 391.763371 -259.759334 
L 389.683281 -259.604536 
L 387.603191 -259.748376 
L 385.523101 -257.944381 
L 383.44301 -257.471756 
L 381.36292 -256.457749 
L 379.28283 -256.196129 
L 377.20274 -253.971715 
L 375.12265 -252.670906 
L 373.042559 -252.249507 
L 370.962469 -251.261808 
L 368.882379 -249.595111 
L 366.802289 -248.890641 
L 364.722199 -247.931371 
L 362.642108 -245.583858 
L 360.562018 -244.491506 
L 358.481928 -243.405953 
L 356.401838 -240.993678 
L 354.321748 -240.182633 
L 352.241657 -238.618544 
L 350.161567 -237.518691 
L 348.081477 -234.678707 
L 346.001387 -232.6258 
L 343.921297 -231.080175 
L 341.841206 -228.941596 
L 339.761116 -227.555762 
L 337.681026 -225.91792 
L 335.600936 -223.15291 
L 333.520846 -221.874659 
L 331.440756 -219.888276 
L 329.360665 -217.797104 
L 327.280575 -214.925056 
L 325.200485 -213.39322 
L 323.120395 -211.246167 
L 321.040305 -209.20021 
L 318.960214 -205.981885 
L 316.880124 -204.15543 
L 314.800034 -202.970199 
L 312.719944 -199.558528 
L 310.639854 -197.861352 
L 308.559763 -195.122589 
L 306.479673 -193.26536 
L 304.399583 -191.211926 
L 302.319493 -189.199514 
L 300.239403 -185.503941 
L 298.159312 -184.906096 
L 296.079222 -182.542434 
L 293.999132 -179.159678 
L 291.919042 -176.719997 
L 289.838952 -174.598221 
L 287.758861 -172.547456 
L 285.678771 -170.587899 
L 283.598681 -167.768558 
L 281.518591 -166.052572 
L 279.438501 -163.118037 
L 277.35841 -161.050304 
L 275.27832 -158.437299 
L 273.19823 -156.824583 
L 271.11814 -153.908663 
L 269.03805 -152.37325 
L 266.957959 -148.689918 
L 264.877869 -147.478391 
L 262.797779 -144.903534 
L 260.717689 -143.238909 
L 258.637599 -140.683451 
L 256.557509 -139.197717 
L 254.477418 -137.28231 
L 252.397328 -134.341948 
L 250.317238 -132.027811 
L 248.237148 -131.122276 
L 246.157058 -128.405896 
L 244.076967 -126.673298 
L 241.996877 -124.751574 
L 239.916787 -122.599789 
L 237.836697 -121.260537 
L 235.756607 -118.619687 
L 233.676516 -117.312035 
L 231.596426 -116.463004 
L 229.516336 -114.040431 
L 227.436246 -112.714749 
L 225.356156 -111.489673 
L 223.276065 -109.699087 
L 221.195975 -108.073947 
L 219.115885 -106.9204 
L 217.035795 -105.630582 
L 214.955705 -103.595831 
L 212.875614 -102.915911 
L 210.795524 -101.426819 
L 208.715434 -100.68629 
L 206.635344 -99.85682 
L 204.555254 -98.272458 
L 202.475163 -97.693697 
L 200.395073 -95.917027 
L 198.314983 -95.807462 
L 196.234893 -93.948989 
L 194.154803 -93.407105 
L 192.074713 -92.967788 
L 189.994622 -92.995188 
L 187.914532 -91.794341 
L 185.834442 -91.631593 
L 183.754352 -91.203491 
L 181.674262 -91.046466 
L 179.594171 -90.67055 
L 177.514081 -89.996429 
L 175.433991 -90.462244 
L 173.353901 -90.372107 
L 171.273811 -90.884326 
L 169.19372 -91.083264 
L 167.11363 -90.561932 
L 165.03354 -90.614648 
L 162.95345 -91.794219 
L 160.87336 -92.147593 
L 158.793269 -92.548518 
L 156.713179 -93.518719 
L 154.633089 -93.446473 
L 152.552999 -94.644221 
L 150.472909 -94.907455 
L 148.392818 -95.522633 
L 146.312728 -97.265562 
L 144.232638 -97.877134 
L 142.152548 -98.491165 
L 140.072458 -99.686507 
L 137.992367 -101.411412 
L 135.912277 -102.325264 
L 133.832187 -103.489033 
L 131.752097 -105.017027 
L 129.672007 -107.044398 
L 127.591917 -107.771309 
L 125.511826 -108.74916 
L 123.431736 -111.410059 
L 121.351646 -112.862407 
L 119.271556 -115.201977 
L 117.191466 -116.443738 
L 115.111375 -118.865921 
L 113.031285 -119.713851 
L 110.951195 -122.39553 
L 108.871105 -124.021322 
L 106.791015 -126.70756 
L 104.710924 -129.474857 
L 102.630834 -130.149427 
L 100.550744 -132.521975 
L 98.470654 -135.501522 
L 96.390564 -137.951974 
L 94.310473 -140.763892 
L 92.230383 -143.207121 
L 90.150293 -146.203094 
L 88.070203 -148.966427 
L 85.990113 -151.901873 
L 83.910022 -155.329609 
z
" style="stroke: #fa7c17; stroke-opacity: 0.25"/>
    </defs>
    <g clip-path="url(#pd6105edc44)">
     <use xlink:href="#m45b3bd02dd" x="0" y="353.99952" style="fill: #fa7c17; fill-opacity: 0.25; stroke: #fa7c17; stroke-opacity: 0.25"/>
    </g>
   </g>
   <g id="PolyCollection_2">
    <defs>
     <path id="m8892ef6e79" d="M 83.910022 -143.018762 
L 83.910022 -129.873434 
L 85.990113 -127.01588 
L 88.070203 -124.267797 
L 90.150293 -121.824706 
L 92.230383 -118.928603 
L 94.310473 -116.97814 
L 96.390564 -114.274198 
L 98.470654 -111.690935 
L 100.550744 -109.562326 
L 102.630834 -106.891451 
L 104.710924 -104.82325 
L 106.791015 -102.360655 
L 108.871105 -100.313346 
L 110.951195 -98.285811 
L 113.031285 -96.424516 
L 115.111375 -94.415498 
L 117.191466 -92.613867 
L 119.271556 -90.593827 
L 121.351646 -88.906288 
L 123.431736 -87.413342 
L 125.511826 -85.74071 
L 127.591917 -84.212262 
L 129.672007 -82.303681 
L 131.752097 -81.32472 
L 133.832187 -79.653615 
L 135.912277 -78.306554 
L 137.992367 -77.500887 
L 140.072458 -76.053285 
L 142.152548 -75.477869 
L 144.232638 -74.174735 
L 146.312728 -73.055794 
L 148.392818 -72.240276 
L 150.472909 -70.989655 
L 152.552999 -70.800876 
L 154.633089 -69.987567 
L 156.713179 -69.403342 
L 158.793269 -68.403793 
L 160.87336 -67.78394 
L 162.95345 -68.046549 
L 165.03354 -67.559599 
L 167.11363 -67.546407 
L 169.19372 -67.247919 
L 171.273811 -67.115272 
L 173.353901 -66.927558 
L 175.433991 -67.101125 
L 177.514081 -67.070254 
L 179.594171 -67.412513 
L 181.674262 -67.469025 
L 183.754352 -67.525461 
L 185.834442 -68.082389 
L 187.914532 -68.639603 
L 189.994622 -69.334213 
L 192.074713 -69.192554 
L 194.154803 -70.069396 
L 196.234893 -70.932655 
L 198.314983 -71.851937 
L 200.395073 -72.35778 
L 202.475163 -73.369482 
L 204.555254 -74.48396 
L 206.635344 -75.148663 
L 208.715434 -76.708315 
L 210.795524 -77.618075 
L 212.875614 -78.729899 
L 214.955705 -80.052711 
L 217.035795 -81.729536 
L 219.115885 -82.751806 
L 221.195975 -84.012654 
L 223.276065 -85.793459 
L 225.356156 -87.316266 
L 227.436246 -88.637324 
L 229.516336 -90.380901 
L 231.596426 -92.151665 
L 233.676516 -93.644794 
L 235.756607 -95.918801 
L 237.836697 -97.25296 
L 239.916787 -99.05016 
L 241.996877 -101.368004 
L 244.076967 -103.272785 
L 246.157058 -105.341235 
L 248.237148 -107.047012 
L 250.317238 -109.028149 
L 252.397328 -111.067837 
L 254.477418 -113.156029 
L 256.557509 -115.104885 
L 258.637599 -117.203933 
L 260.717689 -119.498326 
L 262.797779 -121.634832 
L 264.877869 -123.885215 
L 266.957959 -126.05042 
L 269.03805 -128.261319 
L 271.11814 -130.741579 
L 273.19823 -132.759908 
L 275.27832 -135.126075 
L 277.35841 -137.47196 
L 279.438501 -139.623733 
L 281.518591 -141.822402 
L 283.598681 -144.217569 
L 285.678771 -146.66041 
L 287.758861 -148.918823 
L 289.838952 -151.147006 
L 291.919042 -153.566023 
L 293.999132 -155.95673 
L 296.079222 -158.26787 
L 298.159312 -160.209165 
L 300.239403 -162.988652 
L 302.319493 -164.841009 
L 304.399583 -167.319653 
L 306.479673 -169.981804 
L 308.559763 -171.902862 
L 310.639854 -174.266439 
L 312.719944 -176.538794 
L 314.800034 -178.763302 
L 316.880124 -180.918218 
L 318.960214 -183.070832 
L 321.040305 -185.379675 
L 323.120395 -187.490333 
L 325.200485 -189.841419 
L 327.280575 -191.915806 
L 329.360665 -194.205966 
L 331.440756 -196.061077 
L 333.520846 -198.246951 
L 335.600936 -200.304784 
L 337.681026 -202.034838 
L 339.761116 -204.121574 
L 341.841206 -205.874007 
L 343.921297 -207.715705 
L 346.001387 -209.433918 
L 348.081477 -211.384842 
L 350.161567 -213.058117 
L 352.241657 -214.649691 
L 354.321748 -216.394875 
L 356.401838 -218.204151 
L 358.481928 -219.668376 
L 360.562018 -220.965638 
L 362.642108 -222.384727 
L 364.722199 -223.781671 
L 366.802289 -225.171379 
L 368.882379 -226.545924 
L 370.962469 -227.874486 
L 373.042559 -228.466987 
L 375.12265 -229.949914 
L 377.20274 -230.754698 
L 379.28283 -231.74162 
L 381.36292 -232.78857 
L 383.44301 -233.589969 
L 385.523101 -234.587123 
L 387.603191 -234.854727 
L 389.683281 -235.250958 
L 391.763371 -236.161094 
L 393.843461 -236.337712 
L 395.923552 -270.771633 
L 398.003642 -271.221085 
L 400.083732 -271.881705 
L 402.163822 -271.780808 
L 404.243912 -271.820443 
L 406.324002 -272.020919 
L 408.404093 -271.950189 
L 410.484183 -272.022953 
L 412.564273 -271.694127 
L 414.644363 -271.606031 
L 416.724453 -271.224558 
L 418.804544 -270.447785 
L 420.884634 -270.368613 
L 422.964724 -269.866388 
L 425.044814 -269.296186 
L 427.124904 -268.60471 
L 429.204995 -267.505758 
L 431.285085 -267.041882 
L 433.365175 -266.228111 
L 435.445265 -265.22178 
L 437.525355 -264.032898 
L 439.605446 -263.258637 
L 441.685536 -261.992808 
L 443.765626 -260.844072 
L 445.845716 -259.567408 
L 447.925806 -258.204333 
L 450.005897 -256.677397 
L 452.085987 -255.3211 
L 454.166077 -254.228089 
L 456.246167 -252.346216 
L 458.326257 -250.933419 
L 460.406348 -249.407937 
L 462.486438 -247.449278 
L 464.566528 -245.762978 
L 466.646618 -244.414946 
L 468.726708 -242.356246 
L 470.806798 -240.258947 
L 472.886889 -238.517692 
L 474.966979 -236.832748 
L 477.047069 -234.734292 
L 479.127159 -232.430962 
L 481.207249 -230.233026 
L 483.28734 -228.532388 
L 485.36743 -226.156578 
L 487.44752 -223.631616 
L 489.52761 -222.324212 
L 491.6077 -219.74435 
L 493.687791 -217.372668 
L 495.767881 -214.682463 
L 497.847971 -212.517357 
L 497.847971 -225.497415 
L 497.847971 -225.497415 
L 495.767881 -227.715418 
L 493.687791 -230.024739 
L 491.6077 -232.068676 
L 489.52761 -234.465864 
L 487.44752 -236.687739 
L 485.36743 -238.59094 
L 483.28734 -240.922021 
L 481.207249 -242.496103 
L 479.127159 -244.888775 
L 477.047069 -247.16777 
L 474.966979 -249.08829 
L 472.886889 -250.689499 
L 470.806798 -252.642082 
L 468.726708 -254.457334 
L 466.646618 -256.523886 
L 464.566528 -258.221986 
L 462.486438 -259.909177 
L 460.406348 -261.551095 
L 458.326257 -263.023287 
L 456.246167 -264.60488 
L 454.166077 -266.26757 
L 452.085987 -267.471401 
L 450.005897 -268.67545 
L 447.925806 -270.439814 
L 445.845716 -271.613096 
L 443.765626 -272.769472 
L 441.685536 -273.798345 
L 439.605446 -275.447056 
L 437.525355 -276.202271 
L 435.445265 -277.144376 
L 433.365175 -278.052228 
L 431.285085 -279.178487 
L 429.204995 -279.989767 
L 427.124904 -280.833143 
L 425.044814 -281.317915 
L 422.964724 -281.990402 
L 420.884634 -282.744831 
L 418.804544 -283.059212 
L 416.724453 -283.597593 
L 414.644363 -284.200192 
L 412.564273 -284.557181 
L 410.484183 -284.664599 
L 408.404093 -284.777276 
L 406.324002 -285.023624 
L 404.243912 -285.132301 
L 402.163822 -285.398134 
L 400.083732 -284.80011 
L 398.003642 -284.727228 
L 395.923552 -284.611244 
L 393.843461 -249.173393 
L 391.763371 -248.374818 
L 389.683281 -247.627725 
L 387.603191 -247.306663 
L 385.523101 -246.751555 
L 383.44301 -245.758413 
L 381.36292 -244.623405 
L 379.28283 -244.031905 
L 377.20274 -242.760613 
L 375.12265 -241.720527 
L 373.042559 -240.827965 
L 370.962469 -239.885194 
L 368.882379 -238.486628 
L 366.802289 -237.235118 
L 364.722199 -236.088659 
L 362.642108 -234.091762 
L 360.562018 -232.949466 
L 358.481928 -231.077157 
L 356.401838 -230.018532 
L 354.321748 -227.966931 
L 352.241657 -226.974104 
L 350.161567 -225.247514 
L 348.081477 -223.184177 
L 346.001387 -221.525603 
L 343.921297 -219.631407 
L 341.841206 -217.562651 
L 339.761116 -215.857166 
L 337.681026 -214.057159 
L 335.600936 -211.878171 
L 333.520846 -209.897641 
L 331.440756 -207.522781 
L 329.360665 -206.204115 
L 327.280575 -203.613598 
L 325.200485 -201.631217 
L 323.120395 -199.883147 
L 321.040305 -197.495293 
L 318.960214 -195.022504 
L 316.880124 -192.982044 
L 314.800034 -190.669606 
L 312.719944 -188.507524 
L 310.639854 -186.214411 
L 308.559763 -184.172247 
L 306.479673 -181.989126 
L 304.399583 -179.039226 
L 302.319493 -177.027054 
L 300.239403 -174.834492 
L 298.159312 -172.47094 
L 296.079222 -170.221099 
L 293.999132 -167.704875 
L 291.919042 -165.763017 
L 289.838952 -163.282486 
L 287.758861 -161.002483 
L 285.678771 -158.53413 
L 283.598681 -156.268739 
L 281.518591 -153.641042 
L 279.438501 -151.569386 
L 277.35841 -149.197244 
L 275.27832 -147.031558 
L 273.19823 -144.765367 
L 271.11814 -142.628752 
L 269.03805 -140.128426 
L 266.957959 -137.899444 
L 264.877869 -135.769219 
L 262.797779 -133.608189 
L 260.717689 -131.341138 
L 258.637599 -129.236192 
L 256.557509 -127.304213 
L 254.477418 -125.301972 
L 252.397328 -122.921273 
L 250.317238 -120.741881 
L 248.237148 -118.937398 
L 246.157058 -116.890496 
L 244.076967 -115.398504 
L 241.996877 -113.023854 
L 239.916787 -111.248944 
L 237.836697 -109.40065 
L 235.756607 -107.738241 
L 233.676516 -105.435715 
L 231.596426 -104.309725 
L 229.516336 -102.617163 
L 227.436246 -101.320316 
L 225.356156 -99.318792 
L 223.276065 -97.732959 
L 221.195975 -96.140147 
L 219.115885 -94.866579 
L 217.035795 -93.563016 
L 214.955705 -92.266106 
L 212.875614 -90.771085 
L 210.795524 -90.16711 
L 208.715434 -88.76627 
L 206.635344 -87.571544 
L 204.555254 -86.303741 
L 202.475163 -85.508192 
L 200.395073 -84.331905 
L 198.314983 -83.8252 
L 196.234893 -82.950065 
L 194.154803 -82.176051 
L 192.074713 -81.408907 
L 189.994622 -81.001708 
L 187.914532 -80.700945 
L 185.834442 -79.968028 
L 183.754352 -79.542166 
L 181.674262 -79.260801 
L 179.594171 -78.993314 
L 177.514081 -78.786094 
L 175.433991 -79.05804 
L 173.353901 -78.7767 
L 171.273811 -79.20217 
L 169.19372 -79.081401 
L 167.11363 -79.264469 
L 165.03354 -79.406795 
L 162.95345 -79.949649 
L 160.87336 -80.646589 
L 158.793269 -81.109718 
L 156.713179 -81.311332 
L 154.633089 -81.963289 
L 152.552999 -82.67359 
L 150.472909 -83.461258 
L 148.392818 -84.091486 
L 146.312728 -85.329521 
L 144.232638 -86.006391 
L 142.152548 -87.215952 
L 140.072458 -87.722092 
L 137.992367 -89.323159 
L 135.912277 -90.406964 
L 133.832187 -91.730465 
L 131.752097 -93.454328 
L 129.672007 -94.609418 
L 127.591917 -96.463258 
L 125.511826 -97.722349 
L 123.431736 -99.416669 
L 121.351646 -100.910952 
L 119.271556 -102.455765 
L 117.191466 -104.42805 
L 115.111375 -106.424233 
L 113.031285 -108.496249 
L 110.951195 -110.178415 
L 108.871105 -112.663264 
L 106.791015 -114.586403 
L 104.710924 -116.880227 
L 102.630834 -118.769866 
L 100.550744 -121.459895 
L 98.470654 -123.81592 
L 96.390564 -126.381606 
L 94.310473 -129.05172 
L 92.230383 -131.376523 
L 90.150293 -134.187092 
L 88.070203 -136.491388 
L 85.990113 -139.824667 
L 83.910022 -143.018762 
z
" style="stroke: #fa7c17; stroke-opacity: 0.5"/>
    </defs>
    <g clip-path="url(#pd6105edc44)">
     <use xlink:href="#m8892ef6e79" x="0" y="353.99952" style="fill: #fa7c17; fill-opacity: 0.5; stroke: #fa7c17; stroke-opacity: 0.5"/>
    </g>
   </g>
   <g id="line2d_31">
    <path d="M 83.910022 236.601293 
L 88.070203 242.381532 
L 90.150293 244.15039 
L 92.230383 246.657759 
L 94.310473 249.540862 
L 96.390564 250.920099 
L 98.470654 254.537958 
L 100.550744 255.424206 
L 102.630834 259.011166 
L 104.710924 261.068859 
L 106.791015 263.319346 
L 110.951195 267.190308 
L 113.031285 268.944717 
L 115.111375 270.947699 
L 117.191466 273.411968 
L 119.271556 275.122387 
L 121.351646 277.54737 
L 123.431736 278.563423 
L 125.511826 279.857261 
L 127.591917 281.529693 
L 129.672007 283.370367 
L 131.752097 284.234315 
L 133.832187 286.135266 
L 135.912277 287.578219 
L 137.992367 288.172764 
L 140.072458 289.861626 
L 142.152548 290.475289 
L 144.232638 292.100447 
L 146.312728 293.205597 
L 148.392818 293.543622 
L 150.472909 294.244361 
L 152.552999 295.415627 
L 154.633089 295.573876 
L 156.713179 296.346056 
L 158.793269 296.949976 
L 162.95345 297.708882 
L 165.03354 297.579808 
L 167.11363 298.781058 
L 169.19372 298.112975 
L 171.273811 298.446596 
L 173.353901 299.001412 
L 175.433991 297.676357 
L 177.514081 298.585563 
L 179.594171 299.053005 
L 181.674262 297.809968 
L 183.754352 298.220938 
L 187.914532 297.364293 
L 189.994622 296.499652 
L 192.074713 296.614546 
L 194.154803 295.482639 
L 196.234893 294.197168 
L 198.314983 293.584162 
L 200.395073 293.271306 
L 202.475163 292.155367 
L 204.555254 291.363778 
L 208.715434 289.238738 
L 210.795524 287.774032 
L 212.875614 287.008813 
L 214.955705 286.050973 
L 217.035795 284.017578 
L 219.115885 282.640136 
L 221.195975 281.529468 
L 225.356156 278.253581 
L 227.436246 276.349987 
L 229.516336 275.211563 
L 231.596426 273.666964 
L 233.676516 271.927174 
L 235.756607 269.067603 
L 237.836697 267.836546 
L 239.916787 267.02276 
L 241.996877 263.694049 
L 244.076967 262.525354 
L 248.237148 258.535141 
L 250.317238 256.748671 
L 252.397328 254.424777 
L 254.477418 251.637345 
L 256.557509 250.149621 
L 260.717689 246.081384 
L 262.797779 243.995766 
L 264.877869 241.277941 
L 266.957959 239.818086 
L 269.03805 237.096774 
L 271.11814 235.807858 
L 273.19823 232.479751 
L 275.27832 230.683509 
L 279.438501 225.813611 
L 281.518591 224.165541 
L 283.598681 221.256888 
L 285.678771 219.04461 
L 287.758861 216.259303 
L 291.919042 212.431755 
L 293.999132 209.790068 
L 296.079222 207.984098 
L 300.239403 202.53564 
L 302.319493 200.421271 
L 304.399583 198.68692 
L 308.559763 193.272389 
L 310.639854 191.118828 
L 314.800034 187.318252 
L 316.880124 185.11566 
L 318.960214 182.207691 
L 321.040305 180.188724 
L 323.120395 178.795328 
L 325.200485 176.347723 
L 327.280575 173.534293 
L 329.360665 171.605649 
L 331.440756 170.093524 
L 333.520846 167.373168 
L 335.600936 164.927625 
L 337.681026 163.475607 
L 339.761116 161.5906 
L 341.841206 160.468034 
L 343.921297 158.680854 
L 346.001387 155.980975 
L 348.081477 154.779093 
L 350.161567 152.210507 
L 352.241657 151.210569 
L 354.321748 148.65392 
L 356.401838 147.650382 
L 358.481928 146.121229 
L 360.562018 145.008034 
L 362.642108 143.610503 
L 364.722199 141.644007 
L 366.802289 140.787199 
L 368.882379 139.628579 
L 370.962469 137.328797 
L 373.042559 136.720144 
L 375.12265 135.257122 
L 379.28283 133.849297 
L 381.36292 133.619256 
L 383.44301 132.668981 
L 385.523101 130.914049 
L 387.603191 131.173703 
L 389.683281 130.215287 
L 391.763371 130.481281 
L 393.843461 129.643623 
L 395.923552 96.80439 
L 398.003642 96.463083 
L 400.083732 95.020786 
L 404.243912 94.627597 
L 408.404093 94.676682 
L 410.484183 94.305985 
L 412.564273 94.398918 
L 414.644363 94.916618 
L 416.724453 95.209605 
L 418.804544 95.194607 
L 420.884634 94.881412 
L 422.964724 96.097325 
L 425.044814 96.86177 
L 427.124904 96.858628 
L 429.204995 98.169679 
L 433.365175 99.501038 
L 435.445265 100.396943 
L 437.525355 101.59885 
L 439.605446 101.726395 
L 441.685536 103.460817 
L 447.925806 107.469305 
L 450.005897 108.513044 
L 452.085987 110.29655 
L 454.166077 111.424467 
L 460.406348 116.979831 
L 462.486438 118.172627 
L 464.566528 120.324012 
L 466.646618 121.147782 
L 468.726708 123.118766 
L 470.806798 125.775538 
L 472.886889 127.270648 
L 474.966979 128.919215 
L 477.047069 130.940964 
L 479.127159 134.049724 
L 481.207249 135.269705 
L 483.28734 137.899164 
L 485.36743 139.870649 
L 487.44752 142.01724 
L 489.52761 144.574203 
L 491.6077 146.775737 
L 493.687791 148.772853 
L 495.767881 152.337572 
L 497.847971 154.847182 
L 497.847971 154.847182 
" clip-path="url(#pd6105edc44)" style="fill: none; stroke: #fa7c17; stroke-opacity: 0; stroke-width: 1.5; stroke-linecap: round"/>
   </g>
   <g id="line2d_32">
    <path d="M 83.910022 198.669911 
L 85.990113 202.097647 
L 92.230383 210.792399 
L 94.310473 213.235628 
L 96.390564 216.047546 
L 98.470654 218.497998 
L 100.550744 221.477545 
L 102.630834 223.850093 
L 104.710924 224.524663 
L 108.871105 229.978198 
L 110.951195 231.60399 
L 113.031285 234.285669 
L 115.111375 235.133599 
L 117.191466 237.555782 
L 119.271556 238.797543 
L 121.351646 241.137113 
L 123.431736 242.589461 
L 125.511826 245.25036 
L 127.591917 246.228211 
L 129.672007 246.955122 
L 131.752097 248.982493 
L 133.832187 250.510487 
L 135.912277 251.674256 
L 137.992367 252.588108 
L 140.072458 254.313013 
L 142.152548 255.508355 
L 146.312728 256.733958 
L 148.392818 258.476887 
L 150.472909 259.092065 
L 152.552999 259.355299 
L 154.633089 260.553047 
L 156.713179 260.480801 
L 158.793269 261.451002 
L 162.95345 262.205301 
L 165.03354 263.384872 
L 167.11363 263.437588 
L 169.19372 262.916256 
L 171.273811 263.115194 
L 173.353901 263.627413 
L 175.433991 263.537276 
L 177.514081 264.003091 
L 179.594171 263.32897 
L 181.674262 262.953054 
L 183.754352 262.796029 
L 185.834442 262.367927 
L 187.914532 262.205179 
L 189.994622 261.004332 
L 192.074713 261.031732 
L 196.234893 260.050531 
L 198.314983 258.192058 
L 200.395073 258.082493 
L 202.475163 256.305823 
L 204.555254 255.727062 
L 206.635344 254.1427 
L 210.795524 252.572701 
L 212.875614 251.083609 
L 214.955705 250.403689 
L 217.035795 248.368938 
L 219.115885 247.07912 
L 221.195975 245.925573 
L 223.276065 244.300433 
L 225.356156 242.509847 
L 229.516336 239.959089 
L 231.596426 237.536516 
L 233.676516 236.687485 
L 235.756607 235.379833 
L 237.836697 232.738983 
L 239.916787 231.399731 
L 241.996877 229.247946 
L 244.076967 227.326222 
L 246.157058 225.593624 
L 248.237148 222.877244 
L 250.317238 221.971709 
L 252.397328 219.657572 
L 254.477418 216.71721 
L 256.557509 214.801803 
L 258.637599 213.316069 
L 260.717689 210.760611 
L 262.797779 209.095986 
L 264.877869 206.521129 
L 266.957959 205.309602 
L 269.03805 201.62627 
L 271.11814 200.090857 
L 273.19823 197.174937 
L 275.27832 195.562221 
L 277.35841 192.949216 
L 279.438501 190.881483 
L 281.518591 187.946948 
L 283.598681 186.230962 
L 285.678771 183.411621 
L 289.838952 179.401299 
L 291.919042 177.279523 
L 293.999132 174.839842 
L 296.079222 171.457086 
L 298.159312 169.093424 
L 300.239403 168.495579 
L 302.319493 164.800006 
L 308.559763 158.876931 
L 310.639854 156.138168 
L 312.719944 154.440992 
L 314.800034 151.029321 
L 316.880124 149.84409 
L 318.960214 148.017635 
L 321.040305 144.79931 
L 325.200485 140.6063 
L 327.280575 139.074464 
L 329.360665 136.202416 
L 333.520846 132.124861 
L 335.600936 130.84661 
L 337.681026 128.0816 
L 339.761116 126.443758 
L 341.841206 125.057924 
L 343.921297 122.919345 
L 346.001387 121.37372 
L 348.081477 119.320813 
L 350.161567 116.480829 
L 352.241657 115.380976 
L 354.321748 113.816887 
L 356.401838 113.005842 
L 358.481928 110.593567 
L 362.642108 108.415662 
L 364.722199 106.068149 
L 366.802289 105.108879 
L 368.882379 104.404409 
L 370.962469 102.737712 
L 373.042559 101.750013 
L 375.12265 101.328614 
L 377.20274 100.027805 
L 379.28283 97.803391 
L 381.36292 97.541771 
L 383.44301 96.527764 
L 385.523101 96.055139 
L 387.603191 94.251144 
L 389.683281 94.394984 
L 391.763371 94.240186 
L 393.843461 93.04378 
L 395.923552 55.475304 
L 398.003642 55.70328 
L 400.083732 56.713577 
L 402.163822 55.453953 
L 404.243912 55.553013 
L 406.324002 56.825012 
L 408.404093 56.483248 
L 410.484183 57.086015 
L 412.564273 57.118795 
L 414.644363 57.990175 
L 416.724453 57.883502 
L 418.804544 59.214231 
L 422.964724 60.964545 
L 425.044814 60.476664 
L 427.124904 61.270832 
L 429.204995 62.536346 
L 431.285085 63.378191 
L 433.365175 63.935417 
L 435.445265 65.550451 
L 437.525355 66.894273 
L 439.605446 67.074421 
L 441.685536 68.342179 
L 443.765626 68.864405 
L 445.845716 70.930416 
L 447.925806 71.283108 
L 450.005897 73.436901 
L 452.085987 74.189433 
L 454.166077 76.25995 
L 456.246167 77.225777 
L 458.326257 79.325886 
L 462.486438 82.067088 
L 464.566528 84.082744 
L 466.646618 85.114362 
L 468.726708 87.82844 
L 470.806798 89.419098 
L 474.966979 93.09723 
L 477.047069 95.164363 
L 479.127159 97.402599 
L 481.207249 99.238844 
L 485.36743 103.196655 
L 487.44752 104.856022 
L 489.52761 108.09747 
L 491.6077 109.418359 
L 493.687791 111.027829 
L 495.767881 113.604628 
L 497.847971 115.913993 
L 497.847971 115.913993 
" clip-path="url(#pd6105edc44)" style="fill: none; stroke: #fa7c17; stroke-opacity: 0; stroke-width: 1.5; stroke-linecap: round"/>
   </g>
   <g id="line2d_33">
    <path d="M 83.910022 224.126086 
L 88.070203 229.731723 
L 90.150293 232.174814 
L 92.230383 235.070917 
L 94.310473 237.02138 
L 98.470654 242.308585 
L 100.550744 244.437194 
L 102.630834 247.108069 
L 104.710924 249.17627 
L 106.791015 251.638865 
L 110.951195 255.713709 
L 117.191466 261.385653 
L 119.271556 263.405693 
L 121.351646 265.093232 
L 123.431736 266.586178 
L 125.511826 268.25881 
L 127.591917 269.787258 
L 129.672007 271.695839 
L 131.752097 272.6748 
L 133.832187 274.345905 
L 135.912277 275.692966 
L 137.992367 276.498633 
L 140.072458 277.946235 
L 142.152548 278.521651 
L 144.232638 279.824785 
L 146.312728 280.943726 
L 148.392818 281.759244 
L 150.472909 283.009865 
L 152.552999 283.198644 
L 154.633089 284.011953 
L 156.713179 284.596178 
L 158.793269 285.595727 
L 160.87336 286.21558 
L 162.95345 285.952971 
L 165.03354 286.439921 
L 167.11363 286.453113 
L 169.19372 286.751601 
L 173.353901 287.071962 
L 175.433991 286.898395 
L 177.514081 286.929266 
L 179.594171 286.587007 
L 183.754352 286.474059 
L 187.914532 285.359917 
L 189.994622 284.665307 
L 192.074713 284.806966 
L 198.314983 282.147583 
L 200.395073 281.64174 
L 204.555254 279.51556 
L 206.635344 278.850857 
L 208.715434 277.291205 
L 210.795524 276.381445 
L 212.875614 275.269621 
L 214.955705 273.946809 
L 217.035795 272.269984 
L 219.115885 271.247714 
L 221.195975 269.986866 
L 223.276065 268.206061 
L 225.356156 266.683254 
L 227.436246 265.362196 
L 231.596426 261.847855 
L 233.676516 260.354726 
L 235.756607 258.080719 
L 237.836697 256.74656 
L 239.916787 254.94936 
L 241.996877 252.631516 
L 244.076967 250.726735 
L 246.157058 248.658285 
L 248.237148 246.952508 
L 252.397328 242.931683 
L 262.797779 232.364688 
L 283.598681 209.781951 
L 285.678771 207.33911 
L 291.919042 200.433497 
L 296.079222 195.73165 
L 298.159312 193.790355 
L 300.239403 191.010868 
L 302.319493 189.158511 
L 304.399583 186.679867 
L 306.479673 184.017716 
L 308.559763 182.096658 
L 312.719944 177.460726 
L 321.040305 168.619845 
L 323.120395 166.509187 
L 325.200485 164.158101 
L 327.280575 162.083714 
L 329.360665 159.793554 
L 331.440756 157.938443 
L 335.600936 153.694736 
L 337.681026 151.964682 
L 339.761116 149.877946 
L 346.001387 144.565602 
L 348.081477 142.614678 
L 358.481928 134.331144 
L 362.642108 131.614793 
L 370.962469 126.125034 
L 373.042559 125.532533 
L 375.12265 124.049606 
L 377.20274 123.244822 
L 381.36292 121.21095 
L 383.44301 120.409551 
L 385.523101 119.412397 
L 387.603191 119.144793 
L 389.683281 118.748562 
L 391.763371 117.838426 
L 393.843461 117.661808 
L 395.923552 83.227887 
L 398.003642 82.778435 
L 400.083732 82.117815 
L 402.163822 82.218712 
L 404.243912 82.179077 
L 406.324002 81.978601 
L 408.404093 82.049331 
L 410.484183 81.976567 
L 412.564273 82.305393 
L 414.644363 82.393489 
L 416.724453 82.774962 
L 418.804544 83.551735 
L 420.884634 83.630907 
L 425.044814 84.703334 
L 427.124904 85.39481 
L 429.204995 86.493762 
L 431.285085 86.957638 
L 433.365175 87.771409 
L 435.445265 88.77774 
L 437.525355 89.966622 
L 439.605446 90.740883 
L 447.925806 95.795187 
L 450.005897 97.322123 
L 452.085987 98.67842 
L 454.166077 99.771431 
L 456.246167 101.653304 
L 460.406348 104.591583 
L 462.486438 106.550242 
L 464.566528 108.236542 
L 466.646618 109.584574 
L 470.806798 113.740573 
L 474.966979 117.166772 
L 477.047069 119.265228 
L 481.207249 123.766494 
L 483.28734 125.467132 
L 487.44752 130.367904 
L 489.52761 131.675308 
L 491.6077 134.25517 
L 493.687791 136.626852 
L 495.767881 139.317057 
L 497.847971 141.482163 
L 497.847971 141.482163 
" clip-path="url(#pd6105edc44)" style="fill: none; stroke: #fa7c17; stroke-opacity: 0; stroke-width: 1.5; stroke-linecap: round"/>
   </g>
   <g id="line2d_34">
    <path d="M 83.910022 210.980758 
L 88.070203 217.508132 
L 90.150293 219.812428 
L 92.230383 222.622997 
L 94.310473 224.9478 
L 98.470654 230.1836 
L 100.550744 232.539625 
L 102.630834 235.229654 
L 104.710924 237.119293 
L 106.791015 239.413117 
L 108.871105 241.336256 
L 110.951195 243.821105 
L 113.031285 245.503271 
L 117.191466 249.57147 
L 119.271556 251.543755 
L 125.511826 256.277171 
L 127.591917 257.536262 
L 129.672007 259.390102 
L 131.752097 260.545192 
L 133.832187 262.269055 
L 135.912277 263.592556 
L 137.992367 264.676361 
L 140.072458 266.277428 
L 142.152548 266.783568 
L 144.232638 267.993129 
L 146.312728 268.669999 
L 148.392818 269.908034 
L 150.472909 270.538262 
L 154.633089 272.036231 
L 156.713179 272.688188 
L 158.793269 272.889802 
L 160.87336 273.352931 
L 162.95345 274.049871 
L 165.03354 274.592725 
L 169.19372 274.918119 
L 171.273811 274.79735 
L 173.353901 275.22282 
L 175.433991 274.94148 
L 177.514081 275.213426 
L 181.674262 274.738719 
L 183.754352 274.457354 
L 185.834442 274.031492 
L 187.914532 273.298575 
L 192.074713 272.590613 
L 198.314983 270.17432 
L 200.395073 269.667615 
L 202.475163 268.491328 
L 204.555254 267.695779 
L 210.795524 263.83241 
L 212.875614 263.228435 
L 214.955705 261.733414 
L 221.195975 257.859373 
L 225.356156 254.680728 
L 227.436246 252.679204 
L 229.516336 251.382357 
L 231.596426 249.689795 
L 233.676516 248.563805 
L 235.756607 246.261279 
L 237.836697 244.59887 
L 241.996877 240.975666 
L 244.076967 238.601016 
L 246.157058 237.109024 
L 248.237148 235.062122 
L 250.317238 233.257639 
L 252.397328 231.078247 
L 254.477418 228.697548 
L 260.717689 222.658382 
L 264.877869 218.230301 
L 269.03805 213.871094 
L 271.11814 211.370768 
L 277.35841 204.802276 
L 279.438501 202.430134 
L 281.518591 200.358478 
L 283.598681 197.730781 
L 285.678771 195.46539 
L 287.758861 192.997037 
L 289.838952 190.717034 
L 291.919042 188.236503 
L 293.999132 186.294645 
L 296.079222 183.778421 
L 302.319493 176.972466 
L 304.399583 174.960294 
L 306.479673 172.010394 
L 318.960214 158.977016 
L 323.120395 154.116373 
L 325.200485 152.368303 
L 327.280575 150.385922 
L 329.360665 147.795405 
L 331.440756 146.476739 
L 333.520846 144.101879 
L 335.600936 142.121349 
L 337.681026 139.942361 
L 341.841206 136.436869 
L 343.921297 134.368113 
L 346.001387 132.473917 
L 348.081477 130.815343 
L 350.161567 128.752006 
L 352.241657 127.025416 
L 354.321748 126.032589 
L 356.401838 123.980988 
L 358.481928 122.922363 
L 360.562018 121.050054 
L 362.642108 119.907758 
L 364.722199 117.910861 
L 368.882379 115.512892 
L 370.962469 114.114326 
L 377.20274 111.238907 
L 379.28283 109.967615 
L 381.36292 109.376115 
L 383.44301 108.241107 
L 385.523101 107.247965 
L 387.603191 106.692857 
L 389.683281 106.371795 
L 393.843461 104.826127 
L 395.923552 69.388276 
L 400.083732 69.19941 
L 402.163822 68.601386 
L 404.243912 68.867219 
L 406.324002 68.975896 
L 408.404093 69.222244 
L 412.564273 69.442339 
L 414.644363 69.799328 
L 418.804544 70.940308 
L 420.884634 71.254689 
L 425.044814 72.681605 
L 427.124904 73.166377 
L 431.285085 74.821033 
L 433.365175 75.947292 
L 439.605446 78.552464 
L 441.685536 80.201175 
L 443.765626 81.230048 
L 447.925806 83.559706 
L 450.005897 85.32407 
L 454.166077 87.73195 
L 458.326257 90.976233 
L 460.406348 92.448425 
L 466.646618 97.475634 
L 468.726708 99.542186 
L 477.047069 106.83175 
L 481.207249 111.503417 
L 483.28734 113.077499 
L 485.36743 115.40858 
L 487.44752 117.311781 
L 489.52761 119.533656 
L 491.6077 121.930844 
L 493.687791 123.974781 
L 497.847971 128.502105 
L 497.847971 128.502105 
" clip-path="url(#pd6105edc44)" style="fill: none; stroke: #fa7c17; stroke-opacity: 0; stroke-width: 1.5; stroke-linecap: round"/>
   </g>
   <g id="line2d_35">
    <path d="M 83.910022 217.431323 
L 88.070203 223.310353 
L 98.470654 236.24398 
L 100.550744 238.782418 
L 102.630834 241.114085 
L 104.710924 243.070751 
L 106.791015 245.461105 
L 110.951195 249.739576 
L 113.031285 251.705951 
L 117.191466 255.373867 
L 119.271556 257.405594 
L 121.351646 259.063993 
L 125.511826 262.132563 
L 127.591917 263.956142 
L 129.672007 265.629711 
L 131.752097 266.653873 
L 135.912277 269.678345 
L 137.992367 270.648465 
L 140.072458 271.953245 
L 142.152548 272.754321 
L 144.232638 273.945711 
L 146.312728 274.522626 
L 148.392818 275.908875 
L 150.472909 276.859959 
L 154.633089 277.715527 
L 156.713179 278.574705 
L 160.87336 279.820157 
L 162.95345 279.88993 
L 167.11363 280.738031 
L 171.273811 280.784784 
L 177.514081 281.011154 
L 179.594171 280.419515 
L 181.674262 280.543474 
L 183.754352 280.510616 
L 187.914532 279.251809 
L 189.994622 278.741696 
L 192.074713 278.656591 
L 196.234893 276.975097 
L 198.314983 276.0427 
L 200.395073 275.549995 
L 204.555254 273.37838 
L 206.635344 272.55036 
L 210.795524 270.179218 
L 212.875614 269.32097 
L 214.955705 267.985217 
L 217.035795 266.341952 
L 219.115885 265.3525 
L 221.195975 263.931152 
L 223.276065 262.228186 
L 225.356156 260.732246 
L 227.436246 258.966921 
L 229.516336 257.642074 
L 231.596426 255.567261 
L 233.676516 254.3874 
L 235.756607 252.071284 
L 237.836697 250.718037 
L 239.916787 248.771162 
L 244.076967 244.526213 
L 246.157058 242.899228 
L 250.317238 239.245414 
L 252.397328 237.140349 
L 254.477418 234.828114 
L 260.717689 228.452495 
L 262.797779 226.527997 
L 264.877869 224.160158 
L 269.03805 219.830225 
L 271.11814 217.301064 
L 273.19823 215.308938 
L 275.27832 212.876295 
L 279.438501 208.440956 
L 283.598681 203.712116 
L 285.678771 201.450177 
L 289.838952 196.663512 
L 293.999132 192.425321 
L 296.079222 189.486241 
L 298.159312 187.744292 
L 300.239403 185.259032 
L 304.399583 180.829878 
L 306.479673 178.155315 
L 316.880124 166.955552 
L 318.960214 164.980292 
L 321.040305 162.576853 
L 329.360665 153.982618 
L 331.440756 152.377259 
L 333.520846 149.719314 
L 335.600936 147.960486 
L 337.681026 145.984459 
L 339.761116 144.226686 
L 341.841206 142.099085 
L 343.921297 140.334633 
L 346.001387 138.809297 
L 348.081477 136.608597 
L 352.241657 133.139778 
L 354.321748 131.923671 
L 356.401838 130.057117 
L 364.722199 124.115599 
L 368.882379 121.584152 
L 370.962469 120.156771 
L 373.042559 119.442151 
L 375.12265 118.225159 
L 377.20274 117.293492 
L 379.28283 116.203864 
L 381.36292 115.445609 
L 383.44301 114.2257 
L 385.523101 113.331202 
L 389.683281 112.493469 
L 391.763371 111.657229 
L 393.843461 111.264758 
L 395.923552 76.170005 
L 398.003642 75.967196 
L 402.163822 75.268203 
L 404.243912 75.742007 
L 406.324002 75.360235 
L 408.404093 75.461376 
L 410.484183 75.768928 
L 412.564273 75.757404 
L 414.644363 75.972257 
L 420.884634 77.651677 
L 422.964724 77.887283 
L 425.044814 78.874315 
L 433.365175 81.653681 
L 435.445265 82.891679 
L 437.525355 83.931748 
L 439.605446 84.824904 
L 452.085987 92.339325 
L 458.326257 97.056624 
L 464.566528 102.063866 
L 466.646618 103.398267 
L 468.726708 105.841429 
L 474.966979 111.196906 
L 477.047069 113.093403 
L 479.127159 115.518939 
L 481.207249 117.508652 
L 483.28734 119.099828 
L 485.36743 121.458522 
L 491.6077 127.940249 
L 495.767881 132.776864 
L 497.847971 135.057602 
L 497.847971 135.057602 
" clip-path="url(#pd6105edc44)" style="fill: none; stroke: #000000; stroke-width: 1.5; stroke-linecap: round"/>
   </g>
   <g id="line2d_36">
    <path d="M 395.293195 311.232957 
L 395.293195 43.274 
" clip-path="url(#pd6105edc44)" style="fill: none; stroke: #ff0000; stroke-width: 3; stroke-linecap: round"/>
   </g>
   <g id="patch_3">
    <path d="M 63.213125 311.232957 
L 63.213125 43.274 
" style="fill: none"/>
   </g>
   <g id="patch_4">
    <path d="M 518.544868 311.232957 
L 518.544868 43.274 
" style="fill: none"/>
   </g>
   <g id="patch_5">
    <path d="M 63.213125 311.232957 
L 518.544868 311.232957 
" style="fill: none"/>
   </g>
   <g id="patch_6">
    <path d="M 63.213125 43.274 
L 518.544868 43.274 
" style="fill: none"/>
   </g>
   <g id="text_18">
    <!-- $R^2$ on all data = 0.987 -->
    <g style="fill: #262626" transform="translate(201.278997 19.3575) scale(0.16 -0.16)">
     <defs>
      <path id="DejaVuSans-Oblique-52" d="M 1613 4147 
L 1294 2491 
L 2106 2491 
Q 2584 2491 2879 2755 
Q 3175 3019 3175 3444 
Q 3175 3784 2976 3965 
Q 2778 4147 2406 4147 
L 1613 4147 
z
M 2772 2241 
Q 2972 2194 3105 2009 
Q 3238 1825 3413 1275 
L 3809 0 
L 3144 0 
L 2778 1197 
Q 2638 1659 2453 1815 
Q 2269 1972 1888 1972 
L 1191 1972 
L 806 0 
L 172 0 
L 1081 4666 
L 2503 4666 
Q 3150 4666 3495 4373 
Q 3841 4081 3841 3531 
Q 3841 3044 3547 2687 
Q 3253 2331 2772 2241 
z
" transform="scale(0.015625)"/>
      <path id="DejaVuSans-20" transform="scale(0.015625)"/>
      <path id="DejaVuSans-6f" d="M 1959 3097 
Q 1497 3097 1228 2736 
Q 959 2375 959 1747 
Q 959 1119 1226 758 
Q 1494 397 1959 397 
Q 2419 397 2687 759 
Q 2956 1122 2956 1747 
Q 2956 2369 2687 2733 
Q 2419 3097 1959 3097 
z
M 1959 3584 
Q 2709 3584 3137 3096 
Q 3566 2609 3566 1747 
Q 3566 888 3137 398 
Q 2709 -91 1959 -91 
Q 1206 -91 779 398 
Q 353 888 353 1747 
Q 353 2609 779 3096 
Q 1206 3584 1959 3584 
z
" transform="scale(0.015625)"/>
      <path id="DejaVuSans-6e" d="M 3513 2113 
L 3513 0 
L 2938 0 
L 2938 2094 
Q 2938 2591 2744 2837 
Q 2550 3084 2163 3084 
Q 1697 3084 1428 2787 
Q 1159 2491 1159 1978 
L 1159 0 
L 581 0 
L 581 3500 
L 1159 3500 
L 1159 2956 
Q 1366 3272 1645 3428 
Q 1925 3584 2291 3584 
Q 2894 3584 3203 3211 
Q 3513 2838 3513 2113 
z
" transform="scale(0.015625)"/>
      <path id="DejaVuSans-61" d="M 2194 1759 
Q 1497 1759 1228 1600 
Q 959 1441 959 1056 
Q 959 750 1161 570 
Q 1363 391 1709 391 
Q 2188 391 2477 730 
Q 2766 1069 2766 1631 
L 2766 1759 
L 2194 1759 
z
M 3341 1997 
L 3341 0 
L 2766 0 
L 2766 531 
Q 2569 213 2275 61 
Q 1981 -91 1556 -91 
Q 1019 -91 701 211 
Q 384 513 384 1019 
Q 384 1609 779 1909 
Q 1175 2209 1959 2209 
L 2766 2209 
L 2766 2266 
Q 2766 2663 2505 2880 
Q 2244 3097 1772 3097 
Q 1472 3097 1187 3025 
Q 903 2953 641 2809 
L 641 3341 
Q 956 3463 1253 3523 
Q 1550 3584 1831 3584 
Q 2591 3584 2966 3190 
Q 3341 2797 3341 1997 
z
" transform="scale(0.015625)"/>
      <path id="DejaVuSans-6c" d="M 603 4863 
L 1178 4863 
L 1178 0 
L 603 0 
L 603 4863 
z
" transform="scale(0.015625)"/>
      <path id="DejaVuSans-64" d="M 2906 2969 
L 2906 4863 
L 3481 4863 
L 3481 0 
L 2906 0 
L 2906 525 
Q 2725 213 2448 61 
Q 2172 -91 1784 -91 
Q 1150 -91 751 415 
Q 353 922 353 1747 
Q 353 2572 751 3078 
Q 1150 3584 1784 3584 
Q 2172 3584 2448 3432 
Q 2725 3281 2906 2969 
z
M 947 1747 
Q 947 1113 1208 752 
Q 1469 391 1925 391 
Q 2381 391 2643 752 
Q 2906 1113 2906 1747 
Q 2906 2381 2643 2742 
Q 2381 3103 1925 3103 
Q 1469 3103 1208 2742 
Q 947 2381 947 1747 
z
" transform="scale(0.015625)"/>
      <path id="DejaVuSans-74" d="M 1172 4494 
L 1172 3500 
L 2356 3500 
L 2356 3053 
L 1172 3053 
L 1172 1153 
Q 1172 725 1289 603 
Q 1406 481 1766 481 
L 2356 481 
L 2356 0 
L 1766 0 
Q 1100 0 847 248 
Q 594 497 594 1153 
L 594 3053 
L 172 3053 
L 172 3500 
L 594 3500 
L 594 4494 
L 1172 4494 
z
" transform="scale(0.015625)"/>
      <path id="DejaVuSans-3d" d="M 678 2906 
L 4684 2906 
L 4684 2381 
L 678 2381 
L 678 2906 
z
M 678 1631 
L 4684 1631 
L 4684 1100 
L 678 1100 
L 678 1631 
z
" transform="scale(0.015625)"/>
      <path id="DejaVuSans-39" d="M 703 97 
L 703 672 
Q 941 559 1184 500 
Q 1428 441 1663 441 
Q 2288 441 2617 861 
Q 2947 1281 2994 2138 
Q 2813 1869 2534 1725 
Q 2256 1581 1919 1581 
Q 1219 1581 811 2004 
Q 403 2428 403 3163 
Q 403 3881 828 4315 
Q 1253 4750 1959 4750 
Q 2769 4750 3195 4129 
Q 3622 3509 3622 2328 
Q 3622 1225 3098 567 
Q 2575 -91 1691 -91 
Q 1453 -91 1209 -44 
Q 966 3 703 97 
z
M 1959 2075 
Q 2384 2075 2632 2365 
Q 2881 2656 2881 3163 
Q 2881 3666 2632 3958 
Q 2384 4250 1959 4250 
Q 1534 4250 1286 3958 
Q 1038 3666 1038 3163 
Q 1038 2656 1286 2365 
Q 1534 2075 1959 2075 
z
" transform="scale(0.015625)"/>
      <path id="DejaVuSans-38" d="M 2034 2216 
Q 1584 2216 1326 1975 
Q 1069 1734 1069 1313 
Q 1069 891 1326 650 
Q 1584 409 2034 409 
Q 2484 409 2743 651 
Q 3003 894 3003 1313 
Q 3003 1734 2745 1975 
Q 2488 2216 2034 2216 
z
M 1403 2484 
Q 997 2584 770 2862 
Q 544 3141 544 3541 
Q 544 4100 942 4425 
Q 1341 4750 2034 4750 
Q 2731 4750 3128 4425 
Q 3525 4100 3525 3541 
Q 3525 3141 3298 2862 
Q 3072 2584 2669 2484 
Q 3125 2378 3379 2068 
Q 3634 1759 3634 1313 
Q 3634 634 3220 271 
Q 2806 -91 2034 -91 
Q 1263 -91 848 271 
Q 434 634 434 1313 
Q 434 1759 690 2068 
Q 947 2378 1403 2484 
z
M 1172 3481 
Q 1172 3119 1398 2916 
Q 1625 2713 2034 2713 
Q 2441 2713 2670 2916 
Q 2900 3119 2900 3481 
Q 2900 3844 2670 4047 
Q 2441 4250 2034 4250 
Q 1625 4250 1398 4047 
Q 1172 3844 1172 3481 
z
" transform="scale(0.015625)"/>
     </defs>
     <use xlink:href="#DejaVuSans-Oblique-52" transform="translate(0 0.765625)"/>
     <use xlink:href="#DejaVuSans-32" transform="translate(76.499193 39.046875) scale(0.7)"/>
     <use xlink:href="#DejaVuSans-20" transform="translate(123.769701 0.765625)"/>
     <use xlink:href="#DejaVuSans-6f" transform="translate(155.55681 0.765625)"/>
     <use xlink:href="#DejaVuSans-6e" transform="translate(216.738451 0.765625)"/>
     <use xlink:href="#DejaVuSans-20" transform="translate(280.117357 0.765625)"/>
     <use xlink:href="#DejaVuSans-61" transform="translate(311.904466 0.765625)"/>
     <use xlink:href="#DejaVuSans-6c" transform="translate(373.183763 0.765625)"/>
     <use xlink:href="#DejaVuSans-6c" transform="translate(400.966966 0.765625)"/>
     <use xlink:href="#DejaVuSans-20" transform="translate(428.750169 0.765625)"/>
     <use xlink:href="#DejaVuSans-64" transform="translate(460.537279 0.765625)"/>
     <use xlink:href="#DejaVuSans-61" transform="translate(524.013841 0.765625)"/>
     <use xlink:href="#DejaVuSans-74" transform="translate(585.293138 0.765625)"/>
     <use xlink:href="#DejaVuSans-61" transform="translate(624.502122 0.765625)"/>
     <use xlink:href="#DejaVuSans-20" transform="translate(685.781419 0.765625)"/>
     <use xlink:href="#DejaVuSans-3d" transform="translate(717.568529 0.765625)"/>
     <use xlink:href="#DejaVuSans-20" transform="translate(801.357591 0.765625)"/>
     <use xlink:href="#DejaVuSans-30" transform="translate(833.144701 0.765625)"/>
     <use xlink:href="#DejaVuSans-2e" transform="translate(896.767747 0.765625)"/>
     <use xlink:href="#DejaVuSans-39" transform="translate(928.554857 0.765625)"/>
     <use xlink:href="#DejaVuSans-38" transform="translate(992.177904 0.765625)"/>
     <use xlink:href="#DejaVuSans-37" transform="translate(1055.800951 0.765625)"/>
    </g>
    <!-- Discontinuity at threshold = 0.41 -->
    <g style="fill: #262626" transform="translate(157.976497 37.274) scale(0.16 -0.16)">
     <defs>
      <path id="DejaVuSans-44" d="M 1259 4147 
L 1259 519 
L 2022 519 
Q 2988 519 3436 956 
Q 3884 1394 3884 2338 
Q 3884 3275 3436 3711 
Q 2988 4147 2022 4147 
L 1259 4147 
z
M 628 4666 
L 1925 4666 
Q 3281 4666 3915 4102 
Q 4550 3538 4550 2338 
Q 4550 1131 3912 565 
Q 3275 0 1925 0 
L 628 0 
L 628 4666 
z
" transform="scale(0.015625)"/>
      <path id="DejaVuSans-69" d="M 603 3500 
L 1178 3500 
L 1178 0 
L 603 0 
L 603 3500 
z
M 603 4863 
L 1178 4863 
L 1178 4134 
L 603 4134 
L 603 4863 
z
" transform="scale(0.015625)"/>
      <path id="DejaVuSans-73" d="M 2834 3397 
L 2834 2853 
Q 2591 2978 2328 3040 
Q 2066 3103 1784 3103 
Q 1356 3103 1142 2972 
Q 928 2841 928 2578 
Q 928 2378 1081 2264 
Q 1234 2150 1697 2047 
L 1894 2003 
Q 2506 1872 2764 1633 
Q 3022 1394 3022 966 
Q 3022 478 2636 193 
Q 2250 -91 1575 -91 
Q 1294 -91 989 -36 
Q 684 19 347 128 
L 347 722 
Q 666 556 975 473 
Q 1284 391 1588 391 
Q 1994 391 2212 530 
Q 2431 669 2431 922 
Q 2431 1156 2273 1281 
Q 2116 1406 1581 1522 
L 1381 1569 
Q 847 1681 609 1914 
Q 372 2147 372 2553 
Q 372 3047 722 3315 
Q 1072 3584 1716 3584 
Q 2034 3584 2315 3537 
Q 2597 3491 2834 3397 
z
" transform="scale(0.015625)"/>
      <path id="DejaVuSans-63" d="M 3122 3366 
L 3122 2828 
Q 2878 2963 2633 3030 
Q 2388 3097 2138 3097 
Q 1578 3097 1268 2742 
Q 959 2388 959 1747 
Q 959 1106 1268 751 
Q 1578 397 2138 397 
Q 2388 397 2633 464 
Q 2878 531 3122 666 
L 3122 134 
Q 2881 22 2623 -34 
Q 2366 -91 2075 -91 
Q 1284 -91 818 406 
Q 353 903 353 1747 
Q 353 2603 823 3093 
Q 1294 3584 2113 3584 
Q 2378 3584 2631 3529 
Q 2884 3475 3122 3366 
z
" transform="scale(0.015625)"/>
      <path id="DejaVuSans-75" d="M 544 1381 
L 544 3500 
L 1119 3500 
L 1119 1403 
Q 1119 906 1312 657 
Q 1506 409 1894 409 
Q 2359 409 2629 706 
Q 2900 1003 2900 1516 
L 2900 3500 
L 3475 3500 
L 3475 0 
L 2900 0 
L 2900 538 
Q 2691 219 2414 64 
Q 2138 -91 1772 -91 
Q 1169 -91 856 284 
Q 544 659 544 1381 
z
M 1991 3584 
L 1991 3584 
z
" transform="scale(0.015625)"/>
      <path id="DejaVuSans-68" d="M 3513 2113 
L 3513 0 
L 2938 0 
L 2938 2094 
Q 2938 2591 2744 2837 
Q 2550 3084 2163 3084 
Q 1697 3084 1428 2787 
Q 1159 2491 1159 1978 
L 1159 0 
L 581 0 
L 581 4863 
L 1159 4863 
L 1159 2956 
Q 1366 3272 1645 3428 
Q 1925 3584 2291 3584 
Q 2894 3584 3203 3211 
Q 3513 2838 3513 2113 
z
" transform="scale(0.015625)"/>
      <path id="DejaVuSans-72" d="M 2631 2963 
Q 2534 3019 2420 3045 
Q 2306 3072 2169 3072 
Q 1681 3072 1420 2755 
Q 1159 2438 1159 1844 
L 1159 0 
L 581 0 
L 581 3500 
L 1159 3500 
L 1159 2956 
Q 1341 3275 1631 3429 
Q 1922 3584 2338 3584 
Q 2397 3584 2469 3576 
Q 2541 3569 2628 3553 
L 2631 2963 
z
" transform="scale(0.015625)"/>
      <path id="DejaVuSans-65" d="M 3597 1894 
L 3597 1613 
L 953 1613 
Q 991 1019 1311 708 
Q 1631 397 2203 397 
Q 2534 397 2845 478 
Q 3156 559 3463 722 
L 3463 178 
Q 3153 47 2828 -22 
Q 2503 -91 2169 -91 
Q 1331 -91 842 396 
Q 353 884 353 1716 
Q 353 2575 817 3079 
Q 1281 3584 2069 3584 
Q 2775 3584 3186 3129 
Q 3597 2675 3597 1894 
z
M 3022 2063 
Q 3016 2534 2758 2815 
Q 2500 3097 2075 3097 
Q 1594 3097 1305 2825 
Q 1016 2553 972 2059 
L 3022 2063 
z
" transform="scale(0.015625)"/>
      <path id="DejaVuSans-34" d="M 2419 4116 
L 825 1625 
L 2419 1625 
L 2419 4116 
z
M 2253 4666 
L 3047 4666 
L 3047 1625 
L 3713 1625 
L 3713 1100 
L 3047 1100 
L 3047 0 
L 2419 0 
L 2419 1100 
L 313 1100 
L 313 1709 
L 2253 4666 
z
" transform="scale(0.015625)"/>
     </defs>
     <use xlink:href="#DejaVuSans-44"/>
     <use xlink:href="#DejaVuSans-69" x="77.001953"/>
     <use xlink:href="#DejaVuSans-73" x="104.785156"/>
     <use xlink:href="#DejaVuSans-63" x="156.884766"/>
     <use xlink:href="#DejaVuSans-6f" x="211.865234"/>
     <use xlink:href="#DejaVuSans-6e" x="273.046875"/>
     <use xlink:href="#DejaVuSans-74" x="336.425781"/>
     <use xlink:href="#DejaVuSans-69" x="375.634766"/>
     <use xlink:href="#DejaVuSans-6e" x="403.417969"/>
     <use xlink:href="#DejaVuSans-75" x="466.796875"/>
     <use xlink:href="#DejaVuSans-69" x="530.175781"/>
     <use xlink:href="#DejaVuSans-74" x="557.958984"/>
     <use xlink:href="#DejaVuSans-79" x="597.167969"/>
     <use xlink:href="#DejaVuSans-20" x="656.347656"/>
     <use xlink:href="#DejaVuSans-61" x="688.134766"/>
     <use xlink:href="#DejaVuSans-74" x="749.414062"/>
     <use xlink:href="#DejaVuSans-20" x="788.623047"/>
     <use xlink:href="#DejaVuSans-74" x="820.410156"/>
     <use xlink:href="#DejaVuSans-68" x="859.619141"/>
     <use xlink:href="#DejaVuSans-72" x="922.998047"/>
     <use xlink:href="#DejaVuSans-65" x="961.861328"/>
     <use xlink:href="#DejaVuSans-73" x="1023.384766"/>
     <use xlink:href="#DejaVuSans-68" x="1075.484375"/>
     <use xlink:href="#DejaVuSans-6f" x="1138.863281"/>
     <use xlink:href="#DejaVuSans-6c" x="1200.044922"/>
     <use xlink:href="#DejaVuSans-64" x="1227.828125"/>
     <use xlink:href="#DejaVuSans-20" x="1291.304688"/>
     <use xlink:href="#DejaVuSans-3d" x="1323.091797"/>
     <use xlink:href="#DejaVuSans-20" x="1406.880859"/>
     <use xlink:href="#DejaVuSans-30" x="1438.667969"/>
     <use xlink:href="#DejaVuSans-2e" x="1502.291016"/>
     <use xlink:href="#DejaVuSans-34" x="1534.078125"/>
     <use xlink:href="#DejaVuSans-31" x="1597.701172"/>
    </g>
   </g>
   <g id="legend_1">
    <g id="line2d_37">
     <path d="M 74.013125 58.992125 
L 86.013125 58.992125 
L 98.013125 58.992125 
" style="fill: none; stroke: #ff0000; stroke-width: 3; stroke-linecap: round"/>
    </g>
    <g id="text_19">
     <!-- treatment threshold -->
     <g style="fill: #262626" transform="translate(107.613125 63.192125) scale(0.12 -0.12)">
      <defs>
       <path id="DejaVuSans-6d" d="M 3328 2828 
Q 3544 3216 3844 3400 
Q 4144 3584 4550 3584 
Q 5097 3584 5394 3201 
Q 5691 2819 5691 2113 
L 5691 0 
L 5113 0 
L 5113 2094 
Q 5113 2597 4934 2840 
Q 4756 3084 4391 3084 
Q 3944 3084 3684 2787 
Q 3425 2491 3425 1978 
L 3425 0 
L 2847 0 
L 2847 2094 
Q 2847 2600 2669 2842 
Q 2491 3084 2119 3084 
Q 1678 3084 1418 2786 
Q 1159 2488 1159 1978 
L 1159 0 
L 581 0 
L 581 3500 
L 1159 3500 
L 1159 2956 
Q 1356 3278 1631 3431 
Q 1906 3584 2284 3584 
Q 2666 3584 2933 3390 
Q 3200 3197 3328 2828 
z
" transform="scale(0.015625)"/>
      </defs>
      <use xlink:href="#DejaVuSans-74"/>
      <use xlink:href="#DejaVuSans-72" x="39.208984"/>
      <use xlink:href="#DejaVuSans-65" x="78.072266"/>
      <use xlink:href="#DejaVuSans-61" x="139.595703"/>
      <use xlink:href="#DejaVuSans-74" x="200.875"/>
      <use xlink:href="#DejaVuSans-6d" x="240.083984"/>
      <use xlink:href="#DejaVuSans-65" x="337.496094"/>
      <use xlink:href="#DejaVuSans-6e" x="399.019531"/>
      <use xlink:href="#DejaVuSans-74" x="462.398438"/>
      <use xlink:href="#DejaVuSans-20" x="501.607422"/>
      <use xlink:href="#DejaVuSans-74" x="533.394531"/>
      <use xlink:href="#DejaVuSans-68" x="572.603516"/>
      <use xlink:href="#DejaVuSans-72" x="635.982422"/>
      <use xlink:href="#DejaVuSans-65" x="674.845703"/>
      <use xlink:href="#DejaVuSans-73" x="736.369141"/>
      <use xlink:href="#DejaVuSans-68" x="788.46875"/>
      <use xlink:href="#DejaVuSans-6f" x="851.847656"/>
      <use xlink:href="#DejaVuSans-6c" x="913.029297"/>
      <use xlink:href="#DejaVuSans-64" x="940.8125"/>
     </g>
    </g>
   </g>
  </g>
 </g>
 <defs>
  <clipPath id="pd6105edc44">
   <rect x="63.213125" y="43.274" width="455.331743" height="267.958957"/>
  </clipPath>
 </defs>
</svg>
