<?xml version="1.0" encoding="utf-8" standalone="no"?>
<!DOCTYPE svg PUBLIC "-//W3C//DTD SVG 1.1//EN"
  "http://www.w3.org/Graphics/SVG/1.1/DTD/svg11.dtd">
<svg xmlns:xlink="http://www.w3.org/1999/xlink" width="526.746263pt" height="353.99952pt" viewBox="0 0 526.746263 353.99952" xmlns="http://www.w3.org/2000/svg" version="1.1">
 <metadata>
  <rdf:RDF xmlns:dc="http://purl.org/dc/elements/1.1/" xmlns:cc="http://creativecommons.org/ns#" xmlns:rdf="http://www.w3.org/1999/02/22-rdf-syntax-ns#">
   <cc:Work>
    <dc:type rdf:resource="http://purl.org/dc/dcmitype/StillImage"/>
    <dc:date>2022-10-29T14:37:16.607545</dc:date>
    <dc:format>image/svg+xml</dc:format>
    <dc:creator>
     <cc:Agent>
      <dc:title>Matplotlib v3.6.1, https://matplotlib.org/</dc:title>
     </cc:Agent>
    </dc:creator>
   </cc:Work>
  </rdf:RDF>
 </metadata>
 <defs>
  <style type="text/css">*{stroke-linejoin: round; stroke-linecap: butt}</style>
 </defs>
 <g id="figure_1">
  <g id="patch_1">
   <path d="M 0 353.99952 
L 526.746263 353.99952 
L 526.746263 0 
L 0 0 
z
" style="fill: #ffffff"/>
  </g>
  <g id="axes_1">
   <g id="patch_2">
    <path d="M 63.165586 311.304146 
L 518.650415 311.304146 
L 518.650415 25.286312 
L 63.165586 25.286312 
z
" style="fill: #eeeeee"/>
   </g>
   <g id="matplotlib.axis_1">
    <g id="xtick_1">
     <g id="line2d_1">
      <path d="M 69.246309 311.304146 
L 69.246309 25.286312 
" clip-path="url(#p95350a2cd9)" style="fill: none; stroke: #ffffff; stroke-width: 0.8; stroke-linecap: round"/>
     </g>
     <g id="line2d_2"/>
     <g id="text_1">
      <!-- −1.00 -->
      <g style="fill: #262626" transform="translate(47.79459 325.441958) scale(0.14 -0.14)">
       <defs>
        <path id="DejaVuSans-2212" d="M 678 2272 
L 4684 2272 
L 4684 1741 
L 678 1741 
L 678 2272 
z
" transform="scale(0.015625)"/>
        <path id="DejaVuSans-31" d="M 794 531 
L 1825 531 
L 1825 4091 
L 703 3866 
L 703 4441 
L 1819 4666 
L 2450 4666 
L 2450 531 
L 3481 531 
L 3481 0 
L 794 0 
L 794 531 
z
" transform="scale(0.015625)"/>
        <path id="DejaVuSans-2e" d="M 684 794 
L 1344 794 
L 1344 0 
L 684 0 
L 684 794 
z
" transform="scale(0.015625)"/>
        <path id="DejaVuSans-30" d="M 2034 4250 
Q 1547 4250 1301 3770 
Q 1056 3291 1056 2328 
Q 1056 1369 1301 889 
Q 1547 409 2034 409 
Q 2525 409 2770 889 
Q 3016 1369 3016 2328 
Q 3016 3291 2770 3770 
Q 2525 4250 2034 4250 
z
M 2034 4750 
Q 2819 4750 3233 4129 
Q 3647 3509 3647 2328 
Q 3647 1150 3233 529 
Q 2819 -91 2034 -91 
Q 1250 -91 836 529 
Q 422 1150 422 2328 
Q 422 3509 836 4129 
Q 1250 4750 2034 4750 
z
" transform="scale(0.015625)"/>
       </defs>
       <use xlink:href="#DejaVuSans-2212"/>
       <use xlink:href="#DejaVuSans-31" x="83.789062"/>
       <use xlink:href="#DejaVuSans-2e" x="147.412109"/>
       <use xlink:href="#DejaVuSans-30" x="179.199219"/>
       <use xlink:href="#DejaVuSans-30" x="242.822266"/>
      </g>
     </g>
    </g>
    <g id="xtick_2">
     <g id="line2d_3">
      <path d="M 123.598142 311.304146 
L 123.598142 25.286312 
" clip-path="url(#p95350a2cd9)" style="fill: none; stroke: #ffffff; stroke-width: 0.8; stroke-linecap: round"/>
     </g>
     <g id="line2d_4"/>
     <g id="text_2">
      <!-- −0.75 -->
      <g style="fill: #262626" transform="translate(102.146423 325.441958) scale(0.14 -0.14)">
       <defs>
        <path id="DejaVuSans-37" d="M 525 4666 
L 3525 4666 
L 3525 4397 
L 1831 0 
L 1172 0 
L 2766 4134 
L 525 4134 
L 525 4666 
z
" transform="scale(0.015625)"/>
        <path id="DejaVuSans-35" d="M 691 4666 
L 3169 4666 
L 3169 4134 
L 1269 4134 
L 1269 2991 
Q 1406 3038 1543 3061 
Q 1681 3084 1819 3084 
Q 2600 3084 3056 2656 
Q 3513 2228 3513 1497 
Q 3513 744 3044 326 
Q 2575 -91 1722 -91 
Q 1428 -91 1123 -41 
Q 819 9 494 109 
L 494 744 
Q 775 591 1075 516 
Q 1375 441 1709 441 
Q 2250 441 2565 725 
Q 2881 1009 2881 1497 
Q 2881 1984 2565 2268 
Q 2250 2553 1709 2553 
Q 1456 2553 1204 2497 
Q 953 2441 691 2322 
L 691 4666 
z
" transform="scale(0.015625)"/>
       </defs>
       <use xlink:href="#DejaVuSans-2212"/>
       <use xlink:href="#DejaVuSans-30" x="83.789062"/>
       <use xlink:href="#DejaVuSans-2e" x="147.412109"/>
       <use xlink:href="#DejaVuSans-37" x="179.199219"/>
       <use xlink:href="#DejaVuSans-35" x="242.822266"/>
      </g>
     </g>
    </g>
    <g id="xtick_3">
     <g id="line2d_5">
      <path d="M 177.949974 311.304146 
L 177.949974 25.286312 
" clip-path="url(#p95350a2cd9)" style="fill: none; stroke: #ffffff; stroke-width: 0.8; stroke-linecap: round"/>
     </g>
     <g id="line2d_6"/>
     <g id="text_3">
      <!-- −0.50 -->
      <g style="fill: #262626" transform="translate(156.498255 325.441958) scale(0.14 -0.14)">
       <use xlink:href="#DejaVuSans-2212"/>
       <use xlink:href="#DejaVuSans-30" x="83.789062"/>
       <use xlink:href="#DejaVuSans-2e" x="147.412109"/>
       <use xlink:href="#DejaVuSans-35" x="179.199219"/>
       <use xlink:href="#DejaVuSans-30" x="242.822266"/>
      </g>
     </g>
    </g>
    <g id="xtick_4">
     <g id="line2d_7">
      <path d="M 232.301807 311.304146 
L 232.301807 25.286312 
" clip-path="url(#p95350a2cd9)" style="fill: none; stroke: #ffffff; stroke-width: 0.8; stroke-linecap: round"/>
     </g>
     <g id="line2d_8"/>
     <g id="text_4">
      <!-- −0.25 -->
      <g style="fill: #262626" transform="translate(210.850088 325.441958) scale(0.14 -0.14)">
       <defs>
        <path id="DejaVuSans-32" d="M 1228 531 
L 3431 531 
L 3431 0 
L 469 0 
L 469 531 
Q 828 903 1448 1529 
Q 2069 2156 2228 2338 
Q 2531 2678 2651 2914 
Q 2772 3150 2772 3378 
Q 2772 3750 2511 3984 
Q 2250 4219 1831 4219 
Q 1534 4219 1204 4116 
Q 875 4013 500 3803 
L 500 4441 
Q 881 4594 1212 4672 
Q 1544 4750 1819 4750 
Q 2544 4750 2975 4387 
Q 3406 4025 3406 3419 
Q 3406 3131 3298 2873 
Q 3191 2616 2906 2266 
Q 2828 2175 2409 1742 
Q 1991 1309 1228 531 
z
" transform="scale(0.015625)"/>
       </defs>
       <use xlink:href="#DejaVuSans-2212"/>
       <use xlink:href="#DejaVuSans-30" x="83.789062"/>
       <use xlink:href="#DejaVuSans-2e" x="147.412109"/>
       <use xlink:href="#DejaVuSans-32" x="179.199219"/>
       <use xlink:href="#DejaVuSans-35" x="242.822266"/>
      </g>
     </g>
    </g>
    <g id="xtick_5">
     <g id="line2d_9">
      <path d="M 286.653639 311.304146 
L 286.653639 25.286312 
" clip-path="url(#p95350a2cd9)" style="fill: none; stroke: #ffffff; stroke-width: 0.8; stroke-linecap: round"/>
     </g>
     <g id="line2d_10"/>
     <g id="text_5">
      <!-- 0.00 -->
      <g style="fill: #262626" transform="translate(271.067702 325.441958) scale(0.14 -0.14)">
       <use xlink:href="#DejaVuSans-30"/>
       <use xlink:href="#DejaVuSans-2e" x="63.623047"/>
       <use xlink:href="#DejaVuSans-30" x="95.410156"/>
       <use xlink:href="#DejaVuSans-30" x="159.033203"/>
      </g>
     </g>
    </g>
    <g id="xtick_6">
     <g id="line2d_11">
      <path d="M 341.005472 311.304146 
L 341.005472 25.286312 
" clip-path="url(#p95350a2cd9)" style="fill: none; stroke: #ffffff; stroke-width: 0.8; stroke-linecap: round"/>
     </g>
     <g id="line2d_12"/>
     <g id="text_6">
      <!-- 0.25 -->
      <g style="fill: #262626" transform="translate(325.419534 325.441958) scale(0.14 -0.14)">
       <use xlink:href="#DejaVuSans-30"/>
       <use xlink:href="#DejaVuSans-2e" x="63.623047"/>
       <use xlink:href="#DejaVuSans-32" x="95.410156"/>
       <use xlink:href="#DejaVuSans-35" x="159.033203"/>
      </g>
     </g>
    </g>
    <g id="xtick_7">
     <g id="line2d_13">
      <path d="M 395.357304 311.304146 
L 395.357304 25.286312 
" clip-path="url(#p95350a2cd9)" style="fill: none; stroke: #ffffff; stroke-width: 0.8; stroke-linecap: round"/>
     </g>
     <g id="line2d_14"/>
     <g id="text_7">
      <!-- 0.50 -->
      <g style="fill: #262626" transform="translate(379.771366 325.441958) scale(0.14 -0.14)">
       <use xlink:href="#DejaVuSans-30"/>
       <use xlink:href="#DejaVuSans-2e" x="63.623047"/>
       <use xlink:href="#DejaVuSans-35" x="95.410156"/>
       <use xlink:href="#DejaVuSans-30" x="159.033203"/>
      </g>
     </g>
    </g>
    <g id="xtick_8">
     <g id="line2d_15">
      <path d="M 449.709136 311.304146 
L 449.709136 25.286312 
" clip-path="url(#p95350a2cd9)" style="fill: none; stroke: #ffffff; stroke-width: 0.8; stroke-linecap: round"/>
     </g>
     <g id="line2d_16"/>
     <g id="text_8">
      <!-- 0.75 -->
      <g style="fill: #262626" transform="translate(434.123199 325.441958) scale(0.14 -0.14)">
       <use xlink:href="#DejaVuSans-30"/>
       <use xlink:href="#DejaVuSans-2e" x="63.623047"/>
       <use xlink:href="#DejaVuSans-37" x="95.410156"/>
       <use xlink:href="#DejaVuSans-35" x="159.033203"/>
      </g>
     </g>
    </g>
    <g id="xtick_9">
     <g id="line2d_17">
      <path d="M 504.060969 311.304146 
L 504.060969 25.286312 
" clip-path="url(#p95350a2cd9)" style="fill: none; stroke: #ffffff; stroke-width: 0.8; stroke-linecap: round"/>
     </g>
     <g id="line2d_18"/>
     <g id="text_9">
      <!-- 1.00 -->
      <g style="fill: #262626" transform="translate(488.475031 325.441958) scale(0.14 -0.14)">
       <use xlink:href="#DejaVuSans-31"/>
       <use xlink:href="#DejaVuSans-2e" x="63.623047"/>
       <use xlink:href="#DejaVuSans-30" x="95.410156"/>
       <use xlink:href="#DejaVuSans-30" x="159.033203"/>
      </g>
     </g>
    </g>
    <g id="text_10">
     <!-- x -->
     <g style="fill: #262626" transform="translate(286.468938 343.751177) scale(0.15 -0.15)">
      <defs>
       <path id="DejaVuSans-78" d="M 3513 3500 
L 2247 1797 
L 3578 0 
L 2900 0 
L 1881 1375 
L 863 0 
L 184 0 
L 1544 1831 
L 300 3500 
L 978 3500 
L 1906 2253 
L 2834 3500 
L 3513 3500 
z
" transform="scale(0.015625)"/>
      </defs>
      <use xlink:href="#DejaVuSans-78"/>
     </g>
    </g>
   </g>
   <g id="matplotlib.axis_2">
    <g id="ytick_1">
     <g id="line2d_19">
      <path d="M 63.165586 286.006153 
L 518.650415 286.006153 
" clip-path="url(#p95350a2cd9)" style="fill: none; stroke: #ffffff; stroke-width: 0.8; stroke-linecap: round"/>
     </g>
     <g id="line2d_20"/>
     <g id="text_11">
      <!-- −1.0 -->
      <g style="fill: #262626" transform="translate(25.669649 291.325059) scale(0.14 -0.14)">
       <use xlink:href="#DejaVuSans-2212"/>
       <use xlink:href="#DejaVuSans-31" x="83.789062"/>
       <use xlink:href="#DejaVuSans-2e" x="147.412109"/>
       <use xlink:href="#DejaVuSans-30" x="179.199219"/>
      </g>
     </g>
    </g>
    <g id="ytick_2">
     <g id="line2d_21">
      <path d="M 63.165586 236.083727 
L 518.650415 236.083727 
" clip-path="url(#p95350a2cd9)" style="fill: none; stroke: #ffffff; stroke-width: 0.8; stroke-linecap: round"/>
     </g>
     <g id="line2d_22"/>
     <g id="text_12">
      <!-- −0.5 -->
      <g style="fill: #262626" transform="translate(25.669649 241.402633) scale(0.14 -0.14)">
       <use xlink:href="#DejaVuSans-2212"/>
       <use xlink:href="#DejaVuSans-30" x="83.789062"/>
       <use xlink:href="#DejaVuSans-2e" x="147.412109"/>
       <use xlink:href="#DejaVuSans-35" x="179.199219"/>
      </g>
     </g>
    </g>
    <g id="ytick_3">
     <g id="line2d_23">
      <path d="M 63.165586 186.161301 
L 518.650415 186.161301 
" clip-path="url(#p95350a2cd9)" style="fill: none; stroke: #ffffff; stroke-width: 0.8; stroke-linecap: round"/>
     </g>
     <g id="line2d_24"/>
     <g id="text_13">
      <!-- 0.0 -->
      <g style="fill: #262626" transform="translate(37.401211 191.480207) scale(0.14 -0.14)">
       <use xlink:href="#DejaVuSans-30"/>
       <use xlink:href="#DejaVuSans-2e" x="63.623047"/>
       <use xlink:href="#DejaVuSans-30" x="95.410156"/>
      </g>
     </g>
    </g>
    <g id="ytick_4">
     <g id="line2d_25">
      <path d="M 63.165586 136.238875 
L 518.650415 136.238875 
" clip-path="url(#p95350a2cd9)" style="fill: none; stroke: #ffffff; stroke-width: 0.8; stroke-linecap: round"/>
     </g>
     <g id="line2d_26"/>
     <g id="text_14">
      <!-- 0.5 -->
      <g style="fill: #262626" transform="translate(37.401211 141.557781) scale(0.14 -0.14)">
       <use xlink:href="#DejaVuSans-30"/>
       <use xlink:href="#DejaVuSans-2e" x="63.623047"/>
       <use xlink:href="#DejaVuSans-35" x="95.410156"/>
      </g>
     </g>
    </g>
    <g id="ytick_5">
     <g id="line2d_27">
      <path d="M 63.165586 86.316449 
L 518.650415 86.316449 
" clip-path="url(#p95350a2cd9)" style="fill: none; stroke: #ffffff; stroke-width: 0.8; stroke-linecap: round"/>
     </g>
     <g id="line2d_28"/>
     <g id="text_15">
      <!-- 1.0 -->
      <g style="fill: #262626" transform="translate(37.401211 91.635355) scale(0.14 -0.14)">
       <use xlink:href="#DejaVuSans-31"/>
       <use xlink:href="#DejaVuSans-2e" x="63.623047"/>
       <use xlink:href="#DejaVuSans-30" x="95.410156"/>
      </g>
     </g>
    </g>
    <g id="ytick_6">
     <g id="line2d_29">
      <path d="M 63.165586 36.394023 
L 518.650415 36.394023 
" clip-path="url(#p95350a2cd9)" style="fill: none; stroke: #ffffff; stroke-width: 0.8; stroke-linecap: round"/>
     </g>
     <g id="line2d_30"/>
     <g id="text_16">
      <!-- 1.5 -->
      <g style="fill: #262626" transform="translate(37.401211 41.712929) scale(0.14 -0.14)">
       <use xlink:href="#DejaVuSans-31"/>
       <use xlink:href="#DejaVuSans-2e" x="63.623047"/>
       <use xlink:href="#DejaVuSans-35" x="95.410156"/>
      </g>
     </g>
    </g>
    <g id="text_17">
     <!-- y -->
     <g style="fill: #262626" transform="translate(18.550118 172.734291) rotate(-90) scale(0.15 -0.15)">
      <defs>
       <path id="DejaVuSans-79" d="M 2059 -325 
Q 1816 -950 1584 -1140 
Q 1353 -1331 966 -1331 
L 506 -1331 
L 506 -850 
L 844 -850 
Q 1081 -850 1212 -737 
Q 1344 -625 1503 -206 
L 1606 56 
L 191 3500 
L 800 3500 
L 1894 763 
L 2988 3500 
L 3597 3500 
L 2059 -325 
z
" transform="scale(0.015625)"/>
      </defs>
      <use xlink:href="#DejaVuSans-79"/>
     </g>
    </g>
   </g>
   <g id="PathCollection_1">
    <defs>
     <path id="mfba0e4d3c6" d="M 0 3 
C 0.795609 3 1.55874 2.683901 2.12132 2.12132 
C 2.683901 1.55874 3 0.795609 3 0 
C 3 -0.795609 2.683901 -1.55874 2.12132 -2.12132 
C 1.55874 -2.683901 0.795609 -3 0 -3 
C -0.795609 -3 -1.55874 -2.683901 -2.12132 -2.12132 
C -2.683901 -1.55874 -3 -0.795609 -3 0 
C -3 0.795609 -2.683901 1.55874 -2.12132 2.12132 
C -1.55874 2.683901 -0.795609 3 0 3 
z
" style="stroke: #ffffff; stroke-width: 0.48"/>
    </defs>
    <g clip-path="url(#p95350a2cd9)">
     <use xlink:href="#mfba0e4d3c6" x="83.869442" y="195.338957" style="stroke: #ffffff; stroke-width: 0.48"/>
     <use xlink:href="#mfba0e4d3c6" x="84.295585" y="224.368266" style="stroke: #ffffff; stroke-width: 0.48"/>
     <use xlink:href="#mfba0e4d3c6" x="84.658255" y="204.311703" style="stroke: #ffffff; stroke-width: 0.48"/>
     <use xlink:href="#mfba0e4d3c6" x="89.374062" y="214.941076" style="stroke: #ffffff; stroke-width: 0.48"/>
     <use xlink:href="#mfba0e4d3c6" x="94.798391" y="228.177065" style="stroke: #ffffff; stroke-width: 0.48"/>
     <use xlink:href="#mfba0e4d3c6" x="94.883876" y="241.569366" style="stroke: #ffffff; stroke-width: 0.48"/>
     <use xlink:href="#mfba0e4d3c6" x="105.493191" y="242.695696" style="stroke: #ffffff; stroke-width: 0.48"/>
     <use xlink:href="#mfba0e4d3c6" x="107.141811" y="234.468536" style="stroke: #ffffff; stroke-width: 0.48"/>
     <use xlink:href="#mfba0e4d3c6" x="112.191346" y="234.563701" style="stroke: #ffffff; stroke-width: 0.48"/>
     <use xlink:href="#mfba0e4d3c6" x="114.738296" y="256.826277" style="stroke: #ffffff; stroke-width: 0.48"/>
     <use xlink:href="#mfba0e4d3c6" x="117.394421" y="259.794014" style="stroke: #ffffff; stroke-width: 0.48"/>
     <use xlink:href="#mfba0e4d3c6" x="125.268827" y="250.891076" style="stroke: #ffffff; stroke-width: 0.48"/>
     <use xlink:href="#mfba0e4d3c6" x="141.811983" y="269.309907" style="stroke: #ffffff; stroke-width: 0.48"/>
     <use xlink:href="#mfba0e4d3c6" x="141.954542" y="285.906014" style="stroke: #ffffff; stroke-width: 0.48"/>
     <use xlink:href="#mfba0e4d3c6" x="145.142724" y="295.811069" style="stroke: #ffffff; stroke-width: 0.48"/>
     <use xlink:href="#mfba0e4d3c6" x="145.489355" y="278.903435" style="stroke: #ffffff; stroke-width: 0.48"/>
     <use xlink:href="#mfba0e4d3c6" x="147.039824" y="285.404125" style="stroke: #ffffff; stroke-width: 0.48"/>
     <use xlink:href="#mfba0e4d3c6" x="147.279763" y="275.279621" style="stroke: #ffffff; stroke-width: 0.48"/>
     <use xlink:href="#mfba0e4d3c6" x="149.490515" y="298.303335" style="stroke: #ffffff; stroke-width: 0.48"/>
     <use xlink:href="#mfba0e4d3c6" x="159.402769" y="271.873642" style="stroke: #ffffff; stroke-width: 0.48"/>
     <use xlink:href="#mfba0e4d3c6" x="163.550873" y="275.926132" style="stroke: #ffffff; stroke-width: 0.48"/>
     <use xlink:href="#mfba0e4d3c6" x="168.785583" y="275.168213" style="stroke: #ffffff; stroke-width: 0.48"/>
     <use xlink:href="#mfba0e4d3c6" x="170.443863" y="261.813514" style="stroke: #ffffff; stroke-width: 0.48"/>
     <use xlink:href="#mfba0e4d3c6" x="172.690584" y="267.432934" style="stroke: #ffffff; stroke-width: 0.48"/>
     <use xlink:href="#mfba0e4d3c6" x="188.828035" y="276.096366" style="stroke: #ffffff; stroke-width: 0.48"/>
     <use xlink:href="#mfba0e4d3c6" x="194.376254" y="291.493624" style="stroke: #ffffff; stroke-width: 0.48"/>
     <use xlink:href="#mfba0e4d3c6" x="195.099416" y="283.610623" style="stroke: #ffffff; stroke-width: 0.48"/>
     <use xlink:href="#mfba0e4d3c6" x="203.349171" y="277.058487" style="stroke: #ffffff; stroke-width: 0.48"/>
     <use xlink:href="#mfba0e4d3c6" x="205.406046" y="286.521768" style="stroke: #ffffff; stroke-width: 0.48"/>
     <use xlink:href="#mfba0e4d3c6" x="208.283651" y="279.732598" style="stroke: #ffffff; stroke-width: 0.48"/>
     <use xlink:href="#mfba0e4d3c6" x="208.872651" y="290.157387" style="stroke: #ffffff; stroke-width: 0.48"/>
     <use xlink:href="#mfba0e4d3c6" x="210.297304" y="263.631484" style="stroke: #ffffff; stroke-width: 0.48"/>
     <use xlink:href="#mfba0e4d3c6" x="211.071445" y="264.561914" style="stroke: #ffffff; stroke-width: 0.48"/>
     <use xlink:href="#mfba0e4d3c6" x="211.751393" y="259.100641" style="stroke: #ffffff; stroke-width: 0.48"/>
     <use xlink:href="#mfba0e4d3c6" x="216.566173" y="265.412511" style="stroke: #ffffff; stroke-width: 0.48"/>
     <use xlink:href="#mfba0e4d3c6" x="230.431206" y="255.618892" style="stroke: #ffffff; stroke-width: 0.48"/>
     <use xlink:href="#mfba0e4d3c6" x="235.047881" y="261.01031" style="stroke: #ffffff; stroke-width: 0.48"/>
     <use xlink:href="#mfba0e4d3c6" x="239.504821" y="230.789939" style="stroke: #ffffff; stroke-width: 0.48"/>
     <use xlink:href="#mfba0e4d3c6" x="243.188183" y="237.387623" style="stroke: #ffffff; stroke-width: 0.48"/>
     <use xlink:href="#mfba0e4d3c6" x="245.081875" y="245.042586" style="stroke: #ffffff; stroke-width: 0.48"/>
     <use xlink:href="#mfba0e4d3c6" x="249.115617" y="243.536534" style="stroke: #ffffff; stroke-width: 0.48"/>
     <use xlink:href="#mfba0e4d3c6" x="258.323737" y="223.62728" style="stroke: #ffffff; stroke-width: 0.48"/>
     <use xlink:href="#mfba0e4d3c6" x="262.201367" y="212.133252" style="stroke: #ffffff; stroke-width: 0.48"/>
     <use xlink:href="#mfba0e4d3c6" x="266.114029" y="224.097138" style="stroke: #ffffff; stroke-width: 0.48"/>
     <use xlink:href="#mfba0e4d3c6" x="266.818979" y="232.361877" style="stroke: #ffffff; stroke-width: 0.48"/>
     <use xlink:href="#mfba0e4d3c6" x="269.109674" y="203.534298" style="stroke: #ffffff; stroke-width: 0.48"/>
     <use xlink:href="#mfba0e4d3c6" x="281.138627" y="191.061422" style="stroke: #ffffff; stroke-width: 0.48"/>
     <use xlink:href="#mfba0e4d3c6" x="284.963089" y="197.297033" style="stroke: #ffffff; stroke-width: 0.48"/>
     <use xlink:href="#mfba0e4d3c6" x="286.263372" y="199.125467" style="stroke: #ffffff; stroke-width: 0.48"/>
     <use xlink:href="#mfba0e4d3c6" x="289.483401" y="195.842294" style="stroke: #ffffff; stroke-width: 0.48"/>
     <use xlink:href="#mfba0e4d3c6" x="289.552015" y="199.625588" style="stroke: #ffffff; stroke-width: 0.48"/>
     <use xlink:href="#mfba0e4d3c6" x="299.107812" y="174.084482" style="stroke: #ffffff; stroke-width: 0.48"/>
     <use xlink:href="#mfba0e4d3c6" x="301.176648" y="176.366969" style="stroke: #ffffff; stroke-width: 0.48"/>
     <use xlink:href="#mfba0e4d3c6" x="304.387563" y="155.187097" style="stroke: #ffffff; stroke-width: 0.48"/>
     <use xlink:href="#mfba0e4d3c6" x="310.268798" y="150.076337" style="stroke: #ffffff; stroke-width: 0.48"/>
     <use xlink:href="#mfba0e4d3c6" x="310.851267" y="154.094571" style="stroke: #ffffff; stroke-width: 0.48"/>
     <use xlink:href="#mfba0e4d3c6" x="316.370983" y="137.041424" style="stroke: #ffffff; stroke-width: 0.48"/>
     <use xlink:href="#mfba0e4d3c6" x="326.193743" y="128.786706" style="stroke: #ffffff; stroke-width: 0.48"/>
     <use xlink:href="#mfba0e4d3c6" x="329.515697" y="118.78824" style="stroke: #ffffff; stroke-width: 0.48"/>
     <use xlink:href="#mfba0e4d3c6" x="345.764575" y="94.551918" style="stroke: #ffffff; stroke-width: 0.48"/>
     <use xlink:href="#mfba0e4d3c6" x="345.959998" y="100.063512" style="stroke: #ffffff; stroke-width: 0.48"/>
     <use xlink:href="#mfba0e4d3c6" x="348.457296" y="120.763656" style="stroke: #ffffff; stroke-width: 0.48"/>
     <use xlink:href="#mfba0e4d3c6" x="350.302973" y="121.255295" style="stroke: #ffffff; stroke-width: 0.48"/>
     <use xlink:href="#mfba0e4d3c6" x="350.69207" y="106.73811" style="stroke: #ffffff; stroke-width: 0.48"/>
     <use xlink:href="#mfba0e4d3c6" x="361.266289" y="109.95128" style="stroke: #ffffff; stroke-width: 0.48"/>
     <use xlink:href="#mfba0e4d3c6" x="363.304493" y="108.83309" style="stroke: #ffffff; stroke-width: 0.48"/>
     <use xlink:href="#mfba0e4d3c6" x="365.935638" y="89.335908" style="stroke: #ffffff; stroke-width: 0.48"/>
     <use xlink:href="#mfba0e4d3c6" x="366.796589" y="123.580595" style="stroke: #ffffff; stroke-width: 0.48"/>
     <use xlink:href="#mfba0e4d3c6" x="370.714828" y="93.260959" style="stroke: #ffffff; stroke-width: 0.48"/>
     <use xlink:href="#mfba0e4d3c6" x="378.027198" y="87.667818" style="stroke: #ffffff; stroke-width: 0.48"/>
     <use xlink:href="#mfba0e4d3c6" x="382.433576" y="84.374129" style="stroke: #ffffff; stroke-width: 0.48"/>
     <use xlink:href="#mfba0e4d3c6" x="384.688244" y="83.499909" style="stroke: #ffffff; stroke-width: 0.48"/>
     <use xlink:href="#mfba0e4d3c6" x="384.95604" y="92.413988" style="stroke: #ffffff; stroke-width: 0.48"/>
     <use xlink:href="#mfba0e4d3c6" x="385.137539" y="98.715398" style="stroke: #ffffff; stroke-width: 0.48"/>
     <use xlink:href="#mfba0e4d3c6" x="392.446344" y="79.127234" style="stroke: #ffffff; stroke-width: 0.48"/>
     <use xlink:href="#mfba0e4d3c6" x="408.574453" y="41.044294" style="stroke: #ffffff; stroke-width: 0.48"/>
     <use xlink:href="#mfba0e4d3c6" x="414.859943" y="42.477176" style="stroke: #ffffff; stroke-width: 0.48"/>
     <use xlink:href="#mfba0e4d3c6" x="418.451612" y="56.112575" style="stroke: #ffffff; stroke-width: 0.48"/>
     <use xlink:href="#mfba0e4d3c6" x="423.385654" y="46.68206" style="stroke: #ffffff; stroke-width: 0.48"/>
     <use xlink:href="#mfba0e4d3c6" x="424.294426" y="51.2701" style="stroke: #ffffff; stroke-width: 0.48"/>
     <use xlink:href="#mfba0e4d3c6" x="427.2056" y="42.124833" style="stroke: #ffffff; stroke-width: 0.48"/>
     <use xlink:href="#mfba0e4d3c6" x="428.469425" y="49.951144" style="stroke: #ffffff; stroke-width: 0.48"/>
     <use xlink:href="#mfba0e4d3c6" x="431.809158" y="61.244503" style="stroke: #ffffff; stroke-width: 0.48"/>
     <use xlink:href="#mfba0e4d3c6" x="432.970843" y="38.374368" style="stroke: #ffffff; stroke-width: 0.48"/>
     <use xlink:href="#mfba0e4d3c6" x="433.956648" y="38.287122" style="stroke: #ffffff; stroke-width: 0.48"/>
     <use xlink:href="#mfba0e4d3c6" x="438.670582" y="46.861191" style="stroke: #ffffff; stroke-width: 0.48"/>
     <use xlink:href="#mfba0e4d3c6" x="441.699074" y="50.832233" style="stroke: #ffffff; stroke-width: 0.48"/>
     <use xlink:href="#mfba0e4d3c6" x="446.040547" y="51.989529" style="stroke: #ffffff; stroke-width: 0.48"/>
     <use xlink:href="#mfba0e4d3c6" x="454.169636" y="60.733687" style="stroke: #ffffff; stroke-width: 0.48"/>
     <use xlink:href="#mfba0e4d3c6" x="454.244368" y="55.982386" style="stroke: #ffffff; stroke-width: 0.48"/>
     <use xlink:href="#mfba0e4d3c6" x="464.526483" y="64.276873" style="stroke: #ffffff; stroke-width: 0.48"/>
     <use xlink:href="#mfba0e4d3c6" x="464.874547" y="80.332698" style="stroke: #ffffff; stroke-width: 0.48"/>
     <use xlink:href="#mfba0e4d3c6" x="477.640451" y="94.630636" style="stroke: #ffffff; stroke-width: 0.48"/>
     <use xlink:href="#mfba0e4d3c6" x="480.721771" y="88.285307" style="stroke: #ffffff; stroke-width: 0.48"/>
     <use xlink:href="#mfba0e4d3c6" x="480.741946" y="90.604929" style="stroke: #ffffff; stroke-width: 0.48"/>
     <use xlink:href="#mfba0e4d3c6" x="483.111053" y="98.920518" style="stroke: #ffffff; stroke-width: 0.48"/>
     <use xlink:href="#mfba0e4d3c6" x="489.471775" y="111.412091" style="stroke: #ffffff; stroke-width: 0.48"/>
     <use xlink:href="#mfba0e4d3c6" x="493.199109" y="95.567009" style="stroke: #ffffff; stroke-width: 0.48"/>
     <use xlink:href="#mfba0e4d3c6" x="496.230556" y="106.331459" style="stroke: #ffffff; stroke-width: 0.48"/>
     <use xlink:href="#mfba0e4d3c6" x="497.946559" y="112.297046" style="stroke: #ffffff; stroke-width: 0.48"/>
    </g>
   </g>
   <g id="PolyCollection_1">
    <defs>
     <path id="mb2ae1fd9cf" d="M 395.567132 -314.626253 
L 395.567132 -272.673095 
L 395.981623 -272.845139 
L 396.396115 -273.014983 
L 396.810607 -273.18263 
L 397.225098 -273.348082 
L 397.63959 -273.511339 
L 398.054081 -273.672404 
L 398.468573 -273.831278 
L 398.883065 -273.987964 
L 399.297556 -274.142462 
L 399.712048 -274.294775 
L 400.126539 -274.444906 
L 400.541031 -274.592855 
L 400.955523 -274.738626 
L 401.370014 -274.88222 
L 401.784506 -275.02364 
L 402.198997 -275.162888 
L 402.613489 -275.299967 
L 403.027981 -275.43488 
L 403.442472 -275.567628 
L 403.856964 -275.698215 
L 404.271456 -275.826643 
L 404.685947 -275.952916 
L 405.100439 -276.077035 
L 405.51493 -276.199005 
L 405.929422 -276.318827 
L 406.343914 -276.436506 
L 406.758405 -276.552043 
L 407.172897 -276.665444 
L 407.587388 -276.77671 
L 408.00188 -276.885845 
L 408.416372 -276.992852 
L 408.830863 -277.097736 
L 409.245355 -277.200499 
L 409.659846 -277.301146 
L 410.074338 -277.399679 
L 410.48883 -277.496103 
L 410.903321 -277.590422 
L 411.317813 -277.682638 
L 411.732304 -277.772757 
L 412.146796 -277.860782 
L 412.561288 -277.946718 
L 412.975779 -278.030567 
L 413.390271 -278.112336 
L 413.804762 -278.192027 
L 414.219254 -278.269645 
L 414.633746 -278.345195 
L 415.048237 -278.41868 
L 415.462729 -278.490106 
L 415.877221 -278.559476 
L 416.291712 -278.626797 
L 416.706204 -278.692071 
L 417.120695 -278.755304 
L 417.535187 -278.8165 
L 417.949679 -278.875665 
L 418.36417 -278.932803 
L 418.778662 -278.98792 
L 419.193153 -279.041019 
L 419.607645 -279.092107 
L 420.022137 -279.141188 
L 420.436628 -279.188268 
L 420.85112 -279.233351 
L 421.265611 -279.276443 
L 421.680103 -279.317549 
L 422.094595 -279.356675 
L 422.509086 -279.393825 
L 422.923578 -279.429006 
L 423.338069 -279.462223 
L 423.752561 -279.493482 
L 424.167053 -279.522787 
L 424.581544 -279.550146 
L 424.996036 -279.575562 
L 425.410528 -279.599043 
L 425.825019 -279.620594 
L 426.239511 -279.640221 
L 426.654002 -279.65793 
L 427.068494 -279.673726 
L 427.482986 -279.687616 
L 427.897477 -279.699606 
L 428.311969 -279.709702 
L 428.72646 -279.717909 
L 429.140952 -279.724235 
L 429.555444 -279.728685 
L 429.969935 -279.731265 
L 430.384427 -279.731983 
L 430.798918 -279.730844 
L 431.21341 -279.727854 
L 431.627902 -279.723021 
L 432.042393 -279.71635 
L 432.456885 -279.707848 
L 432.871376 -279.697521 
L 433.285868 -279.685377 
L 433.70036 -279.671422 
L 434.114851 -279.655662 
L 434.529343 -279.638105 
L 434.943835 -279.618756 
L 435.358326 -279.597623 
L 435.772818 -279.574713 
L 436.187309 -279.550032 
L 436.601801 -279.523588 
L 437.016293 -279.495387 
L 437.430784 -279.465436 
L 437.845276 -279.433742 
L 438.259767 -279.400313 
L 438.674259 -279.365155 
L 439.088751 -279.328275 
L 439.503242 -279.289682 
L 439.917734 -279.24938 
L 440.332225 -279.207379 
L 440.746717 -279.163686 
L 441.161209 -279.118306 
L 441.5757 -279.071249 
L 441.990192 -279.022521 
L 442.404683 -278.972129 
L 442.819175 -278.920081 
L 443.233667 -278.866385 
L 443.648158 -278.811047 
L 444.06265 -278.754076 
L 444.477142 -278.695479 
L 444.891633 -278.635262 
L 445.306125 -278.573435 
L 445.720616 -278.510004 
L 446.135108 -278.444978 
L 446.5496 -278.378363 
L 446.964091 -278.310168 
L 447.378583 -278.240399 
L 447.793074 -278.169066 
L 448.207566 -278.096175 
L 448.622058 -278.021735 
L 449.036549 -277.945752 
L 449.451041 -277.868236 
L 449.865532 -277.789194 
L 450.280024 -277.708633 
L 450.694516 -277.626562 
L 451.109007 -277.542988 
L 451.523499 -277.45792 
L 451.93799 -277.371365 
L 452.352482 -277.283331 
L 452.766974 -277.193826 
L 453.181465 -277.102859 
L 453.595957 -277.010438 
L 454.010449 -276.916569 
L 454.42494 -276.821262 
L 454.839432 -276.724525 
L 455.253923 -276.626365 
L 455.668415 -276.526791 
L 456.082907 -276.42581 
L 456.497398 -276.323432 
L 456.91189 -276.219664 
L 457.326381 -276.114514 
L 457.740873 -276.007991 
L 458.155365 -275.900102 
L 458.569856 -275.790856 
L 458.984348 -275.680262 
L 459.398839 -275.568327 
L 459.813331 -275.455059 
L 460.227823 -275.340468 
L 460.642314 -275.22456 
L 461.056806 -275.107345 
L 461.471297 -274.988831 
L 461.885789 -274.869027 
L 462.300281 -274.747939 
L 462.714772 -274.625578 
L 463.129264 -274.50195 
L 463.543756 -274.377065 
L 463.958247 -274.250931 
L 464.372739 -274.123556 
L 464.78723 -273.994949 
L 465.201722 -273.865117 
L 465.616214 -273.73407 
L 466.030705 -273.601816 
L 466.445197 -273.468363 
L 466.859688 -273.33372 
L 467.27418 -273.197894 
L 467.688672 -273.060895 
L 468.103163 -272.922731 
L 468.517655 -272.78341 
L 468.932146 -272.642941 
L 469.346638 -272.501332 
L 469.76113 -272.358592 
L 470.175621 -272.214729 
L 470.590113 -272.069751 
L 471.004604 -271.923668 
L 471.419096 -271.776487 
L 471.833588 -271.628216 
L 472.248079 -271.478865 
L 472.662571 -271.328442 
L 473.077062 -271.176956 
L 473.491554 -271.024414 
L 473.906046 -270.870825 
L 474.320537 -270.716197 
L 474.735029 -270.56054 
L 475.149521 -270.403862 
L 475.564012 -270.24617 
L 475.978504 -270.087474 
L 476.392995 -269.927782 
L 476.807487 -269.767103 
L 477.221979 -269.605444 
L 477.63647 -269.442814 
L 478.050962 -269.279223 
L 478.465453 -269.114677 
L 478.879945 -268.949186 
L 479.294437 -268.782758 
L 479.708928 -268.615402 
L 480.12342 -268.447125 
L 480.537911 -268.277937 
L 480.952403 -268.107845 
L 481.366895 -267.936858 
L 481.781386 -267.764985 
L 482.195878 -267.592234 
L 482.610369 -267.418613 
L 483.024861 -267.244131 
L 483.439353 -267.068796 
L 483.853844 -266.892616 
L 484.268336 -266.7156 
L 484.682828 -266.537756 
L 485.097319 -266.359092 
L 485.511811 -266.179617 
L 485.926302 -265.99934 
L 486.340794 -265.818267 
L 486.755286 -265.636408 
L 487.169777 -265.453771 
L 487.584269 -265.270364 
L 487.99876 -265.086196 
L 488.413252 -264.901275 
L 488.827744 -264.715608 
L 489.242235 -264.529205 
L 489.656727 -264.342073 
L 490.071218 -264.154221 
L 490.48571 -263.965656 
L 490.900202 -263.776388 
L 491.314693 -263.586423 
L 491.729185 -263.395771 
L 492.143676 -263.20444 
L 492.558168 -263.012437 
L 492.97266 -262.81977 
L 493.387151 -262.626449 
L 493.801643 -262.43248 
L 494.216135 -262.237873 
L 494.630626 -262.042634 
L 495.045118 -261.846773 
L 495.459609 -261.650296 
L 495.874101 -261.453213 
L 496.288593 -261.255531 
L 496.703084 -261.057258 
L 497.117576 -260.858402 
L 497.532067 -260.65897 
L 497.946559 -260.458972 
L 497.946559 -252.026926 
L 497.946559 -252.026926 
L 497.532067 -252.389916 
L 497.117576 -252.752773 
L 496.703084 -253.11549 
L 496.288593 -253.478055 
L 495.874101 -253.84046 
L 495.459609 -254.202694 
L 495.045118 -254.564749 
L 494.630626 -254.926615 
L 494.216135 -255.288282 
L 493.801643 -255.649741 
L 493.387151 -256.010981 
L 492.97266 -256.371994 
L 492.558168 -256.732769 
L 492.143676 -257.093297 
L 491.729185 -257.453568 
L 491.314693 -257.813573 
L 490.900202 -258.173302 
L 490.48571 -258.532744 
L 490.071218 -258.891891 
L 489.656727 -259.250733 
L 489.242235 -259.609259 
L 488.827744 -259.967461 
L 488.413252 -260.325327 
L 487.99876 -260.68285 
L 487.584269 -261.040018 
L 487.169777 -261.396822 
L 486.755286 -261.753252 
L 486.340794 -262.109299 
L 485.926302 -262.464952 
L 485.511811 -262.820201 
L 485.097319 -263.175038 
L 484.682828 -263.529452 
L 484.268336 -263.883433 
L 483.853844 -264.236971 
L 483.439353 -264.590057 
L 483.024861 -264.94268 
L 482.610369 -265.294832 
L 482.195878 -265.646501 
L 481.781386 -265.997679 
L 481.366895 -266.348355 
L 480.952403 -266.698519 
L 480.537911 -267.048162 
L 480.12342 -267.397274 
L 479.708928 -267.745844 
L 479.294437 -268.093863 
L 478.879945 -268.441322 
L 478.465453 -268.78821 
L 478.050962 -269.134517 
L 477.63647 -269.480234 
L 477.221979 -269.825351 
L 476.807487 -270.169857 
L 476.392995 -270.513744 
L 475.978504 -270.857001 
L 475.564012 -271.199618 
L 475.149521 -271.541586 
L 474.735029 -271.882894 
L 474.320537 -272.223533 
L 473.906046 -272.563494 
L 473.491554 -272.902765 
L 473.077062 -273.241339 
L 472.662571 -273.579203 
L 472.248079 -273.91635 
L 471.833588 -274.252769 
L 471.419096 -274.58845 
L 471.004604 -274.923384 
L 470.590113 -275.257561 
L 470.175621 -275.59097 
L 469.76113 -275.923603 
L 469.346638 -276.25545 
L 468.932146 -276.586501 
L 468.517655 -276.916746 
L 468.103163 -277.246175 
L 467.688672 -277.57478 
L 467.27418 -277.902549 
L 466.859688 -278.229474 
L 466.445197 -278.555545 
L 466.030705 -278.880753 
L 465.616214 -279.205087 
L 465.201722 -279.528538 
L 464.78723 -279.851097 
L 464.372739 -280.172754 
L 463.958247 -280.493499 
L 463.543756 -280.813323 
L 463.129264 -281.132217 
L 462.714772 -281.45017 
L 462.300281 -281.767174 
L 461.885789 -282.083219 
L 461.471297 -282.398296 
L 461.056806 -282.712395 
L 460.642314 -283.025506 
L 460.227823 -283.337621 
L 459.813331 -283.64873 
L 459.398839 -283.958824 
L 458.984348 -284.267893 
L 458.569856 -284.575928 
L 458.155365 -284.88292 
L 457.740873 -285.18886 
L 457.326381 -285.493738 
L 456.91189 -285.797545 
L 456.497398 -286.100272 
L 456.082907 -286.40191 
L 455.668415 -286.70245 
L 455.253923 -287.001882 
L 454.839432 -287.300198 
L 454.42494 -287.597388 
L 454.010449 -287.893444 
L 453.595957 -288.188357 
L 453.181465 -288.482117 
L 452.766974 -288.774715 
L 452.352482 -289.066143 
L 451.93799 -289.356392 
L 451.523499 -289.645453 
L 451.109007 -289.933317 
L 450.694516 -290.219976 
L 450.280024 -290.50542 
L 449.865532 -290.789641 
L 449.451041 -291.07263 
L 449.036549 -291.354378 
L 448.622058 -291.634877 
L 448.207566 -291.914119 
L 447.793074 -292.192094 
L 447.378583 -292.468795 
L 446.964091 -292.744212 
L 446.5496 -293.018337 
L 446.135108 -293.291161 
L 445.720616 -293.562678 
L 445.306125 -293.832877 
L 444.891633 -294.101751 
L 444.477142 -294.369291 
L 444.06265 -294.635489 
L 443.648158 -294.900337 
L 443.233667 -295.163827 
L 442.819175 -295.42595 
L 442.404683 -295.686698 
L 441.990192 -295.946064 
L 441.5757 -296.20404 
L 441.161209 -296.460616 
L 440.746717 -296.715787 
L 440.332225 -296.969542 
L 439.917734 -297.221875 
L 439.503242 -297.472778 
L 439.088751 -297.722243 
L 438.674259 -297.970262 
L 438.259767 -298.216827 
L 437.845276 -298.461932 
L 437.430784 -298.705568 
L 437.016293 -298.947727 
L 436.601801 -299.188402 
L 436.187309 -299.427586 
L 435.772818 -299.665272 
L 435.358326 -299.901451 
L 434.943835 -300.136116 
L 434.529343 -300.369261 
L 434.114851 -300.600877 
L 433.70036 -300.830958 
L 433.285868 -301.059496 
L 432.871376 -301.286485 
L 432.456885 -301.511917 
L 432.042393 -301.735785 
L 431.627902 -301.958082 
L 431.21341 -302.178802 
L 430.798918 -302.397936 
L 430.384427 -302.61548 
L 429.969935 -302.831425 
L 429.555444 -303.045765 
L 429.140952 -303.258493 
L 428.72646 -303.469603 
L 428.311969 -303.679088 
L 427.897477 -303.886941 
L 427.482986 -304.093156 
L 427.068494 -304.297727 
L 426.654002 -304.500647 
L 426.239511 -304.70191 
L 425.825019 -304.901509 
L 425.410528 -305.099439 
L 424.996036 -305.295692 
L 424.581544 -305.490264 
L 424.167053 -305.683147 
L 423.752561 -305.874336 
L 423.338069 -306.063825 
L 422.923578 -306.251608 
L 422.509086 -306.437679 
L 422.094595 -306.622032 
L 421.680103 -306.804662 
L 421.265611 -306.985562 
L 420.85112 -307.164728 
L 420.436628 -307.342153 
L 420.022137 -307.517833 
L 419.607645 -307.69176 
L 419.193153 -307.863931 
L 418.778662 -308.03434 
L 418.36417 -308.202981 
L 417.949679 -308.369849 
L 417.535187 -308.53494 
L 417.120695 -308.698247 
L 416.706204 -308.859766 
L 416.291712 -309.019492 
L 415.877221 -309.177419 
L 415.462729 -309.333544 
L 415.048237 -309.487861 
L 414.633746 -309.640364 
L 414.219254 -309.791051 
L 413.804762 -309.939915 
L 413.390271 -310.086953 
L 412.975779 -310.232159 
L 412.561288 -310.37553 
L 412.146796 -310.517061 
L 411.732304 -310.656747 
L 411.317813 -310.794584 
L 410.903321 -310.930568 
L 410.48883 -311.064695 
L 410.074338 -311.19696 
L 409.659846 -311.32736 
L 409.245355 -311.455891 
L 408.830863 -311.582548 
L 408.416372 -311.707329 
L 408.00188 -311.830228 
L 407.587388 -311.951242 
L 407.172897 -312.070368 
L 406.758405 -312.187602 
L 406.343914 -312.30294 
L 405.929422 -312.416379 
L 405.51493 -312.527916 
L 405.100439 -312.637547 
L 404.685947 -312.745268 
L 404.271456 -312.851077 
L 403.856964 -312.954971 
L 403.442472 -313.056946 
L 403.027981 -313.156999 
L 402.613489 -313.255127 
L 402.198997 -313.351327 
L 401.784506 -313.445598 
L 401.370014 -313.537934 
L 400.955523 -313.628335 
L 400.541031 -313.716797 
L 400.126539 -313.803318 
L 399.712048 -313.887896 
L 399.297556 -313.970527 
L 398.883065 -314.051209 
L 398.468573 -314.12994 
L 398.054081 -314.206719 
L 397.63959 -314.281541 
L 397.225098 -314.354407 
L 396.810607 -314.425312 
L 396.396115 -314.494257 
L 395.981623 -314.561237 
L 395.567132 -314.626253 
z
" style="stroke: #2a2eec; stroke-opacity: 0.25"/>
    </defs>
    <g clip-path="url(#p95350a2cd9)">
     <use xlink:href="#mb2ae1fd9cf" x="0" y="353.99952" style="fill: #2a2eec; fill-opacity: 0.25; stroke: #2a2eec; stroke-opacity: 0.25"/>
    </g>
   </g>
   <g id="line2d_31">
    <path d="M 83.869442 221.452763 
L 94.231732 231.789554 
L 102.107073 239.34315 
L 108.738939 245.418219 
L 114.956313 250.818853 
L 120.759195 255.557815 
L 126.147586 259.66278 
L 131.121486 263.172865 
L 135.680893 266.1353 
L 140.240301 268.836756 
L 144.385217 271.053128 
L 148.530133 273.03017 
L 152.675049 274.757813 
L 156.819965 276.226839 
L 160.55039 277.320954 
L 164.280814 278.193443 
L 168.011239 278.839561 
L 171.741663 279.255246 
L 175.472088 279.437138 
L 179.202512 279.382599 
L 182.932937 279.089731 
L 186.663361 278.557387 
L 190.393786 277.785179 
L 194.12421 276.773488 
L 197.854635 275.523465 
L 201.585059 274.037028 
L 205.315483 272.316859 
L 209.045908 270.366399 
L 213.190824 267.93424 
L 217.33574 265.229749 
L 221.480656 262.260805 
L 226.040064 258.700204 
L 230.599472 254.843708 
L 235.158879 250.705983 
L 240.132779 245.890155 
L 245.521169 240.342769 
L 250.90956 234.481667 
L 257.126935 227.371381 
L 263.7588 219.43326 
L 271.219649 210.147385 
L 280.338465 198.424487 
L 295.260162 178.80671 
L 309.352877 160.399135 
L 318.471693 148.855177 
L 325.932542 139.756737 
L 332.564407 131.999905 
L 338.781781 125.057236 
L 344.584664 118.89874 
L 349.973055 113.482254 
L 355.361446 108.376349 
L 360.335345 103.953273 
L 365.309244 99.820143 
L 370.283144 95.98623 
L 374.842551 92.741028 
L 379.401959 89.757851 
L 383.961367 87.039768 
L 388.520774 84.588596 
L 393.080182 82.404928 
L 395.15264 81.500668 
L 395.567132 39.373267 
L 400.126539 40.196202 
L 404.685947 41.254252 
L 409.245355 42.543629 
L 413.804762 44.059605 
L 418.36417 45.796539 
L 423.338069 47.935695 
L 428.311969 50.320432 
L 433.285868 52.940024 
L 438.674259 56.029258 
L 444.477142 59.630229 
L 450.280024 63.4941 
L 456.497398 67.899248 
L 463.129264 72.867303 
L 470.590113 78.741959 
L 478.879945 85.558198 
L 488.827744 94.032059 
L 497.946559 101.972594 
L 497.946559 101.972594 
" clip-path="url(#p95350a2cd9)" style="fill: none; stroke: #000000; stroke-width: 1.5; stroke-linecap: round"/>
   </g>
   <g id="line2d_32">
    <path d="M 395.567132 81.326425 
L 399.712048 79.704745 
L 403.856964 78.301305 
L 408.00188 77.113675 
L 412.146796 76.138738 
L 416.291712 75.372723 
L 420.85112 74.766169 
L 425.410528 74.400477 
L 429.969935 74.268255 
L 434.529343 74.361415 
L 439.088751 74.671245 
L 444.06265 75.245444 
L 449.036549 76.053768 
L 454.010449 77.082951 
L 459.398839 78.431193 
L 464.78723 80.004571 
L 470.590113 81.929769 
L 476.807487 84.232417 
L 483.439353 86.930724 
L 490.48571 90.033864 
L 497.946559 93.540548 
L 497.946559 93.540548 
" clip-path="url(#p95350a2cd9)" style="fill: none; stroke-dasharray: 1.5,2.475; stroke-dashoffset: 0; stroke: #000000; stroke-width: 1.5"/>
   </g>
   <g id="line2d_33">
    <path d="M 395.357304 311.304146 
L 395.357304 25.286312 
" clip-path="url(#p95350a2cd9)" style="fill: none; stroke: #ff0000; stroke-width: 3; stroke-linecap: round"/>
   </g>
   <g id="patch_3">
    <path d="M 63.165586 311.304146 
L 63.165586 25.286312 
" style="fill: none"/>
   </g>
   <g id="patch_4">
    <path d="M 518.650415 311.304146 
L 518.650415 25.286312 
" style="fill: none"/>
   </g>
   <g id="patch_5">
    <path d="M 63.165586 311.304146 
L 518.650415 311.304146 
" style="fill: none"/>
   </g>
   <g id="patch_6">
    <path d="M 63.165586 25.286312 
L 518.650415 25.286312 
" style="fill: none"/>
   </g>
   <g id="text_18">
    <!-- $R^2$ on all data = 0.985 -->
    <g style="fill: #262626" transform="translate(201.308001 19.286312) scale(0.16 -0.16)">
     <defs>
      <path id="DejaVuSans-Oblique-52" d="M 1613 4147 
L 1294 2491 
L 2106 2491 
Q 2584 2491 2879 2755 
Q 3175 3019 3175 3444 
Q 3175 3784 2976 3965 
Q 2778 4147 2406 4147 
L 1613 4147 
z
M 2772 2241 
Q 2972 2194 3105 2009 
Q 3238 1825 3413 1275 
L 3809 0 
L 3144 0 
L 2778 1197 
Q 2638 1659 2453 1815 
Q 2269 1972 1888 1972 
L 1191 1972 
L 806 0 
L 172 0 
L 1081 4666 
L 2503 4666 
Q 3150 4666 3495 4373 
Q 3841 4081 3841 3531 
Q 3841 3044 3547 2687 
Q 3253 2331 2772 2241 
z
" transform="scale(0.015625)"/>
      <path id="DejaVuSans-20" transform="scale(0.015625)"/>
      <path id="DejaVuSans-6f" d="M 1959 3097 
Q 1497 3097 1228 2736 
Q 959 2375 959 1747 
Q 959 1119 1226 758 
Q 1494 397 1959 397 
Q 2419 397 2687 759 
Q 2956 1122 2956 1747 
Q 2956 2369 2687 2733 
Q 2419 3097 1959 3097 
z
M 1959 3584 
Q 2709 3584 3137 3096 
Q 3566 2609 3566 1747 
Q 3566 888 3137 398 
Q 2709 -91 1959 -91 
Q 1206 -91 779 398 
Q 353 888 353 1747 
Q 353 2609 779 3096 
Q 1206 3584 1959 3584 
z
" transform="scale(0.015625)"/>
      <path id="DejaVuSans-6e" d="M 3513 2113 
L 3513 0 
L 2938 0 
L 2938 2094 
Q 2938 2591 2744 2837 
Q 2550 3084 2163 3084 
Q 1697 3084 1428 2787 
Q 1159 2491 1159 1978 
L 1159 0 
L 581 0 
L 581 3500 
L 1159 3500 
L 1159 2956 
Q 1366 3272 1645 3428 
Q 1925 3584 2291 3584 
Q 2894 3584 3203 3211 
Q 3513 2838 3513 2113 
z
" transform="scale(0.015625)"/>
      <path id="DejaVuSans-61" d="M 2194 1759 
Q 1497 1759 1228 1600 
Q 959 1441 959 1056 
Q 959 750 1161 570 
Q 1363 391 1709 391 
Q 2188 391 2477 730 
Q 2766 1069 2766 1631 
L 2766 1759 
L 2194 1759 
z
M 3341 1997 
L 3341 0 
L 2766 0 
L 2766 531 
Q 2569 213 2275 61 
Q 1981 -91 1556 -91 
Q 1019 -91 701 211 
Q 384 513 384 1019 
Q 384 1609 779 1909 
Q 1175 2209 1959 2209 
L 2766 2209 
L 2766 2266 
Q 2766 2663 2505 2880 
Q 2244 3097 1772 3097 
Q 1472 3097 1187 3025 
Q 903 2953 641 2809 
L 641 3341 
Q 956 3463 1253 3523 
Q 1550 3584 1831 3584 
Q 2591 3584 2966 3190 
Q 3341 2797 3341 1997 
z
" transform="scale(0.015625)"/>
      <path id="DejaVuSans-6c" d="M 603 4863 
L 1178 4863 
L 1178 0 
L 603 0 
L 603 4863 
z
" transform="scale(0.015625)"/>
      <path id="DejaVuSans-64" d="M 2906 2969 
L 2906 4863 
L 3481 4863 
L 3481 0 
L 2906 0 
L 2906 525 
Q 2725 213 2448 61 
Q 2172 -91 1784 -91 
Q 1150 -91 751 415 
Q 353 922 353 1747 
Q 353 2572 751 3078 
Q 1150 3584 1784 3584 
Q 2172 3584 2448 3432 
Q 2725 3281 2906 2969 
z
M 947 1747 
Q 947 1113 1208 752 
Q 1469 391 1925 391 
Q 2381 391 2643 752 
Q 2906 1113 2906 1747 
Q 2906 2381 2643 2742 
Q 2381 3103 1925 3103 
Q 1469 3103 1208 2742 
Q 947 2381 947 1747 
z
" transform="scale(0.015625)"/>
      <path id="DejaVuSans-74" d="M 1172 4494 
L 1172 3500 
L 2356 3500 
L 2356 3053 
L 1172 3053 
L 1172 1153 
Q 1172 725 1289 603 
Q 1406 481 1766 481 
L 2356 481 
L 2356 0 
L 1766 0 
Q 1100 0 847 248 
Q 594 497 594 1153 
L 594 3053 
L 172 3053 
L 172 3500 
L 594 3500 
L 594 4494 
L 1172 4494 
z
" transform="scale(0.015625)"/>
      <path id="DejaVuSans-3d" d="M 678 2906 
L 4684 2906 
L 4684 2381 
L 678 2381 
L 678 2906 
z
M 678 1631 
L 4684 1631 
L 4684 1100 
L 678 1100 
L 678 1631 
z
" transform="scale(0.015625)"/>
      <path id="DejaVuSans-39" d="M 703 97 
L 703 672 
Q 941 559 1184 500 
Q 1428 441 1663 441 
Q 2288 441 2617 861 
Q 2947 1281 2994 2138 
Q 2813 1869 2534 1725 
Q 2256 1581 1919 1581 
Q 1219 1581 811 2004 
Q 403 2428 403 3163 
Q 403 3881 828 4315 
Q 1253 4750 1959 4750 
Q 2769 4750 3195 4129 
Q 3622 3509 3622 2328 
Q 3622 1225 3098 567 
Q 2575 -91 1691 -91 
Q 1453 -91 1209 -44 
Q 966 3 703 97 
z
M 1959 2075 
Q 2384 2075 2632 2365 
Q 2881 2656 2881 3163 
Q 2881 3666 2632 3958 
Q 2384 4250 1959 4250 
Q 1534 4250 1286 3958 
Q 1038 3666 1038 3163 
Q 1038 2656 1286 2365 
Q 1534 2075 1959 2075 
z
" transform="scale(0.015625)"/>
      <path id="DejaVuSans-38" d="M 2034 2216 
Q 1584 2216 1326 1975 
Q 1069 1734 1069 1313 
Q 1069 891 1326 650 
Q 1584 409 2034 409 
Q 2484 409 2743 651 
Q 3003 894 3003 1313 
Q 3003 1734 2745 1975 
Q 2488 2216 2034 2216 
z
M 1403 2484 
Q 997 2584 770 2862 
Q 544 3141 544 3541 
Q 544 4100 942 4425 
Q 1341 4750 2034 4750 
Q 2731 4750 3128 4425 
Q 3525 4100 3525 3541 
Q 3525 3141 3298 2862 
Q 3072 2584 2669 2484 
Q 3125 2378 3379 2068 
Q 3634 1759 3634 1313 
Q 3634 634 3220 271 
Q 2806 -91 2034 -91 
Q 1263 -91 848 271 
Q 434 634 434 1313 
Q 434 1759 690 2068 
Q 947 2378 1403 2484 
z
M 1172 3481 
Q 1172 3119 1398 2916 
Q 1625 2713 2034 2713 
Q 2441 2713 2670 2916 
Q 2900 3119 2900 3481 
Q 2900 3844 2670 4047 
Q 2441 4250 2034 4250 
Q 1625 4250 1398 4047 
Q 1172 3844 1172 3481 
z
" transform="scale(0.015625)"/>
     </defs>
     <use xlink:href="#DejaVuSans-Oblique-52" transform="translate(0 0.765625)"/>
     <use xlink:href="#DejaVuSans-32" transform="translate(76.499193 39.046875) scale(0.7)"/>
     <use xlink:href="#DejaVuSans-20" transform="translate(123.769701 0.765625)"/>
     <use xlink:href="#DejaVuSans-6f" transform="translate(155.55681 0.765625)"/>
     <use xlink:href="#DejaVuSans-6e" transform="translate(216.738451 0.765625)"/>
     <use xlink:href="#DejaVuSans-20" transform="translate(280.117357 0.765625)"/>
     <use xlink:href="#DejaVuSans-61" transform="translate(311.904466 0.765625)"/>
     <use xlink:href="#DejaVuSans-6c" transform="translate(373.183763 0.765625)"/>
     <use xlink:href="#DejaVuSans-6c" transform="translate(400.966966 0.765625)"/>
     <use xlink:href="#DejaVuSans-20" transform="translate(428.750169 0.765625)"/>
     <use xlink:href="#DejaVuSans-64" transform="translate(460.537279 0.765625)"/>
     <use xlink:href="#DejaVuSans-61" transform="translate(524.013841 0.765625)"/>
     <use xlink:href="#DejaVuSans-74" transform="translate(585.293138 0.765625)"/>
     <use xlink:href="#DejaVuSans-61" transform="translate(624.502122 0.765625)"/>
     <use xlink:href="#DejaVuSans-20" transform="translate(685.781419 0.765625)"/>
     <use xlink:href="#DejaVuSans-3d" transform="translate(717.568529 0.765625)"/>
     <use xlink:href="#DejaVuSans-20" transform="translate(801.357591 0.765625)"/>
     <use xlink:href="#DejaVuSans-30" transform="translate(833.144701 0.765625)"/>
     <use xlink:href="#DejaVuSans-2e" transform="translate(896.767747 0.765625)"/>
     <use xlink:href="#DejaVuSans-39" transform="translate(928.554857 0.765625)"/>
     <use xlink:href="#DejaVuSans-38" transform="translate(992.177904 0.765625)"/>
     <use xlink:href="#DejaVuSans-35" transform="translate(1055.800951 0.765625)"/>
    </g>
   </g>
   <g id="legend_1">
    <g id="line2d_34">
     <path d="M 73.965586 41.004437 
L 85.965586 41.004437 
L 97.965586 41.004437 
" style="fill: none; stroke: #000000; stroke-width: 1.5; stroke-linecap: round"/>
    </g>
    <g id="text_19">
     <!-- model fit -->
     <g style="fill: #262626" transform="translate(107.565586 45.204437) scale(0.12 -0.12)">
      <defs>
       <path id="DejaVuSans-6d" d="M 3328 2828 
Q 3544 3216 3844 3400 
Q 4144 3584 4550 3584 
Q 5097 3584 5394 3201 
Q 5691 2819 5691 2113 
L 5691 0 
L 5113 0 
L 5113 2094 
Q 5113 2597 4934 2840 
Q 4756 3084 4391 3084 
Q 3944 3084 3684 2787 
Q 3425 2491 3425 1978 
L 3425 0 
L 2847 0 
L 2847 2094 
Q 2847 2600 2669 2842 
Q 2491 3084 2119 3084 
Q 1678 3084 1418 2786 
Q 1159 2488 1159 1978 
L 1159 0 
L 581 0 
L 581 3500 
L 1159 3500 
L 1159 2956 
Q 1356 3278 1631 3431 
Q 1906 3584 2284 3584 
Q 2666 3584 2933 3390 
Q 3200 3197 3328 2828 
z
" transform="scale(0.015625)"/>
       <path id="DejaVuSans-65" d="M 3597 1894 
L 3597 1613 
L 953 1613 
Q 991 1019 1311 708 
Q 1631 397 2203 397 
Q 2534 397 2845 478 
Q 3156 559 3463 722 
L 3463 178 
Q 3153 47 2828 -22 
Q 2503 -91 2169 -91 
Q 1331 -91 842 396 
Q 353 884 353 1716 
Q 353 2575 817 3079 
Q 1281 3584 2069 3584 
Q 2775 3584 3186 3129 
Q 3597 2675 3597 1894 
z
M 3022 2063 
Q 3016 2534 2758 2815 
Q 2500 3097 2075 3097 
Q 1594 3097 1305 2825 
Q 1016 2553 972 2059 
L 3022 2063 
z
" transform="scale(0.015625)"/>
       <path id="DejaVuSans-66" d="M 2375 4863 
L 2375 4384 
L 1825 4384 
Q 1516 4384 1395 4259 
Q 1275 4134 1275 3809 
L 1275 3500 
L 2222 3500 
L 2222 3053 
L 1275 3053 
L 1275 0 
L 697 0 
L 697 3053 
L 147 3053 
L 147 3500 
L 697 3500 
L 697 3744 
Q 697 4328 969 4595 
Q 1241 4863 1831 4863 
L 2375 4863 
z
" transform="scale(0.015625)"/>
       <path id="DejaVuSans-69" d="M 603 3500 
L 1178 3500 
L 1178 0 
L 603 0 
L 603 3500 
z
M 603 4863 
L 1178 4863 
L 1178 4134 
L 603 4134 
L 603 4863 
z
" transform="scale(0.015625)"/>
      </defs>
      <use xlink:href="#DejaVuSans-6d"/>
      <use xlink:href="#DejaVuSans-6f" x="97.412109"/>
      <use xlink:href="#DejaVuSans-64" x="158.59375"/>
      <use xlink:href="#DejaVuSans-65" x="222.070312"/>
      <use xlink:href="#DejaVuSans-6c" x="283.59375"/>
      <use xlink:href="#DejaVuSans-20" x="311.376953"/>
      <use xlink:href="#DejaVuSans-66" x="343.164062"/>
      <use xlink:href="#DejaVuSans-69" x="378.369141"/>
      <use xlink:href="#DejaVuSans-74" x="406.152344"/>
     </g>
    </g>
    <g id="line2d_35">
     <path d="M 73.965586 58.618187 
L 85.965586 58.618187 
L 97.965586 58.618187 
" style="fill: none; stroke-dasharray: 1.5,2.475; stroke-dashoffset: 0; stroke: #000000; stroke-width: 1.5"/>
    </g>
    <g id="text_20">
     <!-- counterfactual -->
     <g style="fill: #262626" transform="translate(107.565586 62.818187) scale(0.12 -0.12)">
      <defs>
       <path id="DejaVuSans-63" d="M 3122 3366 
L 3122 2828 
Q 2878 2963 2633 3030 
Q 2388 3097 2138 3097 
Q 1578 3097 1268 2742 
Q 959 2388 959 1747 
Q 959 1106 1268 751 
Q 1578 397 2138 397 
Q 2388 397 2633 464 
Q 2878 531 3122 666 
L 3122 134 
Q 2881 22 2623 -34 
Q 2366 -91 2075 -91 
Q 1284 -91 818 406 
Q 353 903 353 1747 
Q 353 2603 823 3093 
Q 1294 3584 2113 3584 
Q 2378 3584 2631 3529 
Q 2884 3475 3122 3366 
z
" transform="scale(0.015625)"/>
       <path id="DejaVuSans-75" d="M 544 1381 
L 544 3500 
L 1119 3500 
L 1119 1403 
Q 1119 906 1312 657 
Q 1506 409 1894 409 
Q 2359 409 2629 706 
Q 2900 1003 2900 1516 
L 2900 3500 
L 3475 3500 
L 3475 0 
L 2900 0 
L 2900 538 
Q 2691 219 2414 64 
Q 2138 -91 1772 -91 
Q 1169 -91 856 284 
Q 544 659 544 1381 
z
M 1991 3584 
L 1991 3584 
z
" transform="scale(0.015625)"/>
       <path id="DejaVuSans-72" d="M 2631 2963 
Q 2534 3019 2420 3045 
Q 2306 3072 2169 3072 
Q 1681 3072 1420 2755 
Q 1159 2438 1159 1844 
L 1159 0 
L 581 0 
L 581 3500 
L 1159 3500 
L 1159 2956 
Q 1341 3275 1631 3429 
Q 1922 3584 2338 3584 
Q 2397 3584 2469 3576 
Q 2541 3569 2628 3553 
L 2631 2963 
z
" transform="scale(0.015625)"/>
      </defs>
      <use xlink:href="#DejaVuSans-63"/>
      <use xlink:href="#DejaVuSans-6f" x="54.980469"/>
      <use xlink:href="#DejaVuSans-75" x="116.162109"/>
      <use xlink:href="#DejaVuSans-6e" x="179.541016"/>
      <use xlink:href="#DejaVuSans-74" x="242.919922"/>
      <use xlink:href="#DejaVuSans-65" x="282.128906"/>
      <use xlink:href="#DejaVuSans-72" x="343.652344"/>
      <use xlink:href="#DejaVuSans-66" x="384.765625"/>
      <use xlink:href="#DejaVuSans-61" x="419.970703"/>
      <use xlink:href="#DejaVuSans-63" x="481.25"/>
      <use xlink:href="#DejaVuSans-74" x="536.230469"/>
      <use xlink:href="#DejaVuSans-75" x="575.439453"/>
      <use xlink:href="#DejaVuSans-61" x="638.818359"/>
      <use xlink:href="#DejaVuSans-6c" x="700.097656"/>
     </g>
    </g>
    <g id="patch_7">
     <path d="M 73.965586 80.431937 
L 97.965586 80.431937 
L 97.965586 72.031937 
L 73.965586 72.031937 
z
" style="fill: #2a2eec; fill-opacity: 0.25; stroke: #2a2eec; stroke-opacity: 0.25; stroke-linejoin: miter"/>
    </g>
    <g id="text_21">
     <!-- inferred causal impact -->
     <g style="fill: #262626" transform="translate(107.565586 80.431937) scale(0.12 -0.12)">
      <defs>
       <path id="DejaVuSans-73" d="M 2834 3397 
L 2834 2853 
Q 2591 2978 2328 3040 
Q 2066 3103 1784 3103 
Q 1356 3103 1142 2972 
Q 928 2841 928 2578 
Q 928 2378 1081 2264 
Q 1234 2150 1697 2047 
L 1894 2003 
Q 2506 1872 2764 1633 
Q 3022 1394 3022 966 
Q 3022 478 2636 193 
Q 2250 -91 1575 -91 
Q 1294 -91 989 -36 
Q 684 19 347 128 
L 347 722 
Q 666 556 975 473 
Q 1284 391 1588 391 
Q 1994 391 2212 530 
Q 2431 669 2431 922 
Q 2431 1156 2273 1281 
Q 2116 1406 1581 1522 
L 1381 1569 
Q 847 1681 609 1914 
Q 372 2147 372 2553 
Q 372 3047 722 3315 
Q 1072 3584 1716 3584 
Q 2034 3584 2315 3537 
Q 2597 3491 2834 3397 
z
" transform="scale(0.015625)"/>
       <path id="DejaVuSans-70" d="M 1159 525 
L 1159 -1331 
L 581 -1331 
L 581 3500 
L 1159 3500 
L 1159 2969 
Q 1341 3281 1617 3432 
Q 1894 3584 2278 3584 
Q 2916 3584 3314 3078 
Q 3713 2572 3713 1747 
Q 3713 922 3314 415 
Q 2916 -91 2278 -91 
Q 1894 -91 1617 61 
Q 1341 213 1159 525 
z
M 3116 1747 
Q 3116 2381 2855 2742 
Q 2594 3103 2138 3103 
Q 1681 3103 1420 2742 
Q 1159 2381 1159 1747 
Q 1159 1113 1420 752 
Q 1681 391 2138 391 
Q 2594 391 2855 752 
Q 3116 1113 3116 1747 
z
" transform="scale(0.015625)"/>
      </defs>
      <use xlink:href="#DejaVuSans-69"/>
      <use xlink:href="#DejaVuSans-6e" x="27.783203"/>
      <use xlink:href="#DejaVuSans-66" x="91.162109"/>
      <use xlink:href="#DejaVuSans-65" x="126.367188"/>
      <use xlink:href="#DejaVuSans-72" x="187.890625"/>
      <use xlink:href="#DejaVuSans-72" x="227.253906"/>
      <use xlink:href="#DejaVuSans-65" x="266.117188"/>
      <use xlink:href="#DejaVuSans-64" x="327.640625"/>
      <use xlink:href="#DejaVuSans-20" x="391.117188"/>
      <use xlink:href="#DejaVuSans-63" x="422.904297"/>
      <use xlink:href="#DejaVuSans-61" x="477.884766"/>
      <use xlink:href="#DejaVuSans-75" x="539.164062"/>
      <use xlink:href="#DejaVuSans-73" x="602.542969"/>
      <use xlink:href="#DejaVuSans-61" x="654.642578"/>
      <use xlink:href="#DejaVuSans-6c" x="715.921875"/>
      <use xlink:href="#DejaVuSans-20" x="743.705078"/>
      <use xlink:href="#DejaVuSans-69" x="775.492188"/>
      <use xlink:href="#DejaVuSans-6d" x="803.275391"/>
      <use xlink:href="#DejaVuSans-70" x="900.6875"/>
      <use xlink:href="#DejaVuSans-61" x="964.164062"/>
      <use xlink:href="#DejaVuSans-63" x="1025.443359"/>
      <use xlink:href="#DejaVuSans-74" x="1080.423828"/>
     </g>
    </g>
    <g id="line2d_36">
     <path d="M 73.965586 93.845687 
L 85.965586 93.845687 
L 97.965586 93.845687 
" style="fill: none; stroke: #ff0000; stroke-width: 3; stroke-linecap: round"/>
    </g>
    <g id="text_22">
     <!-- treatment threshold -->
     <g style="fill: #262626" transform="translate(107.565586 98.045687) scale(0.12 -0.12)">
      <defs>
       <path id="DejaVuSans-68" d="M 3513 2113 
L 3513 0 
L 2938 0 
L 2938 2094 
Q 2938 2591 2744 2837 
Q 2550 3084 2163 3084 
Q 1697 3084 1428 2787 
Q 1159 2491 1159 1978 
L 1159 0 
L 581 0 
L 581 4863 
L 1159 4863 
L 1159 2956 
Q 1366 3272 1645 3428 
Q 1925 3584 2291 3584 
Q 2894 3584 3203 3211 
Q 3513 2838 3513 2113 
z
" transform="scale(0.015625)"/>
      </defs>
      <use xlink:href="#DejaVuSans-74"/>
      <use xlink:href="#DejaVuSans-72" x="39.208984"/>
      <use xlink:href="#DejaVuSans-65" x="78.072266"/>
      <use xlink:href="#DejaVuSans-61" x="139.595703"/>
      <use xlink:href="#DejaVuSans-74" x="200.875"/>
      <use xlink:href="#DejaVuSans-6d" x="240.083984"/>
      <use xlink:href="#DejaVuSans-65" x="337.496094"/>
      <use xlink:href="#DejaVuSans-6e" x="399.019531"/>
      <use xlink:href="#DejaVuSans-74" x="462.398438"/>
      <use xlink:href="#DejaVuSans-20" x="501.607422"/>
      <use xlink:href="#DejaVuSans-74" x="533.394531"/>
      <use xlink:href="#DejaVuSans-68" x="572.603516"/>
      <use xlink:href="#DejaVuSans-72" x="635.982422"/>
      <use xlink:href="#DejaVuSans-65" x="674.845703"/>
      <use xlink:href="#DejaVuSans-73" x="736.369141"/>
      <use xlink:href="#DejaVuSans-68" x="788.46875"/>
      <use xlink:href="#DejaVuSans-6f" x="851.847656"/>
      <use xlink:href="#DejaVuSans-6c" x="913.029297"/>
      <use xlink:href="#DejaVuSans-64" x="940.8125"/>
     </g>
    </g>
   </g>
  </g>
 </g>
 <defs>
  <clipPath id="p95350a2cd9">
   <rect x="63.165586" y="25.286312" width="455.484828" height="286.017834"/>
  </clipPath>
 </defs>
</svg>
