<?xml version="1.0" encoding="utf-8" standalone="no"?>
<!DOCTYPE svg PUBLIC "-//W3C//DTD SVG 1.1//EN"
  "http://www.w3.org/Graphics/SVG/1.1/DTD/svg11.dtd">
<svg xmlns:xlink="http://www.w3.org/1999/xlink" width="512.39952pt" height="584.39952pt" viewBox="0 0 512.39952 584.39952" xmlns="http://www.w3.org/2000/svg" version="1.1">
 <metadata>
  <rdf:RDF xmlns:dc="http://purl.org/dc/elements/1.1/" xmlns:cc="http://creativecommons.org/ns#" xmlns:rdf="http://www.w3.org/1999/02/22-rdf-syntax-ns#">
   <cc:Work>
    <dc:type rdf:resource="http://purl.org/dc/dcmitype/StillImage"/>
    <dc:date>2022-10-28T14:11:37.861541</dc:date>
    <dc:format>image/svg+xml</dc:format>
    <dc:creator>
     <cc:Agent>
      <dc:title>Matplotlib v3.6.1, https://matplotlib.org/</dc:title>
     </cc:Agent>
    </dc:creator>
   </cc:Work>
  </rdf:RDF>
 </metadata>
 <defs>
  <style type="text/css">*{stroke-linejoin: round; stroke-linecap: butt}</style>
 </defs>
 <g id="figure_1">
  <g id="patch_1">
   <path d="M 0 584.39952 
L 512.39952 584.39952 
L 512.39952 0 
L 0 0 
z
" style="fill: #ffffff"/>
  </g>
  <g id="axes_1">
   <g id="patch_2">
    <path d="M 40.197381 189.161184 
L 505.248701 189.161184 
L 505.248701 27.716878 
L 40.197381 27.716878 
z
" style="fill: #eeeeee"/>
   </g>
   <g id="matplotlib.axis_1">
    <g id="xtick_1">
     <g id="line2d_1">
      <path d="M 61.336077 189.161184 
L 61.336077 27.716878 
" clip-path="url(#pd8bcb7e5a3)" style="fill: none; stroke: #ffffff; stroke-width: 0.8; stroke-linecap: round"/>
     </g>
     <g id="line2d_2"/>
    </g>
    <g id="xtick_2">
     <g id="line2d_3">
      <path d="M 146.744952 189.161184 
L 146.744952 27.716878 
" clip-path="url(#pd8bcb7e5a3)" style="fill: none; stroke: #ffffff; stroke-width: 0.8; stroke-linecap: round"/>
     </g>
     <g id="line2d_4"/>
    </g>
    <g id="xtick_3">
     <g id="line2d_5">
      <path d="M 232.153826 189.161184 
L 232.153826 27.716878 
" clip-path="url(#pd8bcb7e5a3)" style="fill: none; stroke: #ffffff; stroke-width: 0.8; stroke-linecap: round"/>
     </g>
     <g id="line2d_6"/>
    </g>
    <g id="xtick_4">
     <g id="line2d_7">
      <path d="M 317.5627 189.161184 
L 317.5627 27.716878 
" clip-path="url(#pd8bcb7e5a3)" style="fill: none; stroke: #ffffff; stroke-width: 0.8; stroke-linecap: round"/>
     </g>
     <g id="line2d_8"/>
    </g>
    <g id="xtick_5">
     <g id="line2d_9">
      <path d="M 402.971575 189.161184 
L 402.971575 27.716878 
" clip-path="url(#pd8bcb7e5a3)" style="fill: none; stroke: #ffffff; stroke-width: 0.8; stroke-linecap: round"/>
     </g>
     <g id="line2d_10"/>
    </g>
    <g id="xtick_6">
     <g id="line2d_11">
      <path d="M 488.380449 189.161184 
L 488.380449 27.716878 
" clip-path="url(#pd8bcb7e5a3)" style="fill: none; stroke: #ffffff; stroke-width: 0.8; stroke-linecap: round"/>
     </g>
     <g id="line2d_12"/>
    </g>
   </g>
   <g id="matplotlib.axis_2">
    <g id="ytick_1">
     <g id="line2d_13">
      <path d="M 40.197381 161.936402 
L 505.248701 161.936402 
" clip-path="url(#pd8bcb7e5a3)" style="fill: none; stroke: #ffffff; stroke-width: 0.8; stroke-linecap: round"/>
     </g>
     <g id="line2d_14"/>
     <g id="text_1">
      <!-- 0 -->
      <g style="fill: #262626" transform="translate(27.789881 167.255309) scale(0.14 -0.14)">
       <defs>
        <path id="DejaVuSans-30" d="M 2034 4250 
Q 1547 4250 1301 3770 
Q 1056 3291 1056 2328 
Q 1056 1369 1301 889 
Q 1547 409 2034 409 
Q 2525 409 2770 889 
Q 3016 1369 3016 2328 
Q 3016 3291 2770 3770 
Q 2525 4250 2034 4250 
z
M 2034 4750 
Q 2819 4750 3233 4129 
Q 3647 3509 3647 2328 
Q 3647 1150 3233 529 
Q 2819 -91 2034 -91 
Q 1250 -91 836 529 
Q 422 1150 422 2328 
Q 422 3509 836 4129 
Q 1250 4750 2034 4750 
z
" transform="scale(0.015625)"/>
       </defs>
       <use xlink:href="#DejaVuSans-30"/>
      </g>
     </g>
    </g>
    <g id="ytick_2">
     <g id="line2d_15">
      <path d="M 40.197381 128.013313 
L 505.248701 128.013313 
" clip-path="url(#pd8bcb7e5a3)" style="fill: none; stroke: #ffffff; stroke-width: 0.8; stroke-linecap: round"/>
     </g>
     <g id="line2d_16"/>
     <g id="text_2">
      <!-- 10 -->
      <g style="fill: #262626" transform="translate(18.882381 133.33222) scale(0.14 -0.14)">
       <defs>
        <path id="DejaVuSans-31" d="M 794 531 
L 1825 531 
L 1825 4091 
L 703 3866 
L 703 4441 
L 1819 4666 
L 2450 4666 
L 2450 531 
L 3481 531 
L 3481 0 
L 794 0 
L 794 531 
z
" transform="scale(0.015625)"/>
       </defs>
       <use xlink:href="#DejaVuSans-31"/>
       <use xlink:href="#DejaVuSans-30" x="63.623047"/>
      </g>
     </g>
    </g>
    <g id="ytick_3">
     <g id="line2d_17">
      <path d="M 40.197381 94.090224 
L 505.248701 94.090224 
" clip-path="url(#pd8bcb7e5a3)" style="fill: none; stroke: #ffffff; stroke-width: 0.8; stroke-linecap: round"/>
     </g>
     <g id="line2d_18"/>
     <g id="text_3">
      <!-- 20 -->
      <g style="fill: #262626" transform="translate(18.882381 99.409131) scale(0.14 -0.14)">
       <defs>
        <path id="DejaVuSans-32" d="M 1228 531 
L 3431 531 
L 3431 0 
L 469 0 
L 469 531 
Q 828 903 1448 1529 
Q 2069 2156 2228 2338 
Q 2531 2678 2651 2914 
Q 2772 3150 2772 3378 
Q 2772 3750 2511 3984 
Q 2250 4219 1831 4219 
Q 1534 4219 1204 4116 
Q 875 4013 500 3803 
L 500 4441 
Q 881 4594 1212 4672 
Q 1544 4750 1819 4750 
Q 2544 4750 2975 4387 
Q 3406 4025 3406 3419 
Q 3406 3131 3298 2873 
Q 3191 2616 2906 2266 
Q 2828 2175 2409 1742 
Q 1991 1309 1228 531 
z
" transform="scale(0.015625)"/>
       </defs>
       <use xlink:href="#DejaVuSans-32"/>
       <use xlink:href="#DejaVuSans-30" x="63.623047"/>
      </g>
     </g>
    </g>
    <g id="ytick_4">
     <g id="line2d_19">
      <path d="M 40.197381 60.167135 
L 505.248701 60.167135 
" clip-path="url(#pd8bcb7e5a3)" style="fill: none; stroke: #ffffff; stroke-width: 0.8; stroke-linecap: round"/>
     </g>
     <g id="line2d_20"/>
     <g id="text_4">
      <!-- 30 -->
      <g style="fill: #262626" transform="translate(18.882381 65.486042) scale(0.14 -0.14)">
       <defs>
        <path id="DejaVuSans-33" d="M 2597 2516 
Q 3050 2419 3304 2112 
Q 3559 1806 3559 1356 
Q 3559 666 3084 287 
Q 2609 -91 1734 -91 
Q 1441 -91 1130 -33 
Q 819 25 488 141 
L 488 750 
Q 750 597 1062 519 
Q 1375 441 1716 441 
Q 2309 441 2620 675 
Q 2931 909 2931 1356 
Q 2931 1769 2642 2001 
Q 2353 2234 1838 2234 
L 1294 2234 
L 1294 2753 
L 1863 2753 
Q 2328 2753 2575 2939 
Q 2822 3125 2822 3475 
Q 2822 3834 2567 4026 
Q 2313 4219 1838 4219 
Q 1578 4219 1281 4162 
Q 984 4106 628 3988 
L 628 4550 
Q 988 4650 1302 4700 
Q 1616 4750 1894 4750 
Q 2613 4750 3031 4423 
Q 3450 4097 3450 3541 
Q 3450 3153 3228 2886 
Q 3006 2619 2597 2516 
z
" transform="scale(0.015625)"/>
       </defs>
       <use xlink:href="#DejaVuSans-33"/>
       <use xlink:href="#DejaVuSans-30" x="63.623047"/>
      </g>
     </g>
    </g>
   </g>
   <g id="PolyCollection_1">
    <defs>
     <path id="mf9b08d7fcb" d="M 364.537581 -474.961804 
L 364.537581 -474.614136 
L 368.808025 -474.625612 
L 373.078469 -474.851245 
L 377.348912 -475.209381 
L 381.619356 -475.436157 
L 385.8898 -475.194034 
L 390.160243 -473.730944 
L 394.430687 -474.852772 
L 398.701131 -474.851139 
L 402.971575 -475.272677 
L 407.242018 -474.490681 
L 411.512462 -475.371221 
L 415.782906 -474.690662 
L 420.053349 -475.382147 
L 424.323793 -475.284724 
L 428.594237 -475.73753 
L 432.864681 -476.119132 
L 437.135124 -476.630016 
L 441.405568 -475.827677 
L 445.676012 -476.744888 
L 449.946455 -476.890236 
L 454.216899 -477.100451 
L 458.487343 -477.93196 
L 462.757787 -478.165781 
L 467.02823 -478.092564 
L 471.298674 -477.258125 
L 475.569118 -479.140032 
L 479.839561 -479.119124 
L 484.110005 -479.656393 
L 484.110005 -480.617556 
L 484.110005 -480.617556 
L 479.839561 -478.832494 
L 475.569118 -478.285156 
L 471.298674 -478.514412 
L 467.02823 -476.674826 
L 462.757787 -478.288127 
L 458.487343 -478.992839 
L 454.216899 -478.054429 
L 449.946455 -475.458459 
L 445.676012 -476.917401 
L 441.405568 -475.073059 
L 437.135124 -475.473869 
L 432.864681 -472.678503 
L 428.594237 -472.071798 
L 424.323793 -468.925589 
L 420.053349 -465.684317 
L 415.782906 -465.492055 
L 411.512462 -460.152473 
L 407.242018 -455.716317 
L 402.971575 -453.321958 
L 398.701131 -452.5717 
L 394.430687 -453.727338 
L 390.160243 -457.061145 
L 385.8898 -461.961954 
L 381.619356 -469.491646 
L 377.348912 -471.890965 
L 373.078469 -474.288216 
L 368.808025 -474.33413 
L 364.537581 -474.961804 
z
" style="stroke: #2a2eec; stroke-opacity: 0.25"/>
    </defs>
    <g clip-path="url(#pd8bcb7e5a3)">
     <use xlink:href="#mf9b08d7fcb" x="0" y="584.39952" style="fill: #2a2eec; fill-opacity: 0.25; stroke: #2a2eec; stroke-opacity: 0.25"/>
    </g>
   </g>
   <g id="line2d_21">
    <path d="M 61.336077 159.853457 
L 65.606521 158.747476 
L 69.876965 155.762585 
L 74.147409 154.592016 
L 78.417852 153.117617 
L 82.688296 150.177701 
L 86.95874 149.237287 
L 91.229183 149.323044 
L 95.499627 147.563598 
L 99.770071 144.407438 
L 104.040515 143.936582 
L 108.310958 144.629348 
L 112.581402 141.484757 
L 116.851846 142.026009 
L 121.122289 141.846406 
L 125.392733 139.482276 
L 129.663177 140.397774 
L 133.933621 138.264282 
L 138.204064 138.35103 
L 142.474508 136.341565 
L 146.744952 134.376219 
L 151.015395 132.965601 
L 155.285839 131.36752 
L 159.556283 131.06026 
L 163.826727 126.925601 
L 168.09717 125.551601 
L 172.367614 124.341426 
L 176.638058 121.79193 
L 180.908501 120.660485 
L 185.178945 117.900728 
L 189.449389 114.935048 
L 193.719833 113.791105 
L 197.990276 111.701026 
L 202.26072 109.53622 
L 206.531164 106.358405 
L 210.801607 105.567845 
L 215.072051 104.222388 
L 219.342495 101.841331 
L 223.612939 101.231596 
L 227.883382 98.907283 
L 232.153826 99.665494 
L 236.42427 98.08141 
L 240.694713 98.313461 
L 244.965157 98.319804 
L 249.235601 96.595536 
L 253.506045 98.061129 
L 257.776488 97.078639 
L 262.046932 99.942013 
L 266.317376 100.574028 
L 270.587819 100.589668 
L 274.858263 99.461014 
L 279.128707 100.842957 
L 283.399151 101.981897 
L 287.669594 102.975527 
L 291.940038 103.717543 
L 296.210482 102.861004 
L 300.480925 102.133335 
L 304.751369 103.255439 
L 309.021813 102.054963 
L 313.292257 101.544324 
L 317.5627 100.086129 
L 321.833144 99.608068 
L 326.103588 99.570603 
L 330.374031 96.611347 
L 334.644475 97.821441 
L 338.914919 97.18475 
L 343.185363 94.46226 
L 347.455806 92.134572 
L 351.72625 94.178918 
L 355.996694 95.60556 
L 360.267137 95.676909 
" clip-path="url(#pd8bcb7e5a3)" style="fill: none; stroke: #cccccc; stroke-width: 1.5; stroke-linecap: round"/>
   </g>
   <g id="line2d_22">
    <path d="M 61.336077 170.962842 
L 65.606521 169.262623 
L 69.876965 169.787546 
L 74.147409 164.466866 
L 78.417852 166.275638 
L 82.688296 164.857597 
L 86.95874 163.179835 
L 91.229183 160.650372 
L 95.499627 160.943708 
L 99.770071 160.324806 
L 104.040515 157.290243 
L 108.310958 155.040917 
L 112.581402 153.252422 
L 116.851846 150.16596 
L 121.122289 147.630607 
L 125.392733 145.57967 
L 129.663177 143.44904 
L 133.933621 140.740117 
L 138.204064 139.145336 
L 142.474508 135.781551 
L 146.744952 136.00565 
L 151.015395 134.179755 
L 155.285839 132.050863 
L 159.556283 130.144465 
L 163.826727 128.962232 
L 168.09717 127.841698 
L 172.367614 124.970712 
L 176.638058 124.892294 
L 180.908501 123.838194 
L 185.178945 120.768509 
L 189.449389 120.135424 
L 193.719833 118.466785 
L 197.990276 118.315224 
L 202.26072 116.984727 
L 206.531164 115.376044 
L 210.801607 113.415614 
L 215.072051 112.875484 
L 219.342495 112.147239 
L 223.612939 110.594472 
L 227.883382 109.675845 
L 232.153826 108.539712 
L 236.42427 107.467348 
L 240.694713 105.862134 
L 244.965157 102.692738 
L 249.235601 101.636416 
L 253.506045 100.570201 
L 257.776488 97.365036 
L 262.046932 96.300708 
L 266.317376 93.740241 
L 270.587819 89.652946 
L 274.858263 88.328288 
L 279.128707 85.324099 
L 283.399151 85.795583 
L 287.669594 84.145529 
L 291.940038 82.572576 
L 296.210482 84.123948 
L 300.480925 82.584095 
L 304.751369 80.00566 
L 309.021813 79.91917 
L 313.292257 79.246846 
L 317.5627 77.176719 
L 321.833144 74.671092 
L 326.103588 74.306209 
L 330.374031 72.908532 
L 334.644475 68.489023 
L 338.914919 65.741378 
L 343.185363 65.330415 
L 347.455806 63.550069 
L 351.72625 58.520129 
L 355.996694 56.819908 
L 360.267137 53.602439 
" clip-path="url(#pd8bcb7e5a3)" style="fill: none; stroke: #cccccc; stroke-width: 1.5; stroke-linecap: round"/>
   </g>
   <g id="line2d_23">
    <path d="M 61.336077 162.809529 
L 65.606521 161.539325 
L 69.876965 159.171065 
L 74.147409 160.2092 
L 78.417852 159.31067 
L 82.688296 158.38332 
L 86.95874 158.103479 
L 91.229183 157.724999 
L 95.499627 156.80159 
L 99.770071 155.78164 
L 104.040515 154.185853 
L 108.310958 154.938215 
L 112.581402 152.390928 
L 116.851846 152.119332 
L 121.122289 150.858164 
L 125.392733 149.341695 
L 129.663177 148.746385 
L 133.933621 147.799856 
L 138.204064 147.457817 
L 142.474508 146.63188 
L 146.744952 146.156589 
L 151.015395 146.615721 
L 155.285839 143.565648 
L 159.556283 142.17843 
L 163.826727 144.339839 
L 168.09717 143.773465 
L 172.367614 144.532072 
L 176.638058 141.607292 
L 180.908501 140.981342 
L 185.178945 141.411455 
L 189.449389 139.999857 
L 193.719833 136.569807 
L 197.990276 135.836947 
L 202.26072 136.481133 
L 206.531164 133.974046 
L 210.801607 131.087049 
L 215.072051 130.995052 
L 219.342495 129.377821 
L 223.612939 127.847732 
L 227.883382 127.796883 
L 232.153826 127.317255 
L 236.42427 123.526319 
L 240.694713 124.203758 
L 244.965157 121.830665 
L 249.235601 121.257884 
L 253.506045 121.770175 
L 257.776488 119.523047 
L 262.046932 116.99816 
L 266.317376 115.996599 
L 270.587819 115.518447 
L 274.858263 115.141365 
L 279.128707 114.728575 
L 283.399151 113.554948 
L 287.669594 114.268845 
L 291.940038 113.745645 
L 296.210482 111.892001 
L 300.480925 114.092931 
L 304.751369 113.465415 
L 309.021813 114.88306 
L 313.292257 114.489013 
L 317.5627 116.839702 
L 321.833144 116.288521 
L 326.103588 116.461102 
L 330.374031 117.498675 
L 334.644475 117.716671 
L 338.914919 117.392037 
L 343.185363 117.58725 
L 347.455806 117.942861 
L 351.72625 119.415566 
L 355.996694 117.964438 
L 360.267137 118.526575 
" clip-path="url(#pd8bcb7e5a3)" style="fill: none; stroke: #cccccc; stroke-width: 1.5; stroke-linecap: round"/>
   </g>
   <g id="line2d_24">
    <path d="M 61.336077 162.772741 
L 65.606521 157.954449 
L 69.876965 152.687855 
L 74.147409 150.334256 
L 78.417852 146.875205 
L 82.688296 143.250943 
L 86.95874 139.387144 
L 91.229183 137.302594 
L 95.499627 132.485532 
L 99.770071 131.866331 
L 104.040515 128.198237 
L 108.310958 125.513493 
L 112.581402 124.245143 
L 116.851846 120.260245 
L 121.122289 120.683723 
L 125.392733 117.226303 
L 129.663177 118.13517 
L 133.933621 116.914732 
L 138.204064 114.814067 
L 142.474508 115.886815 
L 146.744952 114.044218 
L 151.015395 113.603573 
L 155.285839 111.958119 
L 159.556283 109.612464 
L 163.826727 108.343301 
L 168.09717 106.884179 
L 172.367614 106.035007 
L 176.638058 103.689626 
L 180.908501 102.172721 
L 185.178945 100.611151 
L 189.449389 97.132023 
L 193.719833 97.089092 
L 197.990276 94.699481 
L 202.26072 93.087768 
L 206.531164 92.398402 
L 210.801607 91.349426 
L 215.072051 91.052015 
L 219.342495 89.144493 
L 223.612939 85.65187 
L 227.883382 86.057384 
L 232.153826 84.115582 
L 236.42427 83.012996 
L 240.694713 80.516047 
L 244.965157 82.319311 
L 249.235601 78.332949 
L 253.506045 76.355198 
L 257.776488 72.536888 
L 262.046932 71.266373 
L 266.317376 70.194559 
L 270.587819 66.356723 
L 274.858263 65.051161 
L 279.128707 64.254194 
L 283.399151 61.07745 
L 287.669594 58.592903 
L 291.940038 57.386418 
L 296.210482 57.252892 
L 300.480925 54.621027 
L 304.751369 54.802183 
L 309.021813 52.539699 
L 313.292257 51.753623 
L 317.5627 52.347535 
L 321.833144 51.069825 
L 326.103588 50.141831 
L 330.374031 51.401588 
L 334.644475 51.552058 
L 338.914919 52.799457 
L 343.185363 54.988724 
L 347.455806 53.343102 
L 351.72625 55.829564 
L 355.996694 54.341 
L 360.267137 56.190619 
" clip-path="url(#pd8bcb7e5a3)" style="fill: none; stroke: #cccccc; stroke-width: 1.5; stroke-linecap: round"/>
   </g>
   <g id="line2d_25">
    <path d="M 61.336077 156.201402 
L 65.606521 156.053457 
L 69.876965 156.048349 
L 74.147409 154.175599 
L 78.417852 154.612162 
L 82.688296 154.462213 
L 86.95874 153.668376 
L 91.229183 153.873667 
L 95.499627 152.406966 
L 99.770071 152.590725 
L 104.040515 151.934626 
L 108.310958 153.490288 
L 112.581402 153.031426 
L 116.851846 153.77689 
L 121.122289 152.414039 
L 125.392733 153.669447 
L 129.663177 154.014127 
L 133.933621 154.673006 
L 138.204064 153.54085 
L 142.474508 152.509589 
L 146.744952 153.526224 
L 151.015395 153.56265 
L 155.285839 156.165814 
L 159.556283 155.888018 
L 163.826727 157.143458 
L 168.09717 157.109382 
L 172.367614 159.095298 
L 176.638058 159.349828 
L 180.908501 160.793968 
L 185.178945 160.726364 
L 189.449389 162.834562 
L 193.719833 163.831441 
L 197.990276 164.851051 
L 202.26072 165.589476 
L 206.531164 165.845962 
L 210.801607 166.199405 
L 215.072051 166.771286 
L 219.342495 168.074044 
L 223.612939 167.930288 
L 227.883382 168.216353 
L 232.153826 168.717646 
L 236.42427 168.256907 
L 240.694713 170.327731 
L 244.965157 169.870285 
L 249.235601 170.671077 
L 253.506045 171.335027 
L 257.776488 172.707316 
L 262.046932 174.324761 
L 266.317376 174.895031 
L 270.587819 176.805613 
L 274.858263 176.249232 
L 279.128707 179.142129 
L 283.399151 178.560573 
L 287.669594 181.537308 
L 291.940038 180.61386 
L 296.210482 179.087264 
L 300.480925 181.822806 
L 304.751369 178.578027 
L 309.021813 179.094941 
L 313.292257 181.60433 
L 317.5627 178.165599 
L 321.833144 180.098512 
L 326.103588 179.921713 
L 330.374031 178.470523 
L 334.644475 178.428135 
L 338.914919 178.649024 
L 343.185363 177.794991 
L 347.455806 175.947372 
L 351.72625 177.940372 
L 355.996694 176.4075 
L 360.267137 174.199877 
" clip-path="url(#pd8bcb7e5a3)" style="fill: none; stroke: #cccccc; stroke-width: 1.5; stroke-linecap: round"/>
   </g>
   <g id="line2d_26">
    <path d="M 61.336077 149.097401 
L 65.606521 148.182834 
L 69.876965 145.159323 
L 74.147409 142.727189 
L 78.417852 141.697047 
L 82.688296 141.587656 
L 86.95874 139.128772 
L 91.229183 138.019598 
L 95.499627 136.162643 
L 99.770071 135.164447 
L 104.040515 133.235635 
L 108.310958 133.744965 
L 112.581402 134.532143 
L 116.851846 134.404724 
L 121.122289 134.76312 
L 125.392733 136.620419 
L 129.663177 137.179518 
L 133.933621 138.928173 
L 138.204064 140.726217 
L 142.474508 142.001948 
L 146.744952 142.814668 
L 151.015395 146.027556 
L 155.285839 144.011058 
L 159.556283 145.59623 
L 163.826727 144.819367 
L 168.09717 146.250269 
L 172.367614 146.11659 
L 176.638058 146.866857 
L 180.908501 148.672011 
L 185.178945 145.540751 
L 189.449389 144.564267 
L 193.719833 144.709523 
L 197.990276 144.150019 
L 202.26072 144.556953 
L 206.531164 143.640577 
L 210.801607 141.859172 
L 215.072051 140.347293 
L 219.342495 138.951859 
L 223.612939 139.122606 
L 227.883382 137.167525 
L 232.153826 137.006377 
L 236.42427 132.856086 
L 240.694713 131.370099 
L 244.965157 128.528457 
L 249.235601 128.990795 
L 253.506045 128.359686 
L 257.776488 125.514158 
L 262.046932 125.035288 
L 266.317376 122.242841 
L 270.587819 120.971234 
L 274.858263 118.71957 
L 279.128707 119.90801 
L 283.399151 118.98128 
L 287.669594 117.481749 
L 291.940038 117.023532 
L 296.210482 117.174273 
L 300.480925 116.972881 
L 304.751369 117.643392 
L 309.021813 116.308514 
L 313.292257 115.637322 
L 317.5627 114.308536 
L 321.833144 113.044302 
L 326.103588 112.663984 
L 330.374031 110.132732 
L 334.644475 109.238631 
L 338.914919 105.376177 
L 343.185363 104.813362 
L 347.455806 101.544596 
L 351.72625 101.164426 
L 355.996694 98.595409 
L 360.267137 98.823189 
" clip-path="url(#pd8bcb7e5a3)" style="fill: none; stroke: #cccccc; stroke-width: 1.5; stroke-linecap: round"/>
   </g>
   <g id="line2d_27">
    <path d="M 61.336077 160.451644 
L 65.606521 160.792255 
L 69.876965 157.953576 
L 74.147409 157.927173 
L 78.417852 159.34033 
L 82.688296 157.488204 
L 86.95874 156.91791 
L 91.229183 154.944141 
L 95.499627 155.294029 
L 99.770071 154.607918 
L 104.040515 152.391855 
L 108.310958 152.48004 
L 112.581402 151.478251 
L 116.851846 150.61526 
L 121.122289 149.630788 
L 125.392733 150.577165 
L 129.663177 148.500899 
L 133.933621 149.871951 
L 138.204064 148.602428 
L 142.474508 148.48816 
L 146.744952 147.207746 
L 151.015395 146.982322 
L 155.285839 146.509564 
L 159.556283 146.057317 
L 163.826727 146.401451 
L 168.09717 144.267128 
L 172.367614 142.153861 
L 176.638058 143.31206 
L 180.908501 142.034273 
L 185.178945 140.94137 
L 189.449389 142.003421 
L 193.719833 141.156979 
L 197.990276 140.720517 
L 202.26072 141.239552 
L 206.531164 138.806107 
L 210.801607 137.936554 
L 215.072051 139.191322 
L 219.342495 138.202538 
L 223.612939 136.020344 
L 227.883382 135.195833 
L 232.153826 133.503678 
L 236.42427 132.732895 
L 240.694713 129.791255 
L 244.965157 128.817942 
L 249.235601 127.32057 
L 253.506045 125.811515 
L 257.776488 124.566134 
L 262.046932 122.827634 
L 266.317376 120.456553 
L 270.587819 119.594488 
L 274.858263 115.909752 
L 279.128707 115.043663 
L 283.399151 113.220744 
L 287.669594 112.932783 
L 291.940038 110.402751 
L 296.210482 110.664897 
L 300.480925 108.969206 
L 304.751369 106.905921 
L 309.021813 106.760144 
L 313.292257 106.689686 
L 317.5627 103.333155 
L 321.833144 103.031952 
L 326.103588 102.070068 
L 330.374031 100.146881 
L 334.644475 100.819212 
L 338.914919 100.707362 
L 343.185363 101.894131 
L 347.455806 103.550715 
L 351.72625 104.300231 
L 355.996694 104.296404 
L 360.267137 106.276155 
" clip-path="url(#pd8bcb7e5a3)" style="fill: none; stroke: #cccccc; stroke-width: 1.5; stroke-linecap: round"/>
   </g>
   <g id="line2d_28">
    <path d="M 364.537581 95.074288 
L 368.808025 96.733697 
L 373.078469 97.601705 
L 377.348912 98.997572 
L 381.619356 99.606541 
L 385.8898 100.801355 
L 390.160243 104.590809 
L 394.430687 104.974839 
L 398.701131 105.580512 
L 402.971575 106.376272 
L 407.242018 109.807734 
L 411.512462 108.776665 
L 415.782906 110.086543 
L 420.053349 108.857802 
L 424.323793 111.01141 
L 428.594237 110.212104 
L 432.864681 110.529186 
L 437.135124 109.742831 
L 441.405568 111.411093 
L 445.676012 110.852277 
L 449.946455 109.719076 
L 454.216899 111.229374 
L 458.487343 107.942497 
L 462.757787 107.41018 
L 467.02823 108.479119 
L 471.298674 108.386834 
L 475.569118 106.184747 
L 479.839561 105.43909 
L 484.110005 104.60578 
" clip-path="url(#pd8bcb7e5a3)" style="fill: none; stroke: #cccccc; stroke-width: 1.5; stroke-linecap: round"/>
   </g>
   <g id="line2d_29">
    <path d="M 364.537581 50.623027 
L 368.808025 48.948536 
L 373.078469 48.967211 
L 377.348912 47.499427 
L 381.619356 46.689811 
L 385.8898 46.25494 
L 390.160243 47.261487 
L 394.430687 44.363958 
L 398.701131 42.756019 
L 402.971575 43.415597 
L 407.242018 42.147766 
L 411.512462 42.892727 
L 415.782906 42.237494 
L 420.053349 42.021491 
L 424.323793 41.108557 
L 428.594237 41.824028 
L 432.864681 41.55803 
L 437.135124 42.698779 
L 441.405568 41.185099 
L 445.676012 42.788763 
L 449.946455 40.223238 
L 454.216899 41.2637 
L 458.487343 39.843937 
L 462.757787 40.828368 
L 467.02823 40.881122 
L 471.298674 40.318911 
L 475.569118 39.652219 
L 479.839561 40.538216 
L 484.110005 40.156404 
" clip-path="url(#pd8bcb7e5a3)" style="fill: none; stroke: #cccccc; stroke-width: 1.5; stroke-linecap: round"/>
   </g>
   <g id="line2d_30">
    <path d="M 364.537581 116.716774 
L 368.808025 117.85086 
L 373.078469 116.841324 
L 377.348912 115.936024 
L 381.619356 116.262996 
L 385.8898 115.673864 
L 390.160243 117.142826 
L 394.430687 116.280033 
L 398.701131 114.90804 
L 402.971575 114.708785 
L 407.242018 114.525134 
L 411.512462 114.455771 
L 415.782906 113.701857 
L 420.053349 114.285868 
L 424.323793 112.825906 
L 428.594237 114.103541 
L 432.864681 112.187634 
L 437.135124 112.578912 
L 441.405568 112.986848 
L 445.676012 113.256103 
L 449.946455 115.524793 
L 454.216899 114.27747 
L 458.487343 114.823263 
L 462.757787 115.571421 
L 467.02823 117.108515 
L 471.298674 119.694498 
L 475.569118 118.141592 
L 479.839561 120.64552 
L 484.110005 120.694125 
" clip-path="url(#pd8bcb7e5a3)" style="fill: none; stroke: #cccccc; stroke-width: 1.5; stroke-linecap: round"/>
   </g>
   <g id="line2d_31">
    <path d="M 364.537581 54.590318 
L 368.808025 55.358843 
L 373.078469 54.397451 
L 377.348912 53.85412 
L 381.619356 54.432806 
L 385.8898 51.608386 
L 390.160243 52.005548 
L 394.430687 51.211534 
L 398.701131 50.992251 
L 402.971575 50.461537 
L 407.242018 48.410291 
L 411.512462 47.687207 
L 415.782906 47.294297 
L 420.053349 45.708898 
L 424.323793 43.264666 
L 428.594237 43.80688 
L 432.864681 41.496205 
L 437.135124 40.147096 
L 441.405568 39.179896 
L 445.676012 36.755173 
L 449.946455 37.551405 
L 454.216899 36.699918 
L 458.487343 37.224042 
L 462.757787 37.023946 
L 467.02823 36.830731 
L 471.298674 36.746228 
L 475.569118 37.363705 
L 479.839561 35.055255 
L 484.110005 35.367331 
" clip-path="url(#pd8bcb7e5a3)" style="fill: none; stroke: #cccccc; stroke-width: 1.5; stroke-linecap: round"/>
   </g>
   <g id="line2d_32">
    <path d="M 364.537581 173.058335 
L 368.808025 172.285197 
L 373.078469 170.75341 
L 377.348912 167.395522 
L 381.619356 167.933412 
L 385.8898 167.883292 
L 390.160243 166.010547 
L 394.430687 164.203942 
L 398.701131 162.829525 
L 402.971575 163.325257 
L 407.242018 163.1399 
L 411.512462 160.866646 
L 415.782906 160.977099 
L 420.053349 161.760954 
L 424.323793 162.022074 
L 428.594237 159.431766 
L 432.864681 158.960714 
L 437.135124 157.718635 
L 441.405568 160.380525 
L 445.676012 158.469693 
L 449.946455 158.720924 
L 454.216899 157.263526 
L 458.487343 157.681422 
L 462.757787 155.287689 
L 467.02823 155.041675 
L 471.298674 156.689545 
L 475.569118 155.707705 
L 479.839561 154.641394 
L 484.110005 153.202724 
" clip-path="url(#pd8bcb7e5a3)" style="fill: none; stroke: #cccccc; stroke-width: 1.5; stroke-linecap: round"/>
   </g>
   <g id="line2d_33">
    <path d="M 364.537581 96.320052 
L 368.808025 94.655287 
L 373.078469 94.420706 
L 377.348912 94.270463 
L 381.619356 92.604128 
L 385.8898 92.95293 
L 390.160243 94.637466 
L 394.430687 92.313328 
L 398.701131 93.785774 
L 402.971575 91.587121 
L 407.242018 92.315701 
L 411.512462 91.295253 
L 415.782906 93.342193 
L 420.053349 91.702102 
L 424.323793 91.253978 
L 428.594237 91.185691 
L 432.864681 91.5502 
L 437.135124 90.970084 
L 441.405568 91.335686 
L 445.676012 89.961163 
L 449.946455 89.419111 
L 454.216899 89.13008 
L 458.487343 88.902879 
L 462.757787 89.513988 
L 467.02823 88.353575 
L 471.298674 89.503251 
L 475.569118 86.530774 
L 479.839561 86.79351 
L 484.110005 86.749879 
" clip-path="url(#pd8bcb7e5a3)" style="fill: none; stroke: #cccccc; stroke-width: 1.5; stroke-linecap: round"/>
   </g>
   <g id="line2d_34">
    <path d="M 364.537581 109.862468 
L 368.808025 109.967312 
L 373.078469 111.115002 
L 377.348912 112.764239 
L 381.619356 111.707158 
L 385.8898 113.2218 
L 390.160243 113.287013 
L 394.430687 112.986567 
L 398.701131 111.570426 
L 402.971575 109.458588 
L 407.242018 106.009151 
L 411.512462 105.985813 
L 415.782906 103.978574 
L 420.053349 101.676125 
L 424.323793 101.419329 
L 428.594237 98.209917 
L 432.864681 95.4877 
L 437.135124 94.224647 
L 441.405568 91.705823 
L 445.676012 87.077201 
L 449.946455 86.332122 
L 454.216899 82.913578 
L 458.487343 82.009247 
L 462.757787 79.744228 
L 467.02823 76.952976 
L 471.298674 73.92117 
L 475.569118 71.487026 
L 479.839561 68.83858 
L 484.110005 65.909741 
" clip-path="url(#pd8bcb7e5a3)" style="fill: none; stroke: #cccccc; stroke-width: 1.5; stroke-linecap: round"/>
   </g>
   <g id="line2d_35">
    <defs>
     <path id="m80589064c8" d="M 0 1.5 
C 0.397805 1.5 0.77937 1.341951 1.06066 1.06066 
C 1.341951 0.77937 1.5 0.397805 1.5 0 
C 1.5 -0.397805 1.341951 -0.77937 1.06066 -1.06066 
C 0.77937 -1.341951 0.397805 -1.5 0 -1.5 
C -0.397805 -1.5 -0.77937 -1.341951 -1.06066 -1.06066 
C -1.341951 -0.77937 -1.5 -0.397805 -1.5 0 
C -1.5 0.397805 -1.341951 0.77937 -1.06066 1.06066 
C -0.77937 1.341951 -0.397805 1.5 0 1.5 
z
" style="stroke: #000000"/>
    </defs>
    <g clip-path="url(#pd8bcb7e5a3)">
     <use xlink:href="#m80589064c8" x="61.336077" y="156.417535" style="stroke: #000000"/>
     <use xlink:href="#m80589064c8" x="65.606521" y="154.719857" style="stroke: #000000"/>
     <use xlink:href="#m80589064c8" x="69.876965" y="154.069476" style="stroke: #000000"/>
     <use xlink:href="#m80589064c8" x="74.147409" y="152.39756" style="stroke: #000000"/>
     <use xlink:href="#m80589064c8" x="78.417852" y="152.980881" style="stroke: #000000"/>
     <use xlink:href="#m80589064c8" x="82.688296" y="149.926878" style="stroke: #000000"/>
     <use xlink:href="#m80589064c8" x="86.95874" y="149.417922" style="stroke: #000000"/>
     <use xlink:href="#m80589064c8" x="91.229183" y="147.127317" style="stroke: #000000"/>
     <use xlink:href="#m80589064c8" x="95.499627" y="147.034526" style="stroke: #000000"/>
     <use xlink:href="#m80589064c8" x="99.770071" y="145.50165" style="stroke: #000000"/>
     <use xlink:href="#m80589064c8" x="104.040515" y="143.400733" style="stroke: #000000"/>
     <use xlink:href="#m80589064c8" x="108.310958" y="144.226794" style="stroke: #000000"/>
     <use xlink:href="#m80589064c8" x="112.581402" y="143.791948" style="stroke: #000000"/>
     <use xlink:href="#m80589064c8" x="116.851846" y="144.059664" style="stroke: #000000"/>
     <use xlink:href="#m80589064c8" x="121.122289" y="142.250533" style="stroke: #000000"/>
     <use xlink:href="#m80589064c8" x="125.392733" y="141.130476" style="stroke: #000000"/>
     <use xlink:href="#m80589064c8" x="129.663177" y="144.402611" style="stroke: #000000"/>
     <use xlink:href="#m80589064c8" x="133.933621" y="143.290158" style="stroke: #000000"/>
     <use xlink:href="#m80589064c8" x="138.204064" y="142.238784" style="stroke: #000000"/>
     <use xlink:href="#m80589064c8" x="142.474508" y="141.394768" style="stroke: #000000"/>
     <use xlink:href="#m80589064c8" x="146.744952" y="142.375128" style="stroke: #000000"/>
     <use xlink:href="#m80589064c8" x="151.015395" y="141.377579" style="stroke: #000000"/>
     <use xlink:href="#m80589064c8" x="155.285839" y="140.183894" style="stroke: #000000"/>
     <use xlink:href="#m80589064c8" x="159.556283" y="140.87993" style="stroke: #000000"/>
     <use xlink:href="#m80589064c8" x="163.826727" y="140.587183" style="stroke: #000000"/>
     <use xlink:href="#m80589064c8" x="168.09717" y="140.995042" style="stroke: #000000"/>
     <use xlink:href="#m80589064c8" x="172.367614" y="138.534741" style="stroke: #000000"/>
     <use xlink:href="#m80589064c8" x="176.638058" y="138.771099" style="stroke: #000000"/>
     <use xlink:href="#m80589064c8" x="180.908501" y="138.539766" style="stroke: #000000"/>
     <use xlink:href="#m80589064c8" x="185.178945" y="137.206659" style="stroke: #000000"/>
     <use xlink:href="#m80589064c8" x="189.449389" y="136.41403" style="stroke: #000000"/>
     <use xlink:href="#m80589064c8" x="193.719833" y="136.598566" style="stroke: #000000"/>
     <use xlink:href="#m80589064c8" x="197.990276" y="134.90553" style="stroke: #000000"/>
     <use xlink:href="#m80589064c8" x="202.26072" y="134.043235" style="stroke: #000000"/>
     <use xlink:href="#m80589064c8" x="206.531164" y="133.884632" style="stroke: #000000"/>
     <use xlink:href="#m80589064c8" x="210.801607" y="132.041389" style="stroke: #000000"/>
     <use xlink:href="#m80589064c8" x="215.072051" y="130.404259" style="stroke: #000000"/>
     <use xlink:href="#m80589064c8" x="219.342495" y="129.24423" style="stroke: #000000"/>
     <use xlink:href="#m80589064c8" x="223.612939" y="127.534467" style="stroke: #000000"/>
     <use xlink:href="#m80589064c8" x="227.883382" y="128.204487" style="stroke: #000000"/>
     <use xlink:href="#m80589064c8" x="232.153826" y="127.268731" style="stroke: #000000"/>
     <use xlink:href="#m80589064c8" x="236.42427" y="125.33658" style="stroke: #000000"/>
     <use xlink:href="#m80589064c8" x="240.694713" y="124.650286" style="stroke: #000000"/>
     <use xlink:href="#m80589064c8" x="244.965157" y="125.28072" style="stroke: #000000"/>
     <use xlink:href="#m80589064c8" x="249.235601" y="123.318356" style="stroke: #000000"/>
     <use xlink:href="#m80589064c8" x="253.506045" y="121.667236" style="stroke: #000000"/>
     <use xlink:href="#m80589064c8" x="257.776488" y="122.658833" style="stroke: #000000"/>
     <use xlink:href="#m80589064c8" x="262.046932" y="122.118563" style="stroke: #000000"/>
     <use xlink:href="#m80589064c8" x="266.317376" y="121.688611" style="stroke: #000000"/>
     <use xlink:href="#m80589064c8" x="270.587819" y="119.934595" style="stroke: #000000"/>
     <use xlink:href="#m80589064c8" x="274.858263" y="119.114098" style="stroke: #000000"/>
     <use xlink:href="#m80589064c8" x="279.128707" y="119.976068" style="stroke: #000000"/>
     <use xlink:href="#m80589064c8" x="283.399151" y="119.446591" style="stroke: #000000"/>
     <use xlink:href="#m80589064c8" x="287.669594" y="119.624918" style="stroke: #000000"/>
     <use xlink:href="#m80589064c8" x="291.940038" y="121.592202" style="stroke: #000000"/>
     <use xlink:href="#m80589064c8" x="296.210482" y="119.975961" style="stroke: #000000"/>
     <use xlink:href="#m80589064c8" x="300.480925" y="120.09481" style="stroke: #000000"/>
     <use xlink:href="#m80589064c8" x="304.751369" y="118.801153" style="stroke: #000000"/>
     <use xlink:href="#m80589064c8" x="309.021813" y="119.695054" style="stroke: #000000"/>
     <use xlink:href="#m80589064c8" x="313.292257" y="118.062135" style="stroke: #000000"/>
     <use xlink:href="#m80589064c8" x="317.5627" y="118.630825" style="stroke: #000000"/>
     <use xlink:href="#m80589064c8" x="321.833144" y="117.671431" style="stroke: #000000"/>
     <use xlink:href="#m80589064c8" x="326.103588" y="115.823553" style="stroke: #000000"/>
     <use xlink:href="#m80589064c8" x="330.374031" y="116.691882" style="stroke: #000000"/>
     <use xlink:href="#m80589064c8" x="334.644475" y="114.079509" style="stroke: #000000"/>
     <use xlink:href="#m80589064c8" x="338.914919" y="114.362341" style="stroke: #000000"/>
     <use xlink:href="#m80589064c8" x="343.185363" y="112.77579" style="stroke: #000000"/>
     <use xlink:href="#m80589064c8" x="347.455806" y="112.116093" style="stroke: #000000"/>
     <use xlink:href="#m80589064c8" x="351.72625" y="111.787231" style="stroke: #000000"/>
     <use xlink:href="#m80589064c8" x="355.996694" y="111.389398" style="stroke: #000000"/>
     <use xlink:href="#m80589064c8" x="360.267137" y="111.543157" style="stroke: #000000"/>
    </g>
   </g>
   <g id="line2d_36">
    <g clip-path="url(#pd8bcb7e5a3)">
     <use xlink:href="#m80589064c8" x="364.537581" y="109.437716" style="stroke: #000000"/>
     <use xlink:href="#m80589064c8" x="368.808025" y="110.06539" style="stroke: #000000"/>
     <use xlink:href="#m80589064c8" x="373.078469" y="110.111304" style="stroke: #000000"/>
     <use xlink:href="#m80589064c8" x="377.348912" y="112.508555" style="stroke: #000000"/>
     <use xlink:href="#m80589064c8" x="381.619356" y="114.907874" style="stroke: #000000"/>
     <use xlink:href="#m80589064c8" x="385.8898" y="122.437566" style="stroke: #000000"/>
     <use xlink:href="#m80589064c8" x="390.160243" y="127.338375" style="stroke: #000000"/>
     <use xlink:href="#m80589064c8" x="394.430687" y="130.672182" style="stroke: #000000"/>
     <use xlink:href="#m80589064c8" x="398.701131" y="131.82782" style="stroke: #000000"/>
     <use xlink:href="#m80589064c8" x="402.971575" y="131.077562" style="stroke: #000000"/>
     <use xlink:href="#m80589064c8" x="407.242018" y="128.683203" style="stroke: #000000"/>
     <use xlink:href="#m80589064c8" x="411.512462" y="124.247047" style="stroke: #000000"/>
     <use xlink:href="#m80589064c8" x="415.782906" y="118.907465" style="stroke: #000000"/>
     <use xlink:href="#m80589064c8" x="420.053349" y="118.715203" style="stroke: #000000"/>
     <use xlink:href="#m80589064c8" x="424.323793" y="115.473931" style="stroke: #000000"/>
     <use xlink:href="#m80589064c8" x="428.594237" y="112.327722" style="stroke: #000000"/>
     <use xlink:href="#m80589064c8" x="432.864681" y="111.721017" style="stroke: #000000"/>
     <use xlink:href="#m80589064c8" x="437.135124" y="108.925651" style="stroke: #000000"/>
     <use xlink:href="#m80589064c8" x="441.405568" y="109.326461" style="stroke: #000000"/>
     <use xlink:href="#m80589064c8" x="445.676012" y="107.482119" style="stroke: #000000"/>
     <use xlink:href="#m80589064c8" x="449.946455" y="108.941061" style="stroke: #000000"/>
     <use xlink:href="#m80589064c8" x="454.216899" y="106.345091" style="stroke: #000000"/>
     <use xlink:href="#m80589064c8" x="458.487343" y="105.406681" style="stroke: #000000"/>
     <use xlink:href="#m80589064c8" x="462.757787" y="106.111393" style="stroke: #000000"/>
     <use xlink:href="#m80589064c8" x="467.02823" y="107.724694" style="stroke: #000000"/>
     <use xlink:href="#m80589064c8" x="471.298674" y="105.885108" style="stroke: #000000"/>
     <use xlink:href="#m80589064c8" x="475.569118" y="106.114364" style="stroke: #000000"/>
     <use xlink:href="#m80589064c8" x="479.839561" y="105.567026" style="stroke: #000000"/>
     <use xlink:href="#m80589064c8" x="484.110005" y="103.781964" style="stroke: #000000"/>
    </g>
   </g>
   <g id="line2d_37">
    <path d="M 61.336077 156.687194 
L 65.606521 155.705133 
L 69.876965 153.479495 
L 74.147409 152.086141 
L 78.417852 151.366156 
L 82.688296 150.168779 
L 86.95874 148.870866 
L 91.229183 148.305983 
L 95.499627 146.852276 
L 99.770071 145.556253 
L 104.040515 144.213553 
L 108.310958 144.702899 
L 112.581402 143.469827 
L 116.851846 143.344214 
L 121.122289 142.848898 
L 125.392733 142.522591 
L 129.663177 142.721336 
L 133.933621 142.482972 
L 138.204064 142.596945 
L 142.474508 142.019442 
L 146.744952 141.722781 
L 151.015395 142.225543 
L 155.285839 140.97229 
L 159.556283 140.885053 
L 163.826727 140.075773 
L 168.09717 139.851393 
L 172.367614 139.693057 
L 176.638058 138.764402 
L 180.908501 138.943987 
L 185.178945 137.208104 
L 189.449389 136.157295 
L 193.719833 135.374662 
L 197.990276 134.619517 
L 202.26072 134.301304 
L 206.531164 132.678459 
L 210.801607 131.404479 
L 215.072051 130.72067 
L 219.342495 129.524233 
L 223.612939 128.887378 
L 227.883382 127.728504 
L 232.153826 127.702641 
L 236.42427 125.344074 
L 240.694713 125.160114 
L 244.965157 123.790376 
L 249.235601 123.278632 
L 253.506045 123.50101 
L 257.776488 121.985779 
L 262.046932 122.25744 
L 266.317376 121.33349 
L 270.587819 120.853139 
L 274.858263 119.571164 
L 279.128707 120.417929 
L 283.399151 120.035283 
L 287.669594 120.270815 
L 291.940038 119.915089 
L 296.210482 119.281304 
L 300.480925 119.599263 
L 304.751369 119.304642 
L 309.021813 118.862786 
L 313.292257 118.793868 
L 317.5627 117.745364 
L 321.833144 117.302257 
L 326.103588 117.112261 
L 330.374031 115.522975 
L 334.644475 115.438596 
L 338.914919 114.094768 
L 343.185363 113.237885 
L 347.455806 111.450612 
L 351.72625 112.27561 
L 355.996694 111.339696 
L 360.267137 111.163928 
" clip-path="url(#pd8bcb7e5a3)" style="fill: none; stroke: #000000; stroke-width: 1.5; stroke-linecap: round"/>
   </g>
   <g id="line2d_38">
    <path d="M 364.537581 109.785384 
L 368.808025 109.773908 
L 373.078469 109.548275 
L 377.348912 109.190139 
L 381.619356 108.963363 
L 385.8898 109.205486 
L 390.160243 110.668576 
L 394.430687 109.546748 
L 398.701131 109.548381 
L 402.971575 109.126843 
L 407.242018 109.908839 
L 411.512462 109.028299 
L 415.782906 109.708858 
L 420.053349 109.017373 
L 424.323793 109.114796 
L 428.594237 108.66199 
L 432.864681 108.280388 
L 437.135124 107.769504 
L 441.405568 108.571843 
L 445.676012 107.654632 
L 449.946455 107.509284 
L 454.216899 107.299069 
L 458.487343 106.46756 
L 462.757787 106.233739 
L 467.02823 106.306956 
L 471.298674 107.141395 
L 475.569118 105.259488 
L 479.839561 105.280396 
L 484.110005 104.743127 
" clip-path="url(#pd8bcb7e5a3)" style="fill: none; stroke-dasharray: 1.5,2.475; stroke-dashoffset: 0; stroke: #000000; stroke-width: 1.5"/>
   </g>
   <g id="line2d_39">
    <path d="M 360.267137 189.161184 
L 360.267137 27.716878 
" clip-path="url(#pd8bcb7e5a3)" style="fill: none; stroke: #ff0000; stroke-width: 3; stroke-linecap: round"/>
   </g>
   <g id="patch_3">
    <path d="M 40.197381 189.161184 
L 40.197381 27.716878 
" style="fill: none"/>
   </g>
   <g id="patch_4">
    <path d="M 505.248701 189.161184 
L 505.248701 27.716878 
" style="fill: none"/>
   </g>
   <g id="patch_5">
    <path d="M 40.197381 189.161184 
L 505.248701 189.161184 
" style="fill: none"/>
   </g>
   <g id="patch_6">
    <path d="M 40.197381 27.716878 
L 505.248701 27.716878 
" style="fill: none"/>
   </g>
   <g id="text_5">
    <!-- $R^2$ on pre-intervention data = 0.996 -->
    <g style="fill: #262626" transform="translate(127.603041 21.716878) scale(0.16 -0.16)">
     <defs>
      <path id="DejaVuSans-Oblique-52" d="M 1613 4147 
L 1294 2491 
L 2106 2491 
Q 2584 2491 2879 2755 
Q 3175 3019 3175 3444 
Q 3175 3784 2976 3965 
Q 2778 4147 2406 4147 
L 1613 4147 
z
M 2772 2241 
Q 2972 2194 3105 2009 
Q 3238 1825 3413 1275 
L 3809 0 
L 3144 0 
L 2778 1197 
Q 2638 1659 2453 1815 
Q 2269 1972 1888 1972 
L 1191 1972 
L 806 0 
L 172 0 
L 1081 4666 
L 2503 4666 
Q 3150 4666 3495 4373 
Q 3841 4081 3841 3531 
Q 3841 3044 3547 2687 
Q 3253 2331 2772 2241 
z
" transform="scale(0.015625)"/>
      <path id="DejaVuSans-20" transform="scale(0.015625)"/>
      <path id="DejaVuSans-6f" d="M 1959 3097 
Q 1497 3097 1228 2736 
Q 959 2375 959 1747 
Q 959 1119 1226 758 
Q 1494 397 1959 397 
Q 2419 397 2687 759 
Q 2956 1122 2956 1747 
Q 2956 2369 2687 2733 
Q 2419 3097 1959 3097 
z
M 1959 3584 
Q 2709 3584 3137 3096 
Q 3566 2609 3566 1747 
Q 3566 888 3137 398 
Q 2709 -91 1959 -91 
Q 1206 -91 779 398 
Q 353 888 353 1747 
Q 353 2609 779 3096 
Q 1206 3584 1959 3584 
z
" transform="scale(0.015625)"/>
      <path id="DejaVuSans-6e" d="M 3513 2113 
L 3513 0 
L 2938 0 
L 2938 2094 
Q 2938 2591 2744 2837 
Q 2550 3084 2163 3084 
Q 1697 3084 1428 2787 
Q 1159 2491 1159 1978 
L 1159 0 
L 581 0 
L 581 3500 
L 1159 3500 
L 1159 2956 
Q 1366 3272 1645 3428 
Q 1925 3584 2291 3584 
Q 2894 3584 3203 3211 
Q 3513 2838 3513 2113 
z
" transform="scale(0.015625)"/>
      <path id="DejaVuSans-70" d="M 1159 525 
L 1159 -1331 
L 581 -1331 
L 581 3500 
L 1159 3500 
L 1159 2969 
Q 1341 3281 1617 3432 
Q 1894 3584 2278 3584 
Q 2916 3584 3314 3078 
Q 3713 2572 3713 1747 
Q 3713 922 3314 415 
Q 2916 -91 2278 -91 
Q 1894 -91 1617 61 
Q 1341 213 1159 525 
z
M 3116 1747 
Q 3116 2381 2855 2742 
Q 2594 3103 2138 3103 
Q 1681 3103 1420 2742 
Q 1159 2381 1159 1747 
Q 1159 1113 1420 752 
Q 1681 391 2138 391 
Q 2594 391 2855 752 
Q 3116 1113 3116 1747 
z
" transform="scale(0.015625)"/>
      <path id="DejaVuSans-72" d="M 2631 2963 
Q 2534 3019 2420 3045 
Q 2306 3072 2169 3072 
Q 1681 3072 1420 2755 
Q 1159 2438 1159 1844 
L 1159 0 
L 581 0 
L 581 3500 
L 1159 3500 
L 1159 2956 
Q 1341 3275 1631 3429 
Q 1922 3584 2338 3584 
Q 2397 3584 2469 3576 
Q 2541 3569 2628 3553 
L 2631 2963 
z
" transform="scale(0.015625)"/>
      <path id="DejaVuSans-65" d="M 3597 1894 
L 3597 1613 
L 953 1613 
Q 991 1019 1311 708 
Q 1631 397 2203 397 
Q 2534 397 2845 478 
Q 3156 559 3463 722 
L 3463 178 
Q 3153 47 2828 -22 
Q 2503 -91 2169 -91 
Q 1331 -91 842 396 
Q 353 884 353 1716 
Q 353 2575 817 3079 
Q 1281 3584 2069 3584 
Q 2775 3584 3186 3129 
Q 3597 2675 3597 1894 
z
M 3022 2063 
Q 3016 2534 2758 2815 
Q 2500 3097 2075 3097 
Q 1594 3097 1305 2825 
Q 1016 2553 972 2059 
L 3022 2063 
z
" transform="scale(0.015625)"/>
      <path id="DejaVuSans-2d" d="M 313 2009 
L 1997 2009 
L 1997 1497 
L 313 1497 
L 313 2009 
z
" transform="scale(0.015625)"/>
      <path id="DejaVuSans-69" d="M 603 3500 
L 1178 3500 
L 1178 0 
L 603 0 
L 603 3500 
z
M 603 4863 
L 1178 4863 
L 1178 4134 
L 603 4134 
L 603 4863 
z
" transform="scale(0.015625)"/>
      <path id="DejaVuSans-74" d="M 1172 4494 
L 1172 3500 
L 2356 3500 
L 2356 3053 
L 1172 3053 
L 1172 1153 
Q 1172 725 1289 603 
Q 1406 481 1766 481 
L 2356 481 
L 2356 0 
L 1766 0 
Q 1100 0 847 248 
Q 594 497 594 1153 
L 594 3053 
L 172 3053 
L 172 3500 
L 594 3500 
L 594 4494 
L 1172 4494 
z
" transform="scale(0.015625)"/>
      <path id="DejaVuSans-76" d="M 191 3500 
L 800 3500 
L 1894 563 
L 2988 3500 
L 3597 3500 
L 2284 0 
L 1503 0 
L 191 3500 
z
" transform="scale(0.015625)"/>
      <path id="DejaVuSans-64" d="M 2906 2969 
L 2906 4863 
L 3481 4863 
L 3481 0 
L 2906 0 
L 2906 525 
Q 2725 213 2448 61 
Q 2172 -91 1784 -91 
Q 1150 -91 751 415 
Q 353 922 353 1747 
Q 353 2572 751 3078 
Q 1150 3584 1784 3584 
Q 2172 3584 2448 3432 
Q 2725 3281 2906 2969 
z
M 947 1747 
Q 947 1113 1208 752 
Q 1469 391 1925 391 
Q 2381 391 2643 752 
Q 2906 1113 2906 1747 
Q 2906 2381 2643 2742 
Q 2381 3103 1925 3103 
Q 1469 3103 1208 2742 
Q 947 2381 947 1747 
z
" transform="scale(0.015625)"/>
      <path id="DejaVuSans-61" d="M 2194 1759 
Q 1497 1759 1228 1600 
Q 959 1441 959 1056 
Q 959 750 1161 570 
Q 1363 391 1709 391 
Q 2188 391 2477 730 
Q 2766 1069 2766 1631 
L 2766 1759 
L 2194 1759 
z
M 3341 1997 
L 3341 0 
L 2766 0 
L 2766 531 
Q 2569 213 2275 61 
Q 1981 -91 1556 -91 
Q 1019 -91 701 211 
Q 384 513 384 1019 
Q 384 1609 779 1909 
Q 1175 2209 1959 2209 
L 2766 2209 
L 2766 2266 
Q 2766 2663 2505 2880 
Q 2244 3097 1772 3097 
Q 1472 3097 1187 3025 
Q 903 2953 641 2809 
L 641 3341 
Q 956 3463 1253 3523 
Q 1550 3584 1831 3584 
Q 2591 3584 2966 3190 
Q 3341 2797 3341 1997 
z
" transform="scale(0.015625)"/>
      <path id="DejaVuSans-3d" d="M 678 2906 
L 4684 2906 
L 4684 2381 
L 678 2381 
L 678 2906 
z
M 678 1631 
L 4684 1631 
L 4684 1100 
L 678 1100 
L 678 1631 
z
" transform="scale(0.015625)"/>
      <path id="DejaVuSans-2e" d="M 684 794 
L 1344 794 
L 1344 0 
L 684 0 
L 684 794 
z
" transform="scale(0.015625)"/>
      <path id="DejaVuSans-39" d="M 703 97 
L 703 672 
Q 941 559 1184 500 
Q 1428 441 1663 441 
Q 2288 441 2617 861 
Q 2947 1281 2994 2138 
Q 2813 1869 2534 1725 
Q 2256 1581 1919 1581 
Q 1219 1581 811 2004 
Q 403 2428 403 3163 
Q 403 3881 828 4315 
Q 1253 4750 1959 4750 
Q 2769 4750 3195 4129 
Q 3622 3509 3622 2328 
Q 3622 1225 3098 567 
Q 2575 -91 1691 -91 
Q 1453 -91 1209 -44 
Q 966 3 703 97 
z
M 1959 2075 
Q 2384 2075 2632 2365 
Q 2881 2656 2881 3163 
Q 2881 3666 2632 3958 
Q 2384 4250 1959 4250 
Q 1534 4250 1286 3958 
Q 1038 3666 1038 3163 
Q 1038 2656 1286 2365 
Q 1534 2075 1959 2075 
z
" transform="scale(0.015625)"/>
      <path id="DejaVuSans-36" d="M 2113 2584 
Q 1688 2584 1439 2293 
Q 1191 2003 1191 1497 
Q 1191 994 1439 701 
Q 1688 409 2113 409 
Q 2538 409 2786 701 
Q 3034 994 3034 1497 
Q 3034 2003 2786 2293 
Q 2538 2584 2113 2584 
z
M 3366 4563 
L 3366 3988 
Q 3128 4100 2886 4159 
Q 2644 4219 2406 4219 
Q 1781 4219 1451 3797 
Q 1122 3375 1075 2522 
Q 1259 2794 1537 2939 
Q 1816 3084 2150 3084 
Q 2853 3084 3261 2657 
Q 3669 2231 3669 1497 
Q 3669 778 3244 343 
Q 2819 -91 2113 -91 
Q 1303 -91 875 529 
Q 447 1150 447 2328 
Q 447 3434 972 4092 
Q 1497 4750 2381 4750 
Q 2619 4750 2861 4703 
Q 3103 4656 3366 4563 
z
" transform="scale(0.015625)"/>
     </defs>
     <use xlink:href="#DejaVuSans-Oblique-52" transform="translate(0 0.765625)"/>
     <use xlink:href="#DejaVuSans-32" transform="translate(76.499193 39.046875) scale(0.7)"/>
     <use xlink:href="#DejaVuSans-20" transform="translate(123.769701 0.765625)"/>
     <use xlink:href="#DejaVuSans-6f" transform="translate(155.55681 0.765625)"/>
     <use xlink:href="#DejaVuSans-6e" transform="translate(216.738451 0.765625)"/>
     <use xlink:href="#DejaVuSans-20" transform="translate(280.117357 0.765625)"/>
     <use xlink:href="#DejaVuSans-70" transform="translate(311.904466 0.765625)"/>
     <use xlink:href="#DejaVuSans-72" transform="translate(375.381029 0.765625)"/>
     <use xlink:href="#DejaVuSans-65" transform="translate(416.49431 0.765625)"/>
     <use xlink:href="#DejaVuSans-2d" transform="translate(478.017747 0.765625)"/>
     <use xlink:href="#DejaVuSans-69" transform="translate(514.101732 0.765625)"/>
     <use xlink:href="#DejaVuSans-6e" transform="translate(541.884935 0.765625)"/>
     <use xlink:href="#DejaVuSans-74" transform="translate(605.263841 0.765625)"/>
     <use xlink:href="#DejaVuSans-65" transform="translate(644.472826 0.765625)"/>
     <use xlink:href="#DejaVuSans-72" transform="translate(705.996263 0.765625)"/>
     <use xlink:href="#DejaVuSans-76" transform="translate(747.109544 0.765625)"/>
     <use xlink:href="#DejaVuSans-65" transform="translate(806.289232 0.765625)"/>
     <use xlink:href="#DejaVuSans-6e" transform="translate(867.812669 0.765625)"/>
     <use xlink:href="#DejaVuSans-74" transform="translate(931.191576 0.765625)"/>
     <use xlink:href="#DejaVuSans-69" transform="translate(970.40056 0.765625)"/>
     <use xlink:href="#DejaVuSans-6f" transform="translate(998.183763 0.765625)"/>
     <use xlink:href="#DejaVuSans-6e" transform="translate(1059.365404 0.765625)"/>
     <use xlink:href="#DejaVuSans-20" transform="translate(1122.74431 0.765625)"/>
     <use xlink:href="#DejaVuSans-64" transform="translate(1154.531419 0.765625)"/>
     <use xlink:href="#DejaVuSans-61" transform="translate(1218.007982 0.765625)"/>
     <use xlink:href="#DejaVuSans-74" transform="translate(1279.287279 0.765625)"/>
     <use xlink:href="#DejaVuSans-61" transform="translate(1318.496263 0.765625)"/>
     <use xlink:href="#DejaVuSans-20" transform="translate(1379.77556 0.765625)"/>
     <use xlink:href="#DejaVuSans-3d" transform="translate(1411.562669 0.765625)"/>
     <use xlink:href="#DejaVuSans-20" transform="translate(1495.351732 0.765625)"/>
     <use xlink:href="#DejaVuSans-30" transform="translate(1527.138841 0.765625)"/>
     <use xlink:href="#DejaVuSans-2e" transform="translate(1590.761888 0.765625)"/>
     <use xlink:href="#DejaVuSans-39" transform="translate(1622.548997 0.765625)"/>
     <use xlink:href="#DejaVuSans-39" transform="translate(1686.172044 0.765625)"/>
     <use xlink:href="#DejaVuSans-36" transform="translate(1749.795091 0.765625)"/>
    </g>
   </g>
   <g id="legend_1">
    <g id="line2d_40">
     <path d="M 50.997381 43.435003 
L 62.997381 43.435003 
L 74.997381 43.435003 
" style="fill: none; stroke: #000000; stroke-width: 1.5; stroke-linecap: round"/>
    </g>
    <g id="text_6">
     <!-- model fit -->
     <g style="fill: #262626" transform="translate(84.597381 47.635003) scale(0.12 -0.12)">
      <defs>
       <path id="DejaVuSans-6d" d="M 3328 2828 
Q 3544 3216 3844 3400 
Q 4144 3584 4550 3584 
Q 5097 3584 5394 3201 
Q 5691 2819 5691 2113 
L 5691 0 
L 5113 0 
L 5113 2094 
Q 5113 2597 4934 2840 
Q 4756 3084 4391 3084 
Q 3944 3084 3684 2787 
Q 3425 2491 3425 1978 
L 3425 0 
L 2847 0 
L 2847 2094 
Q 2847 2600 2669 2842 
Q 2491 3084 2119 3084 
Q 1678 3084 1418 2786 
Q 1159 2488 1159 1978 
L 1159 0 
L 581 0 
L 581 3500 
L 1159 3500 
L 1159 2956 
Q 1356 3278 1631 3431 
Q 1906 3584 2284 3584 
Q 2666 3584 2933 3390 
Q 3200 3197 3328 2828 
z
" transform="scale(0.015625)"/>
       <path id="DejaVuSans-6c" d="M 603 4863 
L 1178 4863 
L 1178 0 
L 603 0 
L 603 4863 
z
" transform="scale(0.015625)"/>
       <path id="DejaVuSans-66" d="M 2375 4863 
L 2375 4384 
L 1825 4384 
Q 1516 4384 1395 4259 
Q 1275 4134 1275 3809 
L 1275 3500 
L 2222 3500 
L 2222 3053 
L 1275 3053 
L 1275 0 
L 697 0 
L 697 3053 
L 147 3053 
L 147 3500 
L 697 3500 
L 697 3744 
Q 697 4328 969 4595 
Q 1241 4863 1831 4863 
L 2375 4863 
z
" transform="scale(0.015625)"/>
      </defs>
      <use xlink:href="#DejaVuSans-6d"/>
      <use xlink:href="#DejaVuSans-6f" x="97.412109"/>
      <use xlink:href="#DejaVuSans-64" x="158.59375"/>
      <use xlink:href="#DejaVuSans-65" x="222.070312"/>
      <use xlink:href="#DejaVuSans-6c" x="283.59375"/>
      <use xlink:href="#DejaVuSans-20" x="311.376953"/>
      <use xlink:href="#DejaVuSans-66" x="343.164062"/>
      <use xlink:href="#DejaVuSans-69" x="378.369141"/>
      <use xlink:href="#DejaVuSans-74" x="406.152344"/>
     </g>
    </g>
    <g id="line2d_41">
     <path d="M 50.997381 61.048753 
L 62.997381 61.048753 
L 74.997381 61.048753 
" style="fill: none; stroke-dasharray: 1.5,2.475; stroke-dashoffset: 0; stroke: #000000; stroke-width: 1.5"/>
    </g>
    <g id="text_7">
     <!-- counterfactual -->
     <g style="fill: #262626" transform="translate(84.597381 65.248753) scale(0.12 -0.12)">
      <defs>
       <path id="DejaVuSans-63" d="M 3122 3366 
L 3122 2828 
Q 2878 2963 2633 3030 
Q 2388 3097 2138 3097 
Q 1578 3097 1268 2742 
Q 959 2388 959 1747 
Q 959 1106 1268 751 
Q 1578 397 2138 397 
Q 2388 397 2633 464 
Q 2878 531 3122 666 
L 3122 134 
Q 2881 22 2623 -34 
Q 2366 -91 2075 -91 
Q 1284 -91 818 406 
Q 353 903 353 1747 
Q 353 2603 823 3093 
Q 1294 3584 2113 3584 
Q 2378 3584 2631 3529 
Q 2884 3475 3122 3366 
z
" transform="scale(0.015625)"/>
       <path id="DejaVuSans-75" d="M 544 1381 
L 544 3500 
L 1119 3500 
L 1119 1403 
Q 1119 906 1312 657 
Q 1506 409 1894 409 
Q 2359 409 2629 706 
Q 2900 1003 2900 1516 
L 2900 3500 
L 3475 3500 
L 3475 0 
L 2900 0 
L 2900 538 
Q 2691 219 2414 64 
Q 2138 -91 1772 -91 
Q 1169 -91 856 284 
Q 544 659 544 1381 
z
M 1991 3584 
L 1991 3584 
z
" transform="scale(0.015625)"/>
      </defs>
      <use xlink:href="#DejaVuSans-63"/>
      <use xlink:href="#DejaVuSans-6f" x="54.980469"/>
      <use xlink:href="#DejaVuSans-75" x="116.162109"/>
      <use xlink:href="#DejaVuSans-6e" x="179.541016"/>
      <use xlink:href="#DejaVuSans-74" x="242.919922"/>
      <use xlink:href="#DejaVuSans-65" x="282.128906"/>
      <use xlink:href="#DejaVuSans-72" x="343.652344"/>
      <use xlink:href="#DejaVuSans-66" x="384.765625"/>
      <use xlink:href="#DejaVuSans-61" x="419.970703"/>
      <use xlink:href="#DejaVuSans-63" x="481.25"/>
      <use xlink:href="#DejaVuSans-74" x="536.230469"/>
      <use xlink:href="#DejaVuSans-75" x="575.439453"/>
      <use xlink:href="#DejaVuSans-61" x="638.818359"/>
      <use xlink:href="#DejaVuSans-6c" x="700.097656"/>
     </g>
    </g>
    <g id="patch_7">
     <path d="M 50.997381 82.862503 
L 74.997381 82.862503 
L 74.997381 74.462503 
L 50.997381 74.462503 
z
" style="fill: #2a2eec; fill-opacity: 0.25; stroke: #2a2eec; stroke-opacity: 0.25; stroke-linejoin: miter"/>
    </g>
    <g id="text_8">
     <!-- causal impact -->
     <g style="fill: #262626" transform="translate(84.597381 82.862503) scale(0.12 -0.12)">
      <defs>
       <path id="DejaVuSans-73" d="M 2834 3397 
L 2834 2853 
Q 2591 2978 2328 3040 
Q 2066 3103 1784 3103 
Q 1356 3103 1142 2972 
Q 928 2841 928 2578 
Q 928 2378 1081 2264 
Q 1234 2150 1697 2047 
L 1894 2003 
Q 2506 1872 2764 1633 
Q 3022 1394 3022 966 
Q 3022 478 2636 193 
Q 2250 -91 1575 -91 
Q 1294 -91 989 -36 
Q 684 19 347 128 
L 347 722 
Q 666 556 975 473 
Q 1284 391 1588 391 
Q 1994 391 2212 530 
Q 2431 669 2431 922 
Q 2431 1156 2273 1281 
Q 2116 1406 1581 1522 
L 1381 1569 
Q 847 1681 609 1914 
Q 372 2147 372 2553 
Q 372 3047 722 3315 
Q 1072 3584 1716 3584 
Q 2034 3584 2315 3537 
Q 2597 3491 2834 3397 
z
" transform="scale(0.015625)"/>
      </defs>
      <use xlink:href="#DejaVuSans-63"/>
      <use xlink:href="#DejaVuSans-61" x="54.980469"/>
      <use xlink:href="#DejaVuSans-75" x="116.259766"/>
      <use xlink:href="#DejaVuSans-73" x="179.638672"/>
      <use xlink:href="#DejaVuSans-61" x="231.738281"/>
      <use xlink:href="#DejaVuSans-6c" x="293.017578"/>
      <use xlink:href="#DejaVuSans-20" x="320.800781"/>
      <use xlink:href="#DejaVuSans-69" x="352.587891"/>
      <use xlink:href="#DejaVuSans-6d" x="380.371094"/>
      <use xlink:href="#DejaVuSans-70" x="477.783203"/>
      <use xlink:href="#DejaVuSans-61" x="541.259766"/>
      <use xlink:href="#DejaVuSans-63" x="602.539062"/>
      <use xlink:href="#DejaVuSans-74" x="657.519531"/>
     </g>
    </g>
    <g id="line2d_42">
     <path d="M 50.997381 96.276253 
L 62.997381 96.276253 
L 74.997381 96.276253 
" style="fill: none; stroke: #ff0000; stroke-width: 3; stroke-linecap: round"/>
    </g>
    <g id="text_9">
     <!-- treatment time -->
     <g style="fill: #262626" transform="translate(84.597381 100.476253) scale(0.12 -0.12)">
      <use xlink:href="#DejaVuSans-74"/>
      <use xlink:href="#DejaVuSans-72" x="39.208984"/>
      <use xlink:href="#DejaVuSans-65" x="78.072266"/>
      <use xlink:href="#DejaVuSans-61" x="139.595703"/>
      <use xlink:href="#DejaVuSans-74" x="200.875"/>
      <use xlink:href="#DejaVuSans-6d" x="240.083984"/>
      <use xlink:href="#DejaVuSans-65" x="337.496094"/>
      <use xlink:href="#DejaVuSans-6e" x="399.019531"/>
      <use xlink:href="#DejaVuSans-74" x="462.398438"/>
      <use xlink:href="#DejaVuSans-20" x="501.607422"/>
      <use xlink:href="#DejaVuSans-74" x="533.394531"/>
      <use xlink:href="#DejaVuSans-69" x="572.603516"/>
      <use xlink:href="#DejaVuSans-6d" x="600.386719"/>
      <use xlink:href="#DejaVuSans-65" x="697.798828"/>
     </g>
    </g>
   </g>
  </g>
  <g id="axes_2">
   <g id="patch_8">
    <path d="M 40.197381 374.677226 
L 505.248701 374.677226 
L 505.248701 213.232919 
L 40.197381 213.232919 
z
" style="fill: #eeeeee"/>
   </g>
   <g id="matplotlib.axis_3">
    <g id="xtick_7">
     <g id="line2d_43">
      <path d="M 61.336077 374.677226 
L 61.336077 213.232919 
" clip-path="url(#paa58867eb7)" style="fill: none; stroke: #ffffff; stroke-width: 0.8; stroke-linecap: round"/>
     </g>
     <g id="line2d_44"/>
    </g>
    <g id="xtick_8">
     <g id="line2d_45">
      <path d="M 146.744952 374.677226 
L 146.744952 213.232919 
" clip-path="url(#paa58867eb7)" style="fill: none; stroke: #ffffff; stroke-width: 0.8; stroke-linecap: round"/>
     </g>
     <g id="line2d_46"/>
    </g>
    <g id="xtick_9">
     <g id="line2d_47">
      <path d="M 232.153826 374.677226 
L 232.153826 213.232919 
" clip-path="url(#paa58867eb7)" style="fill: none; stroke: #ffffff; stroke-width: 0.8; stroke-linecap: round"/>
     </g>
     <g id="line2d_48"/>
    </g>
    <g id="xtick_10">
     <g id="line2d_49">
      <path d="M 317.5627 374.677226 
L 317.5627 213.232919 
" clip-path="url(#paa58867eb7)" style="fill: none; stroke: #ffffff; stroke-width: 0.8; stroke-linecap: round"/>
     </g>
     <g id="line2d_50"/>
    </g>
    <g id="xtick_11">
     <g id="line2d_51">
      <path d="M 402.971575 374.677226 
L 402.971575 213.232919 
" clip-path="url(#paa58867eb7)" style="fill: none; stroke: #ffffff; stroke-width: 0.8; stroke-linecap: round"/>
     </g>
     <g id="line2d_52"/>
    </g>
    <g id="xtick_12">
     <g id="line2d_53">
      <path d="M 488.380449 374.677226 
L 488.380449 213.232919 
" clip-path="url(#paa58867eb7)" style="fill: none; stroke: #ffffff; stroke-width: 0.8; stroke-linecap: round"/>
     </g>
     <g id="line2d_54"/>
    </g>
   </g>
   <g id="matplotlib.axis_4">
    <g id="ytick_5">
     <g id="line2d_55">
      <path d="M 40.197381 355.618574 
L 505.248701 355.618574 
" clip-path="url(#paa58867eb7)" style="fill: none; stroke: #ffffff; stroke-width: 0.8; stroke-linecap: round"/>
     </g>
     <g id="line2d_56"/>
     <g id="text_10">
      <!-- 6 -->
      <g style="fill: #262626" transform="translate(16.058319 360.93748) scale(0.14 -0.14)">
       <defs>
        <path id="DejaVuSans-2212" d="M 678 2272 
L 4684 2272 
L 4684 1741 
L 678 1741 
L 678 2272 
z
" transform="scale(0.015625)"/>
       </defs>
       <use xlink:href="#DejaVuSans-2212"/>
       <use xlink:href="#DejaVuSans-36" x="83.789062"/>
      </g>
     </g>
    </g>
    <g id="ytick_6">
     <g id="line2d_57">
      <path d="M 40.197381 314.323298 
L 505.248701 314.323298 
" clip-path="url(#paa58867eb7)" style="fill: none; stroke: #ffffff; stroke-width: 0.8; stroke-linecap: round"/>
     </g>
     <g id="line2d_58"/>
     <g id="text_11">
      <!-- 4 -->
      <g style="fill: #262626" transform="translate(16.058319 319.642204) scale(0.14 -0.14)">
       <defs>
        <path id="DejaVuSans-34" d="M 2419 4116 
L 825 1625 
L 2419 1625 
L 2419 4116 
z
M 2253 4666 
L 3047 4666 
L 3047 1625 
L 3713 1625 
L 3713 1100 
L 3047 1100 
L 3047 0 
L 2419 0 
L 2419 1100 
L 313 1100 
L 313 1709 
L 2253 4666 
z
" transform="scale(0.015625)"/>
       </defs>
       <use xlink:href="#DejaVuSans-2212"/>
       <use xlink:href="#DejaVuSans-34" x="83.789062"/>
      </g>
     </g>
    </g>
    <g id="ytick_7">
     <g id="line2d_59">
      <path d="M 40.197381 273.028022 
L 505.248701 273.028022 
" clip-path="url(#paa58867eb7)" style="fill: none; stroke: #ffffff; stroke-width: 0.8; stroke-linecap: round"/>
     </g>
     <g id="line2d_60"/>
     <g id="text_12">
      <!-- 2 -->
      <g style="fill: #262626" transform="translate(16.058319 278.346928) scale(0.14 -0.14)">
       <use xlink:href="#DejaVuSans-2212"/>
       <use xlink:href="#DejaVuSans-32" x="83.789062"/>
      </g>
     </g>
    </g>
    <g id="ytick_8">
     <g id="line2d_61">
      <path d="M 40.197381 231.732746 
L 505.248701 231.732746 
" clip-path="url(#paa58867eb7)" style="fill: none; stroke: #ffffff; stroke-width: 0.8; stroke-linecap: round"/>
     </g>
     <g id="line2d_62"/>
     <g id="text_13">
      <!-- 0 -->
      <g style="fill: #262626" transform="translate(27.789881 237.051653) scale(0.14 -0.14)">
       <use xlink:href="#DejaVuSans-30"/>
      </g>
     </g>
    </g>
   </g>
   <g id="PolyCollection_2">
    <defs>
     <path id="ma4e75fd4da" d="M 364.537581 -352.666774 
L 364.537581 -354.782893 
L 368.808025 -350.892639 
L 373.078469 -349.239839 
L 377.348912 -332.468888 
L 381.619356 -316.484898 
L 385.8898 -272.128356 
L 390.160243 -251.204322 
L 394.430687 -224.084646 
L 398.701131 -217.060672 
L 402.971575 -219.061461 
L 407.242018 -238.394673 
L 411.512462 -260.036294 
L 415.782906 -296.678507 
L 420.053349 -293.639935 
L 424.323793 -313.961245 
L 428.594237 -330.354917 
L 432.864681 -331.725031 
L 437.135124 -345.629765 
L 441.405568 -348.073714 
L 445.676012 -353.716795 
L 449.946455 -343.952114 
L 454.216899 -358.473265 
L 458.487343 -359.123923 
L 462.757787 -353.411442 
L 467.02823 -344.037569 
L 471.298674 -360.313294 
L 475.569118 -347.463484 
L 479.839561 -350.922171 
L 484.110005 -358.516996 
L 484.110005 -352.666774 
L 484.110005 -352.666774 
L 479.839561 -352.666774 
L 475.569118 -352.666774 
L 471.298674 -352.666774 
L 467.02823 -352.666774 
L 462.757787 -352.666774 
L 458.487343 -352.666774 
L 454.216899 -352.666774 
L 449.946455 -352.666774 
L 445.676012 -352.666774 
L 441.405568 -352.666774 
L 437.135124 -352.666774 
L 432.864681 -352.666774 
L 428.594237 -352.666774 
L 424.323793 -352.666774 
L 420.053349 -352.666774 
L 415.782906 -352.666774 
L 411.512462 -352.666774 
L 407.242018 -352.666774 
L 402.971575 -352.666774 
L 398.701131 -352.666774 
L 394.430687 -352.666774 
L 390.160243 -352.666774 
L 385.8898 -352.666774 
L 381.619356 -352.666774 
L 377.348912 -352.666774 
L 373.078469 -352.666774 
L 368.808025 -352.666774 
L 364.537581 -352.666774 
z
" style="stroke: #2a2eec; stroke-opacity: 0.25"/>
    </defs>
    <g clip-path="url(#paa58867eb7)">
     <use xlink:href="#ma4e75fd4da" x="0" y="584.39952" style="fill: #2a2eec; fill-opacity: 0.25; stroke: #2a2eec; stroke-opacity: 0.25"/>
    </g>
   </g>
   <g id="line2d_63">
    <g clip-path="url(#paa58867eb7)">
     <use xlink:href="#m80589064c8" x="61.336077" y="230.091439" style="stroke: #000000"/>
     <use xlink:href="#m80589064c8" x="65.606521" y="225.735764" style="stroke: #000000"/>
     <use xlink:href="#m80589064c8" x="69.876965" y="235.323729" style="stroke: #000000"/>
     <use xlink:href="#m80589064c8" x="74.147409" y="233.628233" style="stroke: #000000"/>
     <use xlink:href="#m80589064c8" x="78.417852" y="241.560937" style="stroke: #000000"/>
     <use xlink:href="#m80589064c8" x="82.688296" y="230.260396" style="stroke: #000000"/>
     <use xlink:href="#m80589064c8" x="86.95874" y="235.062455" style="stroke: #000000"/>
     <use xlink:href="#m80589064c8" x="91.229183" y="224.558672" style="stroke: #000000"/>
     <use xlink:href="#m80589064c8" x="95.499627" y="232.842032" style="stroke: #000000"/>
     <use xlink:href="#m80589064c8" x="99.770071" y="231.400403" style="stroke: #000000"/>
     <use xlink:href="#m80589064c8" x="104.040515" y="226.785432" style="stroke: #000000"/>
     <use xlink:href="#m80589064c8" x="108.310958" y="228.834883" style="stroke: #000000"/>
     <use xlink:href="#m80589064c8" x="112.581402" y="233.693372" style="stroke: #000000"/>
     <use xlink:href="#m80589064c8" x="116.851846" y="236.087411" style="stroke: #000000"/>
     <use xlink:href="#m80589064c8" x="121.122289" y="228.090732" style="stroke: #000000"/>
     <use xlink:href="#m80589064c8" x="125.392733" y="223.259496" style="stroke: #000000"/>
     <use xlink:href="#m80589064c8" x="129.663177" y="241.966" style="stroke: #000000"/>
     <use xlink:href="#m80589064c8" x="133.933621" y="236.645767" style="stroke: #000000"/>
     <use xlink:href="#m80589064c8" x="138.204064" y="229.552762" style="stroke: #000000"/>
     <use xlink:href="#m80589064c8" x="142.474508" y="227.930608" style="stroke: #000000"/>
     <use xlink:href="#m80589064c8" x="146.744952" y="235.703322" style="stroke: #000000"/>
     <use xlink:href="#m80589064c8" x="151.015395" y="226.57153" style="stroke: #000000"/>
     <use xlink:href="#m80589064c8" x="155.285839" y="226.934088" style="stroke: #000000"/>
     <use xlink:href="#m80589064c8" x="159.556283" y="231.701562" style="stroke: #000000"/>
     <use xlink:href="#m80589064c8" x="163.826727" y="234.845494" style="stroke: #000000"/>
     <use xlink:href="#m80589064c8" x="168.09717" y="238.693683" style="stroke: #000000"/>
     <use xlink:href="#m80589064c8" x="172.367614" y="224.682538" style="stroke: #000000"/>
     <use xlink:href="#m80589064c8" x="176.638058" y="231.773507" style="stroke: #000000"/>
     <use xlink:href="#m80589064c8" x="180.908501" y="229.272411" style="stroke: #000000"/>
     <use xlink:href="#m80589064c8" x="185.178945" y="231.723949" style="stroke: #000000"/>
     <use xlink:href="#m80589064c8" x="189.449389" y="233.295388" style="stroke: #000000"/>
     <use xlink:href="#m80589064c8" x="193.719833" y="239.182165" style="stroke: #000000"/>
     <use xlink:href="#m80589064c8" x="197.990276" y="233.473591" style="stroke: #000000"/>
     <use xlink:href="#m80589064c8" x="202.26072" y="230.16198" style="stroke: #000000"/>
     <use xlink:href="#m80589064c8" x="206.531164" y="239.074243" style="stroke: #000000"/>
     <use xlink:href="#m80589064c8" x="210.801607" y="235.609366" style="stroke: #000000"/>
     <use xlink:href="#m80589064c8" x="215.072051" y="229.806876" style="stroke: #000000"/>
     <use xlink:href="#m80589064c8" x="219.342495" y="230.028478" style="stroke: #000000"/>
     <use xlink:href="#m80589064c8" x="223.612939" y="223.498115" style="stroke: #000000"/>
     <use xlink:href="#m80589064c8" x="227.883382" y="234.629862" style="stroke: #000000"/>
     <use xlink:href="#m80589064c8" x="232.153826" y="229.09171" style="stroke: #000000"/>
     <use xlink:href="#m80589064c8" x="236.42427" y="231.687138" style="stroke: #000000"/>
     <use xlink:href="#m80589064c8" x="240.694713" y="228.629626" style="stroke: #000000"/>
     <use xlink:href="#m80589064c8" x="244.965157" y="240.803882" style="stroke: #000000"/>
     <use xlink:href="#m80589064c8" x="249.235601" y="231.974531" style="stroke: #000000"/>
     <use xlink:href="#m80589064c8" x="253.506045" y="220.571297" style="stroke: #000000"/>
     <use xlink:href="#m80589064c8" x="257.776488" y="235.829355" style="stroke: #000000"/>
     <use xlink:href="#m80589064c8" x="262.046932" y="230.887457" style="stroke: #000000"/>
     <use xlink:href="#m80589064c8" x="266.317376" y="233.894227" style="stroke: #000000"/>
     <use xlink:href="#m80589064c8" x="270.587819" y="226.141935" style="stroke: #000000"/>
     <use xlink:href="#m80589064c8" x="274.858263" y="228.95077" style="stroke: #000000"/>
     <use xlink:href="#m80589064c8" x="279.128707" y="229.043317" style="stroke: #000000"/>
     <use xlink:href="#m80589064c8" x="283.399151" y="228.149611" style="stroke: #000000"/>
     <use xlink:href="#m80589064c8" x="287.669594" y="227.801425" style="stroke: #000000"/>
     <use xlink:href="#m80589064c8" x="291.940038" y="241.94067" style="stroke: #000000"/>
     <use xlink:href="#m80589064c8" x="296.210482" y="235.960848" style="stroke: #000000"/>
     <use xlink:href="#m80589064c8" x="300.480925" y="234.748944" style="stroke: #000000"/>
     <use xlink:href="#m80589064c8" x="304.751369" y="228.668209" style="stroke: #000000"/>
     <use xlink:href="#m80589064c8" x="309.021813" y="236.798432" style="stroke: #000000"/>
     <use xlink:href="#m80589064c8" x="313.292257" y="227.278981" style="stroke: #000000"/>
     <use xlink:href="#m80589064c8" x="317.5627" y="237.122199" style="stroke: #000000"/>
     <use xlink:href="#m80589064c8" x="321.833144" y="233.979761" style="stroke: #000000"/>
     <use xlink:href="#m80589064c8" x="326.103588" y="223.888887" style="stroke: #000000"/>
     <use xlink:href="#m80589064c8" x="330.374031" y="238.847422" style="stroke: #000000"/>
     <use xlink:href="#m80589064c8" x="334.644475" y="223.460523" style="stroke: #000000"/>
     <use xlink:href="#m80589064c8" x="338.914919" y="233.361354" style="stroke: #000000"/>
     <use xlink:href="#m80589064c8" x="343.185363" y="228.920155" style="stroke: #000000"/>
     <use xlink:href="#m80589064c8" x="347.455806" y="235.783263" style="stroke: #000000"/>
     <use xlink:href="#m80589064c8" x="351.72625" y="228.760175" style="stroke: #000000"/>
     <use xlink:href="#m80589064c8" x="355.996694" y="232.035261" style="stroke: #000000"/>
     <use xlink:href="#m80589064c8" x="360.267137" y="234.040959" style="stroke: #000000"/>
    </g>
   </g>
   <g id="line2d_64">
    <g clip-path="url(#paa58867eb7)">
     <use xlink:href="#m80589064c8" x="364.537581" y="229.616627" style="stroke: #000000"/>
     <use xlink:href="#m80589064c8" x="368.808025" y="233.506881" style="stroke: #000000"/>
     <use xlink:href="#m80589064c8" x="373.078469" y="235.159681" style="stroke: #000000"/>
     <use xlink:href="#m80589064c8" x="377.348912" y="251.930632" style="stroke: #000000"/>
     <use xlink:href="#m80589064c8" x="381.619356" y="267.914622" style="stroke: #000000"/>
     <use xlink:href="#m80589064c8" x="385.8898" y="312.271164" style="stroke: #000000"/>
     <use xlink:href="#m80589064c8" x="390.160243" y="333.195198" style="stroke: #000000"/>
     <use xlink:href="#m80589064c8" x="394.430687" y="360.314874" style="stroke: #000000"/>
     <use xlink:href="#m80589064c8" x="398.701131" y="367.338848" style="stroke: #000000"/>
     <use xlink:href="#m80589064c8" x="402.971575" y="365.338059" style="stroke: #000000"/>
     <use xlink:href="#m80589064c8" x="407.242018" y="346.004847" style="stroke: #000000"/>
     <use xlink:href="#m80589064c8" x="411.512462" y="324.363226" style="stroke: #000000"/>
     <use xlink:href="#m80589064c8" x="415.782906" y="287.721013" style="stroke: #000000"/>
     <use xlink:href="#m80589064c8" x="420.053349" y="290.759585" style="stroke: #000000"/>
     <use xlink:href="#m80589064c8" x="424.323793" y="270.438275" style="stroke: #000000"/>
     <use xlink:href="#m80589064c8" x="428.594237" y="254.044603" style="stroke: #000000"/>
     <use xlink:href="#m80589064c8" x="432.864681" y="252.674489" style="stroke: #000000"/>
     <use xlink:href="#m80589064c8" x="437.135124" y="238.769755" style="stroke: #000000"/>
     <use xlink:href="#m80589064c8" x="441.405568" y="236.325806" style="stroke: #000000"/>
     <use xlink:href="#m80589064c8" x="445.676012" y="230.682725" style="stroke: #000000"/>
     <use xlink:href="#m80589064c8" x="449.946455" y="240.447406" style="stroke: #000000"/>
     <use xlink:href="#m80589064c8" x="454.216899" y="225.926255" style="stroke: #000000"/>
     <use xlink:href="#m80589064c8" x="458.487343" y="225.275597" style="stroke: #000000"/>
     <use xlink:href="#m80589064c8" x="462.757787" y="230.988078" style="stroke: #000000"/>
     <use xlink:href="#m80589064c8" x="467.02823" y="240.361951" style="stroke: #000000"/>
     <use xlink:href="#m80589064c8" x="471.298674" y="224.086226" style="stroke: #000000"/>
     <use xlink:href="#m80589064c8" x="475.569118" y="236.936036" style="stroke: #000000"/>
     <use xlink:href="#m80589064c8" x="479.839561" y="233.477349" style="stroke: #000000"/>
     <use xlink:href="#m80589064c8" x="484.110005" y="225.882524" style="stroke: #000000"/>
    </g>
   </g>
   <g id="line2d_65">
    <path d="M 40.197381 231.732746 
L 505.248701 231.732746 
" clip-path="url(#paa58867eb7)" style="fill: none; stroke: #000000; stroke-width: 1.5; stroke-linecap: round"/>
   </g>
   <g id="line2d_66">
    <path d="M 360.267137 374.677226 
L 360.267137 213.232919 
" clip-path="url(#paa58867eb7)" style="fill: none; stroke: #ff0000; stroke-width: 3; stroke-linecap: round"/>
   </g>
   <g id="patch_9">
    <path d="M 40.197381 374.677226 
L 40.197381 213.232919 
" style="fill: none"/>
   </g>
   <g id="patch_10">
    <path d="M 505.248701 374.677226 
L 505.248701 213.232919 
" style="fill: none"/>
   </g>
   <g id="patch_11">
    <path d="M 40.197381 374.677226 
L 505.248701 374.677226 
" style="fill: none"/>
   </g>
   <g id="patch_12">
    <path d="M 40.197381 213.232919 
L 505.248701 213.232919 
" style="fill: none"/>
   </g>
   <g id="text_14">
    <!-- Causal Impact -->
    <g style="fill: #262626" transform="translate(215.660541 207.232919) scale(0.16 -0.16)">
     <defs>
      <path id="DejaVuSans-43" d="M 4122 4306 
L 4122 3641 
Q 3803 3938 3442 4084 
Q 3081 4231 2675 4231 
Q 1875 4231 1450 3742 
Q 1025 3253 1025 2328 
Q 1025 1406 1450 917 
Q 1875 428 2675 428 
Q 3081 428 3442 575 
Q 3803 722 4122 1019 
L 4122 359 
Q 3791 134 3420 21 
Q 3050 -91 2638 -91 
Q 1578 -91 968 557 
Q 359 1206 359 2328 
Q 359 3453 968 4101 
Q 1578 4750 2638 4750 
Q 3056 4750 3426 4639 
Q 3797 4528 4122 4306 
z
" transform="scale(0.015625)"/>
      <path id="DejaVuSans-49" d="M 628 4666 
L 1259 4666 
L 1259 0 
L 628 0 
L 628 4666 
z
" transform="scale(0.015625)"/>
     </defs>
     <use xlink:href="#DejaVuSans-43"/>
     <use xlink:href="#DejaVuSans-61" x="69.824219"/>
     <use xlink:href="#DejaVuSans-75" x="131.103516"/>
     <use xlink:href="#DejaVuSans-73" x="194.482422"/>
     <use xlink:href="#DejaVuSans-61" x="246.582031"/>
     <use xlink:href="#DejaVuSans-6c" x="307.861328"/>
     <use xlink:href="#DejaVuSans-20" x="335.644531"/>
     <use xlink:href="#DejaVuSans-49" x="367.431641"/>
     <use xlink:href="#DejaVuSans-6d" x="396.923828"/>
     <use xlink:href="#DejaVuSans-70" x="494.335938"/>
     <use xlink:href="#DejaVuSans-61" x="557.8125"/>
     <use xlink:href="#DejaVuSans-63" x="619.091797"/>
     <use xlink:href="#DejaVuSans-74" x="674.072266"/>
    </g>
   </g>
  </g>
  <g id="axes_3">
   <g id="patch_13">
    <path d="M 40.197381 560.193267 
L 505.248701 560.193267 
L 505.248701 398.748961 
L 40.197381 398.748961 
z
" style="fill: #eeeeee"/>
   </g>
   <g id="matplotlib.axis_5">
    <g id="xtick_13">
     <g id="line2d_67">
      <path d="M 61.336077 560.193267 
L 61.336077 398.748961 
" clip-path="url(#p7193703138)" style="fill: none; stroke: #ffffff; stroke-width: 0.8; stroke-linecap: round"/>
     </g>
     <g id="line2d_68"/>
     <g id="text_15">
      <!-- 0 -->
      <g style="fill: #262626" transform="translate(56.882327 574.33108) scale(0.14 -0.14)">
       <use xlink:href="#DejaVuSans-30"/>
      </g>
     </g>
    </g>
    <g id="xtick_14">
     <g id="line2d_69">
      <path d="M 146.744952 560.193267 
L 146.744952 398.748961 
" clip-path="url(#p7193703138)" style="fill: none; stroke: #ffffff; stroke-width: 0.8; stroke-linecap: round"/>
     </g>
     <g id="line2d_70"/>
     <g id="text_16">
      <!-- 20 -->
      <g style="fill: #262626" transform="translate(137.837452 574.33108) scale(0.14 -0.14)">
       <use xlink:href="#DejaVuSans-32"/>
       <use xlink:href="#DejaVuSans-30" x="63.623047"/>
      </g>
     </g>
    </g>
    <g id="xtick_15">
     <g id="line2d_71">
      <path d="M 232.153826 560.193267 
L 232.153826 398.748961 
" clip-path="url(#p7193703138)" style="fill: none; stroke: #ffffff; stroke-width: 0.8; stroke-linecap: round"/>
     </g>
     <g id="line2d_72"/>
     <g id="text_17">
      <!-- 40 -->
      <g style="fill: #262626" transform="translate(223.246326 574.33108) scale(0.14 -0.14)">
       <use xlink:href="#DejaVuSans-34"/>
       <use xlink:href="#DejaVuSans-30" x="63.623047"/>
      </g>
     </g>
    </g>
    <g id="xtick_16">
     <g id="line2d_73">
      <path d="M 317.5627 560.193267 
L 317.5627 398.748961 
" clip-path="url(#p7193703138)" style="fill: none; stroke: #ffffff; stroke-width: 0.8; stroke-linecap: round"/>
     </g>
     <g id="line2d_74"/>
     <g id="text_18">
      <!-- 60 -->
      <g style="fill: #262626" transform="translate(308.6552 574.33108) scale(0.14 -0.14)">
       <use xlink:href="#DejaVuSans-36"/>
       <use xlink:href="#DejaVuSans-30" x="63.623047"/>
      </g>
     </g>
    </g>
    <g id="xtick_17">
     <g id="line2d_75">
      <path d="M 402.971575 560.193267 
L 402.971575 398.748961 
" clip-path="url(#p7193703138)" style="fill: none; stroke: #ffffff; stroke-width: 0.8; stroke-linecap: round"/>
     </g>
     <g id="line2d_76"/>
     <g id="text_19">
      <!-- 80 -->
      <g style="fill: #262626" transform="translate(394.064075 574.33108) scale(0.14 -0.14)">
       <defs>
        <path id="DejaVuSans-38" d="M 2034 2216 
Q 1584 2216 1326 1975 
Q 1069 1734 1069 1313 
Q 1069 891 1326 650 
Q 1584 409 2034 409 
Q 2484 409 2743 651 
Q 3003 894 3003 1313 
Q 3003 1734 2745 1975 
Q 2488 2216 2034 2216 
z
M 1403 2484 
Q 997 2584 770 2862 
Q 544 3141 544 3541 
Q 544 4100 942 4425 
Q 1341 4750 2034 4750 
Q 2731 4750 3128 4425 
Q 3525 4100 3525 3541 
Q 3525 3141 3298 2862 
Q 3072 2584 2669 2484 
Q 3125 2378 3379 2068 
Q 3634 1759 3634 1313 
Q 3634 634 3220 271 
Q 2806 -91 2034 -91 
Q 1263 -91 848 271 
Q 434 634 434 1313 
Q 434 1759 690 2068 
Q 947 2378 1403 2484 
z
M 1172 3481 
Q 1172 3119 1398 2916 
Q 1625 2713 2034 2713 
Q 2441 2713 2670 2916 
Q 2900 3119 2900 3481 
Q 2900 3844 2670 4047 
Q 2441 4250 2034 4250 
Q 1625 4250 1398 4047 
Q 1172 3844 1172 3481 
z
" transform="scale(0.015625)"/>
       </defs>
       <use xlink:href="#DejaVuSans-38"/>
       <use xlink:href="#DejaVuSans-30" x="63.623047"/>
      </g>
     </g>
    </g>
    <g id="xtick_18">
     <g id="line2d_77">
      <path d="M 488.380449 560.193267 
L 488.380449 398.748961 
" clip-path="url(#p7193703138)" style="fill: none; stroke: #ffffff; stroke-width: 0.8; stroke-linecap: round"/>
     </g>
     <g id="line2d_78"/>
     <g id="text_20">
      <!-- 100 -->
      <g style="fill: #262626" transform="translate(475.019199 574.33108) scale(0.14 -0.14)">
       <use xlink:href="#DejaVuSans-31"/>
       <use xlink:href="#DejaVuSans-30" x="63.623047"/>
       <use xlink:href="#DejaVuSans-30" x="127.246094"/>
      </g>
     </g>
    </g>
   </g>
   <g id="matplotlib.axis_6">
    <g id="ytick_9">
     <g id="line2d_79">
      <path d="M 40.197381 520.245506 
L 505.248701 520.245506 
" clip-path="url(#p7193703138)" style="fill: none; stroke: #ffffff; stroke-width: 0.8; stroke-linecap: round"/>
     </g>
     <g id="line2d_80"/>
     <g id="text_21">
      <!-- 40 -->
      <g style="fill: #262626" transform="translate(7.150819 525.564413) scale(0.14 -0.14)">
       <use xlink:href="#DejaVuSans-2212"/>
       <use xlink:href="#DejaVuSans-34" x="83.789062"/>
       <use xlink:href="#DejaVuSans-30" x="147.412109"/>
      </g>
     </g>
    </g>
    <g id="ytick_10">
     <g id="line2d_81">
      <path d="M 40.197381 463.312296 
L 505.248701 463.312296 
" clip-path="url(#p7193703138)" style="fill: none; stroke: #ffffff; stroke-width: 0.8; stroke-linecap: round"/>
     </g>
     <g id="line2d_82"/>
     <g id="text_22">
      <!-- 20 -->
      <g style="fill: #262626" transform="translate(7.150819 468.631202) scale(0.14 -0.14)">
       <use xlink:href="#DejaVuSans-2212"/>
       <use xlink:href="#DejaVuSans-32" x="83.789062"/>
       <use xlink:href="#DejaVuSans-30" x="147.412109"/>
      </g>
     </g>
    </g>
    <g id="ytick_11">
     <g id="line2d_83">
      <path d="M 40.197381 406.379085 
L 505.248701 406.379085 
" clip-path="url(#p7193703138)" style="fill: none; stroke: #ffffff; stroke-width: 0.8; stroke-linecap: round"/>
     </g>
     <g id="line2d_84"/>
     <g id="text_23">
      <!-- 0 -->
      <g style="fill: #262626" transform="translate(27.789881 411.697991) scale(0.14 -0.14)">
       <use xlink:href="#DejaVuSans-30"/>
      </g>
     </g>
    </g>
   </g>
   <g id="line2d_85">
    <path d="M 364.537581 406.087339 
L 368.808025 406.331936 
L 373.078469 406.804403 
L 377.348912 409.589057 
L 381.619356 414.5774 
L 385.8898 425.681118 
L 390.160243 439.669602 
L 394.430687 457.397037 
L 398.701131 476.092858 
L 402.971575 494.512833 
L 407.242018 510.267365 
L 411.512462 523.038198 
L 415.782906 530.757221 
L 420.053349 538.895167 
L 424.323793 544.231444 
L 428.594237 547.307548 
L 432.864681 550.194756 
L 437.135124 551.164938 
L 441.405568 551.798177 
L 445.676012 551.653412 
L 449.946455 552.85489 
L 454.216899 552.054357 
L 458.487343 551.164119 
L 462.757787 551.061453 
L 467.02823 552.251149 
L 471.298674 551.196934 
L 475.569118 551.914304 
L 479.839561 552.15483 
L 484.110005 551.348268 
" clip-path="url(#p7193703138)" style="fill: none; stroke: #000000; stroke-width: 1.5; stroke-linecap: round"/>
   </g>
   <g id="line2d_86">
    <path d="M 40.197381 406.379085 
L 505.248701 406.379085 
" clip-path="url(#p7193703138)" style="fill: none; stroke: #000000; stroke-width: 1.5; stroke-linecap: round"/>
   </g>
   <g id="line2d_87">
    <path d="M 360.267137 560.193267 
L 360.267137 398.748961 
" clip-path="url(#p7193703138)" style="fill: none; stroke: #ff0000; stroke-width: 3; stroke-linecap: round"/>
   </g>
   <g id="patch_14">
    <path d="M 40.197381 560.193267 
L 40.197381 398.748961 
" style="fill: none"/>
   </g>
   <g id="patch_15">
    <path d="M 505.248701 560.193267 
L 505.248701 398.748961 
" style="fill: none"/>
   </g>
   <g id="patch_16">
    <path d="M 40.197381 560.193267 
L 505.248701 560.193267 
" style="fill: none"/>
   </g>
   <g id="patch_17">
    <path d="M 40.197381 398.748961 
L 505.248701 398.748961 
" style="fill: none"/>
   </g>
   <g id="text_24">
    <!-- Cumulative Causal Impact -->
    <g style="fill: #262626" transform="translate(167.458041 392.748961) scale(0.16 -0.16)">
     <use xlink:href="#DejaVuSans-43"/>
     <use xlink:href="#DejaVuSans-75" x="69.824219"/>
     <use xlink:href="#DejaVuSans-6d" x="133.203125"/>
     <use xlink:href="#DejaVuSans-75" x="230.615234"/>
     <use xlink:href="#DejaVuSans-6c" x="293.994141"/>
     <use xlink:href="#DejaVuSans-61" x="321.777344"/>
     <use xlink:href="#DejaVuSans-74" x="383.056641"/>
     <use xlink:href="#DejaVuSans-69" x="422.265625"/>
     <use xlink:href="#DejaVuSans-76" x="450.048828"/>
     <use xlink:href="#DejaVuSans-65" x="509.228516"/>
     <use xlink:href="#DejaVuSans-20" x="570.751953"/>
     <use xlink:href="#DejaVuSans-43" x="602.539062"/>
     <use xlink:href="#DejaVuSans-61" x="672.363281"/>
     <use xlink:href="#DejaVuSans-75" x="733.642578"/>
     <use xlink:href="#DejaVuSans-73" x="797.021484"/>
     <use xlink:href="#DejaVuSans-61" x="849.121094"/>
     <use xlink:href="#DejaVuSans-6c" x="910.400391"/>
     <use xlink:href="#DejaVuSans-20" x="938.183594"/>
     <use xlink:href="#DejaVuSans-49" x="969.970703"/>
     <use xlink:href="#DejaVuSans-6d" x="999.462891"/>
     <use xlink:href="#DejaVuSans-70" x="1096.875"/>
     <use xlink:href="#DejaVuSans-61" x="1160.351562"/>
     <use xlink:href="#DejaVuSans-63" x="1221.630859"/>
     <use xlink:href="#DejaVuSans-74" x="1276.611328"/>
    </g>
   </g>
  </g>
 </g>
 <defs>
  <clipPath id="pd8bcb7e5a3">
   <rect x="40.197381" y="27.716878" width="465.05132" height="161.444306"/>
  </clipPath>
  <clipPath id="paa58867eb7">
   <rect x="40.197381" y="213.232919" width="465.05132" height="161.444306"/>
  </clipPath>
  <clipPath id="p7193703138">
   <rect x="40.197381" y="398.748961" width="465.05132" height="161.444306"/>
  </clipPath>
 </defs>
</svg>
