<?xml version="1.0" encoding="utf-8" standalone="no"?>
<!DOCTYPE svg PUBLIC "-//W3C//DTD SVG 1.1//EN"
  "http://www.w3.org/Graphics/SVG/1.1/DTD/svg11.dtd">
<svg xmlns:xlink="http://www.w3.org/1999/xlink" width="512.39952pt" height="584.39952pt" viewBox="0 0 512.39952 584.39952" xmlns="http://www.w3.org/2000/svg" version="1.1">
 <metadata>
  <rdf:RDF xmlns:dc="http://purl.org/dc/elements/1.1/" xmlns:cc="http://creativecommons.org/ns#" xmlns:rdf="http://www.w3.org/1999/02/22-rdf-syntax-ns#">
   <cc:Work>
    <dc:type rdf:resource="http://purl.org/dc/dcmitype/StillImage"/>
    <dc:date>2022-11-15T19:40:47.380534</dc:date>
    <dc:format>image/svg+xml</dc:format>
    <dc:creator>
     <cc:Agent>
      <dc:title>Matplotlib v3.6.2, https://matplotlib.org/</dc:title>
     </cc:Agent>
    </dc:creator>
   </cc:Work>
  </rdf:RDF>
 </metadata>
 <defs>
  <style type="text/css">*{stroke-linejoin: round; stroke-linecap: butt}</style>
 </defs>
 <g id="figure_1">
  <g id="patch_1">
   <path d="M 0 584.39952 
L 512.39952 584.39952 
L 512.39952 0 
L 0 0 
z
" style="fill: #ffffff"/>
  </g>
  <g id="axes_1">
   <g id="patch_2">
    <path d="M 40.246563 189.118062 
L 505.19952 189.118062 
L 505.19952 27.76 
L 40.246563 27.76 
z
" style="fill: #eeeeee"/>
   </g>
   <g id="matplotlib.axis_1">
    <g id="xtick_1">
     <g id="line2d_1">
      <path d="M 61.380788 189.118062 
L 61.380788 27.76 
" clip-path="url(#p4951b2dbfe)" style="fill: none; stroke: #ffffff; stroke-width: 0.8; stroke-linecap: round"/>
     </g>
     <g id="line2d_2"/>
    </g>
    <g id="xtick_2">
     <g id="line2d_3">
      <path d="M 146.771597 189.118062 
L 146.771597 27.76 
" clip-path="url(#p4951b2dbfe)" style="fill: none; stroke: #ffffff; stroke-width: 0.8; stroke-linecap: round"/>
     </g>
     <g id="line2d_4"/>
    </g>
    <g id="xtick_3">
     <g id="line2d_5">
      <path d="M 232.162407 189.118062 
L 232.162407 27.76 
" clip-path="url(#p4951b2dbfe)" style="fill: none; stroke: #ffffff; stroke-width: 0.8; stroke-linecap: round"/>
     </g>
     <g id="line2d_6"/>
    </g>
    <g id="xtick_4">
     <g id="line2d_7">
      <path d="M 317.553216 189.118062 
L 317.553216 27.76 
" clip-path="url(#p4951b2dbfe)" style="fill: none; stroke: #ffffff; stroke-width: 0.8; stroke-linecap: round"/>
     </g>
     <g id="line2d_8"/>
    </g>
    <g id="xtick_5">
     <g id="line2d_9">
      <path d="M 402.944026 189.118062 
L 402.944026 27.76 
" clip-path="url(#p4951b2dbfe)" style="fill: none; stroke: #ffffff; stroke-width: 0.8; stroke-linecap: round"/>
     </g>
     <g id="line2d_10"/>
    </g>
    <g id="xtick_6">
     <g id="line2d_11">
      <path d="M 488.334835 189.118062 
L 488.334835 27.76 
" clip-path="url(#p4951b2dbfe)" style="fill: none; stroke: #ffffff; stroke-width: 0.8; stroke-linecap: round"/>
     </g>
     <g id="line2d_12"/>
    </g>
   </g>
   <g id="matplotlib.axis_2">
    <g id="ytick_1">
     <g id="line2d_13">
      <path d="M 40.246563 162.106744 
L 505.19952 162.106744 
" clip-path="url(#p4951b2dbfe)" style="fill: none; stroke: #ffffff; stroke-width: 0.8; stroke-linecap: round"/>
     </g>
     <g id="line2d_14"/>
     <g id="text_1">
      <!-- 0 -->
      <g style="fill: #262626" transform="translate(27.839063 167.42565) scale(0.14 -0.14)">
       <defs>
        <path id="DejaVuSans-30" d="M 2034 4250 
Q 1547 4250 1301 3770 
Q 1056 3291 1056 2328 
Q 1056 1369 1301 889 
Q 1547 409 2034 409 
Q 2525 409 2770 889 
Q 3016 1369 3016 2328 
Q 3016 3291 2770 3770 
Q 2525 4250 2034 4250 
z
M 2034 4750 
Q 2819 4750 3233 4129 
Q 3647 3509 3647 2328 
Q 3647 1150 3233 529 
Q 2819 -91 2034 -91 
Q 1250 -91 836 529 
Q 422 1150 422 2328 
Q 422 3509 836 4129 
Q 1250 4750 2034 4750 
z
" transform="scale(0.015625)"/>
       </defs>
       <use xlink:href="#DejaVuSans-30"/>
      </g>
     </g>
    </g>
    <g id="ytick_2">
     <g id="line2d_15">
      <path d="M 40.246563 122.31003 
L 505.19952 122.31003 
" clip-path="url(#p4951b2dbfe)" style="fill: none; stroke: #ffffff; stroke-width: 0.8; stroke-linecap: round"/>
     </g>
     <g id="line2d_16"/>
     <g id="text_2">
      <!-- 10 -->
      <g style="fill: #262626" transform="translate(18.931563 127.628936) scale(0.14 -0.14)">
       <defs>
        <path id="DejaVuSans-31" d="M 794 531 
L 1825 531 
L 1825 4091 
L 703 3866 
L 703 4441 
L 1819 4666 
L 2450 4666 
L 2450 531 
L 3481 531 
L 3481 0 
L 794 0 
L 794 531 
z
" transform="scale(0.015625)"/>
       </defs>
       <use xlink:href="#DejaVuSans-31"/>
       <use xlink:href="#DejaVuSans-30" x="63.623047"/>
      </g>
     </g>
    </g>
    <g id="ytick_3">
     <g id="line2d_17">
      <path d="M 40.246563 82.513316 
L 505.19952 82.513316 
" clip-path="url(#p4951b2dbfe)" style="fill: none; stroke: #ffffff; stroke-width: 0.8; stroke-linecap: round"/>
     </g>
     <g id="line2d_18"/>
     <g id="text_3">
      <!-- 20 -->
      <g style="fill: #262626" transform="translate(18.931563 87.832222) scale(0.14 -0.14)">
       <defs>
        <path id="DejaVuSans-32" d="M 1228 531 
L 3431 531 
L 3431 0 
L 469 0 
L 469 531 
Q 828 903 1448 1529 
Q 2069 2156 2228 2338 
Q 2531 2678 2651 2914 
Q 2772 3150 2772 3378 
Q 2772 3750 2511 3984 
Q 2250 4219 1831 4219 
Q 1534 4219 1204 4116 
Q 875 4013 500 3803 
L 500 4441 
Q 881 4594 1212 4672 
Q 1544 4750 1819 4750 
Q 2544 4750 2975 4387 
Q 3406 4025 3406 3419 
Q 3406 3131 3298 2873 
Q 3191 2616 2906 2266 
Q 2828 2175 2409 1742 
Q 1991 1309 1228 531 
z
" transform="scale(0.015625)"/>
       </defs>
       <use xlink:href="#DejaVuSans-32"/>
       <use xlink:href="#DejaVuSans-30" x="63.623047"/>
      </g>
     </g>
    </g>
    <g id="ytick_4">
     <g id="line2d_19">
      <path d="M 40.246563 42.716602 
L 505.19952 42.716602 
" clip-path="url(#p4951b2dbfe)" style="fill: none; stroke: #ffffff; stroke-width: 0.8; stroke-linecap: round"/>
     </g>
     <g id="line2d_20"/>
     <g id="text_4">
      <!-- 30 -->
      <g style="fill: #262626" transform="translate(18.931563 48.035508) scale(0.14 -0.14)">
       <defs>
        <path id="DejaVuSans-33" d="M 2597 2516 
Q 3050 2419 3304 2112 
Q 3559 1806 3559 1356 
Q 3559 666 3084 287 
Q 2609 -91 1734 -91 
Q 1441 -91 1130 -33 
Q 819 25 488 141 
L 488 750 
Q 750 597 1062 519 
Q 1375 441 1716 441 
Q 2309 441 2620 675 
Q 2931 909 2931 1356 
Q 2931 1769 2642 2001 
Q 2353 2234 1838 2234 
L 1294 2234 
L 1294 2753 
L 1863 2753 
Q 2328 2753 2575 2939 
Q 2822 3125 2822 3475 
Q 2822 3834 2567 4026 
Q 2313 4219 1838 4219 
Q 1578 4219 1281 4162 
Q 984 4106 628 3988 
L 628 4550 
Q 988 4650 1302 4700 
Q 1616 4750 1894 4750 
Q 2613 4750 3031 4423 
Q 3450 4097 3450 3541 
Q 3450 3153 3228 2886 
Q 3006 2619 2597 2516 
z
" transform="scale(0.015625)"/>
       </defs>
       <use xlink:href="#DejaVuSans-33"/>
       <use xlink:href="#DejaVuSans-30" x="63.623047"/>
      </g>
     </g>
    </g>
   </g>
   <g id="PolyCollection_1">
    <defs>
     <path id="md3659ade88" d="M 61.380788 -425.668401 
L 61.380788 -421.75355 
L 65.650328 -422.856486 
L 69.919869 -425.037362 
L 74.189409 -425.875597 
L 78.45895 -427.61432 
L 82.72849 -430.337199 
L 86.998031 -431.427011 
L 91.267571 -434.914159 
L 95.537112 -435.328266 
L 99.806652 -436.480666 
L 104.076193 -440.179237 
L 108.345733 -440.634788 
L 112.615274 -442.300123 
L 116.884814 -443.344646 
L 121.154354 -446.206127 
L 125.423895 -446.741644 
L 129.693435 -447.75385 
L 133.962976 -450.084042 
L 138.232516 -451.283906 
L 142.502057 -452.532461 
L 146.771597 -453.872484 
L 151.041138 -455.062026 
L 155.310678 -456.072702 
L 159.580219 -455.85268 
L 163.849759 -457.121251 
L 168.1193 -457.365805 
L 172.38884 -457.386711 
L 176.658381 -457.806067 
L 180.927921 -459.332807 
L 185.197462 -458.550522 
L 189.467002 -458.279754 
L 193.736543 -459.221168 
L 198.006083 -458.440801 
L 202.275623 -457.284133 
L 206.545164 -458.190239 
L 210.814704 -456.915658 
L 215.084245 -456.183988 
L 219.353785 -455.637582 
L 223.623326 -455.174261 
L 227.892866 -454.114079 
L 232.162407 -453.440218 
L 236.431947 -452.729849 
L 240.701488 -450.713806 
L 244.971028 -451.233506 
L 249.240569 -451.171566 
L 253.510109 -449.553113 
L 257.77965 -449.298486 
L 262.04919 -449.743194 
L 266.318731 -449.24537 
L 270.588271 -449.190531 
L 274.857811 -450.028784 
L 279.127352 -449.495464 
L 283.396892 -450.003194 
L 287.666433 -449.987788 
L 291.935973 -450.86087 
L 296.205514 -451.124699 
L 300.475054 -451.826708 
L 304.744595 -453.069588 
L 309.014135 -453.317939 
L 313.283676 -454.70113 
L 317.553216 -456.235782 
L 321.822757 -457.924989 
L 326.092297 -459.502643 
L 330.361838 -460.209095 
L 334.631378 -463.705033 
L 338.900919 -465.02934 
L 343.170459 -468.139022 
L 347.44 -470.374607 
L 351.70954 -471.696788 
L 355.97908 -472.464705 
L 360.248621 -473.012774 
L 360.248621 -477.225886 
L 360.248621 -477.225886 
L 355.97908 -476.533922 
L 351.70954 -475.647613 
L 347.44 -474.426136 
L 343.170459 -472.129946 
L 338.900919 -468.984661 
L 334.631378 -467.687608 
L 330.361838 -464.151307 
L 326.092297 -463.402233 
L 321.822757 -461.952089 
L 317.553216 -460.192958 
L 313.283676 -458.757674 
L 309.014135 -457.250141 
L 304.744595 -457.027436 
L 300.475054 -455.807488 
L 296.205514 -455.23192 
L 291.935973 -454.870613 
L 287.666433 -453.903194 
L 283.396892 -453.943958 
L 279.127352 -453.417801 
L 274.857811 -453.888251 
L 270.588271 -453.024723 
L 266.318731 -453.318862 
L 262.04919 -453.728213 
L 257.77965 -453.155458 
L 253.510109 -453.520741 
L 249.240569 -455.021465 
L 244.971028 -455.114394 
L 240.701488 -454.660897 
L 236.431947 -456.722926 
L 232.162407 -457.380329 
L 227.892866 -458.208604 
L 223.623326 -459.148096 
L 219.353785 -459.690577 
L 215.084245 -460.191598 
L 210.814704 -460.920132 
L 206.545164 -462.180157 
L 202.275623 -461.361623 
L 198.006083 -462.338999 
L 193.736543 -463.166776 
L 189.467002 -462.249765 
L 185.197462 -462.459873 
L 180.927921 -463.451287 
L 176.658381 -461.787536 
L 172.38884 -461.347784 
L 168.1193 -461.404099 
L 163.849759 -461.209261 
L 159.580219 -459.911857 
L 155.310678 -460.100811 
L 151.041138 -459.062472 
L 146.771597 -457.837088 
L 142.502057 -456.548151 
L 138.232516 -455.276657 
L 133.962976 -454.082722 
L 129.693435 -451.592893 
L 125.423895 -450.663418 
L 121.154354 -450.149162 
L 116.884814 -447.362696 
L 112.615274 -446.320095 
L 108.345733 -444.741257 
L 104.076193 -444.214009 
L 99.806652 -440.614604 
L 95.537112 -439.309044 
L 91.267571 -438.840805 
L 86.998031 -435.469855 
L 82.72849 -434.354209 
L 78.45895 -431.480283 
L 74.189409 -429.772157 
L 69.919869 -428.891206 
L 65.650328 -426.873198 
L 61.380788 -425.668401 
z
" style="stroke: #fa7c17; stroke-opacity: 0.25"/>
    </defs>
    <g clip-path="url(#p4951b2dbfe)">
     <use xlink:href="#md3659ade88" x="0" y="584.39952" style="fill: #fa7c17; fill-opacity: 0.25; stroke: #fa7c17; stroke-opacity: 0.25"/>
    </g>
   </g>
   <g id="PolyCollection_2">
    <defs>
     <path id="m09341b482e" d="M 364.518161 -479.587328 
L 364.518161 -475.398911 
L 368.787702 -474.798043 
L 373.057242 -477.827082 
L 377.326783 -479.518945 
L 381.596323 -479.55086 
L 385.865864 -482.229926 
L 390.135404 -483.978092 
L 394.404945 -486.117508 
L 398.674485 -486.936637 
L 402.944026 -489.92954 
L 407.213566 -491.03779 
L 411.483107 -492.441904 
L 415.752647 -494.453459 
L 420.022188 -496.285355 
L 424.291728 -497.251961 
L 428.561269 -499.053724 
L 432.830809 -499.494886 
L 437.100349 -501.022266 
L 441.36989 -501.488097 
L 445.63943 -502.859831 
L 449.908971 -503.307606 
L 454.178511 -505.682473 
L 458.448052 -505.920283 
L 462.717592 -506.981633 
L 466.987133 -508.145386 
L 471.256673 -507.717627 
L 475.526214 -508.529817 
L 479.795754 -509.967982 
L 484.065295 -511.531285 
L 484.065295 -517.026871 
L 484.065295 -517.026871 
L 479.795754 -515.247197 
L 475.526214 -513.842304 
L 471.256673 -513.088582 
L 466.987133 -513.55443 
L 462.717592 -512.383915 
L 458.448052 -511.323128 
L 454.178511 -510.958751 
L 449.908971 -508.917634 
L 445.63943 -508.397214 
L 441.36989 -506.96453 
L 437.100349 -506.370446 
L 432.830809 -504.90795 
L 428.561269 -504.318889 
L 424.291728 -502.508074 
L 420.022188 -501.535825 
L 415.752647 -499.399761 
L 411.483107 -497.348585 
L 407.213566 -496.059701 
L 402.944026 -494.845978 
L 398.674485 -491.884641 
L 394.404945 -491.016368 
L 390.135404 -488.673975 
L 385.865864 -486.803184 
L 381.596323 -483.938917 
L 377.326783 -484.006956 
L 373.057242 -482.026743 
L 368.787702 -479.147975 
L 364.518161 -479.587328 
z
" style="stroke: #fa7c17; stroke-opacity: 0.25"/>
    </defs>
    <g clip-path="url(#p4951b2dbfe)">
     <use xlink:href="#m09341b482e" x="0" y="584.39952" style="fill: #fa7c17; fill-opacity: 0.25; stroke: #fa7c17; stroke-opacity: 0.25"/>
    </g>
   </g>
   <g id="line2d_21">
    <path d="M 61.380788 158.949935 
L 65.650328 154.776596 
L 69.919869 150.696618 
L 74.189409 150.898976 
L 78.45895 146.724487 
L 82.72849 142.676872 
L 86.998031 139.470092 
L 91.267571 132.512956 
L 95.537112 133.25309 
L 99.806652 129.525359 
L 104.076193 124.183676 
L 108.345733 122.345314 
L 112.615274 118.532702 
L 116.884814 115.898195 
L 121.154354 111.438444 
L 125.423895 109.049435 
L 129.693435 107.526759 
L 133.962976 104.493381 
L 138.232516 102.88668 
L 142.502057 100.823939 
L 146.771597 100.234906 
L 151.041138 98.780328 
L 155.310678 96.932366 
L 159.580219 99.281993 
L 163.849759 99.044013 
L 168.1193 99.714111 
L 172.38884 99.153552 
L 176.658381 101.466453 
L 180.927921 98.098213 
L 185.197462 103.009172 
L 189.467002 104.428402 
L 193.736543 103.860237 
L 198.006083 105.216736 
L 202.275623 108.902734 
L 206.545164 108.80524 
L 210.814704 112.182895 
L 215.084245 114.2094 
L 219.353785 115.493477 
L 223.623326 116.838386 
L 227.892866 118.823248 
L 232.162407 120.277143 
L 236.431947 121.403531 
L 240.701488 124.006606 
L 244.971028 122.886603 
L 249.240569 121.908115 
L 253.510109 123.847495 
L 257.77965 125.585132 
L 262.04919 123.357322 
L 266.318731 124.013042 
L 270.588271 124.367271 
L 274.857811 122.262446 
L 279.127352 123.342789 
L 283.396892 123.057439 
L 287.666433 122.417335 
L 291.935973 122.53748 
L 296.205514 121.770509 
L 300.475054 122.990053 
L 304.744595 120.276642 
L 309.014135 120.310241 
L 313.283676 117.791444 
L 317.553216 118.039583 
L 321.822757 116.22587 
L 326.092297 113.846818 
L 330.361838 112.877502 
L 334.631378 109.766378 
L 338.900919 107.489219 
L 343.170459 102.730277 
L 347.44 100.992129 
L 351.70954 98.21609 
L 355.97908 98.795187 
L 360.248621 98.568413 
" clip-path="url(#p4951b2dbfe)" style="fill: none; stroke: #cccccc; stroke-width: 1.5; stroke-linecap: round"/>
   </g>
   <g id="line2d_22">
    <path d="M 61.380788 157.023654 
L 65.650328 157.390561 
L 69.919869 154.454007 
L 74.189409 152.4578 
L 78.45895 152.720093 
L 82.72849 148.516297 
L 86.998031 150.421207 
L 91.267571 148.048463 
L 95.537112 148.403404 
L 99.806652 146.295596 
L 104.076193 146.228595 
L 108.345733 145.697867 
L 112.615274 146.947967 
L 116.884814 146.023432 
L 121.154354 143.576658 
L 125.423895 143.786056 
L 129.693435 143.652341 
L 133.962976 143.183389 
L 138.232516 142.009168 
L 142.502057 141.190439 
L 146.771597 139.267812 
L 151.041138 136.509628 
L 155.310678 136.43291 
L 159.580219 135.521183 
L 163.849759 137.389271 
L 168.1193 135.137138 
L 172.38884 135.404874 
L 176.658381 136.24325 
L 180.927921 136.945877 
L 185.197462 136.213137 
L 189.467002 136.99906 
L 193.736543 135.541185 
L 198.006083 137.420505 
L 202.275623 135.758516 
L 206.545164 135.810467 
L 210.814704 136.14813 
L 215.084245 133.700627 
L 219.353785 131.902663 
L 223.623326 131.330189 
L 227.892866 130.360439 
L 232.162407 126.418999 
L 236.431947 123.858748 
L 240.701488 125.336705 
L 244.971028 121.659282 
L 249.240569 120.495247 
L 253.510109 120.119621 
L 257.77965 116.951136 
L 262.04919 115.797384 
L 266.318731 115.684234 
L 270.588271 112.785956 
L 274.857811 114.746725 
L 279.127352 114.258256 
L 283.396892 111.816961 
L 287.666433 111.405899 
L 291.935973 113.096534 
L 296.205514 111.835182 
L 300.475054 109.829603 
L 304.744595 109.422265 
L 309.014135 109.985431 
L 313.283676 106.930642 
L 317.553216 106.701294 
L 321.822757 107.007384 
L 326.092297 101.591344 
L 330.361838 101.234271 
L 334.631378 99.71265 
L 338.900919 97.863897 
L 343.170459 94.139569 
L 347.44 91.382761 
L 351.70954 88.556019 
L 355.97908 86.296331 
L 360.248621 87.739551 
" clip-path="url(#p4951b2dbfe)" style="fill: none; stroke: #cccccc; stroke-width: 1.5; stroke-linecap: round"/>
   </g>
   <g id="line2d_23">
    <path d="M 61.380788 162.327243 
L 65.650328 162.987937 
L 69.919869 162.71684 
L 74.189409 161.100308 
L 78.45895 160.86679 
L 82.72849 157.644118 
L 86.998031 157.885937 
L 91.267571 157.137057 
L 95.537112 155.961439 
L 99.806652 156.91912 
L 104.076193 153.11087 
L 108.345733 154.563616 
L 112.615274 154.444882 
L 116.884814 154.702132 
L 121.154354 153.50773 
L 125.423895 154.64098 
L 129.693435 155.197127 
L 133.962976 152.12759 
L 138.232516 152.54301 
L 142.502057 150.785593 
L 146.771597 149.600276 
L 151.041138 148.282244 
L 155.310678 147.566577 
L 159.580219 146.571114 
L 163.849759 145.424815 
L 168.1193 143.96069 
L 172.38884 143.411338 
L 176.658381 142.959612 
L 180.927921 141.418422 
L 185.197462 141.657835 
L 189.467002 141.206931 
L 193.736543 139.799482 
L 198.006083 141.189763 
L 202.275623 142.239017 
L 206.545164 140.492847 
L 210.814704 141.669542 
L 215.084245 141.498374 
L 219.353785 141.665616 
L 223.623326 144.053055 
L 227.892866 144.972955 
L 232.162407 146.152565 
L 236.431947 147.462884 
L 240.701488 151.187584 
L 244.971028 152.402457 
L 249.240569 153.23015 
L 253.510109 155.0892 
L 257.77965 155.331597 
L 262.04919 158.46461 
L 266.318731 157.843108 
L 270.588271 159.038211 
L 274.857811 158.296079 
L 279.127352 158.546779 
L 283.396892 158.284335 
L 287.666433 159.719145 
L 291.935973 157.298158 
L 296.205514 156.286877 
L 300.475054 156.245178 
L 304.744595 154.173919 
L 309.014135 154.316925 
L 313.283676 153.099219 
L 317.553216 150.683653 
L 321.822757 148.508199 
L 326.092297 148.379457 
L 330.361838 146.922211 
L 334.631378 142.043267 
L 338.900919 140.921453 
L 343.170459 137.408458 
L 347.44 135.044057 
L 351.70954 135.318901 
L 355.97908 133.376975 
L 360.248621 133.121656 
" clip-path="url(#p4951b2dbfe)" style="fill: none; stroke: #cccccc; stroke-width: 1.5; stroke-linecap: round"/>
   </g>
   <g id="line2d_24">
    <path d="M 61.380788 165.256792 
L 65.650328 167.800745 
L 69.919869 167.793802 
L 74.189409 167.123226 
L 78.45895 171.631839 
L 82.72849 172.308375 
L 86.998031 173.384663 
L 91.267571 173.576625 
L 95.537112 172.16244 
L 99.806652 174.926572 
L 104.076193 172.440124 
L 108.345733 174.105242 
L 112.615274 175.088876 
L 116.884814 174.171401 
L 121.154354 172.39615 
L 125.423895 170.717802 
L 129.693435 168.572601 
L 133.962976 165.211076 
L 138.232516 163.016743 
L 142.502057 158.944808 
L 146.771597 157.362555 
L 151.041138 155.190674 
L 155.310678 153.674603 
L 159.580219 151.501465 
L 163.849759 150.318005 
L 168.1193 149.068333 
L 172.38884 149.271206 
L 176.658381 147.367863 
L 180.927921 149.203792 
L 185.197462 146.946395 
L 189.467002 145.957545 
L 193.736543 149.136869 
L 198.006083 147.22646 
L 202.275623 147.300286 
L 206.545164 144.712293 
L 210.814704 145.59357 
L 215.084245 145.689275 
L 219.353785 145.158427 
L 223.623326 143.537771 
L 227.892866 142.705258 
L 232.162407 142.602526 
L 236.431947 139.518781 
L 240.701488 139.194385 
L 244.971028 137.461961 
L 249.240569 137.386487 
L 253.510109 136.125631 
L 257.77965 134.36453 
L 262.04919 134.878353 
L 266.318731 133.82568 
L 270.588271 136.111527 
L 274.857811 133.893127 
L 279.127352 134.946132 
L 283.396892 133.977364 
L 287.666433 134.004966 
L 291.935973 132.328772 
L 296.205514 132.199988 
L 300.475054 131.37339 
L 304.744595 134.980949 
L 309.014135 135.362741 
L 313.283676 131.835537 
L 317.553216 129.484789 
L 321.822757 129.519964 
L 326.092297 129.043128 
L 330.361838 129.825657 
L 334.631378 127.007589 
L 338.900919 128.33866 
L 343.170459 128.042719 
L 347.44 126.15818 
L 351.70954 128.123263 
L 355.97908 124.677325 
L 360.248621 123.914343 
" clip-path="url(#p4951b2dbfe)" style="fill: none; stroke: #cccccc; stroke-width: 1.5; stroke-linecap: round"/>
   </g>
   <g id="line2d_25">
    <path d="M 61.380788 157.82792 
L 65.650328 157.815452 
L 69.919869 156.407628 
L 74.189409 154.390318 
L 78.45895 154.236085 
L 82.72849 151.336389 
L 86.998031 150.37788 
L 91.267571 150.358039 
L 95.537112 148.333222 
L 99.806652 146.52665 
L 104.076193 145.845765 
L 108.345733 144.533492 
L 112.615274 144.761009 
L 116.884814 143.43428 
L 121.154354 142.543984 
L 125.423895 142.200092 
L 129.693435 142.043267 
L 133.962976 141.446633 
L 138.232516 140.751077 
L 142.502057 141.300684 
L 146.771597 140.925664 
L 151.041138 139.46605 
L 155.310678 137.922112 
L 159.580219 135.241695 
L 163.849759 132.33391 
L 168.1193 133.171715 
L 172.38884 130.648305 
L 176.658381 126.098268 
L 180.927921 124.392646 
L 185.197462 121.948124 
L 189.467002 121.057691 
L 193.736543 117.670601 
L 198.006083 116.31967 
L 202.275623 113.704868 
L 206.545164 111.453698 
L 210.814704 110.654846 
L 215.084245 108.687662 
L 219.353785 105.478541 
L 223.623326 103.051789 
L 227.892866 102.576806 
L 232.162407 102.303732 
L 236.431947 99.129594 
L 240.701488 99.229277 
L 244.971028 96.80981 
L 249.240569 95.441129 
L 253.510109 95.064007 
L 257.77965 94.451481 
L 262.04919 91.99564 
L 266.318731 91.681718 
L 270.588271 89.186472 
L 274.857811 87.215277 
L 279.127352 88.460615 
L 283.396892 83.988509 
L 287.666433 83.386759 
L 291.935973 80.093071 
L 296.205514 77.189249 
L 300.475054 78.09511 
L 304.744595 75.077354 
L 309.014135 73.449393 
L 313.283676 71.428635 
L 317.553216 71.605463 
L 321.822757 72.251013 
L 326.092297 70.229474 
L 330.361838 71.07296 
L 334.631378 69.142271 
L 338.900919 67.934662 
L 343.170459 67.303519 
L 347.44 67.880624 
L 351.70954 68.424104 
L 355.97908 69.025788 
L 360.248621 68.183296 
" clip-path="url(#p4951b2dbfe)" style="fill: none; stroke: #cccccc; stroke-width: 1.5; stroke-linecap: round"/>
   </g>
   <g id="line2d_26">
    <path d="M 61.380788 158.853825 
L 65.650328 158.564399 
L 69.919869 156.314337 
L 74.189409 153.794857 
L 78.45895 151.154082 
L 82.72849 149.724957 
L 86.998031 147.847831 
L 91.267571 144.527815 
L 95.537112 142.949542 
L 99.806652 141.893094 
L 104.076193 138.487219 
L 108.345733 137.326339 
L 112.615274 134.862489 
L 116.884814 135.031063 
L 121.154354 131.051585 
L 125.423895 132.148944 
L 129.693435 129.553687 
L 133.962976 128.170289 
L 138.232516 125.233234 
L 142.502057 127.737425 
L 146.771597 125.215984 
L 151.041138 125.505124 
L 155.310678 124.787855 
L 159.580219 124.748856 
L 163.849759 121.447888 
L 168.1193 122.49091 
L 172.38884 123.6899 
L 176.658381 120.560242 
L 180.927921 120.425195 
L 185.197462 117.627503 
L 189.467002 117.819025 
L 193.736543 115.84347 
L 198.006083 115.840377 
L 202.275623 113.680331 
L 206.545164 113.63316 
L 210.814704 112.372899 
L 215.084245 113.436501 
L 219.353785 115.190829 
L 223.623326 112.976994 
L 227.892866 113.604874 
L 232.162407 113.767027 
L 236.431947 114.790254 
L 240.701488 115.129041 
L 244.971028 114.091149 
L 249.240569 114.778091 
L 253.510109 117.453405 
L 257.77965 116.281376 
L 262.04919 113.430689 
L 266.318731 115.022161 
L 270.588271 114.939691 
L 274.857811 114.502441 
L 279.127352 114.26378 
L 283.396892 114.064565 
L 287.666433 112.825851 
L 291.935973 112.606685 
L 296.205514 114.417709 
L 300.475054 110.068172 
L 304.744595 111.729432 
L 309.014135 110.45686 
L 313.283676 110.927093 
L 317.553216 108.520168 
L 321.822757 105.077889 
L 326.092297 104.236726 
L 330.361838 104.760484 
L 334.631378 101.633192 
L 338.900919 100.614801 
L 343.170459 100.958574 
L 347.44 96.655117 
L 351.70954 94.849446 
L 355.97908 94.907161 
L 360.248621 92.502387 
" clip-path="url(#p4951b2dbfe)" style="fill: none; stroke: #cccccc; stroke-width: 1.5; stroke-linecap: round"/>
   </g>
   <g id="line2d_27">
    <path d="M 61.380788 172.48385 
L 65.650328 174.475958 
L 69.919869 174.639143 
L 74.189409 176.287112 
L 78.45895 176.099231 
L 82.72849 178.365301 
L 86.998031 180.403654 
L 91.267571 178.260336 
L 95.537112 178.939909 
L 99.806652 181.783604 
L 104.076193 181.365268 
L 108.345733 180.019257 
L 112.615274 176.970281 
L 116.884814 176.690161 
L 121.154354 174.579325 
L 125.423895 173.803053 
L 129.693435 172.441561 
L 133.962976 169.338992 
L 138.232516 168.36067 
L 142.502057 165.259705 
L 146.771597 165.140643 
L 151.041138 163.146058 
L 155.310678 162.385987 
L 159.580219 162.298569 
L 163.849759 160.416793 
L 168.1193 160.541005 
L 172.38884 158.016888 
L 176.658381 156.961454 
L 180.927921 153.851521 
L 185.197462 153.284811 
L 189.467002 150.681862 
L 193.736543 150.863431 
L 198.006083 148.877165 
L 202.275623 149.063599 
L 206.545164 147.477072 
L 210.814704 146.171358 
L 215.084245 145.261187 
L 219.353785 145.089425 
L 223.623326 146.912045 
L 227.892866 146.211464 
L 232.162407 146.937867 
L 236.431947 147.180084 
L 240.701488 147.637237 
L 244.971028 147.687665 
L 249.240569 150.175056 
L 253.510109 150.621767 
L 257.77965 153.090091 
L 262.04919 151.62632 
L 266.318731 155.518766 
L 270.588271 154.295427 
L 274.857811 156.879517 
L 279.127352 155.365143 
L 283.396892 155.156624 
L 287.666433 157.546685 
L 291.935973 157.479925 
L 296.205514 156.141108 
L 300.475054 155.054771 
L 304.744595 153.043682 
L 309.014135 153.213639 
L 313.283676 150.320631 
L 317.553216 148.744943 
L 321.822757 148.97086 
L 326.092297 146.138318 
L 330.361838 143.987046 
L 334.631378 142.316417 
L 338.900919 141.165988 
L 343.170459 135.983084 
L 347.44 135.504319 
L 351.70954 132.30924 
L 355.97908 131.217959 
L 360.248621 128.39105 
" clip-path="url(#p4951b2dbfe)" style="fill: none; stroke: #cccccc; stroke-width: 1.5; stroke-linecap: round"/>
   </g>
   <g id="line2d_28">
    <path d="M 364.518161 95.50234 
L 368.787702 96.11726 
L 373.057242 93.01224 
L 377.326783 89.28835 
L 381.596323 88.725284 
L 385.865864 86.283939 
L 390.135404 81.694472 
L 394.404945 78.826845 
L 398.674485 78.249984 
L 402.944026 72.361729 
L 407.213566 71.729452 
L 411.483107 69.881066 
L 415.752647 66.691023 
L 420.022188 62.75164 
L 424.291728 63.732739 
L 428.561269 62.070159 
L 432.830809 63.473033 
L 437.100349 63.363309 
L 441.36989 65.105587 
L 445.63943 64.400619 
L 449.908971 63.433939 
L 454.178511 62.847828 
L 458.448052 60.984582 
L 462.717592 62.388659 
L 466.987133 61.914818 
L 471.256673 62.753979 
L 475.526214 62.280854 
L 479.795754 62.269517 
L 484.065295 59.214892 
" clip-path="url(#p4951b2dbfe)" style="fill: none; stroke: #cccccc; stroke-width: 1.5; stroke-linecap: round"/>
   </g>
   <g id="line2d_29">
    <path d="M 364.518161 82.429389 
L 368.787702 79.03587 
L 373.057242 79.445183 
L 377.326783 76.705054 
L 381.596323 76.297801 
L 385.865864 72.549195 
L 390.135404 70.551214 
L 394.404945 67.807195 
L 398.674485 66.287783 
L 402.944026 64.440208 
L 407.213566 63.350868 
L 411.483107 61.210752 
L 415.752647 60.559716 
L 420.022188 57.876482 
L 424.291728 55.733017 
L 428.561269 55.386477 
L 432.830809 56.709846 
L 437.100349 57.426179 
L 441.36989 56.639998 
L 445.63943 55.933479 
L 449.908971 55.137782 
L 454.178511 55.566825 
L 458.448052 54.646903 
L 462.717592 55.249736 
L 466.987133 54.711324 
L 471.256673 54.897914 
L 475.526214 57.085864 
L 479.795754 54.030335 
L 484.065295 53.738265 
" clip-path="url(#p4951b2dbfe)" style="fill: none; stroke: #cccccc; stroke-width: 1.5; stroke-linecap: round"/>
   </g>
   <g id="line2d_30">
    <path d="M 364.518161 131.3573 
L 368.787702 132.906911 
L 373.057242 128.607938 
L 377.326783 127.533333 
L 381.596323 128.565083 
L 385.865864 125.016786 
L 390.135404 125.101398 
L 394.404945 123.255622 
L 398.674485 124.133873 
L 402.944026 122.033292 
L 407.213566 120.285219 
L 411.483107 120.306744 
L 415.752647 120.47866 
L 420.022188 119.419986 
L 424.291728 118.429865 
L 428.561269 117.352676 
L 432.830809 116.403358 
L 437.100349 113.254925 
L 441.36989 112.80253 
L 445.63943 110.372747 
L 449.908971 111.892394 
L 454.178511 107.164401 
L 458.448052 108.878111 
L 462.717592 106.866151 
L 466.987133 104.467562 
L 471.256673 104.652514 
L 475.526214 103.868638 
L 479.795754 101.898688 
L 484.065295 102.921351 
" clip-path="url(#p4951b2dbfe)" style="fill: none; stroke: #cccccc; stroke-width: 1.5; stroke-linecap: round"/>
   </g>
   <g id="line2d_31">
    <path d="M 364.518161 123.809435 
L 368.787702 126.787152 
L 373.057242 123.762447 
L 377.326783 123.009654 
L 381.596323 125.998627 
L 385.865864 124.704817 
L 390.135404 125.514109 
L 394.404945 124.837235 
L 398.674485 122.65038 
L 402.944026 124.643468 
L 407.213566 122.75941 
L 411.483107 123.851815 
L 415.752647 123.356812 
L 420.022188 123.529291 
L 424.291728 121.461313 
L 428.561269 120.459804 
L 432.830809 120.092768 
L 437.100349 118.622642 
L 441.36989 116.5231 
L 445.63943 113.794999 
L 449.908971 111.247071 
L 454.178511 108.509567 
L 458.448052 104.469904 
L 462.717592 102.909012 
L 466.987133 99.258909 
L 471.256673 97.61574 
L 475.526214 94.566415 
L 479.795754 91.357638 
L 484.065295 88.534495 
" clip-path="url(#p4951b2dbfe)" style="fill: none; stroke: #cccccc; stroke-width: 1.5; stroke-linecap: round"/>
   </g>
   <g id="line2d_32">
    <path d="M 364.518161 68.916419 
L 368.787702 67.552753 
L 373.057242 67.248833 
L 377.326783 64.816177 
L 381.596323 64.830677 
L 385.865864 62.467704 
L 390.135404 58.476804 
L 394.404945 57.446487 
L 398.674485 55.943379 
L 402.944026 51.596152 
L 407.213566 52.155354 
L 411.483107 47.218322 
L 415.752647 43.050941 
L 420.022188 42.572644 
L 424.291728 40.088688 
L 428.561269 38.146984 
L 432.830809 38.019951 
L 437.100349 37.111611 
L 441.36989 36.182406 
L 445.63943 36.520473 
L 449.908971 37.684733 
L 454.178511 35.094457 
L 458.448052 37.311711 
L 462.717592 38.326763 
L 466.987133 37.240196 
L 471.256673 37.625973 
L 475.526214 38.685577 
L 479.795754 39.144311 
L 484.065295 39.446782 
" clip-path="url(#p4951b2dbfe)" style="fill: none; stroke: #cccccc; stroke-width: 1.5; stroke-linecap: round"/>
   </g>
   <g id="line2d_33">
    <path d="M 364.518161 90.427812 
L 368.787702 89.602635 
L 373.057242 87.435106 
L 377.326783 87.629824 
L 381.596323 86.149927 
L 385.865864 84.930693 
L 390.135404 84.160787 
L 394.404945 82.111334 
L 398.674485 78.772885 
L 402.944026 77.240682 
L 407.213566 76.966194 
L 411.483107 72.618018 
L 415.752647 69.45813 
L 420.022188 68.769436 
L 424.291728 65.59391 
L 428.561269 61.992488 
L 432.830809 58.035593 
L 437.100349 56.161063 
L 441.36989 53.170638 
L 445.63943 52.0758 
L 449.908971 50.080203 
L 454.178511 48.121509 
L 458.448052 49.1058 
L 462.717592 45.519239 
L 466.987133 45.326703 
L 471.256673 45.808085 
L 475.526214 43.726855 
L 479.795754 42.078703 
L 484.065295 38.374748 
" clip-path="url(#p4951b2dbfe)" style="fill: none; stroke: #cccccc; stroke-width: 1.5; stroke-linecap: round"/>
   </g>
   <g id="line2d_34">
    <path d="M 364.518161 124.930032 
L 368.787702 124.946321 
L 373.057242 122.220495 
L 377.326783 121.284275 
L 381.596323 119.985134 
L 385.865864 115.872356 
L 390.135404 116.01763 
L 394.404945 111.373866 
L 398.674485 111.01256 
L 402.944026 110.8156 
L 407.213566 109.383561 
L 411.483107 109.2068 
L 415.752647 105.628707 
L 420.022188 103.240963 
L 424.291728 100.641194 
L 428.561269 101.348168 
L 432.830809 98.47769 
L 437.100349 94.628589 
L 441.36989 93.279332 
L 445.63943 89.800339 
L 449.908971 88.08736 
L 454.178511 88.786862 
L 458.448052 85.700674 
L 462.717592 82.997414 
L 466.987133 80.154968 
L 471.256673 81.041137 
L 475.526214 80.432041 
L 479.795754 78.887353 
L 484.065295 76.635156 
" clip-path="url(#p4951b2dbfe)" style="fill: none; stroke: #cccccc; stroke-width: 1.5; stroke-linecap: round"/>
   </g>
   <g id="line2d_35">
    <path d="M 61.380788 162.64597 
L 65.650328 161.543034 
L 69.919869 159.362158 
L 74.189409 158.523923 
L 78.45895 156.7852 
L 82.72849 154.062321 
L 86.998031 152.972509 
L 91.267571 149.485361 
L 95.537112 149.071254 
L 99.806652 147.918854 
L 104.076193 144.220283 
L 108.345733 143.764732 
L 112.615274 142.099397 
L 116.884814 141.054874 
L 121.154354 138.193393 
L 125.423895 137.657876 
L 129.693435 136.64567 
L 133.962976 134.315478 
L 138.232516 133.115614 
L 142.502057 131.867059 
L 146.771597 130.527036 
L 151.041138 129.337494 
L 155.310678 128.326818 
L 159.580219 128.54684 
L 163.849759 127.278269 
L 168.1193 127.033715 
L 172.38884 127.012809 
L 176.658381 126.593453 
L 180.927921 125.066713 
L 185.197462 125.848998 
L 189.467002 126.119766 
L 193.736543 125.178352 
L 198.006083 125.958719 
L 202.275623 127.115387 
L 206.545164 126.209281 
L 210.814704 127.483862 
L 215.084245 128.215532 
L 219.353785 128.761938 
L 223.623326 129.225259 
L 227.892866 130.285441 
L 232.162407 130.959302 
L 236.431947 131.669671 
L 240.701488 133.685714 
L 244.971028 133.166014 
L 249.240569 133.227954 
L 253.510109 134.846407 
L 257.77965 135.101034 
L 262.04919 134.656326 
L 266.318731 135.15415 
L 270.588271 135.208989 
L 274.857811 134.370736 
L 279.127352 134.904056 
L 283.396892 134.396326 
L 287.666433 134.411732 
L 291.935973 133.53865 
L 296.205514 133.274821 
L 300.475054 132.572812 
L 304.744595 131.329932 
L 309.014135 131.081581 
L 313.283676 129.69839 
L 317.553216 128.163738 
L 321.822757 126.474531 
L 326.092297 124.896877 
L 330.361838 124.190425 
L 334.631378 120.694487 
L 338.900919 119.37018 
L 343.170459 116.260498 
L 347.44 114.024913 
L 351.70954 112.702732 
L 355.97908 111.934815 
L 360.248621 111.386746 
" clip-path="url(#p4951b2dbfe)" style="fill: none; stroke: #fa7c17; stroke-opacity: 0; stroke-width: 1.5; stroke-linecap: round"/>
   </g>
   <g id="line2d_36">
    <path d="M 61.380788 158.731119 
L 65.650328 157.526322 
L 69.919869 155.508314 
L 74.189409 154.627363 
L 78.45895 152.919237 
L 82.72849 150.045311 
L 86.998031 148.929665 
L 91.267571 145.558715 
L 95.537112 145.090476 
L 99.806652 143.784916 
L 104.076193 140.185511 
L 108.345733 139.658263 
L 112.615274 138.079425 
L 116.884814 137.036824 
L 121.154354 134.250358 
L 125.423895 133.736102 
L 129.693435 132.806627 
L 133.962976 130.316798 
L 138.232516 129.122863 
L 142.502057 127.851369 
L 146.771597 126.562432 
L 151.041138 125.337048 
L 155.310678 124.298709 
L 159.580219 124.487663 
L 163.849759 123.190259 
L 168.1193 122.995421 
L 172.38884 123.051736 
L 176.658381 122.611984 
L 180.927921 120.948233 
L 185.197462 121.939647 
L 189.467002 122.149755 
L 193.736543 121.232744 
L 198.006083 122.060521 
L 202.275623 123.037897 
L 206.545164 122.219363 
L 210.814704 123.479388 
L 215.084245 124.207922 
L 219.353785 124.708943 
L 223.623326 125.251424 
L 227.892866 126.190916 
L 232.162407 127.019191 
L 236.431947 127.676594 
L 240.701488 129.738623 
L 244.971028 129.285126 
L 249.240569 129.378055 
L 253.510109 130.878779 
L 257.77965 131.244062 
L 262.04919 130.671307 
L 266.318731 131.080658 
L 270.588271 131.374797 
L 274.857811 130.511269 
L 279.127352 130.981719 
L 283.396892 130.455562 
L 287.666433 130.496326 
L 291.935973 129.528907 
L 296.205514 129.1676 
L 300.475054 128.592032 
L 304.744595 127.372084 
L 309.014135 127.149379 
L 313.283676 125.641846 
L 317.553216 124.206562 
L 321.822757 122.447431 
L 326.092297 120.997287 
L 330.361838 120.248213 
L 334.631378 116.711912 
L 338.900919 115.414859 
L 343.170459 112.269574 
L 347.44 109.973384 
L 351.70954 108.751907 
L 355.97908 107.865598 
L 360.248621 107.173634 
" clip-path="url(#p4951b2dbfe)" style="fill: none; stroke: #fa7c17; stroke-opacity: 0; stroke-width: 1.5; stroke-linecap: round"/>
   </g>
   <g id="line2d_37">
    <path d="M 61.380788 160.680106 
L 65.650328 159.64946 
L 69.919869 157.596554 
L 74.189409 156.56689 
L 78.45895 154.847061 
L 82.72849 152.083512 
L 86.998031 150.886117 
L 91.267571 147.517829 
L 95.537112 147.036465 
L 99.806652 145.980736 
L 104.076193 142.185285 
L 108.345733 141.7684 
L 112.615274 139.994554 
L 116.884814 139.100789 
L 121.154354 136.167575 
L 125.423895 135.763924 
L 129.693435 134.770971 
L 133.962976 132.17941 
L 138.232516 130.994465 
L 142.502057 129.895324 
L 146.771597 128.60914 
L 151.041138 127.403454 
L 155.310678 126.285034 
L 159.580219 126.516029 
L 163.849759 125.328325 
L 168.1193 125.135047 
L 172.38884 124.912463 
L 176.658381 124.715256 
L 180.927921 123.054187 
L 185.197462 124.010291 
L 189.467002 124.240561 
L 193.736543 123.304363 
L 198.006083 124.054782 
L 202.275623 125.045579 
L 206.545164 124.214018 
L 210.814704 125.444343 
L 215.084245 126.147613 
L 219.353785 126.733797 
L 223.623326 127.310982 
L 227.892866 128.304423 
L 232.162407 129.02282 
L 236.431947 129.634415 
L 240.701488 131.762022 
L 244.971028 131.226163 
L 249.240569 131.290006 
L 253.510109 132.953653 
L 257.77965 133.170692 
L 262.04919 132.713075 
L 266.318731 133.095213 
L 270.588271 133.459821 
L 274.857811 132.46972 
L 279.127352 132.858749 
L 283.396892 132.36219 
L 287.666433 132.387063 
L 291.935973 131.569453 
L 296.205514 131.150139 
L 300.475054 130.534096 
L 304.744595 129.348945 
L 309.014135 129.184812 
L 313.283676 127.571653 
L 317.553216 126.26466 
L 321.822757 124.361881 
L 326.092297 122.937355 
L 330.361838 122.22239 
L 334.631378 118.74395 
L 338.900919 117.351978 
L 343.170459 114.35983 
L 347.44 111.991651 
L 351.70954 110.66036 
L 355.97908 109.976261 
L 360.248621 109.208274 
" clip-path="url(#p4951b2dbfe)" style="fill: none; stroke: #000000; stroke-width: 1.5; stroke-linecap: round"/>
   </g>
   <g id="line2d_38">
    <defs>
     <path id="mdb33b2e33f" d="M 0 1.5 
C 0.397805 1.5 0.77937 1.341951 1.06066 1.06066 
C 1.341951 0.77937 1.5 0.397805 1.5 0 
C 1.5 -0.397805 1.341951 -0.77937 1.06066 -1.06066 
C 0.77937 -1.341951 0.397805 -1.5 0 -1.5 
C -0.397805 -1.5 -0.77937 -1.341951 -1.06066 -1.06066 
C -1.341951 -0.77937 -1.5 -0.397805 -1.5 0 
C -1.5 0.397805 -1.341951 0.77937 -1.06066 1.06066 
C -0.77937 1.341951 -0.397805 1.5 0 1.5 
z
" style="stroke: #000000"/>
    </defs>
    <g clip-path="url(#p4951b2dbfe)">
     <use xlink:href="#mdb33b2e33f" x="61.380788" y="160.521692" style="stroke: #000000"/>
     <use xlink:href="#mdb33b2e33f" x="65.650328" y="160.150162" style="stroke: #000000"/>
     <use xlink:href="#mdb33b2e33f" x="69.919869" y="157.202476" style="stroke: #000000"/>
     <use xlink:href="#mdb33b2e33f" x="74.189409" y="155.448774" style="stroke: #000000"/>
     <use xlink:href="#mdb33b2e33f" x="78.45895" y="155.039086" style="stroke: #000000"/>
     <use xlink:href="#mdb33b2e33f" x="82.72849" y="152.405932" style="stroke: #000000"/>
     <use xlink:href="#mdb33b2e33f" x="86.998031" y="150.306538" style="stroke: #000000"/>
     <use xlink:href="#mdb33b2e33f" x="91.267571" y="149.209539" style="stroke: #000000"/>
     <use xlink:href="#mdb33b2e33f" x="95.537112" y="146.832891" style="stroke: #000000"/>
     <use xlink:href="#mdb33b2e33f" x="99.806652" y="145.347144" style="stroke: #000000"/>
     <use xlink:href="#mdb33b2e33f" x="104.076193" y="143.347585" style="stroke: #000000"/>
     <use xlink:href="#mdb33b2e33f" x="108.345733" y="142.426988" style="stroke: #000000"/>
     <use xlink:href="#mdb33b2e33f" x="112.615274" y="138.946208" style="stroke: #000000"/>
     <use xlink:href="#mdb33b2e33f" x="116.884814" y="137.791322" style="stroke: #000000"/>
     <use xlink:href="#mdb33b2e33f" x="121.154354" y="137.148989" style="stroke: #000000"/>
     <use xlink:href="#mdb33b2e33f" x="125.423895" y="134.376802" style="stroke: #000000"/>
     <use xlink:href="#mdb33b2e33f" x="129.693435" y="132.85239" style="stroke: #000000"/>
     <use xlink:href="#mdb33b2e33f" x="133.962976" y="132.726866" style="stroke: #000000"/>
     <use xlink:href="#mdb33b2e33f" x="138.232516" y="132.373791" style="stroke: #000000"/>
     <use xlink:href="#mdb33b2e33f" x="142.502057" y="129.467319" style="stroke: #000000"/>
     <use xlink:href="#mdb33b2e33f" x="146.771597" y="128.742464" style="stroke: #000000"/>
     <use xlink:href="#mdb33b2e33f" x="151.041138" y="127.037674" style="stroke: #000000"/>
     <use xlink:href="#mdb33b2e33f" x="155.310678" y="128.095555" style="stroke: #000000"/>
     <use xlink:href="#mdb33b2e33f" x="159.580219" y="127.025218" style="stroke: #000000"/>
     <use xlink:href="#mdb33b2e33f" x="163.849759" y="124.216709" style="stroke: #000000"/>
     <use xlink:href="#mdb33b2e33f" x="168.1193" y="125.364872" style="stroke: #000000"/>
     <use xlink:href="#mdb33b2e33f" x="172.38884" y="123.20092" style="stroke: #000000"/>
     <use xlink:href="#mdb33b2e33f" x="176.658381" y="125.133862" style="stroke: #000000"/>
     <use xlink:href="#mdb33b2e33f" x="180.927921" y="124.135565" style="stroke: #000000"/>
     <use xlink:href="#mdb33b2e33f" x="185.197462" y="124.496661" style="stroke: #000000"/>
     <use xlink:href="#mdb33b2e33f" x="189.467002" y="122.546359" style="stroke: #000000"/>
     <use xlink:href="#mdb33b2e33f" x="193.736543" y="124.418843" style="stroke: #000000"/>
     <use xlink:href="#mdb33b2e33f" x="198.006083" y="123.853403" style="stroke: #000000"/>
     <use xlink:href="#mdb33b2e33f" x="202.275623" y="124.038538" style="stroke: #000000"/>
     <use xlink:href="#mdb33b2e33f" x="206.545164" y="124.913891" style="stroke: #000000"/>
     <use xlink:href="#mdb33b2e33f" x="210.814704" y="126.412027" style="stroke: #000000"/>
     <use xlink:href="#mdb33b2e33f" x="215.084245" y="125.596004" style="stroke: #000000"/>
     <use xlink:href="#mdb33b2e33f" x="219.353785" y="126.708473" style="stroke: #000000"/>
     <use xlink:href="#mdb33b2e33f" x="223.623326" y="128.850714" style="stroke: #000000"/>
     <use xlink:href="#mdb33b2e33f" x="227.892866" y="128.351093" style="stroke: #000000"/>
     <use xlink:href="#mdb33b2e33f" x="232.162407" y="128.101939" style="stroke: #000000"/>
     <use xlink:href="#mdb33b2e33f" x="236.431947" y="129.418606" style="stroke: #000000"/>
     <use xlink:href="#mdb33b2e33f" x="240.701488" y="130.687433" style="stroke: #000000"/>
     <use xlink:href="#mdb33b2e33f" x="244.971028" y="131.421582" style="stroke: #000000"/>
     <use xlink:href="#mdb33b2e33f" x="249.240569" y="131.288795" style="stroke: #000000"/>
     <use xlink:href="#mdb33b2e33f" x="253.510109" y="133.781037" style="stroke: #000000"/>
     <use xlink:href="#mdb33b2e33f" x="257.77965" y="132.483935" style="stroke: #000000"/>
     <use xlink:href="#mdb33b2e33f" x="262.04919" y="134.32348" style="stroke: #000000"/>
     <use xlink:href="#mdb33b2e33f" x="266.318731" y="134.232075" style="stroke: #000000"/>
     <use xlink:href="#mdb33b2e33f" x="270.588271" y="131.547164" style="stroke: #000000"/>
     <use xlink:href="#mdb33b2e33f" x="274.857811" y="131.76852" style="stroke: #000000"/>
     <use xlink:href="#mdb33b2e33f" x="279.127352" y="132.706157" style="stroke: #000000"/>
     <use xlink:href="#mdb33b2e33f" x="283.396892" y="131.606443" style="stroke: #000000"/>
     <use xlink:href="#mdb33b2e33f" x="287.666433" y="131.721864" style="stroke: #000000"/>
     <use xlink:href="#mdb33b2e33f" x="291.935973" y="131.430622" style="stroke: #000000"/>
     <use xlink:href="#mdb33b2e33f" x="296.205514" y="131.604391" style="stroke: #000000"/>
     <use xlink:href="#mdb33b2e33f" x="300.475054" y="130.487369" style="stroke: #000000"/>
     <use xlink:href="#mdb33b2e33f" x="304.744595" y="131.801854" style="stroke: #000000"/>
     <use xlink:href="#mdb33b2e33f" x="309.014135" y="129.643117" style="stroke: #000000"/>
     <use xlink:href="#mdb33b2e33f" x="313.283676" y="127.666246" style="stroke: #000000"/>
     <use xlink:href="#mdb33b2e33f" x="317.553216" y="127.24609" style="stroke: #000000"/>
     <use xlink:href="#mdb33b2e33f" x="321.822757" y="122.121043" style="stroke: #000000"/>
     <use xlink:href="#mdb33b2e33f" x="326.092297" y="123.835786" style="stroke: #000000"/>
     <use xlink:href="#mdb33b2e33f" x="330.361838" y="120.953124" style="stroke: #000000"/>
     <use xlink:href="#mdb33b2e33f" x="334.631378" y="118.314722" style="stroke: #000000"/>
     <use xlink:href="#mdb33b2e33f" x="338.900919" y="117.614034" style="stroke: #000000"/>
     <use xlink:href="#mdb33b2e33f" x="343.170459" y="114.632992" style="stroke: #000000"/>
     <use xlink:href="#mdb33b2e33f" x="347.44" y="111.808542" style="stroke: #000000"/>
     <use xlink:href="#mdb33b2e33f" x="351.70954" y="110.219397" style="stroke: #000000"/>
     <use xlink:href="#mdb33b2e33f" x="355.97908" y="110.861954" style="stroke: #000000"/>
     <use xlink:href="#mdb33b2e33f" x="360.248621" y="109.480958" style="stroke: #000000"/>
    </g>
   </g>
   <g id="line2d_39">
    <path d="M 364.518161 109.000609 
L 368.787702 109.601477 
L 373.057242 106.572438 
L 377.326783 104.880575 
L 381.596323 104.84866 
L 385.865864 102.169594 
L 390.135404 100.421428 
L 394.404945 98.282012 
L 398.674485 97.462883 
L 402.944026 94.46998 
L 407.213566 93.36173 
L 411.483107 91.957616 
L 415.752647 89.946061 
L 420.022188 88.114165 
L 424.291728 87.147559 
L 428.561269 85.345796 
L 432.830809 84.904634 
L 437.100349 83.377254 
L 441.36989 82.911423 
L 445.63943 81.539689 
L 449.908971 81.091914 
L 454.178511 78.717047 
L 458.448052 78.479237 
L 462.717592 77.417887 
L 466.987133 76.254134 
L 471.256673 76.681893 
L 475.526214 75.869703 
L 479.795754 74.431538 
L 484.065295 72.868235 
" clip-path="url(#p4951b2dbfe)" style="fill: none; stroke: #fa7c17; stroke-opacity: 0; stroke-width: 1.5; stroke-linecap: round"/>
   </g>
   <g id="line2d_40">
    <path d="M 364.518161 104.812192 
L 368.787702 105.251545 
L 373.057242 102.372777 
L 377.326783 100.392564 
L 381.596323 100.460603 
L 385.865864 97.596336 
L 390.135404 95.725545 
L 394.404945 93.383152 
L 398.674485 92.514879 
L 402.944026 89.553542 
L 407.213566 88.339819 
L 411.483107 87.050935 
L 415.752647 84.999759 
L 420.022188 82.863695 
L 424.291728 81.891446 
L 428.561269 80.080631 
L 432.830809 79.49157 
L 437.100349 78.029074 
L 441.36989 77.43499 
L 445.63943 76.002306 
L 449.908971 75.481886 
L 454.178511 73.440769 
L 458.448052 73.076392 
L 462.717592 72.015605 
L 466.987133 70.84509 
L 471.256673 71.310938 
L 475.526214 70.557216 
L 479.795754 69.152323 
L 484.065295 67.372649 
" clip-path="url(#p4951b2dbfe)" style="fill: none; stroke: #fa7c17; stroke-opacity: 0; stroke-width: 1.5; stroke-linecap: round"/>
   </g>
   <g id="line2d_41">
    <path d="M 364.518161 106.897864 
L 368.787702 107.420447 
L 373.057242 104.409841 
L 377.326783 102.584825 
L 381.596323 102.525311 
L 385.865864 99.919851 
L 390.135404 98.145578 
L 394.404945 95.863947 
L 398.674485 95.022298 
L 402.944026 92.0145 
L 407.213566 91.031167 
L 411.483107 89.420104 
L 415.752647 87.497752 
L 420.022188 85.526975 
L 424.291728 84.537584 
L 428.561269 82.871016 
L 432.830809 82.199855 
L 437.100349 80.628776 
L 441.36989 80.262687 
L 445.63943 78.791974 
L 449.908971 78.295615 
L 454.178511 76.101947 
L 458.448052 75.874271 
L 462.717592 74.867959 
L 466.987133 73.599389 
L 471.256673 73.980141 
L 475.526214 73.135758 
L 479.795754 71.808262 
L 484.065295 70.13388 
" clip-path="url(#p4951b2dbfe)" style="fill: none; stroke: #000000; stroke-width: 1.5; stroke-linecap: round"/>
   </g>
   <g id="line2d_42">
    <g clip-path="url(#p4951b2dbfe)">
     <use xlink:href="#mdb33b2e33f" x="364.518161" y="107.992089" style="stroke: #000000"/>
     <use xlink:href="#mdb33b2e33f" x="368.787702" y="105.312488" style="stroke: #000000"/>
     <use xlink:href="#mdb33b2e33f" x="373.057242" y="104.246018" style="stroke: #000000"/>
     <use xlink:href="#mdb33b2e33f" x="377.326783" y="107.433742" style="stroke: #000000"/>
     <use xlink:href="#mdb33b2e33f" x="381.596323" y="110.258577" style="stroke: #000000"/>
     <use xlink:href="#mdb33b2e33f" x="385.865864" y="114.9098" style="stroke: #000000"/>
     <use xlink:href="#mdb33b2e33f" x="390.135404" y="119.223809" style="stroke: #000000"/>
     <use xlink:href="#mdb33b2e33f" x="394.404945" y="123.226499" style="stroke: #000000"/>
     <use xlink:href="#mdb33b2e33f" x="398.674485" y="121.27662" style="stroke: #000000"/>
     <use xlink:href="#mdb33b2e33f" x="402.944026" y="119.293344" style="stroke: #000000"/>
     <use xlink:href="#mdb33b2e33f" x="407.213566" y="111.171415" style="stroke: #000000"/>
     <use xlink:href="#mdb33b2e33f" x="411.483107" y="105.934104" style="stroke: #000000"/>
     <use xlink:href="#mdb33b2e33f" x="415.752647" y="99.486742" style="stroke: #000000"/>
     <use xlink:href="#mdb33b2e33f" x="420.022188" y="95.363632" style="stroke: #000000"/>
     <use xlink:href="#mdb33b2e33f" x="424.291728" y="89.675747" style="stroke: #000000"/>
     <use xlink:href="#mdb33b2e33f" x="428.561269" y="86.790845" style="stroke: #000000"/>
     <use xlink:href="#mdb33b2e33f" x="432.830809" y="84.111703" style="stroke: #000000"/>
     <use xlink:href="#mdb33b2e33f" x="437.100349" y="82.363228" style="stroke: #000000"/>
     <use xlink:href="#mdb33b2e33f" x="441.36989" y="80.827968" style="stroke: #000000"/>
     <use xlink:href="#mdb33b2e33f" x="445.63943" y="78.138513" style="stroke: #000000"/>
     <use xlink:href="#mdb33b2e33f" x="449.908971" y="77.558277" style="stroke: #000000"/>
     <use xlink:href="#mdb33b2e33f" x="454.178511" y="77.210762" style="stroke: #000000"/>
     <use xlink:href="#mdb33b2e33f" x="458.448052" y="76.445712" style="stroke: #000000"/>
     <use xlink:href="#mdb33b2e33f" x="462.717592" y="74.953618" style="stroke: #000000"/>
     <use xlink:href="#mdb33b2e33f" x="466.987133" y="74.569927" style="stroke: #000000"/>
     <use xlink:href="#mdb33b2e33f" x="471.256673" y="73.651319" style="stroke: #000000"/>
     <use xlink:href="#mdb33b2e33f" x="475.526214" y="71.612219" style="stroke: #000000"/>
     <use xlink:href="#mdb33b2e33f" x="479.795754" y="71.430922" style="stroke: #000000"/>
     <use xlink:href="#mdb33b2e33f" x="484.065295" y="70.923861" style="stroke: #000000"/>
    </g>
   </g>
   <g id="line2d_43">
    <path d="M 360.248621 189.118062 
L 360.248621 27.76 
" clip-path="url(#p4951b2dbfe)" style="fill: none; stroke: #ff0000; stroke-width: 3; stroke-linecap: round"/>
   </g>
   <g id="patch_3">
    <path d="M 40.246563 189.118062 
L 40.246563 27.76 
" style="fill: none"/>
   </g>
   <g id="patch_4">
    <path d="M 505.19952 189.118062 
L 505.19952 27.76 
" style="fill: none"/>
   </g>
   <g id="patch_5">
    <path d="M 40.246562 189.118062 
L 505.19952 189.118062 
" style="fill: none"/>
   </g>
   <g id="patch_6">
    <path d="M 40.246562 27.76 
L 505.19952 27.76 
" style="fill: none"/>
   </g>
   <g id="text_5">
    <!-- Pre-intervention Bayesian $R^2$: 0.984 (std = 0.003) -->
    <g style="fill: #262626" transform="translate(72.643041 21.76) scale(0.16 -0.16)">
     <defs>
      <path id="DejaVuSans-50" d="M 1259 4147 
L 1259 2394 
L 2053 2394 
Q 2494 2394 2734 2622 
Q 2975 2850 2975 3272 
Q 2975 3691 2734 3919 
Q 2494 4147 2053 4147 
L 1259 4147 
z
M 628 4666 
L 2053 4666 
Q 2838 4666 3239 4311 
Q 3641 3956 3641 3272 
Q 3641 2581 3239 2228 
Q 2838 1875 2053 1875 
L 1259 1875 
L 1259 0 
L 628 0 
L 628 4666 
z
" transform="scale(0.015625)"/>
      <path id="DejaVuSans-72" d="M 2631 2963 
Q 2534 3019 2420 3045 
Q 2306 3072 2169 3072 
Q 1681 3072 1420 2755 
Q 1159 2438 1159 1844 
L 1159 0 
L 581 0 
L 581 3500 
L 1159 3500 
L 1159 2956 
Q 1341 3275 1631 3429 
Q 1922 3584 2338 3584 
Q 2397 3584 2469 3576 
Q 2541 3569 2628 3553 
L 2631 2963 
z
" transform="scale(0.015625)"/>
      <path id="DejaVuSans-65" d="M 3597 1894 
L 3597 1613 
L 953 1613 
Q 991 1019 1311 708 
Q 1631 397 2203 397 
Q 2534 397 2845 478 
Q 3156 559 3463 722 
L 3463 178 
Q 3153 47 2828 -22 
Q 2503 -91 2169 -91 
Q 1331 -91 842 396 
Q 353 884 353 1716 
Q 353 2575 817 3079 
Q 1281 3584 2069 3584 
Q 2775 3584 3186 3129 
Q 3597 2675 3597 1894 
z
M 3022 2063 
Q 3016 2534 2758 2815 
Q 2500 3097 2075 3097 
Q 1594 3097 1305 2825 
Q 1016 2553 972 2059 
L 3022 2063 
z
" transform="scale(0.015625)"/>
      <path id="DejaVuSans-2d" d="M 313 2009 
L 1997 2009 
L 1997 1497 
L 313 1497 
L 313 2009 
z
" transform="scale(0.015625)"/>
      <path id="DejaVuSans-69" d="M 603 3500 
L 1178 3500 
L 1178 0 
L 603 0 
L 603 3500 
z
M 603 4863 
L 1178 4863 
L 1178 4134 
L 603 4134 
L 603 4863 
z
" transform="scale(0.015625)"/>
      <path id="DejaVuSans-6e" d="M 3513 2113 
L 3513 0 
L 2938 0 
L 2938 2094 
Q 2938 2591 2744 2837 
Q 2550 3084 2163 3084 
Q 1697 3084 1428 2787 
Q 1159 2491 1159 1978 
L 1159 0 
L 581 0 
L 581 3500 
L 1159 3500 
L 1159 2956 
Q 1366 3272 1645 3428 
Q 1925 3584 2291 3584 
Q 2894 3584 3203 3211 
Q 3513 2838 3513 2113 
z
" transform="scale(0.015625)"/>
      <path id="DejaVuSans-74" d="M 1172 4494 
L 1172 3500 
L 2356 3500 
L 2356 3053 
L 1172 3053 
L 1172 1153 
Q 1172 725 1289 603 
Q 1406 481 1766 481 
L 2356 481 
L 2356 0 
L 1766 0 
Q 1100 0 847 248 
Q 594 497 594 1153 
L 594 3053 
L 172 3053 
L 172 3500 
L 594 3500 
L 594 4494 
L 1172 4494 
z
" transform="scale(0.015625)"/>
      <path id="DejaVuSans-76" d="M 191 3500 
L 800 3500 
L 1894 563 
L 2988 3500 
L 3597 3500 
L 2284 0 
L 1503 0 
L 191 3500 
z
" transform="scale(0.015625)"/>
      <path id="DejaVuSans-6f" d="M 1959 3097 
Q 1497 3097 1228 2736 
Q 959 2375 959 1747 
Q 959 1119 1226 758 
Q 1494 397 1959 397 
Q 2419 397 2687 759 
Q 2956 1122 2956 1747 
Q 2956 2369 2687 2733 
Q 2419 3097 1959 3097 
z
M 1959 3584 
Q 2709 3584 3137 3096 
Q 3566 2609 3566 1747 
Q 3566 888 3137 398 
Q 2709 -91 1959 -91 
Q 1206 -91 779 398 
Q 353 888 353 1747 
Q 353 2609 779 3096 
Q 1206 3584 1959 3584 
z
" transform="scale(0.015625)"/>
      <path id="DejaVuSans-20" transform="scale(0.015625)"/>
      <path id="DejaVuSans-42" d="M 1259 2228 
L 1259 519 
L 2272 519 
Q 2781 519 3026 730 
Q 3272 941 3272 1375 
Q 3272 1813 3026 2020 
Q 2781 2228 2272 2228 
L 1259 2228 
z
M 1259 4147 
L 1259 2741 
L 2194 2741 
Q 2656 2741 2882 2914 
Q 3109 3088 3109 3444 
Q 3109 3797 2882 3972 
Q 2656 4147 2194 4147 
L 1259 4147 
z
M 628 4666 
L 2241 4666 
Q 2963 4666 3353 4366 
Q 3744 4066 3744 3513 
Q 3744 3084 3544 2831 
Q 3344 2578 2956 2516 
Q 3422 2416 3680 2098 
Q 3938 1781 3938 1306 
Q 3938 681 3513 340 
Q 3088 0 2303 0 
L 628 0 
L 628 4666 
z
" transform="scale(0.015625)"/>
      <path id="DejaVuSans-61" d="M 2194 1759 
Q 1497 1759 1228 1600 
Q 959 1441 959 1056 
Q 959 750 1161 570 
Q 1363 391 1709 391 
Q 2188 391 2477 730 
Q 2766 1069 2766 1631 
L 2766 1759 
L 2194 1759 
z
M 3341 1997 
L 3341 0 
L 2766 0 
L 2766 531 
Q 2569 213 2275 61 
Q 1981 -91 1556 -91 
Q 1019 -91 701 211 
Q 384 513 384 1019 
Q 384 1609 779 1909 
Q 1175 2209 1959 2209 
L 2766 2209 
L 2766 2266 
Q 2766 2663 2505 2880 
Q 2244 3097 1772 3097 
Q 1472 3097 1187 3025 
Q 903 2953 641 2809 
L 641 3341 
Q 956 3463 1253 3523 
Q 1550 3584 1831 3584 
Q 2591 3584 2966 3190 
Q 3341 2797 3341 1997 
z
" transform="scale(0.015625)"/>
      <path id="DejaVuSans-79" d="M 2059 -325 
Q 1816 -950 1584 -1140 
Q 1353 -1331 966 -1331 
L 506 -1331 
L 506 -850 
L 844 -850 
Q 1081 -850 1212 -737 
Q 1344 -625 1503 -206 
L 1606 56 
L 191 3500 
L 800 3500 
L 1894 763 
L 2988 3500 
L 3597 3500 
L 2059 -325 
z
" transform="scale(0.015625)"/>
      <path id="DejaVuSans-73" d="M 2834 3397 
L 2834 2853 
Q 2591 2978 2328 3040 
Q 2066 3103 1784 3103 
Q 1356 3103 1142 2972 
Q 928 2841 928 2578 
Q 928 2378 1081 2264 
Q 1234 2150 1697 2047 
L 1894 2003 
Q 2506 1872 2764 1633 
Q 3022 1394 3022 966 
Q 3022 478 2636 193 
Q 2250 -91 1575 -91 
Q 1294 -91 989 -36 
Q 684 19 347 128 
L 347 722 
Q 666 556 975 473 
Q 1284 391 1588 391 
Q 1994 391 2212 530 
Q 2431 669 2431 922 
Q 2431 1156 2273 1281 
Q 2116 1406 1581 1522 
L 1381 1569 
Q 847 1681 609 1914 
Q 372 2147 372 2553 
Q 372 3047 722 3315 
Q 1072 3584 1716 3584 
Q 2034 3584 2315 3537 
Q 2597 3491 2834 3397 
z
" transform="scale(0.015625)"/>
      <path id="DejaVuSans-Oblique-52" d="M 1613 4147 
L 1294 2491 
L 2106 2491 
Q 2584 2491 2879 2755 
Q 3175 3019 3175 3444 
Q 3175 3784 2976 3965 
Q 2778 4147 2406 4147 
L 1613 4147 
z
M 2772 2241 
Q 2972 2194 3105 2009 
Q 3238 1825 3413 1275 
L 3809 0 
L 3144 0 
L 2778 1197 
Q 2638 1659 2453 1815 
Q 2269 1972 1888 1972 
L 1191 1972 
L 806 0 
L 172 0 
L 1081 4666 
L 2503 4666 
Q 3150 4666 3495 4373 
Q 3841 4081 3841 3531 
Q 3841 3044 3547 2687 
Q 3253 2331 2772 2241 
z
" transform="scale(0.015625)"/>
      <path id="DejaVuSans-3a" d="M 750 794 
L 1409 794 
L 1409 0 
L 750 0 
L 750 794 
z
M 750 3309 
L 1409 3309 
L 1409 2516 
L 750 2516 
L 750 3309 
z
" transform="scale(0.015625)"/>
      <path id="DejaVuSans-2e" d="M 684 794 
L 1344 794 
L 1344 0 
L 684 0 
L 684 794 
z
" transform="scale(0.015625)"/>
      <path id="DejaVuSans-39" d="M 703 97 
L 703 672 
Q 941 559 1184 500 
Q 1428 441 1663 441 
Q 2288 441 2617 861 
Q 2947 1281 2994 2138 
Q 2813 1869 2534 1725 
Q 2256 1581 1919 1581 
Q 1219 1581 811 2004 
Q 403 2428 403 3163 
Q 403 3881 828 4315 
Q 1253 4750 1959 4750 
Q 2769 4750 3195 4129 
Q 3622 3509 3622 2328 
Q 3622 1225 3098 567 
Q 2575 -91 1691 -91 
Q 1453 -91 1209 -44 
Q 966 3 703 97 
z
M 1959 2075 
Q 2384 2075 2632 2365 
Q 2881 2656 2881 3163 
Q 2881 3666 2632 3958 
Q 2384 4250 1959 4250 
Q 1534 4250 1286 3958 
Q 1038 3666 1038 3163 
Q 1038 2656 1286 2365 
Q 1534 2075 1959 2075 
z
" transform="scale(0.015625)"/>
      <path id="DejaVuSans-38" d="M 2034 2216 
Q 1584 2216 1326 1975 
Q 1069 1734 1069 1313 
Q 1069 891 1326 650 
Q 1584 409 2034 409 
Q 2484 409 2743 651 
Q 3003 894 3003 1313 
Q 3003 1734 2745 1975 
Q 2488 2216 2034 2216 
z
M 1403 2484 
Q 997 2584 770 2862 
Q 544 3141 544 3541 
Q 544 4100 942 4425 
Q 1341 4750 2034 4750 
Q 2731 4750 3128 4425 
Q 3525 4100 3525 3541 
Q 3525 3141 3298 2862 
Q 3072 2584 2669 2484 
Q 3125 2378 3379 2068 
Q 3634 1759 3634 1313 
Q 3634 634 3220 271 
Q 2806 -91 2034 -91 
Q 1263 -91 848 271 
Q 434 634 434 1313 
Q 434 1759 690 2068 
Q 947 2378 1403 2484 
z
M 1172 3481 
Q 1172 3119 1398 2916 
Q 1625 2713 2034 2713 
Q 2441 2713 2670 2916 
Q 2900 3119 2900 3481 
Q 2900 3844 2670 4047 
Q 2441 4250 2034 4250 
Q 1625 4250 1398 4047 
Q 1172 3844 1172 3481 
z
" transform="scale(0.015625)"/>
      <path id="DejaVuSans-34" d="M 2419 4116 
L 825 1625 
L 2419 1625 
L 2419 4116 
z
M 2253 4666 
L 3047 4666 
L 3047 1625 
L 3713 1625 
L 3713 1100 
L 3047 1100 
L 3047 0 
L 2419 0 
L 2419 1100 
L 313 1100 
L 313 1709 
L 2253 4666 
z
" transform="scale(0.015625)"/>
      <path id="DejaVuSans-28" d="M 1984 4856 
Q 1566 4138 1362 3434 
Q 1159 2731 1159 2009 
Q 1159 1288 1364 580 
Q 1569 -128 1984 -844 
L 1484 -844 
Q 1016 -109 783 600 
Q 550 1309 550 2009 
Q 550 2706 781 3412 
Q 1013 4119 1484 4856 
L 1984 4856 
z
" transform="scale(0.015625)"/>
      <path id="DejaVuSans-64" d="M 2906 2969 
L 2906 4863 
L 3481 4863 
L 3481 0 
L 2906 0 
L 2906 525 
Q 2725 213 2448 61 
Q 2172 -91 1784 -91 
Q 1150 -91 751 415 
Q 353 922 353 1747 
Q 353 2572 751 3078 
Q 1150 3584 1784 3584 
Q 2172 3584 2448 3432 
Q 2725 3281 2906 2969 
z
M 947 1747 
Q 947 1113 1208 752 
Q 1469 391 1925 391 
Q 2381 391 2643 752 
Q 2906 1113 2906 1747 
Q 2906 2381 2643 2742 
Q 2381 3103 1925 3103 
Q 1469 3103 1208 2742 
Q 947 2381 947 1747 
z
" transform="scale(0.015625)"/>
      <path id="DejaVuSans-3d" d="M 678 2906 
L 4684 2906 
L 4684 2381 
L 678 2381 
L 678 2906 
z
M 678 1631 
L 4684 1631 
L 4684 1100 
L 678 1100 
L 678 1631 
z
" transform="scale(0.015625)"/>
      <path id="DejaVuSans-29" d="M 513 4856 
L 1013 4856 
Q 1481 4119 1714 3412 
Q 1947 2706 1947 2009 
Q 1947 1309 1714 600 
Q 1481 -109 1013 -844 
L 513 -844 
Q 928 -128 1133 580 
Q 1338 1288 1338 2009 
Q 1338 2731 1133 3434 
Q 928 4138 513 4856 
z
" transform="scale(0.015625)"/>
     </defs>
     <use xlink:href="#DejaVuSans-50" transform="translate(0 0.765625)"/>
     <use xlink:href="#DejaVuSans-72" transform="translate(60.302734 0.765625)"/>
     <use xlink:href="#DejaVuSans-65" transform="translate(101.416016 0.765625)"/>
     <use xlink:href="#DejaVuSans-2d" transform="translate(162.939453 0.765625)"/>
     <use xlink:href="#DejaVuSans-69" transform="translate(199.023438 0.765625)"/>
     <use xlink:href="#DejaVuSans-6e" transform="translate(226.806641 0.765625)"/>
     <use xlink:href="#DejaVuSans-74" transform="translate(290.185547 0.765625)"/>
     <use xlink:href="#DejaVuSans-65" transform="translate(329.394531 0.765625)"/>
     <use xlink:href="#DejaVuSans-72" transform="translate(390.917969 0.765625)"/>
     <use xlink:href="#DejaVuSans-76" transform="translate(432.03125 0.765625)"/>
     <use xlink:href="#DejaVuSans-65" transform="translate(491.210938 0.765625)"/>
     <use xlink:href="#DejaVuSans-6e" transform="translate(552.734375 0.765625)"/>
     <use xlink:href="#DejaVuSans-74" transform="translate(616.113281 0.765625)"/>
     <use xlink:href="#DejaVuSans-69" transform="translate(655.322266 0.765625)"/>
     <use xlink:href="#DejaVuSans-6f" transform="translate(683.105469 0.765625)"/>
     <use xlink:href="#DejaVuSans-6e" transform="translate(744.287109 0.765625)"/>
     <use xlink:href="#DejaVuSans-20" transform="translate(807.666016 0.765625)"/>
     <use xlink:href="#DejaVuSans-42" transform="translate(839.453125 0.765625)"/>
     <use xlink:href="#DejaVuSans-61" transform="translate(908.056641 0.765625)"/>
     <use xlink:href="#DejaVuSans-79" transform="translate(969.335938 0.765625)"/>
     <use xlink:href="#DejaVuSans-65" transform="translate(1028.515625 0.765625)"/>
     <use xlink:href="#DejaVuSans-73" transform="translate(1090.039062 0.765625)"/>
     <use xlink:href="#DejaVuSans-69" transform="translate(1142.138672 0.765625)"/>
     <use xlink:href="#DejaVuSans-61" transform="translate(1169.921875 0.765625)"/>
     <use xlink:href="#DejaVuSans-6e" transform="translate(1231.201172 0.765625)"/>
     <use xlink:href="#DejaVuSans-20" transform="translate(1294.580078 0.765625)"/>
     <use xlink:href="#DejaVuSans-Oblique-52" transform="translate(1326.367188 0.765625)"/>
     <use xlink:href="#DejaVuSans-32" transform="translate(1402.86638 39.046875) scale(0.7)"/>
     <use xlink:href="#DejaVuSans-3a" transform="translate(1450.136888 0.765625)"/>
     <use xlink:href="#DejaVuSans-20" transform="translate(1483.828294 0.765625)"/>
     <use xlink:href="#DejaVuSans-30" transform="translate(1515.615404 0.765625)"/>
     <use xlink:href="#DejaVuSans-2e" transform="translate(1579.238451 0.765625)"/>
     <use xlink:href="#DejaVuSans-39" transform="translate(1611.02556 0.765625)"/>
     <use xlink:href="#DejaVuSans-38" transform="translate(1674.648607 0.765625)"/>
     <use xlink:href="#DejaVuSans-34" transform="translate(1738.271654 0.765625)"/>
     <use xlink:href="#DejaVuSans-20" transform="translate(1801.894701 0.765625)"/>
     <use xlink:href="#DejaVuSans-28" transform="translate(1833.68181 0.765625)"/>
     <use xlink:href="#DejaVuSans-73" transform="translate(1872.695482 0.765625)"/>
     <use xlink:href="#DejaVuSans-74" transform="translate(1924.795091 0.765625)"/>
     <use xlink:href="#DejaVuSans-64" transform="translate(1964.004076 0.765625)"/>
     <use xlink:href="#DejaVuSans-20" transform="translate(2027.480638 0.765625)"/>
     <use xlink:href="#DejaVuSans-3d" transform="translate(2059.267747 0.765625)"/>
     <use xlink:href="#DejaVuSans-20" transform="translate(2143.05681 0.765625)"/>
     <use xlink:href="#DejaVuSans-30" transform="translate(2174.843919 0.765625)"/>
     <use xlink:href="#DejaVuSans-2e" transform="translate(2238.466966 0.765625)"/>
     <use xlink:href="#DejaVuSans-30" transform="translate(2270.254076 0.765625)"/>
     <use xlink:href="#DejaVuSans-30" transform="translate(2333.877122 0.765625)"/>
     <use xlink:href="#DejaVuSans-33" transform="translate(2397.500169 0.765625)"/>
     <use xlink:href="#DejaVuSans-29" transform="translate(2461.123216 0.765625)"/>
    </g>
   </g>
  </g>
  <g id="axes_2">
   <g id="patch_7">
    <path d="M 40.246563 374.634103 
L 505.19952 374.634103 
L 505.19952 213.276042 
L 40.246563 213.276042 
z
" style="fill: #eeeeee"/>
   </g>
   <g id="matplotlib.axis_3">
    <g id="xtick_7">
     <g id="line2d_44">
      <path d="M 61.380788 374.634103 
L 61.380788 213.276042 
" clip-path="url(#p147d3bfabc)" style="fill: none; stroke: #ffffff; stroke-width: 0.8; stroke-linecap: round"/>
     </g>
     <g id="line2d_45"/>
    </g>
    <g id="xtick_8">
     <g id="line2d_46">
      <path d="M 146.771597 374.634103 
L 146.771597 213.276042 
" clip-path="url(#p147d3bfabc)" style="fill: none; stroke: #ffffff; stroke-width: 0.8; stroke-linecap: round"/>
     </g>
     <g id="line2d_47"/>
    </g>
    <g id="xtick_9">
     <g id="line2d_48">
      <path d="M 232.162407 374.634103 
L 232.162407 213.276042 
" clip-path="url(#p147d3bfabc)" style="fill: none; stroke: #ffffff; stroke-width: 0.8; stroke-linecap: round"/>
     </g>
     <g id="line2d_49"/>
    </g>
    <g id="xtick_10">
     <g id="line2d_50">
      <path d="M 317.553216 374.634103 
L 317.553216 213.276042 
" clip-path="url(#p147d3bfabc)" style="fill: none; stroke: #ffffff; stroke-width: 0.8; stroke-linecap: round"/>
     </g>
     <g id="line2d_51"/>
    </g>
    <g id="xtick_11">
     <g id="line2d_52">
      <path d="M 402.944026 374.634103 
L 402.944026 213.276042 
" clip-path="url(#p147d3bfabc)" style="fill: none; stroke: #ffffff; stroke-width: 0.8; stroke-linecap: round"/>
     </g>
     <g id="line2d_53"/>
    </g>
    <g id="xtick_12">
     <g id="line2d_54">
      <path d="M 488.334835 374.634103 
L 488.334835 213.276042 
" clip-path="url(#p147d3bfabc)" style="fill: none; stroke: #ffffff; stroke-width: 0.8; stroke-linecap: round"/>
     </g>
     <g id="line2d_55"/>
    </g>
   </g>
   <g id="matplotlib.axis_4">
    <g id="ytick_5">
     <g id="line2d_56">
      <path d="M 40.246563 341.711096 
L 505.19952 341.711096 
" clip-path="url(#p147d3bfabc)" style="fill: none; stroke: #ffffff; stroke-width: 0.8; stroke-linecap: round"/>
     </g>
     <g id="line2d_57"/>
     <g id="text_6">
      <!-- 6 -->
      <g style="fill: #262626" transform="translate(16.1075 347.030002) scale(0.14 -0.14)">
       <defs>
        <path id="DejaVuSans-2212" d="M 678 2272 
L 4684 2272 
L 4684 1741 
L 678 1741 
L 678 2272 
z
" transform="scale(0.015625)"/>
        <path id="DejaVuSans-36" d="M 2113 2584 
Q 1688 2584 1439 2293 
Q 1191 2003 1191 1497 
Q 1191 994 1439 701 
Q 1688 409 2113 409 
Q 2538 409 2786 701 
Q 3034 994 3034 1497 
Q 3034 2003 2786 2293 
Q 2538 2584 2113 2584 
z
M 3366 4563 
L 3366 3988 
Q 3128 4100 2886 4159 
Q 2644 4219 2406 4219 
Q 1781 4219 1451 3797 
Q 1122 3375 1075 2522 
Q 1259 2794 1537 2939 
Q 1816 3084 2150 3084 
Q 2853 3084 3261 2657 
Q 3669 2231 3669 1497 
Q 3669 778 3244 343 
Q 2819 -91 2113 -91 
Q 1303 -91 875 529 
Q 447 1150 447 2328 
Q 447 3434 972 4092 
Q 1497 4750 2381 4750 
Q 2619 4750 2861 4703 
Q 3103 4656 3366 4563 
z
" transform="scale(0.015625)"/>
       </defs>
       <use xlink:href="#DejaVuSans-2212"/>
       <use xlink:href="#DejaVuSans-36" x="83.789062"/>
      </g>
     </g>
    </g>
    <g id="ytick_6">
     <g id="line2d_58">
      <path d="M 40.246563 307.56907 
L 505.19952 307.56907 
" clip-path="url(#p147d3bfabc)" style="fill: none; stroke: #ffffff; stroke-width: 0.8; stroke-linecap: round"/>
     </g>
     <g id="line2d_59"/>
     <g id="text_7">
      <!-- 4 -->
      <g style="fill: #262626" transform="translate(16.1075 312.887976) scale(0.14 -0.14)">
       <use xlink:href="#DejaVuSans-2212"/>
       <use xlink:href="#DejaVuSans-34" x="83.789062"/>
      </g>
     </g>
    </g>
    <g id="ytick_7">
     <g id="line2d_60">
      <path d="M 40.246563 273.427045 
L 505.19952 273.427045 
" clip-path="url(#p147d3bfabc)" style="fill: none; stroke: #ffffff; stroke-width: 0.8; stroke-linecap: round"/>
     </g>
     <g id="line2d_61"/>
     <g id="text_8">
      <!-- 2 -->
      <g style="fill: #262626" transform="translate(16.1075 278.745951) scale(0.14 -0.14)">
       <use xlink:href="#DejaVuSans-2212"/>
       <use xlink:href="#DejaVuSans-32" x="83.789062"/>
      </g>
     </g>
    </g>
    <g id="ytick_8">
     <g id="line2d_62">
      <path d="M 40.246563 239.285019 
L 505.19952 239.285019 
" clip-path="url(#p147d3bfabc)" style="fill: none; stroke: #ffffff; stroke-width: 0.8; stroke-linecap: round"/>
     </g>
     <g id="line2d_63"/>
     <g id="text_9">
      <!-- 0 -->
      <g style="fill: #262626" transform="translate(27.839063 244.603925) scale(0.14 -0.14)">
       <use xlink:href="#DejaVuSans-30"/>
      </g>
     </g>
    </g>
   </g>
   <g id="PolyCollection_3">
    <defs>
     <path id="mcf4489105d" d="M 61.380788 -354.226705 
L 61.380788 -337.433742 
L 65.650328 -333.859396 
L 69.919869 -337.847301 
L 74.189409 -341.591011 
L 78.45895 -336.021293 
L 82.72849 -334.988495 
L 86.998031 -339.20833 
L 91.267571 -329.454094 
L 95.537112 -337.640319 
L 99.806652 -338.413238 
L 104.076193 -331.550616 
L 108.345733 -333.237906 
L 112.615274 -341.396389 
L 116.884814 -341.878039 
L 121.154354 -332.680667 
L 125.423895 -342.366183 
L 129.693435 -344.918198 
L 133.962976 -334.776387 
L 138.232516 -331.16947 
L 142.502057 -338.182798 
L 146.771597 -335.76314 
L 151.041138 -337.819575 
L 155.310678 -328.827728 
L 159.580219 -334.229523 
L 163.849759 -340.71149 
L 168.1193 -334.950613 
L 172.38884 -344.474565 
L 176.658381 -334.29677 
L 180.927921 -331.442271 
L 185.197462 -334.146052 
L 189.467002 -343.413247 
L 193.736543 -331.447558 
L 198.006083 -337.423838 
L 202.275623 -340.822195 
L 206.545164 -333.55618 
L 210.814704 -332.534791 
L 215.084245 -339.160249 
L 219.353785 -336.537409 
L 223.623326 -329.675155 
L 227.892866 -335.848307 
L 232.162407 -340.469993 
L 236.431947 -337.642048 
L 240.701488 -341.04453 
L 244.971028 -335.950059 
L 249.240569 -336.918279 
L 253.510109 -332.665111 
L 257.77965 -339.796 
L 262.04919 -329.448309 
L 266.318731 -331.596329 
L 270.588271 -344.375123 
L 274.857811 -339.721455 
L 279.127352 -337.717432 
L 283.396892 -340.177736 
L 287.666433 -339.857492 
L 291.935973 -336.956994 
L 296.205514 -334.661757 
L 300.475054 -336.984352 
L 304.744595 -326.112767 
L 309.014135 -334.417481 
L 313.283676 -336.430728 
L 317.553216 -332.07628 
L 321.822757 -346.514558 
L 326.092297 -332.938607 
L 330.361838 -342.090747 
L 334.631378 -338.239161 
L 338.900919 -335.681023 
L 343.170459 -334.976493 
L 347.44 -337.242493 
L 351.70954 -338.819627 
L 355.97908 -332.26147 
L 360.248621 -335.217111 
L 360.248621 -353.289479 
L 360.248621 -353.289479 
L 355.97908 -349.716593 
L 351.70954 -355.766898 
L 347.44 -354.621742 
L 343.170459 -352.095774 
L 338.900919 -352.647582 
L 334.631378 -355.322628 
L 330.361838 -359.001076 
L 326.092297 -349.666108 
L 321.822757 -363.789021 
L 317.553216 -349.050799 
L 313.283676 -353.83149 
L 309.014135 -351.284869 
L 304.744595 -343.090164 
L 300.475054 -354.06012 
L 296.205514 -352.279899 
L 291.935973 -354.157 
L 287.666433 -356.652834 
L 283.396892 -357.08185 
L 279.127352 -354.542505 
L 274.857811 -356.276843 
L 270.588271 -360.822094 
L 266.318731 -349.069788 
L 262.04919 -346.542261 
L 257.77965 -356.340685 
L 253.510109 -349.684464 
L 249.240569 -353.432628 
L 244.971028 -352.597336 
L 240.701488 -357.975788 
L 236.431947 -354.770564 
L 232.162407 -357.371312 
L 227.892866 -353.41199 
L 223.623326 -346.72113 
L 219.353785 -353.922946 
L 215.084245 -356.351106 
L 210.814704 -349.712196 
L 206.545164 -350.671143 
L 202.275623 -358.312809 
L 198.006083 -354.145368 
L 193.736543 -348.372452 
L 189.467002 -360.442822 
L 185.197462 -350.915424 
L 180.927921 -349.108708 
L 176.658381 -351.375492 
L 172.38884 -361.465801 
L 168.1193 -352.273094 
L 163.849759 -358.247226 
L 159.580219 -351.64158 
L 155.310678 -346.106515 
L 151.041138 -354.979699 
L 146.771597 -352.76952 
L 142.502057 -355.408312 
L 138.232516 -348.296591 
L 133.962976 -351.928937 
L 129.693435 -361.38598 
L 125.423895 -359.188842 
L 121.154354 -349.594525 
L 116.884814 -359.113679 
L 112.615274 -358.640273 
L 108.345733 -350.852827 
L 104.076193 -348.857989 
L 99.806652 -356.145986 
L 95.537112 -354.71608 
L 91.267571 -346.297652 
L 86.998031 -356.550326 
L 82.72849 -352.219671 
L 78.45895 -352.604547 
L 74.189409 -358.305516 
L 69.919869 -354.37857 
L 65.650328 -351.089299 
L 61.380788 -354.226705 
z
" style="stroke: #fa7c17; stroke-opacity: 0.25"/>
    </defs>
    <g clip-path="url(#p147d3bfabc)">
     <use xlink:href="#mcf4489105d" x="0" y="584.39952" style="fill: #fa7c17; fill-opacity: 0.25; stroke: #fa7c17; stroke-opacity: 0.25"/>
    </g>
   </g>
   <g id="PolyCollection_4">
    <defs>
     <path id="mf8bae2fb0b" d="M 364.518161 -349.440599 
L 364.518161 -331.474162 
L 368.787702 -344.853081 
L 373.057242 -337.079134 
L 377.326783 -314.910995 
L 381.596323 -303.08557 
L 385.865864 -270.847471 
L 390.135404 -244.317442 
L 394.404945 -217.099874 
L 398.674485 -221.739477 
L 402.944026 -217.544031 
L 407.213566 -247.177148 
L 411.483107 -264.114142 
L 415.752647 -282.971815 
L 420.022188 -291.495352 
L 424.291728 -311.723326 
L 428.561269 -316.33068 
L 432.830809 -325.296195 
L 437.100349 -326.522915 
L 441.36989 -330.560143 
L 445.63943 -335.951129 
L 449.908971 -336.20771 
L 454.178511 -328.942914 
L 458.448052 -330.661622 
L 462.717592 -332.511738 
L 466.987133 -329.136613 
L 471.256673 -335.075311 
L 475.526214 -340.589009 
L 479.795754 -335.34033 
L 484.065295 -329.881389 
L 484.065295 -353.454999 
L 484.065295 -353.454999 
L 479.795754 -357.985804 
L 475.526214 -363.377204 
L 471.256673 -358.11431 
L 466.987133 -352.338997 
L 462.717592 -355.685116 
L 458.448052 -353.837415 
L 454.178511 -351.575794 
L 449.908971 -360.272226 
L 445.63943 -359.70403 
L 441.36989 -354.051594 
L 437.100349 -349.464219 
L 432.830809 -348.515821 
L 428.561269 -338.915888 
L 424.291728 -334.269706 
L 420.022188 -314.017524 
L 415.752647 -304.189241 
L 411.483107 -285.16161 
L 407.213566 -268.718904 
L 402.944026 -238.633357 
L 398.674485 -242.964206 
L 394.404945 -238.113796 
L 390.135404 -264.460681 
L 385.865864 -290.464705 
L 381.596323 -321.908372 
L 377.326783 -334.162555 
L 373.057242 -355.093804 
L 368.787702 -363.512348 
L 364.518161 -349.440599 
z
" style="stroke: #fa7c17; stroke-opacity: 0.25"/>
    </defs>
    <g clip-path="url(#p147d3bfabc)">
     <use xlink:href="#mf8bae2fb0b" x="0" y="584.39952" style="fill: #fa7c17; fill-opacity: 0.25; stroke: #fa7c17; stroke-opacity: 0.25"/>
    </g>
   </g>
   <g id="line2d_64">
    <path d="M 61.380788 246.965778 
L 65.650328 250.540124 
L 69.919869 246.552219 
L 74.189409 242.808509 
L 78.45895 248.378227 
L 82.72849 249.411025 
L 86.998031 245.19119 
L 91.267571 254.945426 
L 95.537112 246.759201 
L 99.806652 245.986282 
L 104.076193 252.848904 
L 108.345733 251.161614 
L 112.615274 243.003131 
L 116.884814 242.521481 
L 121.154354 251.718853 
L 125.423895 242.033337 
L 129.693435 239.481322 
L 133.962976 249.623133 
L 138.232516 253.23005 
L 142.502057 246.216722 
L 146.771597 248.63638 
L 151.041138 246.579945 
L 155.310678 255.571792 
L 159.580219 250.169997 
L 163.849759 243.68803 
L 168.1193 249.448907 
L 172.38884 239.924955 
L 176.658381 250.10275 
L 180.927921 252.957249 
L 185.197462 250.253468 
L 189.467002 240.986273 
L 193.736543 252.951962 
L 198.006083 246.975682 
L 202.275623 243.577325 
L 206.545164 250.84334 
L 210.814704 251.864729 
L 215.084245 245.239271 
L 219.353785 247.862111 
L 223.623326 254.724365 
L 227.892866 248.551213 
L 232.162407 243.929527 
L 236.431947 246.757472 
L 240.701488 243.35499 
L 244.971028 248.449461 
L 249.240569 247.481241 
L 253.510109 251.734409 
L 257.77965 244.60352 
L 262.04919 254.951211 
L 266.318731 252.803191 
L 270.588271 240.024397 
L 274.857811 244.678065 
L 279.127352 246.682088 
L 283.396892 244.221784 
L 287.666433 244.542028 
L 291.935973 247.442526 
L 296.205514 249.737763 
L 300.475054 247.415168 
L 304.744595 258.286753 
L 309.014135 249.982039 
L 313.283676 247.968792 
L 317.553216 252.32324 
L 321.822757 237.884962 
L 326.092297 251.460913 
L 330.361838 242.308773 
L 334.631378 246.160359 
L 338.900919 248.718497 
L 343.170459 249.423027 
L 347.44 247.157027 
L 351.70954 245.579893 
L 355.97908 252.13805 
L 360.248621 249.182409 
" clip-path="url(#p147d3bfabc)" style="fill: none; stroke: #fa7c17; stroke-opacity: 0; stroke-width: 1.5; stroke-linecap: round"/>
   </g>
   <g id="line2d_65">
    <path d="M 61.380788 230.172815 
L 65.650328 233.310221 
L 69.919869 230.02095 
L 74.189409 226.094004 
L 78.45895 231.794973 
L 82.72849 232.179849 
L 86.998031 227.849194 
L 91.267571 238.101868 
L 95.537112 229.68344 
L 99.806652 228.253534 
L 104.076193 235.541531 
L 108.345733 233.546693 
L 112.615274 225.759247 
L 116.884814 225.285841 
L 121.154354 234.804995 
L 125.423895 225.210678 
L 129.693435 223.01354 
L 133.962976 232.470583 
L 138.232516 236.102929 
L 142.502057 228.991208 
L 146.771597 231.63 
L 151.041138 229.419821 
L 155.310678 238.293005 
L 159.580219 232.75794 
L 163.849759 226.152294 
L 168.1193 232.126426 
L 172.38884 222.933719 
L 176.658381 233.024028 
L 180.927921 235.290812 
L 185.197462 233.484096 
L 189.467002 223.956698 
L 193.736543 236.027068 
L 198.006083 230.254152 
L 202.275623 226.086711 
L 206.545164 233.728377 
L 210.814704 234.687324 
L 215.084245 228.048414 
L 219.353785 230.476574 
L 223.623326 237.67839 
L 227.892866 230.98753 
L 232.162407 227.028208 
L 236.431947 229.628956 
L 240.701488 226.423732 
L 244.971028 231.802184 
L 249.240569 230.966892 
L 253.510109 234.715056 
L 257.77965 228.058835 
L 262.04919 237.857259 
L 266.318731 235.329732 
L 270.588271 223.577426 
L 274.857811 228.122677 
L 279.127352 229.857015 
L 283.396892 227.31767 
L 287.666433 227.746686 
L 291.935973 230.24252 
L 296.205514 232.119621 
L 300.475054 230.3394 
L 304.744595 241.309356 
L 309.014135 233.114651 
L 313.283676 230.56803 
L 317.553216 235.348721 
L 321.822757 220.610499 
L 326.092297 234.733412 
L 330.361838 225.398444 
L 334.631378 229.076892 
L 338.900919 231.751938 
L 343.170459 232.303746 
L 347.44 229.777778 
L 351.70954 228.632622 
L 355.97908 234.682927 
L 360.248621 231.110041 
" clip-path="url(#p147d3bfabc)" style="fill: none; stroke: #fa7c17; stroke-opacity: 0; stroke-width: 1.5; stroke-linecap: round"/>
   </g>
   <g id="line2d_66">
    <path d="M 61.380788 238.605491 
L 65.650328 241.43281 
L 69.919869 237.5946 
L 74.189409 234.488801 
L 78.45895 240.108723 
L 82.72849 240.668057 
L 86.998031 236.798884 
L 91.267571 246.541702 
L 95.537112 238.411777 
L 99.806652 236.567196 
L 104.076193 244.270765 
L 108.345733 242.110067 
L 112.615274 234.788082 
L 116.884814 233.66799 
L 121.154354 243.494849 
L 125.423895 233.334887 
L 129.693435 231.055163 
L 133.962976 241.633363 
L 138.232516 245.201712 
L 142.502057 237.44907 
L 146.771597 239.856919 
L 151.041138 237.715989 
L 155.310678 247.051344 
L 159.580219 241.46921 
L 163.849759 234.51668 
L 168.1193 240.270864 
L 172.38884 231.943267 
L 176.658381 241.080654 
L 180.927921 243.923648 
L 185.197462 241.371328 
L 189.467002 232.01765 
L 193.736543 244.065643 
L 198.006083 238.421192 
L 202.275623 234.965264 
L 206.545164 242.287164 
L 210.814704 243.435952 
L 215.084245 236.918865 
L 219.353785 239.17639 
L 223.623326 245.889782 
L 227.892866 239.485212 
L 232.162407 235.334853 
L 236.431947 238.359293 
L 240.701488 234.675511 
L 244.971028 240.123279 
L 249.240569 239.279823 
L 253.510109 242.834124 
L 257.77965 236.339139 
L 262.04919 246.192938 
L 266.318731 244.161651 
L 270.588271 231.080574 
L 274.857811 236.277185 
L 279.127352 238.630471 
L 283.396892 236.043203 
L 287.666433 236.431611 
L 291.935973 238.689497 
L 296.205514 241.233558 
L 300.475054 239.084582 
L 304.744595 249.806902 
L 309.014135 241.250944 
L 313.283676 239.690779 
L 317.553216 243.494919 
L 321.822757 229.672824 
L 326.092297 243.138888 
L 330.361838 233.840433 
L 334.631378 237.443821 
L 338.900919 240.409123 
L 343.170459 240.456761 
L 347.44 238.49956 
L 351.70954 237.393484 
L 355.97908 243.084248 
L 360.248621 240.454712 
" clip-path="url(#p147d3bfabc)" style="fill: none; stroke: #000000; stroke-width: 1.5; stroke-linecap: round"/>
   </g>
   <g id="line2d_67">
    <path d="M 364.518161 252.925358 
L 368.787702 239.546439 
L 373.057242 247.320386 
L 377.326783 269.488525 
L 381.596323 281.31395 
L 385.865864 313.552049 
L 390.135404 340.082078 
L 394.404945 367.299646 
L 398.674485 362.660043 
L 402.944026 366.855489 
L 407.213566 337.222372 
L 411.483107 320.285378 
L 415.752647 301.427705 
L 420.022188 292.904168 
L 424.291728 272.676194 
L 428.561269 268.06884 
L 432.830809 259.103325 
L 437.100349 257.876605 
L 441.36989 253.839377 
L 445.63943 248.448391 
L 449.908971 248.19181 
L 454.178511 255.456606 
L 458.448052 253.737898 
L 462.717592 251.887782 
L 466.987133 255.262907 
L 471.256673 249.324209 
L 475.526214 243.810511 
L 479.795754 249.05919 
L 484.065295 254.518131 
" clip-path="url(#p147d3bfabc)" style="fill: none; stroke: #fa7c17; stroke-opacity: 0; stroke-width: 1.5; stroke-linecap: round"/>
   </g>
   <g id="line2d_68">
    <path d="M 364.518161 234.958921 
L 368.787702 220.887172 
L 373.057242 229.305716 
L 377.326783 250.236965 
L 381.596323 262.491148 
L 385.865864 293.934815 
L 390.135404 319.938839 
L 394.404945 346.285724 
L 398.674485 341.435314 
L 402.944026 345.766163 
L 407.213566 315.680616 
L 411.483107 299.23791 
L 415.752647 280.210279 
L 420.022188 270.381996 
L 424.291728 250.129814 
L 428.561269 245.483632 
L 432.830809 235.883699 
L 437.100349 234.935301 
L 441.36989 230.347926 
L 445.63943 224.69549 
L 449.908971 224.127294 
L 454.178511 232.823726 
L 458.448052 230.562105 
L 462.717592 228.714404 
L 466.987133 232.060523 
L 471.256673 226.28521 
L 475.526214 221.022316 
L 479.795754 226.413716 
L 484.065295 230.944521 
" clip-path="url(#p147d3bfabc)" style="fill: none; stroke: #fa7c17; stroke-opacity: 0; stroke-width: 1.5; stroke-linecap: round"/>
   </g>
   <g id="line2d_69">
    <path d="M 364.518161 243.978755 
L 368.787702 230.242817 
L 373.057242 238.58229 
L 377.326783 260.084705 
L 381.596323 272.457276 
L 385.865864 303.585208 
L 390.135404 329.701216 
L 394.404945 356.658143 
L 398.674485 351.904337 
L 402.944026 356.299076 
L 407.213566 325.677687 
L 411.483107 310.122703 
L 415.752647 290.712429 
L 420.022188 281.479887 
L 424.291728 261.325443 
L 428.561269 256.099334 
L 432.830809 247.485994 
L 437.100349 246.725042 
L 441.36989 241.70982 
L 445.63943 236.481961 
L 449.908971 236.122169 
L 454.178511 244.04134 
L 458.448052 241.736244 
L 462.717592 239.652458 
L 466.987133 243.448194 
L 471.256673 237.87452 
L 475.526214 232.749717 
L 479.795754 237.666398 
L 484.065295 242.673686 
" clip-path="url(#p147d3bfabc)" style="fill: none; stroke: #000000; stroke-width: 1.5; stroke-linecap: round"/>
   </g>
   <g id="line2d_70">
    <path d="M 40.246563 239.285019 
L 505.19952 239.285019 
" clip-path="url(#p147d3bfabc)" style="fill: none; stroke: #000000; stroke-width: 1.5; stroke-linecap: round"/>
   </g>
   <g id="line2d_71">
    <path d="M 360.248621 374.634103 
L 360.248621 213.276042 
" clip-path="url(#p147d3bfabc)" style="fill: none; stroke: #ff0000; stroke-width: 3; stroke-linecap: round"/>
   </g>
   <g id="patch_8">
    <path d="M 40.246563 374.634103 
L 40.246563 213.276042 
" style="fill: none"/>
   </g>
   <g id="patch_9">
    <path d="M 505.19952 374.634103 
L 505.19952 213.276042 
" style="fill: none"/>
   </g>
   <g id="patch_10">
    <path d="M 40.246562 374.634103 
L 505.19952 374.634103 
" style="fill: none"/>
   </g>
   <g id="patch_11">
    <path d="M 40.246562 213.276042 
L 505.19952 213.276042 
" style="fill: none"/>
   </g>
   <g id="text_10">
    <!-- Causal Impact -->
    <g style="fill: #262626" transform="translate(215.660541 207.276042) scale(0.16 -0.16)">
     <defs>
      <path id="DejaVuSans-43" d="M 4122 4306 
L 4122 3641 
Q 3803 3938 3442 4084 
Q 3081 4231 2675 4231 
Q 1875 4231 1450 3742 
Q 1025 3253 1025 2328 
Q 1025 1406 1450 917 
Q 1875 428 2675 428 
Q 3081 428 3442 575 
Q 3803 722 4122 1019 
L 4122 359 
Q 3791 134 3420 21 
Q 3050 -91 2638 -91 
Q 1578 -91 968 557 
Q 359 1206 359 2328 
Q 359 3453 968 4101 
Q 1578 4750 2638 4750 
Q 3056 4750 3426 4639 
Q 3797 4528 4122 4306 
z
" transform="scale(0.015625)"/>
      <path id="DejaVuSans-75" d="M 544 1381 
L 544 3500 
L 1119 3500 
L 1119 1403 
Q 1119 906 1312 657 
Q 1506 409 1894 409 
Q 2359 409 2629 706 
Q 2900 1003 2900 1516 
L 2900 3500 
L 3475 3500 
L 3475 0 
L 2900 0 
L 2900 538 
Q 2691 219 2414 64 
Q 2138 -91 1772 -91 
Q 1169 -91 856 284 
Q 544 659 544 1381 
z
M 1991 3584 
L 1991 3584 
z
" transform="scale(0.015625)"/>
      <path id="DejaVuSans-6c" d="M 603 4863 
L 1178 4863 
L 1178 0 
L 603 0 
L 603 4863 
z
" transform="scale(0.015625)"/>
      <path id="DejaVuSans-49" d="M 628 4666 
L 1259 4666 
L 1259 0 
L 628 0 
L 628 4666 
z
" transform="scale(0.015625)"/>
      <path id="DejaVuSans-6d" d="M 3328 2828 
Q 3544 3216 3844 3400 
Q 4144 3584 4550 3584 
Q 5097 3584 5394 3201 
Q 5691 2819 5691 2113 
L 5691 0 
L 5113 0 
L 5113 2094 
Q 5113 2597 4934 2840 
Q 4756 3084 4391 3084 
Q 3944 3084 3684 2787 
Q 3425 2491 3425 1978 
L 3425 0 
L 2847 0 
L 2847 2094 
Q 2847 2600 2669 2842 
Q 2491 3084 2119 3084 
Q 1678 3084 1418 2786 
Q 1159 2488 1159 1978 
L 1159 0 
L 581 0 
L 581 3500 
L 1159 3500 
L 1159 2956 
Q 1356 3278 1631 3431 
Q 1906 3584 2284 3584 
Q 2666 3584 2933 3390 
Q 3200 3197 3328 2828 
z
" transform="scale(0.015625)"/>
      <path id="DejaVuSans-70" d="M 1159 525 
L 1159 -1331 
L 581 -1331 
L 581 3500 
L 1159 3500 
L 1159 2969 
Q 1341 3281 1617 3432 
Q 1894 3584 2278 3584 
Q 2916 3584 3314 3078 
Q 3713 2572 3713 1747 
Q 3713 922 3314 415 
Q 2916 -91 2278 -91 
Q 1894 -91 1617 61 
Q 1341 213 1159 525 
z
M 3116 1747 
Q 3116 2381 2855 2742 
Q 2594 3103 2138 3103 
Q 1681 3103 1420 2742 
Q 1159 2381 1159 1747 
Q 1159 1113 1420 752 
Q 1681 391 2138 391 
Q 2594 391 2855 752 
Q 3116 1113 3116 1747 
z
" transform="scale(0.015625)"/>
      <path id="DejaVuSans-63" d="M 3122 3366 
L 3122 2828 
Q 2878 2963 2633 3030 
Q 2388 3097 2138 3097 
Q 1578 3097 1268 2742 
Q 959 2388 959 1747 
Q 959 1106 1268 751 
Q 1578 397 2138 397 
Q 2388 397 2633 464 
Q 2878 531 3122 666 
L 3122 134 
Q 2881 22 2623 -34 
Q 2366 -91 2075 -91 
Q 1284 -91 818 406 
Q 353 903 353 1747 
Q 353 2603 823 3093 
Q 1294 3584 2113 3584 
Q 2378 3584 2631 3529 
Q 2884 3475 3122 3366 
z
" transform="scale(0.015625)"/>
     </defs>
     <use xlink:href="#DejaVuSans-43"/>
     <use xlink:href="#DejaVuSans-61" x="69.824219"/>
     <use xlink:href="#DejaVuSans-75" x="131.103516"/>
     <use xlink:href="#DejaVuSans-73" x="194.482422"/>
     <use xlink:href="#DejaVuSans-61" x="246.582031"/>
     <use xlink:href="#DejaVuSans-6c" x="307.861328"/>
     <use xlink:href="#DejaVuSans-20" x="335.644531"/>
     <use xlink:href="#DejaVuSans-49" x="367.431641"/>
     <use xlink:href="#DejaVuSans-6d" x="396.923828"/>
     <use xlink:href="#DejaVuSans-70" x="494.335938"/>
     <use xlink:href="#DejaVuSans-61" x="557.8125"/>
     <use xlink:href="#DejaVuSans-63" x="619.091797"/>
     <use xlink:href="#DejaVuSans-74" x="674.072266"/>
    </g>
   </g>
  </g>
  <g id="axes_3">
   <g id="patch_12">
    <path d="M 40.246563 560.150145 
L 505.19952 560.150145 
L 505.19952 398.792083 
L 40.246563 398.792083 
z
" style="fill: #eeeeee"/>
   </g>
   <g id="matplotlib.axis_5">
    <g id="xtick_13">
     <g id="line2d_72">
      <path d="M 61.380788 560.150145 
L 61.380788 398.792083 
" clip-path="url(#pac7278805f)" style="fill: none; stroke: #ffffff; stroke-width: 0.8; stroke-linecap: round"/>
     </g>
     <g id="line2d_73"/>
     <g id="text_11">
      <!-- 0 -->
      <g style="fill: #262626" transform="translate(56.927038 574.287958) scale(0.14 -0.14)">
       <use xlink:href="#DejaVuSans-30"/>
      </g>
     </g>
    </g>
    <g id="xtick_14">
     <g id="line2d_74">
      <path d="M 146.771597 560.150145 
L 146.771597 398.792083 
" clip-path="url(#pac7278805f)" style="fill: none; stroke: #ffffff; stroke-width: 0.8; stroke-linecap: round"/>
     </g>
     <g id="line2d_75"/>
     <g id="text_12">
      <!-- 20 -->
      <g style="fill: #262626" transform="translate(137.864097 574.287958) scale(0.14 -0.14)">
       <use xlink:href="#DejaVuSans-32"/>
       <use xlink:href="#DejaVuSans-30" x="63.623047"/>
      </g>
     </g>
    </g>
    <g id="xtick_15">
     <g id="line2d_76">
      <path d="M 232.162407 560.150145 
L 232.162407 398.792083 
" clip-path="url(#pac7278805f)" style="fill: none; stroke: #ffffff; stroke-width: 0.8; stroke-linecap: round"/>
     </g>
     <g id="line2d_77"/>
     <g id="text_13">
      <!-- 40 -->
      <g style="fill: #262626" transform="translate(223.254907 574.287958) scale(0.14 -0.14)">
       <use xlink:href="#DejaVuSans-34"/>
       <use xlink:href="#DejaVuSans-30" x="63.623047"/>
      </g>
     </g>
    </g>
    <g id="xtick_16">
     <g id="line2d_78">
      <path d="M 317.553216 560.150145 
L 317.553216 398.792083 
" clip-path="url(#pac7278805f)" style="fill: none; stroke: #ffffff; stroke-width: 0.8; stroke-linecap: round"/>
     </g>
     <g id="line2d_79"/>
     <g id="text_14">
      <!-- 60 -->
      <g style="fill: #262626" transform="translate(308.645716 574.287958) scale(0.14 -0.14)">
       <use xlink:href="#DejaVuSans-36"/>
       <use xlink:href="#DejaVuSans-30" x="63.623047"/>
      </g>
     </g>
    </g>
    <g id="xtick_17">
     <g id="line2d_80">
      <path d="M 402.944026 560.150145 
L 402.944026 398.792083 
" clip-path="url(#pac7278805f)" style="fill: none; stroke: #ffffff; stroke-width: 0.8; stroke-linecap: round"/>
     </g>
     <g id="line2d_81"/>
     <g id="text_15">
      <!-- 80 -->
      <g style="fill: #262626" transform="translate(394.036526 574.287958) scale(0.14 -0.14)">
       <use xlink:href="#DejaVuSans-38"/>
       <use xlink:href="#DejaVuSans-30" x="63.623047"/>
      </g>
     </g>
    </g>
    <g id="xtick_18">
     <g id="line2d_82">
      <path d="M 488.334835 560.150145 
L 488.334835 398.792083 
" clip-path="url(#pac7278805f)" style="fill: none; stroke: #ffffff; stroke-width: 0.8; stroke-linecap: round"/>
     </g>
     <g id="line2d_83"/>
     <g id="text_16">
      <!-- 100 -->
      <g style="fill: #262626" transform="translate(474.973585 574.287958) scale(0.14 -0.14)">
       <use xlink:href="#DejaVuSans-31"/>
       <use xlink:href="#DejaVuSans-30" x="63.623047"/>
       <use xlink:href="#DejaVuSans-30" x="127.246094"/>
      </g>
     </g>
    </g>
   </g>
   <g id="matplotlib.axis_6">
    <g id="ytick_9">
     <g id="line2d_84">
      <path d="M 40.246563 547.133618 
L 505.19952 547.133618 
" clip-path="url(#pac7278805f)" style="fill: none; stroke: #ffffff; stroke-width: 0.8; stroke-linecap: round"/>
     </g>
     <g id="line2d_85"/>
     <g id="text_17">
      <!-- 60 -->
      <g style="fill: #262626" transform="translate(7.2 552.452524) scale(0.14 -0.14)">
       <use xlink:href="#DejaVuSans-2212"/>
       <use xlink:href="#DejaVuSans-36" x="83.789062"/>
       <use xlink:href="#DejaVuSans-30" x="147.412109"/>
      </g>
     </g>
    </g>
    <g id="ytick_10">
     <g id="line2d_86">
      <path d="M 40.246563 501.214613 
L 505.19952 501.214613 
" clip-path="url(#pac7278805f)" style="fill: none; stroke: #ffffff; stroke-width: 0.8; stroke-linecap: round"/>
     </g>
     <g id="line2d_87"/>
     <g id="text_18">
      <!-- 40 -->
      <g style="fill: #262626" transform="translate(7.2 506.533519) scale(0.14 -0.14)">
       <use xlink:href="#DejaVuSans-2212"/>
       <use xlink:href="#DejaVuSans-34" x="83.789062"/>
       <use xlink:href="#DejaVuSans-30" x="147.412109"/>
      </g>
     </g>
    </g>
    <g id="ytick_11">
     <g id="line2d_88">
      <path d="M 40.246563 455.295608 
L 505.19952 455.295608 
" clip-path="url(#pac7278805f)" style="fill: none; stroke: #ffffff; stroke-width: 0.8; stroke-linecap: round"/>
     </g>
     <g id="line2d_89"/>
     <g id="text_19">
      <!-- 20 -->
      <g style="fill: #262626" transform="translate(7.2 460.614514) scale(0.14 -0.14)">
       <use xlink:href="#DejaVuSans-2212"/>
       <use xlink:href="#DejaVuSans-32" x="83.789062"/>
       <use xlink:href="#DejaVuSans-30" x="147.412109"/>
      </g>
     </g>
    </g>
    <g id="ytick_12">
     <g id="line2d_90">
      <path d="M 40.246563 409.376603 
L 505.19952 409.376603 
" clip-path="url(#pac7278805f)" style="fill: none; stroke: #ffffff; stroke-width: 0.8; stroke-linecap: round"/>
     </g>
     <g id="line2d_91"/>
     <g id="text_20">
      <!-- 0 -->
      <g style="fill: #262626" transform="translate(27.839063 414.695509) scale(0.14 -0.14)">
       <use xlink:href="#DejaVuSans-30"/>
      </g>
     </g>
    </g>
   </g>
   <g id="PolyCollection_5">
    <defs>
     <path id="m66e22e21ef" d="M 364.518161 -175.604752 
L 364.518161 -173.188372 
L 368.787702 -173.713313 
L 373.057242 -173.372081 
L 377.326783 -169.837742 
L 381.596323 -164.765777 
L 385.865864 -155.349317 
L 390.135404 -142.404749 
L 394.404945 -125.445667 
L 398.674485 -109.494729 
L 402.944026 -92.891652 
L 407.213566 -80.164117 
L 411.483107 -70.230803 
L 415.752647 -61.978143 
L 420.022188 -54.908622 
L 424.291728 -51.518107 
L 428.561269 -47.634053 
L 432.830809 -45.619996 
L 437.100349 -43.745758 
L 441.36989 -42.654232 
L 445.63943 -41.673816 
L 449.908971 -41.065262 
L 454.178511 -38.492536 
L 458.448052 -38.527791 
L 462.717592 -36.587387 
L 466.987133 -34.954813 
L 471.256673 -34.0462 
L 475.526214 -34.832914 
L 479.795754 -34.60269 
L 484.065295 -31.583832 
L 484.065295 -84.04416 
L 484.065295 -84.04416 
L 479.795754 -84.896866 
L 475.526214 -83.210144 
L 471.256673 -80.654685 
L 466.987133 -79.506818 
L 462.717592 -79.276892 
L 458.448052 -79.247001 
L 454.178511 -77.552629 
L 449.908971 -78.272288 
L 445.63943 -76.652753 
L 441.36989 -75.546808 
L 437.100349 -74.62136 
L 432.830809 -74.513235 
L 428.561269 -74.57354 
L 424.291728 -76.48381 
L 420.022188 -77.888349 
L 415.752647 -82.900839 
L 411.483107 -89.317116 
L 407.213566 -97.432813 
L 402.944026 -108.458054 
L 398.674485 -123.348916 
L 394.404945 -137.639964 
L 390.135404 -152.829217 
L 385.865864 -164.391888 
L 381.596323 -172.298083 
L 377.326783 -176.109317 
L 373.057242 -178.272979 
L 368.787702 -177.4651 
L 364.518161 -175.604752 
z
" style="stroke: #fa7c17; stroke-opacity: 0.25"/>
    </defs>
    <g clip-path="url(#pac7278805f)">
     <use xlink:href="#m66e22e21ef" x="0" y="584.39952" style="fill: #fa7c17; fill-opacity: 0.25; stroke: #fa7c17; stroke-opacity: 0.25"/>
    </g>
   </g>
   <g id="line2d_92">
    <path d="M 364.518161 411.211148 
L 368.787702 410.686207 
L 373.057242 411.027439 
L 377.326783 414.561778 
L 381.596323 419.633743 
L 385.865864 429.050203 
L 390.135404 441.994771 
L 394.404945 458.953853 
L 398.674485 474.904791 
L 402.944026 491.507868 
L 407.213566 504.235403 
L 411.483107 514.168717 
L 415.752647 522.421377 
L 420.022188 529.490898 
L 424.291728 532.881413 
L 428.561269 536.765467 
L 432.830809 538.779524 
L 437.100349 540.653762 
L 441.36989 541.745288 
L 445.63943 542.725704 
L 449.908971 543.334258 
L 454.178511 545.906984 
L 458.448052 545.871729 
L 462.717592 547.812133 
L 466.987133 549.444707 
L 471.256673 550.35332 
L 475.526214 549.566606 
L 479.795754 549.79683 
L 484.065295 552.815688 
" clip-path="url(#pac7278805f)" style="fill: none; stroke: #fa7c17; stroke-opacity: 0; stroke-width: 1.5; stroke-linecap: round"/>
   </g>
   <g id="line2d_93">
    <path d="M 364.518161 408.794768 
L 368.787702 406.93442 
L 373.057242 406.126541 
L 377.326783 408.290203 
L 381.596323 412.101437 
L 385.865864 420.007632 
L 390.135404 431.570303 
L 394.404945 446.759556 
L 398.674485 461.050604 
L 402.944026 475.941466 
L 407.213566 486.966707 
L 411.483107 495.082404 
L 415.752647 501.498681 
L 420.022188 506.511171 
L 424.291728 507.91571 
L 428.561269 509.82598 
L 432.830809 509.886285 
L 437.100349 509.77816 
L 441.36989 508.852712 
L 445.63943 507.746767 
L 449.908971 506.127232 
L 454.178511 506.846891 
L 458.448052 505.152519 
L 462.717592 505.122628 
L 466.987133 504.892702 
L 471.256673 503.744835 
L 475.526214 501.189376 
L 479.795754 499.502654 
L 484.065295 500.35536 
" clip-path="url(#pac7278805f)" style="fill: none; stroke: #fa7c17; stroke-opacity: 0; stroke-width: 1.5; stroke-linecap: round"/>
   </g>
   <g id="line2d_94">
    <path d="M 364.518161 410.007883 
L 368.787702 408.79176 
L 373.057242 408.697247 
L 377.326783 411.494682 
L 381.596323 415.956154 
L 385.865864 424.604149 
L 390.135404 436.764593 
L 394.404945 452.550584 
L 398.674485 467.697216 
L 402.944026 483.434915 
L 407.213566 495.054218 
L 411.483107 504.581467 
L 415.752647 511.49815 
L 420.022188 517.17311 
L 424.291728 520.137416 
L 428.561269 522.398842 
L 432.830809 523.501825 
L 437.100349 524.502464 
L 441.36989 524.828585 
L 445.63943 524.451591 
L 449.908971 524.026206 
L 454.178511 524.665903 
L 458.448052 524.995578 
L 462.717592 525.044997 
L 466.987133 525.604919 
L 471.256673 525.415216 
L 475.526214 524.536256 
L 479.795754 524.318561 
L 484.065295 524.774317 
" clip-path="url(#pac7278805f)" style="fill: none; stroke: #000000; stroke-width: 1.5; stroke-linecap: round"/>
   </g>
   <g id="line2d_95">
    <path d="M 360.248621 560.150145 
L 360.248621 398.792083 
" clip-path="url(#pac7278805f)" style="fill: none; stroke: #ff0000; stroke-width: 3; stroke-linecap: round"/>
   </g>
   <g id="patch_13">
    <path d="M 40.246563 560.150145 
L 40.246563 398.792083 
" style="fill: none"/>
   </g>
   <g id="patch_14">
    <path d="M 505.19952 560.150145 
L 505.19952 398.792083 
" style="fill: none"/>
   </g>
   <g id="patch_15">
    <path d="M 40.246562 560.150145 
L 505.19952 560.150145 
" style="fill: none"/>
   </g>
   <g id="patch_16">
    <path d="M 40.246562 398.792083 
L 505.19952 398.792083 
" style="fill: none"/>
   </g>
   <g id="text_21">
    <!-- Cumulative Causal Impact -->
    <g style="fill: #262626" transform="translate(167.458041 392.792083) scale(0.16 -0.16)">
     <use xlink:href="#DejaVuSans-43"/>
     <use xlink:href="#DejaVuSans-75" x="69.824219"/>
     <use xlink:href="#DejaVuSans-6d" x="133.203125"/>
     <use xlink:href="#DejaVuSans-75" x="230.615234"/>
     <use xlink:href="#DejaVuSans-6c" x="293.994141"/>
     <use xlink:href="#DejaVuSans-61" x="321.777344"/>
     <use xlink:href="#DejaVuSans-74" x="383.056641"/>
     <use xlink:href="#DejaVuSans-69" x="422.265625"/>
     <use xlink:href="#DejaVuSans-76" x="450.048828"/>
     <use xlink:href="#DejaVuSans-65" x="509.228516"/>
     <use xlink:href="#DejaVuSans-20" x="570.751953"/>
     <use xlink:href="#DejaVuSans-43" x="602.539062"/>
     <use xlink:href="#DejaVuSans-61" x="672.363281"/>
     <use xlink:href="#DejaVuSans-75" x="733.642578"/>
     <use xlink:href="#DejaVuSans-73" x="797.021484"/>
     <use xlink:href="#DejaVuSans-61" x="849.121094"/>
     <use xlink:href="#DejaVuSans-6c" x="910.400391"/>
     <use xlink:href="#DejaVuSans-20" x="938.183594"/>
     <use xlink:href="#DejaVuSans-49" x="969.970703"/>
     <use xlink:href="#DejaVuSans-6d" x="999.462891"/>
     <use xlink:href="#DejaVuSans-70" x="1096.875"/>
     <use xlink:href="#DejaVuSans-61" x="1160.351562"/>
     <use xlink:href="#DejaVuSans-63" x="1221.630859"/>
     <use xlink:href="#DejaVuSans-74" x="1276.611328"/>
    </g>
   </g>
  </g>
 </g>
 <defs>
  <clipPath id="p4951b2dbfe">
   <rect x="40.246563" y="27.76" width="464.952958" height="161.358062"/>
  </clipPath>
  <clipPath id="p147d3bfabc">
   <rect x="40.246563" y="213.276042" width="464.952958" height="161.358062"/>
  </clipPath>
  <clipPath id="pac7278805f">
   <rect x="40.246563" y="398.792083" width="464.952958" height="161.358062"/>
  </clipPath>
 </defs>
</svg>
