<?xml version="1.0" encoding="utf-8" standalone="no"?>
<!DOCTYPE svg PUBLIC "-//W3C//DTD SVG 1.1//EN"
  "http://www.w3.org/Graphics/SVG/1.1/DTD/svg11.dtd">
<svg xmlns:xlink="http://www.w3.org/1999/xlink" width="512.39952pt" height="584.39952pt" viewBox="0 0 512.39952 584.39952" xmlns="http://www.w3.org/2000/svg" version="1.1">
 <metadata>
  <rdf:RDF xmlns:dc="http://purl.org/dc/elements/1.1/" xmlns:cc="http://creativecommons.org/ns#" xmlns:rdf="http://www.w3.org/1999/02/22-rdf-syntax-ns#">
   <cc:Work>
    <dc:type rdf:resource="http://purl.org/dc/dcmitype/StillImage"/>
    <dc:date>2022-11-15T17:34:15.596204</dc:date>
    <dc:format>image/svg+xml</dc:format>
    <dc:creator>
     <cc:Agent>
      <dc:title>Matplotlib v3.6.2, https://matplotlib.org/</dc:title>
     </cc:Agent>
    </dc:creator>
   </cc:Work>
  </rdf:RDF>
 </metadata>
 <defs>
  <style type="text/css">*{stroke-linejoin: round; stroke-linecap: butt}</style>
 </defs>
 <g id="figure_1">
  <g id="patch_1">
   <path d="M 0 584.39952 
L 512.39952 584.39952 
L 512.39952 0 
L 0 0 
z
" style="fill: #ffffff"/>
  </g>
  <g id="axes_1">
   <g id="patch_2">
    <path d="M 40.246563 189.118062 
L 505.19952 189.118062 
L 505.19952 27.76 
L 40.246563 27.76 
z
" style="fill: #eeeeee"/>
   </g>
   <g id="matplotlib.axis_1">
    <g id="xtick_1">
     <g id="line2d_1">
      <path d="M 61.380788 189.118062 
L 61.380788 27.76 
" clip-path="url(#p54c8f2d762)" style="fill: none; stroke: #ffffff; stroke-width: 0.8; stroke-linecap: round"/>
     </g>
     <g id="line2d_2"/>
    </g>
    <g id="xtick_2">
     <g id="line2d_3">
      <path d="M 146.771597 189.118062 
L 146.771597 27.76 
" clip-path="url(#p54c8f2d762)" style="fill: none; stroke: #ffffff; stroke-width: 0.8; stroke-linecap: round"/>
     </g>
     <g id="line2d_4"/>
    </g>
    <g id="xtick_3">
     <g id="line2d_5">
      <path d="M 232.162407 189.118062 
L 232.162407 27.76 
" clip-path="url(#p54c8f2d762)" style="fill: none; stroke: #ffffff; stroke-width: 0.8; stroke-linecap: round"/>
     </g>
     <g id="line2d_6"/>
    </g>
    <g id="xtick_4">
     <g id="line2d_7">
      <path d="M 317.553216 189.118062 
L 317.553216 27.76 
" clip-path="url(#p54c8f2d762)" style="fill: none; stroke: #ffffff; stroke-width: 0.8; stroke-linecap: round"/>
     </g>
     <g id="line2d_8"/>
    </g>
    <g id="xtick_5">
     <g id="line2d_9">
      <path d="M 402.944026 189.118062 
L 402.944026 27.76 
" clip-path="url(#p54c8f2d762)" style="fill: none; stroke: #ffffff; stroke-width: 0.8; stroke-linecap: round"/>
     </g>
     <g id="line2d_10"/>
    </g>
    <g id="xtick_6">
     <g id="line2d_11">
      <path d="M 488.334835 189.118062 
L 488.334835 27.76 
" clip-path="url(#p54c8f2d762)" style="fill: none; stroke: #ffffff; stroke-width: 0.8; stroke-linecap: round"/>
     </g>
     <g id="line2d_12"/>
    </g>
   </g>
   <g id="matplotlib.axis_2">
    <g id="ytick_1">
     <g id="line2d_13">
      <path d="M 40.246563 162.106744 
L 505.19952 162.106744 
" clip-path="url(#p54c8f2d762)" style="fill: none; stroke: #ffffff; stroke-width: 0.8; stroke-linecap: round"/>
     </g>
     <g id="line2d_14"/>
     <g id="text_1">
      <!-- 0 -->
      <g style="fill: #262626" transform="translate(27.839063 167.42565) scale(0.14 -0.14)">
       <defs>
        <path id="DejaVuSans-30" d="M 2034 4250 
Q 1547 4250 1301 3770 
Q 1056 3291 1056 2328 
Q 1056 1369 1301 889 
Q 1547 409 2034 409 
Q 2525 409 2770 889 
Q 3016 1369 3016 2328 
Q 3016 3291 2770 3770 
Q 2525 4250 2034 4250 
z
M 2034 4750 
Q 2819 4750 3233 4129 
Q 3647 3509 3647 2328 
Q 3647 1150 3233 529 
Q 2819 -91 2034 -91 
Q 1250 -91 836 529 
Q 422 1150 422 2328 
Q 422 3509 836 4129 
Q 1250 4750 2034 4750 
z
" transform="scale(0.015625)"/>
       </defs>
       <use xlink:href="#DejaVuSans-30"/>
      </g>
     </g>
    </g>
    <g id="ytick_2">
     <g id="line2d_15">
      <path d="M 40.246563 122.31003 
L 505.19952 122.31003 
" clip-path="url(#p54c8f2d762)" style="fill: none; stroke: #ffffff; stroke-width: 0.8; stroke-linecap: round"/>
     </g>
     <g id="line2d_16"/>
     <g id="text_2">
      <!-- 10 -->
      <g style="fill: #262626" transform="translate(18.931563 127.628936) scale(0.14 -0.14)">
       <defs>
        <path id="DejaVuSans-31" d="M 794 531 
L 1825 531 
L 1825 4091 
L 703 3866 
L 703 4441 
L 1819 4666 
L 2450 4666 
L 2450 531 
L 3481 531 
L 3481 0 
L 794 0 
L 794 531 
z
" transform="scale(0.015625)"/>
       </defs>
       <use xlink:href="#DejaVuSans-31"/>
       <use xlink:href="#DejaVuSans-30" x="63.623047"/>
      </g>
     </g>
    </g>
    <g id="ytick_3">
     <g id="line2d_17">
      <path d="M 40.246563 82.513316 
L 505.19952 82.513316 
" clip-path="url(#p54c8f2d762)" style="fill: none; stroke: #ffffff; stroke-width: 0.8; stroke-linecap: round"/>
     </g>
     <g id="line2d_18"/>
     <g id="text_3">
      <!-- 20 -->
      <g style="fill: #262626" transform="translate(18.931563 87.832222) scale(0.14 -0.14)">
       <defs>
        <path id="DejaVuSans-32" d="M 1228 531 
L 3431 531 
L 3431 0 
L 469 0 
L 469 531 
Q 828 903 1448 1529 
Q 2069 2156 2228 2338 
Q 2531 2678 2651 2914 
Q 2772 3150 2772 3378 
Q 2772 3750 2511 3984 
Q 2250 4219 1831 4219 
Q 1534 4219 1204 4116 
Q 875 4013 500 3803 
L 500 4441 
Q 881 4594 1212 4672 
Q 1544 4750 1819 4750 
Q 2544 4750 2975 4387 
Q 3406 4025 3406 3419 
Q 3406 3131 3298 2873 
Q 3191 2616 2906 2266 
Q 2828 2175 2409 1742 
Q 1991 1309 1228 531 
z
" transform="scale(0.015625)"/>
       </defs>
       <use xlink:href="#DejaVuSans-32"/>
       <use xlink:href="#DejaVuSans-30" x="63.623047"/>
      </g>
     </g>
    </g>
    <g id="ytick_4">
     <g id="line2d_19">
      <path d="M 40.246563 42.716602 
L 505.19952 42.716602 
" clip-path="url(#p54c8f2d762)" style="fill: none; stroke: #ffffff; stroke-width: 0.8; stroke-linecap: round"/>
     </g>
     <g id="line2d_20"/>
     <g id="text_4">
      <!-- 30 -->
      <g style="fill: #262626" transform="translate(18.931563 48.035508) scale(0.14 -0.14)">
       <defs>
        <path id="DejaVuSans-33" d="M 2597 2516 
Q 3050 2419 3304 2112 
Q 3559 1806 3559 1356 
Q 3559 666 3084 287 
Q 2609 -91 1734 -91 
Q 1441 -91 1130 -33 
Q 819 25 488 141 
L 488 750 
Q 750 597 1062 519 
Q 1375 441 1716 441 
Q 2309 441 2620 675 
Q 2931 909 2931 1356 
Q 2931 1769 2642 2001 
Q 2353 2234 1838 2234 
L 1294 2234 
L 1294 2753 
L 1863 2753 
Q 2328 2753 2575 2939 
Q 2822 3125 2822 3475 
Q 2822 3834 2567 4026 
Q 2313 4219 1838 4219 
Q 1578 4219 1281 4162 
Q 984 4106 628 3988 
L 628 4550 
Q 988 4650 1302 4700 
Q 1616 4750 1894 4750 
Q 2613 4750 3031 4423 
Q 3450 4097 3450 3541 
Q 3450 3153 3228 2886 
Q 3006 2619 2597 2516 
z
" transform="scale(0.015625)"/>
       </defs>
       <use xlink:href="#DejaVuSans-33"/>
       <use xlink:href="#DejaVuSans-30" x="63.623047"/>
      </g>
     </g>
    </g>
   </g>
   <g id="PolyCollection_1">
    <defs>
     <path id="m05954ffd6d" d="M 61.380788 -425.527464 
L 61.380788 -421.677858 
L 65.650328 -422.885895 
L 69.919869 -424.755155 
L 74.189409 -425.836598 
L 78.45895 -427.544521 
L 82.72849 -430.340055 
L 86.998031 -431.455971 
L 91.267571 -434.879019 
L 95.537112 -435.359299 
L 99.806652 -436.292712 
L 104.076193 -440.378181 
L 108.345733 -440.764063 
L 112.615274 -442.428197 
L 116.884814 -443.358449 
L 121.154354 -446.143397 
L 125.423895 -446.508133 
L 129.693435 -447.784815 
L 133.962976 -450.250135 
L 138.232516 -451.489568 
L 142.502057 -452.537423 
L 146.771597 -453.924719 
L 151.041138 -455.030598 
L 155.310678 -455.971197 
L 159.580219 -455.868042 
L 163.849759 -456.945713 
L 168.1193 -457.34645 
L 172.38884 -457.51372 
L 176.658381 -457.780344 
L 180.927921 -459.193754 
L 185.197462 -458.351868 
L 189.467002 -458.185511 
L 193.736543 -459.035823 
L 198.006083 -458.371931 
L 202.275623 -457.454887 
L 206.545164 -458.221501 
L 210.814704 -456.835795 
L 215.084245 -456.397526 
L 219.353785 -455.793233 
L 223.623326 -455.058501 
L 227.892866 -454.191461 
L 232.162407 -453.393394 
L 236.431947 -452.8005 
L 240.701488 -450.730005 
L 244.971028 -451.29722 
L 249.240569 -451.138478 
L 253.510109 -449.469093 
L 257.77965 -449.291769 
L 262.04919 -449.656164 
L 266.318731 -449.294978 
L 270.588271 -449.078145 
L 274.857811 -449.960839 
L 279.127352 -449.481846 
L 283.396892 -449.939533 
L 287.666433 -450.144062 
L 291.935973 -450.981138 
L 296.205514 -451.195187 
L 300.475054 -451.891913 
L 304.744595 -453.03266 
L 309.014135 -453.29634 
L 313.283676 -454.91663 
L 317.553216 -456.17431 
L 321.822757 -458.094321 
L 326.092297 -459.447925 
L 330.361838 -460.19402 
L 334.631378 -463.577461 
L 338.900919 -465.045902 
L 343.170459 -468.040643 
L 347.44 -470.529289 
L 351.70954 -471.590625 
L 355.97908 -472.345615 
L 360.248621 -473.257275 
L 360.248621 -477.195282 
L 360.248621 -477.195282 
L 355.97908 -476.455534 
L 351.70954 -475.706904 
L 347.44 -474.42922 
L 343.170459 -472.099373 
L 338.900919 -468.930624 
L 334.631378 -467.584933 
L 330.361838 -464.145518 
L 326.092297 -463.413031 
L 321.822757 -462.079455 
L 317.553216 -460.03598 
L 313.283676 -458.792645 
L 309.014135 -457.248526 
L 304.744595 -456.945428 
L 300.475054 -455.812486 
L 296.205514 -455.093628 
L 291.935973 -454.774567 
L 287.666433 -454.089488 
L 283.396892 -453.937044 
L 279.127352 -453.401939 
L 274.857811 -453.893345 
L 270.588271 -453.041793 
L 266.318731 -453.225881 
L 262.04919 -453.789141 
L 257.77965 -453.267411 
L 253.510109 -453.42311 
L 249.240569 -455.06805 
L 244.971028 -455.174602 
L 240.701488 -454.690778 
L 236.431947 -456.790573 
L 232.162407 -457.353294 
L 227.892866 -458.21183 
L 223.623326 -459.160335 
L 219.353785 -459.663274 
L 215.084245 -460.404995 
L 210.814704 -460.870786 
L 206.545164 -462.157315 
L 202.275623 -461.401395 
L 198.006083 -462.324864 
L 193.736543 -463.04294 
L 189.467002 -462.102781 
L 185.197462 -462.342247 
L 180.927921 -463.223983 
L 176.658381 -461.709424 
L 172.38884 -461.504253 
L 168.1193 -461.280573 
L 163.849759 -460.836089 
L 159.580219 -459.852195 
L 155.310678 -460.001965 
L 151.041138 -458.99819 
L 146.771597 -457.823352 
L 142.502057 -456.569984 
L 138.232516 -455.445689 
L 133.962976 -454.103463 
L 129.693435 -451.616579 
L 125.423895 -450.510817 
L 121.154354 -450.119453 
L 116.884814 -447.249359 
L 112.615274 -446.317566 
L 108.345733 -444.622025 
L 104.076193 -444.33894 
L 99.806652 -440.322891 
L 95.537112 -439.384559 
L 91.267571 -438.750786 
L 86.998031 -435.430115 
L 82.72849 -434.429564 
L 78.45895 -431.512626 
L 74.189409 -429.735841 
L 69.919869 -428.670504 
L 65.650328 -426.673304 
L 61.380788 -425.527464 
z
" style="stroke: #fa7c17; stroke-opacity: 0.25"/>
    </defs>
    <g clip-path="url(#p54c8f2d762)">
     <use xlink:href="#m05954ffd6d" x="0" y="584.39952" style="fill: #fa7c17; fill-opacity: 0.25; stroke: #fa7c17; stroke-opacity: 0.25"/>
    </g>
   </g>
   <g id="PolyCollection_2">
    <defs>
     <path id="mebe9483c5f" d="M 364.518161 -479.608775 
L 364.518161 -475.464684 
L 368.787702 -474.813819 
L 373.057242 -477.923742 
L 377.326783 -479.639094 
L 381.596323 -479.681432 
L 385.865864 -482.160657 
L 390.135404 -484.110598 
L 394.404945 -486.253935 
L 398.674485 -487.169405 
L 402.944026 -490.105171 
L 407.213566 -491.085723 
L 411.483107 -492.75295 
L 415.752647 -494.440987 
L 420.022188 -496.299016 
L 424.291728 -497.308587 
L 428.561269 -499.039563 
L 432.830809 -499.712719 
L 437.100349 -501.234142 
L 441.36989 -501.573585 
L 445.63943 -503.070808 
L 449.908971 -503.511246 
L 454.178511 -505.755776 
L 458.448052 -506.078469 
L 462.717592 -506.914606 
L 466.987133 -508.284159 
L 471.256673 -507.915205 
L 475.526214 -508.777059 
L 479.795754 -510.21448 
L 484.065295 -511.642351 
L 484.065295 -517.004028 
L 484.065295 -517.004028 
L 479.795754 -515.331749 
L 475.526214 -513.908317 
L 471.256673 -513.050089 
L 466.987133 -513.659256 
L 462.717592 -512.199676 
L 458.448052 -511.186645 
L 454.178511 -510.914765 
L 449.908971 -508.888419 
L 445.63943 -508.392913 
L 441.36989 -506.85876 
L 437.100349 -506.419168 
L 432.830809 -504.906981 
L 428.561269 -504.174149 
L 424.291728 -502.551853 
L 420.022188 -501.488293 
L 415.752647 -499.423963 
L 411.483107 -497.669382 
L 407.213566 -495.979735 
L 402.944026 -494.884143 
L 398.674485 -491.917769 
L 394.404945 -491.009774 
L 390.135404 -488.776741 
L 385.865864 -486.708414 
L 381.596323 -484.065781 
L 377.326783 -483.983071 
L 373.057242 -482.197031 
L 368.787702 -479.118986 
L 364.518161 -479.608775 
z
" style="stroke: #fa7c17; stroke-opacity: 0.25"/>
    </defs>
    <g clip-path="url(#p54c8f2d762)">
     <use xlink:href="#mebe9483c5f" x="0" y="584.39952" style="fill: #fa7c17; fill-opacity: 0.25; stroke: #fa7c17; stroke-opacity: 0.25"/>
    </g>
   </g>
   <g id="line2d_21">
    <path d="M 61.380788 158.949935 
L 65.650328 154.776596 
L 69.919869 150.696618 
L 74.189409 150.898976 
L 78.45895 146.724487 
L 82.72849 142.676872 
L 86.998031 139.470092 
L 91.267571 132.512956 
L 95.537112 133.25309 
L 99.806652 129.525359 
L 104.076193 124.183676 
L 108.345733 122.345314 
L 112.615274 118.532702 
L 116.884814 115.898195 
L 121.154354 111.438444 
L 125.423895 109.049435 
L 129.693435 107.526759 
L 133.962976 104.493381 
L 138.232516 102.88668 
L 142.502057 100.823939 
L 146.771597 100.234906 
L 151.041138 98.780328 
L 155.310678 96.932366 
L 159.580219 99.281993 
L 163.849759 99.044013 
L 168.1193 99.714111 
L 172.38884 99.153552 
L 176.658381 101.466453 
L 180.927921 98.098213 
L 185.197462 103.009172 
L 189.467002 104.428402 
L 193.736543 103.860237 
L 198.006083 105.216736 
L 202.275623 108.902734 
L 206.545164 108.80524 
L 210.814704 112.182895 
L 215.084245 114.2094 
L 219.353785 115.493477 
L 223.623326 116.838386 
L 227.892866 118.823248 
L 232.162407 120.277143 
L 236.431947 121.403531 
L 240.701488 124.006606 
L 244.971028 122.886603 
L 249.240569 121.908115 
L 253.510109 123.847495 
L 257.77965 125.585132 
L 262.04919 123.357322 
L 266.318731 124.013042 
L 270.588271 124.367271 
L 274.857811 122.262446 
L 279.127352 123.342789 
L 283.396892 123.057439 
L 287.666433 122.417335 
L 291.935973 122.53748 
L 296.205514 121.770509 
L 300.475054 122.990053 
L 304.744595 120.276642 
L 309.014135 120.310241 
L 313.283676 117.791444 
L 317.553216 118.039583 
L 321.822757 116.22587 
L 326.092297 113.846818 
L 330.361838 112.877502 
L 334.631378 109.766378 
L 338.900919 107.489219 
L 343.170459 102.730277 
L 347.44 100.992129 
L 351.70954 98.21609 
L 355.97908 98.795187 
L 360.248621 98.568413 
" clip-path="url(#p54c8f2d762)" style="fill: none; stroke: #cccccc; stroke-width: 1.5; stroke-linecap: round"/>
   </g>
   <g id="line2d_22">
    <path d="M 61.380788 157.023654 
L 65.650328 157.390561 
L 69.919869 154.454007 
L 74.189409 152.4578 
L 78.45895 152.720093 
L 82.72849 148.516297 
L 86.998031 150.421207 
L 91.267571 148.048463 
L 95.537112 148.403404 
L 99.806652 146.295596 
L 104.076193 146.228595 
L 108.345733 145.697867 
L 112.615274 146.947967 
L 116.884814 146.023432 
L 121.154354 143.576658 
L 125.423895 143.786056 
L 129.693435 143.652341 
L 133.962976 143.183389 
L 138.232516 142.009168 
L 142.502057 141.190439 
L 146.771597 139.267812 
L 151.041138 136.509628 
L 155.310678 136.43291 
L 159.580219 135.521183 
L 163.849759 137.389271 
L 168.1193 135.137138 
L 172.38884 135.404874 
L 176.658381 136.24325 
L 180.927921 136.945877 
L 185.197462 136.213137 
L 189.467002 136.99906 
L 193.736543 135.541185 
L 198.006083 137.420505 
L 202.275623 135.758516 
L 206.545164 135.810467 
L 210.814704 136.14813 
L 215.084245 133.700627 
L 219.353785 131.902663 
L 223.623326 131.330189 
L 227.892866 130.360439 
L 232.162407 126.418999 
L 236.431947 123.858748 
L 240.701488 125.336705 
L 244.971028 121.659282 
L 249.240569 120.495247 
L 253.510109 120.119621 
L 257.77965 116.951136 
L 262.04919 115.797384 
L 266.318731 115.684234 
L 270.588271 112.785956 
L 274.857811 114.746725 
L 279.127352 114.258256 
L 283.396892 111.816961 
L 287.666433 111.405899 
L 291.935973 113.096534 
L 296.205514 111.835182 
L 300.475054 109.829603 
L 304.744595 109.422265 
L 309.014135 109.985431 
L 313.283676 106.930642 
L 317.553216 106.701294 
L 321.822757 107.007384 
L 326.092297 101.591344 
L 330.361838 101.234271 
L 334.631378 99.71265 
L 338.900919 97.863897 
L 343.170459 94.139569 
L 347.44 91.382761 
L 351.70954 88.556019 
L 355.97908 86.296331 
L 360.248621 87.739551 
" clip-path="url(#p54c8f2d762)" style="fill: none; stroke: #cccccc; stroke-width: 1.5; stroke-linecap: round"/>
   </g>
   <g id="line2d_23">
    <path d="M 61.380788 162.327243 
L 65.650328 162.987937 
L 69.919869 162.71684 
L 74.189409 161.100308 
L 78.45895 160.86679 
L 82.72849 157.644118 
L 86.998031 157.885937 
L 91.267571 157.137057 
L 95.537112 155.961439 
L 99.806652 156.91912 
L 104.076193 153.11087 
L 108.345733 154.563616 
L 112.615274 154.444882 
L 116.884814 154.702132 
L 121.154354 153.50773 
L 125.423895 154.64098 
L 129.693435 155.197127 
L 133.962976 152.12759 
L 138.232516 152.54301 
L 142.502057 150.785593 
L 146.771597 149.600276 
L 151.041138 148.282244 
L 155.310678 147.566577 
L 159.580219 146.571114 
L 163.849759 145.424815 
L 168.1193 143.96069 
L 172.38884 143.411338 
L 176.658381 142.959612 
L 180.927921 141.418422 
L 185.197462 141.657835 
L 189.467002 141.206931 
L 193.736543 139.799482 
L 198.006083 141.189763 
L 202.275623 142.239017 
L 206.545164 140.492847 
L 210.814704 141.669542 
L 215.084245 141.498374 
L 219.353785 141.665616 
L 223.623326 144.053055 
L 227.892866 144.972955 
L 232.162407 146.152565 
L 236.431947 147.462884 
L 240.701488 151.187584 
L 244.971028 152.402457 
L 249.240569 153.23015 
L 253.510109 155.0892 
L 257.77965 155.331597 
L 262.04919 158.46461 
L 266.318731 157.843108 
L 270.588271 159.038211 
L 274.857811 158.296079 
L 279.127352 158.546779 
L 283.396892 158.284335 
L 287.666433 159.719145 
L 291.935973 157.298158 
L 296.205514 156.286877 
L 300.475054 156.245178 
L 304.744595 154.173919 
L 309.014135 154.316925 
L 313.283676 153.099219 
L 317.553216 150.683653 
L 321.822757 148.508199 
L 326.092297 148.379457 
L 330.361838 146.922211 
L 334.631378 142.043267 
L 338.900919 140.921453 
L 343.170459 137.408458 
L 347.44 135.044057 
L 351.70954 135.318901 
L 355.97908 133.376975 
L 360.248621 133.121656 
" clip-path="url(#p54c8f2d762)" style="fill: none; stroke: #cccccc; stroke-width: 1.5; stroke-linecap: round"/>
   </g>
   <g id="line2d_24">
    <path d="M 61.380788 165.256792 
L 65.650328 167.800745 
L 69.919869 167.793802 
L 74.189409 167.123226 
L 78.45895 171.631839 
L 82.72849 172.308375 
L 86.998031 173.384663 
L 91.267571 173.576625 
L 95.537112 172.16244 
L 99.806652 174.926572 
L 104.076193 172.440124 
L 108.345733 174.105242 
L 112.615274 175.088876 
L 116.884814 174.171401 
L 121.154354 172.39615 
L 125.423895 170.717802 
L 129.693435 168.572601 
L 133.962976 165.211076 
L 138.232516 163.016743 
L 142.502057 158.944808 
L 146.771597 157.362555 
L 151.041138 155.190674 
L 155.310678 153.674603 
L 159.580219 151.501465 
L 163.849759 150.318005 
L 168.1193 149.068333 
L 172.38884 149.271206 
L 176.658381 147.367863 
L 180.927921 149.203792 
L 185.197462 146.946395 
L 189.467002 145.957545 
L 193.736543 149.136869 
L 198.006083 147.22646 
L 202.275623 147.300286 
L 206.545164 144.712293 
L 210.814704 145.59357 
L 215.084245 145.689275 
L 219.353785 145.158427 
L 223.623326 143.537771 
L 227.892866 142.705258 
L 232.162407 142.602526 
L 236.431947 139.518781 
L 240.701488 139.194385 
L 244.971028 137.461961 
L 249.240569 137.386487 
L 253.510109 136.125631 
L 257.77965 134.36453 
L 262.04919 134.878353 
L 266.318731 133.82568 
L 270.588271 136.111527 
L 274.857811 133.893127 
L 279.127352 134.946132 
L 283.396892 133.977364 
L 287.666433 134.004966 
L 291.935973 132.328772 
L 296.205514 132.199988 
L 300.475054 131.37339 
L 304.744595 134.980949 
L 309.014135 135.362741 
L 313.283676 131.835537 
L 317.553216 129.484789 
L 321.822757 129.519964 
L 326.092297 129.043128 
L 330.361838 129.825657 
L 334.631378 127.007589 
L 338.900919 128.33866 
L 343.170459 128.042719 
L 347.44 126.15818 
L 351.70954 128.123263 
L 355.97908 124.677325 
L 360.248621 123.914343 
" clip-path="url(#p54c8f2d762)" style="fill: none; stroke: #cccccc; stroke-width: 1.5; stroke-linecap: round"/>
   </g>
   <g id="line2d_25">
    <path d="M 61.380788 157.82792 
L 65.650328 157.815452 
L 69.919869 156.407628 
L 74.189409 154.390318 
L 78.45895 154.236085 
L 82.72849 151.336389 
L 86.998031 150.37788 
L 91.267571 150.358039 
L 95.537112 148.333222 
L 99.806652 146.52665 
L 104.076193 145.845765 
L 108.345733 144.533492 
L 112.615274 144.761009 
L 116.884814 143.43428 
L 121.154354 142.543984 
L 125.423895 142.200092 
L 129.693435 142.043267 
L 133.962976 141.446633 
L 138.232516 140.751077 
L 142.502057 141.300684 
L 146.771597 140.925664 
L 151.041138 139.46605 
L 155.310678 137.922112 
L 159.580219 135.241695 
L 163.849759 132.33391 
L 168.1193 133.171715 
L 172.38884 130.648305 
L 176.658381 126.098268 
L 180.927921 124.392646 
L 185.197462 121.948124 
L 189.467002 121.057691 
L 193.736543 117.670601 
L 198.006083 116.31967 
L 202.275623 113.704868 
L 206.545164 111.453698 
L 210.814704 110.654846 
L 215.084245 108.687662 
L 219.353785 105.478541 
L 223.623326 103.051789 
L 227.892866 102.576806 
L 232.162407 102.303732 
L 236.431947 99.129594 
L 240.701488 99.229277 
L 244.971028 96.80981 
L 249.240569 95.441129 
L 253.510109 95.064007 
L 257.77965 94.451481 
L 262.04919 91.99564 
L 266.318731 91.681718 
L 270.588271 89.186472 
L 274.857811 87.215277 
L 279.127352 88.460615 
L 283.396892 83.988509 
L 287.666433 83.386759 
L 291.935973 80.093071 
L 296.205514 77.189249 
L 300.475054 78.09511 
L 304.744595 75.077354 
L 309.014135 73.449393 
L 313.283676 71.428635 
L 317.553216 71.605463 
L 321.822757 72.251013 
L 326.092297 70.229474 
L 330.361838 71.07296 
L 334.631378 69.142271 
L 338.900919 67.934662 
L 343.170459 67.303519 
L 347.44 67.880624 
L 351.70954 68.424104 
L 355.97908 69.025788 
L 360.248621 68.183296 
" clip-path="url(#p54c8f2d762)" style="fill: none; stroke: #cccccc; stroke-width: 1.5; stroke-linecap: round"/>
   </g>
   <g id="line2d_26">
    <path d="M 61.380788 158.853825 
L 65.650328 158.564399 
L 69.919869 156.314337 
L 74.189409 153.794857 
L 78.45895 151.154082 
L 82.72849 149.724957 
L 86.998031 147.847831 
L 91.267571 144.527815 
L 95.537112 142.949542 
L 99.806652 141.893094 
L 104.076193 138.487219 
L 108.345733 137.326339 
L 112.615274 134.862489 
L 116.884814 135.031063 
L 121.154354 131.051585 
L 125.423895 132.148944 
L 129.693435 129.553687 
L 133.962976 128.170289 
L 138.232516 125.233234 
L 142.502057 127.737425 
L 146.771597 125.215984 
L 151.041138 125.505124 
L 155.310678 124.787855 
L 159.580219 124.748856 
L 163.849759 121.447888 
L 168.1193 122.49091 
L 172.38884 123.6899 
L 176.658381 120.560242 
L 180.927921 120.425195 
L 185.197462 117.627503 
L 189.467002 117.819025 
L 193.736543 115.84347 
L 198.006083 115.840377 
L 202.275623 113.680331 
L 206.545164 113.63316 
L 210.814704 112.372899 
L 215.084245 113.436501 
L 219.353785 115.190829 
L 223.623326 112.976994 
L 227.892866 113.604874 
L 232.162407 113.767027 
L 236.431947 114.790254 
L 240.701488 115.129041 
L 244.971028 114.091149 
L 249.240569 114.778091 
L 253.510109 117.453405 
L 257.77965 116.281376 
L 262.04919 113.430689 
L 266.318731 115.022161 
L 270.588271 114.939691 
L 274.857811 114.502441 
L 279.127352 114.26378 
L 283.396892 114.064565 
L 287.666433 112.825851 
L 291.935973 112.606685 
L 296.205514 114.417709 
L 300.475054 110.068172 
L 304.744595 111.729432 
L 309.014135 110.45686 
L 313.283676 110.927093 
L 317.553216 108.520168 
L 321.822757 105.077889 
L 326.092297 104.236726 
L 330.361838 104.760484 
L 334.631378 101.633192 
L 338.900919 100.614801 
L 343.170459 100.958574 
L 347.44 96.655117 
L 351.70954 94.849446 
L 355.97908 94.907161 
L 360.248621 92.502387 
" clip-path="url(#p54c8f2d762)" style="fill: none; stroke: #cccccc; stroke-width: 1.5; stroke-linecap: round"/>
   </g>
   <g id="line2d_27">
    <path d="M 61.380788 172.48385 
L 65.650328 174.475958 
L 69.919869 174.639143 
L 74.189409 176.287112 
L 78.45895 176.099231 
L 82.72849 178.365301 
L 86.998031 180.403654 
L 91.267571 178.260336 
L 95.537112 178.939909 
L 99.806652 181.783604 
L 104.076193 181.365268 
L 108.345733 180.019257 
L 112.615274 176.970281 
L 116.884814 176.690161 
L 121.154354 174.579325 
L 125.423895 173.803053 
L 129.693435 172.441561 
L 133.962976 169.338992 
L 138.232516 168.36067 
L 142.502057 165.259705 
L 146.771597 165.140643 
L 151.041138 163.146058 
L 155.310678 162.385987 
L 159.580219 162.298569 
L 163.849759 160.416793 
L 168.1193 160.541005 
L 172.38884 158.016888 
L 176.658381 156.961454 
L 180.927921 153.851521 
L 185.197462 153.284811 
L 189.467002 150.681862 
L 193.736543 150.863431 
L 198.006083 148.877165 
L 202.275623 149.063599 
L 206.545164 147.477072 
L 210.814704 146.171358 
L 215.084245 145.261187 
L 219.353785 145.089425 
L 223.623326 146.912045 
L 227.892866 146.211464 
L 232.162407 146.937867 
L 236.431947 147.180084 
L 240.701488 147.637237 
L 244.971028 147.687665 
L 249.240569 150.175056 
L 253.510109 150.621767 
L 257.77965 153.090091 
L 262.04919 151.62632 
L 266.318731 155.518766 
L 270.588271 154.295427 
L 274.857811 156.879517 
L 279.127352 155.365143 
L 283.396892 155.156624 
L 287.666433 157.546685 
L 291.935973 157.479925 
L 296.205514 156.141108 
L 300.475054 155.054771 
L 304.744595 153.043682 
L 309.014135 153.213639 
L 313.283676 150.320631 
L 317.553216 148.744943 
L 321.822757 148.97086 
L 326.092297 146.138318 
L 330.361838 143.987046 
L 334.631378 142.316417 
L 338.900919 141.165988 
L 343.170459 135.983084 
L 347.44 135.504319 
L 351.70954 132.30924 
L 355.97908 131.217959 
L 360.248621 128.39105 
" clip-path="url(#p54c8f2d762)" style="fill: none; stroke: #cccccc; stroke-width: 1.5; stroke-linecap: round"/>
   </g>
   <g id="line2d_28">
    <path d="M 364.518161 95.50234 
L 368.787702 96.11726 
L 373.057242 93.01224 
L 377.326783 89.28835 
L 381.596323 88.725284 
L 385.865864 86.283939 
L 390.135404 81.694472 
L 394.404945 78.826845 
L 398.674485 78.249984 
L 402.944026 72.361729 
L 407.213566 71.729452 
L 411.483107 69.881066 
L 415.752647 66.691023 
L 420.022188 62.75164 
L 424.291728 63.732739 
L 428.561269 62.070159 
L 432.830809 63.473033 
L 437.100349 63.363309 
L 441.36989 65.105587 
L 445.63943 64.400619 
L 449.908971 63.433939 
L 454.178511 62.847828 
L 458.448052 60.984582 
L 462.717592 62.388659 
L 466.987133 61.914818 
L 471.256673 62.753979 
L 475.526214 62.280854 
L 479.795754 62.269517 
L 484.065295 59.214892 
" clip-path="url(#p54c8f2d762)" style="fill: none; stroke: #cccccc; stroke-width: 1.5; stroke-linecap: round"/>
   </g>
   <g id="line2d_29">
    <path d="M 364.518161 82.429389 
L 368.787702 79.03587 
L 373.057242 79.445183 
L 377.326783 76.705054 
L 381.596323 76.297801 
L 385.865864 72.549195 
L 390.135404 70.551214 
L 394.404945 67.807195 
L 398.674485 66.287783 
L 402.944026 64.440208 
L 407.213566 63.350868 
L 411.483107 61.210752 
L 415.752647 60.559716 
L 420.022188 57.876482 
L 424.291728 55.733017 
L 428.561269 55.386477 
L 432.830809 56.709846 
L 437.100349 57.426179 
L 441.36989 56.639998 
L 445.63943 55.933479 
L 449.908971 55.137782 
L 454.178511 55.566825 
L 458.448052 54.646903 
L 462.717592 55.249736 
L 466.987133 54.711324 
L 471.256673 54.897914 
L 475.526214 57.085864 
L 479.795754 54.030335 
L 484.065295 53.738265 
" clip-path="url(#p54c8f2d762)" style="fill: none; stroke: #cccccc; stroke-width: 1.5; stroke-linecap: round"/>
   </g>
   <g id="line2d_30">
    <path d="M 364.518161 131.3573 
L 368.787702 132.906911 
L 373.057242 128.607938 
L 377.326783 127.533333 
L 381.596323 128.565083 
L 385.865864 125.016786 
L 390.135404 125.101398 
L 394.404945 123.255622 
L 398.674485 124.133873 
L 402.944026 122.033292 
L 407.213566 120.285219 
L 411.483107 120.306744 
L 415.752647 120.47866 
L 420.022188 119.419986 
L 424.291728 118.429865 
L 428.561269 117.352676 
L 432.830809 116.403358 
L 437.100349 113.254925 
L 441.36989 112.80253 
L 445.63943 110.372747 
L 449.908971 111.892394 
L 454.178511 107.164401 
L 458.448052 108.878111 
L 462.717592 106.866151 
L 466.987133 104.467562 
L 471.256673 104.652514 
L 475.526214 103.868638 
L 479.795754 101.898688 
L 484.065295 102.921351 
" clip-path="url(#p54c8f2d762)" style="fill: none; stroke: #cccccc; stroke-width: 1.5; stroke-linecap: round"/>
   </g>
   <g id="line2d_31">
    <path d="M 364.518161 123.809435 
L 368.787702 126.787152 
L 373.057242 123.762447 
L 377.326783 123.009654 
L 381.596323 125.998627 
L 385.865864 124.704817 
L 390.135404 125.514109 
L 394.404945 124.837235 
L 398.674485 122.65038 
L 402.944026 124.643468 
L 407.213566 122.75941 
L 411.483107 123.851815 
L 415.752647 123.356812 
L 420.022188 123.529291 
L 424.291728 121.461313 
L 428.561269 120.459804 
L 432.830809 120.092768 
L 437.100349 118.622642 
L 441.36989 116.5231 
L 445.63943 113.794999 
L 449.908971 111.247071 
L 454.178511 108.509567 
L 458.448052 104.469904 
L 462.717592 102.909012 
L 466.987133 99.258909 
L 471.256673 97.61574 
L 475.526214 94.566415 
L 479.795754 91.357638 
L 484.065295 88.534495 
" clip-path="url(#p54c8f2d762)" style="fill: none; stroke: #cccccc; stroke-width: 1.5; stroke-linecap: round"/>
   </g>
   <g id="line2d_32">
    <path d="M 364.518161 68.916419 
L 368.787702 67.552753 
L 373.057242 67.248833 
L 377.326783 64.816177 
L 381.596323 64.830677 
L 385.865864 62.467704 
L 390.135404 58.476804 
L 394.404945 57.446487 
L 398.674485 55.943379 
L 402.944026 51.596152 
L 407.213566 52.155354 
L 411.483107 47.218322 
L 415.752647 43.050941 
L 420.022188 42.572644 
L 424.291728 40.088688 
L 428.561269 38.146984 
L 432.830809 38.019951 
L 437.100349 37.111611 
L 441.36989 36.182406 
L 445.63943 36.520473 
L 449.908971 37.684733 
L 454.178511 35.094457 
L 458.448052 37.311711 
L 462.717592 38.326763 
L 466.987133 37.240196 
L 471.256673 37.625973 
L 475.526214 38.685577 
L 479.795754 39.144311 
L 484.065295 39.446782 
" clip-path="url(#p54c8f2d762)" style="fill: none; stroke: #cccccc; stroke-width: 1.5; stroke-linecap: round"/>
   </g>
   <g id="line2d_33">
    <path d="M 364.518161 90.427812 
L 368.787702 89.602635 
L 373.057242 87.435106 
L 377.326783 87.629824 
L 381.596323 86.149927 
L 385.865864 84.930693 
L 390.135404 84.160787 
L 394.404945 82.111334 
L 398.674485 78.772885 
L 402.944026 77.240682 
L 407.213566 76.966194 
L 411.483107 72.618018 
L 415.752647 69.45813 
L 420.022188 68.769436 
L 424.291728 65.59391 
L 428.561269 61.992488 
L 432.830809 58.035593 
L 437.100349 56.161063 
L 441.36989 53.170638 
L 445.63943 52.0758 
L 449.908971 50.080203 
L 454.178511 48.121509 
L 458.448052 49.1058 
L 462.717592 45.519239 
L 466.987133 45.326703 
L 471.256673 45.808085 
L 475.526214 43.726855 
L 479.795754 42.078703 
L 484.065295 38.374748 
" clip-path="url(#p54c8f2d762)" style="fill: none; stroke: #cccccc; stroke-width: 1.5; stroke-linecap: round"/>
   </g>
   <g id="line2d_34">
    <path d="M 364.518161 124.930032 
L 368.787702 124.946321 
L 373.057242 122.220495 
L 377.326783 121.284275 
L 381.596323 119.985134 
L 385.865864 115.872356 
L 390.135404 116.01763 
L 394.404945 111.373866 
L 398.674485 111.01256 
L 402.944026 110.8156 
L 407.213566 109.383561 
L 411.483107 109.2068 
L 415.752647 105.628707 
L 420.022188 103.240963 
L 424.291728 100.641194 
L 428.561269 101.348168 
L 432.830809 98.47769 
L 437.100349 94.628589 
L 441.36989 93.279332 
L 445.63943 89.800339 
L 449.908971 88.08736 
L 454.178511 88.786862 
L 458.448052 85.700674 
L 462.717592 82.997414 
L 466.987133 80.154968 
L 471.256673 81.041137 
L 475.526214 80.432041 
L 479.795754 78.887353 
L 484.065295 76.635156 
" clip-path="url(#p54c8f2d762)" style="fill: none; stroke: #cccccc; stroke-width: 1.5; stroke-linecap: round"/>
   </g>
   <g id="line2d_35">
    <path d="M 61.380788 162.721662 
L 65.650328 161.513625 
L 69.919869 159.644365 
L 74.189409 158.562922 
L 78.45895 156.854999 
L 82.72849 154.059465 
L 86.998031 152.943549 
L 91.267571 149.520501 
L 95.537112 149.040221 
L 99.806652 148.106808 
L 104.076193 144.021339 
L 108.345733 143.635457 
L 112.615274 141.971323 
L 116.884814 141.041071 
L 121.154354 138.256123 
L 125.423895 137.891387 
L 129.693435 136.614705 
L 133.962976 134.149385 
L 138.232516 132.909952 
L 142.502057 131.862097 
L 146.771597 130.474801 
L 151.041138 129.368922 
L 155.310678 128.428323 
L 159.580219 128.531478 
L 163.849759 127.453807 
L 168.1193 127.05307 
L 172.38884 126.8858 
L 176.658381 126.619176 
L 180.927921 125.205766 
L 185.197462 126.047652 
L 189.467002 126.214009 
L 193.736543 125.363697 
L 198.006083 126.027589 
L 202.275623 126.944633 
L 206.545164 126.178019 
L 210.814704 127.563725 
L 215.084245 128.001994 
L 219.353785 128.606287 
L 223.623326 129.341019 
L 227.892866 130.208059 
L 232.162407 131.006126 
L 236.431947 131.59902 
L 240.701488 133.669515 
L 244.971028 133.1023 
L 249.240569 133.261042 
L 253.510109 134.930427 
L 257.77965 135.107751 
L 262.04919 134.743356 
L 266.318731 135.104542 
L 270.588271 135.321375 
L 274.857811 134.438681 
L 279.127352 134.917674 
L 283.396892 134.459987 
L 287.666433 134.255458 
L 291.935973 133.418382 
L 296.205514 133.204333 
L 300.475054 132.507607 
L 304.744595 131.36686 
L 309.014135 131.10318 
L 313.283676 129.48289 
L 317.553216 128.22521 
L 321.822757 126.305199 
L 326.092297 124.951595 
L 330.361838 124.2055 
L 334.631378 120.822059 
L 338.900919 119.353618 
L 343.170459 116.358877 
L 347.44 113.870231 
L 351.70954 112.808895 
L 355.97908 112.053905 
L 360.248621 111.142245 
" clip-path="url(#p54c8f2d762)" style="fill: none; stroke: #fa7c17; stroke-opacity: 0; stroke-width: 1.5; stroke-linecap: round"/>
   </g>
   <g id="line2d_36">
    <path d="M 61.380788 158.872056 
L 65.650328 157.726216 
L 69.919869 155.729016 
L 74.189409 154.663679 
L 78.45895 152.886894 
L 82.72849 149.969956 
L 86.998031 148.969405 
L 91.267571 145.648734 
L 95.537112 145.014961 
L 99.806652 144.076629 
L 104.076193 140.06058 
L 108.345733 139.777495 
L 112.615274 138.081954 
L 116.884814 137.150161 
L 121.154354 134.280067 
L 125.423895 133.888703 
L 129.693435 132.782941 
L 133.962976 130.296057 
L 138.232516 128.953831 
L 142.502057 127.829536 
L 146.771597 126.576168 
L 151.041138 125.40133 
L 155.310678 124.397555 
L 159.580219 124.547325 
L 163.849759 123.563431 
L 168.1193 123.118947 
L 172.38884 122.895267 
L 176.658381 122.690096 
L 180.927921 121.175537 
L 185.197462 122.057273 
L 189.467002 122.296739 
L 193.736543 121.35658 
L 198.006083 122.074656 
L 202.275623 122.998125 
L 206.545164 122.242205 
L 210.814704 123.528734 
L 215.084245 123.994525 
L 219.353785 124.736246 
L 223.623326 125.239185 
L 227.892866 126.18769 
L 232.162407 127.046226 
L 236.431947 127.608947 
L 240.701488 129.708742 
L 244.971028 129.224918 
L 249.240569 129.33147 
L 253.510109 130.97641 
L 257.77965 131.132109 
L 262.04919 130.610379 
L 266.318731 131.173639 
L 270.588271 131.357727 
L 274.857811 130.506175 
L 279.127352 130.997581 
L 283.396892 130.462476 
L 287.666433 130.310032 
L 291.935973 129.624953 
L 296.205514 129.305892 
L 300.475054 128.587034 
L 304.744595 127.454092 
L 309.014135 127.150994 
L 313.283676 125.606875 
L 317.553216 124.36354 
L 321.822757 122.320065 
L 326.092297 120.986489 
L 330.361838 120.254002 
L 334.631378 116.814587 
L 338.900919 115.468896 
L 343.170459 112.300147 
L 347.44 109.9703 
L 351.70954 108.692616 
L 355.97908 107.943986 
L 360.248621 107.204238 
" clip-path="url(#p54c8f2d762)" style="fill: none; stroke: #fa7c17; stroke-opacity: 0; stroke-width: 1.5; stroke-linecap: round"/>
   </g>
   <g id="line2d_37">
    <path d="M 61.380788 160.696016 
L 65.650328 159.65762 
L 69.919869 157.576653 
L 74.189409 156.541794 
L 78.45895 154.826006 
L 82.72849 152.073453 
L 86.998031 150.888243 
L 91.267571 147.522811 
L 95.537112 147.015797 
L 99.806652 145.949611 
L 104.076193 142.1872 
L 108.345733 141.763882 
L 112.615274 139.977753 
L 116.884814 139.075197 
L 121.154354 136.15572 
L 125.423895 135.81069 
L 129.693435 134.746282 
L 133.962976 132.197058 
L 138.232516 130.947453 
L 142.502057 129.846543 
L 146.771597 128.586031 
L 151.041138 127.419103 
L 155.310678 126.30296 
L 159.580219 126.505038 
L 163.849759 125.347974 
L 168.1193 125.174505 
L 172.38884 124.916769 
L 176.658381 124.740542 
L 180.927921 123.083512 
L 185.197462 124.03994 
L 189.467002 124.239678 
L 193.736543 123.27984 
L 198.006083 124.040798 
L 202.275623 125.027784 
L 206.545164 124.206613 
L 210.814704 125.450991 
L 215.084245 126.085776 
L 219.353785 126.694262 
L 223.623326 127.362599 
L 227.892866 128.323611 
L 232.162407 129.007695 
L 236.431947 129.641531 
L 240.701488 131.749576 
L 244.971028 131.18106 
L 249.240569 131.267504 
L 253.510109 132.928666 
L 257.77965 133.198471 
L 262.04919 132.710101 
L 266.318731 133.118469 
L 270.588271 133.450695 
L 274.857811 132.474889 
L 279.127352 132.861181 
L 283.396892 132.355993 
L 287.666433 132.398107 
L 291.935973 131.561852 
L 296.205514 131.19074 
L 300.475054 130.541142 
L 304.744595 129.357188 
L 309.014135 129.199079 
L 313.283676 127.555577 
L 317.553216 126.28878 
L 321.822757 124.331293 
L 326.092297 122.928398 
L 330.361838 122.221242 
L 334.631378 118.759599 
L 338.900919 117.351725 
L 343.170459 114.355357 
L 347.44 111.955215 
L 351.70954 110.655568 
L 355.97908 109.958762 
L 360.248621 109.217409 
" clip-path="url(#p54c8f2d762)" style="fill: none; stroke: #000000; stroke-width: 1.5; stroke-linecap: round"/>
   </g>
   <g id="line2d_38">
    <defs>
     <path id="mf0e0606f94" d="M 0 1.5 
C 0.397805 1.5 0.77937 1.341951 1.06066 1.06066 
C 1.341951 0.77937 1.5 0.397805 1.5 0 
C 1.5 -0.397805 1.341951 -0.77937 1.06066 -1.06066 
C 0.77937 -1.341951 0.397805 -1.5 0 -1.5 
C -0.397805 -1.5 -0.77937 -1.341951 -1.06066 -1.06066 
C -1.341951 -0.77937 -1.5 -0.397805 -1.5 0 
C -1.5 0.397805 -1.341951 0.77937 -1.06066 1.06066 
C -0.77937 1.341951 -0.397805 1.5 0 1.5 
z
" style="stroke: #000000"/>
    </defs>
    <g clip-path="url(#p54c8f2d762)">
     <use xlink:href="#mf0e0606f94" x="61.380788" y="160.521692" style="stroke: #000000"/>
     <use xlink:href="#mf0e0606f94" x="65.650328" y="160.150162" style="stroke: #000000"/>
     <use xlink:href="#mf0e0606f94" x="69.919869" y="157.202476" style="stroke: #000000"/>
     <use xlink:href="#mf0e0606f94" x="74.189409" y="155.448774" style="stroke: #000000"/>
     <use xlink:href="#mf0e0606f94" x="78.45895" y="155.039086" style="stroke: #000000"/>
     <use xlink:href="#mf0e0606f94" x="82.72849" y="152.405932" style="stroke: #000000"/>
     <use xlink:href="#mf0e0606f94" x="86.998031" y="150.306538" style="stroke: #000000"/>
     <use xlink:href="#mf0e0606f94" x="91.267571" y="149.209539" style="stroke: #000000"/>
     <use xlink:href="#mf0e0606f94" x="95.537112" y="146.832891" style="stroke: #000000"/>
     <use xlink:href="#mf0e0606f94" x="99.806652" y="145.347144" style="stroke: #000000"/>
     <use xlink:href="#mf0e0606f94" x="104.076193" y="143.347585" style="stroke: #000000"/>
     <use xlink:href="#mf0e0606f94" x="108.345733" y="142.426988" style="stroke: #000000"/>
     <use xlink:href="#mf0e0606f94" x="112.615274" y="138.946208" style="stroke: #000000"/>
     <use xlink:href="#mf0e0606f94" x="116.884814" y="137.791322" style="stroke: #000000"/>
     <use xlink:href="#mf0e0606f94" x="121.154354" y="137.148989" style="stroke: #000000"/>
     <use xlink:href="#mf0e0606f94" x="125.423895" y="134.376802" style="stroke: #000000"/>
     <use xlink:href="#mf0e0606f94" x="129.693435" y="132.85239" style="stroke: #000000"/>
     <use xlink:href="#mf0e0606f94" x="133.962976" y="132.726866" style="stroke: #000000"/>
     <use xlink:href="#mf0e0606f94" x="138.232516" y="132.373791" style="stroke: #000000"/>
     <use xlink:href="#mf0e0606f94" x="142.502057" y="129.467319" style="stroke: #000000"/>
     <use xlink:href="#mf0e0606f94" x="146.771597" y="128.742464" style="stroke: #000000"/>
     <use xlink:href="#mf0e0606f94" x="151.041138" y="127.037674" style="stroke: #000000"/>
     <use xlink:href="#mf0e0606f94" x="155.310678" y="128.095555" style="stroke: #000000"/>
     <use xlink:href="#mf0e0606f94" x="159.580219" y="127.025218" style="stroke: #000000"/>
     <use xlink:href="#mf0e0606f94" x="163.849759" y="124.216709" style="stroke: #000000"/>
     <use xlink:href="#mf0e0606f94" x="168.1193" y="125.364872" style="stroke: #000000"/>
     <use xlink:href="#mf0e0606f94" x="172.38884" y="123.20092" style="stroke: #000000"/>
     <use xlink:href="#mf0e0606f94" x="176.658381" y="125.133862" style="stroke: #000000"/>
     <use xlink:href="#mf0e0606f94" x="180.927921" y="124.135565" style="stroke: #000000"/>
     <use xlink:href="#mf0e0606f94" x="185.197462" y="124.496661" style="stroke: #000000"/>
     <use xlink:href="#mf0e0606f94" x="189.467002" y="122.546359" style="stroke: #000000"/>
     <use xlink:href="#mf0e0606f94" x="193.736543" y="124.418843" style="stroke: #000000"/>
     <use xlink:href="#mf0e0606f94" x="198.006083" y="123.853403" style="stroke: #000000"/>
     <use xlink:href="#mf0e0606f94" x="202.275623" y="124.038538" style="stroke: #000000"/>
     <use xlink:href="#mf0e0606f94" x="206.545164" y="124.913891" style="stroke: #000000"/>
     <use xlink:href="#mf0e0606f94" x="210.814704" y="126.412027" style="stroke: #000000"/>
     <use xlink:href="#mf0e0606f94" x="215.084245" y="125.596004" style="stroke: #000000"/>
     <use xlink:href="#mf0e0606f94" x="219.353785" y="126.708473" style="stroke: #000000"/>
     <use xlink:href="#mf0e0606f94" x="223.623326" y="128.850714" style="stroke: #000000"/>
     <use xlink:href="#mf0e0606f94" x="227.892866" y="128.351093" style="stroke: #000000"/>
     <use xlink:href="#mf0e0606f94" x="232.162407" y="128.101939" style="stroke: #000000"/>
     <use xlink:href="#mf0e0606f94" x="236.431947" y="129.418606" style="stroke: #000000"/>
     <use xlink:href="#mf0e0606f94" x="240.701488" y="130.687433" style="stroke: #000000"/>
     <use xlink:href="#mf0e0606f94" x="244.971028" y="131.421582" style="stroke: #000000"/>
     <use xlink:href="#mf0e0606f94" x="249.240569" y="131.288795" style="stroke: #000000"/>
     <use xlink:href="#mf0e0606f94" x="253.510109" y="133.781037" style="stroke: #000000"/>
     <use xlink:href="#mf0e0606f94" x="257.77965" y="132.483935" style="stroke: #000000"/>
     <use xlink:href="#mf0e0606f94" x="262.04919" y="134.32348" style="stroke: #000000"/>
     <use xlink:href="#mf0e0606f94" x="266.318731" y="134.232075" style="stroke: #000000"/>
     <use xlink:href="#mf0e0606f94" x="270.588271" y="131.547164" style="stroke: #000000"/>
     <use xlink:href="#mf0e0606f94" x="274.857811" y="131.76852" style="stroke: #000000"/>
     <use xlink:href="#mf0e0606f94" x="279.127352" y="132.706157" style="stroke: #000000"/>
     <use xlink:href="#mf0e0606f94" x="283.396892" y="131.606443" style="stroke: #000000"/>
     <use xlink:href="#mf0e0606f94" x="287.666433" y="131.721864" style="stroke: #000000"/>
     <use xlink:href="#mf0e0606f94" x="291.935973" y="131.430622" style="stroke: #000000"/>
     <use xlink:href="#mf0e0606f94" x="296.205514" y="131.604391" style="stroke: #000000"/>
     <use xlink:href="#mf0e0606f94" x="300.475054" y="130.487369" style="stroke: #000000"/>
     <use xlink:href="#mf0e0606f94" x="304.744595" y="131.801854" style="stroke: #000000"/>
     <use xlink:href="#mf0e0606f94" x="309.014135" y="129.643117" style="stroke: #000000"/>
     <use xlink:href="#mf0e0606f94" x="313.283676" y="127.666246" style="stroke: #000000"/>
     <use xlink:href="#mf0e0606f94" x="317.553216" y="127.24609" style="stroke: #000000"/>
     <use xlink:href="#mf0e0606f94" x="321.822757" y="122.121043" style="stroke: #000000"/>
     <use xlink:href="#mf0e0606f94" x="326.092297" y="123.835786" style="stroke: #000000"/>
     <use xlink:href="#mf0e0606f94" x="330.361838" y="120.953124" style="stroke: #000000"/>
     <use xlink:href="#mf0e0606f94" x="334.631378" y="118.314722" style="stroke: #000000"/>
     <use xlink:href="#mf0e0606f94" x="338.900919" y="117.614034" style="stroke: #000000"/>
     <use xlink:href="#mf0e0606f94" x="343.170459" y="114.632992" style="stroke: #000000"/>
     <use xlink:href="#mf0e0606f94" x="347.44" y="111.808542" style="stroke: #000000"/>
     <use xlink:href="#mf0e0606f94" x="351.70954" y="110.219397" style="stroke: #000000"/>
     <use xlink:href="#mf0e0606f94" x="355.97908" y="110.861954" style="stroke: #000000"/>
     <use xlink:href="#mf0e0606f94" x="360.248621" y="109.480958" style="stroke: #000000"/>
    </g>
   </g>
   <g id="line2d_39">
    <path d="M 364.518161 108.934836 
L 368.787702 109.585701 
L 373.057242 106.475778 
L 377.326783 104.760426 
L 381.596323 104.718088 
L 385.865864 102.238863 
L 390.135404 100.288922 
L 394.404945 98.145585 
L 398.674485 97.230115 
L 402.944026 94.294349 
L 407.213566 93.313797 
L 411.483107 91.64657 
L 415.752647 89.958533 
L 420.022188 88.100504 
L 424.291728 87.090933 
L 428.561269 85.359957 
L 432.830809 84.686801 
L 437.100349 83.165378 
L 441.36989 82.825935 
L 445.63943 81.328712 
L 449.908971 80.888274 
L 454.178511 78.643744 
L 458.448052 78.321051 
L 462.717592 77.484914 
L 466.987133 76.115361 
L 471.256673 76.484315 
L 475.526214 75.622461 
L 479.795754 74.18504 
L 484.065295 72.757169 
" clip-path="url(#p54c8f2d762)" style="fill: none; stroke: #fa7c17; stroke-opacity: 0; stroke-width: 1.5; stroke-linecap: round"/>
   </g>
   <g id="line2d_40">
    <path d="M 364.518161 104.790745 
L 368.787702 105.280534 
L 373.057242 102.202489 
L 377.326783 100.416449 
L 381.596323 100.333739 
L 385.865864 97.691106 
L 390.135404 95.622779 
L 394.404945 93.389746 
L 398.674485 92.481751 
L 402.944026 89.515377 
L 407.213566 88.419785 
L 411.483107 86.730138 
L 415.752647 84.975557 
L 420.022188 82.911227 
L 424.291728 81.847667 
L 428.561269 80.225371 
L 432.830809 79.492539 
L 437.100349 77.980352 
L 441.36989 77.54076 
L 445.63943 76.006607 
L 449.908971 75.511101 
L 454.178511 73.484755 
L 458.448052 73.212875 
L 462.717592 72.199844 
L 466.987133 70.740264 
L 471.256673 71.349431 
L 475.526214 70.491203 
L 479.795754 69.067771 
L 484.065295 67.395492 
" clip-path="url(#p54c8f2d762)" style="fill: none; stroke: #fa7c17; stroke-opacity: 0; stroke-width: 1.5; stroke-linecap: round"/>
   </g>
   <g id="line2d_41">
    <path d="M 364.518161 106.860604 
L 368.787702 107.365733 
L 373.057242 104.352368 
L 377.326783 102.537248 
L 381.596323 102.484196 
L 385.865864 99.883171 
L 390.135404 98.078026 
L 394.404945 95.822746 
L 398.674485 94.989315 
L 402.944026 91.967066 
L 407.213566 91.00063 
L 411.483107 89.38083 
L 415.752647 87.458226 
L 420.022188 85.473347 
L 424.291728 84.468897 
L 428.561269 82.827791 
L 432.830809 82.167372 
L 437.100349 80.548103 
L 441.36989 80.18669 
L 445.63943 78.686662 
L 449.908971 78.227629 
L 454.178511 76.047054 
L 458.448052 75.811366 
L 462.717592 74.816647 
L 466.987133 73.538882 
L 471.256673 73.87762 
L 475.526214 73.02604 
L 479.795754 71.731478 
L 484.065295 70.055475 
" clip-path="url(#p54c8f2d762)" style="fill: none; stroke: #000000; stroke-width: 1.5; stroke-linecap: round"/>
   </g>
   <g id="line2d_42">
    <g clip-path="url(#p54c8f2d762)">
     <use xlink:href="#mf0e0606f94" x="364.518161" y="107.992089" style="stroke: #000000"/>
     <use xlink:href="#mf0e0606f94" x="368.787702" y="105.312488" style="stroke: #000000"/>
     <use xlink:href="#mf0e0606f94" x="373.057242" y="104.246018" style="stroke: #000000"/>
     <use xlink:href="#mf0e0606f94" x="377.326783" y="107.433742" style="stroke: #000000"/>
     <use xlink:href="#mf0e0606f94" x="381.596323" y="110.258577" style="stroke: #000000"/>
     <use xlink:href="#mf0e0606f94" x="385.865864" y="114.9098" style="stroke: #000000"/>
     <use xlink:href="#mf0e0606f94" x="390.135404" y="119.223809" style="stroke: #000000"/>
     <use xlink:href="#mf0e0606f94" x="394.404945" y="123.226499" style="stroke: #000000"/>
     <use xlink:href="#mf0e0606f94" x="398.674485" y="121.27662" style="stroke: #000000"/>
     <use xlink:href="#mf0e0606f94" x="402.944026" y="119.293344" style="stroke: #000000"/>
     <use xlink:href="#mf0e0606f94" x="407.213566" y="111.171415" style="stroke: #000000"/>
     <use xlink:href="#mf0e0606f94" x="411.483107" y="105.934104" style="stroke: #000000"/>
     <use xlink:href="#mf0e0606f94" x="415.752647" y="99.486742" style="stroke: #000000"/>
     <use xlink:href="#mf0e0606f94" x="420.022188" y="95.363632" style="stroke: #000000"/>
     <use xlink:href="#mf0e0606f94" x="424.291728" y="89.675747" style="stroke: #000000"/>
     <use xlink:href="#mf0e0606f94" x="428.561269" y="86.790845" style="stroke: #000000"/>
     <use xlink:href="#mf0e0606f94" x="432.830809" y="84.111703" style="stroke: #000000"/>
     <use xlink:href="#mf0e0606f94" x="437.100349" y="82.363228" style="stroke: #000000"/>
     <use xlink:href="#mf0e0606f94" x="441.36989" y="80.827968" style="stroke: #000000"/>
     <use xlink:href="#mf0e0606f94" x="445.63943" y="78.138513" style="stroke: #000000"/>
     <use xlink:href="#mf0e0606f94" x="449.908971" y="77.558277" style="stroke: #000000"/>
     <use xlink:href="#mf0e0606f94" x="454.178511" y="77.210762" style="stroke: #000000"/>
     <use xlink:href="#mf0e0606f94" x="458.448052" y="76.445712" style="stroke: #000000"/>
     <use xlink:href="#mf0e0606f94" x="462.717592" y="74.953618" style="stroke: #000000"/>
     <use xlink:href="#mf0e0606f94" x="466.987133" y="74.569927" style="stroke: #000000"/>
     <use xlink:href="#mf0e0606f94" x="471.256673" y="73.651319" style="stroke: #000000"/>
     <use xlink:href="#mf0e0606f94" x="475.526214" y="71.612219" style="stroke: #000000"/>
     <use xlink:href="#mf0e0606f94" x="479.795754" y="71.430922" style="stroke: #000000"/>
     <use xlink:href="#mf0e0606f94" x="484.065295" y="70.923861" style="stroke: #000000"/>
    </g>
   </g>
   <g id="line2d_43">
    <path d="M 360.248621 189.118062 
L 360.248621 27.76 
" clip-path="url(#p54c8f2d762)" style="fill: none; stroke: #ff0000; stroke-width: 3; stroke-linecap: round"/>
   </g>
   <g id="patch_3">
    <path d="M 40.246563 189.118062 
L 40.246563 27.76 
" style="fill: none"/>
   </g>
   <g id="patch_4">
    <path d="M 505.19952 189.118062 
L 505.19952 27.76 
" style="fill: none"/>
   </g>
   <g id="patch_5">
    <path d="M 40.246562 189.118062 
L 505.19952 189.118062 
" style="fill: none"/>
   </g>
   <g id="patch_6">
    <path d="M 40.246562 27.76 
L 505.19952 27.76 
" style="fill: none"/>
   </g>
   <g id="text_5">
    <!-- $R^2$ on pre-intervention data = 0.993 -->
    <g style="fill: #262626" transform="translate(127.603041 21.76) scale(0.16 -0.16)">
     <defs>
      <path id="DejaVuSans-Oblique-52" d="M 1613 4147 
L 1294 2491 
L 2106 2491 
Q 2584 2491 2879 2755 
Q 3175 3019 3175 3444 
Q 3175 3784 2976 3965 
Q 2778 4147 2406 4147 
L 1613 4147 
z
M 2772 2241 
Q 2972 2194 3105 2009 
Q 3238 1825 3413 1275 
L 3809 0 
L 3144 0 
L 2778 1197 
Q 2638 1659 2453 1815 
Q 2269 1972 1888 1972 
L 1191 1972 
L 806 0 
L 172 0 
L 1081 4666 
L 2503 4666 
Q 3150 4666 3495 4373 
Q 3841 4081 3841 3531 
Q 3841 3044 3547 2687 
Q 3253 2331 2772 2241 
z
" transform="scale(0.015625)"/>
      <path id="DejaVuSans-20" transform="scale(0.015625)"/>
      <path id="DejaVuSans-6f" d="M 1959 3097 
Q 1497 3097 1228 2736 
Q 959 2375 959 1747 
Q 959 1119 1226 758 
Q 1494 397 1959 397 
Q 2419 397 2687 759 
Q 2956 1122 2956 1747 
Q 2956 2369 2687 2733 
Q 2419 3097 1959 3097 
z
M 1959 3584 
Q 2709 3584 3137 3096 
Q 3566 2609 3566 1747 
Q 3566 888 3137 398 
Q 2709 -91 1959 -91 
Q 1206 -91 779 398 
Q 353 888 353 1747 
Q 353 2609 779 3096 
Q 1206 3584 1959 3584 
z
" transform="scale(0.015625)"/>
      <path id="DejaVuSans-6e" d="M 3513 2113 
L 3513 0 
L 2938 0 
L 2938 2094 
Q 2938 2591 2744 2837 
Q 2550 3084 2163 3084 
Q 1697 3084 1428 2787 
Q 1159 2491 1159 1978 
L 1159 0 
L 581 0 
L 581 3500 
L 1159 3500 
L 1159 2956 
Q 1366 3272 1645 3428 
Q 1925 3584 2291 3584 
Q 2894 3584 3203 3211 
Q 3513 2838 3513 2113 
z
" transform="scale(0.015625)"/>
      <path id="DejaVuSans-70" d="M 1159 525 
L 1159 -1331 
L 581 -1331 
L 581 3500 
L 1159 3500 
L 1159 2969 
Q 1341 3281 1617 3432 
Q 1894 3584 2278 3584 
Q 2916 3584 3314 3078 
Q 3713 2572 3713 1747 
Q 3713 922 3314 415 
Q 2916 -91 2278 -91 
Q 1894 -91 1617 61 
Q 1341 213 1159 525 
z
M 3116 1747 
Q 3116 2381 2855 2742 
Q 2594 3103 2138 3103 
Q 1681 3103 1420 2742 
Q 1159 2381 1159 1747 
Q 1159 1113 1420 752 
Q 1681 391 2138 391 
Q 2594 391 2855 752 
Q 3116 1113 3116 1747 
z
" transform="scale(0.015625)"/>
      <path id="DejaVuSans-72" d="M 2631 2963 
Q 2534 3019 2420 3045 
Q 2306 3072 2169 3072 
Q 1681 3072 1420 2755 
Q 1159 2438 1159 1844 
L 1159 0 
L 581 0 
L 581 3500 
L 1159 3500 
L 1159 2956 
Q 1341 3275 1631 3429 
Q 1922 3584 2338 3584 
Q 2397 3584 2469 3576 
Q 2541 3569 2628 3553 
L 2631 2963 
z
" transform="scale(0.015625)"/>
      <path id="DejaVuSans-65" d="M 3597 1894 
L 3597 1613 
L 953 1613 
Q 991 1019 1311 708 
Q 1631 397 2203 397 
Q 2534 397 2845 478 
Q 3156 559 3463 722 
L 3463 178 
Q 3153 47 2828 -22 
Q 2503 -91 2169 -91 
Q 1331 -91 842 396 
Q 353 884 353 1716 
Q 353 2575 817 3079 
Q 1281 3584 2069 3584 
Q 2775 3584 3186 3129 
Q 3597 2675 3597 1894 
z
M 3022 2063 
Q 3016 2534 2758 2815 
Q 2500 3097 2075 3097 
Q 1594 3097 1305 2825 
Q 1016 2553 972 2059 
L 3022 2063 
z
" transform="scale(0.015625)"/>
      <path id="DejaVuSans-2d" d="M 313 2009 
L 1997 2009 
L 1997 1497 
L 313 1497 
L 313 2009 
z
" transform="scale(0.015625)"/>
      <path id="DejaVuSans-69" d="M 603 3500 
L 1178 3500 
L 1178 0 
L 603 0 
L 603 3500 
z
M 603 4863 
L 1178 4863 
L 1178 4134 
L 603 4134 
L 603 4863 
z
" transform="scale(0.015625)"/>
      <path id="DejaVuSans-74" d="M 1172 4494 
L 1172 3500 
L 2356 3500 
L 2356 3053 
L 1172 3053 
L 1172 1153 
Q 1172 725 1289 603 
Q 1406 481 1766 481 
L 2356 481 
L 2356 0 
L 1766 0 
Q 1100 0 847 248 
Q 594 497 594 1153 
L 594 3053 
L 172 3053 
L 172 3500 
L 594 3500 
L 594 4494 
L 1172 4494 
z
" transform="scale(0.015625)"/>
      <path id="DejaVuSans-76" d="M 191 3500 
L 800 3500 
L 1894 563 
L 2988 3500 
L 3597 3500 
L 2284 0 
L 1503 0 
L 191 3500 
z
" transform="scale(0.015625)"/>
      <path id="DejaVuSans-64" d="M 2906 2969 
L 2906 4863 
L 3481 4863 
L 3481 0 
L 2906 0 
L 2906 525 
Q 2725 213 2448 61 
Q 2172 -91 1784 -91 
Q 1150 -91 751 415 
Q 353 922 353 1747 
Q 353 2572 751 3078 
Q 1150 3584 1784 3584 
Q 2172 3584 2448 3432 
Q 2725 3281 2906 2969 
z
M 947 1747 
Q 947 1113 1208 752 
Q 1469 391 1925 391 
Q 2381 391 2643 752 
Q 2906 1113 2906 1747 
Q 2906 2381 2643 2742 
Q 2381 3103 1925 3103 
Q 1469 3103 1208 2742 
Q 947 2381 947 1747 
z
" transform="scale(0.015625)"/>
      <path id="DejaVuSans-61" d="M 2194 1759 
Q 1497 1759 1228 1600 
Q 959 1441 959 1056 
Q 959 750 1161 570 
Q 1363 391 1709 391 
Q 2188 391 2477 730 
Q 2766 1069 2766 1631 
L 2766 1759 
L 2194 1759 
z
M 3341 1997 
L 3341 0 
L 2766 0 
L 2766 531 
Q 2569 213 2275 61 
Q 1981 -91 1556 -91 
Q 1019 -91 701 211 
Q 384 513 384 1019 
Q 384 1609 779 1909 
Q 1175 2209 1959 2209 
L 2766 2209 
L 2766 2266 
Q 2766 2663 2505 2880 
Q 2244 3097 1772 3097 
Q 1472 3097 1187 3025 
Q 903 2953 641 2809 
L 641 3341 
Q 956 3463 1253 3523 
Q 1550 3584 1831 3584 
Q 2591 3584 2966 3190 
Q 3341 2797 3341 1997 
z
" transform="scale(0.015625)"/>
      <path id="DejaVuSans-3d" d="M 678 2906 
L 4684 2906 
L 4684 2381 
L 678 2381 
L 678 2906 
z
M 678 1631 
L 4684 1631 
L 4684 1100 
L 678 1100 
L 678 1631 
z
" transform="scale(0.015625)"/>
      <path id="DejaVuSans-2e" d="M 684 794 
L 1344 794 
L 1344 0 
L 684 0 
L 684 794 
z
" transform="scale(0.015625)"/>
      <path id="DejaVuSans-39" d="M 703 97 
L 703 672 
Q 941 559 1184 500 
Q 1428 441 1663 441 
Q 2288 441 2617 861 
Q 2947 1281 2994 2138 
Q 2813 1869 2534 1725 
Q 2256 1581 1919 1581 
Q 1219 1581 811 2004 
Q 403 2428 403 3163 
Q 403 3881 828 4315 
Q 1253 4750 1959 4750 
Q 2769 4750 3195 4129 
Q 3622 3509 3622 2328 
Q 3622 1225 3098 567 
Q 2575 -91 1691 -91 
Q 1453 -91 1209 -44 
Q 966 3 703 97 
z
M 1959 2075 
Q 2384 2075 2632 2365 
Q 2881 2656 2881 3163 
Q 2881 3666 2632 3958 
Q 2384 4250 1959 4250 
Q 1534 4250 1286 3958 
Q 1038 3666 1038 3163 
Q 1038 2656 1286 2365 
Q 1534 2075 1959 2075 
z
" transform="scale(0.015625)"/>
     </defs>
     <use xlink:href="#DejaVuSans-Oblique-52" transform="translate(0 0.765625)"/>
     <use xlink:href="#DejaVuSans-32" transform="translate(76.499193 39.046875) scale(0.7)"/>
     <use xlink:href="#DejaVuSans-20" transform="translate(123.769701 0.765625)"/>
     <use xlink:href="#DejaVuSans-6f" transform="translate(155.55681 0.765625)"/>
     <use xlink:href="#DejaVuSans-6e" transform="translate(216.738451 0.765625)"/>
     <use xlink:href="#DejaVuSans-20" transform="translate(280.117357 0.765625)"/>
     <use xlink:href="#DejaVuSans-70" transform="translate(311.904466 0.765625)"/>
     <use xlink:href="#DejaVuSans-72" transform="translate(375.381029 0.765625)"/>
     <use xlink:href="#DejaVuSans-65" transform="translate(416.49431 0.765625)"/>
     <use xlink:href="#DejaVuSans-2d" transform="translate(478.017747 0.765625)"/>
     <use xlink:href="#DejaVuSans-69" transform="translate(514.101732 0.765625)"/>
     <use xlink:href="#DejaVuSans-6e" transform="translate(541.884935 0.765625)"/>
     <use xlink:href="#DejaVuSans-74" transform="translate(605.263841 0.765625)"/>
     <use xlink:href="#DejaVuSans-65" transform="translate(644.472826 0.765625)"/>
     <use xlink:href="#DejaVuSans-72" transform="translate(705.996263 0.765625)"/>
     <use xlink:href="#DejaVuSans-76" transform="translate(747.109544 0.765625)"/>
     <use xlink:href="#DejaVuSans-65" transform="translate(806.289232 0.765625)"/>
     <use xlink:href="#DejaVuSans-6e" transform="translate(867.812669 0.765625)"/>
     <use xlink:href="#DejaVuSans-74" transform="translate(931.191576 0.765625)"/>
     <use xlink:href="#DejaVuSans-69" transform="translate(970.40056 0.765625)"/>
     <use xlink:href="#DejaVuSans-6f" transform="translate(998.183763 0.765625)"/>
     <use xlink:href="#DejaVuSans-6e" transform="translate(1059.365404 0.765625)"/>
     <use xlink:href="#DejaVuSans-20" transform="translate(1122.74431 0.765625)"/>
     <use xlink:href="#DejaVuSans-64" transform="translate(1154.531419 0.765625)"/>
     <use xlink:href="#DejaVuSans-61" transform="translate(1218.007982 0.765625)"/>
     <use xlink:href="#DejaVuSans-74" transform="translate(1279.287279 0.765625)"/>
     <use xlink:href="#DejaVuSans-61" transform="translate(1318.496263 0.765625)"/>
     <use xlink:href="#DejaVuSans-20" transform="translate(1379.77556 0.765625)"/>
     <use xlink:href="#DejaVuSans-3d" transform="translate(1411.562669 0.765625)"/>
     <use xlink:href="#DejaVuSans-20" transform="translate(1495.351732 0.765625)"/>
     <use xlink:href="#DejaVuSans-30" transform="translate(1527.138841 0.765625)"/>
     <use xlink:href="#DejaVuSans-2e" transform="translate(1590.761888 0.765625)"/>
     <use xlink:href="#DejaVuSans-39" transform="translate(1622.548997 0.765625)"/>
     <use xlink:href="#DejaVuSans-39" transform="translate(1686.172044 0.765625)"/>
     <use xlink:href="#DejaVuSans-33" transform="translate(1749.795091 0.765625)"/>
    </g>
   </g>
  </g>
  <g id="axes_2">
   <g id="patch_7">
    <path d="M 40.246563 374.634103 
L 505.19952 374.634103 
L 505.19952 213.276042 
L 40.246563 213.276042 
z
" style="fill: #eeeeee"/>
   </g>
   <g id="matplotlib.axis_3">
    <g id="xtick_7">
     <g id="line2d_44">
      <path d="M 61.380788 374.634103 
L 61.380788 213.276042 
" clip-path="url(#p99f055a1e8)" style="fill: none; stroke: #ffffff; stroke-width: 0.8; stroke-linecap: round"/>
     </g>
     <g id="line2d_45"/>
    </g>
    <g id="xtick_8">
     <g id="line2d_46">
      <path d="M 146.771597 374.634103 
L 146.771597 213.276042 
" clip-path="url(#p99f055a1e8)" style="fill: none; stroke: #ffffff; stroke-width: 0.8; stroke-linecap: round"/>
     </g>
     <g id="line2d_47"/>
    </g>
    <g id="xtick_9">
     <g id="line2d_48">
      <path d="M 232.162407 374.634103 
L 232.162407 213.276042 
" clip-path="url(#p99f055a1e8)" style="fill: none; stroke: #ffffff; stroke-width: 0.8; stroke-linecap: round"/>
     </g>
     <g id="line2d_49"/>
    </g>
    <g id="xtick_10">
     <g id="line2d_50">
      <path d="M 317.553216 374.634103 
L 317.553216 213.276042 
" clip-path="url(#p99f055a1e8)" style="fill: none; stroke: #ffffff; stroke-width: 0.8; stroke-linecap: round"/>
     </g>
     <g id="line2d_51"/>
    </g>
    <g id="xtick_11">
     <g id="line2d_52">
      <path d="M 402.944026 374.634103 
L 402.944026 213.276042 
" clip-path="url(#p99f055a1e8)" style="fill: none; stroke: #ffffff; stroke-width: 0.8; stroke-linecap: round"/>
     </g>
     <g id="line2d_53"/>
    </g>
    <g id="xtick_12">
     <g id="line2d_54">
      <path d="M 488.334835 374.634103 
L 488.334835 213.276042 
" clip-path="url(#p99f055a1e8)" style="fill: none; stroke: #ffffff; stroke-width: 0.8; stroke-linecap: round"/>
     </g>
     <g id="line2d_55"/>
    </g>
   </g>
   <g id="matplotlib.axis_4">
    <g id="ytick_5">
     <g id="line2d_56">
      <path d="M 40.246563 341.674287 
L 505.19952 341.674287 
" clip-path="url(#p99f055a1e8)" style="fill: none; stroke: #ffffff; stroke-width: 0.8; stroke-linecap: round"/>
     </g>
     <g id="line2d_57"/>
     <g id="text_6">
      <!-- 6 -->
      <g style="fill: #262626" transform="translate(16.1075 346.993194) scale(0.14 -0.14)">
       <defs>
        <path id="DejaVuSans-2212" d="M 678 2272 
L 4684 2272 
L 4684 1741 
L 678 1741 
L 678 2272 
z
" transform="scale(0.015625)"/>
        <path id="DejaVuSans-36" d="M 2113 2584 
Q 1688 2584 1439 2293 
Q 1191 2003 1191 1497 
Q 1191 994 1439 701 
Q 1688 409 2113 409 
Q 2538 409 2786 701 
Q 3034 994 3034 1497 
Q 3034 2003 2786 2293 
Q 2538 2584 2113 2584 
z
M 3366 4563 
L 3366 3988 
Q 3128 4100 2886 4159 
Q 2644 4219 2406 4219 
Q 1781 4219 1451 3797 
Q 1122 3375 1075 2522 
Q 1259 2794 1537 2939 
Q 1816 3084 2150 3084 
Q 2853 3084 3261 2657 
Q 3669 2231 3669 1497 
Q 3669 778 3244 343 
Q 2819 -91 2113 -91 
Q 1303 -91 875 529 
Q 447 1150 447 2328 
Q 447 3434 972 4092 
Q 1497 4750 2381 4750 
Q 2619 4750 2861 4703 
Q 3103 4656 3366 4563 
z
" transform="scale(0.015625)"/>
       </defs>
       <use xlink:href="#DejaVuSans-2212"/>
       <use xlink:href="#DejaVuSans-36" x="83.789062"/>
      </g>
     </g>
    </g>
    <g id="ytick_6">
     <g id="line2d_58">
      <path d="M 40.246563 307.445311 
L 505.19952 307.445311 
" clip-path="url(#p99f055a1e8)" style="fill: none; stroke: #ffffff; stroke-width: 0.8; stroke-linecap: round"/>
     </g>
     <g id="line2d_59"/>
     <g id="text_7">
      <!-- 4 -->
      <g style="fill: #262626" transform="translate(16.1075 312.764217) scale(0.14 -0.14)">
       <defs>
        <path id="DejaVuSans-34" d="M 2419 4116 
L 825 1625 
L 2419 1625 
L 2419 4116 
z
M 2253 4666 
L 3047 4666 
L 3047 1625 
L 3713 1625 
L 3713 1100 
L 3047 1100 
L 3047 0 
L 2419 0 
L 2419 1100 
L 313 1100 
L 313 1709 
L 2253 4666 
z
" transform="scale(0.015625)"/>
       </defs>
       <use xlink:href="#DejaVuSans-2212"/>
       <use xlink:href="#DejaVuSans-34" x="83.789062"/>
      </g>
     </g>
    </g>
    <g id="ytick_7">
     <g id="line2d_60">
      <path d="M 40.246563 273.216334 
L 505.19952 273.216334 
" clip-path="url(#p99f055a1e8)" style="fill: none; stroke: #ffffff; stroke-width: 0.8; stroke-linecap: round"/>
     </g>
     <g id="line2d_61"/>
     <g id="text_8">
      <!-- 2 -->
      <g style="fill: #262626" transform="translate(16.1075 278.53524) scale(0.14 -0.14)">
       <use xlink:href="#DejaVuSans-2212"/>
       <use xlink:href="#DejaVuSans-32" x="83.789062"/>
      </g>
     </g>
    </g>
    <g id="ytick_8">
     <g id="line2d_62">
      <path d="M 40.246563 238.987357 
L 505.19952 238.987357 
" clip-path="url(#p99f055a1e8)" style="fill: none; stroke: #ffffff; stroke-width: 0.8; stroke-linecap: round"/>
     </g>
     <g id="line2d_63"/>
     <g id="text_9">
      <!-- 0 -->
      <g style="fill: #262626" transform="translate(27.839063 244.306264) scale(0.14 -0.14)">
       <use xlink:href="#DejaVuSans-30"/>
      </g>
     </g>
    </g>
   </g>
   <g id="PolyCollection_3">
    <defs>
     <path id="m09a8d7c335" d="M 61.380788 -354.873086 
L 61.380788 -338.31794 
L 65.650328 -334.988037 
L 69.919869 -339.075578 
L 74.189409 -342.035878 
L 78.45895 -336.156707 
L 82.72849 -334.936303 
L 86.998031 -339.661853 
L 91.267571 -330.099 
L 95.537112 -337.594197 
L 99.806652 -339.948338 
L 104.076193 -331.276473 
L 108.345733 -334.018078 
L 112.615274 -341.695457 
L 116.884814 -342.654861 
L 121.154354 -333.074426 
L 125.423895 -343.313104 
L 129.693435 -345.113499 
L 133.962976 -334.958524 
L 138.232516 -330.704699 
L 142.502057 -338.368913 
L 146.771597 -336.096056 
L 151.041138 -338.375101 
L 155.310678 -329.508997 
L 159.580219 -334.756038 
L 163.849759 -342.602758 
L 168.1193 -335.753612 
L 172.38884 -344.097708 
L 176.658381 -334.9028 
L 180.927921 -332.682627 
L 185.197462 -334.921627 
L 189.467002 -344.338677 
L 193.736543 -332.242969 
L 198.006083 -337.762704 
L 202.275623 -340.937886 
L 206.545164 -333.922635 
L 210.814704 -333.012627 
L 215.084245 -338.525038 
L 219.353785 -336.930644 
L 223.623326 -329.88086 
L 227.892866 -336.108498 
L 232.162407 -340.87209 
L 236.431947 -337.629764 
L 240.701488 -341.203322 
L 244.971028 -335.965461 
L 249.240569 -336.99473 
L 253.510109 -333.350928 
L 257.77965 -339.598666 
L 262.04919 -329.444052 
L 266.318731 -332.259423 
L 270.588271 -344.597493 
L 274.857811 -339.983473 
L 279.127352 -338.064468 
L 283.396892 -340.492556 
L 287.666433 -339.340609 
L 291.935973 -337.646924 
L 296.205514 -335.527521 
L 300.475054 -337.239812 
L 304.744595 -326.714707 
L 309.014135 -334.694844 
L 313.283676 -336.555885 
L 317.553216 -333.015819 
L 321.822757 -346.26805 
L 326.092297 -333.158824 
L 330.361838 -342.405604 
L 334.631378 -338.960865 
L 338.900919 -336.187044 
L 343.170459 -335.379818 
L 347.44 -337.506847 
L 351.70954 -338.846274 
L 355.97908 -332.863502 
L 360.248621 -335.621179 
L 360.248621 -352.556487 
L 360.248621 -352.556487 
L 355.97908 -350.538118 
L 351.70954 -356.548243 
L 347.44 -354.27841 
L 343.170459 -352.834294 
L 338.900919 -352.893207 
L 334.631378 -356.194907 
L 330.361838 -359.398932 
L 326.092297 -350.210674 
L 321.822757 -363.406031 
L 317.553216 -349.622844 
L 313.283676 -353.2246 
L 309.014135 -351.691132 
L 304.744595 -343.541481 
L 300.475054 -354.100148 
L 296.205514 -352.292679 
L 291.935973 -353.960482 
L 287.666433 -356.307826 
L 283.396892 -357.683762 
L 279.127352 -354.922741 
L 274.857811 -356.895128 
L 270.588271 -361.643074 
L 266.318731 -349.164188 
L 262.04919 -347.21783 
L 257.77965 -356.695825 
L 253.510109 -350.355089 
L 249.240569 -353.893767 
L 244.971028 -352.640054 
L 240.701488 -358.236539 
L 236.431947 -354.788984 
L 232.162407 -357.901553 
L 227.892866 -353.398004 
L 223.623326 -347.520707 
L 219.353785 -353.573667 
L 215.084245 -355.759068 
L 210.814704 -350.365015 
L 206.545164 -350.848516 
L 202.275623 -357.909759 
L 198.006083 -354.762204 
L 193.736543 -349.475485 
L 189.467002 -361.18481 
L 185.197462 -352.082163 
L 180.927921 -350.014535 
L 176.658381 -351.799721 
L 172.38884 -361.258904 
L 168.1193 -352.672221 
L 163.849759 -359.333232 
L 159.580219 -351.889803 
L 155.310678 -346.843223 
L 151.041138 -355.437641 
L 146.771597 -352.862043 
L 142.502057 -355.71085 
L 138.232516 -347.717911 
L 133.962976 -351.529674 
L 129.693435 -361.591915 
L 125.423895 -360.526559 
L 121.154354 -350.173369 
L 116.884814 -359.387635 
L 112.615274 -358.421599 
L 108.345733 -350.609157 
L 104.076193 -348.309627 
L 99.806652 -357.280035 
L 95.537112 -354.904739 
L 91.267571 -346.749447 
L 86.998031 -356.752568 
L 82.72849 -352.523148 
L 78.45895 -353.221454 
L 74.189409 -358.804483 
L 69.919869 -355.913451 
L 65.650328 -351.275705 
L 61.380788 -354.873086 
z
" style="stroke: #fa7c17; stroke-opacity: 0.25"/>
    </defs>
    <g clip-path="url(#p99f055a1e8)">
     <use xlink:href="#m09a8d7c335" x="0" y="584.39952" style="fill: #fa7c17; fill-opacity: 0.25; stroke: #fa7c17; stroke-opacity: 0.25"/>
    </g>
   </g>
   <g id="PolyCollection_4">
    <defs>
     <path id="m1dc6ae66dd" d="M 364.518161 -349.466423 
L 364.518161 -331.644854 
L 368.787702 -345.274743 
L 373.057242 -336.624013 
L 377.326783 -315.234452 
L 381.596323 -302.730618 
L 385.865864 -271.363552 
L 390.135404 -243.916456 
L 394.404945 -217.099874 
L 398.674485 -221.580467 
L 402.944026 -217.352676 
L 407.213566 -247.569282 
L 411.483107 -262.825936 
L 415.752647 -283.007136 
L 420.022188 -291.860872 
L 424.291728 -311.747678 
L 428.561269 -317.177488 
L 432.830809 -325.547551 
L 437.100349 -326.563702 
L 441.36989 -331.275598 
L 445.63943 -336.243948 
L 449.908971 -336.608325 
L 454.178511 -329.388553 
L 458.448052 -331.509421 
L 462.717592 -333.569619 
L 466.987133 -328.942783 
L 471.256673 -335.512947 
L 475.526214 -340.591257 
L 479.795754 -335.249487 
L 484.065295 -330.238491 
L 484.065295 -353.296264 
L 484.065295 -353.296264 
L 479.795754 -357.256187 
L 475.526214 -362.65812 
L 471.256673 -357.5954 
L 466.987133 -352.058266 
L 462.717592 -356.297948 
L 458.448052 -353.477016 
L 454.178511 -351.574669 
L 449.908971 -359.732741 
L 445.63943 -359.131544 
L 441.36989 -354.004376 
L 437.100349 -348.861792 
L 432.830809 -347.885359 
L 428.561269 -339.258659 
L 424.291728 -334.29623 
L 420.022188 -314.177239 
L 415.752647 -304.436312 
L 411.483107 -283.968943 
L 407.213566 -268.61587 
L 402.944026 -237.904539 
L 398.674485 -242.000703 
L 394.404945 -237.552254 
L 390.135404 -263.983102 
L 385.865864 -290.921079 
L 381.596323 -321.585414 
L 377.326783 -333.915629 
L 373.057242 -355.001196 
L 368.787702 -363.789021 
L 364.518161 -349.466423 
z
" style="stroke: #fa7c17; stroke-opacity: 0.25"/>
    </defs>
    <g clip-path="url(#p99f055a1e8)">
     <use xlink:href="#m1dc6ae66dd" x="0" y="584.39952" style="fill: #fa7c17; fill-opacity: 0.25; stroke: #fa7c17; stroke-opacity: 0.25"/>
    </g>
   </g>
   <g id="line2d_64">
    <path d="M 61.380788 246.08158 
L 65.650328 249.411483 
L 69.919869 245.323942 
L 74.189409 242.363642 
L 78.45895 248.242813 
L 82.72849 249.463217 
L 86.998031 244.737667 
L 91.267571 254.30052 
L 95.537112 246.805323 
L 99.806652 244.451182 
L 104.076193 253.123047 
L 108.345733 250.381442 
L 112.615274 242.704063 
L 116.884814 241.744659 
L 121.154354 251.325094 
L 125.423895 241.086416 
L 129.693435 239.286021 
L 133.962976 249.440996 
L 138.232516 253.694821 
L 142.502057 246.030607 
L 146.771597 248.303464 
L 151.041138 246.024419 
L 155.310678 254.890523 
L 159.580219 249.643482 
L 163.849759 241.796762 
L 168.1193 248.645908 
L 172.38884 240.301812 
L 176.658381 249.49672 
L 180.927921 251.716893 
L 185.197462 249.477893 
L 189.467002 240.060843 
L 193.736543 252.156551 
L 198.006083 246.636816 
L 202.275623 243.461634 
L 206.545164 250.476885 
L 210.814704 251.386893 
L 215.084245 245.874482 
L 219.353785 247.468876 
L 223.623326 254.51866 
L 227.892866 248.291022 
L 232.162407 243.52743 
L 236.431947 246.769756 
L 240.701488 243.196198 
L 244.971028 248.434059 
L 249.240569 247.40479 
L 253.510109 251.048592 
L 257.77965 244.800854 
L 262.04919 254.955468 
L 266.318731 252.140097 
L 270.588271 239.802027 
L 274.857811 244.416047 
L 279.127352 246.335052 
L 283.396892 243.906964 
L 287.666433 245.058911 
L 291.935973 246.752596 
L 296.205514 248.871999 
L 300.475054 247.159708 
L 304.744595 257.684813 
L 309.014135 249.704676 
L 313.283676 247.843635 
L 317.553216 251.383701 
L 321.822757 238.13147 
L 326.092297 251.240696 
L 330.361838 241.993916 
L 334.631378 245.438655 
L 338.900919 248.212476 
L 343.170459 249.019702 
L 347.44 246.892673 
L 351.70954 245.553246 
L 355.97908 251.536018 
L 360.248621 248.778341 
" clip-path="url(#p99f055a1e8)" style="fill: none; stroke: #fa7c17; stroke-opacity: 0; stroke-width: 1.5; stroke-linecap: round"/>
   </g>
   <g id="line2d_65">
    <path d="M 61.380788 229.526434 
L 65.650328 233.123815 
L 69.919869 228.486069 
L 74.189409 225.595037 
L 78.45895 231.178066 
L 82.72849 231.876372 
L 86.998031 227.646952 
L 91.267571 237.650073 
L 95.537112 229.494781 
L 99.806652 227.119485 
L 104.076193 236.089893 
L 108.345733 233.790363 
L 112.615274 225.977921 
L 116.884814 225.011885 
L 121.154354 234.226151 
L 125.423895 223.872961 
L 129.693435 222.807605 
L 133.962976 232.869846 
L 138.232516 236.681609 
L 142.502057 228.68867 
L 146.771597 231.537477 
L 151.041138 228.961879 
L 155.310678 237.556297 
L 159.580219 232.509717 
L 163.849759 225.066288 
L 168.1193 231.727299 
L 172.38884 223.140616 
L 176.658381 232.599799 
L 180.927921 234.384985 
L 185.197462 232.317357 
L 189.467002 223.21471 
L 193.736543 234.924035 
L 198.006083 229.637316 
L 202.275623 226.489761 
L 206.545164 233.551004 
L 210.814704 234.034505 
L 215.084245 228.640452 
L 219.353785 230.825853 
L 223.623326 236.878813 
L 227.892866 231.001516 
L 232.162407 226.497967 
L 236.431947 229.610536 
L 240.701488 226.162981 
L 244.971028 231.759466 
L 249.240569 230.505753 
L 253.510109 234.044431 
L 257.77965 227.703695 
L 262.04919 237.18169 
L 266.318731 235.235332 
L 270.588271 222.756446 
L 274.857811 227.504392 
L 279.127352 229.476779 
L 283.396892 226.715758 
L 287.666433 228.091694 
L 291.935973 230.439038 
L 296.205514 232.106841 
L 300.475054 230.299372 
L 304.744595 240.858039 
L 309.014135 232.708388 
L 313.283676 231.17492 
L 317.553216 234.776676 
L 321.822757 220.993489 
L 326.092297 234.188846 
L 330.361838 225.000588 
L 334.631378 228.204613 
L 338.900919 231.506313 
L 343.170459 231.565226 
L 347.44 230.12111 
L 351.70954 227.851277 
L 355.97908 233.861402 
L 360.248621 231.843033 
" clip-path="url(#p99f055a1e8)" style="fill: none; stroke: #fa7c17; stroke-opacity: 0; stroke-width: 1.5; stroke-linecap: round"/>
   </g>
   <g id="line2d_66">
    <path d="M 61.380788 238.237682 
L 65.650328 241.105524 
L 69.919869 237.378219 
L 74.189409 234.286853 
L 78.45895 239.903706 
L 82.72849 240.417176 
L 86.998031 236.485749 
L 91.267571 246.241096 
L 95.537112 238.200771 
L 99.806652 236.396462 
L 104.076193 243.977567 
L 108.345733 241.839029 
L 112.615274 234.551223 
L 116.884814 233.466081 
L 121.154354 243.258891 
L 125.423895 232.820952 
L 129.693435 230.842716 
L 133.962976 241.265783 
L 138.232516 245.121295 
L 142.502057 237.356515 
L 146.771597 239.660092 
L 151.041138 237.347033 
L 155.310678 246.696371 
L 159.580219 241.224378 
L 163.849759 234.122375 
L 168.1193 239.806028 
L 172.38884 231.608389 
L 176.658381 240.678824 
L 180.927921 243.51169 
L 185.197462 240.951475 
L 189.467002 231.705278 
L 193.736543 243.885617 
L 198.006083 238.181465 
L 202.275623 234.733126 
L 206.545164 242.028993 
L 210.814704 243.120268 
L 215.084245 236.881103 
L 219.353785 239.048475 
L 223.623326 245.386964 
L 227.892866 239.105544 
L 232.162407 235.092173 
L 236.431947 238.028674 
L 240.701488 234.419636 
L 244.971028 240.021716 
L 249.240569 239.07892 
L 253.510109 242.652959 
L 257.77965 235.914512 
L 262.04919 245.925658 
L 266.318731 243.776398 
L 270.588271 230.801263 
L 274.857811 235.949636 
L 279.127352 238.320683 
L 283.396892 235.763935 
L 287.666433 236.079188 
L 291.935973 238.423006 
L 296.205514 240.766255 
L 300.475054 238.756108 
L 304.744595 249.500589 
L 309.014135 240.896934 
L 313.283676 239.463286 
L 317.553216 243.104251 
L 321.822757 229.482225 
L 326.092297 242.88956 
L 330.361838 233.533846 
L 334.631378 237.074176 
L 338.900919 240.115413 
L 343.170459 240.181318 
L 347.44 238.356593 
L 351.70954 237.111615 
L 355.97908 242.871519 
L 360.248621 240.120745 
" clip-path="url(#p99f055a1e8)" style="fill: none; stroke: #000000; stroke-width: 1.5; stroke-linecap: round"/>
   </g>
   <g id="line2d_67">
    <path d="M 364.518161 252.754666 
L 368.787702 239.124777 
L 373.057242 247.775507 
L 377.326783 269.165068 
L 381.596323 281.668902 
L 385.865864 313.035968 
L 390.135404 340.483064 
L 394.404945 367.299646 
L 398.674485 362.819053 
L 402.944026 367.046844 
L 407.213566 336.830238 
L 411.483107 321.573584 
L 415.752647 301.392384 
L 420.022188 292.538648 
L 424.291728 272.651842 
L 428.561269 267.222032 
L 432.830809 258.851969 
L 437.100349 257.835818 
L 441.36989 253.123922 
L 445.63943 248.155572 
L 449.908971 247.791195 
L 454.178511 255.010967 
L 458.448052 252.890099 
L 462.717592 250.829901 
L 466.987133 255.456737 
L 471.256673 248.886573 
L 475.526214 243.808263 
L 479.795754 249.150033 
L 484.065295 254.161029 
" clip-path="url(#p99f055a1e8)" style="fill: none; stroke: #fa7c17; stroke-opacity: 0; stroke-width: 1.5; stroke-linecap: round"/>
   </g>
   <g id="line2d_68">
    <path d="M 364.518161 234.933097 
L 368.787702 220.610499 
L 373.057242 229.398324 
L 377.326783 250.483891 
L 381.596323 262.814106 
L 385.865864 293.478441 
L 390.135404 320.416418 
L 394.404945 346.847266 
L 398.674485 342.398817 
L 402.944026 346.494981 
L 407.213566 315.78365 
L 411.483107 300.430577 
L 415.752647 279.963208 
L 420.022188 270.222281 
L 424.291728 250.10329 
L 428.561269 245.140861 
L 432.830809 236.514161 
L 437.100349 235.537728 
L 441.36989 230.395144 
L 445.63943 225.267976 
L 449.908971 224.666779 
L 454.178511 232.824851 
L 458.448052 230.922504 
L 462.717592 228.101572 
L 466.987133 232.341254 
L 471.256673 226.80412 
L 475.526214 221.7414 
L 479.795754 227.143333 
L 484.065295 231.103256 
" clip-path="url(#p99f055a1e8)" style="fill: none; stroke: #fa7c17; stroke-opacity: 0; stroke-width: 1.5; stroke-linecap: round"/>
   </g>
   <g id="line2d_69">
    <path d="M 364.518161 243.853286 
L 368.787702 230.157422 
L 373.057242 238.529999 
L 377.326783 260.044619 
L 381.596323 272.42091 
L 385.865864 303.609043 
L 390.135404 329.924328 
L 394.404945 356.836586 
L 398.674485 352.035331 
L 402.944026 356.503411 
L 407.213566 325.731371 
L 411.483107 310.174345 
L 415.752647 290.715722 
L 420.022188 281.520309 
L 424.291728 261.379297 
L 428.561269 256.030382 
L 432.830809 247.348909 
L 437.100349 246.793264 
L 441.36989 241.745157 
L 445.63943 236.630055 
L 449.908971 236.108824 
L 454.178511 243.991857 
L 458.448052 241.715347 
L 462.717592 239.576398 
L 466.987133 243.421342 
L 471.256673 238.014153 
L 475.526214 232.907253 
L 479.795754 237.694823 
L 484.065295 242.721831 
" clip-path="url(#p99f055a1e8)" style="fill: none; stroke: #000000; stroke-width: 1.5; stroke-linecap: round"/>
   </g>
   <g id="line2d_70">
    <path d="M 40.246563 238.987357 
L 505.19952 238.987357 
" clip-path="url(#p99f055a1e8)" style="fill: none; stroke: #000000; stroke-width: 1.5; stroke-linecap: round"/>
   </g>
   <g id="line2d_71">
    <path d="M 360.248621 374.634103 
L 360.248621 213.276042 
" clip-path="url(#p99f055a1e8)" style="fill: none; stroke: #ff0000; stroke-width: 3; stroke-linecap: round"/>
   </g>
   <g id="patch_8">
    <path d="M 40.246563 374.634103 
L 40.246563 213.276042 
" style="fill: none"/>
   </g>
   <g id="patch_9">
    <path d="M 505.19952 374.634103 
L 505.19952 213.276042 
" style="fill: none"/>
   </g>
   <g id="patch_10">
    <path d="M 40.246562 374.634103 
L 505.19952 374.634103 
" style="fill: none"/>
   </g>
   <g id="patch_11">
    <path d="M 40.246562 213.276042 
L 505.19952 213.276042 
" style="fill: none"/>
   </g>
   <g id="text_10">
    <!-- Causal Impact -->
    <g style="fill: #262626" transform="translate(215.660541 207.276042) scale(0.16 -0.16)">
     <defs>
      <path id="DejaVuSans-43" d="M 4122 4306 
L 4122 3641 
Q 3803 3938 3442 4084 
Q 3081 4231 2675 4231 
Q 1875 4231 1450 3742 
Q 1025 3253 1025 2328 
Q 1025 1406 1450 917 
Q 1875 428 2675 428 
Q 3081 428 3442 575 
Q 3803 722 4122 1019 
L 4122 359 
Q 3791 134 3420 21 
Q 3050 -91 2638 -91 
Q 1578 -91 968 557 
Q 359 1206 359 2328 
Q 359 3453 968 4101 
Q 1578 4750 2638 4750 
Q 3056 4750 3426 4639 
Q 3797 4528 4122 4306 
z
" transform="scale(0.015625)"/>
      <path id="DejaVuSans-75" d="M 544 1381 
L 544 3500 
L 1119 3500 
L 1119 1403 
Q 1119 906 1312 657 
Q 1506 409 1894 409 
Q 2359 409 2629 706 
Q 2900 1003 2900 1516 
L 2900 3500 
L 3475 3500 
L 3475 0 
L 2900 0 
L 2900 538 
Q 2691 219 2414 64 
Q 2138 -91 1772 -91 
Q 1169 -91 856 284 
Q 544 659 544 1381 
z
M 1991 3584 
L 1991 3584 
z
" transform="scale(0.015625)"/>
      <path id="DejaVuSans-73" d="M 2834 3397 
L 2834 2853 
Q 2591 2978 2328 3040 
Q 2066 3103 1784 3103 
Q 1356 3103 1142 2972 
Q 928 2841 928 2578 
Q 928 2378 1081 2264 
Q 1234 2150 1697 2047 
L 1894 2003 
Q 2506 1872 2764 1633 
Q 3022 1394 3022 966 
Q 3022 478 2636 193 
Q 2250 -91 1575 -91 
Q 1294 -91 989 -36 
Q 684 19 347 128 
L 347 722 
Q 666 556 975 473 
Q 1284 391 1588 391 
Q 1994 391 2212 530 
Q 2431 669 2431 922 
Q 2431 1156 2273 1281 
Q 2116 1406 1581 1522 
L 1381 1569 
Q 847 1681 609 1914 
Q 372 2147 372 2553 
Q 372 3047 722 3315 
Q 1072 3584 1716 3584 
Q 2034 3584 2315 3537 
Q 2597 3491 2834 3397 
z
" transform="scale(0.015625)"/>
      <path id="DejaVuSans-6c" d="M 603 4863 
L 1178 4863 
L 1178 0 
L 603 0 
L 603 4863 
z
" transform="scale(0.015625)"/>
      <path id="DejaVuSans-49" d="M 628 4666 
L 1259 4666 
L 1259 0 
L 628 0 
L 628 4666 
z
" transform="scale(0.015625)"/>
      <path id="DejaVuSans-6d" d="M 3328 2828 
Q 3544 3216 3844 3400 
Q 4144 3584 4550 3584 
Q 5097 3584 5394 3201 
Q 5691 2819 5691 2113 
L 5691 0 
L 5113 0 
L 5113 2094 
Q 5113 2597 4934 2840 
Q 4756 3084 4391 3084 
Q 3944 3084 3684 2787 
Q 3425 2491 3425 1978 
L 3425 0 
L 2847 0 
L 2847 2094 
Q 2847 2600 2669 2842 
Q 2491 3084 2119 3084 
Q 1678 3084 1418 2786 
Q 1159 2488 1159 1978 
L 1159 0 
L 581 0 
L 581 3500 
L 1159 3500 
L 1159 2956 
Q 1356 3278 1631 3431 
Q 1906 3584 2284 3584 
Q 2666 3584 2933 3390 
Q 3200 3197 3328 2828 
z
" transform="scale(0.015625)"/>
      <path id="DejaVuSans-63" d="M 3122 3366 
L 3122 2828 
Q 2878 2963 2633 3030 
Q 2388 3097 2138 3097 
Q 1578 3097 1268 2742 
Q 959 2388 959 1747 
Q 959 1106 1268 751 
Q 1578 397 2138 397 
Q 2388 397 2633 464 
Q 2878 531 3122 666 
L 3122 134 
Q 2881 22 2623 -34 
Q 2366 -91 2075 -91 
Q 1284 -91 818 406 
Q 353 903 353 1747 
Q 353 2603 823 3093 
Q 1294 3584 2113 3584 
Q 2378 3584 2631 3529 
Q 2884 3475 3122 3366 
z
" transform="scale(0.015625)"/>
     </defs>
     <use xlink:href="#DejaVuSans-43"/>
     <use xlink:href="#DejaVuSans-61" x="69.824219"/>
     <use xlink:href="#DejaVuSans-75" x="131.103516"/>
     <use xlink:href="#DejaVuSans-73" x="194.482422"/>
     <use xlink:href="#DejaVuSans-61" x="246.582031"/>
     <use xlink:href="#DejaVuSans-6c" x="307.861328"/>
     <use xlink:href="#DejaVuSans-20" x="335.644531"/>
     <use xlink:href="#DejaVuSans-49" x="367.431641"/>
     <use xlink:href="#DejaVuSans-6d" x="396.923828"/>
     <use xlink:href="#DejaVuSans-70" x="494.335938"/>
     <use xlink:href="#DejaVuSans-61" x="557.8125"/>
     <use xlink:href="#DejaVuSans-63" x="619.091797"/>
     <use xlink:href="#DejaVuSans-74" x="674.072266"/>
    </g>
   </g>
  </g>
  <g id="axes_3">
   <g id="patch_12">
    <path d="M 40.246563 560.150145 
L 505.19952 560.150145 
L 505.19952 398.792083 
L 40.246563 398.792083 
z
" style="fill: #eeeeee"/>
   </g>
   <g id="matplotlib.axis_5">
    <g id="xtick_13">
     <g id="line2d_72">
      <path d="M 61.380788 560.150145 
L 61.380788 398.792083 
" clip-path="url(#pbd0e1fe833)" style="fill: none; stroke: #ffffff; stroke-width: 0.8; stroke-linecap: round"/>
     </g>
     <g id="line2d_73"/>
     <g id="text_11">
      <!-- 0 -->
      <g style="fill: #262626" transform="translate(56.927038 574.287958) scale(0.14 -0.14)">
       <use xlink:href="#DejaVuSans-30"/>
      </g>
     </g>
    </g>
    <g id="xtick_14">
     <g id="line2d_74">
      <path d="M 146.771597 560.150145 
L 146.771597 398.792083 
" clip-path="url(#pbd0e1fe833)" style="fill: none; stroke: #ffffff; stroke-width: 0.8; stroke-linecap: round"/>
     </g>
     <g id="line2d_75"/>
     <g id="text_12">
      <!-- 20 -->
      <g style="fill: #262626" transform="translate(137.864097 574.287958) scale(0.14 -0.14)">
       <use xlink:href="#DejaVuSans-32"/>
       <use xlink:href="#DejaVuSans-30" x="63.623047"/>
      </g>
     </g>
    </g>
    <g id="xtick_15">
     <g id="line2d_76">
      <path d="M 232.162407 560.150145 
L 232.162407 398.792083 
" clip-path="url(#pbd0e1fe833)" style="fill: none; stroke: #ffffff; stroke-width: 0.8; stroke-linecap: round"/>
     </g>
     <g id="line2d_77"/>
     <g id="text_13">
      <!-- 40 -->
      <g style="fill: #262626" transform="translate(223.254907 574.287958) scale(0.14 -0.14)">
       <use xlink:href="#DejaVuSans-34"/>
       <use xlink:href="#DejaVuSans-30" x="63.623047"/>
      </g>
     </g>
    </g>
    <g id="xtick_16">
     <g id="line2d_78">
      <path d="M 317.553216 560.150145 
L 317.553216 398.792083 
" clip-path="url(#pbd0e1fe833)" style="fill: none; stroke: #ffffff; stroke-width: 0.8; stroke-linecap: round"/>
     </g>
     <g id="line2d_79"/>
     <g id="text_14">
      <!-- 60 -->
      <g style="fill: #262626" transform="translate(308.645716 574.287958) scale(0.14 -0.14)">
       <use xlink:href="#DejaVuSans-36"/>
       <use xlink:href="#DejaVuSans-30" x="63.623047"/>
      </g>
     </g>
    </g>
    <g id="xtick_17">
     <g id="line2d_80">
      <path d="M 402.944026 560.150145 
L 402.944026 398.792083 
" clip-path="url(#pbd0e1fe833)" style="fill: none; stroke: #ffffff; stroke-width: 0.8; stroke-linecap: round"/>
     </g>
     <g id="line2d_81"/>
     <g id="text_15">
      <!-- 80 -->
      <g style="fill: #262626" transform="translate(394.036526 574.287958) scale(0.14 -0.14)">
       <defs>
        <path id="DejaVuSans-38" d="M 2034 2216 
Q 1584 2216 1326 1975 
Q 1069 1734 1069 1313 
Q 1069 891 1326 650 
Q 1584 409 2034 409 
Q 2484 409 2743 651 
Q 3003 894 3003 1313 
Q 3003 1734 2745 1975 
Q 2488 2216 2034 2216 
z
M 1403 2484 
Q 997 2584 770 2862 
Q 544 3141 544 3541 
Q 544 4100 942 4425 
Q 1341 4750 2034 4750 
Q 2731 4750 3128 4425 
Q 3525 4100 3525 3541 
Q 3525 3141 3298 2862 
Q 3072 2584 2669 2484 
Q 3125 2378 3379 2068 
Q 3634 1759 3634 1313 
Q 3634 634 3220 271 
Q 2806 -91 2034 -91 
Q 1263 -91 848 271 
Q 434 634 434 1313 
Q 434 1759 690 2068 
Q 947 2378 1403 2484 
z
M 1172 3481 
Q 1172 3119 1398 2916 
Q 1625 2713 2034 2713 
Q 2441 2713 2670 2916 
Q 2900 3119 2900 3481 
Q 2900 3844 2670 4047 
Q 2441 4250 2034 4250 
Q 1625 4250 1398 4047 
Q 1172 3844 1172 3481 
z
" transform="scale(0.015625)"/>
       </defs>
       <use xlink:href="#DejaVuSans-38"/>
       <use xlink:href="#DejaVuSans-30" x="63.623047"/>
      </g>
     </g>
    </g>
    <g id="xtick_18">
     <g id="line2d_82">
      <path d="M 488.334835 560.150145 
L 488.334835 398.792083 
" clip-path="url(#pbd0e1fe833)" style="fill: none; stroke: #ffffff; stroke-width: 0.8; stroke-linecap: round"/>
     </g>
     <g id="line2d_83"/>
     <g id="text_16">
      <!-- 100 -->
      <g style="fill: #262626" transform="translate(474.973585 574.287958) scale(0.14 -0.14)">
       <use xlink:href="#DejaVuSans-31"/>
       <use xlink:href="#DejaVuSans-30" x="63.623047"/>
       <use xlink:href="#DejaVuSans-30" x="127.246094"/>
      </g>
     </g>
    </g>
   </g>
   <g id="matplotlib.axis_6">
    <g id="ytick_9">
     <g id="line2d_84">
      <path d="M 40.246563 549.627605 
L 505.19952 549.627605 
" clip-path="url(#pbd0e1fe833)" style="fill: none; stroke: #ffffff; stroke-width: 0.8; stroke-linecap: round"/>
     </g>
     <g id="line2d_85"/>
     <g id="text_17">
      <!-- 60 -->
      <g style="fill: #262626" transform="translate(7.2 554.946511) scale(0.14 -0.14)">
       <use xlink:href="#DejaVuSans-2212"/>
       <use xlink:href="#DejaVuSans-36" x="83.789062"/>
       <use xlink:href="#DejaVuSans-30" x="147.412109"/>
      </g>
     </g>
    </g>
    <g id="ytick_10">
     <g id="line2d_86">
      <path d="M 40.246563 502.805448 
L 505.19952 502.805448 
" clip-path="url(#pbd0e1fe833)" style="fill: none; stroke: #ffffff; stroke-width: 0.8; stroke-linecap: round"/>
     </g>
     <g id="line2d_87"/>
     <g id="text_18">
      <!-- 40 -->
      <g style="fill: #262626" transform="translate(7.2 508.124354) scale(0.14 -0.14)">
       <use xlink:href="#DejaVuSans-2212"/>
       <use xlink:href="#DejaVuSans-34" x="83.789062"/>
       <use xlink:href="#DejaVuSans-30" x="147.412109"/>
      </g>
     </g>
    </g>
    <g id="ytick_11">
     <g id="line2d_88">
      <path d="M 40.246563 455.98329 
L 505.19952 455.98329 
" clip-path="url(#pbd0e1fe833)" style="fill: none; stroke: #ffffff; stroke-width: 0.8; stroke-linecap: round"/>
     </g>
     <g id="line2d_89"/>
     <g id="text_19">
      <!-- 20 -->
      <g style="fill: #262626" transform="translate(7.2 461.302197) scale(0.14 -0.14)">
       <use xlink:href="#DejaVuSans-2212"/>
       <use xlink:href="#DejaVuSans-32" x="83.789062"/>
       <use xlink:href="#DejaVuSans-30" x="147.412109"/>
      </g>
     </g>
    </g>
    <g id="ytick_12">
     <g id="line2d_90">
      <path d="M 40.246563 409.161133 
L 505.19952 409.161133 
" clip-path="url(#pbd0e1fe833)" style="fill: none; stroke: #ffffff; stroke-width: 0.8; stroke-linecap: round"/>
     </g>
     <g id="line2d_91"/>
     <g id="text_20">
      <!-- 0 -->
      <g style="fill: #262626" transform="translate(27.839063 414.480039) scale(0.14 -0.14)">
       <use xlink:href="#DejaVuSans-30"/>
      </g>
     </g>
    </g>
   </g>
   <g id="PolyCollection_5">
    <defs>
     <path id="ma60f098b13" d="M 364.518161 -175.792973 
L 364.518161 -173.355143 
L 368.787702 -173.895223 
L 373.057242 -173.267411 
L 377.326783 -169.797361 
L 381.596323 -164.698712 
L 385.865864 -155.116565 
L 390.135404 -141.715638 
L 394.404945 -124.870087 
L 398.674485 -108.576865 
L 402.944026 -91.74602 
L 407.213566 -78.958123 
L 411.483107 -68.112388 
L 415.752647 -60.366014 
L 420.022188 -53.329883 
L 424.291728 -48.62491 
L 428.561269 -46.122899 
L 432.830809 -43.499413 
L 437.100349 -42.586579 
L 441.36989 -41.053979 
L 445.63943 -39.745988 
L 449.908971 -39.604887 
L 454.178511 -38.343156 
L 458.448052 -36.732709 
L 462.717592 -34.914511 
L 466.987133 -33.825188 
L 471.256673 -32.195484 
L 475.526214 -32.876544 
L 479.795754 -31.718692 
L 484.065295 -31.583832 
L 484.065295 -81.932859 
L 484.065295 -81.932859 
L 479.795754 -80.114866 
L 475.526214 -79.71838 
L 471.256673 -77.517172 
L 466.987133 -77.31212 
L 462.717592 -76.360283 
L 458.448052 -76.183447 
L 454.178511 -76.280376 
L 449.908971 -75.642249 
L 445.63943 -73.852775 
L 441.36989 -73.388912 
L 437.100349 -73.063581 
L 432.830809 -72.187233 
L 428.561269 -72.915251 
L 424.291728 -73.370039 
L 420.022188 -75.863424 
L 415.752647 -80.964065 
L 411.483107 -86.827651 
L 407.213566 -95.806563 
L 402.944026 -106.894359 
L 398.674485 -122.215553 
L 394.404945 -136.888021 
L 390.135404 -152.186632 
L 385.865864 -164.117934 
L 381.596323 -172.286726 
L 377.326783 -176.106781 
L 373.057242 -178.272979 
L 368.787702 -177.744809 
L 364.518161 -175.792973 
z
" style="stroke: #fa7c17; stroke-opacity: 0.25"/>
    </defs>
    <g clip-path="url(#pbd0e1fe833)">
     <use xlink:href="#ma60f098b13" x="0" y="584.39952" style="fill: #fa7c17; fill-opacity: 0.25; stroke: #fa7c17; stroke-opacity: 0.25"/>
    </g>
   </g>
   <g id="line2d_92">
    <path d="M 364.518161 411.044377 
L 368.787702 410.504297 
L 373.057242 411.132109 
L 377.326783 414.602159 
L 381.596323 419.700808 
L 385.865864 429.282955 
L 390.135404 442.683882 
L 394.404945 459.529433 
L 398.674485 475.822655 
L 402.944026 492.6535 
L 407.213566 505.441397 
L 411.483107 516.287132 
L 415.752647 524.033506 
L 420.022188 531.069637 
L 424.291728 535.77461 
L 428.561269 538.276621 
L 432.830809 540.900107 
L 437.100349 541.812941 
L 441.36989 543.345541 
L 445.63943 544.653532 
L 449.908971 544.794633 
L 454.178511 546.056364 
L 458.448052 547.666811 
L 462.717592 549.485009 
L 466.987133 550.574332 
L 471.256673 552.204036 
L 475.526214 551.522976 
L 479.795754 552.680828 
L 484.065295 552.815688 
" clip-path="url(#pbd0e1fe833)" style="fill: none; stroke: #fa7c17; stroke-opacity: 0; stroke-width: 1.5; stroke-linecap: round"/>
   </g>
   <g id="line2d_93">
    <path d="M 364.518161 408.606547 
L 368.787702 406.654711 
L 373.057242 406.126541 
L 377.326783 408.292739 
L 381.596323 412.112794 
L 385.865864 420.281586 
L 390.135404 432.212888 
L 394.404945 447.511499 
L 398.674485 462.183967 
L 402.944026 477.505161 
L 407.213566 488.592957 
L 411.483107 497.571869 
L 415.752647 503.435455 
L 420.022188 508.536096 
L 424.291728 511.029481 
L 428.561269 511.484269 
L 432.830809 512.212287 
L 437.100349 511.335939 
L 441.36989 511.010608 
L 445.63943 510.546745 
L 449.908971 508.757271 
L 454.178511 508.119144 
L 458.448052 508.216073 
L 462.717592 508.039237 
L 466.987133 507.0874 
L 471.256673 506.882348 
L 475.526214 504.68114 
L 479.795754 504.284654 
L 484.065295 502.466661 
" clip-path="url(#pbd0e1fe833)" style="fill: none; stroke: #fa7c17; stroke-opacity: 0; stroke-width: 1.5; stroke-linecap: round"/>
   </g>
   <g id="line2d_94">
    <path d="M 364.518161 409.826748 
L 368.787702 408.618893 
L 373.057242 408.55633 
L 377.326783 411.436774 
L 381.596323 416.010183 
L 385.865864 424.849847 
L 390.135404 437.289206 
L 394.404945 453.409919 
L 398.674485 468.873864 
L 402.944026 484.949001 
L 407.213566 496.814801 
L 411.483107 506.55254 
L 415.752647 513.628515 
L 420.022188 519.446639 
L 424.291728 522.509655 
L 428.561269 524.840987 
L 432.830809 525.984772 
L 437.100349 527.05255 
L 441.36989 527.429792 
L 445.63943 527.107334 
L 449.908971 526.713577 
L 454.178511 527.398147 
L 458.448052 527.771312 
L 462.717592 527.851887 
L 466.987133 528.458417 
L 471.256673 528.325291 
L 475.526214 527.493587 
L 479.795754 527.31678 
L 484.065295 527.827623 
" clip-path="url(#pbd0e1fe833)" style="fill: none; stroke: #000000; stroke-width: 1.5; stroke-linecap: round"/>
   </g>
   <g id="line2d_95">
    <path d="M 360.248621 560.150145 
L 360.248621 398.792083 
" clip-path="url(#pbd0e1fe833)" style="fill: none; stroke: #ff0000; stroke-width: 3; stroke-linecap: round"/>
   </g>
   <g id="patch_13">
    <path d="M 40.246563 560.150145 
L 40.246563 398.792083 
" style="fill: none"/>
   </g>
   <g id="patch_14">
    <path d="M 505.19952 560.150145 
L 505.19952 398.792083 
" style="fill: none"/>
   </g>
   <g id="patch_15">
    <path d="M 40.246562 560.150145 
L 505.19952 560.150145 
" style="fill: none"/>
   </g>
   <g id="patch_16">
    <path d="M 40.246562 398.792083 
L 505.19952 398.792083 
" style="fill: none"/>
   </g>
   <g id="text_21">
    <!-- Cumulative Causal Impact -->
    <g style="fill: #262626" transform="translate(167.458041 392.792083) scale(0.16 -0.16)">
     <use xlink:href="#DejaVuSans-43"/>
     <use xlink:href="#DejaVuSans-75" x="69.824219"/>
     <use xlink:href="#DejaVuSans-6d" x="133.203125"/>
     <use xlink:href="#DejaVuSans-75" x="230.615234"/>
     <use xlink:href="#DejaVuSans-6c" x="293.994141"/>
     <use xlink:href="#DejaVuSans-61" x="321.777344"/>
     <use xlink:href="#DejaVuSans-74" x="383.056641"/>
     <use xlink:href="#DejaVuSans-69" x="422.265625"/>
     <use xlink:href="#DejaVuSans-76" x="450.048828"/>
     <use xlink:href="#DejaVuSans-65" x="509.228516"/>
     <use xlink:href="#DejaVuSans-20" x="570.751953"/>
     <use xlink:href="#DejaVuSans-43" x="602.539062"/>
     <use xlink:href="#DejaVuSans-61" x="672.363281"/>
     <use xlink:href="#DejaVuSans-75" x="733.642578"/>
     <use xlink:href="#DejaVuSans-73" x="797.021484"/>
     <use xlink:href="#DejaVuSans-61" x="849.121094"/>
     <use xlink:href="#DejaVuSans-6c" x="910.400391"/>
     <use xlink:href="#DejaVuSans-20" x="938.183594"/>
     <use xlink:href="#DejaVuSans-49" x="969.970703"/>
     <use xlink:href="#DejaVuSans-6d" x="999.462891"/>
     <use xlink:href="#DejaVuSans-70" x="1096.875"/>
     <use xlink:href="#DejaVuSans-61" x="1160.351562"/>
     <use xlink:href="#DejaVuSans-63" x="1221.630859"/>
     <use xlink:href="#DejaVuSans-74" x="1276.611328"/>
    </g>
   </g>
  </g>
 </g>
 <defs>
  <clipPath id="p54c8f2d762">
   <rect x="40.246563" y="27.76" width="464.952958" height="161.358062"/>
  </clipPath>
  <clipPath id="p99f055a1e8">
   <rect x="40.246563" y="213.276042" width="464.952958" height="161.358062"/>
  </clipPath>
  <clipPath id="pbd0e1fe833">
   <rect x="40.246563" y="398.792083" width="464.952958" height="161.358062"/>
  </clipPath>
 </defs>
</svg>
