<?xml version="1.0" encoding="utf-8" standalone="no"?>
<!DOCTYPE svg PUBLIC "-//W3C//DTD SVG 1.1//EN"
  "http://www.w3.org/Graphics/SVG/1.1/DTD/svg11.dtd">
<svg xmlns:xlink="http://www.w3.org/1999/xlink" width="512.39952pt" height="584.39952pt" viewBox="0 0 512.39952 584.39952" xmlns="http://www.w3.org/2000/svg" version="1.1">
 <metadata>
  <rdf:RDF xmlns:dc="http://purl.org/dc/elements/1.1/" xmlns:cc="http://creativecommons.org/ns#" xmlns:rdf="http://www.w3.org/1999/02/22-rdf-syntax-ns#">
   <cc:Work>
    <dc:type rdf:resource="http://purl.org/dc/dcmitype/StillImage"/>
    <dc:date>2022-10-28T14:16:29.815209</dc:date>
    <dc:format>image/svg+xml</dc:format>
    <dc:creator>
     <cc:Agent>
      <dc:title>Matplotlib v3.6.1, https://matplotlib.org/</dc:title>
     </cc:Agent>
    </dc:creator>
   </cc:Work>
  </rdf:RDF>
 </metadata>
 <defs>
  <style type="text/css">*{stroke-linejoin: round; stroke-linecap: butt}</style>
 </defs>
 <g id="figure_1">
  <g id="patch_1">
   <path d="M 0 584.39952 
L 512.39952 584.39952 
L 512.39952 0 
L 0 0 
z
" style="fill: #ffffff"/>
  </g>
  <g id="axes_1">
   <g id="patch_2">
    <path d="M 40.197381 189.161184 
L 505.248701 189.161184 
L 505.248701 27.716878 
L 40.197381 27.716878 
z
" style="fill: #eeeeee"/>
   </g>
   <g id="matplotlib.axis_1">
    <g id="xtick_1">
     <g id="line2d_1">
      <path d="M 61.336077 189.161184 
L 61.336077 27.716878 
" clip-path="url(#pde566df150)" style="fill: none; stroke: #ffffff; stroke-width: 0.8; stroke-linecap: round"/>
     </g>
     <g id="line2d_2"/>
    </g>
    <g id="xtick_2">
     <g id="line2d_3">
      <path d="M 146.744952 189.161184 
L 146.744952 27.716878 
" clip-path="url(#pde566df150)" style="fill: none; stroke: #ffffff; stroke-width: 0.8; stroke-linecap: round"/>
     </g>
     <g id="line2d_4"/>
    </g>
    <g id="xtick_3">
     <g id="line2d_5">
      <path d="M 232.153826 189.161184 
L 232.153826 27.716878 
" clip-path="url(#pde566df150)" style="fill: none; stroke: #ffffff; stroke-width: 0.8; stroke-linecap: round"/>
     </g>
     <g id="line2d_6"/>
    </g>
    <g id="xtick_4">
     <g id="line2d_7">
      <path d="M 317.5627 189.161184 
L 317.5627 27.716878 
" clip-path="url(#pde566df150)" style="fill: none; stroke: #ffffff; stroke-width: 0.8; stroke-linecap: round"/>
     </g>
     <g id="line2d_8"/>
    </g>
    <g id="xtick_5">
     <g id="line2d_9">
      <path d="M 402.971575 189.161184 
L 402.971575 27.716878 
" clip-path="url(#pde566df150)" style="fill: none; stroke: #ffffff; stroke-width: 0.8; stroke-linecap: round"/>
     </g>
     <g id="line2d_10"/>
    </g>
    <g id="xtick_6">
     <g id="line2d_11">
      <path d="M 488.380449 189.161184 
L 488.380449 27.716878 
" clip-path="url(#pde566df150)" style="fill: none; stroke: #ffffff; stroke-width: 0.8; stroke-linecap: round"/>
     </g>
     <g id="line2d_12"/>
    </g>
   </g>
   <g id="matplotlib.axis_2">
    <g id="ytick_1">
     <g id="line2d_13">
      <path d="M 40.197381 175.565397 
L 505.248701 175.565397 
" clip-path="url(#pde566df150)" style="fill: none; stroke: #ffffff; stroke-width: 0.8; stroke-linecap: round"/>
     </g>
     <g id="line2d_14"/>
     <g id="text_1">
      <!-- 0 -->
      <g style="fill: #262626" transform="translate(27.789881 180.884303) scale(0.14 -0.14)">
       <defs>
        <path id="DejaVuSans-30" d="M 2034 4250 
Q 1547 4250 1301 3770 
Q 1056 3291 1056 2328 
Q 1056 1369 1301 889 
Q 1547 409 2034 409 
Q 2525 409 2770 889 
Q 3016 1369 3016 2328 
Q 3016 3291 2770 3770 
Q 2525 4250 2034 4250 
z
M 2034 4750 
Q 2819 4750 3233 4129 
Q 3647 3509 3647 2328 
Q 3647 1150 3233 529 
Q 2819 -91 2034 -91 
Q 1250 -91 836 529 
Q 422 1150 422 2328 
Q 422 3509 836 4129 
Q 1250 4750 2034 4750 
z
" transform="scale(0.015625)"/>
       </defs>
       <use xlink:href="#DejaVuSans-30"/>
      </g>
     </g>
    </g>
    <g id="ytick_2">
     <g id="line2d_15">
      <path d="M 40.197381 135.711641 
L 505.248701 135.711641 
" clip-path="url(#pde566df150)" style="fill: none; stroke: #ffffff; stroke-width: 0.8; stroke-linecap: round"/>
     </g>
     <g id="line2d_16"/>
     <g id="text_2">
      <!-- 10 -->
      <g style="fill: #262626" transform="translate(18.882381 141.030547) scale(0.14 -0.14)">
       <defs>
        <path id="DejaVuSans-31" d="M 794 531 
L 1825 531 
L 1825 4091 
L 703 3866 
L 703 4441 
L 1819 4666 
L 2450 4666 
L 2450 531 
L 3481 531 
L 3481 0 
L 794 0 
L 794 531 
z
" transform="scale(0.015625)"/>
       </defs>
       <use xlink:href="#DejaVuSans-31"/>
       <use xlink:href="#DejaVuSans-30" x="63.623047"/>
      </g>
     </g>
    </g>
    <g id="ytick_3">
     <g id="line2d_17">
      <path d="M 40.197381 95.857885 
L 505.248701 95.857885 
" clip-path="url(#pde566df150)" style="fill: none; stroke: #ffffff; stroke-width: 0.8; stroke-linecap: round"/>
     </g>
     <g id="line2d_18"/>
     <g id="text_3">
      <!-- 20 -->
      <g style="fill: #262626" transform="translate(18.882381 101.176791) scale(0.14 -0.14)">
       <defs>
        <path id="DejaVuSans-32" d="M 1228 531 
L 3431 531 
L 3431 0 
L 469 0 
L 469 531 
Q 828 903 1448 1529 
Q 2069 2156 2228 2338 
Q 2531 2678 2651 2914 
Q 2772 3150 2772 3378 
Q 2772 3750 2511 3984 
Q 2250 4219 1831 4219 
Q 1534 4219 1204 4116 
Q 875 4013 500 3803 
L 500 4441 
Q 881 4594 1212 4672 
Q 1544 4750 1819 4750 
Q 2544 4750 2975 4387 
Q 3406 4025 3406 3419 
Q 3406 3131 3298 2873 
Q 3191 2616 2906 2266 
Q 2828 2175 2409 1742 
Q 1991 1309 1228 531 
z
" transform="scale(0.015625)"/>
       </defs>
       <use xlink:href="#DejaVuSans-32"/>
       <use xlink:href="#DejaVuSans-30" x="63.623047"/>
      </g>
     </g>
    </g>
    <g id="ytick_4">
     <g id="line2d_19">
      <path d="M 40.197381 56.004129 
L 505.248701 56.004129 
" clip-path="url(#pde566df150)" style="fill: none; stroke: #ffffff; stroke-width: 0.8; stroke-linecap: round"/>
     </g>
     <g id="line2d_20"/>
     <g id="text_4">
      <!-- 30 -->
      <g style="fill: #262626" transform="translate(18.882381 61.323035) scale(0.14 -0.14)">
       <defs>
        <path id="DejaVuSans-33" d="M 2597 2516 
Q 3050 2419 3304 2112 
Q 3559 1806 3559 1356 
Q 3559 666 3084 287 
Q 2609 -91 1734 -91 
Q 1441 -91 1130 -33 
Q 819 25 488 141 
L 488 750 
Q 750 597 1062 519 
Q 1375 441 1716 441 
Q 2309 441 2620 675 
Q 2931 909 2931 1356 
Q 2931 1769 2642 2001 
Q 2353 2234 1838 2234 
L 1294 2234 
L 1294 2753 
L 1863 2753 
Q 2328 2753 2575 2939 
Q 2822 3125 2822 3475 
Q 2822 3834 2567 4026 
Q 2313 4219 1838 4219 
Q 1578 4219 1281 4162 
Q 984 4106 628 3988 
L 628 4550 
Q 988 4650 1302 4700 
Q 1616 4750 1894 4750 
Q 2613 4750 3031 4423 
Q 3450 4097 3450 3541 
Q 3450 3153 3228 2886 
Q 3006 2619 2597 2516 
z
" transform="scale(0.015625)"/>
       </defs>
       <use xlink:href="#DejaVuSans-33"/>
       <use xlink:href="#DejaVuSans-30" x="63.623047"/>
      </g>
     </g>
    </g>
   </g>
   <g id="PolyCollection_1">
    <defs>
     <path id="m756909fb1d" d="M 364.537581 -472.830892 
L 364.537581 -473.445252 
L 368.808025 -473.505419 
L 373.078469 -473.872096 
L 377.348912 -474.727581 
L 381.619356 -474.933517 
L 385.8898 -475.999179 
L 390.160243 -476.57181 
L 394.430687 -477.029457 
L 398.701131 -477.540274 
L 402.971575 -479.699098 
L 407.242018 -479.376693 
L 411.512462 -480.542046 
L 415.782906 -481.001869 
L 420.053349 -483.146032 
L 424.323793 -483.324864 
L 428.594237 -484.878427 
L 432.864681 -485.813163 
L 437.135124 -487.654914 
L 441.405568 -488.564498 
L 445.676012 -490.969289 
L 449.946455 -492.18804 
L 454.216899 -493.015721 
L 458.487343 -493.811604 
L 462.757787 -496.271032 
L 467.02823 -497.63151 
L 471.298674 -499.351303 
L 475.569118 -500.145302 
L 479.839561 -501.012684 
L 484.110005 -502.242377 
L 484.110005 -503.524392 
L 484.110005 -503.524392 
L 479.839561 -501.511165 
L 475.569118 -498.437801 
L 471.298674 -498.465262 
L 467.02823 -495.331666 
L 462.757787 -496.44423 
L 458.487343 -493.440801 
L 454.216899 -494.130195 
L 449.946455 -491.092923 
L 445.676012 -490.689093 
L 441.405568 -488.619576 
L 437.135124 -485.677759 
L 432.864681 -481.658067 
L 428.594237 -480.464025 
L 424.323793 -477.493677 
L 420.053349 -473.380052 
L 415.782906 -467.197396 
L 411.512462 -462.663114 
L 407.242018 -457.54583 
L 402.971575 -453.255348 
L 398.701131 -450.722387 
L 394.430687 -451.926286 
L 390.160243 -455.660031 
L 385.8898 -461.538029 
L 381.619356 -469.302901 
L 377.348912 -473.705454 
L 373.078469 -473.526634 
L 368.808025 -473.253103 
L 364.537581 -472.830892 
z
" style="stroke: #2a2eec; stroke-opacity: 0.25"/>
    </defs>
    <g clip-path="url(#pde566df150)">
     <use xlink:href="#m756909fb1d" x="0" y="584.39952" style="fill: #2a2eec; fill-opacity: 0.25; stroke: #2a2eec; stroke-opacity: 0.25"/>
    </g>
   </g>
   <g id="line2d_21">
    <path d="M 61.336077 172.408061 
L 65.606521 170.376354 
L 69.876965 170.071581 
L 74.147409 168.251891 
L 78.417852 167.856588 
L 82.688296 165.537843 
L 86.95874 165.457862 
L 91.229183 165.412712 
L 95.499627 162.925739 
L 99.770071 165.600891 
L 104.040515 163.840992 
L 108.310958 163.491524 
L 112.581402 164.662136 
L 116.851846 163.491319 
L 121.122289 164.955954 
L 125.392733 166.901205 
L 129.663177 168.715005 
L 133.933621 169.750892 
L 138.204064 169.621794 
L 142.474508 170.592424 
L 146.744952 171.941016 
L 151.015395 171.277566 
L 155.285839 171.449993 
L 159.556283 172.119916 
L 163.826727 171.18302 
L 168.09717 170.430044 
L 172.367614 169.320358 
L 176.638058 168.609359 
L 180.908501 165.72456 
L 185.178945 163.915197 
L 189.449389 163.883933 
L 193.719833 163.703632 
L 197.990276 160.665232 
L 202.26072 159.426356 
L 206.531164 158.977652 
L 210.801607 156.033949 
L 215.072051 155.450361 
L 219.342495 154.175373 
L 223.612939 151.691679 
L 227.883382 150.428472 
L 232.153826 150.858091 
L 236.42427 149.333422 
L 240.694713 149.018583 
L 244.965157 148.334393 
L 249.235601 147.342141 
L 253.506045 147.0256 
L 257.776488 150.5158 
L 262.046932 146.200958 
L 266.317376 145.416205 
L 270.587819 143.743385 
L 274.858263 146.030613 
L 279.128707 144.36307 
L 283.399151 143.781009 
L 287.669594 142.678629 
L 291.940038 141.560281 
L 296.210482 141.661931 
L 300.480925 142.436144 
L 304.751369 143.397467 
L 309.021813 144.534721 
L 313.292257 144.73063 
L 317.5627 145.865089 
L 321.833144 146.653938 
L 326.103588 146.042642 
L 330.374031 150.847589 
L 334.644475 150.352811 
L 338.914919 151.013544 
L 343.185363 153.922144 
L 347.455806 152.312824 
L 351.72625 150.816393 
L 355.996694 150.736338 
L 360.267137 151.497468 
" clip-path="url(#pde566df150)" style="fill: none; stroke: #cccccc; stroke-width: 1.5; stroke-linecap: round"/>
   </g>
   <g id="line2d_22">
    <path d="M 61.336077 166.429924 
L 65.606521 168.34336 
L 69.876965 166.59316 
L 74.147409 169.312705 
L 78.417852 171.317793 
L 82.688296 171.540679 
L 86.95874 171.772537 
L 91.229183 170.884766 
L 95.499627 173.171694 
L 99.770071 175.357217 
L 104.040515 176.378167 
L 108.310958 177.299517 
L 112.581402 178.757387 
L 116.851846 175.454604 
L 121.122289 177.699759 
L 125.392733 177.820032 
L 129.663177 176.067387 
L 133.933621 176.013528 
L 138.204064 176.838173 
L 142.474508 177.989177 
L 146.744952 175.00441 
L 151.015395 176.640961 
L 155.285839 173.893634 
L 159.556283 174.274844 
L 163.826727 174.8379 
L 168.09717 170.927851 
L 172.367614 170.184456 
L 176.638058 168.553816 
L 180.908501 166.007415 
L 185.178945 166.204411 
L 189.449389 163.386162 
L 193.719833 163.609041 
L 197.990276 163.727569 
L 202.26072 159.823872 
L 206.531164 162.751969 
L 210.801607 160.907628 
L 215.072051 162.591839 
L 219.342495 161.827737 
L 223.612939 161.421448 
L 227.883382 161.055237 
L 232.153826 162.508032 
L 236.42427 163.205993 
L 240.694713 162.318049 
L 244.965157 160.825945 
L 249.235601 160.15575 
L 253.506045 158.811702 
L 257.776488 156.526299 
L 262.046932 153.229865 
L 266.317376 149.71383 
L 270.587819 148.475327 
L 274.858263 146.687693 
L 279.128707 144.044153 
L 283.399151 144.673272 
L 287.669594 140.739628 
L 291.940038 140.080682 
L 296.210482 137.253534 
L 300.480925 137.521626 
L 304.751369 134.865107 
L 309.021813 135.181717 
L 313.292257 132.049757 
L 317.5627 133.577223 
L 321.833144 132.40024 
L 326.103588 129.37158 
L 330.374031 127.647137 
L 334.644475 125.985428 
L 338.914919 124.151103 
L 343.185363 121.828551 
L 347.455806 120.987102 
L 351.72625 119.532974 
L 355.996694 118.512467 
L 360.267137 117.845074 
" clip-path="url(#pde566df150)" style="fill: none; stroke: #cccccc; stroke-width: 1.5; stroke-linecap: round"/>
   </g>
   <g id="line2d_23">
    <path d="M 61.336077 174.435417 
L 65.606521 175.855088 
L 69.876965 172.370495 
L 74.147409 170.009735 
L 78.417852 170.595647 
L 82.688296 169.149345 
L 86.95874 168.445167 
L 91.229183 165.128057 
L 95.499627 161.745156 
L 99.770071 162.589786 
L 104.040515 163.715011 
L 108.310958 161.968111 
L 112.581402 161.007497 
L 116.851846 160.860682 
L 121.122289 159.295968 
L 125.392733 159.120693 
L 129.663177 160.869344 
L 133.933621 157.708978 
L 138.204064 159.662882 
L 142.474508 159.175713 
L 146.744952 159.278499 
L 151.015395 159.409222 
L 155.285839 160.582237 
L 159.556283 161.699992 
L 163.826727 159.748161 
L 168.09717 159.366773 
L 172.367614 158.944382 
L 176.638058 158.885212 
L 180.908501 158.855068 
L 185.178945 159.320566 
L 189.449389 157.657097 
L 193.719833 160.352792 
L 197.990276 156.750757 
L 202.26072 155.55057 
L 206.531164 155.845466 
L 210.801607 155.301793 
L 215.072051 152.917149 
L 219.342495 151.166067 
L 223.612939 150.644252 
L 227.883382 147.444681 
L 232.153826 150.565828 
L 236.42427 148.213745 
L 240.694713 146.539349 
L 244.965157 144.922935 
L 249.235601 144.407782 
L 253.506045 143.030599 
L 257.776488 143.265805 
L 262.046932 140.794468 
L 266.317376 139.750585 
L 270.587819 138.401471 
L 274.858263 137.293399 
L 279.128707 136.207071 
L 283.399151 134.037589 
L 287.669594 132.886211 
L 291.940038 131.368059 
L 296.210482 128.850574 
L 300.480925 126.522701 
L 304.751369 126.434631 
L 309.021813 122.874303 
L 313.292257 121.392864 
L 317.5627 118.338094 
L 321.833144 117.378123 
L 326.103588 116.019487 
L 330.374031 112.852107 
L 334.644475 110.744597 
L 338.914919 109.819073 
L 343.185363 107.517046 
L 347.455806 106.328797 
L 351.72625 108.142605 
L 355.996694 103.89091 
L 360.267137 102.962852 
" clip-path="url(#pde566df150)" style="fill: none; stroke: #cccccc; stroke-width: 1.5; stroke-linecap: round"/>
   </g>
   <g id="line2d_24">
    <path d="M 61.336077 168.955649 
L 65.606521 168.433726 
L 69.876965 166.400994 
L 74.147409 164.327036 
L 78.417852 163.215815 
L 82.688296 164.044682 
L 86.95874 164.051151 
L 91.229183 163.145269 
L 95.499627 162.248995 
L 99.770071 161.42472 
L 104.040515 161.112196 
L 108.310958 158.261402 
L 112.581402 159.04054 
L 116.851846 157.115773 
L 121.122289 157.255824 
L 125.392733 155.894036 
L 129.663177 155.989837 
L 133.933621 155.593297 
L 138.204064 154.941899 
L 142.474508 153.077348 
L 146.744952 154.390701 
L 151.015395 155.235946 
L 155.285839 153.950121 
L 159.556283 153.602747 
L 163.826727 152.658924 
L 168.09717 153.578334 
L 172.367614 152.103168 
L 176.638058 151.011532 
L 180.908501 151.482152 
L 185.178945 150.651364 
L 189.449389 148.663141 
L 193.719833 147.618107 
L 197.990276 145.645293 
L 202.26072 144.836174 
L 206.531164 141.55449 
L 210.801607 140.393707 
L 215.072051 140.099102 
L 219.342495 136.143766 
L 223.612939 136.237548 
L 227.883382 135.950132 
L 232.153826 132.118014 
L 236.42427 130.219244 
L 240.694713 129.126571 
L 244.965157 129.917629 
L 249.235601 126.673113 
L 253.506045 124.704779 
L 257.776488 125.217035 
L 262.046932 121.017052 
L 266.317376 120.356741 
L 270.587819 117.440502 
L 274.858263 114.997793 
L 279.128707 115.397297 
L 283.399151 110.882964 
L 287.669594 107.793531 
L 291.940038 106.318743 
L 296.210482 105.425008 
L 300.480925 102.164445 
L 304.751369 101.153861 
L 309.021813 102.064281 
L 313.292257 99.993729 
L 317.5627 100.122821 
L 321.833144 100.281096 
L 326.103588 100.164386 
L 330.374031 102.477799 
L 334.644475 102.129769 
L 338.914919 101.220254 
L 343.185363 103.297756 
L 347.455806 104.112456 
L 351.72625 106.672381 
L 355.996694 106.853955 
L 360.267137 106.411339 
" clip-path="url(#pde566df150)" style="fill: none; stroke: #cccccc; stroke-width: 1.5; stroke-linecap: round"/>
   </g>
   <g id="line2d_25">
    <path d="M 61.336077 177.92968 
L 65.606521 176.516627 
L 69.876965 178.042304 
L 74.147409 177.722015 
L 78.417852 180.006871 
L 82.688296 180.326501 
L 86.95874 181.234873 
L 91.229183 179.815561 
L 95.499627 180.856096 
L 99.770071 181.39569 
L 104.040515 181.390471 
L 108.310958 181.798124 
L 112.581402 181.531847 
L 116.851846 181.115691 
L 121.122289 181.703154 
L 125.392733 181.822806 
L 129.663177 180.211304 
L 133.933621 177.868817 
L 138.204064 178.077114 
L 142.474508 179.099568 
L 146.744952 176.517042 
L 151.015395 176.287675 
L 155.285839 173.89467 
L 159.556283 170.877651 
L 163.826727 170.724447 
L 168.09717 165.978071 
L 172.367614 163.812636 
L 176.638058 158.378486 
L 180.908501 158.134324 
L 185.178945 156.105739 
L 189.449389 152.767392 
L 193.719833 147.893189 
L 197.990276 146.156054 
L 202.26072 144.666061 
L 206.531164 139.683238 
L 210.801607 139.497152 
L 215.072051 135.214614 
L 219.342495 131.180309 
L 223.612939 130.599529 
L 227.883382 128.217009 
L 232.153826 126.265064 
L 236.42427 123.400938 
L 240.694713 120.053577 
L 244.965157 119.725528 
L 249.235601 117.290035 
L 253.506045 113.672529 
L 257.776488 112.46657 
L 262.046932 110.644614 
L 266.317376 110.134833 
L 270.587819 107.54746 
L 274.858263 107.328036 
L 279.128707 106.250263 
L 283.399151 106.247484 
L 287.669594 104.324539 
L 291.940038 103.908186 
L 296.210482 103.901291 
L 300.480925 101.606267 
L 304.751369 100.92809 
L 309.021813 99.374598 
L 313.292257 98.971171 
L 317.5627 98.097402 
L 321.833144 97.832369 
L 326.103588 96.944354 
L 330.374031 97.186315 
L 334.644475 97.008305 
L 338.914919 93.508776 
L 343.185363 93.211098 
L 347.455806 91.118922 
L 351.72625 93.99001 
L 355.996694 91.743991 
L 360.267137 89.885504 
" clip-path="url(#pde566df150)" style="fill: none; stroke: #cccccc; stroke-width: 1.5; stroke-linecap: round"/>
   </g>
   <g id="line2d_26">
    <path d="M 61.336077 178.517824 
L 65.606521 176.886871 
L 69.876965 176.241713 
L 74.147409 171.788757 
L 78.417852 172.964966 
L 82.688296 168.805521 
L 86.95874 167.015102 
L 91.229183 165.289662 
L 95.499627 164.859133 
L 99.770071 162.697258 
L 104.040515 162.024681 
L 108.310958 160.517617 
L 112.581402 162.383377 
L 116.851846 160.593976 
L 121.122289 160.946697 
L 125.392733 161.784731 
L 129.663177 164.380997 
L 133.933621 166.12063 
L 138.204064 164.231936 
L 142.474508 165.23092 
L 146.744952 164.861468 
L 151.015395 167.083524 
L 155.285839 166.654538 
L 159.556283 165.171737 
L 163.826727 166.608049 
L 168.09717 167.527173 
L 172.367614 165.598382 
L 176.638058 167.673566 
L 180.908501 165.557668 
L 185.178945 164.569908 
L 189.449389 163.321539 
L 193.719833 163.369104 
L 197.990276 164.303224 
L 202.26072 161.530269 
L 206.531164 160.478484 
L 210.801607 160.300408 
L 215.072051 160.126256 
L 219.342495 156.582591 
L 223.612939 155.899064 
L 227.883382 154.171562 
L 232.153826 154.229517 
L 236.42427 151.726554 
L 240.694713 152.051617 
L 244.965157 149.362539 
L 249.235601 148.916944 
L 253.506045 148.211038 
L 257.776488 147.779841 
L 262.046932 149.168179 
L 266.317376 150.26988 
L 270.587819 149.611271 
L 274.858263 148.506873 
L 279.128707 152.058938 
L 283.399151 150.500114 
L 287.669594 152.159438 
L 291.940038 152.609725 
L 296.210482 153.160383 
L 300.480925 154.475767 
L 304.751369 154.349215 
L 309.021813 152.131627 
L 313.292257 153.865756 
L 317.5627 153.647004 
L 321.833144 153.43274 
L 326.103588 153.484146 
L 330.374031 153.945131 
L 334.644475 151.944194 
L 338.914919 150.336788 
L 343.185363 149.542061 
L 347.455806 151.384523 
L 351.72625 149.370456 
L 355.996694 149.01362 
L 360.267137 150.385612 
" clip-path="url(#pde566df150)" style="fill: none; stroke: #cccccc; stroke-width: 1.5; stroke-linecap: round"/>
   </g>
   <g id="line2d_27">
    <path d="M 61.336077 170.264809 
L 65.606521 171.435239 
L 69.876965 171.664294 
L 74.147409 172.786415 
L 78.417852 171.829165 
L 82.688296 173.022439 
L 86.95874 173.683211 
L 91.229183 173.336003 
L 95.499627 174.002741 
L 99.770071 172.37707 
L 104.040515 173.874712 
L 108.310958 174.939814 
L 112.581402 174.648444 
L 116.851846 175.703481 
L 121.122289 178.173787 
L 125.392733 173.005918 
L 129.663177 175.119017 
L 133.933621 175.498917 
L 138.204064 173.2099 
L 142.474508 173.120956 
L 146.744952 172.923882 
L 151.015395 171.512953 
L 155.285839 171.258468 
L 159.556283 170.246294 
L 163.826727 169.401633 
L 168.09717 167.044588 
L 172.367614 165.800972 
L 176.638058 164.42632 
L 180.908501 161.49478 
L 185.178945 158.895968 
L 189.449389 157.989799 
L 193.719833 156.082662 
L 197.990276 155.983451 
L 202.26072 154.013024 
L 206.531164 149.554279 
L 210.801607 146.27993 
L 215.072051 145.287322 
L 219.342495 143.065788 
L 223.612939 137.885376 
L 227.883382 138.068854 
L 232.153826 133.785348 
L 236.42427 129.3556 
L 240.694713 128.625382 
L 244.965157 124.519966 
L 249.235601 122.284818 
L 253.506045 119.565913 
L 257.776488 115.777356 
L 262.046932 112.430238 
L 266.317376 107.947363 
L 270.587819 106.389827 
L 274.858263 104.655532 
L 279.128707 100.940248 
L 283.399151 99.017641 
L 287.669594 94.706216 
L 291.940038 93.461043 
L 296.210482 92.87113 
L 300.480925 90.494273 
L 304.751369 88.113091 
L 309.021813 88.065368 
L 313.292257 86.559108 
L 317.5627 86.152409 
L 321.833144 83.631958 
L 326.103588 85.188749 
L 330.374031 82.039976 
L 334.644475 81.316044 
L 338.914919 82.833179 
L 343.185363 83.597083 
L 347.455806 83.363731 
L 351.72625 83.803972 
L 355.996694 84.927027 
L 360.267137 84.488799 
" clip-path="url(#pde566df150)" style="fill: none; stroke: #cccccc; stroke-width: 1.5; stroke-linecap: round"/>
   </g>
   <g id="line2d_28">
    <path d="M 364.537581 148.363593 
L 368.808025 149.395809 
L 373.078469 147.082003 
L 377.348912 146.518189 
L 381.619356 144.472185 
L 385.8898 144.881734 
L 390.160243 145.077285 
L 394.430687 143.781056 
L 398.701131 142.615474 
L 402.971575 140.050151 
L 407.242018 140.072785 
L 411.512462 139.549731 
L 415.782906 138.029742 
L 420.053349 138.864419 
L 424.323793 138.014042 
L 428.594237 138.225231 
L 432.864681 135.639163 
L 437.135124 136.271076 
L 441.405568 132.396481 
L 445.676012 131.178036 
L 449.946455 131.287277 
L 454.216899 130.641723 
L 458.487343 128.028546 
L 462.757787 125.708324 
L 467.02823 123.939193 
L 471.298674 120.134912 
L 475.569118 121.559804 
L 479.839561 119.129543 
L 484.110005 116.944844 
" clip-path="url(#pde566df150)" style="fill: none; stroke: #cccccc; stroke-width: 1.5; stroke-linecap: round"/>
   </g>
   <g id="line2d_29">
    <path d="M 364.537581 116.417684 
L 368.808025 116.01295 
L 373.078469 115.639315 
L 377.348912 115.532069 
L 381.619356 114.504471 
L 385.8898 116.010425 
L 390.160243 114.887452 
L 394.430687 115.440407 
L 398.701131 116.597432 
L 402.971575 117.518703 
L 407.242018 118.563267 
L 411.512462 120.521554 
L 415.782906 121.335187 
L 420.053349 121.158625 
L 424.323793 119.888852 
L 428.594237 123.01121 
L 432.864681 122.535323 
L 437.135124 122.14038 
L 441.405568 120.435589 
L 445.676012 119.618777 
L 449.946455 116.706868 
L 454.216899 116.037378 
L 458.487343 113.319536 
L 462.757787 110.592542 
L 467.02823 110.49284 
L 471.298674 107.601885 
L 475.569118 106.89385 
L 479.839561 103.153204 
L 484.110005 101.224985 
" clip-path="url(#pde566df150)" style="fill: none; stroke: #cccccc; stroke-width: 1.5; stroke-linecap: round"/>
   </g>
   <g id="line2d_30">
    <path d="M 364.537581 103.45613 
L 368.808025 101.473293 
L 373.078469 101.395125 
L 377.348912 97.237973 
L 381.619356 96.95671 
L 385.8898 94.548257 
L 390.160243 90.876805 
L 394.430687 89.44557 
L 398.701131 88.433868 
L 402.971575 85.161588 
L 407.242018 84.938405 
L 411.512462 81.50046 
L 415.782906 81.553856 
L 420.053349 76.765472 
L 424.323793 78.162791 
L 428.594237 74.935818 
L 432.864681 74.627608 
L 437.135124 71.317028 
L 441.405568 71.321818 
L 445.676012 69.106097 
L 449.946455 68.639135 
L 454.216899 69.247999 
L 458.487343 70.364826 
L 462.757787 68.417669 
L 467.02823 66.69514 
L 471.298674 67.005551 
L 475.569118 65.956815 
L 479.839561 66.39822 
L 484.110005 67.079888 
" clip-path="url(#pde566df150)" style="fill: none; stroke: #cccccc; stroke-width: 1.5; stroke-linecap: round"/>
   </g>
   <g id="line2d_31">
    <path d="M 364.537581 105.914179 
L 368.808025 107.998501 
L 373.078469 107.67581 
L 377.348912 106.255991 
L 381.619356 105.647236 
L 385.8898 105.672649 
L 390.160243 104.271097 
L 394.430687 103.750445 
L 398.701131 102.412055 
L 402.971575 99.620259 
L 407.242018 99.690057 
L 411.512462 95.146496 
L 415.782906 95.127773 
L 420.053349 89.452804 
L 424.323793 87.993634 
L 428.594237 85.37818 
L 432.864681 82.441703 
L 437.135124 80.674868 
L 441.405568 80.235347 
L 445.676012 79.624479 
L 449.946455 75.177869 
L 454.216899 75.781694 
L 458.487343 74.057187 
L 462.757787 72.613593 
L 467.02823 72.47077 
L 471.298674 70.845826 
L 475.569118 69.161583 
L 479.839561 70.810248 
L 484.110005 68.234524 
" clip-path="url(#pde566df150)" style="fill: none; stroke: #cccccc; stroke-width: 1.5; stroke-linecap: round"/>
   </g>
   <g id="line2d_32">
    <path d="M 364.537581 88.944027 
L 368.808025 85.509531 
L 373.078469 83.339068 
L 377.348912 85.237686 
L 381.619356 85.711584 
L 385.8898 83.350709 
L 390.160243 83.500024 
L 394.430687 81.643704 
L 398.701131 80.13401 
L 402.971575 79.729276 
L 407.242018 78.250657 
L 411.512462 80.054556 
L 415.782906 76.119275 
L 420.053349 75.803808 
L 424.323793 72.085892 
L 428.594237 70.067975 
L 432.864681 69.218712 
L 437.135124 64.853532 
L 441.405568 62.189462 
L 445.676012 58.727517 
L 449.946455 56.053676 
L 454.216899 53.156568 
L 458.487343 52.387791 
L 462.757787 47.541465 
L 467.02823 45.873595 
L 471.298674 42.49499 
L 475.569118 40.92328 
L 479.839561 37.580795 
L 484.110005 35.055255 
" clip-path="url(#pde566df150)" style="fill: none; stroke: #cccccc; stroke-width: 1.5; stroke-linecap: round"/>
   </g>
   <g id="line2d_33">
    <path d="M 364.537581 153.01397 
L 368.808025 153.887703 
L 373.078469 154.884669 
L 377.348912 155.390661 
L 381.619356 156.018821 
L 385.8898 156.757966 
L 390.160243 157.800995 
L 394.430687 160.161299 
L 398.701131 163.360022 
L 402.971575 162.268435 
L 407.242018 163.709155 
L 411.512462 162.387549 
L 415.782906 163.374277 
L 420.053349 165.764202 
L 424.323793 162.986882 
L 428.594237 162.382729 
L 432.864681 162.121263 
L 437.135124 162.634886 
L 441.405568 162.040881 
L 445.676012 159.663539 
L 449.946455 159.210905 
L 454.216899 157.681949 
L 458.487343 156.307911 
L 462.757787 153.33371 
L 467.02823 151.219096 
L 471.298674 149.493128 
L 475.569118 147.176364 
L 479.839561 145.746666 
L 484.110005 144.169975 
" clip-path="url(#pde566df150)" style="fill: none; stroke: #cccccc; stroke-width: 1.5; stroke-linecap: round"/>
   </g>
   <g id="line2d_34">
    <path d="M 364.537581 83.793465 
L 368.808025 85.241555 
L 373.078469 86.490025 
L 377.348912 87.292665 
L 381.619356 88.400621 
L 385.8898 86.729674 
L 390.160243 88.468866 
L 394.430687 89.557928 
L 398.701131 89.912271 
L 402.971575 87.528823 
L 407.242018 89.258864 
L 411.512462 89.257685 
L 415.782906 89.797917 
L 420.053349 87.411149 
L 424.323793 88.617229 
L 428.594237 86.749443 
L 432.864681 86.833654 
L 437.135124 84.658223 
L 441.405568 85.43947 
L 445.676012 80.825835 
L 449.946455 79.760626 
L 454.216899 77.498477 
L 458.487343 76.758049 
L 462.757787 73.789562 
L 467.02823 72.260152 
L 471.298674 70.523409 
L 475.569118 69.027468 
L 479.839561 68.357935 
L 484.110005 66.921374 
" clip-path="url(#pde566df150)" style="fill: none; stroke: #cccccc; stroke-width: 1.5; stroke-linecap: round"/>
   </g>
   <g id="line2d_35">
    <defs>
     <path id="mf5c9543038" d="M 0 1.5 
C 0.397805 1.5 0.77937 1.341951 1.06066 1.06066 
C 1.341951 0.77937 1.5 0.397805 1.5 0 
C 1.5 -0.397805 1.341951 -0.77937 1.06066 -1.06066 
C 0.77937 -1.341951 0.397805 -1.5 0 -1.5 
C -0.397805 -1.5 -0.77937 -1.341951 -1.06066 -1.06066 
C -1.341951 -0.77937 -1.5 -0.397805 -1.5 0 
C -1.5 0.397805 -1.341951 0.77937 -1.06066 1.06066 
C -0.77937 1.341951 -0.397805 1.5 0 1.5 
z
" style="stroke: #000000"/>
    </defs>
    <g clip-path="url(#pde566df150)">
     <use xlink:href="#mf5c9543038" x="61.336077" y="172.988875" style="stroke: #000000"/>
     <use xlink:href="#mf5c9543038" x="65.606521" y="171.251423" style="stroke: #000000"/>
     <use xlink:href="#mf5c9543038" x="69.876965" y="171.555612" style="stroke: #000000"/>
     <use xlink:href="#mf5c9543038" x="74.147409" y="170.930152" style="stroke: #000000"/>
     <use xlink:href="#mf5c9543038" x="78.417852" y="170.608077" style="stroke: #000000"/>
     <use xlink:href="#mf5c9543038" x="82.688296" y="169.63931" style="stroke: #000000"/>
     <use xlink:href="#mf5c9543038" x="86.95874" y="167.950983" style="stroke: #000000"/>
     <use xlink:href="#mf5c9543038" x="91.229183" y="168.619393" style="stroke: #000000"/>
     <use xlink:href="#mf5c9543038" x="95.499627" y="168.308023" style="stroke: #000000"/>
     <use xlink:href="#mf5c9543038" x="99.770071" y="167.755272" style="stroke: #000000"/>
     <use xlink:href="#mf5c9543038" x="104.040515" y="167.345855" style="stroke: #000000"/>
     <use xlink:href="#mf5c9543038" x="108.310958" y="166.660613" style="stroke: #000000"/>
     <use xlink:href="#mf5c9543038" x="112.581402" y="166.827541" style="stroke: #000000"/>
     <use xlink:href="#mf5c9543038" x="116.851846" y="167.951343" style="stroke: #000000"/>
     <use xlink:href="#mf5c9543038" x="121.122289" y="168.039024" style="stroke: #000000"/>
     <use xlink:href="#mf5c9543038" x="125.392733" y="168.244277" style="stroke: #000000"/>
     <use xlink:href="#mf5c9543038" x="129.663177" y="168.747526" style="stroke: #000000"/>
     <use xlink:href="#mf5c9543038" x="133.933621" y="167.517595" style="stroke: #000000"/>
     <use xlink:href="#mf5c9543038" x="138.204064" y="168.318173" style="stroke: #000000"/>
     <use xlink:href="#mf5c9543038" x="142.474508" y="166.821842" style="stroke: #000000"/>
     <use xlink:href="#mf5c9543038" x="146.744952" y="166.962571" style="stroke: #000000"/>
     <use xlink:href="#mf5c9543038" x="151.015395" y="167.201575" style="stroke: #000000"/>
     <use xlink:href="#mf5c9543038" x="155.285839" y="167.520292" style="stroke: #000000"/>
     <use xlink:href="#mf5c9543038" x="159.556283" y="165.828238" style="stroke: #000000"/>
     <use xlink:href="#mf5c9543038" x="163.826727" y="166.878359" style="stroke: #000000"/>
     <use xlink:href="#mf5c9543038" x="168.09717" y="163.427827" style="stroke: #000000"/>
     <use xlink:href="#mf5c9543038" x="172.367614" y="163.132176" style="stroke: #000000"/>
     <use xlink:href="#mf5c9543038" x="176.638058" y="162.106564" style="stroke: #000000"/>
     <use xlink:href="#mf5c9543038" x="180.908501" y="160.722893" style="stroke: #000000"/>
     <use xlink:href="#mf5c9543038" x="185.178945" y="160.526352" style="stroke: #000000"/>
     <use xlink:href="#mf5c9543038" x="189.449389" y="157.891969" style="stroke: #000000"/>
     <use xlink:href="#mf5c9543038" x="193.719833" y="158.168075" style="stroke: #000000"/>
     <use xlink:href="#mf5c9543038" x="197.990276" y="155.178812" style="stroke: #000000"/>
     <use xlink:href="#mf5c9543038" x="202.26072" y="155.203839" style="stroke: #000000"/>
     <use xlink:href="#mf5c9543038" x="206.531164" y="152.79953" style="stroke: #000000"/>
     <use xlink:href="#mf5c9543038" x="210.801607" y="150.69677" style="stroke: #000000"/>
     <use xlink:href="#mf5c9543038" x="215.072051" y="148.185214" style="stroke: #000000"/>
     <use xlink:href="#mf5c9543038" x="219.342495" y="146.766023" style="stroke: #000000"/>
     <use xlink:href="#mf5c9543038" x="223.612939" y="146.268932" style="stroke: #000000"/>
     <use xlink:href="#mf5c9543038" x="227.883382" y="144.601807" style="stroke: #000000"/>
     <use xlink:href="#mf5c9543038" x="232.153826" y="143.278214" style="stroke: #000000"/>
     <use xlink:href="#mf5c9543038" x="236.42427" y="142.130258" style="stroke: #000000"/>
     <use xlink:href="#mf5c9543038" x="240.694713" y="140.271766" style="stroke: #000000"/>
     <use xlink:href="#mf5c9543038" x="244.965157" y="136.276977" style="stroke: #000000"/>
     <use xlink:href="#mf5c9543038" x="249.235601" y="137.592728" style="stroke: #000000"/>
     <use xlink:href="#mf5c9543038" x="253.506045" y="136.661133" style="stroke: #000000"/>
     <use xlink:href="#mf5c9543038" x="257.776488" y="132.968903" style="stroke: #000000"/>
     <use xlink:href="#mf5c9543038" x="262.046932" y="132.86013" style="stroke: #000000"/>
     <use xlink:href="#mf5c9543038" x="266.317376" y="130.77426" style="stroke: #000000"/>
     <use xlink:href="#mf5c9543038" x="270.587819" y="130.257123" style="stroke: #000000"/>
     <use xlink:href="#mf5c9543038" x="274.858263" y="128.220904" style="stroke: #000000"/>
     <use xlink:href="#mf5c9543038" x="279.128707" y="125.963295" style="stroke: #000000"/>
     <use xlink:href="#mf5c9543038" x="283.399151" y="123.032625" style="stroke: #000000"/>
     <use xlink:href="#mf5c9543038" x="287.669594" y="121.268335" style="stroke: #000000"/>
     <use xlink:href="#mf5c9543038" x="291.940038" y="122.697869" style="stroke: #000000"/>
     <use xlink:href="#mf5c9543038" x="296.210482" y="121.700887" style="stroke: #000000"/>
     <use xlink:href="#mf5c9543038" x="300.480925" y="118.61905" style="stroke: #000000"/>
     <use xlink:href="#mf5c9543038" x="304.751369" y="117.559611" style="stroke: #000000"/>
     <use xlink:href="#mf5c9543038" x="309.021813" y="116.776736" style="stroke: #000000"/>
     <use xlink:href="#mf5c9543038" x="313.292257" y="116.166645" style="stroke: #000000"/>
     <use xlink:href="#mf5c9543038" x="317.5627" y="114.686557" style="stroke: #000000"/>
     <use xlink:href="#mf5c9543038" x="321.833144" y="115.022646" style="stroke: #000000"/>
     <use xlink:href="#mf5c9543038" x="326.103588" y="114.835756" style="stroke: #000000"/>
     <use xlink:href="#mf5c9543038" x="330.374031" y="113.917138" style="stroke: #000000"/>
     <use xlink:href="#mf5c9543038" x="334.644475" y="114.546189" style="stroke: #000000"/>
     <use xlink:href="#mf5c9543038" x="338.914919" y="113.984026" style="stroke: #000000"/>
     <use xlink:href="#mf5c9543038" x="343.185363" y="111.740838" style="stroke: #000000"/>
     <use xlink:href="#mf5c9543038" x="347.455806" y="112.461553" style="stroke: #000000"/>
     <use xlink:href="#mf5c9543038" x="351.72625" y="113.599706" style="stroke: #000000"/>
     <use xlink:href="#mf5c9543038" x="355.996694" y="113.949329" style="stroke: #000000"/>
     <use xlink:href="#mf5c9543038" x="360.267137" y="109.848207" style="stroke: #000000"/>
    </g>
   </g>
   <g id="line2d_36">
    <g clip-path="url(#pde566df150)">
     <use xlink:href="#mf5c9543038" x="364.537581" y="111.568628" style="stroke: #000000"/>
     <use xlink:href="#mf5c9543038" x="368.808025" y="111.146417" style="stroke: #000000"/>
     <use xlink:href="#mf5c9543038" x="373.078469" y="110.872886" style="stroke: #000000"/>
     <use xlink:href="#mf5c9543038" x="377.348912" y="110.694066" style="stroke: #000000"/>
     <use xlink:href="#mf5c9543038" x="381.619356" y="115.096619" style="stroke: #000000"/>
     <use xlink:href="#mf5c9543038" x="385.8898" y="122.861491" style="stroke: #000000"/>
     <use xlink:href="#mf5c9543038" x="390.160243" y="128.739489" style="stroke: #000000"/>
     <use xlink:href="#mf5c9543038" x="394.430687" y="132.473234" style="stroke: #000000"/>
     <use xlink:href="#mf5c9543038" x="398.701131" y="133.677133" style="stroke: #000000"/>
     <use xlink:href="#mf5c9543038" x="402.971575" y="131.144172" style="stroke: #000000"/>
     <use xlink:href="#mf5c9543038" x="407.242018" y="126.85369" style="stroke: #000000"/>
     <use xlink:href="#mf5c9543038" x="411.512462" y="121.736406" style="stroke: #000000"/>
     <use xlink:href="#mf5c9543038" x="415.782906" y="117.202124" style="stroke: #000000"/>
     <use xlink:href="#mf5c9543038" x="420.053349" y="111.019468" style="stroke: #000000"/>
     <use xlink:href="#mf5c9543038" x="424.323793" y="106.905843" style="stroke: #000000"/>
     <use xlink:href="#mf5c9543038" x="428.594237" y="103.935495" style="stroke: #000000"/>
     <use xlink:href="#mf5c9543038" x="432.864681" y="102.741453" style="stroke: #000000"/>
     <use xlink:href="#mf5c9543038" x="437.135124" y="98.721761" style="stroke: #000000"/>
     <use xlink:href="#mf5c9543038" x="441.405568" y="95.779944" style="stroke: #000000"/>
     <use xlink:href="#mf5c9543038" x="445.676012" y="93.710427" style="stroke: #000000"/>
     <use xlink:href="#mf5c9543038" x="449.946455" y="93.306597" style="stroke: #000000"/>
     <use xlink:href="#mf5c9543038" x="454.216899" y="90.269325" style="stroke: #000000"/>
     <use xlink:href="#mf5c9543038" x="458.487343" y="90.958719" style="stroke: #000000"/>
     <use xlink:href="#mf5c9543038" x="462.757787" y="87.95529" style="stroke: #000000"/>
     <use xlink:href="#mf5c9543038" x="467.02823" y="89.067854" style="stroke: #000000"/>
     <use xlink:href="#mf5c9543038" x="471.298674" y="85.934258" style="stroke: #000000"/>
     <use xlink:href="#mf5c9543038" x="475.569118" y="85.961719" style="stroke: #000000"/>
     <use xlink:href="#mf5c9543038" x="479.839561" y="82.888355" style="stroke: #000000"/>
     <use xlink:href="#mf5c9543038" x="484.110005" y="80.875128" style="stroke: #000000"/>
    </g>
   </g>
   <g id="line2d_37">
    <path d="M 61.336077 172.017435 
L 65.606521 172.121959 
L 69.876965 171.129071 
L 74.147409 170.246781 
L 78.417852 170.319564 
L 82.688296 169.847457 
L 86.95874 169.873446 
L 91.229183 168.652295 
L 95.499627 167.648173 
L 99.770071 167.936321 
L 104.040515 168.251046 
L 108.310958 167.770984 
L 112.581402 167.850241 
L 116.851846 167.42663 
L 121.122289 168.100406 
L 125.392733 167.042115 
L 129.663177 168.160594 
L 133.933621 167.450011 
L 138.204064 167.271271 
L 142.474508 167.297838 
L 146.744952 167.252294 
L 151.015395 167.018763 
L 155.285839 166.767261 
L 159.556283 166.54469 
L 163.826727 165.651123 
L 168.09717 164.31974 
L 172.367614 163.254137 
L 176.638058 162.108389 
L 180.908501 160.710652 
L 185.178945 159.549577 
L 189.449389 158.220732 
L 193.719833 157.787957 
L 197.990276 156.000741 
L 202.26072 154.518137 
L 206.531164 152.674444 
L 210.801607 150.9845 
L 215.072051 149.667438 
L 219.342495 147.520055 
L 223.612939 145.58686 
L 227.883382 144.294382 
L 232.153826 143.551981 
L 236.42427 141.094355 
L 240.694713 139.976718 
L 244.965157 138.356992 
L 249.235601 136.88554 
L 253.506045 135.183755 
L 257.776488 134.758821 
L 262.046932 131.845257 
L 266.317376 130.110817 
L 270.587819 128.468556 
L 274.858263 127.803909 
L 279.128707 126.251101 
L 283.399151 124.667167 
L 287.669594 122.499481 
L 291.940038 121.416422 
L 296.210482 120.481506 
L 300.480925 118.960828 
L 304.751369 118.236991 
L 309.021813 117.454297 
L 313.292257 116.423641 
L 317.5627 115.774868 
L 321.833144 114.997747 
L 326.103588 114.709682 
L 330.374031 114.23613 
L 334.644475 113.273654 
L 338.914919 112.969982 
L 343.185363 113.183231 
L 347.455806 112.440126 
L 351.72625 113.143934 
L 355.996694 112.114949 
L 360.267137 111.700175 
" clip-path="url(#pde566df150)" style="fill: none; stroke: #000000; stroke-width: 1.5; stroke-linecap: round"/>
   </g>
   <g id="line2d_38">
    <path d="M 364.537581 110.954268 
L 368.808025 110.894101 
L 373.078469 110.527424 
L 377.348912 109.671939 
L 381.619356 109.466003 
L 385.8898 108.400341 
L 390.160243 107.82771 
L 394.430687 107.370063 
L 398.701131 106.859246 
L 402.971575 104.700422 
L 407.242018 105.022827 
L 411.512462 103.857474 
L 415.782906 103.397651 
L 420.053349 101.253488 
L 424.323793 101.074656 
L 428.594237 99.521093 
L 432.864681 98.586357 
L 437.135124 96.744606 
L 441.405568 95.835022 
L 445.676012 93.430231 
L 449.946455 92.21148 
L 454.216899 91.383799 
L 458.487343 90.587916 
L 462.757787 88.128488 
L 467.02823 86.76801 
L 471.298674 85.048217 
L 475.569118 84.254218 
L 479.839561 83.386836 
L 484.110005 82.157143 
" clip-path="url(#pde566df150)" style="fill: none; stroke-dasharray: 1.5,2.475; stroke-dashoffset: 0; stroke: #000000; stroke-width: 1.5"/>
   </g>
   <g id="line2d_39">
    <path d="M 360.267137 189.161184 
L 360.267137 27.716878 
" clip-path="url(#pde566df150)" style="fill: none; stroke: #ff0000; stroke-width: 3; stroke-linecap: round"/>
   </g>
   <g id="patch_3">
    <path d="M 40.197381 189.161184 
L 40.197381 27.716878 
" style="fill: none"/>
   </g>
   <g id="patch_4">
    <path d="M 505.248701 189.161184 
L 505.248701 27.716878 
" style="fill: none"/>
   </g>
   <g id="patch_5">
    <path d="M 40.197381 189.161184 
L 505.248701 189.161184 
" style="fill: none"/>
   </g>
   <g id="patch_6">
    <path d="M 40.197381 27.716878 
L 505.248701 27.716878 
" style="fill: none"/>
   </g>
   <g id="text_5">
    <!-- $R^2$ on pre-intervention data = 0.998 -->
    <g style="fill: #262626" transform="translate(127.603041 21.716878) scale(0.16 -0.16)">
     <defs>
      <path id="DejaVuSans-Oblique-52" d="M 1613 4147 
L 1294 2491 
L 2106 2491 
Q 2584 2491 2879 2755 
Q 3175 3019 3175 3444 
Q 3175 3784 2976 3965 
Q 2778 4147 2406 4147 
L 1613 4147 
z
M 2772 2241 
Q 2972 2194 3105 2009 
Q 3238 1825 3413 1275 
L 3809 0 
L 3144 0 
L 2778 1197 
Q 2638 1659 2453 1815 
Q 2269 1972 1888 1972 
L 1191 1972 
L 806 0 
L 172 0 
L 1081 4666 
L 2503 4666 
Q 3150 4666 3495 4373 
Q 3841 4081 3841 3531 
Q 3841 3044 3547 2687 
Q 3253 2331 2772 2241 
z
" transform="scale(0.015625)"/>
      <path id="DejaVuSans-20" transform="scale(0.015625)"/>
      <path id="DejaVuSans-6f" d="M 1959 3097 
Q 1497 3097 1228 2736 
Q 959 2375 959 1747 
Q 959 1119 1226 758 
Q 1494 397 1959 397 
Q 2419 397 2687 759 
Q 2956 1122 2956 1747 
Q 2956 2369 2687 2733 
Q 2419 3097 1959 3097 
z
M 1959 3584 
Q 2709 3584 3137 3096 
Q 3566 2609 3566 1747 
Q 3566 888 3137 398 
Q 2709 -91 1959 -91 
Q 1206 -91 779 398 
Q 353 888 353 1747 
Q 353 2609 779 3096 
Q 1206 3584 1959 3584 
z
" transform="scale(0.015625)"/>
      <path id="DejaVuSans-6e" d="M 3513 2113 
L 3513 0 
L 2938 0 
L 2938 2094 
Q 2938 2591 2744 2837 
Q 2550 3084 2163 3084 
Q 1697 3084 1428 2787 
Q 1159 2491 1159 1978 
L 1159 0 
L 581 0 
L 581 3500 
L 1159 3500 
L 1159 2956 
Q 1366 3272 1645 3428 
Q 1925 3584 2291 3584 
Q 2894 3584 3203 3211 
Q 3513 2838 3513 2113 
z
" transform="scale(0.015625)"/>
      <path id="DejaVuSans-70" d="M 1159 525 
L 1159 -1331 
L 581 -1331 
L 581 3500 
L 1159 3500 
L 1159 2969 
Q 1341 3281 1617 3432 
Q 1894 3584 2278 3584 
Q 2916 3584 3314 3078 
Q 3713 2572 3713 1747 
Q 3713 922 3314 415 
Q 2916 -91 2278 -91 
Q 1894 -91 1617 61 
Q 1341 213 1159 525 
z
M 3116 1747 
Q 3116 2381 2855 2742 
Q 2594 3103 2138 3103 
Q 1681 3103 1420 2742 
Q 1159 2381 1159 1747 
Q 1159 1113 1420 752 
Q 1681 391 2138 391 
Q 2594 391 2855 752 
Q 3116 1113 3116 1747 
z
" transform="scale(0.015625)"/>
      <path id="DejaVuSans-72" d="M 2631 2963 
Q 2534 3019 2420 3045 
Q 2306 3072 2169 3072 
Q 1681 3072 1420 2755 
Q 1159 2438 1159 1844 
L 1159 0 
L 581 0 
L 581 3500 
L 1159 3500 
L 1159 2956 
Q 1341 3275 1631 3429 
Q 1922 3584 2338 3584 
Q 2397 3584 2469 3576 
Q 2541 3569 2628 3553 
L 2631 2963 
z
" transform="scale(0.015625)"/>
      <path id="DejaVuSans-65" d="M 3597 1894 
L 3597 1613 
L 953 1613 
Q 991 1019 1311 708 
Q 1631 397 2203 397 
Q 2534 397 2845 478 
Q 3156 559 3463 722 
L 3463 178 
Q 3153 47 2828 -22 
Q 2503 -91 2169 -91 
Q 1331 -91 842 396 
Q 353 884 353 1716 
Q 353 2575 817 3079 
Q 1281 3584 2069 3584 
Q 2775 3584 3186 3129 
Q 3597 2675 3597 1894 
z
M 3022 2063 
Q 3016 2534 2758 2815 
Q 2500 3097 2075 3097 
Q 1594 3097 1305 2825 
Q 1016 2553 972 2059 
L 3022 2063 
z
" transform="scale(0.015625)"/>
      <path id="DejaVuSans-2d" d="M 313 2009 
L 1997 2009 
L 1997 1497 
L 313 1497 
L 313 2009 
z
" transform="scale(0.015625)"/>
      <path id="DejaVuSans-69" d="M 603 3500 
L 1178 3500 
L 1178 0 
L 603 0 
L 603 3500 
z
M 603 4863 
L 1178 4863 
L 1178 4134 
L 603 4134 
L 603 4863 
z
" transform="scale(0.015625)"/>
      <path id="DejaVuSans-74" d="M 1172 4494 
L 1172 3500 
L 2356 3500 
L 2356 3053 
L 1172 3053 
L 1172 1153 
Q 1172 725 1289 603 
Q 1406 481 1766 481 
L 2356 481 
L 2356 0 
L 1766 0 
Q 1100 0 847 248 
Q 594 497 594 1153 
L 594 3053 
L 172 3053 
L 172 3500 
L 594 3500 
L 594 4494 
L 1172 4494 
z
" transform="scale(0.015625)"/>
      <path id="DejaVuSans-76" d="M 191 3500 
L 800 3500 
L 1894 563 
L 2988 3500 
L 3597 3500 
L 2284 0 
L 1503 0 
L 191 3500 
z
" transform="scale(0.015625)"/>
      <path id="DejaVuSans-64" d="M 2906 2969 
L 2906 4863 
L 3481 4863 
L 3481 0 
L 2906 0 
L 2906 525 
Q 2725 213 2448 61 
Q 2172 -91 1784 -91 
Q 1150 -91 751 415 
Q 353 922 353 1747 
Q 353 2572 751 3078 
Q 1150 3584 1784 3584 
Q 2172 3584 2448 3432 
Q 2725 3281 2906 2969 
z
M 947 1747 
Q 947 1113 1208 752 
Q 1469 391 1925 391 
Q 2381 391 2643 752 
Q 2906 1113 2906 1747 
Q 2906 2381 2643 2742 
Q 2381 3103 1925 3103 
Q 1469 3103 1208 2742 
Q 947 2381 947 1747 
z
" transform="scale(0.015625)"/>
      <path id="DejaVuSans-61" d="M 2194 1759 
Q 1497 1759 1228 1600 
Q 959 1441 959 1056 
Q 959 750 1161 570 
Q 1363 391 1709 391 
Q 2188 391 2477 730 
Q 2766 1069 2766 1631 
L 2766 1759 
L 2194 1759 
z
M 3341 1997 
L 3341 0 
L 2766 0 
L 2766 531 
Q 2569 213 2275 61 
Q 1981 -91 1556 -91 
Q 1019 -91 701 211 
Q 384 513 384 1019 
Q 384 1609 779 1909 
Q 1175 2209 1959 2209 
L 2766 2209 
L 2766 2266 
Q 2766 2663 2505 2880 
Q 2244 3097 1772 3097 
Q 1472 3097 1187 3025 
Q 903 2953 641 2809 
L 641 3341 
Q 956 3463 1253 3523 
Q 1550 3584 1831 3584 
Q 2591 3584 2966 3190 
Q 3341 2797 3341 1997 
z
" transform="scale(0.015625)"/>
      <path id="DejaVuSans-3d" d="M 678 2906 
L 4684 2906 
L 4684 2381 
L 678 2381 
L 678 2906 
z
M 678 1631 
L 4684 1631 
L 4684 1100 
L 678 1100 
L 678 1631 
z
" transform="scale(0.015625)"/>
      <path id="DejaVuSans-2e" d="M 684 794 
L 1344 794 
L 1344 0 
L 684 0 
L 684 794 
z
" transform="scale(0.015625)"/>
      <path id="DejaVuSans-39" d="M 703 97 
L 703 672 
Q 941 559 1184 500 
Q 1428 441 1663 441 
Q 2288 441 2617 861 
Q 2947 1281 2994 2138 
Q 2813 1869 2534 1725 
Q 2256 1581 1919 1581 
Q 1219 1581 811 2004 
Q 403 2428 403 3163 
Q 403 3881 828 4315 
Q 1253 4750 1959 4750 
Q 2769 4750 3195 4129 
Q 3622 3509 3622 2328 
Q 3622 1225 3098 567 
Q 2575 -91 1691 -91 
Q 1453 -91 1209 -44 
Q 966 3 703 97 
z
M 1959 2075 
Q 2384 2075 2632 2365 
Q 2881 2656 2881 3163 
Q 2881 3666 2632 3958 
Q 2384 4250 1959 4250 
Q 1534 4250 1286 3958 
Q 1038 3666 1038 3163 
Q 1038 2656 1286 2365 
Q 1534 2075 1959 2075 
z
" transform="scale(0.015625)"/>
      <path id="DejaVuSans-38" d="M 2034 2216 
Q 1584 2216 1326 1975 
Q 1069 1734 1069 1313 
Q 1069 891 1326 650 
Q 1584 409 2034 409 
Q 2484 409 2743 651 
Q 3003 894 3003 1313 
Q 3003 1734 2745 1975 
Q 2488 2216 2034 2216 
z
M 1403 2484 
Q 997 2584 770 2862 
Q 544 3141 544 3541 
Q 544 4100 942 4425 
Q 1341 4750 2034 4750 
Q 2731 4750 3128 4425 
Q 3525 4100 3525 3541 
Q 3525 3141 3298 2862 
Q 3072 2584 2669 2484 
Q 3125 2378 3379 2068 
Q 3634 1759 3634 1313 
Q 3634 634 3220 271 
Q 2806 -91 2034 -91 
Q 1263 -91 848 271 
Q 434 634 434 1313 
Q 434 1759 690 2068 
Q 947 2378 1403 2484 
z
M 1172 3481 
Q 1172 3119 1398 2916 
Q 1625 2713 2034 2713 
Q 2441 2713 2670 2916 
Q 2900 3119 2900 3481 
Q 2900 3844 2670 4047 
Q 2441 4250 2034 4250 
Q 1625 4250 1398 4047 
Q 1172 3844 1172 3481 
z
" transform="scale(0.015625)"/>
     </defs>
     <use xlink:href="#DejaVuSans-Oblique-52" transform="translate(0 0.765625)"/>
     <use xlink:href="#DejaVuSans-32" transform="translate(76.499193 39.046875) scale(0.7)"/>
     <use xlink:href="#DejaVuSans-20" transform="translate(123.769701 0.765625)"/>
     <use xlink:href="#DejaVuSans-6f" transform="translate(155.55681 0.765625)"/>
     <use xlink:href="#DejaVuSans-6e" transform="translate(216.738451 0.765625)"/>
     <use xlink:href="#DejaVuSans-20" transform="translate(280.117357 0.765625)"/>
     <use xlink:href="#DejaVuSans-70" transform="translate(311.904466 0.765625)"/>
     <use xlink:href="#DejaVuSans-72" transform="translate(375.381029 0.765625)"/>
     <use xlink:href="#DejaVuSans-65" transform="translate(416.49431 0.765625)"/>
     <use xlink:href="#DejaVuSans-2d" transform="translate(478.017747 0.765625)"/>
     <use xlink:href="#DejaVuSans-69" transform="translate(514.101732 0.765625)"/>
     <use xlink:href="#DejaVuSans-6e" transform="translate(541.884935 0.765625)"/>
     <use xlink:href="#DejaVuSans-74" transform="translate(605.263841 0.765625)"/>
     <use xlink:href="#DejaVuSans-65" transform="translate(644.472826 0.765625)"/>
     <use xlink:href="#DejaVuSans-72" transform="translate(705.996263 0.765625)"/>
     <use xlink:href="#DejaVuSans-76" transform="translate(747.109544 0.765625)"/>
     <use xlink:href="#DejaVuSans-65" transform="translate(806.289232 0.765625)"/>
     <use xlink:href="#DejaVuSans-6e" transform="translate(867.812669 0.765625)"/>
     <use xlink:href="#DejaVuSans-74" transform="translate(931.191576 0.765625)"/>
     <use xlink:href="#DejaVuSans-69" transform="translate(970.40056 0.765625)"/>
     <use xlink:href="#DejaVuSans-6f" transform="translate(998.183763 0.765625)"/>
     <use xlink:href="#DejaVuSans-6e" transform="translate(1059.365404 0.765625)"/>
     <use xlink:href="#DejaVuSans-20" transform="translate(1122.74431 0.765625)"/>
     <use xlink:href="#DejaVuSans-64" transform="translate(1154.531419 0.765625)"/>
     <use xlink:href="#DejaVuSans-61" transform="translate(1218.007982 0.765625)"/>
     <use xlink:href="#DejaVuSans-74" transform="translate(1279.287279 0.765625)"/>
     <use xlink:href="#DejaVuSans-61" transform="translate(1318.496263 0.765625)"/>
     <use xlink:href="#DejaVuSans-20" transform="translate(1379.77556 0.765625)"/>
     <use xlink:href="#DejaVuSans-3d" transform="translate(1411.562669 0.765625)"/>
     <use xlink:href="#DejaVuSans-20" transform="translate(1495.351732 0.765625)"/>
     <use xlink:href="#DejaVuSans-30" transform="translate(1527.138841 0.765625)"/>
     <use xlink:href="#DejaVuSans-2e" transform="translate(1590.761888 0.765625)"/>
     <use xlink:href="#DejaVuSans-39" transform="translate(1622.548997 0.765625)"/>
     <use xlink:href="#DejaVuSans-39" transform="translate(1686.172044 0.765625)"/>
     <use xlink:href="#DejaVuSans-38" transform="translate(1749.795091 0.765625)"/>
    </g>
   </g>
   <g id="legend_1">
    <g id="line2d_40">
     <path d="M 50.997381 43.435003 
L 62.997381 43.435003 
L 74.997381 43.435003 
" style="fill: none; stroke: #000000; stroke-width: 1.5; stroke-linecap: round"/>
    </g>
    <g id="text_6">
     <!-- model fit -->
     <g style="fill: #262626" transform="translate(84.597381 47.635003) scale(0.12 -0.12)">
      <defs>
       <path id="DejaVuSans-6d" d="M 3328 2828 
Q 3544 3216 3844 3400 
Q 4144 3584 4550 3584 
Q 5097 3584 5394 3201 
Q 5691 2819 5691 2113 
L 5691 0 
L 5113 0 
L 5113 2094 
Q 5113 2597 4934 2840 
Q 4756 3084 4391 3084 
Q 3944 3084 3684 2787 
Q 3425 2491 3425 1978 
L 3425 0 
L 2847 0 
L 2847 2094 
Q 2847 2600 2669 2842 
Q 2491 3084 2119 3084 
Q 1678 3084 1418 2786 
Q 1159 2488 1159 1978 
L 1159 0 
L 581 0 
L 581 3500 
L 1159 3500 
L 1159 2956 
Q 1356 3278 1631 3431 
Q 1906 3584 2284 3584 
Q 2666 3584 2933 3390 
Q 3200 3197 3328 2828 
z
" transform="scale(0.015625)"/>
       <path id="DejaVuSans-6c" d="M 603 4863 
L 1178 4863 
L 1178 0 
L 603 0 
L 603 4863 
z
" transform="scale(0.015625)"/>
       <path id="DejaVuSans-66" d="M 2375 4863 
L 2375 4384 
L 1825 4384 
Q 1516 4384 1395 4259 
Q 1275 4134 1275 3809 
L 1275 3500 
L 2222 3500 
L 2222 3053 
L 1275 3053 
L 1275 0 
L 697 0 
L 697 3053 
L 147 3053 
L 147 3500 
L 697 3500 
L 697 3744 
Q 697 4328 969 4595 
Q 1241 4863 1831 4863 
L 2375 4863 
z
" transform="scale(0.015625)"/>
      </defs>
      <use xlink:href="#DejaVuSans-6d"/>
      <use xlink:href="#DejaVuSans-6f" x="97.412109"/>
      <use xlink:href="#DejaVuSans-64" x="158.59375"/>
      <use xlink:href="#DejaVuSans-65" x="222.070312"/>
      <use xlink:href="#DejaVuSans-6c" x="283.59375"/>
      <use xlink:href="#DejaVuSans-20" x="311.376953"/>
      <use xlink:href="#DejaVuSans-66" x="343.164062"/>
      <use xlink:href="#DejaVuSans-69" x="378.369141"/>
      <use xlink:href="#DejaVuSans-74" x="406.152344"/>
     </g>
    </g>
    <g id="line2d_41">
     <path d="M 50.997381 61.048753 
L 62.997381 61.048753 
L 74.997381 61.048753 
" style="fill: none; stroke-dasharray: 1.5,2.475; stroke-dashoffset: 0; stroke: #000000; stroke-width: 1.5"/>
    </g>
    <g id="text_7">
     <!-- counterfactual -->
     <g style="fill: #262626" transform="translate(84.597381 65.248753) scale(0.12 -0.12)">
      <defs>
       <path id="DejaVuSans-63" d="M 3122 3366 
L 3122 2828 
Q 2878 2963 2633 3030 
Q 2388 3097 2138 3097 
Q 1578 3097 1268 2742 
Q 959 2388 959 1747 
Q 959 1106 1268 751 
Q 1578 397 2138 397 
Q 2388 397 2633 464 
Q 2878 531 3122 666 
L 3122 134 
Q 2881 22 2623 -34 
Q 2366 -91 2075 -91 
Q 1284 -91 818 406 
Q 353 903 353 1747 
Q 353 2603 823 3093 
Q 1294 3584 2113 3584 
Q 2378 3584 2631 3529 
Q 2884 3475 3122 3366 
z
" transform="scale(0.015625)"/>
       <path id="DejaVuSans-75" d="M 544 1381 
L 544 3500 
L 1119 3500 
L 1119 1403 
Q 1119 906 1312 657 
Q 1506 409 1894 409 
Q 2359 409 2629 706 
Q 2900 1003 2900 1516 
L 2900 3500 
L 3475 3500 
L 3475 0 
L 2900 0 
L 2900 538 
Q 2691 219 2414 64 
Q 2138 -91 1772 -91 
Q 1169 -91 856 284 
Q 544 659 544 1381 
z
M 1991 3584 
L 1991 3584 
z
" transform="scale(0.015625)"/>
      </defs>
      <use xlink:href="#DejaVuSans-63"/>
      <use xlink:href="#DejaVuSans-6f" x="54.980469"/>
      <use xlink:href="#DejaVuSans-75" x="116.162109"/>
      <use xlink:href="#DejaVuSans-6e" x="179.541016"/>
      <use xlink:href="#DejaVuSans-74" x="242.919922"/>
      <use xlink:href="#DejaVuSans-65" x="282.128906"/>
      <use xlink:href="#DejaVuSans-72" x="343.652344"/>
      <use xlink:href="#DejaVuSans-66" x="384.765625"/>
      <use xlink:href="#DejaVuSans-61" x="419.970703"/>
      <use xlink:href="#DejaVuSans-63" x="481.25"/>
      <use xlink:href="#DejaVuSans-74" x="536.230469"/>
      <use xlink:href="#DejaVuSans-75" x="575.439453"/>
      <use xlink:href="#DejaVuSans-61" x="638.818359"/>
      <use xlink:href="#DejaVuSans-6c" x="700.097656"/>
     </g>
    </g>
    <g id="patch_7">
     <path d="M 50.997381 82.862503 
L 74.997381 82.862503 
L 74.997381 74.462503 
L 50.997381 74.462503 
z
" style="fill: #2a2eec; fill-opacity: 0.25; stroke: #2a2eec; stroke-opacity: 0.25; stroke-linejoin: miter"/>
    </g>
    <g id="text_8">
     <!-- causal impact -->
     <g style="fill: #262626" transform="translate(84.597381 82.862503) scale(0.12 -0.12)">
      <defs>
       <path id="DejaVuSans-73" d="M 2834 3397 
L 2834 2853 
Q 2591 2978 2328 3040 
Q 2066 3103 1784 3103 
Q 1356 3103 1142 2972 
Q 928 2841 928 2578 
Q 928 2378 1081 2264 
Q 1234 2150 1697 2047 
L 1894 2003 
Q 2506 1872 2764 1633 
Q 3022 1394 3022 966 
Q 3022 478 2636 193 
Q 2250 -91 1575 -91 
Q 1294 -91 989 -36 
Q 684 19 347 128 
L 347 722 
Q 666 556 975 473 
Q 1284 391 1588 391 
Q 1994 391 2212 530 
Q 2431 669 2431 922 
Q 2431 1156 2273 1281 
Q 2116 1406 1581 1522 
L 1381 1569 
Q 847 1681 609 1914 
Q 372 2147 372 2553 
Q 372 3047 722 3315 
Q 1072 3584 1716 3584 
Q 2034 3584 2315 3537 
Q 2597 3491 2834 3397 
z
" transform="scale(0.015625)"/>
      </defs>
      <use xlink:href="#DejaVuSans-63"/>
      <use xlink:href="#DejaVuSans-61" x="54.980469"/>
      <use xlink:href="#DejaVuSans-75" x="116.259766"/>
      <use xlink:href="#DejaVuSans-73" x="179.638672"/>
      <use xlink:href="#DejaVuSans-61" x="231.738281"/>
      <use xlink:href="#DejaVuSans-6c" x="293.017578"/>
      <use xlink:href="#DejaVuSans-20" x="320.800781"/>
      <use xlink:href="#DejaVuSans-69" x="352.587891"/>
      <use xlink:href="#DejaVuSans-6d" x="380.371094"/>
      <use xlink:href="#DejaVuSans-70" x="477.783203"/>
      <use xlink:href="#DejaVuSans-61" x="541.259766"/>
      <use xlink:href="#DejaVuSans-63" x="602.539062"/>
      <use xlink:href="#DejaVuSans-74" x="657.519531"/>
     </g>
    </g>
    <g id="line2d_42">
     <path d="M 50.997381 96.276253 
L 62.997381 96.276253 
L 74.997381 96.276253 
" style="fill: none; stroke: #ff0000; stroke-width: 3; stroke-linecap: round"/>
    </g>
    <g id="text_9">
     <!-- treatment time -->
     <g style="fill: #262626" transform="translate(84.597381 100.476253) scale(0.12 -0.12)">
      <use xlink:href="#DejaVuSans-74"/>
      <use xlink:href="#DejaVuSans-72" x="39.208984"/>
      <use xlink:href="#DejaVuSans-65" x="78.072266"/>
      <use xlink:href="#DejaVuSans-61" x="139.595703"/>
      <use xlink:href="#DejaVuSans-74" x="200.875"/>
      <use xlink:href="#DejaVuSans-6d" x="240.083984"/>
      <use xlink:href="#DejaVuSans-65" x="337.496094"/>
      <use xlink:href="#DejaVuSans-6e" x="399.019531"/>
      <use xlink:href="#DejaVuSans-74" x="462.398438"/>
      <use xlink:href="#DejaVuSans-20" x="501.607422"/>
      <use xlink:href="#DejaVuSans-74" x="533.394531"/>
      <use xlink:href="#DejaVuSans-69" x="572.603516"/>
      <use xlink:href="#DejaVuSans-6d" x="600.386719"/>
      <use xlink:href="#DejaVuSans-65" x="697.798828"/>
     </g>
    </g>
   </g>
  </g>
  <g id="axes_2">
   <g id="patch_8">
    <path d="M 40.197381 374.677226 
L 505.248701 374.677226 
L 505.248701 213.232919 
L 40.197381 213.232919 
z
" style="fill: #eeeeee"/>
   </g>
   <g id="matplotlib.axis_3">
    <g id="xtick_7">
     <g id="line2d_43">
      <path d="M 61.336077 374.677226 
L 61.336077 213.232919 
" clip-path="url(#pf425ec1165)" style="fill: none; stroke: #ffffff; stroke-width: 0.8; stroke-linecap: round"/>
     </g>
     <g id="line2d_44"/>
    </g>
    <g id="xtick_8">
     <g id="line2d_45">
      <path d="M 146.744952 374.677226 
L 146.744952 213.232919 
" clip-path="url(#pf425ec1165)" style="fill: none; stroke: #ffffff; stroke-width: 0.8; stroke-linecap: round"/>
     </g>
     <g id="line2d_46"/>
    </g>
    <g id="xtick_9">
     <g id="line2d_47">
      <path d="M 232.153826 374.677226 
L 232.153826 213.232919 
" clip-path="url(#pf425ec1165)" style="fill: none; stroke: #ffffff; stroke-width: 0.8; stroke-linecap: round"/>
     </g>
     <g id="line2d_48"/>
    </g>
    <g id="xtick_10">
     <g id="line2d_49">
      <path d="M 317.5627 374.677226 
L 317.5627 213.232919 
" clip-path="url(#pf425ec1165)" style="fill: none; stroke: #ffffff; stroke-width: 0.8; stroke-linecap: round"/>
     </g>
     <g id="line2d_50"/>
    </g>
    <g id="xtick_11">
     <g id="line2d_51">
      <path d="M 402.971575 374.677226 
L 402.971575 213.232919 
" clip-path="url(#pf425ec1165)" style="fill: none; stroke: #ffffff; stroke-width: 0.8; stroke-linecap: round"/>
     </g>
     <g id="line2d_52"/>
    </g>
    <g id="xtick_12">
     <g id="line2d_53">
      <path d="M 488.380449 374.677226 
L 488.380449 213.232919 
" clip-path="url(#pf425ec1165)" style="fill: none; stroke: #ffffff; stroke-width: 0.8; stroke-linecap: round"/>
     </g>
     <g id="line2d_54"/>
    </g>
   </g>
   <g id="matplotlib.axis_4">
    <g id="ytick_5">
     <g id="line2d_55">
      <path d="M 40.197381 352.58163 
L 505.248701 352.58163 
" clip-path="url(#pf425ec1165)" style="fill: none; stroke: #ffffff; stroke-width: 0.8; stroke-linecap: round"/>
     </g>
     <g id="line2d_56"/>
     <g id="text_10">
      <!-- 6 -->
      <g style="fill: #262626" transform="translate(16.058319 357.900536) scale(0.14 -0.14)">
       <defs>
        <path id="DejaVuSans-2212" d="M 678 2272 
L 4684 2272 
L 4684 1741 
L 678 1741 
L 678 2272 
z
" transform="scale(0.015625)"/>
        <path id="DejaVuSans-36" d="M 2113 2584 
Q 1688 2584 1439 2293 
Q 1191 2003 1191 1497 
Q 1191 994 1439 701 
Q 1688 409 2113 409 
Q 2538 409 2786 701 
Q 3034 994 3034 1497 
Q 3034 2003 2786 2293 
Q 2538 2584 2113 2584 
z
M 3366 4563 
L 3366 3988 
Q 3128 4100 2886 4159 
Q 2644 4219 2406 4219 
Q 1781 4219 1451 3797 
Q 1122 3375 1075 2522 
Q 1259 2794 1537 2939 
Q 1816 3084 2150 3084 
Q 2853 3084 3261 2657 
Q 3669 2231 3669 1497 
Q 3669 778 3244 343 
Q 2819 -91 2113 -91 
Q 1303 -91 875 529 
Q 447 1150 447 2328 
Q 447 3434 972 4092 
Q 1497 4750 2381 4750 
Q 2619 4750 2861 4703 
Q 3103 4656 3366 4563 
z
" transform="scale(0.015625)"/>
       </defs>
       <use xlink:href="#DejaVuSans-2212"/>
       <use xlink:href="#DejaVuSans-36" x="83.789062"/>
      </g>
     </g>
    </g>
    <g id="ytick_6">
     <g id="line2d_57">
      <path d="M 40.197381 312.099534 
L 505.248701 312.099534 
" clip-path="url(#pf425ec1165)" style="fill: none; stroke: #ffffff; stroke-width: 0.8; stroke-linecap: round"/>
     </g>
     <g id="line2d_58"/>
     <g id="text_11">
      <!-- 4 -->
      <g style="fill: #262626" transform="translate(16.058319 317.41844) scale(0.14 -0.14)">
       <defs>
        <path id="DejaVuSans-34" d="M 2419 4116 
L 825 1625 
L 2419 1625 
L 2419 4116 
z
M 2253 4666 
L 3047 4666 
L 3047 1625 
L 3713 1625 
L 3713 1100 
L 3047 1100 
L 3047 0 
L 2419 0 
L 2419 1100 
L 313 1100 
L 313 1709 
L 2253 4666 
z
" transform="scale(0.015625)"/>
       </defs>
       <use xlink:href="#DejaVuSans-2212"/>
       <use xlink:href="#DejaVuSans-34" x="83.789062"/>
      </g>
     </g>
    </g>
    <g id="ytick_7">
     <g id="line2d_59">
      <path d="M 40.197381 271.617437 
L 505.248701 271.617437 
" clip-path="url(#pf425ec1165)" style="fill: none; stroke: #ffffff; stroke-width: 0.8; stroke-linecap: round"/>
     </g>
     <g id="line2d_60"/>
     <g id="text_12">
      <!-- 2 -->
      <g style="fill: #262626" transform="translate(16.058319 276.936343) scale(0.14 -0.14)">
       <use xlink:href="#DejaVuSans-2212"/>
       <use xlink:href="#DejaVuSans-32" x="83.789062"/>
      </g>
     </g>
    </g>
    <g id="ytick_8">
     <g id="line2d_61">
      <path d="M 40.197381 231.13534 
L 505.248701 231.13534 
" clip-path="url(#pf425ec1165)" style="fill: none; stroke: #ffffff; stroke-width: 0.8; stroke-linecap: round"/>
     </g>
     <g id="line2d_62"/>
     <g id="text_13">
      <!-- 0 -->
      <g style="fill: #262626" transform="translate(27.789881 236.454247) scale(0.14 -0.14)">
       <use xlink:href="#DejaVuSans-30"/>
      </g>
     </g>
    </g>
   </g>
   <g id="PolyCollection_2">
    <defs>
     <path id="m61541f7b02" d="M 364.537581 -353.26418 
L 364.537581 -350.143947 
L 368.808025 -351.982709 
L 373.078469 -351.509637 
L 377.348912 -348.072971 
L 381.619356 -324.667236 
L 385.8898 -279.818447 
L 390.160243 -247.056792 
L 394.430687 -225.769422 
L 398.701131 -217.060672 
L 402.971575 -218.960849 
L 407.242018 -242.388918 
L 411.512462 -262.46011 
L 415.782906 -283.153593 
L 420.053349 -303.664421 
L 424.323793 -323.648565 
L 428.594237 -330.844181 
L 432.864681 -332.161147 
L 437.135124 -343.222543 
L 441.405568 -353.543911 
L 445.676012 -351.841111 
L 449.946455 -347.70227 
L 454.216899 -358.924405 
L 458.487343 -351.380934 
L 462.757787 -354.143825 
L 467.02823 -341.583661 
L 471.298674 -348.764127 
L 475.569118 -344.592074 
L 479.839561 -355.79588 
L 484.110005 -359.775316 
L 484.110005 -353.26418 
L 484.110005 -353.26418 
L 479.839561 -353.26418 
L 475.569118 -353.26418 
L 471.298674 -353.26418 
L 467.02823 -353.26418 
L 462.757787 -353.26418 
L 458.487343 -353.26418 
L 454.216899 -353.26418 
L 449.946455 -353.26418 
L 445.676012 -353.26418 
L 441.405568 -353.26418 
L 437.135124 -353.26418 
L 432.864681 -353.26418 
L 428.594237 -353.26418 
L 424.323793 -353.26418 
L 420.053349 -353.26418 
L 415.782906 -353.26418 
L 411.512462 -353.26418 
L 407.242018 -353.26418 
L 402.971575 -353.26418 
L 398.701131 -353.26418 
L 394.430687 -353.26418 
L 390.160243 -353.26418 
L 385.8898 -353.26418 
L 381.619356 -353.26418 
L 377.348912 -353.26418 
L 373.078469 -353.26418 
L 368.808025 -353.26418 
L 364.537581 -353.26418 
z
" style="stroke: #2a2eec; stroke-opacity: 0.25"/>
    </defs>
    <g clip-path="url(#pf425ec1165)">
     <use xlink:href="#m61541f7b02" x="0" y="584.39952" style="fill: #2a2eec; fill-opacity: 0.25; stroke: #2a2eec; stroke-opacity: 0.25"/>
    </g>
   </g>
   <g id="line2d_63">
    <g clip-path="url(#pf425ec1165)">
     <use xlink:href="#mf5c9543038" x="61.336077" y="236.069117" style="stroke: #000000"/>
     <use xlink:href="#mf5c9543038" x="65.606521" y="226.714035" style="stroke: #000000"/>
     <use xlink:href="#mf5c9543038" x="69.876965" y="233.301672" style="stroke: #000000"/>
     <use xlink:href="#mf5c9543038" x="74.147409" y="234.606067" style="stroke: #000000"/>
     <use xlink:href="#mf5c9543038" x="78.417852" y="232.600645" style="stroke: #000000"/>
     <use xlink:href="#mf5c9543038" x="82.688296" y="230.078196" style="stroke: #000000"/>
     <use xlink:href="#mf5c9543038" x="86.95874" y="221.371476" style="stroke: #000000"/>
     <use xlink:href="#mf5c9543038" x="91.229183" y="230.968236" style="stroke: #000000"/>
     <use xlink:href="#mf5c9543038" x="95.499627" y="234.486609" style="stroke: #000000"/>
     <use xlink:href="#mf5c9543038" x="99.770071" y="230.215826" style="stroke: #000000"/>
     <use xlink:href="#mf5c9543038" x="104.040515" y="226.538028" style="stroke: #000000"/>
     <use xlink:href="#mf5c9543038" x="108.310958" y="225.495954" style="stroke: #000000"/>
     <use xlink:href="#mf5c9543038" x="112.581402" y="225.941216" style="stroke: #000000"/>
     <use xlink:href="#mf5c9543038" x="116.851846" y="233.800266" style="stroke: #000000"/>
     <use xlink:href="#mf5c9543038" x="121.122289" y="230.823592" style="stroke: #000000"/>
     <use xlink:href="#mf5c9543038" x="125.392733" y="237.240922" style="stroke: #000000"/>
     <use xlink:href="#mf5c9543038" x="129.663177" y="234.116269" style="stroke: #000000"/>
     <use xlink:href="#mf5c9543038" x="133.933621" y="231.478589" style="stroke: #000000"/>
     <use xlink:href="#mf5c9543038" x="138.204064" y="236.452381" style="stroke: #000000"/>
     <use xlink:href="#mf5c9543038" x="142.474508" y="228.717836" style="stroke: #000000"/>
     <use xlink:href="#mf5c9543038" x="146.744952" y="229.663889" style="stroke: #000000"/>
     <use xlink:href="#mf5c9543038" x="151.015395" y="232.063808" style="stroke: #000000"/>
     <use xlink:href="#mf5c9543038" x="155.285839" y="234.959858" style="stroke: #000000"/>
     <use xlink:href="#mf5c9543038" x="159.556283" y="227.496603" style="stroke: #000000"/>
     <use xlink:href="#mf5c9543038" x="163.826727" y="237.368265" style="stroke: #000000"/>
     <use xlink:href="#mf5c9543038" x="168.09717" y="226.605466" style="stroke: #000000"/>
     <use xlink:href="#mf5c9543038" x="172.367614" y="230.515923" style="stroke: #000000"/>
     <use xlink:href="#mf5c9543038" x="176.638058" y="231.126075" style="stroke: #000000"/>
     <use xlink:href="#mf5c9543038" x="180.908501" y="231.197512" style="stroke: #000000"/>
     <use xlink:href="#mf5c9543038" x="185.178945" y="236.096215" style="stroke: #000000"/>
     <use xlink:href="#mf5c9543038" x="189.449389" y="229.46561" style="stroke: #000000"/>
     <use xlink:href="#mf5c9543038" x="193.719833" y="233.065893" style="stroke: #000000"/>
     <use xlink:href="#mf5c9543038" x="197.990276" y="226.960902" style="stroke: #000000"/>
     <use xlink:href="#mf5c9543038" x="202.26072" y="234.617908" style="stroke: #000000"/>
     <use xlink:href="#mf5c9543038" x="206.531164" y="231.770632" style="stroke: #000000"/>
     <use xlink:href="#mf5c9543038" x="210.801607" y="229.674008" style="stroke: #000000"/>
     <use xlink:href="#mf5c9543038" x="215.072051" y="223.607377" style="stroke: #000000"/>
     <use xlink:href="#mf5c9543038" x="219.342495" y="227.305742" style="stroke: #000000"/>
     <use xlink:href="#mf5c9543038" x="223.612939" y="234.599471" style="stroke: #000000"/>
     <use xlink:href="#mf5c9543038" x="227.883382" y="232.696699" style="stroke: #000000"/>
     <use xlink:href="#mf5c9543038" x="232.153826" y="229.744923" style="stroke: #000000"/>
     <use xlink:href="#mf5c9543038" x="236.42427" y="236.396513" style="stroke: #000000"/>
     <use xlink:href="#mf5c9543038" x="240.694713" y="232.633839" style="stroke: #000000"/>
     <use xlink:href="#mf5c9543038" x="244.965157" y="220.571297" style="stroke: #000000"/>
     <use xlink:href="#mf5c9543038" x="249.235601" y="234.727027" style="stroke: #000000"/>
     <use xlink:href="#mf5c9543038" x="253.506045" y="238.638691" style="stroke: #000000"/>
     <use xlink:href="#mf5c9543038" x="257.776488" y="222.044648" style="stroke: #000000"/>
     <use xlink:href="#mf5c9543038" x="262.046932" y="236.289711" style="stroke: #000000"/>
     <use xlink:href="#mf5c9543038" x="266.317376" y="234.504856" style="stroke: #000000"/>
     <use xlink:href="#mf5c9543038" x="270.587819" y="240.21917" style="stroke: #000000"/>
     <use xlink:href="#mf5c9543038" x="274.858263" y="233.253189" style="stroke: #000000"/>
     <use xlink:href="#mf5c9543038" x="279.128707" y="229.673623" style="stroke: #000000"/>
     <use xlink:href="#mf5c9543038" x="283.399151" y="222.833781" style="stroke: #000000"/>
     <use xlink:href="#mf5c9543038" x="287.669594" y="224.882559" style="stroke: #000000"/>
     <use xlink:href="#mf5c9543038" x="291.940038" y="237.643593" style="stroke: #000000"/>
     <use xlink:href="#mf5c9543038" x="296.210482" y="237.328369" style="stroke: #000000"/>
     <use xlink:href="#mf5c9543038" x="300.480925" y="229.399508" style="stroke: #000000"/>
     <use xlink:href="#mf5c9543038" x="304.751369" y="227.695041" style="stroke: #000000"/>
     <use xlink:href="#mf5c9543038" x="309.021813" y="227.694125" style="stroke: #000000"/>
     <use xlink:href="#mf5c9543038" x="313.292257" y="229.830099" style="stroke: #000000"/>
     <use xlink:href="#mf5c9543038" x="317.5627" y="225.607996" style="stroke: #000000"/>
     <use xlink:href="#mf5c9543038" x="321.833144" y="231.261798" style="stroke: #000000"/>
     <use xlink:href="#mf5c9543038" x="326.103588" y="231.775647" style="stroke: #000000"/>
     <use xlink:href="#mf5c9543038" x="330.374031" y="229.515238" style="stroke: #000000"/>
     <use xlink:href="#mf5c9543038" x="334.644475" y="237.598327" style="stroke: #000000"/>
     <use xlink:href="#mf5c9543038" x="338.914919" y="236.285499" style="stroke: #000000"/>
     <use xlink:href="#mf5c9543038" x="343.185363" y="223.809672" style="stroke: #000000"/>
     <use xlink:href="#mf5c9543038" x="347.455806" y="231.244165" style="stroke: #000000"/>
     <use xlink:href="#mf5c9543038" x="351.72625" y="233.45013" style="stroke: #000000"/>
     <use xlink:href="#mf5c9543038" x="355.996694" y="240.451844" style="stroke: #000000"/>
     <use xlink:href="#mf5c9543038" x="360.267137" y="221.729509" style="stroke: #000000"/>
    </g>
   </g>
   <g id="line2d_64">
    <g clip-path="url(#pf425ec1165)">
     <use xlink:href="#mf5c9543038" x="364.537581" y="234.255573" style="stroke: #000000"/>
     <use xlink:href="#mf5c9543038" x="368.808025" y="232.416811" style="stroke: #000000"/>
     <use xlink:href="#mf5c9543038" x="373.078469" y="232.889883" style="stroke: #000000"/>
     <use xlink:href="#mf5c9543038" x="377.348912" y="236.326549" style="stroke: #000000"/>
     <use xlink:href="#mf5c9543038" x="381.619356" y="259.732284" style="stroke: #000000"/>
     <use xlink:href="#mf5c9543038" x="385.8898" y="304.581073" style="stroke: #000000"/>
     <use xlink:href="#mf5c9543038" x="390.160243" y="337.342728" style="stroke: #000000"/>
     <use xlink:href="#mf5c9543038" x="394.430687" y="358.630098" style="stroke: #000000"/>
     <use xlink:href="#mf5c9543038" x="398.701131" y="367.338848" style="stroke: #000000"/>
     <use xlink:href="#mf5c9543038" x="402.971575" y="365.438671" style="stroke: #000000"/>
     <use xlink:href="#mf5c9543038" x="407.242018" y="342.010602" style="stroke: #000000"/>
     <use xlink:href="#mf5c9543038" x="411.512462" y="321.93941" style="stroke: #000000"/>
     <use xlink:href="#mf5c9543038" x="415.782906" y="301.245927" style="stroke: #000000"/>
     <use xlink:href="#mf5c9543038" x="420.053349" y="280.735099" style="stroke: #000000"/>
     <use xlink:href="#mf5c9543038" x="424.323793" y="260.750955" style="stroke: #000000"/>
     <use xlink:href="#mf5c9543038" x="428.594237" y="253.555339" style="stroke: #000000"/>
     <use xlink:href="#mf5c9543038" x="432.864681" y="252.238373" style="stroke: #000000"/>
     <use xlink:href="#mf5c9543038" x="437.135124" y="241.176977" style="stroke: #000000"/>
     <use xlink:href="#mf5c9543038" x="441.405568" y="230.855609" style="stroke: #000000"/>
     <use xlink:href="#mf5c9543038" x="445.676012" y="232.558409" style="stroke: #000000"/>
     <use xlink:href="#mf5c9543038" x="449.946455" y="236.69725" style="stroke: #000000"/>
     <use xlink:href="#mf5c9543038" x="454.216899" y="225.475115" style="stroke: #000000"/>
     <use xlink:href="#mf5c9543038" x="458.487343" y="233.018586" style="stroke: #000000"/>
     <use xlink:href="#mf5c9543038" x="462.757787" y="230.255695" style="stroke: #000000"/>
     <use xlink:href="#mf5c9543038" x="467.02823" y="242.815859" style="stroke: #000000"/>
     <use xlink:href="#mf5c9543038" x="471.298674" y="235.635393" style="stroke: #000000"/>
     <use xlink:href="#mf5c9543038" x="475.569118" y="239.807446" style="stroke: #000000"/>
     <use xlink:href="#mf5c9543038" x="479.839561" y="228.60364" style="stroke: #000000"/>
     <use xlink:href="#mf5c9543038" x="484.110005" y="224.624204" style="stroke: #000000"/>
    </g>
   </g>
   <g id="line2d_65">
    <path d="M 40.197381 231.13534 
L 505.248701 231.13534 
" clip-path="url(#pf425ec1165)" style="fill: none; stroke: #000000; stroke-width: 1.5; stroke-linecap: round"/>
   </g>
   <g id="line2d_66">
    <path d="M 360.267137 374.677226 
L 360.267137 213.232919 
" clip-path="url(#pf425ec1165)" style="fill: none; stroke: #ff0000; stroke-width: 3; stroke-linecap: round"/>
   </g>
   <g id="patch_9">
    <path d="M 40.197381 374.677226 
L 40.197381 213.232919 
" style="fill: none"/>
   </g>
   <g id="patch_10">
    <path d="M 505.248701 374.677226 
L 505.248701 213.232919 
" style="fill: none"/>
   </g>
   <g id="patch_11">
    <path d="M 40.197381 374.677226 
L 505.248701 374.677226 
" style="fill: none"/>
   </g>
   <g id="patch_12">
    <path d="M 40.197381 213.232919 
L 505.248701 213.232919 
" style="fill: none"/>
   </g>
   <g id="text_14">
    <!-- Causal Impact -->
    <g style="fill: #262626" transform="translate(215.660541 207.232919) scale(0.16 -0.16)">
     <defs>
      <path id="DejaVuSans-43" d="M 4122 4306 
L 4122 3641 
Q 3803 3938 3442 4084 
Q 3081 4231 2675 4231 
Q 1875 4231 1450 3742 
Q 1025 3253 1025 2328 
Q 1025 1406 1450 917 
Q 1875 428 2675 428 
Q 3081 428 3442 575 
Q 3803 722 4122 1019 
L 4122 359 
Q 3791 134 3420 21 
Q 3050 -91 2638 -91 
Q 1578 -91 968 557 
Q 359 1206 359 2328 
Q 359 3453 968 4101 
Q 1578 4750 2638 4750 
Q 3056 4750 3426 4639 
Q 3797 4528 4122 4306 
z
" transform="scale(0.015625)"/>
      <path id="DejaVuSans-49" d="M 628 4666 
L 1259 4666 
L 1259 0 
L 628 0 
L 628 4666 
z
" transform="scale(0.015625)"/>
     </defs>
     <use xlink:href="#DejaVuSans-43"/>
     <use xlink:href="#DejaVuSans-61" x="69.824219"/>
     <use xlink:href="#DejaVuSans-75" x="131.103516"/>
     <use xlink:href="#DejaVuSans-73" x="194.482422"/>
     <use xlink:href="#DejaVuSans-61" x="246.582031"/>
     <use xlink:href="#DejaVuSans-6c" x="307.861328"/>
     <use xlink:href="#DejaVuSans-20" x="335.644531"/>
     <use xlink:href="#DejaVuSans-49" x="367.431641"/>
     <use xlink:href="#DejaVuSans-6d" x="396.923828"/>
     <use xlink:href="#DejaVuSans-70" x="494.335938"/>
     <use xlink:href="#DejaVuSans-61" x="557.8125"/>
     <use xlink:href="#DejaVuSans-63" x="619.091797"/>
     <use xlink:href="#DejaVuSans-74" x="674.072266"/>
    </g>
   </g>
  </g>
  <g id="axes_3">
   <g id="patch_13">
    <path d="M 40.197381 560.193267 
L 505.248701 560.193267 
L 505.248701 398.748961 
L 40.197381 398.748961 
z
" style="fill: #eeeeee"/>
   </g>
   <g id="matplotlib.axis_5">
    <g id="xtick_13">
     <g id="line2d_67">
      <path d="M 61.336077 560.193267 
L 61.336077 398.748961 
" clip-path="url(#p35b40543ee)" style="fill: none; stroke: #ffffff; stroke-width: 0.8; stroke-linecap: round"/>
     </g>
     <g id="line2d_68"/>
     <g id="text_15">
      <!-- 0 -->
      <g style="fill: #262626" transform="translate(56.882327 574.33108) scale(0.14 -0.14)">
       <use xlink:href="#DejaVuSans-30"/>
      </g>
     </g>
    </g>
    <g id="xtick_14">
     <g id="line2d_69">
      <path d="M 146.744952 560.193267 
L 146.744952 398.748961 
" clip-path="url(#p35b40543ee)" style="fill: none; stroke: #ffffff; stroke-width: 0.8; stroke-linecap: round"/>
     </g>
     <g id="line2d_70"/>
     <g id="text_16">
      <!-- 20 -->
      <g style="fill: #262626" transform="translate(137.837452 574.33108) scale(0.14 -0.14)">
       <use xlink:href="#DejaVuSans-32"/>
       <use xlink:href="#DejaVuSans-30" x="63.623047"/>
      </g>
     </g>
    </g>
    <g id="xtick_15">
     <g id="line2d_71">
      <path d="M 232.153826 560.193267 
L 232.153826 398.748961 
" clip-path="url(#p35b40543ee)" style="fill: none; stroke: #ffffff; stroke-width: 0.8; stroke-linecap: round"/>
     </g>
     <g id="line2d_72"/>
     <g id="text_17">
      <!-- 40 -->
      <g style="fill: #262626" transform="translate(223.246326 574.33108) scale(0.14 -0.14)">
       <use xlink:href="#DejaVuSans-34"/>
       <use xlink:href="#DejaVuSans-30" x="63.623047"/>
      </g>
     </g>
    </g>
    <g id="xtick_16">
     <g id="line2d_73">
      <path d="M 317.5627 560.193267 
L 317.5627 398.748961 
" clip-path="url(#p35b40543ee)" style="fill: none; stroke: #ffffff; stroke-width: 0.8; stroke-linecap: round"/>
     </g>
     <g id="line2d_74"/>
     <g id="text_18">
      <!-- 60 -->
      <g style="fill: #262626" transform="translate(308.6552 574.33108) scale(0.14 -0.14)">
       <use xlink:href="#DejaVuSans-36"/>
       <use xlink:href="#DejaVuSans-30" x="63.623047"/>
      </g>
     </g>
    </g>
    <g id="xtick_17">
     <g id="line2d_75">
      <path d="M 402.971575 560.193267 
L 402.971575 398.748961 
" clip-path="url(#p35b40543ee)" style="fill: none; stroke: #ffffff; stroke-width: 0.8; stroke-linecap: round"/>
     </g>
     <g id="line2d_76"/>
     <g id="text_19">
      <!-- 80 -->
      <g style="fill: #262626" transform="translate(394.064075 574.33108) scale(0.14 -0.14)">
       <use xlink:href="#DejaVuSans-38"/>
       <use xlink:href="#DejaVuSans-30" x="63.623047"/>
      </g>
     </g>
    </g>
    <g id="xtick_18">
     <g id="line2d_77">
      <path d="M 488.380449 560.193267 
L 488.380449 398.748961 
" clip-path="url(#p35b40543ee)" style="fill: none; stroke: #ffffff; stroke-width: 0.8; stroke-linecap: round"/>
     </g>
     <g id="line2d_78"/>
     <g id="text_20">
      <!-- 100 -->
      <g style="fill: #262626" transform="translate(475.019199 574.33108) scale(0.14 -0.14)">
       <use xlink:href="#DejaVuSans-31"/>
       <use xlink:href="#DejaVuSans-30" x="63.623047"/>
       <use xlink:href="#DejaVuSans-30" x="127.246094"/>
      </g>
     </g>
    </g>
   </g>
   <g id="matplotlib.axis_6">
    <g id="ytick_9">
     <g id="line2d_79">
      <path d="M 40.197381 519.258331 
L 505.248701 519.258331 
" clip-path="url(#p35b40543ee)" style="fill: none; stroke: #ffffff; stroke-width: 0.8; stroke-linecap: round"/>
     </g>
     <g id="line2d_80"/>
     <g id="text_21">
      <!-- 40 -->
      <g style="fill: #262626" transform="translate(7.150819 524.577237) scale(0.14 -0.14)">
       <use xlink:href="#DejaVuSans-2212"/>
       <use xlink:href="#DejaVuSans-34" x="83.789062"/>
       <use xlink:href="#DejaVuSans-30" x="147.412109"/>
      </g>
     </g>
    </g>
    <g id="ytick_10">
     <g id="line2d_81">
      <path d="M 40.197381 462.45392 
L 505.248701 462.45392 
" clip-path="url(#p35b40543ee)" style="fill: none; stroke: #ffffff; stroke-width: 0.8; stroke-linecap: round"/>
     </g>
     <g id="line2d_82"/>
     <g id="text_22">
      <!-- 20 -->
      <g style="fill: #262626" transform="translate(7.150819 467.772826) scale(0.14 -0.14)">
       <use xlink:href="#DejaVuSans-2212"/>
       <use xlink:href="#DejaVuSans-32" x="83.789062"/>
       <use xlink:href="#DejaVuSans-30" x="147.412109"/>
      </g>
     </g>
    </g>
    <g id="ytick_11">
     <g id="line2d_83">
      <path d="M 40.197381 405.649508 
L 505.248701 405.649508 
" clip-path="url(#p35b40543ee)" style="fill: none; stroke: #ffffff; stroke-width: 0.8; stroke-linecap: round"/>
     </g>
     <g id="line2d_84"/>
     <g id="text_23">
      <!-- 0 -->
      <g style="fill: #262626" transform="translate(27.789881 410.968414) scale(0.14 -0.14)">
       <use xlink:href="#DejaVuSans-30"/>
      </g>
     </g>
    </g>
   </g>
   <g id="line2d_85">
    <path d="M 364.537581 406.087339 
L 368.808025 406.267154 
L 373.078469 406.513352 
L 377.348912 407.241781 
L 381.619356 411.2545 
L 385.8898 421.560393 
L 390.160243 436.463396 
L 394.430687 454.353439 
L 398.701131 473.465493 
L 402.971575 492.310914 
L 407.242018 507.868913 
L 411.512462 520.610525 
L 415.782906 530.448431 
L 420.053349 537.408261 
L 424.323793 541.563919 
L 428.594237 544.709889 
L 432.864681 547.671063 
L 437.135124 549.080104 
L 441.405568 549.040852 
L 445.676012 549.240537 
L 449.946455 550.020983 
L 454.216899 549.226741 
L 458.487343 549.490998 
L 462.757787 549.367566 
L 467.02823 551.006575 
L 471.298674 551.638021 
L 475.569118 552.85489 
L 479.839561 552.499642 
L 484.110005 551.586 
" clip-path="url(#p35b40543ee)" style="fill: none; stroke: #000000; stroke-width: 1.5; stroke-linecap: round"/>
   </g>
   <g id="line2d_86">
    <path d="M 40.197381 405.649508 
L 505.248701 405.649508 
" clip-path="url(#p35b40543ee)" style="fill: none; stroke: #000000; stroke-width: 1.5; stroke-linecap: round"/>
   </g>
   <g id="line2d_87">
    <path d="M 360.267137 560.193267 
L 360.267137 398.748961 
" clip-path="url(#p35b40543ee)" style="fill: none; stroke: #ff0000; stroke-width: 3; stroke-linecap: round"/>
   </g>
   <g id="patch_14">
    <path d="M 40.197381 560.193267 
L 40.197381 398.748961 
" style="fill: none"/>
   </g>
   <g id="patch_15">
    <path d="M 505.248701 560.193267 
L 505.248701 398.748961 
" style="fill: none"/>
   </g>
   <g id="patch_16">
    <path d="M 40.197381 560.193267 
L 505.248701 560.193267 
" style="fill: none"/>
   </g>
   <g id="patch_17">
    <path d="M 40.197381 398.748961 
L 505.248701 398.748961 
" style="fill: none"/>
   </g>
   <g id="text_24">
    <!-- Cumulative Causal Impact -->
    <g style="fill: #262626" transform="translate(167.458041 392.748961) scale(0.16 -0.16)">
     <use xlink:href="#DejaVuSans-43"/>
     <use xlink:href="#DejaVuSans-75" x="69.824219"/>
     <use xlink:href="#DejaVuSans-6d" x="133.203125"/>
     <use xlink:href="#DejaVuSans-75" x="230.615234"/>
     <use xlink:href="#DejaVuSans-6c" x="293.994141"/>
     <use xlink:href="#DejaVuSans-61" x="321.777344"/>
     <use xlink:href="#DejaVuSans-74" x="383.056641"/>
     <use xlink:href="#DejaVuSans-69" x="422.265625"/>
     <use xlink:href="#DejaVuSans-76" x="450.048828"/>
     <use xlink:href="#DejaVuSans-65" x="509.228516"/>
     <use xlink:href="#DejaVuSans-20" x="570.751953"/>
     <use xlink:href="#DejaVuSans-43" x="602.539062"/>
     <use xlink:href="#DejaVuSans-61" x="672.363281"/>
     <use xlink:href="#DejaVuSans-75" x="733.642578"/>
     <use xlink:href="#DejaVuSans-73" x="797.021484"/>
     <use xlink:href="#DejaVuSans-61" x="849.121094"/>
     <use xlink:href="#DejaVuSans-6c" x="910.400391"/>
     <use xlink:href="#DejaVuSans-20" x="938.183594"/>
     <use xlink:href="#DejaVuSans-49" x="969.970703"/>
     <use xlink:href="#DejaVuSans-6d" x="999.462891"/>
     <use xlink:href="#DejaVuSans-70" x="1096.875"/>
     <use xlink:href="#DejaVuSans-61" x="1160.351562"/>
     <use xlink:href="#DejaVuSans-63" x="1221.630859"/>
     <use xlink:href="#DejaVuSans-74" x="1276.611328"/>
    </g>
   </g>
  </g>
 </g>
 <defs>
  <clipPath id="pde566df150">
   <rect x="40.197381" y="27.716878" width="465.05132" height="161.444306"/>
  </clipPath>
  <clipPath id="pf425ec1165">
   <rect x="40.197381" y="213.232919" width="465.05132" height="161.444306"/>
  </clipPath>
  <clipPath id="p35b40543ee">
   <rect x="40.197381" y="398.748961" width="465.05132" height="161.444306"/>
  </clipPath>
 </defs>
</svg>
