<?xml version="1.0" encoding="utf-8" standalone="no"?>
<!DOCTYPE svg PUBLIC "-//W3C//DTD SVG 1.1//EN"
  "http://www.w3.org/Graphics/SVG/1.1/DTD/svg11.dtd">
<svg xmlns:xlink="http://www.w3.org/1999/xlink" width="512.39952pt" height="584.39952pt" viewBox="0 0 512.39952 584.39952" xmlns="http://www.w3.org/2000/svg" version="1.1">
 <metadata>
  <rdf:RDF xmlns:dc="http://purl.org/dc/elements/1.1/" xmlns:cc="http://creativecommons.org/ns#" xmlns:rdf="http://www.w3.org/1999/02/22-rdf-syntax-ns#">
   <cc:Work>
    <dc:type rdf:resource="http://purl.org/dc/dcmitype/StillImage"/>
    <dc:date>2022-10-28T18:55:45.092914</dc:date>
    <dc:format>image/svg+xml</dc:format>
    <dc:creator>
     <cc:Agent>
      <dc:title>Matplotlib v3.6.1, https://matplotlib.org/</dc:title>
     </cc:Agent>
    </dc:creator>
   </cc:Work>
  </rdf:RDF>
 </metadata>
 <defs>
  <style type="text/css">*{stroke-linejoin: round; stroke-linecap: butt}</style>
 </defs>
 <g id="figure_1">
  <g id="patch_1">
   <path d="M 0 584.39952
L 512.39952 584.39952
L 512.39952 0
L 0 0
z
" style="fill: #ffffff"/>
  </g>
  <g id="axes_1">
   <g id="patch_2">
    <path d="M 40.197381 189.161184
L 505.248701 189.161184
L 505.248701 27.716878
L 40.197381 27.716878
z
" style="fill: #eeeeee"/>
   </g>
   <g id="matplotlib.axis_1">
    <g id="xtick_1">
     <g id="line2d_1">
      <path d="M 61.336077 189.161184
L 61.336077 27.716878
" clip-path="url(#p1fe1fee3fb)" style="fill: none; stroke: #ffffff; stroke-width: 0.8; stroke-linecap: round"/>
     </g>
     <g id="line2d_2"/>
    </g>
    <g id="xtick_2">
     <g id="line2d_3">
      <path d="M 146.744952 189.161184
L 146.744952 27.716878
" clip-path="url(#p1fe1fee3fb)" style="fill: none; stroke: #ffffff; stroke-width: 0.8; stroke-linecap: round"/>
     </g>
     <g id="line2d_4"/>
    </g>
    <g id="xtick_3">
     <g id="line2d_5">
      <path d="M 232.153826 189.161184
L 232.153826 27.716878
" clip-path="url(#p1fe1fee3fb)" style="fill: none; stroke: #ffffff; stroke-width: 0.8; stroke-linecap: round"/>
     </g>
     <g id="line2d_6"/>
    </g>
    <g id="xtick_4">
     <g id="line2d_7">
      <path d="M 317.5627 189.161184
L 317.5627 27.716878
" clip-path="url(#p1fe1fee3fb)" style="fill: none; stroke: #ffffff; stroke-width: 0.8; stroke-linecap: round"/>
     </g>
     <g id="line2d_8"/>
    </g>
    <g id="xtick_5">
     <g id="line2d_9">
      <path d="M 402.971575 189.161184
L 402.971575 27.716878
" clip-path="url(#p1fe1fee3fb)" style="fill: none; stroke: #ffffff; stroke-width: 0.8; stroke-linecap: round"/>
     </g>
     <g id="line2d_10"/>
    </g>
    <g id="xtick_6">
     <g id="line2d_11">
      <path d="M 488.380449 189.161184
L 488.380449 27.716878
" clip-path="url(#p1fe1fee3fb)" style="fill: none; stroke: #ffffff; stroke-width: 0.8; stroke-linecap: round"/>
     </g>
     <g id="line2d_12"/>
    </g>
   </g>
   <g id="matplotlib.axis_2">
    <g id="ytick_1">
     <g id="line2d_13">
      <path d="M 40.197381 162.135428
L 505.248701 162.135428
" clip-path="url(#p1fe1fee3fb)" style="fill: none; stroke: #ffffff; stroke-width: 0.8; stroke-linecap: round"/>
     </g>
     <g id="line2d_14"/>
     <g id="text_1">
      <!-- 0 -->
      <g style="fill: #262626" transform="translate(27.789881 167.454335) scale(0.14 -0.14)">
       <defs>
        <path id="DejaVuSans-30" d="M 2034 4250
Q 1547 4250 1301 3770
Q 1056 3291 1056 2328
Q 1056 1369 1301 889
Q 1547 409 2034 409
Q 2525 409 2770 889
Q 3016 1369 3016 2328
Q 3016 3291 2770 3770
Q 2525 4250 2034 4250
z
M 2034 4750
Q 2819 4750 3233 4129
Q 3647 3509 3647 2328
Q 3647 1150 3233 529
Q 2819 -91 2034 -91
Q 1250 -91 836 529
Q 422 1150 422 2328
Q 422 3509 836 4129
Q 1250 4750 2034 4750
z
" transform="scale(0.015625)"/>
       </defs>
       <use xlink:href="#DejaVuSans-30"/>
      </g>
     </g>
    </g>
    <g id="ytick_2">
     <g id="line2d_15">
      <path d="M 40.197381 122.317443
L 505.248701 122.317443
" clip-path="url(#p1fe1fee3fb)" style="fill: none; stroke: #ffffff; stroke-width: 0.8; stroke-linecap: round"/>
     </g>
     <g id="line2d_16"/>
     <g id="text_2">
      <!-- 10 -->
      <g style="fill: #262626" transform="translate(18.882381 127.63635) scale(0.14 -0.14)">
       <defs>
        <path id="DejaVuSans-31" d="M 794 531
L 1825 531
L 1825 4091
L 703 3866
L 703 4441
L 1819 4666
L 2450 4666
L 2450 531
L 3481 531
L 3481 0
L 794 0
L 794 531
z
" transform="scale(0.015625)"/>
       </defs>
       <use xlink:href="#DejaVuSans-31"/>
       <use xlink:href="#DejaVuSans-30" x="63.623047"/>
      </g>
     </g>
    </g>
    <g id="ytick_3">
     <g id="line2d_17">
      <path d="M 40.197381 82.499459
L 505.248701 82.499459
" clip-path="url(#p1fe1fee3fb)" style="fill: none; stroke: #ffffff; stroke-width: 0.8; stroke-linecap: round"/>
     </g>
     <g id="line2d_18"/>
     <g id="text_3">
      <!-- 20 -->
      <g style="fill: #262626" transform="translate(18.882381 87.818365) scale(0.14 -0.14)">
       <defs>
        <path id="DejaVuSans-32" d="M 1228 531
L 3431 531
L 3431 0
L 469 0
L 469 531
Q 828 903 1448 1529
Q 2069 2156 2228 2338
Q 2531 2678 2651 2914
Q 2772 3150 2772 3378
Q 2772 3750 2511 3984
Q 2250 4219 1831 4219
Q 1534 4219 1204 4116
Q 875 4013 500 3803
L 500 4441
Q 881 4594 1212 4672
Q 1544 4750 1819 4750
Q 2544 4750 2975 4387
Q 3406 4025 3406 3419
Q 3406 3131 3298 2873
Q 3191 2616 2906 2266
Q 2828 2175 2409 1742
Q 1991 1309 1228 531
z
" transform="scale(0.015625)"/>
       </defs>
       <use xlink:href="#DejaVuSans-32"/>
       <use xlink:href="#DejaVuSans-30" x="63.623047"/>
      </g>
     </g>
    </g>
    <g id="ytick_4">
     <g id="line2d_19">
      <path d="M 40.197381 42.681474
L 505.248701 42.681474
" clip-path="url(#p1fe1fee3fb)" style="fill: none; stroke: #ffffff; stroke-width: 0.8; stroke-linecap: round"/>
     </g>
     <g id="line2d_20"/>
     <g id="text_4">
      <!-- 30 -->
      <g style="fill: #262626" transform="translate(18.882381 48.00038) scale(0.14 -0.14)">
       <defs>
        <path id="DejaVuSans-33" d="M 2597 2516
Q 3050 2419 3304 2112
Q 3559 1806 3559 1356
Q 3559 666 3084 287
Q 2609 -91 1734 -91
Q 1441 -91 1130 -33
Q 819 25 488 141
L 488 750
Q 750 597 1062 519
Q 1375 441 1716 441
Q 2309 441 2620 675
Q 2931 909 2931 1356
Q 2931 1769 2642 2001
Q 2353 2234 1838 2234
L 1294 2234
L 1294 2753
L 1863 2753
Q 2328 2753 2575 2939
Q 2822 3125 2822 3475
Q 2822 3834 2567 4026
Q 2313 4219 1838 4219
Q 1578 4219 1281 4162
Q 984 4106 628 3988
L 628 4550
Q 988 4650 1302 4700
Q 1616 4750 1894 4750
Q 2613 4750 3031 4423
Q 3450 4097 3450 3541
Q 3450 3153 3228 2886
Q 3006 2619 2597 2516
z
" transform="scale(0.015625)"/>
       </defs>
       <use xlink:href="#DejaVuSans-33"/>
       <use xlink:href="#DejaVuSans-30" x="63.623047"/>
      </g>
     </g>
    </g>
   </g>
   <g id="PolyCollection_1">
    <defs>
     <path id="m639e6aea36" d="M 364.537581 -476.40767
L 364.537581 -477.541312
L 368.808025 -477.108229
L 373.078469 -480.095593
L 377.348912 -481.811775
L 381.619356 -481.931134
L 385.8898 -484.467916
L 390.160243 -486.189412
L 394.430687 -488.480976
L 398.701131 -489.40199
L 402.971575 -492.285914
L 407.242018 -493.272944
L 411.512462 -494.945196
L 415.782906 -496.867159
L 420.053349 -498.832503
L 424.323793 -499.867419
L 428.594237 -501.595022
L 432.864681 -502.364333
L 437.135124 -503.92365
L 441.405568 -504.38575
L 445.676012 -505.8821
L 449.946455 -506.452407
L 454.216899 -508.57339
L 458.487343 -508.838429
L 462.757787 -509.923836
L 467.02823 -511.161759
L 471.298674 -510.776043
L 475.569118 -511.694629
L 479.839561 -513.044274
L 484.110005 -514.834087
L 484.110005 -513.495711
L 484.110005 -513.495711
L 479.839561 -512.988379
L 475.569118 -512.806984
L 471.298674 -510.766795
L 467.02823 -509.847696
L 462.757787 -509.4638
L 458.487343 -507.970908
L 454.216899 -507.205449
L 449.946455 -506.857748
L 445.676012 -506.277203
L 441.405568 -503.58631
L 437.135124 -502.050229
L 432.864681 -500.30082
L 428.594237 -497.620246
L 424.323793 -494.733802
L 420.053349 -489.042876
L 415.782906 -484.917563
L 411.512462 -478.466755
L 407.242018 -473.226644
L 402.971575 -465.100374
L 398.701131 -463.116038
L 394.430687 -461.165118
L 390.160243 -465.169946
L 385.8898 -469.486261
L 381.619356 -474.13997
L 377.348912 -476.966316
L 373.078469 -480.155744
L 368.808025 -479.088703
L 364.537581 -476.40767
z
" style="stroke: #2a2eec; stroke-opacity: 0.25"/>
    </defs>
    <g clip-path="url(#p1fe1fee3fb)">
     <use xlink:href="#m639e6aea36" x="0" y="584.39952" style="fill: #2a2eec; fill-opacity: 0.25; stroke: #2a2eec; stroke-opacity: 0.25"/>
    </g>
   </g>
   <g id="line2d_21">
    <path d="M 61.336077 158.976932
L 65.606521 154.801363
L 69.876965 150.719204
L 74.147409 150.92167
L 78.417852 146.74495
L 82.688296 142.695172
L 86.95874 139.486678
L 91.229183 132.525823
L 95.499627 133.266353
L 99.770071 129.536629
L 104.040515 124.192091
L 108.310958 122.352747
L 112.581402 118.538097
L 116.851846 115.902182
L 121.122289 111.440047
L 125.392733 109.049762
L 129.663177 107.526272
L 133.933621 104.491272
L 138.204064 102.883712
L 142.474508 100.819868
L 146.744952 100.230521
L 151.015395 98.775166
L 155.285839 96.926215
L 159.556283 99.277098
L 163.826727 99.038992
L 168.09717 99.709447
L 172.367614 99.148589
L 176.638058 101.462727
L 180.908501 98.092686
L 185.178945 103.00627
L 189.449389 104.426258
L 193.719833 103.85779
L 197.990276 105.215014
L 202.26072 108.902982
L 206.531164 108.805436
L 210.801607 112.184896
L 215.072051 114.212484
L 219.342495 115.497247
L 223.612939 116.842875
L 227.883382 118.828798
L 232.153826 120.28347
L 236.42427 121.41046
L 240.694713 124.014926
L 244.965157 122.894325
L 249.235601 121.915314
L 253.506045 123.855731
L 257.776488 125.594297
L 262.046932 123.365296
L 266.317376 124.021366
L 270.587819 124.375785
L 274.858263 122.269835
L 279.128707 123.350755
L 283.399151 123.065253
L 287.669594 122.424807
L 291.940038 122.545016
L 296.210482 121.777634
L 300.480925 122.997831
L 304.751369 120.282969
L 309.021813 120.316586
L 313.292257 117.796443
L 317.5627 118.044714
L 321.833144 116.230032
L 326.103588 113.849709
L 330.374031 112.879874
L 334.644475 109.767087
L 338.914919 107.488712
L 343.185363 102.727226
L 347.455806 100.988149
L 351.72625 98.210626
L 355.996694 98.790032
L 360.267137 98.563137
" clip-path="url(#p1fe1fee3fb)" style="fill: none; stroke: #cccccc; stroke-width: 1.5; stroke-linecap: round"/>
   </g>
   <g id="line2d_22">
    <path d="M 61.336077 157.049622
L 65.606521 157.416725
L 69.876965 154.478602
L 74.147409 152.481328
L 78.417852 152.743761
L 82.688296 148.537718
L 86.95874 150.443646
L 91.229183 148.069634
L 95.499627 148.424765
L 99.770071 146.315829
L 104.040515 146.248793
L 108.310958 145.717781
L 112.581402 146.968549
L 116.851846 146.043521
L 121.122289 143.595439
L 125.392733 143.804949
L 129.663177 143.671162
L 133.933621 143.201959
L 138.204064 142.027111
L 142.474508 141.207944
L 146.744952 139.28429
L 151.015395 136.524631
L 155.285839 136.447873
L 159.556283 135.535658
L 163.826727 137.404744
L 168.09717 135.151408
L 172.367614 135.419287
L 176.638058 136.258111
L 180.908501 136.961113
L 185.178945 136.227982
L 189.449389 137.014325
L 193.719833 135.555671
L 197.990276 137.435995
L 202.26072 135.773118
L 206.531164 135.825097
L 210.801607 136.162941
L 215.072051 133.714129
L 219.342495 131.915204
L 223.612939 131.342424
L 227.883382 130.372156
L 232.153826 126.428609
L 236.42427 123.86699
L 240.694713 125.345737
L 244.965157 121.666348
L 249.235601 120.501691
L 253.506045 120.125864
L 257.776488 116.955685
L 262.046932 115.801317
L 266.317376 115.688106
L 270.587819 112.788279
L 274.858263 114.750097
L 279.128707 114.261366
L 283.399151 111.818767
L 287.669594 111.407485
L 291.940038 113.099023
L 296.210482 111.836997
L 300.480925 109.830347
L 304.751369 109.42279
L 309.021813 109.986257
L 313.292257 106.929836
L 317.5627 106.700365
L 321.833144 107.006619
L 326.103588 101.587684
L 330.374031 101.230421
L 334.644475 99.707985
L 338.914919 97.858244
L 343.185363 94.131926
L 347.455806 91.373644
L 351.72625 88.545392
L 355.996694 86.284496
L 360.267137 87.728488
" clip-path="url(#p1fe1fee3fb)" style="fill: none; stroke: #cccccc; stroke-width: 1.5; stroke-linecap: round"/>
   </g>
   <g id="line2d_23">
    <path d="M 61.336077 162.356046
L 65.606521 163.017093
L 69.876965 162.745851
L 74.147409 161.128455
L 78.417852 160.894812
L 82.688296 157.670417
L 86.95874 157.912366
L 91.229183 157.163085
L 95.499627 155.986839
L 99.770071 156.945032
L 104.040515 153.134747
L 108.310958 154.588269
L 112.581402 154.469471
L 116.851846 154.726859
L 121.122289 153.531819
L 125.392733 154.665675
L 129.663177 155.222119
L 133.933621 152.150941
L 138.204064 152.566583
L 142.474508 150.808227
L 146.744952 149.622276
L 151.015395 148.30354
L 155.285839 147.58749
L 159.556283 146.591495
L 163.826727 145.444583
L 168.09717 143.979676
L 172.367614 143.43003
L 176.638058 142.978063
L 180.908501 141.43605
L 185.178945 141.675591
L 189.449389 141.224445
L 193.719833 139.816244
L 197.990276 141.207268
L 202.26072 142.257083
L 206.531164 140.50998
L 210.801607 141.687303
L 215.072051 141.516044
L 219.342495 141.683375
L 223.612939 144.07209
L 227.883382 144.992482
L 232.153826 146.172722
L 236.42427 147.483741
L 240.694713 151.210432
L 244.965157 152.425955
L 249.235601 153.254091
L 253.506045 155.114134
L 257.776488 155.35666
L 262.046932 158.491348
L 266.317376 157.869514
L 270.587819 159.065256
L 274.858263 158.322727
L 279.128707 158.573561
L 283.399151 158.310977
L 287.669594 159.746553
L 291.940038 157.324273
L 296.210482 156.312451
L 300.480925 156.27073
L 304.751369 154.198364
L 309.021813 154.341446
L 313.292257 153.12309
L 317.5627 150.706233
L 321.833144 148.529616
L 326.103588 148.400805
L 330.374031 146.94278
L 334.644475 142.061228
L 338.914919 140.938815
L 343.185363 137.423942
L 347.455806 135.058277
L 351.72625 135.333268
L 355.996694 133.390304
L 360.267137 133.134849
" clip-path="url(#p1fe1fee3fb)" style="fill: none; stroke: #cccccc; stroke-width: 1.5; stroke-linecap: round"/>
   </g>
   <g id="line2d_24">
    <path d="M 61.336077 165.287161
L 65.606521 167.832473
L 69.876965 167.825526
L 74.147409 167.154592
L 78.417852 171.665615
L 82.688296 172.342513
L 86.95874 173.419376
L 91.229183 173.611441
L 95.499627 172.1965
L 99.770071 174.962109
L 104.040515 172.474332
L 108.310958 174.140339
L 112.581402 175.1245
L 116.851846 174.206534
L 121.122289 172.430334
L 125.392733 170.75109
L 129.663177 168.604742
L 133.933621 165.24142
L 138.204064 163.045914
L 142.474508 158.971802
L 146.744952 157.388704
L 151.015395 155.215662
L 155.285839 153.698781
L 159.556283 151.524481
L 163.826727 150.340389
L 168.09717 149.090049
L 172.367614 149.293031
L 176.638058 147.38867
L 180.908501 149.22558
L 185.178945 146.966976
L 189.449389 145.977599
L 193.719833 149.158621
L 197.990276 147.247192
L 202.26072 147.321057
L 206.531164 144.73168
L 210.801607 145.613429
L 215.072051 145.709185
L 219.342495 145.178053
L 223.612939 143.556531
L 227.883382 142.723573
L 232.153826 142.620786
L 236.42427 139.535393
L 240.694713 139.210823
L 244.965157 137.477473
L 249.235601 137.401959
L 253.506045 136.14043
L 257.776488 134.378387
L 262.046932 134.892484
L 266.317376 133.839249
L 270.587819 136.126318
L 274.858263 133.906732
L 279.128707 134.9603
L 283.399151 133.991014
L 287.669594 134.018631
L 291.940038 132.341541
L 296.210482 132.212688
L 300.480925 131.385648
L 304.751369 134.995135
L 309.021813 135.377132
L 313.292257 131.848043
L 317.5627 129.496038
L 321.833144 129.531231
L 326.103588 129.05414
L 330.374031 129.837088
L 334.644475 127.017513
L 338.914919 128.349296
L 343.185363 128.053197
L 347.455806 126.167651
L 351.72625 128.133784
L 355.996694 124.686004
L 360.267137 123.922615
" clip-path="url(#p1fe1fee3fb)" style="fill: none; stroke: #cccccc; stroke-width: 1.5; stroke-linecap: round"/>
   </g>
   <g id="line2d_25">
    <path d="M 61.336077 157.854318
L 65.606521 157.841844
L 69.876965 156.433267
L 74.147409 154.414878
L 78.417852 154.260563
L 82.688296 151.359317
L 86.95874 150.400296
L 91.229183 150.380445
L 95.499627 148.354546
L 99.770071 146.547007
L 104.040515 145.865759
L 108.310958 144.552785
L 112.581402 144.780423
L 116.851846 143.452984
L 121.122289 142.562212
L 125.392733 142.218137
L 129.663177 142.061228
L 133.933621 141.464275
L 138.204064 140.768348
L 142.474508 141.318248
L 146.744952 140.943028
L 151.015395 139.482634
L 155.285839 137.93787
L 159.556283 135.25602
L 163.826727 132.346681
L 168.09717 133.184934
L 172.367614 130.660176
L 176.638058 126.107706
L 180.908501 124.401173
L 185.178945 121.955345
L 189.449389 121.064435
L 193.719833 117.675536
L 197.990276 116.323882
L 202.26072 113.707683
L 206.531164 111.455309
L 210.801607 110.65603
L 215.072051 108.687794
L 219.342495 105.476959
L 223.612939 103.048909
L 227.883382 102.573672
L 232.153826 102.300453
L 236.42427 99.124619
L 240.694713 99.224355
L 244.965157 96.803594
L 249.235601 95.434181
L 253.506045 95.056858
L 257.776488 94.444005
L 262.046932 91.986851
L 266.317376 91.672761
L 270.587819 89.176182
L 274.858263 87.203933
L 279.128707 88.449936
L 283.399151 83.97544
L 287.669594 83.373369
L 291.940038 80.07792
L 296.210482 77.172546
L 300.480925 78.078891
L 304.751369 75.059522
L 309.021813 73.430691
L 313.292257 71.408853
L 317.5627 71.585775
L 321.833144 72.23167
L 326.103588 70.209051
L 330.374031 71.052988
L 334.644475 69.121267
L 338.914919 67.913013
L 343.185363 67.281533
L 347.455806 67.858946
L 351.72625 68.402716
L 355.996694 69.004722
L 360.267137 68.16178
" clip-path="url(#p1fe1fee3fb)" style="fill: none; stroke: #cccccc; stroke-width: 1.5; stroke-linecap: round"/>
   </g>
   <g id="line2d_26">
    <path d="M 61.336077 158.880772
L 65.606521 158.591191
L 69.876965 156.339926
L 74.147409 153.8191
L 78.417852 151.176913
L 82.688296 149.747024
L 86.95874 147.868895
L 91.229183 144.547104
L 95.499627 142.967988
L 99.770071 141.910975
L 104.040515 138.503279
L 108.310958 137.341779
L 112.581402 134.876612
L 116.851846 135.045277
L 121.122289 131.063672
L 125.392733 132.161616
L 129.663177 129.564972
L 133.933621 128.180836
L 138.204064 125.242211
L 142.474508 127.74774
L 146.744952 125.224952
L 151.015395 125.514245
L 155.285839 124.796593
L 159.556283 124.757574
L 163.826727 121.454841
L 168.09717 122.49842
L 172.367614 123.698051
L 176.638058 120.56672
L 180.908501 120.431601
L 185.178945 117.632414
L 189.449389 117.824038
L 193.719833 115.847428
L 197.990276 115.844333
L 202.26072 113.683133
L 206.531164 113.635936
L 210.801607 112.375001
L 215.072051 113.439172
L 219.342495 115.194438
L 223.612939 112.979419
L 227.883382 113.607635
L 232.153826 113.769875
L 236.42427 114.793649
L 240.694713 115.132617
L 244.965157 114.09417
L 249.235601 114.781479
L 253.506045 117.458223
L 257.776488 116.285568
L 262.046932 113.433357
L 266.317376 115.02568
L 270.587819 114.943166
L 274.858263 114.505682
L 279.128707 114.266893
L 283.399151 114.067572
L 287.669594 112.828196
L 291.940038 112.608913
L 296.210482 114.420905
L 300.480925 110.069042
L 304.751369 111.73119
L 309.021813 110.457938
L 313.292257 110.928423
L 317.5627 108.520211
L 321.833144 105.076092
L 326.103588 104.23448
L 330.374031 104.758518
L 334.644475 101.629554
L 338.914919 100.610619
L 343.185363 100.954576
L 347.455806 96.648819
L 351.72625 94.842183
L 355.996694 94.899929
L 360.267137 92.493869
" clip-path="url(#p1fe1fee3fb)" style="fill: none; stroke: #cccccc; stroke-width: 1.5; stroke-linecap: round"/>
   </g>
   <g id="line2d_27">
    <path d="M 61.336077 172.518081
L 65.606521 174.511254
L 69.876965 174.674526
L 74.147409 176.323376
L 78.417852 176.135395
L 82.688296 178.402676
L 86.95874 180.442118
L 91.229183 178.297654
L 95.499627 178.977591
L 99.770071 181.822806
L 104.040515 181.404247
L 108.310958 180.057516
L 112.581402 177.006911
L 116.851846 176.726641
L 121.122289 174.614676
L 125.392733 173.837989
L 129.663177 172.475769
L 133.933621 169.371542
L 138.204064 168.392697
L 142.474508 165.290076
L 146.744952 165.170949
L 151.015395 163.175298
L 155.285839 162.414821
L 159.556283 162.327356
L 163.826727 160.444575
L 168.09717 160.568853
L 172.367614 158.043387
L 176.638058 156.987388
L 180.908501 153.875793
L 185.178945 153.308781
L 189.449389 150.70444
L 193.719833 150.886106
L 197.990276 148.898779
L 202.26072 149.085313
L 206.531164 147.497937
L 210.801607 146.191526
L 215.072051 145.280868
L 219.342495 145.109015
L 223.612939 146.932609
L 227.883382 146.231653
L 232.153826 146.958444
L 236.42427 147.200791
L 240.694713 147.658188
L 244.965157 147.708643
L 249.235601 150.197364
L 253.506045 150.644313
L 257.776488 153.113957
L 262.046932 151.649403
L 266.317376 155.543929
L 270.587819 154.319937
L 274.858263 156.905408
L 279.128707 155.390225
L 283.399151 155.181594
L 287.669594 157.572933
L 291.940038 157.506137
L 296.210482 156.166604
L 300.480925 155.079687
L 304.751369 153.067522
L 309.021813 153.23757
L 313.292257 150.343016
L 317.5627 148.766487
L 321.833144 148.992524
L 326.103588 146.158468
L 330.374031 144.006046
L 334.644475 142.334524
L 338.914919 141.18348
L 343.185363 135.997806
L 347.455806 135.518785
L 351.72625 132.321998
L 355.996694 131.230134
L 360.267137 128.401714
" clip-path="url(#p1fe1fee3fb)" style="fill: none; stroke: #cccccc; stroke-width: 1.5; stroke-linecap: round"/>
   </g>
   <g id="line2d_28">
    <path d="M 364.537581 95.495426
L 368.808025 96.110674
L 373.078469 93.003995
L 377.348912 89.278114
L 381.619356 88.714747
L 385.8898 86.272097
L 390.160243 81.680177
L 394.430687 78.811018
L 398.701131 78.233848
L 402.971575 72.342446
L 407.242018 71.709831
L 411.512462 69.860457
L 415.782906 66.668709
L 420.053349 62.72722
L 424.323793 63.708844
L 428.594237 62.045375
L 432.864681 63.448999
L 437.135124 63.339217
L 441.405568 65.082426
L 445.676012 64.377081
L 449.946455 63.409884
L 454.216899 62.82346
L 458.487343 60.959218
L 462.757787 62.364045
L 467.02823 61.889951
L 471.298674 62.729561
L 475.569118 62.256183
L 479.839561 62.24484
L 484.110005 59.188582
" clip-path="url(#p1fe1fee3fb)" style="fill: none; stroke: #cccccc; stroke-width: 1.5; stroke-linecap: round"/>
   </g>
   <g id="line2d_29">
    <path d="M 364.537581 82.415487
L 368.808025 79.020154
L 373.078469 79.429686
L 377.348912 76.688093
L 381.619356 76.280622
L 385.8898 72.530012
L 390.160243 70.530963
L 394.430687 67.785478
L 398.701131 66.265254
L 402.971575 64.416691
L 407.242018 63.326769
L 411.512462 61.185508
L 415.782906 60.534125
L 420.053349 57.849457
L 424.323793 55.704846
L 428.594237 55.358121
L 432.864681 56.682198
L 437.135124 57.398913
L 441.405568 56.612312
L 445.676012 55.905416
L 449.946455 55.109293
L 454.216899 55.538566
L 458.487343 54.618151
L 462.757787 55.221307
L 467.02823 54.682607
L 471.298674 54.869297
L 475.569118 57.058416
L 479.839561 54.001254
L 484.110005 53.709028
" clip-path="url(#p1fe1fee3fb)" style="fill: none; stroke: #cccccc; stroke-width: 1.5; stroke-linecap: round"/>
   </g>
   <g id="line2d_30">
    <path d="M 364.537581 131.36955
L 368.808025 132.919988
L 373.078469 128.618718
L 377.348912 127.543538
L 381.619356 128.57584
L 385.8898 125.025647
L 390.160243 125.110303
L 394.430687 123.263542
L 398.701131 124.142262
L 402.971575 122.040558
L 407.242018 120.291551
L 411.512462 120.313088
L 415.782906 120.485095
L 420.053349 119.425856
L 424.323793 118.435205
L 428.594237 117.35744
L 432.864681 116.407615
L 437.135124 113.257499
L 441.405568 112.804862
L 445.676012 110.37378
L 449.946455 111.89424
L 454.216899 107.16372
L 458.487343 108.878346
L 462.757787 106.865311
L 467.02823 104.465439
L 471.298674 104.65049
L 475.569118 103.866196
L 479.839561 101.895192
L 484.110005 102.918402
" clip-path="url(#p1fe1fee3fb)" style="fill: none; stroke: #cccccc; stroke-width: 1.5; stroke-linecap: round"/>
   </g>
   <g id="line2d_31">
    <path d="M 364.537581 123.817651
L 368.808025 126.796959
L 373.078469 123.770638
L 377.348912 123.017442
L 381.619356 126.008012
L 385.8898 124.713511
L 390.160243 125.523236
L 394.430687 124.845999
L 398.701131 122.657975
L 402.971575 124.652129
L 407.242018 122.767064
L 411.512462 123.860053
L 415.782906 123.364786
L 420.053349 123.537356
L 424.323793 121.468273
L 428.594237 120.466229
L 432.864681 120.098997
L 437.135124 118.628085
L 441.405568 116.527421
L 445.676012 113.797861
L 449.946455 111.248572
L 454.216899 108.509604
L 458.487343 104.467782
L 462.757787 102.906057
L 467.02823 99.254003
L 471.298674 97.609955
L 475.569118 94.559
L 479.839561 91.348508
L 484.110005 88.523856
" clip-path="url(#p1fe1fee3fb)" style="fill: none; stroke: #cccccc; stroke-width: 1.5; stroke-linecap: round"/>
   </g>
   <g id="line2d_32">
    <path d="M 364.537581 68.895294
L 368.808025 67.5309
L 373.078469 67.226817
L 377.348912 64.792861
L 381.619356 64.807368
L 385.8898 62.443133
L 390.160243 58.4501
L 394.430687 57.419232
L 398.701131 55.91532
L 402.971575 51.56577
L 407.242018 52.125271
L 411.512462 47.1856
L 415.782906 43.015992
L 420.053349 42.537439
L 424.323793 40.052156
L 428.594237 38.109413
L 432.864681 37.982312
L 437.135124 37.073487
L 441.405568 36.143785
L 445.676012 36.482033
L 449.946455 37.646916
L 454.216899 35.055255
L 458.487343 37.273694
L 462.757787 38.289289
L 467.02823 37.202141
L 471.298674 37.588124
L 475.569118 38.648294
L 479.839561 39.107274
L 484.110005 39.409907
" clip-path="url(#p1fe1fee3fb)" style="fill: none; stroke: #cccccc; stroke-width: 1.5; stroke-linecap: round"/>
   </g>
   <g id="line2d_33">
    <path d="M 364.537581 90.418185
L 368.808025 89.592567
L 373.078469 87.423879
L 377.348912 87.618702
L 381.619356 86.138013
L 385.8898 84.918128
L 390.160243 84.14781
L 394.430687 82.097262
L 398.701131 78.757029
L 402.971575 77.224007
L 407.242018 76.949372
L 411.512462 72.598872
L 415.782906 69.437295
L 420.053349 68.748233
L 424.323793 65.57101
L 428.594237 61.967662
L 432.864681 58.008653
L 437.135124 56.133121
L 441.405568 53.141097
L 445.676012 52.045675
L 449.946455 50.049011
L 454.216899 48.089269
L 458.487343 49.074086
L 462.757787 45.485609
L 467.02823 45.29297
L 471.298674 45.774609
L 475.569118 43.692267
L 479.839561 42.043234
L 484.110005 38.3373
" clip-path="url(#p1fe1fee3fb)" style="fill: none; stroke: #cccccc; stroke-width: 1.5; stroke-linecap: round"/>
   </g>
   <g id="line2d_34">
    <path d="M 364.537581 124.938846
L 368.808025 124.955144
L 373.078469 122.227861
L 377.348912 121.291141
L 381.619356 119.991305
L 385.8898 115.876329
L 390.160243 116.02168
L 394.430687 111.375434
L 398.701131 111.013936
L 402.971575 110.81687
L 407.242018 109.384066
L 411.512462 109.20721
L 415.782906 105.627205
L 420.053349 103.238185
L 424.323793 100.637026
L 428.594237 101.344378
L 432.864681 98.472366
L 437.135124 94.621208
L 441.405568 93.27123
L 445.676012 89.790377
L 449.946455 88.076482
L 454.216899 88.776358
L 458.487343 85.688521
L 462.757787 82.983815
L 467.02823 80.139851
L 471.298674 81.026493
L 475.569118 80.417072
L 479.839561 78.871558
L 484.110005 76.618157
" clip-path="url(#p1fe1fee3fb)" style="fill: none; stroke: #cccccc; stroke-width: 1.5; stroke-linecap: round"/>
   </g>
   <g id="line2d_35">
    <defs>
     <path id="mbbae3abc5e" d="M 0 1.5
C 0.397805 1.5 0.77937 1.341951 1.06066 1.06066
C 1.341951 0.77937 1.5 0.397805 1.5 0
C 1.5 -0.397805 1.341951 -0.77937 1.06066 -1.06066
C 0.77937 -1.341951 0.397805 -1.5 0 -1.5
C -0.397805 -1.5 -0.77937 -1.341951 -1.06066 -1.06066
C -1.341951 -0.77937 -1.5 -0.397805 -1.5 0
C -1.5 0.397805 -1.341951 0.77937 -1.06066 1.06066
C -0.77937 1.341951 -0.397805 1.5 0 1.5
z
" style="stroke: #000000"/>
    </defs>
    <g clip-path="url(#p1fe1fee3fb)">
     <use xlink:href="#mbbae3abc5e" x="61.336077" y="160.54953" style="stroke: #000000"/>
     <use xlink:href="#mbbae3abc5e" x="65.606521" y="160.177801" style="stroke: #000000"/>
     <use xlink:href="#mbbae3abc5e" x="69.876965" y="157.22854" style="stroke: #000000"/>
     <use xlink:href="#mbbae3abc5e" x="74.147409" y="155.473901" style="stroke: #000000"/>
     <use xlink:href="#mbbae3abc5e" x="78.417852" y="155.063994" style="stroke: #000000"/>
     <use xlink:href="#mbbae3abc5e" x="82.688296" y="152.429431" style="stroke: #000000"/>
     <use xlink:href="#mbbae3abc5e" x="86.95874" y="150.328916" style="stroke: #000000"/>
     <use xlink:href="#mbbae3abc5e" x="91.229183" y="149.231331" style="stroke: #000000"/>
     <use xlink:href="#mbbae3abc5e" x="95.499627" y="146.853412" style="stroke: #000000"/>
     <use xlink:href="#mbbae3abc5e" x="99.770071" y="145.366871" style="stroke: #000000"/>
     <use xlink:href="#mbbae3abc5e" x="104.040515" y="143.366243" style="stroke: #000000"/>
     <use xlink:href="#mbbae3abc5e" x="108.310958" y="142.445154" style="stroke: #000000"/>
     <use xlink:href="#mbbae3abc5e" x="112.581402" y="138.962514" style="stroke: #000000"/>
     <use xlink:href="#mbbae3abc5e" x="116.851846" y="137.807011" style="stroke: #000000"/>
     <use xlink:href="#mbbae3abc5e" x="121.122289" y="137.164334" style="stroke: #000000"/>
     <use xlink:href="#mbbae3abc5e" x="125.392733" y="134.390665" style="stroke: #000000"/>
     <use xlink:href="#mbbae3abc5e" x="129.663177" y="132.865439" style="stroke: #000000"/>
     <use xlink:href="#mbbae3abc5e" x="133.933621" y="132.739848" style="stroke: #000000"/>
     <use xlink:href="#mbbae3abc5e" x="138.204064" y="132.386584" style="stroke: #000000"/>
     <use xlink:href="#mbbae3abc5e" x="142.474508" y="129.478559" style="stroke: #000000"/>
     <use xlink:href="#mbbae3abc5e" x="146.744952" y="128.753316" style="stroke: #000000"/>
     <use xlink:href="#mbbae3abc5e" x="151.015395" y="127.047615" style="stroke: #000000"/>
     <use xlink:href="#mbbae3abc5e" x="155.285839" y="128.106061" style="stroke: #000000"/>
     <use xlink:href="#mbbae3abc5e" x="159.556283" y="127.035152" style="stroke: #000000"/>
     <use xlink:href="#mbbae3abc5e" x="163.826727" y="124.225142" style="stroke: #000000"/>
     <use xlink:href="#mbbae3abc5e" x="168.09717" y="125.373919" style="stroke: #000000"/>
     <use xlink:href="#mbbae3abc5e" x="172.367614" y="123.208811" style="stroke: #000000"/>
     <use xlink:href="#mbbae3abc5e" x="176.638058" y="125.142786" style="stroke: #000000"/>
     <use xlink:href="#mbbae3abc5e" x="180.908501" y="124.143955" style="stroke: #000000"/>
     <use xlink:href="#mbbae3abc5e" x="185.178945" y="124.505244" style="stroke: #000000"/>
     <use xlink:href="#mbbae3abc5e" x="189.449389" y="122.553899" style="stroke: #000000"/>
     <use xlink:href="#mbbae3abc5e" x="193.719833" y="124.427384" style="stroke: #000000"/>
     <use xlink:href="#mbbae3abc5e" x="197.990276" y="123.861641" style="stroke: #000000"/>
     <use xlink:href="#mbbae3abc5e" x="202.26072" y="124.046876" style="stroke: #000000"/>
     <use xlink:href="#mbbae3abc5e" x="206.531164" y="124.922697" style="stroke: #000000"/>
     <use xlink:href="#mbbae3abc5e" x="210.801607" y="126.421633" style="stroke: #000000"/>
     <use xlink:href="#mbbae3abc5e" x="215.072051" y="125.605174" style="stroke: #000000"/>
     <use xlink:href="#mbbae3abc5e" x="219.342495" y="126.718238" style="stroke: #000000"/>
     <use xlink:href="#mbbae3abc5e" x="223.612939" y="128.861624" style="stroke: #000000"/>
     <use xlink:href="#mbbae3abc5e" x="227.883382" y="128.361736" style="stroke: #000000"/>
     <use xlink:href="#mbbae3abc5e" x="232.153826" y="128.112449" style="stroke: #000000"/>
     <use xlink:href="#mbbae3abc5e" x="236.42427" y="129.429819" style="stroke: #000000"/>
     <use xlink:href="#mbbae3abc5e" x="240.694713" y="130.699325" style="stroke: #000000"/>
     <use xlink:href="#mbbae3abc5e" x="244.965157" y="131.433866" style="stroke: #000000"/>
     <use xlink:href="#mbbae3abc5e" x="249.235601" y="131.301008" style="stroke: #000000"/>
     <use xlink:href="#mbbae3abc5e" x="253.506045" y="133.794582" style="stroke: #000000"/>
     <use xlink:href="#mbbae3abc5e" x="257.776488" y="132.496787" style="stroke: #000000"/>
     <use xlink:href="#mbbae3abc5e" x="262.046932" y="134.337315" style="stroke: #000000"/>
     <use xlink:href="#mbbae3abc5e" x="266.317376" y="134.245861" style="stroke: #000000"/>
     <use xlink:href="#mbbae3abc5e" x="270.587819" y="131.559515" style="stroke: #000000"/>
     <use xlink:href="#mbbae3abc5e" x="274.858263" y="131.78099" style="stroke: #000000"/>
     <use xlink:href="#mbbae3abc5e" x="279.128707" y="132.719128" style="stroke: #000000"/>
     <use xlink:href="#mbbae3abc5e" x="283.399151" y="131.618826" style="stroke: #000000"/>
     <use xlink:href="#mbbae3abc5e" x="287.669594" y="131.734308" style="stroke: #000000"/>
     <use xlink:href="#mbbae3abc5e" x="291.940038" y="131.44291" style="stroke: #000000"/>
     <use xlink:href="#mbbae3abc5e" x="296.210482" y="131.616773" style="stroke: #000000"/>
     <use xlink:href="#mbbae3abc5e" x="300.480925" y="130.499154" style="stroke: #000000"/>
     <use xlink:href="#mbbae3abc5e" x="304.751369" y="131.814341" style="stroke: #000000"/>
     <use xlink:href="#mbbae3abc5e" x="309.021813" y="129.65445" style="stroke: #000000"/>
     <use xlink:href="#mbbae3abc5e" x="313.292257" y="127.676523" style="stroke: #000000"/>
     <use xlink:href="#mbbae3abc5e" x="317.5627" y="127.256143" style="stroke: #000000"/>
     <use xlink:href="#mbbae3abc5e" x="321.833144" y="122.128356" style="stroke: #000000"/>
     <use xlink:href="#mbbae3abc5e" x="326.103588" y="123.844015" style="stroke: #000000"/>
     <use xlink:href="#mbbae3abc5e" x="330.374031" y="120.959813" style="stroke: #000000"/>
     <use xlink:href="#mbbae3abc5e" x="334.644475" y="118.320001" style="stroke: #000000"/>
     <use xlink:href="#mbbae3abc5e" x="338.914919" y="117.618938" style="stroke: #000000"/>
     <use xlink:href="#mbbae3abc5e" x="343.185363" y="114.636302" style="stroke: #000000"/>
     <use xlink:href="#mbbae3abc5e" x="347.455806" y="111.810343" style="stroke: #000000"/>
     <use xlink:href="#mbbae3abc5e" x="351.72625" y="110.220348" style="stroke: #000000"/>
     <use xlink:href="#mbbae3abc5e" x="355.996694" y="110.863249" style="stroke: #000000"/>
     <use xlink:href="#mbbae3abc5e" x="360.267137" y="109.481515" style="stroke: #000000"/>
    </g>
   </g>
   <g id="line2d_36">
    <g clip-path="url(#p1fe1fee3fb)">
     <use xlink:href="#mbbae3abc5e" x="364.537581" y="107.99185" style="stroke: #000000"/>
     <use xlink:href="#mbbae3abc5e" x="368.808025" y="105.310817" style="stroke: #000000"/>
     <use xlink:href="#mbbae3abc5e" x="373.078469" y="104.243776" style="stroke: #000000"/>
     <use xlink:href="#mbbae3abc5e" x="377.348912" y="107.433204" style="stroke: #000000"/>
     <use xlink:href="#mbbae3abc5e" x="381.619356" y="110.25955" style="stroke: #000000"/>
     <use xlink:href="#mbbae3abc5e" x="385.8898" y="114.913259" style="stroke: #000000"/>
     <use xlink:href="#mbbae3abc5e" x="390.160243" y="119.229574" style="stroke: #000000"/>
     <use xlink:href="#mbbae3abc5e" x="394.430687" y="123.234402" style="stroke: #000000"/>
     <use xlink:href="#mbbae3abc5e" x="398.701131" y="121.283482" style="stroke: #000000"/>
     <use xlink:href="#mbbae3abc5e" x="402.971575" y="119.299146" style="stroke: #000000"/>
     <use xlink:href="#mbbae3abc5e" x="407.242018" y="111.172876" style="stroke: #000000"/>
     <use xlink:href="#mbbae3abc5e" x="411.512462" y="105.932765" style="stroke: #000000"/>
     <use xlink:href="#mbbae3abc5e" x="415.782906" y="99.481957" style="stroke: #000000"/>
     <use xlink:href="#mbbae3abc5e" x="420.053349" y="95.356644" style="stroke: #000000"/>
     <use xlink:href="#mbbae3abc5e" x="424.323793" y="89.665718" style="stroke: #000000"/>
     <use xlink:href="#mbbae3abc5e" x="428.594237" y="86.779274" style="stroke: #000000"/>
     <use xlink:href="#mbbae3abc5e" x="432.864681" y="84.0987" style="stroke: #000000"/>
     <use xlink:href="#mbbae3abc5e" x="437.135124" y="82.349291" style="stroke: #000000"/>
     <use xlink:href="#mbbae3abc5e" x="441.405568" y="80.81321" style="stroke: #000000"/>
     <use xlink:href="#mbbae3abc5e" x="445.676012" y="78.122317" style="stroke: #000000"/>
     <use xlink:href="#mbbae3abc5e" x="449.946455" y="77.541772" style="stroke: #000000"/>
     <use xlink:href="#mbbae3abc5e" x="454.216899" y="77.194071" style="stroke: #000000"/>
     <use xlink:href="#mbbae3abc5e" x="458.487343" y="76.428612" style="stroke: #000000"/>
     <use xlink:href="#mbbae3abc5e" x="462.757787" y="74.93572" style="stroke: #000000"/>
     <use xlink:href="#mbbae3abc5e" x="467.02823" y="74.551824" style="stroke: #000000"/>
     <use xlink:href="#mbbae3abc5e" x="471.298674" y="73.632725" style="stroke: #000000"/>
     <use xlink:href="#mbbae3abc5e" x="475.569118" y="71.592536" style="stroke: #000000"/>
     <use xlink:href="#mbbae3abc5e" x="479.839561" y="71.411141" style="stroke: #000000"/>
     <use xlink:href="#mbbae3abc5e" x="484.110005" y="70.903809" style="stroke: #000000"/>
    </g>
   </g>
   <g id="line2d_37">
    <path d="M 61.336077 160.640285
L 65.606521 159.652359
L 69.876965 157.578138
L 74.147409 156.505512
L 78.417852 154.752416
L 82.688296 152.059256
L 86.95874 150.900452
L 91.229183 147.482176
L 95.499627 146.975578
L 99.770071 145.939036
L 104.040515 142.175185
L 108.310958 141.743614
L 112.581402 139.932198
L 116.851846 139.069138
L 121.122289 136.060667
L 125.392733 135.747628
L 129.663177 134.647051
L 133.933621 132.131536
L 138.204064 130.83601
L 142.474508 129.841236
L 146.744952 128.534874
L 151.015395 127.390496
L 155.285839 126.294526
L 159.556283 126.563723
L 163.826727 125.355699
L 168.09717 125.201368
L 172.367614 125.049554
L 176.638058 124.827729
L 180.908501 123.280096
L 185.178945 124.099247
L 189.449389 124.357571
L 193.719833 123.404937
L 197.990276 124.157116
L 202.26072 125.065646
L 206.531164 124.301774
L 210.801607 125.464858
L 215.072051 126.136087
L 219.342495 126.839633
L 223.612939 127.388765
L 227.883382 128.30895
L 232.153826 128.958125
L 236.42427 129.602695
L 240.694713 131.676686
L 244.965157 131.113458
L 249.235601 131.204235
L 253.506045 132.895055
L 257.776488 133.073411
L 262.046932 132.505786
L 266.317376 132.973326
L 270.587819 133.322665
L 274.858263 132.391214
L 279.128707 132.745294
L 283.399151 132.304274
L 287.669594 132.292824
L 291.940038 131.556744
L 296.210482 131.281071
L 300.480925 130.48796
L 304.751369 129.477153
L 309.021813 129.28916
L 313.292257 127.739875
L 317.5627 126.375606
L 321.833144 124.413399
L 326.103588 122.972399
L 330.374031 122.308729
L 334.644475 118.867781
L 338.914919 117.500102
L 343.185363 114.60781
L 347.455806 112.116103
L 351.72625 110.730713
L 355.996694 110.014386
L 360.267137 109.249773
" clip-path="url(#p1fe1fee3fb)" style="fill: none; stroke: #000000; stroke-width: 1.5; stroke-linecap: round"/>
   </g>
   <g id="line2d_38">
    <path d="M 364.537581 106.858208
L 368.808025 107.291291
L 373.078469 104.303927
L 377.348912 102.587745
L 381.619356 102.468386
L 385.8898 99.931604
L 390.160243 98.210108
L 394.430687 95.918544
L 398.701131 94.99753
L 402.971575 92.113606
L 407.242018 91.126576
L 411.512462 89.454324
L 415.782906 87.532361
L 420.053349 85.567017
L 424.323793 84.532101
L 428.594237 82.804498
L 432.864681 82.035187
L 437.135124 80.47587
L 441.405568 80.01377
L 445.676012 78.51742
L 449.946455 77.947113
L 454.216899 75.82613
L 458.487343 75.561091
L 462.757787 74.475684
L 467.02823 73.237761
L 471.298674 73.623477
L 475.569118 72.704891
L 479.839561 71.355246
L 484.110005 69.565433
" clip-path="url(#p1fe1fee3fb)" style="fill: none; stroke-dasharray: 1.5,2.475; stroke-dashoffset: 0; stroke: #000000; stroke-width: 1.5"/>
   </g>
   <g id="line2d_39">
    <path d="M 360.267137 189.161184
L 360.267137 27.716878
" clip-path="url(#p1fe1fee3fb)" style="fill: none; stroke: #ff0000; stroke-width: 3; stroke-linecap: round"/>
   </g>
   <g id="patch_3">
    <path d="M 40.197381 189.161184
L 40.197381 27.716878
" style="fill: none"/>
   </g>
   <g id="patch_4">
    <path d="M 505.248701 189.161184
L 505.248701 27.716878
" style="fill: none"/>
   </g>
   <g id="patch_5">
    <path d="M 40.197381 189.161184
L 505.248701 189.161184
" style="fill: none"/>
   </g>
   <g id="patch_6">
    <path d="M 40.197381 27.716878
L 505.248701 27.716878
" style="fill: none"/>
   </g>
   <g id="text_5">
    <!-- $R^2$ on pre-intervention data = 0.993 -->
    <g style="fill: #262626" transform="translate(127.603041 21.716878) scale(0.16 -0.16)">
     <defs>
      <path id="DejaVuSans-Oblique-52" d="M 1613 4147
L 1294 2491
L 2106 2491
Q 2584 2491 2879 2755
Q 3175 3019 3175 3444
Q 3175 3784 2976 3965
Q 2778 4147 2406 4147
L 1613 4147
z
M 2772 2241
Q 2972 2194 3105 2009
Q 3238 1825 3413 1275
L 3809 0
L 3144 0
L 2778 1197
Q 2638 1659 2453 1815
Q 2269 1972 1888 1972
L 1191 1972
L 806 0
L 172 0
L 1081 4666
L 2503 4666
Q 3150 4666 3495 4373
Q 3841 4081 3841 3531
Q 3841 3044 3547 2687
Q 3253 2331 2772 2241
z
" transform="scale(0.015625)"/>
      <path id="DejaVuSans-20" transform="scale(0.015625)"/>
      <path id="DejaVuSans-6f" d="M 1959 3097
Q 1497 3097 1228 2736
Q 959 2375 959 1747
Q 959 1119 1226 758
Q 1494 397 1959 397
Q 2419 397 2687 759
Q 2956 1122 2956 1747
Q 2956 2369 2687 2733
Q 2419 3097 1959 3097
z
M 1959 3584
Q 2709 3584 3137 3096
Q 3566 2609 3566 1747
Q 3566 888 3137 398
Q 2709 -91 1959 -91
Q 1206 -91 779 398
Q 353 888 353 1747
Q 353 2609 779 3096
Q 1206 3584 1959 3584
z
" transform="scale(0.015625)"/>
      <path id="DejaVuSans-6e" d="M 3513 2113
L 3513 0
L 2938 0
L 2938 2094
Q 2938 2591 2744 2837
Q 2550 3084 2163 3084
Q 1697 3084 1428 2787
Q 1159 2491 1159 1978
L 1159 0
L 581 0
L 581 3500
L 1159 3500
L 1159 2956
Q 1366 3272 1645 3428
Q 1925 3584 2291 3584
Q 2894 3584 3203 3211
Q 3513 2838 3513 2113
z
" transform="scale(0.015625)"/>
      <path id="DejaVuSans-70" d="M 1159 525
L 1159 -1331
L 581 -1331
L 581 3500
L 1159 3500
L 1159 2969
Q 1341 3281 1617 3432
Q 1894 3584 2278 3584
Q 2916 3584 3314 3078
Q 3713 2572 3713 1747
Q 3713 922 3314 415
Q 2916 -91 2278 -91
Q 1894 -91 1617 61
Q 1341 213 1159 525
z
M 3116 1747
Q 3116 2381 2855 2742
Q 2594 3103 2138 3103
Q 1681 3103 1420 2742
Q 1159 2381 1159 1747
Q 1159 1113 1420 752
Q 1681 391 2138 391
Q 2594 391 2855 752
Q 3116 1113 3116 1747
z
" transform="scale(0.015625)"/>
      <path id="DejaVuSans-72" d="M 2631 2963
Q 2534 3019 2420 3045
Q 2306 3072 2169 3072
Q 1681 3072 1420 2755
Q 1159 2438 1159 1844
L 1159 0
L 581 0
L 581 3500
L 1159 3500
L 1159 2956
Q 1341 3275 1631 3429
Q 1922 3584 2338 3584
Q 2397 3584 2469 3576
Q 2541 3569 2628 3553
L 2631 2963
z
" transform="scale(0.015625)"/>
      <path id="DejaVuSans-65" d="M 3597 1894
L 3597 1613
L 953 1613
Q 991 1019 1311 708
Q 1631 397 2203 397
Q 2534 397 2845 478
Q 3156 559 3463 722
L 3463 178
Q 3153 47 2828 -22
Q 2503 -91 2169 -91
Q 1331 -91 842 396
Q 353 884 353 1716
Q 353 2575 817 3079
Q 1281 3584 2069 3584
Q 2775 3584 3186 3129
Q 3597 2675 3597 1894
z
M 3022 2063
Q 3016 2534 2758 2815
Q 2500 3097 2075 3097
Q 1594 3097 1305 2825
Q 1016 2553 972 2059
L 3022 2063
z
" transform="scale(0.015625)"/>
      <path id="DejaVuSans-2d" d="M 313 2009
L 1997 2009
L 1997 1497
L 313 1497
L 313 2009
z
" transform="scale(0.015625)"/>
      <path id="DejaVuSans-69" d="M 603 3500
L 1178 3500
L 1178 0
L 603 0
L 603 3500
z
M 603 4863
L 1178 4863
L 1178 4134
L 603 4134
L 603 4863
z
" transform="scale(0.015625)"/>
      <path id="DejaVuSans-74" d="M 1172 4494
L 1172 3500
L 2356 3500
L 2356 3053
L 1172 3053
L 1172 1153
Q 1172 725 1289 603
Q 1406 481 1766 481
L 2356 481
L 2356 0
L 1766 0
Q 1100 0 847 248
Q 594 497 594 1153
L 594 3053
L 172 3053
L 172 3500
L 594 3500
L 594 4494
L 1172 4494
z
" transform="scale(0.015625)"/>
      <path id="DejaVuSans-76" d="M 191 3500
L 800 3500
L 1894 563
L 2988 3500
L 3597 3500
L 2284 0
L 1503 0
L 191 3500
z
" transform="scale(0.015625)"/>
      <path id="DejaVuSans-64" d="M 2906 2969
L 2906 4863
L 3481 4863
L 3481 0
L 2906 0
L 2906 525
Q 2725 213 2448 61
Q 2172 -91 1784 -91
Q 1150 -91 751 415
Q 353 922 353 1747
Q 353 2572 751 3078
Q 1150 3584 1784 3584
Q 2172 3584 2448 3432
Q 2725 3281 2906 2969
z
M 947 1747
Q 947 1113 1208 752
Q 1469 391 1925 391
Q 2381 391 2643 752
Q 2906 1113 2906 1747
Q 2906 2381 2643 2742
Q 2381 3103 1925 3103
Q 1469 3103 1208 2742
Q 947 2381 947 1747
z
" transform="scale(0.015625)"/>
      <path id="DejaVuSans-61" d="M 2194 1759
Q 1497 1759 1228 1600
Q 959 1441 959 1056
Q 959 750 1161 570
Q 1363 391 1709 391
Q 2188 391 2477 730
Q 2766 1069 2766 1631
L 2766 1759
L 2194 1759
z
M 3341 1997
L 3341 0
L 2766 0
L 2766 531
Q 2569 213 2275 61
Q 1981 -91 1556 -91
Q 1019 -91 701 211
Q 384 513 384 1019
Q 384 1609 779 1909
Q 1175 2209 1959 2209
L 2766 2209
L 2766 2266
Q 2766 2663 2505 2880
Q 2244 3097 1772 3097
Q 1472 3097 1187 3025
Q 903 2953 641 2809
L 641 3341
Q 956 3463 1253 3523
Q 1550 3584 1831 3584
Q 2591 3584 2966 3190
Q 3341 2797 3341 1997
z
" transform="scale(0.015625)"/>
      <path id="DejaVuSans-3d" d="M 678 2906
L 4684 2906
L 4684 2381
L 678 2381
L 678 2906
z
M 678 1631
L 4684 1631
L 4684 1100
L 678 1100
L 678 1631
z
" transform="scale(0.015625)"/>
      <path id="DejaVuSans-2e" d="M 684 794
L 1344 794
L 1344 0
L 684 0
L 684 794
z
" transform="scale(0.015625)"/>
      <path id="DejaVuSans-39" d="M 703 97
L 703 672
Q 941 559 1184 500
Q 1428 441 1663 441
Q 2288 441 2617 861
Q 2947 1281 2994 2138
Q 2813 1869 2534 1725
Q 2256 1581 1919 1581
Q 1219 1581 811 2004
Q 403 2428 403 3163
Q 403 3881 828 4315
Q 1253 4750 1959 4750
Q 2769 4750 3195 4129
Q 3622 3509 3622 2328
Q 3622 1225 3098 567
Q 2575 -91 1691 -91
Q 1453 -91 1209 -44
Q 966 3 703 97
z
M 1959 2075
Q 2384 2075 2632 2365
Q 2881 2656 2881 3163
Q 2881 3666 2632 3958
Q 2384 4250 1959 4250
Q 1534 4250 1286 3958
Q 1038 3666 1038 3163
Q 1038 2656 1286 2365
Q 1534 2075 1959 2075
z
" transform="scale(0.015625)"/>
     </defs>
     <use xlink:href="#DejaVuSans-Oblique-52" transform="translate(0 0.765625)"/>
     <use xlink:href="#DejaVuSans-32" transform="translate(76.499193 39.046875) scale(0.7)"/>
     <use xlink:href="#DejaVuSans-20" transform="translate(123.769701 0.765625)"/>
     <use xlink:href="#DejaVuSans-6f" transform="translate(155.55681 0.765625)"/>
     <use xlink:href="#DejaVuSans-6e" transform="translate(216.738451 0.765625)"/>
     <use xlink:href="#DejaVuSans-20" transform="translate(280.117357 0.765625)"/>
     <use xlink:href="#DejaVuSans-70" transform="translate(311.904466 0.765625)"/>
     <use xlink:href="#DejaVuSans-72" transform="translate(375.381029 0.765625)"/>
     <use xlink:href="#DejaVuSans-65" transform="translate(416.49431 0.765625)"/>
     <use xlink:href="#DejaVuSans-2d" transform="translate(478.017747 0.765625)"/>
     <use xlink:href="#DejaVuSans-69" transform="translate(514.101732 0.765625)"/>
     <use xlink:href="#DejaVuSans-6e" transform="translate(541.884935 0.765625)"/>
     <use xlink:href="#DejaVuSans-74" transform="translate(605.263841 0.765625)"/>
     <use xlink:href="#DejaVuSans-65" transform="translate(644.472826 0.765625)"/>
     <use xlink:href="#DejaVuSans-72" transform="translate(705.996263 0.765625)"/>
     <use xlink:href="#DejaVuSans-76" transform="translate(747.109544 0.765625)"/>
     <use xlink:href="#DejaVuSans-65" transform="translate(806.289232 0.765625)"/>
     <use xlink:href="#DejaVuSans-6e" transform="translate(867.812669 0.765625)"/>
     <use xlink:href="#DejaVuSans-74" transform="translate(931.191576 0.765625)"/>
     <use xlink:href="#DejaVuSans-69" transform="translate(970.40056 0.765625)"/>
     <use xlink:href="#DejaVuSans-6f" transform="translate(998.183763 0.765625)"/>
     <use xlink:href="#DejaVuSans-6e" transform="translate(1059.365404 0.765625)"/>
     <use xlink:href="#DejaVuSans-20" transform="translate(1122.74431 0.765625)"/>
     <use xlink:href="#DejaVuSans-64" transform="translate(1154.531419 0.765625)"/>
     <use xlink:href="#DejaVuSans-61" transform="translate(1218.007982 0.765625)"/>
     <use xlink:href="#DejaVuSans-74" transform="translate(1279.287279 0.765625)"/>
     <use xlink:href="#DejaVuSans-61" transform="translate(1318.496263 0.765625)"/>
     <use xlink:href="#DejaVuSans-20" transform="translate(1379.77556 0.765625)"/>
     <use xlink:href="#DejaVuSans-3d" transform="translate(1411.562669 0.765625)"/>
     <use xlink:href="#DejaVuSans-20" transform="translate(1495.351732 0.765625)"/>
     <use xlink:href="#DejaVuSans-30" transform="translate(1527.138841 0.765625)"/>
     <use xlink:href="#DejaVuSans-2e" transform="translate(1590.761888 0.765625)"/>
     <use xlink:href="#DejaVuSans-39" transform="translate(1622.548997 0.765625)"/>
     <use xlink:href="#DejaVuSans-39" transform="translate(1686.172044 0.765625)"/>
     <use xlink:href="#DejaVuSans-33" transform="translate(1749.795091 0.765625)"/>
    </g>
   </g>
   <g id="legend_1">
    <g id="line2d_40">
     <path d="M 50.997381 43.435003
L 62.997381 43.435003
L 74.997381 43.435003
" style="fill: none; stroke: #000000; stroke-width: 1.5; stroke-linecap: round"/>
    </g>
    <g id="text_6">
     <!-- model fit -->
     <g style="fill: #262626" transform="translate(84.597381 47.635003) scale(0.12 -0.12)">
      <defs>
       <path id="DejaVuSans-6d" d="M 3328 2828
Q 3544 3216 3844 3400
Q 4144 3584 4550 3584
Q 5097 3584 5394 3201
Q 5691 2819 5691 2113
L 5691 0
L 5113 0
L 5113 2094
Q 5113 2597 4934 2840
Q 4756 3084 4391 3084
Q 3944 3084 3684 2787
Q 3425 2491 3425 1978
L 3425 0
L 2847 0
L 2847 2094
Q 2847 2600 2669 2842
Q 2491 3084 2119 3084
Q 1678 3084 1418 2786
Q 1159 2488 1159 1978
L 1159 0
L 581 0
L 581 3500
L 1159 3500
L 1159 2956
Q 1356 3278 1631 3431
Q 1906 3584 2284 3584
Q 2666 3584 2933 3390
Q 3200 3197 3328 2828
z
" transform="scale(0.015625)"/>
       <path id="DejaVuSans-6c" d="M 603 4863
L 1178 4863
L 1178 0
L 603 0
L 603 4863
z
" transform="scale(0.015625)"/>
       <path id="DejaVuSans-66" d="M 2375 4863
L 2375 4384
L 1825 4384
Q 1516 4384 1395 4259
Q 1275 4134 1275 3809
L 1275 3500
L 2222 3500
L 2222 3053
L 1275 3053
L 1275 0
L 697 0
L 697 3053
L 147 3053
L 147 3500
L 697 3500
L 697 3744
Q 697 4328 969 4595
Q 1241 4863 1831 4863
L 2375 4863
z
" transform="scale(0.015625)"/>
      </defs>
      <use xlink:href="#DejaVuSans-6d"/>
      <use xlink:href="#DejaVuSans-6f" x="97.412109"/>
      <use xlink:href="#DejaVuSans-64" x="158.59375"/>
      <use xlink:href="#DejaVuSans-65" x="222.070312"/>
      <use xlink:href="#DejaVuSans-6c" x="283.59375"/>
      <use xlink:href="#DejaVuSans-20" x="311.376953"/>
      <use xlink:href="#DejaVuSans-66" x="343.164062"/>
      <use xlink:href="#DejaVuSans-69" x="378.369141"/>
      <use xlink:href="#DejaVuSans-74" x="406.152344"/>
     </g>
    </g>
    <g id="line2d_41">
     <path d="M 50.997381 61.048753
L 62.997381 61.048753
L 74.997381 61.048753
" style="fill: none; stroke-dasharray: 1.5,2.475; stroke-dashoffset: 0; stroke: #000000; stroke-width: 1.5"/>
    </g>
    <g id="text_7">
     <!-- counterfactual -->
     <g style="fill: #262626" transform="translate(84.597381 65.248753) scale(0.12 -0.12)">
      <defs>
       <path id="DejaVuSans-63" d="M 3122 3366
L 3122 2828
Q 2878 2963 2633 3030
Q 2388 3097 2138 3097
Q 1578 3097 1268 2742
Q 959 2388 959 1747
Q 959 1106 1268 751
Q 1578 397 2138 397
Q 2388 397 2633 464
Q 2878 531 3122 666
L 3122 134
Q 2881 22 2623 -34
Q 2366 -91 2075 -91
Q 1284 -91 818 406
Q 353 903 353 1747
Q 353 2603 823 3093
Q 1294 3584 2113 3584
Q 2378 3584 2631 3529
Q 2884 3475 3122 3366
z
" transform="scale(0.015625)"/>
       <path id="DejaVuSans-75" d="M 544 1381
L 544 3500
L 1119 3500
L 1119 1403
Q 1119 906 1312 657
Q 1506 409 1894 409
Q 2359 409 2629 706
Q 2900 1003 2900 1516
L 2900 3500
L 3475 3500
L 3475 0
L 2900 0
L 2900 538
Q 2691 219 2414 64
Q 2138 -91 1772 -91
Q 1169 -91 856 284
Q 544 659 544 1381
z
M 1991 3584
L 1991 3584
z
" transform="scale(0.015625)"/>
      </defs>
      <use xlink:href="#DejaVuSans-63"/>
      <use xlink:href="#DejaVuSans-6f" x="54.980469"/>
      <use xlink:href="#DejaVuSans-75" x="116.162109"/>
      <use xlink:href="#DejaVuSans-6e" x="179.541016"/>
      <use xlink:href="#DejaVuSans-74" x="242.919922"/>
      <use xlink:href="#DejaVuSans-65" x="282.128906"/>
      <use xlink:href="#DejaVuSans-72" x="343.652344"/>
      <use xlink:href="#DejaVuSans-66" x="384.765625"/>
      <use xlink:href="#DejaVuSans-61" x="419.970703"/>
      <use xlink:href="#DejaVuSans-63" x="481.25"/>
      <use xlink:href="#DejaVuSans-74" x="536.230469"/>
      <use xlink:href="#DejaVuSans-75" x="575.439453"/>
      <use xlink:href="#DejaVuSans-61" x="638.818359"/>
      <use xlink:href="#DejaVuSans-6c" x="700.097656"/>
     </g>
    </g>
    <g id="patch_7">
     <path d="M 50.997381 82.862503
L 74.997381 82.862503
L 74.997381 74.462503
L 50.997381 74.462503
z
" style="fill: #2a2eec; fill-opacity: 0.25; stroke: #2a2eec; stroke-opacity: 0.25; stroke-linejoin: miter"/>
    </g>
    <g id="text_8">
     <!-- causal impact -->
     <g style="fill: #262626" transform="translate(84.597381 82.862503) scale(0.12 -0.12)">
      <defs>
       <path id="DejaVuSans-73" d="M 2834 3397
L 2834 2853
Q 2591 2978 2328 3040
Q 2066 3103 1784 3103
Q 1356 3103 1142 2972
Q 928 2841 928 2578
Q 928 2378 1081 2264
Q 1234 2150 1697 2047
L 1894 2003
Q 2506 1872 2764 1633
Q 3022 1394 3022 966
Q 3022 478 2636 193
Q 2250 -91 1575 -91
Q 1294 -91 989 -36
Q 684 19 347 128
L 347 722
Q 666 556 975 473
Q 1284 391 1588 391
Q 1994 391 2212 530
Q 2431 669 2431 922
Q 2431 1156 2273 1281
Q 2116 1406 1581 1522
L 1381 1569
Q 847 1681 609 1914
Q 372 2147 372 2553
Q 372 3047 722 3315
Q 1072 3584 1716 3584
Q 2034 3584 2315 3537
Q 2597 3491 2834 3397
z
" transform="scale(0.015625)"/>
      </defs>
      <use xlink:href="#DejaVuSans-63"/>
      <use xlink:href="#DejaVuSans-61" x="54.980469"/>
      <use xlink:href="#DejaVuSans-75" x="116.259766"/>
      <use xlink:href="#DejaVuSans-73" x="179.638672"/>
      <use xlink:href="#DejaVuSans-61" x="231.738281"/>
      <use xlink:href="#DejaVuSans-6c" x="293.017578"/>
      <use xlink:href="#DejaVuSans-20" x="320.800781"/>
      <use xlink:href="#DejaVuSans-69" x="352.587891"/>
      <use xlink:href="#DejaVuSans-6d" x="380.371094"/>
      <use xlink:href="#DejaVuSans-70" x="477.783203"/>
      <use xlink:href="#DejaVuSans-61" x="541.259766"/>
      <use xlink:href="#DejaVuSans-63" x="602.539062"/>
      <use xlink:href="#DejaVuSans-74" x="657.519531"/>
     </g>
    </g>
    <g id="line2d_42">
     <path d="M 50.997381 96.276253
L 62.997381 96.276253
L 74.997381 96.276253
" style="fill: none; stroke: #ff0000; stroke-width: 3; stroke-linecap: round"/>
    </g>
    <g id="text_9">
     <!-- treatment time -->
     <g style="fill: #262626" transform="translate(84.597381 100.476253) scale(0.12 -0.12)">
      <use xlink:href="#DejaVuSans-74"/>
      <use xlink:href="#DejaVuSans-72" x="39.208984"/>
      <use xlink:href="#DejaVuSans-65" x="78.072266"/>
      <use xlink:href="#DejaVuSans-61" x="139.595703"/>
      <use xlink:href="#DejaVuSans-74" x="200.875"/>
      <use xlink:href="#DejaVuSans-6d" x="240.083984"/>
      <use xlink:href="#DejaVuSans-65" x="337.496094"/>
      <use xlink:href="#DejaVuSans-6e" x="399.019531"/>
      <use xlink:href="#DejaVuSans-74" x="462.398438"/>
      <use xlink:href="#DejaVuSans-20" x="501.607422"/>
      <use xlink:href="#DejaVuSans-74" x="533.394531"/>
      <use xlink:href="#DejaVuSans-69" x="572.603516"/>
      <use xlink:href="#DejaVuSans-6d" x="600.386719"/>
      <use xlink:href="#DejaVuSans-65" x="697.798828"/>
     </g>
    </g>
   </g>
  </g>
  <g id="axes_2">
   <g id="patch_8">
    <path d="M 40.197381 374.677226
L 505.248701 374.677226
L 505.248701 213.232919
L 40.197381 213.232919
z
" style="fill: #eeeeee"/>
   </g>
   <g id="matplotlib.axis_3">
    <g id="xtick_7">
     <g id="line2d_43">
      <path d="M 61.336077 374.677226
L 61.336077 213.232919
" clip-path="url(#pd1c50cde68)" style="fill: none; stroke: #ffffff; stroke-width: 0.8; stroke-linecap: round"/>
     </g>
     <g id="line2d_44"/>
    </g>
    <g id="xtick_8">
     <g id="line2d_45">
      <path d="M 146.744952 374.677226
L 146.744952 213.232919
" clip-path="url(#pd1c50cde68)" style="fill: none; stroke: #ffffff; stroke-width: 0.8; stroke-linecap: round"/>
     </g>
     <g id="line2d_46"/>
    </g>
    <g id="xtick_9">
     <g id="line2d_47">
      <path d="M 232.153826 374.677226
L 232.153826 213.232919
" clip-path="url(#pd1c50cde68)" style="fill: none; stroke: #ffffff; stroke-width: 0.8; stroke-linecap: round"/>
     </g>
     <g id="line2d_48"/>
    </g>
    <g id="xtick_10">
     <g id="line2d_49">
      <path d="M 317.5627 374.677226
L 317.5627 213.232919
" clip-path="url(#pd1c50cde68)" style="fill: none; stroke: #ffffff; stroke-width: 0.8; stroke-linecap: round"/>
     </g>
     <g id="line2d_50"/>
    </g>
    <g id="xtick_11">
     <g id="line2d_51">
      <path d="M 402.971575 374.677226
L 402.971575 213.232919
" clip-path="url(#pd1c50cde68)" style="fill: none; stroke: #ffffff; stroke-width: 0.8; stroke-linecap: round"/>
     </g>
     <g id="line2d_52"/>
    </g>
    <g id="xtick_12">
     <g id="line2d_53">
      <path d="M 488.380449 374.677226
L 488.380449 213.232919
" clip-path="url(#pd1c50cde68)" style="fill: none; stroke: #ffffff; stroke-width: 0.8; stroke-linecap: round"/>
     </g>
     <g id="line2d_54"/>
    </g>
   </g>
   <g id="matplotlib.axis_4">
    <g id="ytick_5">
     <g id="line2d_55">
      <path d="M 40.197381 350.356636
L 505.248701 350.356636
" clip-path="url(#pd1c50cde68)" style="fill: none; stroke: #ffffff; stroke-width: 0.8; stroke-linecap: round"/>
     </g>
     <g id="line2d_56"/>
     <g id="text_10">
      <!-- 6 -->
      <g style="fill: #262626" transform="translate(16.058319 355.675542) scale(0.14 -0.14)">
       <defs>
        <path id="DejaVuSans-2212" d="M 678 2272
L 4684 2272
L 4684 1741
L 678 1741
L 678 2272
z
" transform="scale(0.015625)"/>
        <path id="DejaVuSans-36" d="M 2113 2584
Q 1688 2584 1439 2293
Q 1191 2003 1191 1497
Q 1191 994 1439 701
Q 1688 409 2113 409
Q 2538 409 2786 701
Q 3034 994 3034 1497
Q 3034 2003 2786 2293
Q 2538 2584 2113 2584
z
M 3366 4563
L 3366 3988
Q 3128 4100 2886 4159
Q 2644 4219 2406 4219
Q 1781 4219 1451 3797
Q 1122 3375 1075 2522
Q 1259 2794 1537 2939
Q 1816 3084 2150 3084
Q 2853 3084 3261 2657
Q 3669 2231 3669 1497
Q 3669 778 3244 343
Q 2819 -91 2113 -91
Q 1303 -91 875 529
Q 447 1150 447 2328
Q 447 3434 972 4092
Q 1497 4750 2381 4750
Q 2619 4750 2861 4703
Q 3103 4656 3366 4563
z
" transform="scale(0.015625)"/>
       </defs>
       <use xlink:href="#DejaVuSans-2212"/>
       <use xlink:href="#DejaVuSans-36" x="83.789062"/>
      </g>
     </g>
    </g>
    <g id="ytick_6">
     <g id="line2d_57">
      <path d="M 40.197381 310.871432
L 505.248701 310.871432
" clip-path="url(#pd1c50cde68)" style="fill: none; stroke: #ffffff; stroke-width: 0.8; stroke-linecap: round"/>
     </g>
     <g id="line2d_58"/>
     <g id="text_11">
      <!-- 4 -->
      <g style="fill: #262626" transform="translate(16.058319 316.190339) scale(0.14 -0.14)">
       <defs>
        <path id="DejaVuSans-34" d="M 2419 4116
L 825 1625
L 2419 1625
L 2419 4116
z
M 2253 4666
L 3047 4666
L 3047 1625
L 3713 1625
L 3713 1100
L 3047 1100
L 3047 0
L 2419 0
L 2419 1100
L 313 1100
L 313 1709
L 2253 4666
z
" transform="scale(0.015625)"/>
       </defs>
       <use xlink:href="#DejaVuSans-2212"/>
       <use xlink:href="#DejaVuSans-34" x="83.789062"/>
      </g>
     </g>
    </g>
    <g id="ytick_7">
     <g id="line2d_59">
      <path d="M 40.197381 271.386229
L 505.248701 271.386229
" clip-path="url(#pd1c50cde68)" style="fill: none; stroke: #ffffff; stroke-width: 0.8; stroke-linecap: round"/>
     </g>
     <g id="line2d_60"/>
     <g id="text_12">
      <!-- 2 -->
      <g style="fill: #262626" transform="translate(16.058319 276.705135) scale(0.14 -0.14)">
       <use xlink:href="#DejaVuSans-2212"/>
       <use xlink:href="#DejaVuSans-32" x="83.789062"/>
      </g>
     </g>
    </g>
    <g id="ytick_8">
     <g id="line2d_61">
      <path d="M 40.197381 231.901026
L 505.248701 231.901026
" clip-path="url(#pd1c50cde68)" style="fill: none; stroke: #ffffff; stroke-width: 0.8; stroke-linecap: round"/>
     </g>
     <g id="line2d_62"/>
     <g id="text_13">
      <!-- 0 -->
      <g style="fill: #262626" transform="translate(27.789881 237.219932) scale(0.14 -0.14)">
       <use xlink:href="#DejaVuSans-30"/>
      </g>
     </g>
    </g>
   </g>
   <g id="PolyCollection_2">
    <defs>
     <path id="me2c13e9d2c" d="M 364.537581 -352.498494
L 364.537581 -346.877653
L 368.808025 -362.318105
L 373.078469 -352.796736
L 377.348912 -328.47368
L 381.619356 -313.868254
L 385.8898 -278.216269
L 390.160243 -248.279526
L 394.430687 -217.060672
L 398.701131 -222.16717
L 402.971575 -217.706821
L 407.242018 -253.104686
L 411.512462 -270.794889
L 415.782906 -293.249863
L 420.053349 -303.95945
L 424.323793 -327.044931
L 428.594237 -332.790711
L 432.864681 -342.267156
L 437.135124 -343.209676
L 441.405568 -348.5347
L 445.676012 -354.457495
L 449.946455 -354.508261
L 454.216899 -345.715956
L 458.487343 -348.197145
L 462.757787 -350.217539
L 467.02823 -345.983087
L 471.298674 -352.452639
L 475.569118 -358.013787
L 479.839561 -352.221355
L 484.110005 -345.862541
L 484.110005 -352.498494
L 484.110005 -352.498494
L 479.839561 -352.498494
L 475.569118 -352.498494
L 471.298674 -352.498494
L 467.02823 -352.498494
L 462.757787 -352.498494
L 458.487343 -352.498494
L 454.216899 -352.498494
L 449.946455 -352.498494
L 445.676012 -352.498494
L 441.405568 -352.498494
L 437.135124 -352.498494
L 432.864681 -352.498494
L 428.594237 -352.498494
L 424.323793 -352.498494
L 420.053349 -352.498494
L 415.782906 -352.498494
L 411.512462 -352.498494
L 407.242018 -352.498494
L 402.971575 -352.498494
L 398.701131 -352.498494
L 394.430687 -352.498494
L 390.160243 -352.498494
L 385.8898 -352.498494
L 381.619356 -352.498494
L 377.348912 -352.498494
L 373.078469 -352.498494
L 368.808025 -352.498494
L 364.537581 -352.498494
z
" style="stroke: #2a2eec; stroke-opacity: 0.25"/>
    </defs>
    <g clip-path="url(#pd1c50cde68)">
     <use xlink:href="#me2c13e9d2c" x="0" y="584.39952" style="fill: #2a2eec; fill-opacity: 0.25; stroke: #2a2eec; stroke-opacity: 0.25"/>
    </g>
   </g>
   <g id="line2d_63">
    <g clip-path="url(#pd1c50cde68)">
     <use xlink:href="#mbbae3abc5e" x="61.336077" y="231.45104" style="stroke: #000000"/>
     <use xlink:href="#mbbae3abc5e" x="65.606521" y="234.506279" style="stroke: #000000"/>
     <use xlink:href="#mbbae3abc5e" x="69.876965" y="230.167645" style="stroke: #000000"/>
     <use xlink:href="#mbbae3abc5e" x="74.147409" y="226.786079" style="stroke: #000000"/>
     <use xlink:href="#mbbae3abc5e" x="78.417852" y="233.445895" style="stroke: #000000"/>
     <use xlink:href="#mbbae3abc5e" x="82.688296" y="233.736434" style="stroke: #000000"/>
     <use xlink:href="#mbbae3abc5e" x="86.95874" y="229.067227" style="stroke: #000000"/>
     <use xlink:href="#mbbae3abc5e" x="91.229183" y="240.573705" style="stroke: #000000"/>
     <use xlink:href="#mbbae3abc5e" x="95.499627" y="231.2953" style="stroke: #000000"/>
     <use xlink:href="#mbbae3abc5e" x="99.770071" y="229.06411" style="stroke: #000000"/>
     <use xlink:href="#mbbae3abc5e" x="104.040515" y="237.806542" style="stroke: #000000"/>
     <use xlink:href="#mbbae3abc5e" x="108.310958" y="235.379408" style="stroke: #000000"/>
     <use xlink:href="#mbbae3abc5e" x="112.581402" y="227.093128" style="stroke: #000000"/>
     <use xlink:href="#mbbae3abc5e" x="116.851846" y="225.643132" style="stroke: #000000"/>
     <use xlink:href="#mbbae3abc5e" x="121.122289" y="237.373244" style="stroke: #000000"/>
     <use xlink:href="#mbbae3abc5e" x="125.392733" y="225.172915" style="stroke: #000000"/>
     <use xlink:href="#mbbae3abc5e" x="129.663177" y="223.067415" style="stroke: #000000"/>
     <use xlink:href="#mbbae3abc5e" x="133.933621" y="234.917162" style="stroke: #000000"/>
     <use xlink:href="#mbbae3abc5e" x="138.204064" y="239.589103" style="stroke: #000000"/>
     <use xlink:href="#mbbae3abc5e" x="142.474508" y="230.102793" style="stroke: #000000"/>
     <use xlink:href="#mbbae3abc5e" x="146.744952" y="232.984105" style="stroke: #000000"/>
     <use xlink:href="#mbbae3abc5e" x="151.015395" y="230.20095" style="stroke: #000000"/>
     <use xlink:href="#mbbae3abc5e" x="155.285839" y="240.883003" style="stroke: #000000"/>
     <use xlink:href="#mbbae3abc5e" x="159.556283" y="234.238469" style="stroke: #000000"/>
     <use xlink:href="#mbbae3abc5e" x="163.826727" y="226.29548" style="stroke: #000000"/>
     <use xlink:href="#mbbae3abc5e" x="168.09717" y="232.756569" style="stroke: #000000"/>
     <use xlink:href="#mbbae3abc5e" x="172.367614" y="222.774229" style="stroke: #000000"/>
     <use xlink:href="#mbbae3abc5e" x="176.638058" y="233.463143" style="stroke: #000000"/>
     <use xlink:href="#mbbae3abc5e" x="180.908501" y="236.184224" style="stroke: #000000"/>
     <use xlink:href="#mbbae3abc5e" x="185.178945" y="233.914044" style="stroke: #000000"/>
     <use xlink:href="#mbbae3abc5e" x="189.449389" y="222.958039" style="stroke: #000000"/>
     <use xlink:href="#mbbae3abc5e" x="193.719833" y="236.970535" style="stroke: #000000"/>
     <use xlink:href="#mbbae3abc5e" x="197.990276" y="230.435999" style="stroke: #000000"/>
     <use xlink:href="#mbbae3abc5e" x="202.26072" y="226.849748" style="stroke: #000000"/>
     <use xlink:href="#mbbae3abc5e" x="206.531164" y="234.979695" style="stroke: #000000"/>
     <use xlink:href="#mbbae3abc5e" x="210.801607" y="236.644921" style="stroke: #000000"/>
     <use xlink:href="#mbbae3abc5e" x="215.072051" y="229.268646" style="stroke: #000000"/>
     <use xlink:href="#mbbae3abc5e" x="219.342495" y="231.299125" style="stroke: #000000"/>
     <use xlink:href="#mbbae3abc5e" x="223.612939" y="239.203773" style="stroke: #000000"/>
     <use xlink:href="#mbbae3abc5e" x="227.883382" y="232.162748" style="stroke: #000000"/>
     <use xlink:href="#mbbae3abc5e" x="232.153826" y="227.707981" style="stroke: #000000"/>
     <use xlink:href="#mbbae3abc5e" x="236.42427" y="231.043874" style="stroke: #000000"/>
     <use xlink:href="#mbbae3abc5e" x="240.694713" y="227.055058" style="stroke: #000000"/>
     <use xlink:href="#mbbae3abc5e" x="244.965157" y="233.489675" style="stroke: #000000"/>
     <use xlink:href="#mbbae3abc5e" x="249.235601" y="232.380845" style="stroke: #000000"/>
     <use xlink:href="#mbbae3abc5e" x="253.506045" y="236.36107" style="stroke: #000000"/>
     <use xlink:href="#mbbae3abc5e" x="257.776488" y="229.042" style="stroke: #000000"/>
     <use xlink:href="#mbbae3abc5e" x="262.046932" y="240.982137" style="stroke: #000000"/>
     <use xlink:href="#mbbae3abc5e" x="266.317376" y="238.210528" style="stroke: #000000"/>
     <use xlink:href="#mbbae3abc5e" x="270.587819" y="223.158957" style="stroke: #000000"/>
     <use xlink:href="#mbbae3abc5e" x="274.858263" y="228.875405" style="stroke: #000000"/>
     <use xlink:href="#mbbae3abc5e" x="279.128707" y="231.771288" style="stroke: #000000"/>
     <use xlink:href="#mbbae3abc5e" x="283.399151" y="228.502427" style="stroke: #000000"/>
     <use xlink:href="#mbbae3abc5e" x="287.669594" y="229.131789" style="stroke: #000000"/>
     <use xlink:href="#mbbae3abc5e" x="291.940038" y="231.336617" style="stroke: #000000"/>
     <use xlink:href="#mbbae3abc5e" x="296.210482" y="233.565506" style="stroke: #000000"/>
     <use xlink:href="#mbbae3abc5e" x="300.480925" y="231.956528" style="stroke: #000000"/>
     <use xlink:href="#mbbae3abc5e" x="304.751369" y="243.489302" style="stroke: #000000"/>
     <use xlink:href="#mbbae3abc5e" x="309.021813" y="233.712214" style="stroke: #000000"/>
     <use xlink:href="#mbbae3abc5e" x="313.292257" y="231.586913" style="stroke: #000000"/>
     <use xlink:href="#mbbae3abc5e" x="317.5627" y="236.266914" style="stroke: #000000"/>
     <use xlink:href="#mbbae3abc5e" x="321.833144" y="220.571297" style="stroke: #000000"/>
     <use xlink:href="#mbbae3abc5e" x="326.103588" y="236.222684" style="stroke: #000000"/>
     <use xlink:href="#mbbae3abc5e" x="330.374031" y="225.212815" style="stroke: #000000"/>
     <use xlink:href="#mbbae3abc5e" x="334.644475" y="229.185013" style="stroke: #000000"/>
     <use xlink:href="#mbbae3abc5e" x="338.914919" y="232.490238" style="stroke: #000000"/>
     <use xlink:href="#mbbae3abc5e" x="343.185363" y="232.042295" style="stroke: #000000"/>
     <use xlink:href="#mbbae3abc5e" x="347.455806" y="230.385001" style="stroke: #000000"/>
     <use xlink:href="#mbbae3abc5e" x="351.72625" y="229.37053" style="stroke: #000000"/>
     <use xlink:href="#mbbae3abc5e" x="355.996694" y="236.109872" style="stroke: #000000"/>
     <use xlink:href="#mbbae3abc5e" x="360.267137" y="233.050051" style="stroke: #000000"/>
    </g>
   </g>
   <g id="line2d_64">
    <g clip-path="url(#pd1c50cde68)">
     <use xlink:href="#mbbae3abc5e" x="364.537581" y="237.521867" style="stroke: #000000"/>
     <use xlink:href="#mbbae3abc5e" x="368.808025" y="222.081415" style="stroke: #000000"/>
     <use xlink:href="#mbbae3abc5e" x="373.078469" y="231.602784" style="stroke: #000000"/>
     <use xlink:href="#mbbae3abc5e" x="377.348912" y="255.92584" style="stroke: #000000"/>
     <use xlink:href="#mbbae3abc5e" x="381.619356" y="270.531266" style="stroke: #000000"/>
     <use xlink:href="#mbbae3abc5e" x="385.8898" y="306.183251" style="stroke: #000000"/>
     <use xlink:href="#mbbae3abc5e" x="390.160243" y="336.119994" style="stroke: #000000"/>
     <use xlink:href="#mbbae3abc5e" x="394.430687" y="367.338848" style="stroke: #000000"/>
     <use xlink:href="#mbbae3abc5e" x="398.701131" y="362.23235" style="stroke: #000000"/>
     <use xlink:href="#mbbae3abc5e" x="402.971575" y="366.692699" style="stroke: #000000"/>
     <use xlink:href="#mbbae3abc5e" x="407.242018" y="331.294834" style="stroke: #000000"/>
     <use xlink:href="#mbbae3abc5e" x="411.512462" y="313.604631" style="stroke: #000000"/>
     <use xlink:href="#mbbae3abc5e" x="415.782906" y="291.149657" style="stroke: #000000"/>
     <use xlink:href="#mbbae3abc5e" x="420.053349" y="280.44007" style="stroke: #000000"/>
     <use xlink:href="#mbbae3abc5e" x="424.323793" y="257.354589" style="stroke: #000000"/>
     <use xlink:href="#mbbae3abc5e" x="428.594237" y="251.608809" style="stroke: #000000"/>
     <use xlink:href="#mbbae3abc5e" x="432.864681" y="242.132364" style="stroke: #000000"/>
     <use xlink:href="#mbbae3abc5e" x="437.135124" y="241.189844" style="stroke: #000000"/>
     <use xlink:href="#mbbae3abc5e" x="441.405568" y="235.86482" style="stroke: #000000"/>
     <use xlink:href="#mbbae3abc5e" x="445.676012" y="229.942025" style="stroke: #000000"/>
     <use xlink:href="#mbbae3abc5e" x="449.946455" y="229.891259" style="stroke: #000000"/>
     <use xlink:href="#mbbae3abc5e" x="454.216899" y="238.683564" style="stroke: #000000"/>
     <use xlink:href="#mbbae3abc5e" x="458.487343" y="236.202375" style="stroke: #000000"/>
     <use xlink:href="#mbbae3abc5e" x="462.757787" y="234.181981" style="stroke: #000000"/>
     <use xlink:href="#mbbae3abc5e" x="467.02823" y="238.416433" style="stroke: #000000"/>
     <use xlink:href="#mbbae3abc5e" x="471.298674" y="231.946881" style="stroke: #000000"/>
     <use xlink:href="#mbbae3abc5e" x="475.569118" y="226.385733" style="stroke: #000000"/>
     <use xlink:href="#mbbae3abc5e" x="479.839561" y="232.178165" style="stroke: #000000"/>
     <use xlink:href="#mbbae3abc5e" x="484.110005" y="238.536979" style="stroke: #000000"/>
    </g>
   </g>
   <g id="line2d_65">
    <path d="M 40.197381 231.901026
L 505.248701 231.901026
" clip-path="url(#pd1c50cde68)" style="fill: none; stroke: #000000; stroke-width: 1.5; stroke-linecap: round"/>
   </g>
   <g id="line2d_66">
    <path d="M 360.267137 374.677226
L 360.267137 213.232919
" clip-path="url(#pd1c50cde68)" style="fill: none; stroke: #ff0000; stroke-width: 3; stroke-linecap: round"/>
   </g>
   <g id="patch_9">
    <path d="M 40.197381 374.677226
L 40.197381 213.232919
" style="fill: none"/>
   </g>
   <g id="patch_10">
    <path d="M 505.248701 374.677226
L 505.248701 213.232919
" style="fill: none"/>
   </g>
   <g id="patch_11">
    <path d="M 40.197381 374.677226
L 505.248701 374.677226
" style="fill: none"/>
   </g>
   <g id="patch_12">
    <path d="M 40.197381 213.232919
L 505.248701 213.232919
" style="fill: none"/>
   </g>
   <g id="text_14">
    <!-- Causal Impact -->
    <g style="fill: #262626" transform="translate(215.660541 207.232919) scale(0.16 -0.16)">
     <defs>
      <path id="DejaVuSans-43" d="M 4122 4306
L 4122 3641
Q 3803 3938 3442 4084
Q 3081 4231 2675 4231
Q 1875 4231 1450 3742
Q 1025 3253 1025 2328
Q 1025 1406 1450 917
Q 1875 428 2675 428
Q 3081 428 3442 575
Q 3803 722 4122 1019
L 4122 359
Q 3791 134 3420 21
Q 3050 -91 2638 -91
Q 1578 -91 968 557
Q 359 1206 359 2328
Q 359 3453 968 4101
Q 1578 4750 2638 4750
Q 3056 4750 3426 4639
Q 3797 4528 4122 4306
z
" transform="scale(0.015625)"/>
      <path id="DejaVuSans-49" d="M 628 4666
L 1259 4666
L 1259 0
L 628 0
L 628 4666
z
" transform="scale(0.015625)"/>
     </defs>
     <use xlink:href="#DejaVuSans-43"/>
     <use xlink:href="#DejaVuSans-61" x="69.824219"/>
     <use xlink:href="#DejaVuSans-75" x="131.103516"/>
     <use xlink:href="#DejaVuSans-73" x="194.482422"/>
     <use xlink:href="#DejaVuSans-61" x="246.582031"/>
     <use xlink:href="#DejaVuSans-6c" x="307.861328"/>
     <use xlink:href="#DejaVuSans-20" x="335.644531"/>
     <use xlink:href="#DejaVuSans-49" x="367.431641"/>
     <use xlink:href="#DejaVuSans-6d" x="396.923828"/>
     <use xlink:href="#DejaVuSans-70" x="494.335938"/>
     <use xlink:href="#DejaVuSans-61" x="557.8125"/>
     <use xlink:href="#DejaVuSans-63" x="619.091797"/>
     <use xlink:href="#DejaVuSans-74" x="674.072266"/>
    </g>
   </g>
  </g>
  <g id="axes_3">
   <g id="patch_13">
    <path d="M 40.197381 560.193267
L 505.248701 560.193267
L 505.248701 398.748961
L 40.197381 398.748961
z
" style="fill: #eeeeee"/>
   </g>
   <g id="matplotlib.axis_5">
    <g id="xtick_13">
     <g id="line2d_67">
      <path d="M 61.336077 560.193267
L 61.336077 398.748961
" clip-path="url(#paf36c7c5af)" style="fill: none; stroke: #ffffff; stroke-width: 0.8; stroke-linecap: round"/>
     </g>
     <g id="line2d_68"/>
     <g id="text_15">
      <!-- 0 -->
      <g style="fill: #262626" transform="translate(56.882327 574.33108) scale(0.14 -0.14)">
       <use xlink:href="#DejaVuSans-30"/>
      </g>
     </g>
    </g>
    <g id="xtick_14">
     <g id="line2d_69">
      <path d="M 146.744952 560.193267
L 146.744952 398.748961
" clip-path="url(#paf36c7c5af)" style="fill: none; stroke: #ffffff; stroke-width: 0.8; stroke-linecap: round"/>
     </g>
     <g id="line2d_70"/>
     <g id="text_16">
      <!-- 20 -->
      <g style="fill: #262626" transform="translate(137.837452 574.33108) scale(0.14 -0.14)">
       <use xlink:href="#DejaVuSans-32"/>
       <use xlink:href="#DejaVuSans-30" x="63.623047"/>
      </g>
     </g>
    </g>
    <g id="xtick_15">
     <g id="line2d_71">
      <path d="M 232.153826 560.193267
L 232.153826 398.748961
" clip-path="url(#paf36c7c5af)" style="fill: none; stroke: #ffffff; stroke-width: 0.8; stroke-linecap: round"/>
     </g>
     <g id="line2d_72"/>
     <g id="text_17">
      <!-- 40 -->
      <g style="fill: #262626" transform="translate(223.246326 574.33108) scale(0.14 -0.14)">
       <use xlink:href="#DejaVuSans-34"/>
       <use xlink:href="#DejaVuSans-30" x="63.623047"/>
      </g>
     </g>
    </g>
    <g id="xtick_16">
     <g id="line2d_73">
      <path d="M 317.5627 560.193267
L 317.5627 398.748961
" clip-path="url(#paf36c7c5af)" style="fill: none; stroke: #ffffff; stroke-width: 0.8; stroke-linecap: round"/>
     </g>
     <g id="line2d_74"/>
     <g id="text_18">
      <!-- 60 -->
      <g style="fill: #262626" transform="translate(308.6552 574.33108) scale(0.14 -0.14)">
       <use xlink:href="#DejaVuSans-36"/>
       <use xlink:href="#DejaVuSans-30" x="63.623047"/>
      </g>
     </g>
    </g>
    <g id="xtick_17">
     <g id="line2d_75">
      <path d="M 402.971575 560.193267
L 402.971575 398.748961
" clip-path="url(#paf36c7c5af)" style="fill: none; stroke: #ffffff; stroke-width: 0.8; stroke-linecap: round"/>
     </g>
     <g id="line2d_76"/>
     <g id="text_19">
      <!-- 80 -->
      <g style="fill: #262626" transform="translate(394.064075 574.33108) scale(0.14 -0.14)">
       <defs>
        <path id="DejaVuSans-38" d="M 2034 2216
Q 1584 2216 1326 1975
Q 1069 1734 1069 1313
Q 1069 891 1326 650
Q 1584 409 2034 409
Q 2484 409 2743 651
Q 3003 894 3003 1313
Q 3003 1734 2745 1975
Q 2488 2216 2034 2216
z
M 1403 2484
Q 997 2584 770 2862
Q 544 3141 544 3541
Q 544 4100 942 4425
Q 1341 4750 2034 4750
Q 2731 4750 3128 4425
Q 3525 4100 3525 3541
Q 3525 3141 3298 2862
Q 3072 2584 2669 2484
Q 3125 2378 3379 2068
Q 3634 1759 3634 1313
Q 3634 634 3220 271
Q 2806 -91 2034 -91
Q 1263 -91 848 271
Q 434 634 434 1313
Q 434 1759 690 2068
Q 947 2378 1403 2484
z
M 1172 3481
Q 1172 3119 1398 2916
Q 1625 2713 2034 2713
Q 2441 2713 2670 2916
Q 2900 3119 2900 3481
Q 2900 3844 2670 4047
Q 2441 4250 2034 4250
Q 1625 4250 1398 4047
Q 1172 3844 1172 3481
z
" transform="scale(0.015625)"/>
       </defs>
       <use xlink:href="#DejaVuSans-38"/>
       <use xlink:href="#DejaVuSans-30" x="63.623047"/>
      </g>
     </g>
    </g>
    <g id="xtick_18">
     <g id="line2d_77">
      <path d="M 488.380449 560.193267
L 488.380449 398.748961
" clip-path="url(#paf36c7c5af)" style="fill: none; stroke: #ffffff; stroke-width: 0.8; stroke-linecap: round"/>
     </g>
     <g id="line2d_78"/>
     <g id="text_20">
      <!-- 100 -->
      <g style="fill: #262626" transform="translate(475.019199 574.33108) scale(0.14 -0.14)">
       <use xlink:href="#DejaVuSans-31"/>
       <use xlink:href="#DejaVuSans-30" x="63.623047"/>
       <use xlink:href="#DejaVuSans-30" x="127.246094"/>
      </g>
     </g>
    </g>
   </g>
   <g id="matplotlib.axis_6">
    <g id="ytick_9">
     <g id="line2d_79">
      <path d="M 40.197381 520.746644
L 505.248701 520.746644
" clip-path="url(#paf36c7c5af)" style="fill: none; stroke: #ffffff; stroke-width: 0.8; stroke-linecap: round"/>
     </g>
     <g id="line2d_80"/>
     <g id="text_21">
      <!-- 40 -->
      <g style="fill: #262626" transform="translate(7.150819 526.06555) scale(0.14 -0.14)">
       <use xlink:href="#DejaVuSans-2212"/>
       <use xlink:href="#DejaVuSans-34" x="83.789062"/>
       <use xlink:href="#DejaVuSans-30" x="147.412109"/>
      </g>
     </g>
    </g>
    <g id="ytick_10">
     <g id="line2d_81">
      <path d="M 40.197381 463.741609
L 505.248701 463.741609
" clip-path="url(#paf36c7c5af)" style="fill: none; stroke: #ffffff; stroke-width: 0.8; stroke-linecap: round"/>
     </g>
     <g id="line2d_82"/>
     <g id="text_22">
      <!-- 20 -->
      <g style="fill: #262626" transform="translate(7.150819 469.060516) scale(0.14 -0.14)">
       <use xlink:href="#DejaVuSans-2212"/>
       <use xlink:href="#DejaVuSans-32" x="83.789062"/>
       <use xlink:href="#DejaVuSans-30" x="147.412109"/>
      </g>
     </g>
    </g>
    <g id="ytick_11">
     <g id="line2d_83">
      <path d="M 40.197381 406.736575
L 505.248701 406.736575
" clip-path="url(#paf36c7c5af)" style="fill: none; stroke: #ffffff; stroke-width: 0.8; stroke-linecap: round"/>
     </g>
     <g id="line2d_84"/>
     <g id="text_23">
      <!-- 0 -->
      <g style="fill: #262626" transform="translate(27.789881 412.055481) scale(0.14 -0.14)">
       <use xlink:href="#DejaVuSans-30"/>
      </g>
     </g>
    </g>
   </g>
   <g id="line2d_85">
    <path d="M 364.537581 407.548059
L 368.808025 406.130396
L 373.078469 406.087339
L 377.348912 409.555816
L 381.619356 415.132888
L 385.8898 425.857059
L 390.160243 440.903217
L 394.430687 460.45646
L 398.701131 479.272474
L 402.971575 498.732432
L 407.242018 513.081978
L 411.512462 524.877579
L 415.782906 533.431341
L 420.053349 540.438953
L 424.323793 544.1137
L 428.594237 546.958925
L 432.864681 548.436029
L 437.135124 549.777062
L 441.405568 550.349317
L 445.676012 550.066495
L 449.946455 549.776344
L 454.216899 550.755543
L 458.487343 551.376532
L 462.757787 551.705835
L 467.02823 552.646468
L 471.298674 552.653088
L 475.569118 551.856842
L 479.839561 551.896853
L 484.110005 552.85489
" clip-path="url(#paf36c7c5af)" style="fill: none; stroke: #000000; stroke-width: 1.5; stroke-linecap: round"/>
   </g>
   <g id="line2d_86">
    <path d="M 40.197381 406.736575
L 505.248701 406.736575
" clip-path="url(#paf36c7c5af)" style="fill: none; stroke: #000000; stroke-width: 1.5; stroke-linecap: round"/>
   </g>
   <g id="line2d_87">
    <path d="M 360.267137 560.193267
L 360.267137 398.748961
" clip-path="url(#paf36c7c5af)" style="fill: none; stroke: #ff0000; stroke-width: 3; stroke-linecap: round"/>
   </g>
   <g id="patch_14">
    <path d="M 40.197381 560.193267
L 40.197381 398.748961
" style="fill: none"/>
   </g>
   <g id="patch_15">
    <path d="M 505.248701 560.193267
L 505.248701 398.748961
" style="fill: none"/>
   </g>
   <g id="patch_16">
    <path d="M 40.197381 560.193267
L 505.248701 560.193267
" style="fill: none"/>
   </g>
   <g id="patch_17">
    <path d="M 40.197381 398.748961
L 505.248701 398.748961
" style="fill: none"/>
   </g>
   <g id="text_24">
    <!-- Cumulative Causal Impact -->
    <g style="fill: #262626" transform="translate(167.458041 392.748961) scale(0.16 -0.16)">
     <use xlink:href="#DejaVuSans-43"/>
     <use xlink:href="#DejaVuSans-75" x="69.824219"/>
     <use xlink:href="#DejaVuSans-6d" x="133.203125"/>
     <use xlink:href="#DejaVuSans-75" x="230.615234"/>
     <use xlink:href="#DejaVuSans-6c" x="293.994141"/>
     <use xlink:href="#DejaVuSans-61" x="321.777344"/>
     <use xlink:href="#DejaVuSans-74" x="383.056641"/>
     <use xlink:href="#DejaVuSans-69" x="422.265625"/>
     <use xlink:href="#DejaVuSans-76" x="450.048828"/>
     <use xlink:href="#DejaVuSans-65" x="509.228516"/>
     <use xlink:href="#DejaVuSans-20" x="570.751953"/>
     <use xlink:href="#DejaVuSans-43" x="602.539062"/>
     <use xlink:href="#DejaVuSans-61" x="672.363281"/>
     <use xlink:href="#DejaVuSans-75" x="733.642578"/>
     <use xlink:href="#DejaVuSans-73" x="797.021484"/>
     <use xlink:href="#DejaVuSans-61" x="849.121094"/>
     <use xlink:href="#DejaVuSans-6c" x="910.400391"/>
     <use xlink:href="#DejaVuSans-20" x="938.183594"/>
     <use xlink:href="#DejaVuSans-49" x="969.970703"/>
     <use xlink:href="#DejaVuSans-6d" x="999.462891"/>
     <use xlink:href="#DejaVuSans-70" x="1096.875"/>
     <use xlink:href="#DejaVuSans-61" x="1160.351562"/>
     <use xlink:href="#DejaVuSans-63" x="1221.630859"/>
     <use xlink:href="#DejaVuSans-74" x="1276.611328"/>
    </g>
   </g>
  </g>
 </g>
 <defs>
  <clipPath id="p1fe1fee3fb">
   <rect x="40.197381" y="27.716878" width="465.05132" height="161.444306"/>
  </clipPath>
  <clipPath id="pd1c50cde68">
   <rect x="40.197381" y="213.232919" width="465.05132" height="161.444306"/>
  </clipPath>
  <clipPath id="paf36c7c5af">
   <rect x="40.197381" y="398.748961" width="465.05132" height="161.444306"/>
  </clipPath>
 </defs>
</svg>
